<?xml version="1.0" encoding="UTF-8"?>
<svg width="145px" height="43px" viewBox="0 0 145 43" version="1.1" xmlns="http://www.w3.org/2000/svg" xmlns:xlink="http://www.w3.org/1999/xlink">
    <title>Group</title>
    <g id="Page-1" stroke="none" stroke-width="1" fill="none" fill-rule="evenodd">
        <g id="cshare-[Converted]" transform="translate(-156.000000, -10.000000)">
            <g id="Group" transform="translate(156.468708, 10.130000)">
                <polygon id="Cherry-Underline" fill="#6931C0" points="0.151292012 39.4 144.021292 26.48 144.251292 29.11 0.381292012 42.04"></polygon>
                <path d="M10.631292,14.93 C12.3854387,14.7088026 14.1653665,14.8139031 15.881292,15.24 C17.0797216,15.5527242 18.1113306,16.315685 18.761292,17.37 C19.4313573,18.6430737 19.7457264,20.0732802 19.671292,21.51 L19.671292,21.51 L19.671292,28.71 L15.401292,29.08 L15.401292,27.93 C14.2877017,28.9826384 12.8232491,29.5848099 11.291292,29.62 C10.0078336,29.8021627 8.7012422,29.5259726 7.60129201,28.84 C6.68129201,28.17 6.22129201,27.08 6.22129201,25.17 C6.22129201,23.26 6.68129201,21.94 7.68129201,21.17 C8.84775676,20.3238615 10.2410101,19.8466722 11.681292,19.8 C12.9969784,19.5709437 14.3481834,19.908745 15.401292,20.73 C15.4205857,19.8505782 14.8897444,19.0523206 14.071292,18.73 C11.2423866,18.0027785 8.23619587,18.618771 5.92129201,20.4 C3.98509905,22.9876091 3.74258036,26.4689257 5.30129201,29.3 C6.11471446,30.2096161 7.26201497,30.7507956 8.48129201,30.8 C10.6206363,30.9579897 12.7700971,30.9144648 14.901292,30.67 L14.901292,30.67 L14.731292,34.29 C11.8177108,34.6317226 8.8714658,34.5812732 5.97129201,34.14 C4.15794989,33.8882298 2.51826597,32.9281518 1.41129201,31.47 C0.373203385,29.6883154 -0.110700574,27.6378159 0.0212920122,25.58 C-0.0288157603,23.6909597 0.40857279,21.8208653 1.29129201,20.15 C2.14312079,18.6179706 3.4123037,17.3591908 4.95129201,16.52 C6.72048605,15.5764202 8.67046803,15.0207435 10.671292,14.89 L10.671292,14.89 Z M25.941292,10.06 C26.6937106,9.96812143 27.4570521,10.0362769 28.181292,10.26 C28.7316613,10.438833 29.1953264,10.8168984 29.481292,11.32 C29.7288507,11.7743926 29.9074704,12.2630691 30.011292,12.77 C30.1102189,13.3311452 30.1570848,13.9002309 30.151292,14.47 L30.151292,14.47 L30.151292,18.57 L26.761292,18.87 L26.761292,14.87 C26.761292,13.86 26.381292,13.39 25.601292,13.46 C25.2670157,13.4539018 24.9518056,13.6152593 24.761292,13.89 C24.5887503,14.2546521 24.5129857,14.6575816 24.541292,15.06 L24.541292,15.06 L24.541292,28.7 C24.541292,29.75 24.901292,30.24 25.631292,30.17 L25.631292,30.17 L25.601292,30.13 C26.361292,30.07 26.731292,29.49 26.731292,28.49 L26.731292,28.49 L26.731292,23.16 L30.121292,22.86 L30.121292,28.16 C30.121292,31.49 28.741292,33.25 26.001292,33.49 L26.001292,33.49 L25.241292,33.56 C22.4146253,33.8133333 21.001292,32.3233333 21.001292,29.09 L21.001292,29.09 L21.0013749,14.8134292 C21.028403,13.7092757 21.3747071,12.6343281 22.001292,11.72 C22.7481605,10.7304927 23.9116297,10.1432178 25.151292,10.13 L25.151292,10.13 Z M40.611292,9.03 L40.611292,31.97 L37.161292,32.28 L37.161292,22.19 L34.811292,22.4 L34.811292,32.48 L31.371292,32.78 L31.371292,9.84 L34.811292,9.54 L34.811292,18.73 L37.161292,18.52 L37.161292,9.33 L40.611292,9.03 Z M49.831292,8.22 L49.831292,11.55 L45.431292,11.93 L45.431292,17.93 L48.881292,17.62 L48.881292,21.09 L45.431292,21.39 L45.431292,28.02 L50.011292,27.62 L50.011292,31.15 L42.011292,31.85 L41.991292,8.9 L49.831292,8.22 Z M56.611292,7.66 C57.5222144,7.4909083 58.462573,7.70429737 59.211292,8.25 C59.8543558,8.97826516 60.1594816,9.94449692 60.051292,10.91 L60.051292,10.91 L60.051292,14.98 C60.051292,16.52 59.561292,17.54 58.561292,18.04 C59.5487865,18.3872263 60.1663872,19.3695845 60.051292,20.41 L60.051292,20.41 L60.051292,28.41 C60.0356673,28.9853216 60.1519721,29.5565833 60.391292,30.08 L60.391292,30.08 L60.391292,30.24 L56.971292,30.54 C56.7052246,29.9580527 56.5916595,29.3179586 56.641292,28.68 L56.641292,28.68 L56.641292,21.78 C56.6773235,21.3928798 56.5898044,21.004295 56.391292,20.67 C56.271292,20.44 55.921292,20.39 55.391292,20.44 L55.391292,20.44 L54.471292,20.52 L54.471292,30.8 L51.021292,31.1 L51.021292,8.15 Z M66.921292,6.7 C67.8574039,6.42124175 68.8711271,6.66188056 69.5820831,7.33162173 C70.2930392,8.0013629 70.5937164,8.9989274 70.371292,9.95 L70.371292,9.95 L70.371292,14.02 C70.371292,15.56 69.871292,16.58 68.871292,17.08 C69.8603283,17.4266444 70.4812902,18.4077642 70.371292,19.45 L70.371292,19.45 L70.371292,27.5 C70.3584533,28.0708184 70.4711056,28.6374939 70.701292,29.16 L70.701292,29.16 L70.701292,29.32 L67.291292,29.62 C67.0241629,29.045639 66.9137602,28.4108237 66.971292,27.78 L66.971292,27.78 L66.971292,20.87 C67.0089647,20.4840277 66.9250522,20.0959327 66.731292,19.76 C66.611292,19.53 66.261292,19.48 65.731292,19.53 L65.731292,19.53 L64.791292,19.62 L64.791292,29.84 L61.341292,30.14 L61.341292,7.19 Z M80.491292,5.53 L77.491292,19.21 L77.491292,28.74 L74.051292,29.04 L74.051292,19.48 L70.941292,6.37 L74.291292,6.07 L75.831292,14.51 L77.351292,5.8 L80.491292,5.53 Z M85.861292,4.8 C86.6137106,4.70812143 87.3770521,4.77627692 88.101292,5 C88.6516613,5.17883301 89.1153264,5.5568984 89.401292,6.06 C89.6503725,6.51370298 89.8290782,7.00261471 89.931292,7.51 C90.030676,8.0710861 90.0775453,8.64021436 90.071292,9.21 L90.071292,9.21 L90.071292,13.31 L86.681292,13.61 L86.681292,9.61 C86.681292,8.6 86.301292,8.13 85.521292,8.2 C85.1905369,8.19724431 84.8798175,8.35821944 84.691292,8.63 C84.5098462,8.99189317 84.430337,9.39635282 84.461292,9.8 L84.461292,9.8 L84.461292,23.44 C84.461292,24.48 84.821292,24.98 85.551292,24.91 L85.551292,24.91 L85.531292,24.89 C86.291292,24.83 86.661292,24.25 86.661292,23.25 L86.661292,23.25 L86.661292,17.92 L90.051292,17.62 L90.051292,22.89 C90.051292,26.22 88.671292,27.98 85.931292,28.22 L85.931292,28.22 L85.171292,28.29 C82.3446253,28.53 80.931292,27.04 80.931292,23.82 L80.931292,23.82 L80.931086,9.54338384 C80.9570628,8.43903699 81.3035592,7.36378079 81.931292,6.45 C82.6780731,5.46701717 83.836892,4.88391721 85.071292,4.87 L85.071292,4.87 Z M96.201292,3.93 C97.44161,3.67291076 98.7268277,4.0735963 99.601292,4.99 C100.358743,6.10601459 100.718072,7.44469204 100.621292,8.79 L100.621292,8.79 L100.621292,21.57 C100.627959,25.17 99.1646253,27.1 96.231292,27.36 L96.231292,27.36 L95.651292,27.41 C92.6846253,27.6766667 91.2012695,26.01 91.2012695,22.41 L91.2012695,22.41 L91.2012695,9.64 C91.1946253,6.12666667 92.6679587,4.24 95.621292,3.98 L95.621292,3.98 Z M113.791292,2.62 L113.791292,25.56 L110.561292,25.84 L110.561292,11.01 L108.491292,26.01 L107.111292,26.13 L105.011292,11.48 L105.011292,26.32 L101.931292,26.63 L101.931292,3.63 L106.351292,3.25 L108.001292,15.25 L109.681292,2.98 L113.791292,2.62 Z M14.261292,23.27 C13.834005,23.2605508 13.40654,23.2772487 12.981292,23.32 C12.5306692,23.3513278 12.0828616,23.4148229 11.641292,23.51 C11.3425011,23.5719373 11.0660541,23.7136164 10.841292,23.92 C10.6182633,24.156357 10.5056469,24.476042 10.531292,24.8 C10.5060718,25.1030931 10.6201584,25.4011905 10.841292,25.61 C11.0709848,25.7867959 11.3514812,25.8849697 11.641292,25.89 C12.0874202,25.9210173 12.5351638,25.9210173 12.981292,25.89 L12.981292,25.89 L12.981292,25.84 C13.4111489,25.8054204 13.8385697,25.7453144 14.261292,25.66 C14.5504831,25.6036822 14.8236601,25.4841673 15.061292,25.31 C15.2731338,25.1154926 15.4020352,24.8469482 15.421292,24.56 L15.421292,24.56 L15.421292,24.17 C15.4111549,23.897925 15.274233,23.6462847 15.051292,23.49 C14.8092474,23.3547733 14.5383922,23.2793453 14.261292,23.27 Z M123.011292,1.8 L123.011292,5.13 L118.621292,5.52 L118.621292,11.52 L122.071292,11.22 L122.071292,14.7 L118.621292,15.01 L118.621292,21.64 L123.191292,21.23 L123.191292,24.72 L115.191292,25.42 L115.171292,2.49 L123.011292,1.8 Z M129.481292,1.19 C130.563852,0.960252849 131.689609,1.28672247 132.481292,2.06 C133.143778,2.98941759 133.458776,4.12199697 133.371292,5.26 L133.371292,5.26 L133.371292,19.26 C133.371292,22.31 132.081292,23.94 129.501292,24.17 L129.501292,24.17 L124.201292,24.62 L124.201292,1.66 Z M96.0523191,7.27407407 L95.921292,7.28 C95.111292,7.35 94.701292,7.97 94.701292,9.14 L94.701292,9.14 L94.701292,22.34 C94.701292,23.51 95.121292,24.06 95.951292,23.99 C96.731292,23.92 97.111292,23.3 97.111292,22.13 L97.111292,22.13 L97.111292,8.93 C97.111292,7.76 96.731292,7.21 95.921292,7.28 Z M143.491292,0 L140.491292,13.68 L140.491292,23.21 L137.051292,23.51 L137.051292,13.95 L133.941292,0.84 L137.291292,0.54 L138.831292,8.98 L140.351292,0.27 L143.491292,0 Z M128.76939,4.39590601 L128.641292,4.41 L127.671292,4.5 L127.671292,21 L128.491292,20.93 C128.901181,20.930881 129.288579,20.7427161 129.541292,20.42 C129.763911,19.9885436 129.864201,19.5043873 129.831292,19.02 L129.831292,19.02 L129.831292,6.1 C129.873801,5.62692848 129.780116,5.15156794 129.561292,4.73 C129.330813,4.47109165 128.982693,4.35000649 128.641292,4.41 Z M55.391292,10.84 L54.471292,10.92 L54.471292,17.25 L55.381292,17.17 C56.221292,17.09 56.641292,16.51 56.641292,15.42 L56.641292,15.42 L56.641292,12.21 C56.6691532,11.8202611 56.5822416,11.4308972 56.391292,11.09 C56.241292,10.84 55.901292,10.84 55.391292,10.84 L55.391292,10.84 Z M66.731292,10.19 C66.581292,9.94 66.241292,9.89 65.731292,9.94 L65.731292,9.94 L64.811292,10.02 L64.811292,16.34 L65.721292,16.26 C66.561292,16.19 66.971292,15.6 66.971292,14.51 L66.971292,14.51 L66.971292,11.31 C67.0077559,10.9209053 66.9239881,10.529989 66.731292,10.19 Z" id="@Cherry" fill="#E9FE6F"></path>
            </g>
        </g>
    </g>
</svg>