<?xml version="1.0" encoding="UTF-8"?>
<svg width="26px" height="27px" viewBox="0 0 26 27" version="1.1" xmlns="http://www.w3.org/2000/svg" xmlns:xlink="http://www.w3.org/1999/xlink">
    <title>FB btn</title>
    <g id="Page-1" stroke="none" stroke-width="1" fill="none" fill-rule="evenodd">
        <g id="cshare-[Converted]" transform="translate(-85.000000, -17.000000)" fill="#FFFFFF">
            <path d="M102.34,25.38 L100.34,25.38 C99.69,25.38 99.2,25.65 99.2,26.33 L99.2,27.51 L102.38,27.51 L102.13,30.72 L99.16,30.72 L99.16,39.27 L95.98,39.27 L95.98,30.75 L93.85,30.75 L93.85,27.54 L95.98,27.54 L95.98,25.49 C95.98,23.33 97.1,22.2 99.65,22.2 L102.34,22.2 L102.34,25.38 Z M105.52,17.9 L90.67,17.9 C89.2590452,17.9052944 87.9079837,18.4708767 86.9140387,19.4723231 C85.9200938,20.4737695 85.3646857,21.8290453 85.3699622,23.24 L85.3699622,38.24 C85.3646857,39.6509547 85.9200938,41.0062305 86.9140387,42.0076769 C87.9079837,43.0091233 89.2590452,43.5747056 90.67,43.58 L105.52,43.58 C108.459771,43.5689741 110.835536,41.1797863 110.83001,38.24 L110.83001,23.24 C110.835536,20.3002137 108.459771,17.9110259 105.52,17.9 L105.52,17.9 Z" id="FB-btn"></path>
        </g>
    </g>
</svg>