<?xml version="1.0" encoding="UTF-8"?>
<svg width="26px" height="27px" viewBox="0 0 26 27" version="1.1" xmlns="http://www.w3.org/2000/svg" xmlns:xlink="http://www.w3.org/1999/xlink">
    <title>IG btn</title>
    <g id="Page-1" stroke="none" stroke-width="1" fill="none" fill-rule="evenodd">
        <g id="cshare-[Converted]" transform="translate(-54.000000, -17.000000)" fill="#FFFFFF">
            <path d="M75.31,34.12 C75.17,37.23 73.45,38.96 70.37,39.12 C69.47,39.12 69.18,39.12 66.87,39.12 C64.56,39.12 64.28,39.12 63.37,39.12 C60.29,38.98 58.58,37.25 58.44,34.12 C58.44,33.21 58.39,32.92 58.39,30.6 C58.39,28.28 58.39,27.99 58.44,27.07 C58.58,23.97 60.29,22.24 63.37,22.07 C64.28,22.07 64.57,22.02 66.87,22.02 C69.17,22.02 69.47,22.02 70.37,22.07 C73.46,22.21 75.17,23.94 75.31,27.07 C75.31,27.99 75.31,28.28 75.31,30.6 C75.31,32.92 75.35,33.21 75.31,34.12 Z M74.31,17.78 L59.45,17.78 C56.5102291,17.7910259 54.1344638,20.1802137 54.1399903,23.12 L54.1399903,38.12 C54.1344638,41.0597863 56.5102291,43.4489741 59.45,43.46 L74.3,43.46 C75.7109548,43.4547056 77.0620163,42.8891233 78.0559613,41.8876769 C79.0499062,40.8862305 79.6053143,39.5309547 79.6002356,38.12 L79.6002356,23.12 C79.6133199,21.7038651 79.0614529,20.3408656 78.0666411,19.3329148 C77.0718292,18.3249639 75.7161878,17.7552614 74.3,17.75 L74.31,17.78 Z M69.71,30.6 C69.6989728,32.1603148 68.4270973,33.4173072 66.8667608,33.4100007 C65.3064243,33.4026302 64.0464286,32.1337299 64.0500705,30.5733804 C64.0537282,29.0130309 65.3196462,27.75 66.88,27.75 C68.4445805,27.7610086 69.705548,29.0353906 69.7,30.6 L69.71,30.6 Z M71.41,27.06 C70.8577153,27.06 70.41,26.6122847 70.41,26.06 C70.41,25.5077153 70.8577153,25.06 71.41,25.06 C71.9622847,25.06 72.41,25.5077153 72.41,26.06 C72.41,26.3269582 72.3032849,26.5828394 72.1135801,26.7706659 C71.9238754,26.9584924 71.6669449,27.0626696 71.4,27.06 L71.41,27.06 Z M66.88,34.99 C65.1017312,35.0021525 63.4917936,33.9403027 62.8028425,32.3008717 C62.1138913,30.6614407 62.4820399,28.7683241 63.7351766,27.5065649 C64.9883132,26.2448057 66.8788609,25.8636846 68.5229776,26.5413778 C70.1670942,27.2190711 71.2400458,28.8216897 71.2400458,30.6 C71.2453202,31.7624574 70.7872606,32.879129 69.9671493,33.7029937 C69.1470379,34.5268584 68.0324696,34.9900122 66.87,34.99 L66.88,34.99 Z M70.31,23.64 C69.42,23.64 69.15,23.59 66.88,23.59 C64.61,23.59 64.35,23.59 63.45,23.64 C61.15,23.75 60.08,24.85 59.98,27.15 C59.98,28.05 59.93,28.32 59.93,30.6 C59.93,32.88 59.93,33.15 59.98,34.05 C60.08,36.35 61.15,37.45 63.45,37.56 C64.35,37.56 64.62,37.61 66.88,37.61 C69.14,37.61 69.42,37.61 70.31,37.56 C72.62,37.45 73.69,36.35 73.79,34.05 C73.79,33.15 73.79,32.88 73.79,30.6 C73.79,28.32 73.79,28.05 73.79,27.15 C73.68,24.85 72.6,23.75 70.3,23.64 L70.31,23.64 Z" id="IG-btn"></path>
        </g>
    </g>
</svg>