<?xml version="1.0" encoding="UTF-8"?>
<svg width="43px" height="20px" viewBox="0 0 43 20" version="1.1" xmlns="http://www.w3.org/2000/svg" xmlns:xlink="http://www.w3.org/1999/xlink">
    <title>Group 3</title>
    <g id="Page-1" stroke="none" stroke-width="1" fill="none" fill-rule="evenodd">
        <g id="cshare-[Converted]" transform="translate(-80.000000, -42.000000)">
            <g id="Group-3" transform="translate(80.340000, 42.060000)">
                <polygon id="Path" fill="#6931C0" points="0 7.56 41.51 6.42 41.83 18.18 0.33 19.32"></polygon>
                <polygon id="Path" fill="#6931C0" points="19.24 0.07 21.88 0 22.11 8.39 19.47 8.47"></polygon>
                <path d="M9.83,10.07 L9.94,14.07 L13.81,13.94 L13.86,15.79 L7.81,15.95 L7.65,10.07 L9.83,10.07 Z M16.3,9.86 L16.42,15.69 L14.28,15.79 L14.11,9.92 L16.3,9.86 Z M24.79,9.62 L21.5,12.5 L24.97,15.5 L21.97,15.58 L20.04,13.77 L19.15,14.54 L19.15,15.66 L16.96,15.72 L16.8,9.84 L18.98,9.78 L19.05,12.08 L21.69,9.71 L24.79,9.62 Z M31.47,9.44 L31.47,11.12 L27.63,11.23 L27.63,11.78 L31.63,11.67 L31.63,13.09 L27.63,13.2 L27.63,13.75 L31.63,13.64 L31.63,15.32 L25.42,15.49 L25.25,9.61 L31.47,9.44 Z M34.03,13.74 L34.03,15.25 L32.03,15.3 L32.03,13.79 L34.03,13.74 Z M34.03,9.37 L34.04,13.23 L32.04,13.29 L31.85,9.43 L34.03,9.37 Z" id="LIKE!" fill="#E9FE6F"></path>
            </g>
        </g>
    </g>
</svg>