<?xml version="1.0" encoding="UTF-8"?>
<svg width="42px" height="20px" viewBox="0 0 42 20" version="1.1" xmlns="http://www.w3.org/2000/svg" xmlns:xlink="http://www.w3.org/1999/xlink">
    <title>Group 5</title>
    <g id="Page-1" stroke="none" stroke-width="1" fill="none" fill-rule="evenodd">
        <g id="cshare-[Converted]" transform="translate(-44.000000, 0.000000)">
            <g id="Group-5" transform="translate(44.560000, 0.000000)">
                <polygon id="Path" fill="#6931C0" points="20.29 11.14 22.92 10.97 23.47 19.35 20.84 19.53"></polygon>
                <polygon id="Path" fill="#6931C0" points="0 2.62 39.76 0 40.53 11.74 0.78 14.35"></polygon>
                <path d="M11.86,4.54 C12.2681904,4.50507539 12.6784195,4.57746875 13.05,4.75 C13.3961583,4.91821107 13.6899965,5.17748014 13.9,5.5 C14.1142372,5.84355112 14.2380791,6.23571742 14.26,6.64 C14.2950366,7.04495886 14.2225983,7.45199312 14.05,7.82 C13.8820252,8.16898765 13.6228982,8.46611998 13.3,8.68 C12.9571957,8.89585352 12.5645995,9.01983128 12.16,9.04 L12.16,9.04 L9.73,9.2 L9.82,10.58 L7.64,10.72 L7.25,4.84 L11.86,4.54 Z M16.71,4.22 L17.09,10.1 L14.91,10.24 L14.53,4.37 L16.71,4.22 Z M20.76,3.84 C21.6934021,3.71452815 22.642825,3.87858285 23.48,4.31 C24.1537083,4.7560432 24.5678913,5.50231901 24.59,6.31 L24.59,6.31 L22.36,6.45 C22.3083336,6.19229333 22.1429318,5.97175762 21.91,5.85 C21.5932421,5.72196401 21.2489655,5.67720804 20.91,5.72 C20.4827322,5.69262339 20.0609988,5.82843584 19.73,6.1 C19.530689,6.34724734 19.4404485,6.664894 19.48,6.98 C19.4786122,7.30269652 19.6128708,7.61112854 19.85,7.83 C20.2094247,8.05776041 20.6408543,8.14333323 21.06,8.07 C21.4117749,8.06359452 21.7560471,7.96719831 22.06,7.79 C22.2779694,7.63381036 22.4138983,7.38766886 22.43,7.12 L22.43,7.12 L24.66,6.98 C24.7243073,7.77291902 24.4134081,8.55016716 23.82,9.08 C23.0441428,9.62484283 22.1180422,9.91490453 21.17,9.91 C20.1850154,10.060023 19.1784281,9.86576929 18.32,9.36 C17.6663375,8.80632743 17.2986442,7.98637138 17.32,7.13 L17.32,7.13 L17.27,7.1 C17.1393109,6.24915051 17.4087045,5.38561498 18,4.76 C18.787144,4.14565457 19.7616776,3.82081004 20.76,3.84 Z M28.47,3.42 C29.3851532,3.31390667 30.3124464,3.41998079 31.18,3.73 C31.7843053,3.99466799 32.1761609,4.5902885 32.18,5.25 L32.18,5.25 L30,5.39 C29.99,5.24 29.86,5.11 29.62,5.11 C29.2172674,5.07886878 28.8127326,5.07886878 28.41,5.11 C28.06,5.14 27.79,5.19 27.62,5.19 C27.5009531,5.19936657 27.3851615,5.23342292 27.28,5.29 C27.2197995,5.3294371 27.1854294,5.39817732 27.19,5.47 C27.1893121,5.53580771 27.2289898,5.59532435 27.29,5.62 C27.3956316,5.64101497 27.5043684,5.64101497 27.61,5.62 L27.61,5.62 L28.69,5.62 C29.4027906,5.58064671 30.1172094,5.58064671 30.83,5.62 C31.2678453,5.65144964 31.689199,5.79995957 32.05,6.05 C32.3762352,6.31304875 32.5641307,6.71094514 32.56,7.13 C32.6123269,7.57805207 32.4906178,8.02909172 32.22,8.39 C31.8966433,8.73513898 31.4795971,8.97841594 31.02,9.09 C29.6516303,9.41352708 28.2386204,9.50479806 26.84,9.36 C26.3664314,9.30422792 25.9222669,9.10138115 25.57,8.78 C25.2409031,8.43128654 25.0583292,7.9694821 25.06,7.49 L25.06,7.49 L27.2,7.46 C27.2066667,7.62 27.3266667,7.73 27.56,7.79 C27.9976608,7.85416349 28.4423392,7.85416349 28.88,7.79 C29.3,7.76 29.62,7.7 29.83,7.7 C29.9749077,7.67976601 30.1162755,7.63937518 30.25,7.58 C30.3154988,7.54054624 30.3509649,7.46567339 30.34,7.39 C30.3427256,7.30805703 30.2951633,7.23275 30.22,7.2 C30.0838175,7.15978644 29.9418172,7.14288164 29.8,7.15 L28.8,7.15 C28.0791492,7.19658636 27.3554298,7.16978194 26.64,7.07 C26.203307,7.02199783 25.7899258,6.84830824 25.45,6.57 C25.1758894,6.28497908 25.0219239,5.90543624 25.02,5.51 C24.9635115,4.90295154 25.2850562,4.32337715 25.83,4.05 C26.6532282,3.64915375 27.5544761,3.43408321 28.47,3.42 Z M35.09,7.4 L35.19,8.91 L33.19,9.04 L33.09,7.53 L35.09,7.4 Z M11.92,6.42 C11.8016416,6.39192885 11.6783584,6.39192885 11.56,6.42 L11.56,6.42 L9.56,6.55 L9.62,7.35 L11.62,7.22 L11.61,7.18 C11.7321544,7.1781902 11.852125,7.14734061 11.96,7.09 C12.07,7.04 12.07,6.93 12.07,6.75 C12.0633333,6.57 12.0133333,6.46 11.92,6.42 Z M34.9,3.03 L35.06,6.89 L33.06,7.03 L32.72,3.17 L34.9,3.03 Z" id="PICS!" fill="#E9FE6F"></path>
            </g>
        </g>
    </g>
</svg>