<?xml version="1.0" encoding="UTF-8"?>
<svg width="59px" height="21px" viewBox="0 0 59 21" version="1.1" xmlns="http://www.w3.org/2000/svg" xmlns:xlink="http://www.w3.org/1999/xlink">
    <title>Group 4</title>
    <g id="Page-1" stroke="none" stroke-width="1" fill="none" fill-rule="evenodd">
        <g id="cshare-[Converted]" transform="translate(-8.000000, -41.000000)">
            <g id="Group-4" transform="translate(8.660000, 41.680000)">
                <polygon id="Path" fill="#6931C0" points="0.61 5.75 58.1 8.51 57.54 20.26 0 17.5"></polygon>
                <polygon id="Path" fill="#6931C0" points="25.87 0 28.51 0.12 28.11 8.51 25.47 8.39"></polygon>
                <path d="M50.5,15.27 L52.51,15.36 L52.43,16.87 L50.43,16.78 L50.5,15.27 Z M37.96,10.29 L40.3,10.4 L41.3,14.61 L42.78,10.52 L45.38,10.65 L46.45,14.85 L47.87,10.77 L50.23,10.91 L48.02,16.69 L44.78,16.53 L43.98,13.11 L42.85,16.44 L39.61,16.29 L37.96,10.29 Z M31.4,9.98 L37.61,10.27 L37.53,11.95 L33.48,11.76 L33.48,12.3 L37.48,12.5 L37.41,13.92 L33.41,13.73 L33.41,14.28 L37.41,14.47 L37.33,16.15 L31.12,15.85 L31.4,9.98 Z M28.71,9.85 L30.9,9.95 L30.61,15.82 L28.43,15.72 L28.71,9.85 Z M20.19,9.44 L22.59,9.55 L24.03,13.99 L25.9,9.71 L28.29,9.84 L25.58,15.59 L22.34,15.44 L20.19,9.44 Z M13.65,9.09 L19.86,9.39 L19.78,11.07 L15.72,10.88 L15.72,11.42 L19.72,11.61 L19.65,13.04 L15.65,12.85 L15.65,13.39 L19.65,13.59 L19.57,15.26 L13.37,14.97 L13.65,9.09 Z M6.35,8.77 L10.96,9 C11.3668047,9.00868627 11.763873,9.12608039 12.11,9.34 C12.4372013,9.54305982 12.7005915,9.83417525 12.87,10.18 C13.0447034,10.5441655 13.1238541,10.9468018 13.1,11.35 L13.1,11.35 L13.06,11.35 C13.0480915,11.7486336 12.9344969,12.137609 12.73,12.48 C12.5366193,12.8007372 12.2602261,13.0633106 11.93,13.24 L11.93,13.24 L12.93,14.98 L10.34,14.85 L9.59,13.44 L8.31,13.38 L8.24,14.75 L6.06,14.65 L6.35,8.77 Z M50.63,10.9 L52.81,11 L52.53,14.86 L50.53,14.76 L50.63,10.9 Z M8.44,10.72 L8.4,11.53 L10.4,11.63 C10.5254359,11.6382411 10.6512506,11.6212391 10.77,11.58 C10.85,11.54 10.9,11.43 10.91,11.25 C10.92,11.07 10.88,10.91 10.8,10.91 C10.6888478,10.8518425 10.5654437,10.8209915 10.44,10.82 L10.44,10.82 L8.44,10.72 Z" id="REVIEW!" fill="#E9FE6F"></path>
            </g>
        </g>
    </g>
</svg>