<?xml version="1.0" encoding="UTF-8"?>
<svg width="27px" height="27px" viewBox="0 0 27 27" version="1.1" xmlns="http://www.w3.org/2000/svg" xmlns:xlink="http://www.w3.org/1999/xlink">
    <title>TA btn</title>
    <g id="Page-1" stroke="none" stroke-width="1" fill="none" fill-rule="evenodd">
        <g id="cshare-[Converted]" transform="translate(-22.000000, -17.000000)" fill="#FFFFFF">
            <path d="M43.03,17.75 C44.4462591,17.7552944 45.8024077,18.3229838 46.8001034,19.328181 C47.7354431,20.2705533 48.2839054,21.525083 48.3444624,22.8451795 L48.3500385,23.11 L48.3500385,38.11 C48.3608016,40.9870744 46.0983384,43.3429998 43.2502133,43.4743153 L43.03,43.48 L28.12,43.48 C25.2429504,43.463887 22.9082919,41.1794857 22.8035888,38.3302568 L22.7999615,38.11 L22.7999615,23.11 C22.7946857,21.6937409 23.352201,20.3333781 24.3498966,19.328181 C25.2852363,18.3858087 26.5356225,17.8279646 27.8552287,17.7575528 L28.12,17.75 L43.03,17.75 Z M34.97,24.49 L34.22,24.55 C33.6125779,24.6430072 33.0114451,24.7732526 32.42,24.94 C31.8629959,25.1098163 31.3223337,25.3283619 30.8042407,25.5929592 L30.42,25.8 L29.82,26.16 L29.56,26.34 L26.12,26.34 L27.59,27.96 L27.66,28.03 C27.4702784,28.1902955 27.2992016,28.3714357 27.15,28.57 C26.6573419,29.2086985 26.315484,29.95053 26.15,30.74 C26.0941328,31.0877706 26.0941328,31.4422294 26.15,31.79 C26.1719879,32.0987481 26.2120566,32.4059417 26.27,32.71 C26.4789149,33.4437271 26.8400944,34.125198 27.33,34.71 C27.4615433,34.8680331 27.608985,35.0121239 27.77,35.14 C28.263981,35.5786417 28.8377426,35.9181456 29.46,36.14 C29.65,36.2 29.83,36.23 30.04,36.28 C30.5161847,36.365589 31.0038153,36.365589 31.48,36.28 C31.74,36.23 32,36.19 32.24,36.12 C32.6499317,35.987332 33.0408576,35.803088 33.4034827,35.572013 L33.67,35.39 L34.09,35.05 L35.6,36.71 L36.35875,35.87625 L36.35875,35.87625 L37.11,35.05 L37.57,35.43 C38.0181828,35.751115 38.519057,35.9913992 39.05,36.14 C39.8951916,36.3657006 40.7848084,36.3657006 41.63,36.14 C42.972946,35.7501166 44.0725364,34.782477 44.63,33.5 C44.7437401,33.226957 44.8362601,32.9457077 44.9068063,32.6587576 L44.97,32.37 L45.03,31.81 L45.03,31.63 C45.0580878,31.3248891 45.0344214,31.0172255 44.96,30.72 C44.8291869,30.0267253 44.5531393,29.3689824 44.15,28.79 C44.01,28.59 43.84,28.43 43.69,28.24 C43.6564863,28.1898852 43.6166229,28.1444882 43.5714979,28.1048968 L43.5,28.05 L45.02,26.38 L41.58,26.38 L41.11,26.06 C40.7905354,25.8554228 40.4562775,25.6749235 40.11,25.52 C38.7022422,24.8813684 37.1790031,24.541101 35.6360843,24.5189098 L35.25,24.52 L34.97,24.49 Z M30.68,28.39 C32.0595094,28.2991277 33.3370456,29.1183731 33.83,30.41 C34.1396383,31.2042212 34.1396383,32.0857788 33.83,32.88 C33.4598348,33.7853776 32.6982074,34.4734178 31.76,34.75 C31.4994414,34.7519365 31.2389937,34.7385802 30.98,34.71 L30.98,34.71 L30.22,34.71 C29.9741914,34.652871 29.7334063,34.5759536 29.5,34.48 C28.62626,34.0894105 27.9757576,33.3249783 27.73,32.4 C27.6080363,31.9848176 27.5773341,31.5481642 27.64,31.12 C27.6673887,30.9242705 27.7074733,30.7305286 27.76,30.54 C28.0825146,29.6005464 28.8205464,28.8625146 29.76,28.54 C29.9555415,28.4736084 30.1562202,28.4234387 30.36,28.39 L30.36,28.39 Z M40.14,28.39 C41.4490703,28.3045521 42.6747953,29.0368033 43.22,30.23 C43.4677898,30.8132886 43.5407477,31.4560125 43.43,32.08 C43.3775164,32.3270644 43.3004667,32.5682635 43.2,32.8 C42.8312077,33.6612292 42.0981976,34.3136082 41.2,34.58 C40.9590122,34.6356042 40.7153681,34.6789929 40.47,34.71 L40.47,34.71 L39.81,34.71 C39.5489276,34.6666723 39.2938471,34.5928333 39.05,34.49 C38.1781417,34.1272631 37.5141959,33.3936214 37.24,32.49 C37.0992994,32.0269654 37.0651137,31.5381106 37.14,31.06 C37.1781605,30.8605116 37.2282504,30.6634912 37.29,30.47 C37.617984,29.5809679 38.3144325,28.8772267 39.2,28.54 C39.398945,28.4735953 39.6029467,28.4234309 39.81,28.39 L39.81,28.39 Z M30.59,29.91 L30.28,29.98 C29.6273359,30.2245784 29.1900827,30.8427637 29.1768512,31.5396238 C29.1636197,32.2364838 29.5770908,32.8708221 30.22,33.14 C30.4556637,33.255198 30.7194453,33.3003185 30.98,33.27 C31.6196938,33.2198098 32.1766255,32.8137137 32.42,32.22 C32.5800392,31.8014431 32.5800392,31.3385569 32.42,30.92 C32.1464087,30.2582102 31.4729244,29.8524967 30.76,29.92 L30.76,29.92 L30.59,29.91 Z M40.04,29.91 L39.72,30 C39.2572571,30.172287 38.892287,30.5372571 38.72,31 C38.6410692,31.1859787 38.6134435,31.389718 38.64,31.59 L38.64,31.59 L38.64,31.92 C38.7594781,32.47992 39.1606699,32.9378842 39.7,33.13 C39.921634,33.2326364 40.1676991,33.2707592 40.41,33.24 C41.0336717,33.1932547 41.5820716,32.8097583 41.84,32.24 C42.0102055,31.8164602 42.0102055,31.3435398 41.84,30.92 C41.5638416,30.2604232 40.8921682,29.8558006 40.18,29.92 L40.18,29.92 L40.04,29.91 Z M35.34,26.09 C36.2151573,26.0539857 37.0909168,26.14493 37.94,26.36 L37.94,26.36 L38.69,26.59 L39.11,26.76 L38.74,26.91 C38.5084533,27.0140432 38.2845606,27.1343437 38.07,27.27 C37.0856818,27.8652137 36.3207963,28.7634278 35.89,29.83 C35.682461,30.2783532 35.5733476,30.7659536 35.57,31.26 L35.57,31.26 L35.5356781,30.9614571 C35.5086685,30.7629685 35.4734156,30.5656452 35.43,30.37 C35.0691489,29.1214458 34.2563507,28.0519746 33.15,27.37 C32.9304018,27.2224003 32.6997134,27.0920113 32.46,26.98 L32.46,26.98 L32.04,26.8 L32.2343823,26.7090619 C32.3660139,26.6531281 32.5015616,26.6066431 32.64,26.57 C33.2579312,26.3780029 33.8898274,26.2342381 34.53,26.14 L34.53,26.14 Z" id="TA-btn"></path>
        </g>
    </g>
</svg>