<?xml version="1.0" encoding="UTF-8"?>
<svg width="27px" height="27px" viewBox="0 0 27 27" version="1.1" xmlns="http://www.w3.org/2000/svg" xmlns:xlink="http://www.w3.org/1999/xlink">
    <title>TW btn</title>
    <g id="Page-1" stroke="none" stroke-width="1" fill="none" fill-rule="evenodd">
        <g id="cshare-[Converted]" transform="translate(-116.000000, -17.000000)" fill="#FFFFFF">
            <path d="M136.6,27.75 C136.800094,31.4620058 134.903856,34.97325 131.690099,36.8416154 C128.476342,38.7099807 124.486787,38.6205293 121.36,36.61 C123.205612,36.8275785 125.061995,36.3023228 126.52,35.15 C125.028683,35.117777 123.722708,34.1413095 123.27,32.72 C123.791344,32.8161672 124.327516,32.7956765 124.84,32.66 C123.191821,32.3188373 122.01987,30.8528478 122.05,29.17 C122.52927,29.4433457 123.068478,29.5944615 123.62,29.61 C122.085474,28.5759254 121.61729,26.5281648 122.55,24.93 C124.307144,27.1185778 126.916784,28.4506954 129.72,28.59 C129.479988,27.5510571 129.725269,26.4593435 130.38663,25.6229165 C131.047991,24.7864896 132.053711,24.2960541 133.12,24.2899957 C134.08259,24.2884923 135.002554,24.6869021 135.66,25.39 C136.44065,25.237892 137.18862,24.950211 137.87,24.54 C137.613622,25.3515979 137.069498,26.0415332 136.34,26.48 C137.03081,26.3997126 137.705276,26.2142346 138.34,25.93 C137.869163,26.6323629 137.280503,27.2480873 136.6,27.75 L136.6,27.75 Z M136.75,17.88 L121.89,17.88 C120.479045,17.8852944 119.127984,18.4508767 118.134039,19.4523231 C117.140094,20.4537695 116.584686,21.8090453 116.589962,23.22 L116.589962,38.22 C116.584686,39.6309547 117.140094,40.9862305 118.134039,41.9876769 C119.127984,42.9891233 120.479045,43.5547056 121.89,43.56 L136.76,43.56 C138.170955,43.5547056 139.522016,42.9891233 140.515961,41.9876769 C141.509906,40.9862305 142.065314,39.6309547 142.060038,38.22 L142.060038,23.22 C142.060038,20.2896379 139.690341,17.9110164 136.76,17.9 L136.75,17.88 Z" id="TW-btn"></path>
        </g>
    </g>
</svg>