<?xml version="1.0" encoding="UTF-8"?>
<svg width="56px" height="20px" viewBox="0 0 56 20" version="1.1" xmlns="http://www.w3.org/2000/svg" xmlns:xlink="http://www.w3.org/1999/xlink">
    <title>Group 2</title>
    <g id="Page-1" stroke="none" stroke-width="1" fill="none" fill-rule="evenodd">
        <g id="cshare-[Converted]-Copy" transform="translate(-102.000000, -1.000000)">
            <g id="Group-2" transform="translate(102.890000, 1.450000)">
                <polygon id="Path" fill="#EF8FF8" points="0.35 0 54.57 1.61 54.22 13.36 0 11.76"></polygon>
                <polygon id="Path" fill="#EF8FF8" points="26.69 10.63 29.33 10.7 29.08 19.1 26.44 19.02"></polygon>
                <path d="M46.38,8.48 L48.38,8.54 L48.38,10.05 L46.38,9.99 L46.38,8.48 Z M38.79,3.88 L46.01,4.1 L45.96,5.94 L43.44,5.87 L43.32,9.87 L41.13,9.81 L41.25,5.81 L38.74,5.73 L38.79,3.88 Z M32.24,3.69 L38.45,3.87 L38.4,5.55 L34.28,5.43 L34.28,5.98 L38.28,6.1 L38.28,7.53 L34.28,7.41 L34.28,7.95 L38.28,8.07 L38.28,9.75 L32.07,9.57 L32.24,3.69 Z M25.61,3.49 L31.82,3.68 L31.77,5.36 L27.75,5.24 L27.75,5.78 L31.75,5.9 L31.7,7.33 L27.7,7.21 L27.7,7.76 L31.7,7.87 L31.65,9.55 L25.44,9.37 L25.61,3.49 Z M12.92,3.08 L15.26,3.15 L16.35,7.33 L17.75,3.22 L20.35,3.3 L21.53,7.52 L22.87,3.41 L25.19,3.44 L23.08,9.26 L19.84,9.16 L18.98,5.75 L17.91,9.11 L14.67,9.01 L12.92,3.08 Z M5.36,2.89 L12.58,3.11 L12.53,4.95 L10.01,4.88 L9.89,8.88 L7.7,8.81 L7.82,4.81 L5.3,4.74 L5.36,2.89 Z M46.43,4.11 L48.61,4.17 L48.43,8.03 L46.43,7.97 L46.43,4.11 Z" id="TWEET!" fill="#7154B1"></path>
            </g>
        </g>
    </g>
</svg>