<?xml version="1.0" encoding="UTF-8"?>
<svg width="105px" height="109px" viewBox="0 0 105 109" version="1.1" xmlns="http://www.w3.org/2000/svg" xmlns:xlink="http://www.w3.org/1999/xlink">
    <title>Logo-2021 [Converted]</title>
    <g id="Page-1" stroke="none" stroke-width="1" fill="none" fill-rule="evenodd">
        <g id="Logo-2021-[Converted]" transform="translate(-49.000000, -33.000000)" fill="#FF4EB6">
            <path d="M137.526891,137.894725 C151.517469,129.57783 150.326782,107.151916 140.801282,97.4983766 C133.061813,89.6270293 118.475891,97.4983766 118.475891,97.4983766 L122.940969,100.617212 L114.457321,98.3894725 C114.457321,98.3894725 99.1272198,97.4983766 94.9598136,110.270751 C91.8342589,120.221322 96.1505011,135.221437 110.736423,140.122465 C110.736423,140.122465 116.838696,142.49872 123.238641,141.904656 C130.085094,141.310592 137.526891,137.894725 137.526891,137.894725 Z M130.479425,67.1840021 C122.483206,58.3229185 124.142799,43.153945 124.142799,43.153945 L140.738724,61.4768635 L128.367216,40 C128.367216,40 142.549188,42.8535693 149.33843,52.9161557 C155.22244,61.6270514 153.864591,77.9975278 153.864591,77.9975278 C153.864591,77.9975278 140.587851,78.4480913 130.479425,67.1840021 Z M119.989606,43.4611336 C119.989606,43.4611336 112.3415,55.1915594 111.741648,68.576276 C111.141797,81.3594323 117.440237,95.7968794 117.440237,95.7968794 L112.641425,97 C112.641425,97 106.342984,83.0137231 106.342984,69.1778363 C106.342984,57.1466303 112.641425,44.8146442 112.641425,44.8146442 C112.641425,44.8146442 100.944321,50.5294671 93.2962138,60.0040417 C85.9480326,69.1778363 82.7988122,82.2617727 82.7988122,82.2617727 L78,81.6602124 C78,81.6602124 79.7995546,67.0723752 90.5968819,54.7403891 C102.144024,41.6564527 114.291017,38.197481 114.291017,38.197481 C114.291017,38.197481 119.239792,30.076417 123.438753,34.136949 C128.387528,38.197481 119.989606,43.4611336 119.989606,43.4611336 Z M81.9321293,84.0321312 C81.9321293,84.0321312 90.5983456,83.1305588 97.0232991,87.1876347 C102.40233,90.4934002 103,98.3070279 103,98.3070279 C103,98.3070279 96.425629,100.560959 93.287861,109.125897 C90.8971806,115.587166 92.6901909,124.302366 92.6901909,124.302366 C92.6901909,124.302366 77.5990211,133.017566 64.3008615,126.706559 C61.6113461,125.354201 50.5544494,117.240049 49.2096917,107.17249 C47.864934,97.2551934 53.3933824,86.8871105 54.2898875,85.685014 C61.1630936,76.3687656 71.9211552,80.4258415 78.4955262,84.3326553 C81.7827117,86.2860622 83.8745571,88.0892071 83.8745571,88.0892071 L81.9321293,84.0321312 Z" id="Shape"></path>
        </g>
    </g>
</svg>