<?xml version="1.0" encoding="UTF-8"?>
<svg width="24px" height="24px" viewBox="0 0 24 24" version="1.1" xmlns="http://www.w3.org/2000/svg" xmlns:xlink="http://www.w3.org/1999/xlink">
    <title>Messenger</title>
    <defs>
        <radialGradient cx="19.25%" cy="99.4466191%" fx="19.25%" fy="99.4466191%" r="108.96%" id="radialGradient-1">
            <stop stop-color="#0099FF" offset="0%"></stop>
            <stop stop-color="#A033FF" offset="60.98%"></stop>
            <stop stop-color="#FF5280" offset="93.48%"></stop>
            <stop stop-color="#FF7061" offset="100%"></stop>
        </radialGradient>
    </defs>
    <g id="Page-1" stroke="none" stroke-width="1" fill="none" fill-rule="evenodd">
        <g id="Messenger" fill-rule="nonzero">
            <path d="M12,0 C5.241,0 0,4.95256076 0,11.6389677 C0,15.1366575 1.434,18.1603894 3.768,20.2482042 C3.963,20.4221888 4.083,20.6681669 4.089,20.9321435 L4.155,23.0679541 C4.176,23.7488937 4.878,24.1928543 5.502,23.9168788 L7.884,22.8669719 C8.085,22.7769799 8.313,22.7619812 8.526,22.8189762 C9.621,23.1189496 10.785,23.2809352 12,23.2809352 C18.759,23.2809352 24,18.3283745 24,11.6419675 C24,4.95556049 18.759,0 12,0 Z" id="Path" fill="url(#radialGradient-1)"></path>
            <path d="M5.09551161,15.1052464 L8.71720674,9.40225827 C9.29359567,8.49357399 10.5265132,8.27022735 11.3926377,8.91273138 L14.2745823,11.057471 C14.5396596,11.2532818 14.9033703,11.2532818 15.1653652,11.0544115 L19.0552199,8.12336929 C19.5730453,7.73174778 20.2511499,8.34977547 19.905933,8.89743367 L16.2811556,14.5973623 C15.7047666,15.5060466 14.4718491,15.7293932 13.6057246,15.0868892 L10.72378,12.9421495 C10.4587027,12.7463388 10.094992,12.7463388 9.83299707,12.9452091 L5.94314239,15.8762513 C5.42531704,16.2678728 4.74721242,15.6529046 5.09551161,15.1052464 Z" id="Path" fill="#FFFFFF"></path>
        </g>
    </g>
</svg>