<?xml version="1.0" encoding="UTF-8"?>
<svg width="862px" height="1001px" viewBox="0 0 862 1001" version="1.1" xmlns="http://www.w3.org/2000/svg" xmlns:xlink="http://www.w3.org/1999/xlink">
    <title>logo-1</title>
    <g id="Page-1" stroke="none" stroke-width="1" fill="none" fill-rule="evenodd">
        <g id="logo-1" transform="translate(0.072016, 0.154859)" fill-rule="nonzero">
            <path d="M24.6279839,207.245141 C123.227984,198.645141 223.027984,190.045141 321.627984,181.545141 C321.627984,181.345141 321.627984,181.145141 321.627984,180.945141 C300.227984,164.245141 271.627984,136.445141 287.027984,99.0451413 C290.927984,89.6451413 295.627984,81.4451413 305.727984,78.5451413 C315.227984,75.8451413 323.627984,80.8451413 330.927984,80.3451413 C335.827984,41.6451413 363.327984,27.0451413 390.627984,10.1451413 C395.627984,7.04514129 397.727984,-1.55485871 407.627984,0.245141294 C415.727984,1.74514129 416.927984,10.8451413 422.827984,14.2451413 C437.827984,23.0451413 446.427984,24.8451413 456.827984,37.6451413 C481.727984,68.5451413 557.427984,117.545141 559.927984,161.745141 C619.827984,156.845141 679.827984,151.945141 739.727984,147.145141 C772.927984,181.045141 806.127984,215.045141 839.327984,248.945141 C839.327984,352.745141 839.327984,456.545141 839.327984,560.245141 C843.927984,571.045141 860.727984,575.345141 861.027984,589.545141 C848.527984,607.345141 824.627984,605.145141 817.127984,633.445141 C812.727984,650.145141 822.627984,662.245141 821.227984,676.745141 C820.627984,677.345141 820.027984,677.945141 819.427984,678.545141 C812.927984,679.445141 808.027984,677.245141 803.627984,674.445141 C808.927984,680.145141 814.127984,685.745141 819.427984,691.445141 C832.827984,708.345141 841.927984,727.945141 845.227984,755.245141 C852.027984,812.045141 785.427984,834.945141 740.427984,843.645141 C730.227984,845.045141 720.127984,846.345141 709.927984,847.745141 C695.327984,833.345141 677.327984,816.345141 683.927984,823.045141 C698.227984,837.745141 710.727984,857.945141 698.227984,878.745141 C683.527984,903.145141 628.027984,910.645141 599.227984,893.345141 C588.127984,882.845141 576.927984,872.245141 565.827984,861.745141 C560.927984,864.045141 556.027984,866.445141 551.227984,868.745141 C564.927984,881.545141 518.927984,934.545141 490.927984,899.745141 C455.127984,924.345141 406.327984,934.645141 379.027984,967.645141 C371.827984,976.345141 357.727984,1002.84514 340.927984,999.845141 C333.327984,998.445141 332.327984,989.345141 326.827984,986.945141 C321.127984,984.445141 310.827984,989.745141 304.527984,986.345141 C291.327984,979.145141 283.627984,960.845141 271.127984,953.545141 C265.627984,951.745141 260.227984,950.045141 254.727984,948.245141 C237.227984,966.845141 224.527984,943.945141 213.127984,937.145141 C203.027984,931.145141 194.327984,931.945141 187.327984,923.145141 C166.327984,927.445141 151.627984,927.345141 140.427984,912.045141 C131.927984,914.645141 122.027984,922.345141 109.927984,917.945141 C98.1279839,913.245141 -0.972016125,816.145141 0.0279838749,799.445141 C10.5279839,796.445141 14.6279839,791.745141 17.6279839,778.345141 C18.2279839,760.745141 18.8279839,743.245141 19.4279839,725.645141 C19.8279839,678.845141 20.2279839,632.045141 20.6279839,585.145141 C20.4279839,576.145141 21.5279839,561.945141 20.0279839,552.945141 C15.8279839,542.745141 -14.2720161,530.645141 8.32798387,521.345141 C13.3279839,519.745141 18.9279839,521.845141 22.9279839,523.145141 C23.1279839,523.145141 23.3279839,523.145141 23.5279839,523.145141 C23.4279839,447.545141 24.6279839,207.245141 24.6279839,207.245141 Z M513.727984,165.745141 C509.227984,166.145141 504.727984,166.545141 500.227984,166.945141 C497.527984,164.245141 494.727984,161.445141 492.027984,158.745141 C492.627984,154.645141 493.227984,150.545141 493.827984,146.445141 C500.427984,152.845141 507.027984,159.245141 513.727984,165.745141 Z" id="Shape" fill="#48469A"></path>
            <path d="M741.927984,501.045141 C727.527984,511.045141 710.827984,529.845141 715.327984,556.345141 C717.127984,563.045141 718.827984,569.845141 720.627984,576.545141 C720.427984,576.545141 720.327984,576.545141 720.127984,576.545141 C712.327984,574.345141 706.327984,571.145141 705.027984,562.045141 C701.427984,562.545141 701.027984,562.445141 698.727984,561.045141 C698.027984,554.145141 695.627984,551.845141 695.327984,545.145141 C697.127984,541.545141 699.227984,540.645141 702.227984,538.145141 C701.927984,537.845141 701.627984,537.545141 701.227984,537.245141 C693.727984,524.445141 668.427984,542.045141 675.827984,558.945141 C679.827984,568.245141 690.527984,575.045141 698.227984,580.645141 C711.827984,590.545141 726.527984,604.945141 734.227984,621.045141 C736.627984,628.245141 739.027984,635.445141 741.527984,642.645141 C757.227984,715.045141 679.227984,739.845141 614.927984,744.645141 C620.527984,712.545141 618.327984,689.045141 582.127984,692.445141 C584.427984,686.245141 593.527984,687.045141 595.227984,678.745141 C600.127984,679.245141 605.927984,677.145141 610.227984,678.545141 C619.027984,681.345141 626.127984,693.045141 639.827984,686.045141 C666.127984,703.045141 703.227984,682.045141 695.027984,642.945141 C689.027984,614.645141 667.627984,604.745141 653.827984,584.945141 C650.127984,579.645141 640.027984,566.745141 643.727984,557.845141 C655.427984,552.145141 657.827984,538.445141 655.027984,524.545141 C671.427984,511.445141 686.327984,513.645141 705.327984,518.345141 C706.827984,514.245141 708.327984,510.245141 709.727984,506.145141 C695.327984,487.345141 657.427984,480.845141 621.127984,490.045141 C596.027984,496.445141 572.527984,500.945141 549.327984,508.845141 C520.827984,518.745141 492.427984,528.645141 464.027984,538.445141 C464.727984,542.645141 465.027984,547.345141 464.027984,551.645141 C459.127984,555.945141 454.827984,559.145141 445.827984,558.545141 C446.027984,553.845141 446.127984,549.145141 446.327984,544.345141 C450.027984,542.145141 453.927984,535.545141 450.627984,530.845141 C442.327984,530.045141 426.627984,543.045141 421.327984,550.845141 C402.927984,546.945141 363.227984,553.045141 344.927984,558.145141 C345.227984,571.345141 332.927984,582.545141 322.027984,575.045141 C317.227984,571.745141 318.627984,562.845141 313.027984,560.245141 C299.327984,554.245141 285.027984,586.545141 276.927984,592.245141 C272.827984,595.145141 260.727984,599.745141 257.027984,594.345141 C250.927984,585.345141 265.427984,572.745141 269.327984,568.645141 C286.027984,551.145141 308.427984,548.545141 337.727984,541.645141 C349.627984,541.145141 361.527984,540.645141 373.427984,540.145141 C367.527984,538.745141 361.427984,534.145141 361.027984,526.645141 C362.727984,523.345141 363.627984,521.145141 366.327984,518.945141 C366.627984,518.945141 366.927984,518.845141 367.327984,518.845141 C379.827984,535.045141 415.527984,535.245141 444.327984,527.445141 C484.727984,516.545141 523.027984,505.345141 560.927984,493.145141 L194.227984,525.845141 C192.927984,534.145141 185.927984,532.745141 183.927984,539.645141 C183.727984,554.645141 183.627984,569.545141 183.427984,584.545141 C183.427984,630.345141 183.327984,676.145141 183.327984,721.845141 C183.327984,765.045141 182.827984,801.245141 153.627984,815.945141 C135.427984,825.145141 105.427984,800.445141 90.0279839,800.045141 C89.6279839,806.745141 89.4279839,813.645141 91.4279839,818.645141 C88.6279839,821.445141 84.4279839,821.745141 79.7279839,822.845141 C60.5279839,827.645141 53.2279839,815.845141 45.3279839,806.745141 C30.0279839,817.745141 13.2279839,822.145141 5.82798387,802.545141 C5.82798387,802.345141 5.82798387,802.245141 5.82798387,802.045141 C27.5279839,799.645141 25.3279839,756.945141 25.3279839,732.145141 C25.3279839,689.345141 25.3279839,646.545141 25.3279839,603.745141 C25.3279839,586.645141 28.9279839,560.045141 23.5279839,546.845141 C20.3279839,539.145141 11.7279839,538.645141 5.92798387,533.945141 C5.92798387,533.145141 5.92798387,532.345141 5.92798387,531.545141 C7.12798387,530.145141 8.42798387,528.745141 9.62798387,527.345141 C15.3279839,526.845141 22.1279839,529.645141 29.1279839,533.345141 L29.1279839,213.045141 L389.127984,182.845141 C365.427984,175.045141 358.227984,150.245141 363.427984,133.945141 C370.127984,112.845141 395.327984,114.445141 395.327984,114.445141 L409.227984,118.045141 L402.027984,112.945141 C402.027984,112.945141 425.827984,100.045141 438.527984,112.945141 C454.027984,128.645141 456.127984,165.545141 433.027984,179.145141 L737.727984,153.545141 L737.727984,473.445141 C747.527984,477.445141 755.327984,483.145141 760.027984,491.145141 C754.027984,494.445141 747.927984,497.745141 741.927984,501.045141 Z M621.427984,390.745141 C625.727984,397.745141 631.427984,403.845141 638.527984,409.045141 C638.327984,431.745141 638.227984,448.345141 638.227984,458.745141 C638.227984,459.345141 638.427984,459.745141 638.827984,460.145141 C639.227984,460.545141 639.727984,460.645141 640.327984,460.645141 C648.927984,460.245141 656.227984,459.745141 662.327984,459.145141 C668.227984,458.645141 674.427984,457.945141 681.127984,457.045141 C681.027984,445.645141 680.927984,428.345141 680.627984,405.345141 C687.527984,399.045141 693.227984,391.945141 697.527984,384.145141 C703.727984,371.545141 709.527984,353.245141 715.027984,329.245141 C708.627984,329.045141 701.227984,329.245141 693.027984,330.045141 C687.127984,330.545141 681.427984,331.245141 676.227984,332.045141 C675.527984,332.145141 674.927984,332.445141 674.327984,332.845141 C673.727984,333.245141 673.327984,333.845141 673.027984,334.445141 C669.427984,345.645141 664.927984,361.245141 659.527984,381.245141 C653.927984,361.445141 649.427984,346.645141 646.127984,336.745141 C645.927984,336.145141 645.527984,335.745141 644.827984,335.345141 C644.227984,335.045141 643.527984,334.845141 642.927984,334.845141 C637.627984,334.945141 632.027984,335.245141 626.027984,335.745141 C617.827984,336.445141 610.427984,337.445141 604.027984,338.845141 C609.527984,362.045141 615.327984,379.345141 621.427984,390.745141 Z M506.227984,439.445141 C506.327984,452.245141 506.427984,461.845141 506.427984,468.345141 C506.427984,468.945141 506.627984,469.345141 507.027984,469.745141 C507.427984,470.145141 507.927984,470.245141 508.527984,470.245141 C509.027984,470.245141 510.727984,470.245141 513.827984,470.245141 C516.927984,470.245141 518.727984,470.245141 519.427984,470.245141 C520.127984,470.245141 521.727984,470.245141 524.327984,470.245141 C526.927984,470.245141 528.627984,470.245141 529.627984,470.145141 C530.527984,470.145141 532.127984,470.045141 534.227984,470.045141 C536.327984,470.045141 538.027984,469.945141 539.227984,469.845141 C540.427984,469.745141 541.927984,469.645141 543.527984,469.645141 C545.127984,469.545141 546.727984,469.445141 548.127984,469.345141 C552.227984,468.945141 556.027984,468.545141 559.427984,467.845141 C562.827984,467.245141 566.227984,466.445141 569.627984,465.445141 C573.027984,464.445141 576.027984,463.245141 578.727984,461.845141 C581.427984,460.445141 584.127984,458.745141 586.627984,456.745141 C589.127984,454.745141 591.327984,452.445141 593.327984,449.945141 C595.227984,447.445141 597.027984,444.545141 598.627984,441.245141 C600.227984,437.945141 601.527984,434.345141 602.527984,430.345141 C603.527984,426.345141 604.327984,421.845141 604.827984,416.945141 C605.327984,412.045141 605.627984,406.645141 605.627984,400.945141 C605.627984,391.245141 604.727984,382.745141 602.927984,375.545141 C601.127984,368.345141 598.627984,362.445141 595.527984,357.845141 C592.327984,353.245141 588.327984,349.645141 583.427984,346.945141 C578.527984,344.345141 573.227984,342.545141 567.427984,341.845141 C561.627984,341.045141 555.027984,340.945141 547.627984,341.645141 C535.827984,342.645141 522.027984,345.045141 506.527984,348.745141 C506.527984,355.745141 506.427984,365.945141 506.327984,379.245141 C506.227984,392.545141 506.127984,402.745141 506.127984,409.745141 C506.027984,416.645141 506.127984,426.645141 506.227984,439.445141 Z M55.2279839,547.145141 C59.7279839,548.545141 69.9279839,548.245141 72.4279839,551.945141 C72.6279839,552.745141 72.7279839,553.545141 72.9279839,554.345141 C58.6279839,559.945141 63.6279839,584.045141 63.6279839,602.145141 C63.6279839,643.745141 63.6279839,685.345141 63.5279839,726.845141 C63.5279839,742.245141 61.7279839,765.345141 72.3279839,768.845141 C73.7279839,768.745141 75.1279839,768.645141 76.5279839,768.545141 C88.1279839,762.545141 85.4279839,736.445141 85.4279839,719.445141 C85.4279839,686.445141 85.4279839,653.545141 85.5279839,620.545141 C85.5279839,609.745141 87.4279839,577.745141 82.7279839,573.245141 C80.9279839,571.545141 77.0279839,571.645141 75.2279839,570.045141 C75.5279839,568.145141 75.8279839,566.145141 76.1279839,564.245141 C76.6279839,564.045141 77.0279839,563.845141 77.5279839,563.645141 C81.5279839,561.745141 110.527984,577.045141 124.727984,573.645141 C130.127984,572.345141 133.027984,574.845141 133.627984,579.145141 C131.227984,583.845141 125.527984,584.445141 123.827984,589.545141 C123.627984,634.245141 123.427984,679.045141 123.227984,723.745141 C123.227984,739.745141 119.827984,767.545141 131.127984,771.145141 C146.127984,776.145141 145.227984,748.445141 145.227984,735.945141 C145.227984,694.945141 145.327984,653.845141 145.327984,612.745141 C145.327984,601.945141 147.627984,569.845141 142.127984,566.345141 C137.627984,564.045141 132.427984,565.845141 131.827984,559.045141 C136.227984,554.245141 145.327984,552.745141 151.027984,549.245141 C161.627984,542.845141 170.427984,534.445141 179.927984,527.245141 L40.1279839,539.645141 C45.6279839,542.845141 50.8279839,545.745141 55.2279839,547.145141 Z M99.0279839,432.545141 C99.5279839,428.945141 100.227984,425.945141 101.027984,423.745141 C101.827984,421.545141 102.927984,419.745141 104.127984,418.345141 C105.327984,416.945141 106.627984,416.045141 107.927984,415.545141 C109.227984,415.045141 110.727984,414.745141 112.427984,414.745141 L132.127984,414.345141 L136.727984,380.845141 C131.527984,380.045141 127.227984,379.545141 123.627984,379.245141 C120.127984,378.945141 116.327984,379.045141 112.327984,379.345141 C104.827984,379.945141 98.1279839,381.245141 92.3279839,383.045141 C86.4279839,384.845141 81.0279839,387.545141 76.1279839,391.045141 C71.2279839,394.545141 67.1279839,398.945141 63.8279839,404.145141 C60.6279839,409.345141 58.0279839,415.745141 56.2279839,423.345141 C54.4279839,430.945141 53.5279839,439.645141 53.5279839,449.445141 C53.5279839,455.245141 53.8279839,460.645141 54.3279839,465.445141 C54.9279839,470.345141 55.6279839,474.645141 56.7279839,478.545141 C57.7279839,482.445141 59.1279839,485.845141 60.7279839,488.845141 C62.3279839,491.845141 64.1279839,494.445141 66.1279839,496.745141 C68.1279839,498.945141 70.3279839,500.845141 72.9279839,502.445141 C75.5279839,504.045141 78.1279839,505.245141 80.9279839,506.145141 C83.7279839,507.045141 86.8279839,507.745141 90.2279839,508.145141 C93.6279839,508.545141 97.1279839,508.745141 100.527984,508.745141 C104.027984,508.745141 107.827984,508.545141 112.027984,508.145141 C119.927984,507.445141 128.127984,505.945141 136.627984,503.645141 L132.227984,470.645141 L112.527984,473.645141 C110.627984,473.945141 109.027984,473.945141 107.727984,473.645141 C106.327984,473.345141 105.127984,472.645141 103.827984,471.545141 C102.627984,470.445141 101.627984,468.745141 100.827984,466.645141 C100.027984,464.545141 99.4279839,461.645141 99.0279839,458.145141 C98.6279839,454.645141 98.3279839,450.345141 98.3279839,445.445141 C98.2279839,440.445141 98.5279839,436.145141 99.0279839,432.545141 Z M125.927984,230.245141 C122.227984,229.945141 118.227984,229.945141 114.027984,230.345141 C106.127984,231.045141 99.0279839,232.345141 92.8279839,234.245141 C86.6279839,236.145141 80.9279839,238.945141 75.6279839,242.645141 C70.4279839,246.345141 66.1279839,250.945141 62.6279839,256.445141 C59.2279839,261.945141 56.5279839,268.645141 54.6279839,276.645141 C52.7279839,284.645141 51.7279839,293.845141 51.7279839,304.145141 C51.7279839,310.345141 52.0279839,315.945141 52.6279839,321.045141 C53.2279839,326.145141 54.0279839,330.845141 55.1279839,334.845141 C56.2279839,338.945141 57.6279839,342.545141 59.3279839,345.745141 C61.0279839,348.945141 62.9279839,351.745141 65.0279839,354.045141 C67.1279839,356.345141 69.5279839,358.345141 72.2279839,360.045141 C74.9279839,361.745141 77.7279839,363.045141 80.7279839,364.045141 C83.6279839,365.045141 86.9279839,365.745141 90.5279839,366.145141 C94.1279839,366.645141 97.7279839,366.845141 101.427984,366.845141 C105.127984,366.845141 109.127984,366.645141 113.527984,366.245141 C121.827984,365.545141 130.527984,363.945141 139.527984,361.545141 L134.927984,326.645141 L114.127984,329.745141 C112.127984,330.045141 110.427984,330.045141 109.027984,329.745141 C107.627984,329.445141 106.227984,328.645141 104.927984,327.545141 C103.627984,326.345141 102.527984,324.645141 101.727984,322.345141 C100.927984,320.045141 100.227984,317.045141 99.8279839,313.345141 C99.3279839,309.645141 99.1279839,305.145141 99.1279839,299.945141 C99.1279839,294.745141 99.4279839,290.245141 99.9279839,286.445141 C100.427984,282.645141 101.127984,279.545141 102.027984,277.145141 C102.927984,274.745141 104.027984,272.845141 105.327984,271.445141 C106.627984,269.945141 108.027984,269.045141 109.427984,268.445141 C110.827984,267.945141 112.427984,267.645141 114.127984,267.545141 L134.927984,267.145141 L139.827984,231.745141 C134.227984,231.145141 129.627984,230.545141 125.927984,230.245141 Z M142.227984,441.445141 C142.227984,449.645141 142.727984,456.845141 143.727984,463.045141 C144.727984,469.345141 146.327984,474.745141 148.527984,479.345141 C150.727984,483.945141 153.427984,487.745141 156.627984,490.845141 C159.827984,493.845141 163.627984,496.245141 168.127984,497.945141 C172.627984,499.645141 177.627984,500.645141 183.027984,501.145141 C188.427984,501.645141 194.627984,501.545141 201.527984,500.945141 C209.127984,499.845141 215.827984,497.645141 221.927984,494.245141 C227.927984,490.845141 233.027984,486.245141 237.327984,480.545141 C241.627984,474.845141 244.827984,467.845141 247.127984,459.745141 C249.427984,451.545141 250.527984,442.345141 250.527984,432.145141 C250.527984,424.045141 250.027984,416.845141 248.927984,410.545141 C247.927984,404.245141 246.227984,398.845141 244.027984,394.245141 C241.827984,389.645141 239.127984,385.845141 235.927984,382.745141 C232.727984,379.645141 228.827984,377.345141 224.327984,375.645141 C219.827984,373.945141 214.827984,372.845141 209.427984,372.445141 C204.027984,371.945141 197.827984,372.045141 190.927984,372.645141 C183.427984,373.645141 176.627984,375.945141 170.627984,379.345141 C164.627984,382.745141 159.527984,387.345141 155.327984,393.045141 C151.127984,398.745141 147.927984,405.745141 145.627984,413.945141 C143.427984,422.045141 142.227984,431.245141 142.227984,441.445141 Z M256.927984,222.045141 C256.927984,221.445141 256.727984,220.945141 256.227984,220.545141 C255.827984,220.145141 255.227984,219.945141 254.627984,220.045141 C245.427984,220.445141 237.727984,220.945141 231.527984,221.445141 C225.527984,221.945141 218.927984,222.645141 211.827984,223.645141 C211.527984,236.145141 211.327984,252.445141 211.327984,272.745141 L196.427984,274.045141 C196.427984,256.445141 196.227984,240.845141 195.927984,227.245141 C195.927984,226.645141 195.727984,226.145141 195.227984,225.745141 C194.727984,225.345141 194.227984,225.145141 193.627984,225.245141 C184.427984,225.645141 176.727984,226.145141 170.527984,226.645141 C164.527984,227.145141 157.927984,227.845141 150.827984,228.845141 C150.227984,252.745141 149.927984,275.045141 149.927984,295.845141 C149.927984,311.045141 150.227984,332.545141 150.827984,360.445141 C150.827984,361.045141 151.027984,361.545141 151.527984,361.945141 C152.027984,362.345141 152.527984,362.545141 153.127984,362.445141 C162.327984,361.945141 170.027984,361.445141 176.227984,360.945141 C182.227984,360.445141 188.827984,359.645141 195.927984,358.745141 C196.227984,346.845141 196.427984,331.245141 196.427984,311.845141 L211.327984,310.545141 C211.427984,330.545141 211.527984,345.345141 211.827984,355.145141 C211.827984,355.745141 212.027984,356.245141 212.527984,356.645141 C213.027984,357.045141 213.527984,357.245141 214.127984,357.145141 C223.327984,356.645141 231.027984,356.145141 237.227984,355.645141 C243.227984,355.145141 249.827984,354.345141 256.927984,353.445141 C257.527984,329.645141 257.827984,307.345141 257.827984,286.545141 C257.827984,271.445141 257.527984,249.945141 256.927984,222.045141 Z M363.627984,309.145141 C363.627984,308.545141 363.427984,308.045141 362.927984,307.645141 C362.527984,307.245141 361.927984,307.045141 361.327984,307.145141 C353.227984,307.545141 339.927984,308.545141 321.627984,310.145141 L318.927984,310.345141 C318.827984,305.245141 318.827984,301.345141 318.727984,298.745141 L347.827984,296.245141 C347.927984,290.945141 348.027984,285.945141 348.027984,281.345141 C348.027984,276.245141 347.927984,270.645141 347.827984,264.645141 C347.827984,264.045141 347.627984,263.545141 347.127984,263.145141 C346.727984,262.745141 346.127984,262.545141 345.527984,262.645141 C341.027984,262.845141 332.027984,263.445141 318.627984,264.545141 C318.627984,261.845141 318.727984,257.945141 318.827984,252.845141 C321.327984,252.645141 324.227984,252.445141 327.327984,252.145141 C344.827984,250.645141 356.627984,249.545141 362.927984,248.645141 C363.027984,243.545141 363.127984,238.145141 363.127984,232.245141 C363.127984,228.445141 363.027984,222.045141 362.927984,213.045141 C362.927984,212.445141 362.727984,211.945141 362.227984,211.545141 C361.827984,211.145141 361.227984,210.945141 360.627984,211.045141 C351.427984,211.445141 338.427984,212.445141 321.527984,213.845141 C297.627984,215.845141 282.027984,217.345141 274.927984,218.245141 C274.327984,242.045141 274.027984,264.345141 274.027984,285.145141 C274.027984,300.245141 274.327984,321.845141 274.927984,349.645141 C274.927984,350.245141 275.127984,350.745141 275.627984,351.145141 C276.027984,351.545141 276.627984,351.745141 277.227984,351.645141 C281.227984,351.445141 289.227984,350.945141 301.327984,350.145141 C313.427984,349.345141 321.227984,348.745141 325.027984,348.445141 C343.527984,346.845141 356.427984,345.545141 363.527984,344.645141 C363.627984,339.545141 363.727984,334.145141 363.727984,328.245141 C363.827984,324.545141 363.727984,318.145141 363.627984,309.145141 Z M356.927984,359.545141 C356.227984,359.645141 355.327984,360.445141 354.327984,361.845141 L327.727984,418.045141 L301.027984,366.445141 C300.527984,365.145141 299.727984,364.445141 298.727984,364.545141 C292.427984,364.745141 286.327984,365.145141 280.327984,365.645141 C275.327984,366.045141 269.527984,366.745141 262.827984,367.645141 C262.227984,390.145141 261.927984,411.245141 261.927984,430.945141 C261.927984,445.245141 262.227984,465.645141 262.827984,492.045141 C262.827984,492.645141 263.027984,493.045141 263.427984,493.445141 C263.827984,493.845141 264.327984,494.045141 264.927984,493.945141 C273.627984,493.445141 280.527984,493.045141 285.627984,492.545141 C290.627984,492.145141 296.427984,491.445141 303.127984,490.545141 L302.427984,433.445141 L325.427984,478.045141 L327.527984,478.245141 L329.827984,477.645141 L354.027984,426.545141 C354.027984,432.445141 354.127984,438.545141 354.327984,444.945141 C354.427984,451.345141 354.627984,458.445141 354.827984,466.245141 C355.027984,474.045141 355.227984,479.945141 355.327984,483.845141 C355.327984,484.445141 355.527984,484.845141 355.927984,485.245141 C356.327984,485.645141 356.827984,485.745141 357.427984,485.745141 C366.127984,485.245141 372.627984,484.845141 377.027984,484.445141 C381.927984,484.045141 387.327984,483.345141 393.427984,482.545141 C394.027984,460.045141 394.227984,438.945141 394.227984,419.345141 C394.227984,405.045141 393.927984,384.745141 393.427984,358.445141 C393.427984,357.845141 393.227984,357.445141 392.827984,357.045141 C392.427984,356.645141 391.927984,356.545141 391.327984,356.545141 C384.227984,356.845141 377.627984,357.245141 371.727984,357.745141 C366.227984,358.245141 361.327984,358.845141 356.927984,359.545141 Z M472.927984,259.845141 C477.127984,253.345141 479.227984,246.145141 479.227984,238.145141 C479.227984,233.045141 478.727984,228.645141 477.727984,224.745141 C476.727984,220.945141 475.527984,217.745141 473.927984,215.145141 C472.427984,212.545141 470.227984,210.445141 467.527984,208.845141 C464.727984,207.145141 462.027984,205.945141 459.227984,205.145141 C456.427984,204.345141 452.927984,203.745141 448.727984,203.545141 C444.427984,203.345141 440.527984,203.245141 436.827984,203.445141 C433.127984,203.545141 428.527984,203.845141 423.127984,204.345141 C416.827984,204.845141 409.427984,205.845141 401.027984,207.245141 C392.627984,208.645141 384.627984,210.245141 377.227984,212.045141 C377.227984,219.445141 377.127984,229.745141 377.027984,242.845141 C376.927984,255.945141 376.827984,266.245141 376.827984,273.645141 C376.827984,281.145141 376.927984,292.545141 377.027984,307.845141 C377.127984,323.145141 377.227984,334.145141 377.227984,341.045141 C377.227984,341.645141 377.427984,342.145141 377.827984,342.545141 C378.227984,342.945141 378.827984,343.145141 379.427984,343.045141 C388.427984,342.545141 396.027984,342.045141 402.327984,341.445141 C409.327984,340.845141 415.827984,340.145141 421.927984,339.345141 C421.927984,332.745141 421.727984,323.045141 421.427984,310.245141 C421.127984,297.445141 420.927984,288.945141 420.927984,284.745141 L423.927984,284.445141 C427.927984,297.545141 433.627984,314.745141 440.827984,336.045141 C441.027984,336.645141 441.527984,337.145141 442.127984,337.445141 C442.827984,337.845141 443.527984,337.945141 444.227984,337.945141 C449.827984,337.845141 455.827984,337.545141 462.127984,336.945141 C470.827984,336.145141 478.627984,335.145141 485.527984,333.745141 C481.127984,315.345141 475.227984,299.145141 467.827984,285.345141 C464.627984,280.245141 460.527984,277.045141 455.527984,275.745141 C462.927984,271.545141 468.727984,266.245141 472.927984,259.845141 Z M493.827984,440.445141 C493.827984,439.845141 493.627984,439.445141 493.227984,439.045141 C492.827984,438.645141 492.327984,438.445141 491.727984,438.545141 C484.027984,438.945141 471.627984,439.945141 454.327984,441.445141 L451.827984,441.645141 C451.727984,436.845141 451.727984,433.145141 451.627984,430.745141 L479.027984,428.345141 C479.127984,423.345141 479.227984,418.645141 479.227984,414.345141 C479.227984,409.545141 479.127984,404.245141 479.027984,398.545141 C479.027984,397.945141 478.827984,397.545141 478.427984,397.145141 C478.027984,396.745141 477.527984,396.545141 476.927984,396.645141 C472.627984,396.845141 464.227984,397.445141 451.627984,398.445141 C451.627984,395.945141 451.727984,392.245141 451.827984,387.445141 C454.227984,387.245141 456.927984,387.045141 459.827984,386.845141 C476.227984,385.445141 487.427984,384.245141 493.427984,383.445141 C493.527984,378.645141 493.627984,373.445141 493.627984,367.945141 C493.627984,364.345141 493.527984,358.345141 493.427984,349.845141 C493.427984,349.245141 493.227984,348.845141 492.827984,348.445141 C492.427984,348.045141 491.927984,347.845141 491.327984,347.945141 C482.727984,348.345141 470.427984,349.245141 454.427984,350.645141 C431.827984,352.645141 417.227984,354.045141 410.527984,354.945141 C409.927984,377.445141 409.727984,398.445141 409.727984,418.145141 C409.727984,432.445141 410.027984,452.745141 410.527984,479.045141 C410.527984,479.645141 410.727984,480.045141 411.127984,480.445141 C411.527984,480.845141 412.027984,481.045141 412.627984,480.945141 C416.327984,480.745141 423.927984,480.245141 435.327984,479.445141 C446.727984,478.645141 454.127984,478.145141 457.627984,477.845141 C475.127984,476.345141 487.127984,475.045141 493.827984,474.145141 C493.927984,469.345141 494.027984,464.145141 494.027984,458.645141 C494.027984,455.045141 494.027984,449.045141 493.827984,440.445141 Z M594.927984,214.845141 C593.927984,211.045141 592.727984,207.845141 591.127984,205.245141 C589.627984,202.645141 587.427984,200.545141 584.727984,198.945141 C582.027984,197.245141 579.227984,196.045141 576.527984,195.245141 C573.827984,194.445141 570.327984,193.845141 566.027984,193.645141 C561.827984,193.445141 557.827984,193.345141 554.127984,193.545141 C550.427984,193.645141 545.927984,193.945141 540.527984,194.445141 C534.227984,194.945141 526.927984,195.945141 518.527984,197.345141 C510.127984,198.745141 502.227984,200.345141 494.827984,202.045141 C494.827984,209.445141 494.727984,219.645141 494.627984,232.845141 C494.527984,245.945141 494.427984,256.245141 494.427984,263.645141 C494.427984,271.145141 494.527984,282.545141 494.627984,297.745141 C494.727984,312.945141 494.827984,324.045141 494.827984,330.845141 C494.827984,331.445141 495.027984,331.945141 495.427984,332.345141 C495.827984,332.745141 496.427984,332.945141 497.027984,332.845141 C505.927984,332.345141 513.527984,331.845141 519.827984,331.245141 C526.727984,330.645141 533.327984,329.945141 539.427984,329.145141 C539.427984,322.545141 539.227984,312.845141 538.927984,300.045141 C538.627984,287.245141 538.427984,278.745141 538.427984,274.645141 L541.427984,274.345141 C545.427984,287.445141 551.027984,304.645141 558.327984,325.845141 C558.527984,326.445141 559.027984,326.945141 559.627984,327.245141 C560.327984,327.545141 561.027984,327.745141 561.727984,327.745141 C567.327984,327.645141 573.327984,327.345141 579.627984,326.745141 C588.327984,325.945141 596.127984,324.945141 602.927984,323.545141 C598.527984,305.145141 592.627984,289.045141 585.227984,275.245141 C582.027984,270.145141 577.927984,266.945141 572.927984,265.645141 C580.327984,261.545141 586.127984,256.245141 590.327984,249.845141 C594.527984,243.445141 596.527984,236.145141 596.527984,228.145141 C596.327984,223.045141 595.827984,218.645141 594.927984,214.845141 Z M693.627984,182.545141 C687.327984,183.045141 681.427984,183.745141 675.827984,184.645141 C675.127984,184.745141 674.427984,185.045141 673.727984,185.445141 C673.027984,185.945141 672.627984,186.445141 672.427984,187.145141 C668.627984,198.945141 663.927984,215.445141 658.127984,236.645141 C652.127984,215.745141 647.427984,200.045141 643.927984,189.545141 C643.727984,188.945141 643.227984,188.445141 642.627984,188.145141 C641.927984,187.845141 641.227984,187.645141 640.527984,187.645141 C634.927984,187.745141 629.027984,188.045141 622.727984,188.545141 C614.027984,189.245141 606.227984,190.345141 599.427984,191.745141 C605.327984,216.245141 611.527984,234.545141 617.927984,246.645141 C622.527984,254.045141 628.527984,260.445141 635.927984,265.945141 C635.727984,289.945141 635.627984,307.445141 635.627984,318.545141 C635.627984,319.145141 635.827984,319.645141 636.327984,320.045141 C636.727984,320.445141 637.327984,320.645141 637.927984,320.545141 C647.027984,320.045141 654.727984,319.545141 661.127984,319.045141 C667.327984,318.545141 673.927984,317.745141 681.027984,316.845141 C680.927984,304.745141 680.727984,286.545141 680.427984,262.145141 C687.727984,255.545141 693.727984,248.045141 698.327984,239.745141 C704.827984,226.445141 711.027984,207.045141 716.827984,181.745141 C710.027984,181.545141 702.227984,181.845141 693.627984,182.545141 Z M550.527984,243.645141 C548.327984,245.545141 545.527984,246.745141 542.027984,247.045141 L538.227984,247.345141 C538.227984,242.545141 538.227984,235.845141 538.327984,227.245141 C539.927984,227.045141 541.727984,226.745141 543.627984,226.645141 C547.427984,226.345141 550.027984,226.945141 551.527984,228.645141 C553.027984,230.245141 553.727984,232.945141 553.727984,236.545141 C553.827984,239.245141 552.727984,241.745141 550.527984,243.645141 Z M433.227984,253.645141 C431.027984,255.545141 428.227984,256.745141 424.627984,257.045141 L420.827984,257.345141 C420.827984,252.545141 420.827984,245.845141 420.927984,237.145141 C422.527984,236.945141 424.327984,236.645141 426.327984,236.545141 C430.127984,236.245141 432.727984,236.845141 434.227984,238.545141 C435.727984,240.145141 436.427984,242.845141 436.427984,246.445141 C436.527984,249.245141 435.427984,251.645141 433.227984,253.645141 Z M188.027984,419.145141 C188.427984,417.045141 188.827984,415.445141 189.327984,414.045141 C189.827984,412.745141 190.427984,411.745141 191.127984,410.945141 C191.827984,410.245141 192.627984,409.745141 193.327984,409.445141 C194.027984,409.145141 194.927984,408.945141 196.027984,408.845141 C197.127984,408.745141 198.027984,408.745141 198.727984,408.945141 C199.527984,409.145141 200.327984,409.445141 201.127984,410.045141 C201.927984,410.645141 202.627984,411.545141 203.227984,412.745141 C203.727984,413.945141 204.227984,415.545141 204.727984,417.545141 C205.227984,419.545141 205.527984,422.045141 205.727984,425.045141 C205.927984,428.145141 206.027984,431.645141 206.027984,435.745141 C206.027984,440.645141 205.827984,444.845141 205.527984,448.345141 C205.227984,451.845141 204.827984,454.545141 204.327984,456.645141 C203.827984,458.645141 203.227984,460.245141 202.327984,461.445141 C201.427984,462.645141 200.627984,463.345141 199.727984,463.745141 C198.827984,464.145141 197.827984,464.345141 196.527984,464.545141 C195.227984,464.645141 194.127984,464.645141 193.227984,464.345141 C192.327984,464.145141 191.427984,463.445141 190.527984,462.445141 C189.627984,461.445141 188.927984,459.945141 188.427984,458.045141 C187.927984,456.145141 187.527984,453.445141 187.127984,450.045141 C186.827984,446.645141 186.627984,442.445141 186.627984,437.545141 C186.627984,433.445141 186.727984,429.845141 186.927984,426.745141 C187.327984,423.745141 187.627984,421.145141 188.027984,419.145141 Z M551.727984,377.745141 C553.027984,377.645141 554.127984,377.745141 554.927984,377.945141 C555.827984,378.145141 556.627984,378.845141 557.527984,379.845141 C558.427984,380.845141 559.127984,382.345141 559.627984,384.245141 C560.127984,386.145141 560.527984,388.845141 560.927984,392.245141 C561.227984,395.645141 561.427984,399.745141 561.427984,404.645141 C561.427984,408.745141 561.327984,412.345141 561.127984,415.445141 C560.927984,418.545141 560.627984,421.045141 560.227984,423.145141 C559.827984,425.145141 559.327984,426.845141 558.827984,428.245141 C558.327984,429.545141 557.627984,430.545141 556.827984,431.245141 C556.027984,431.945141 555.227984,432.445141 554.527984,432.745141 C553.727984,433.045141 552.827984,433.245141 551.827984,433.345141 L548.227984,433.645141 C548.027984,423.545141 547.827984,414.345141 547.827984,405.945141 C547.827984,399.045141 547.927984,389.745141 548.227984,378.145141 L551.727984,377.745141 Z M421.027984,63.5451413 C408.127984,49.2451413 410.727984,24.5451413 410.727984,24.5451413 L437.427984,54.3451413 L417.327984,19.4451413 C417.327984,19.4451413 440.227984,24.0451413 451.227984,40.5451413 C460.627984,54.6451413 458.427984,81.1451413 458.427984,81.1451413 C458.427984,81.1451413 437.427984,81.7451413 421.027984,63.5451413 Z M403.527984,24.0451413 C403.527984,24.0451413 391.227984,43.0451413 390.127984,64.6451413 C389.127984,85.4451413 399.427984,108.845141 399.427984,108.845141 L391.727984,110.945141 C391.727984,110.945141 381.427984,88.3451413 381.427984,65.7451413 C381.427984,46.2451413 391.727984,26.2451413 391.727984,26.2451413 C391.727984,26.2451413 372.627984,35.5451413 360.327984,50.8451413 C348.427984,65.7451413 343.327984,86.7451413 343.327984,86.7451413 L335.627984,85.7451413 C335.627984,85.7451413 338.427984,62.2451413 356.227984,42.1451413 C375.027984,20.9451413 394.827984,15.4451413 394.827984,15.4451413 C394.827984,15.4451413 402.827984,2.34514129 409.727984,8.74514129 C417.227984,15.6451413 403.527984,24.0451413 403.527984,24.0451413 Z M341.327984,90.7451413 C341.327984,90.7451413 355.427984,89.3451413 366.027984,95.8451413 C374.927984,101.345141 375.827984,113.845141 375.827984,113.845141 C375.827984,113.845141 365.027984,117.445141 359.927984,131.345141 C356.027984,141.845141 358.927984,155.945141 358.927984,155.945141 C358.927984,155.945141 334.227984,169.945141 312.527984,159.745141 C308.127984,157.645141 290.227984,144.345141 288.027984,128.145141 C285.827984,112.145141 294.927984,95.3451413 296.427984,93.3451413 C307.727984,78.1451413 325.327984,84.9451413 335.827984,91.1451413 C341.127984,94.2451413 344.627984,97.3451413 344.627984,97.3451413 L341.327984,90.7451413 Z M161.627984,825.545141 C175.027984,826.845141 188.527984,828.045141 202.027984,829.345141 C202.027984,831.945141 202.027984,834.445141 202.027984,837.045141 C198.327984,838.545141 197.027984,842.545141 194.027984,844.845141 C180.327984,855.245141 168.227984,850.745141 158.327984,843.645141 C158.327984,843.945141 158.327984,844.245141 158.327984,844.645141 C149.127984,854.745141 127.627984,857.645141 133.527984,835.945141 C114.127984,837.745141 87.4279839,827.145141 93.3279839,804.845141 C114.427984,813.245141 136.627984,820.845141 161.627984,825.545141 Z M303.527984,803.045141 C291.727984,803.545141 284.827984,795.645141 274.627984,793.645141 C267.927984,792.245141 263.327984,796.445141 257.627984,795.845141 C257.327984,795.045141 257.027984,794.245141 256.727984,793.545141 C258.427984,791.145141 262.827984,787.945141 263.827984,785.745141 C264.327984,774.645141 264.827984,763.445141 265.327984,752.345141 C265.327984,727.245141 265.427984,702.145141 265.427984,676.945141 C265.427984,660.245141 268.427984,636.245141 248.927984,641.545141 C233.327984,645.745141 237.127984,667.045141 237.027984,685.445141 C237.027984,706.545141 236.927984,727.645141 236.927984,748.645141 C236.927984,761.845141 235.927984,776.545141 239.727984,785.545141 C242.127984,791.245141 246.427984,793.045141 251.027984,796.245141 C250.427984,797.045141 249.727984,797.945141 249.127984,798.845141 C245.127984,800.745141 242.227984,801.945141 237.327984,801.145141 C236.927984,806.245141 235.827984,810.145141 232.127984,812.145141 C228.327984,814.845141 224.227984,812.245141 222.727984,809.445141 C222.427984,809.645141 222.127984,809.845141 221.827984,810.045141 C221.927984,821.945141 216.827984,837.245141 205.327984,838.245141 C205.427984,771.745141 205.527984,705.245141 205.527984,638.745141 C205.527984,621.645141 208.827984,569.445141 203.227984,559.845141 C199.927984,559.245141 198.127984,558.445141 196.127984,556.545141 C196.327984,555.245141 196.427984,553.945141 196.627984,552.645141 C197.127984,552.445141 197.527984,552.245141 198.027984,552.045141 C201.527984,551.545141 204.927984,551.145141 208.427984,550.645141 C221.627984,546.245141 237.327984,537.345141 246.627984,551.345141 C246.627984,551.945141 246.627984,552.645141 246.627984,553.245141 C246.327984,553.545141 246.027984,553.945141 245.727984,554.245141 C243.327984,554.745141 241.027984,555.245141 238.627984,555.845141 C236.227984,558.545141 237.227984,566.745141 237.227984,571.445141 C237.327984,587.845141 237.527984,604.245141 237.627984,620.645141 C252.927984,608.745141 281.427984,606.845141 291.027984,621.645141 C299.227984,634.145141 297.127984,659.345141 297.127984,680.645141 C297.027984,714.945141 297.027984,749.345141 296.927984,783.645141 C298.427984,790.945141 303.827984,794.045141 304.527984,801.445141 C304.227984,801.945141 303.827984,802.545141 303.527984,803.045141 Z M367.927984,691.645141 C368.127984,691.145141 368.227984,690.645141 368.427984,690.145141 C371.327984,683.845141 393.127984,671.245141 402.827984,672.445141 C403.027984,672.745141 403.127984,673.045141 403.327984,673.345141 C401.427984,676.245141 399.527984,679.145141 397.627984,682.045141 C393.727984,694.845141 396.627984,720.545141 396.527984,735.545141 C396.527984,746.145141 398.227984,761.045141 394.027984,768.245141 C388.027984,778.745141 367.327984,781.345141 354.927984,785.745141 C347.027984,788.545141 333.827984,795.845141 325.427984,791.345141 C315.927984,786.245141 317.827984,767.645141 317.927984,752.245141 C318.027984,720.345141 318.027984,688.345141 318.127984,656.445141 C318.127984,643.845141 316.027984,625.445141 321.527984,617.445141 C330.127984,604.745141 368.727984,603.845141 383.927984,595.345141 C388.927984,594.945141 392.027984,595.645141 393.927984,598.445141 C397.827984,603.945141 399.027984,652.245141 396.227984,662.845141 C373.127984,664.545141 359.127984,678.545141 353.227984,696.745141 C362.927984,696.145141 370.727984,705.645141 364.127984,715.745141 C357.127984,726.445141 348.227984,718.145141 342.727984,714.445141 C342.427984,725.845141 341.427984,738.645141 346.927984,743.645141 C369.227984,741.945141 371.727984,735.845141 371.727984,712.645141 C371.627984,705.845141 371.427984,699.045141 371.327984,692.345141 C370.127984,692.045141 369.027984,691.845141 367.927984,691.645141 Z M343.127984,694.045141 C343.127984,693.745141 343.127984,693.445141 343.127984,693.045141 C346.327984,685.845141 349.527984,678.645141 352.727984,671.445141 C358.327984,661.745141 365.527984,653.145141 371.827984,644.245141 C371.927984,638.545141 371.727984,633.045141 370.427984,629.345141 C368.127984,628.445141 366.827984,627.845141 363.327984,627.945141 C357.127984,631.245141 348.427984,630.645141 344.727984,636.245141 C342.327984,639.845141 340.627984,688.045141 343.127984,694.045141 Z M231.627984,866.645141 C255.227984,862.245141 295.227984,842.145141 306.327984,826.945141 C288.327984,832.545141 234.427984,847.345141 213.727984,839.045141 C214.227984,838.345141 214.627984,837.645141 215.127984,837.045141 C218.127984,835.045141 218.927984,831.545141 221.227984,828.845141 C233.427984,831.445141 262.427984,826.045141 274.127984,823.045141 C316.027984,812.145141 352.327984,800.645141 386.727984,783.745141 C395.027984,779.545141 403.327984,775.345141 411.527984,771.245141 C412.027984,771.245141 412.527984,771.145141 412.927984,771.145141 C413.027984,776.345141 413.627984,783.945141 411.927984,787.745141 C395.527984,796.245141 379.127984,804.745141 362.727984,813.245141 C333.827984,828.345141 301.427984,842.345141 280.527984,865.145141 C274.427984,871.745141 253.427984,901.945141 244.127984,896.245141 L244.127984,895.245141 C241.427984,885.645141 251.427984,878.645141 255.527984,873.245141 C240.527984,879.645141 209.627984,897.845141 202.727984,872.245141 C196.127984,846.545141 238.627984,840.545141 231.627984,866.645141 Z M416.927984,749.945141 C417.027984,708.345141 417.127984,666.745141 417.227984,625.045141 C417.227984,613.845141 419.827984,573.245141 414.927984,568.845141 C413.027984,570.145141 412.227984,570.545141 409.627984,570.245141 C408.427984,564.345141 434.627984,540.145141 441.327984,535.945141 C441.927984,536.145141 447.627984,531.945141 448.927984,533.645141 C450.227984,535.345141 447.727984,537.445141 447.727984,537.745141 C445.527984,540.245141 444.427984,541.745141 442.227984,544.145141 C442.027984,559.745141 441.827984,575.345141 441.627984,590.945141 C441.527984,635.245141 441.427984,679.545141 441.327984,723.745141 C441.327984,740.145141 435.527984,780.945141 452.727984,776.845141 C452.727984,777.845141 452.727984,778.745141 452.727984,779.745141 C450.327984,786.245141 447.727984,788.645141 441.227984,791.245141 C442.827984,794.845141 442.727984,797.645141 440.727984,801.045141 C438.327984,801.845141 435.927984,802.645141 433.527984,803.545141 C430.427984,802.045141 430.427984,800.945141 427.827984,802.545141 C424.627984,808.945141 415.327984,809.945141 407.227984,808.945141 C418.327984,795.745141 416.927984,773.845141 416.927984,749.945141 Z M542.427984,700.945141 C538.927984,708.645141 533.427984,708.945141 525.527984,707.645141 C522.127984,713.945141 473.927984,737.645141 465.827984,736.545141 C457.727984,726.045141 462.127984,675.745141 462.127984,656.045141 C462.127984,648.345141 460.127984,633.945141 465.027984,630.545141 C469.527984,626.645141 505.227984,631.245141 500.627984,619.445141 C499.927984,617.645141 496.927984,615.745141 495.827984,613.045141 C496.927984,609.345141 497.927984,607.045141 501.127984,605.345141 C505.127984,603.045141 508.527984,605.245141 511.727984,606.445141 C511.827984,599.545141 512.127984,591.245141 510.827984,586.045141 C509.827984,585.445141 508.927984,584.945141 507.927984,584.345141 C495.227984,581.545141 482.227984,592.145141 485.227984,605.745141 C486.527984,606.645141 487.827984,607.445141 489.027984,608.345141 C488.927984,610.545141 488.727984,611.045141 488.027984,612.345141 C476.527984,614.845141 469.227984,622.045141 459.627984,625.345141 C459.427984,625.145141 459.327984,625.045141 459.127984,624.945141 C459.327984,620.245141 461.027984,619.745141 462.027984,616.945141 C462.027984,613.545141 462.027984,610.145141 462.027984,606.745141 C462.027984,592.345141 460.027984,575.545141 468.327984,568.745141 C480.827984,558.545141 507.627984,558.345141 522.227984,549.645141 C525.127984,549.745141 528.027984,549.845141 530.927984,549.945141 C535.727984,556.545141 534.227984,571.445141 534.227984,583.345141 C534.127984,609.545141 534.127984,635.745141 534.027984,661.945141 C534.227984,679.045141 530.227984,695.545141 542.427984,700.945141 Z M510.827984,619.945141 C507.527984,633.845141 493.327984,637.845141 484.827984,646.845141 C484.627984,659.845141 481.327984,686.945141 488.127984,693.345141 C516.727984,691.345141 511.727984,673.145141 511.827984,645.645141 C511.727984,639.745141 514.027984,623.345141 510.827984,619.945141 Z M646.227984,655.645141 C641.027984,657.845141 636.627984,662.745141 635.027984,668.245141 C634.827984,668.245141 634.727984,668.245141 634.527984,668.245141 C634.227984,663.845141 633.927984,659.445141 633.627984,655.145141 C638.027984,654.945141 642.327984,654.745141 646.727984,654.645141 C646.527984,654.945141 646.327984,655.345141 646.227984,655.645141 Z M633.027984,522.945141 C634.827984,522.145141 636.627984,521.345141 638.427984,520.545141 C662.427984,517.745141 653.427984,551.545141 638.327984,557.345141 C639.727984,554.645141 641.227984,553.245141 641.727984,549.745141 C638.127984,549.945141 637.027984,549.245141 635.927984,546.745141 C635.327984,544.545141 635.927984,543.545141 636.427984,541.345141 C626.627984,540.345141 628.727984,529.045141 633.027984,522.945141 Z M587.927984,674.945141 C581.127984,671.045141 592.827984,668.445141 596.227984,666.445141 C595.527984,668.445141 591.927984,671.145141 593.327984,675.445141 C590.727984,675.745141 589.127984,675.845141 587.927984,674.945141 Z M567.527984,696.545141 C563.827984,708.145141 563.827984,714.845141 555.427984,721.445141 C555.227984,721.445141 555.127984,721.445141 554.927984,721.445141 C555.027984,679.745141 555.127984,638.045141 555.227984,596.345141 C555.227984,582.345141 558.927984,556.045141 552.927984,547.145141 C551.027984,546.845141 549.027984,546.445141 547.127984,546.145141 C552.827984,535.245141 558.727984,542.745141 567.927984,539.545141 C571.127984,538.445141 574.927984,533.545141 578.627984,531.845141 C583.827984,530.445141 588.927984,529.045141 594.127984,527.645141 C604.127984,526.545141 620.927984,526.345141 625.127984,531.945141 C634.427984,554.745141 629.227984,605.745141 629.127984,637.445141 C629.127984,649.245141 627.927984,663.245141 631.427984,672.045141 C634.027984,674.445141 636.627984,676.845141 639.227984,679.245141 C640.027984,684.045141 633.527984,685.645141 628.527984,684.445141 C622.427984,681.145141 616.227984,677.845141 610.127984,674.645141 C605.527984,673.445141 600.827984,675.845141 597.027984,675.145141 C596.227984,670.345141 602.227984,666.145141 603.327984,659.445141 C605.627984,645.745141 604.627984,582.045141 600.627984,575.445141 C596.027984,574.145141 588.527984,573.145141 584.627984,577.245141 C577.227984,585.045141 580.627984,637.045141 580.527984,653.345141 C580.527984,666.645141 579.027984,679.045141 591.127984,679.445141 C590.927984,679.945141 590.827984,680.445141 590.627984,680.945141 C586.527984,684.345141 584.227984,684.545141 578.527984,687.245141 C580.927984,697.545141 572.627984,694.145141 567.527984,696.545141 Z M445.127984,752.645141 C451.827984,748.545141 458.527984,744.545141 465.327984,740.445141 C468.227984,740.245141 471.127984,740.045141 473.927984,739.745141 C488.527984,733.645141 503.627984,725.745141 518.727984,718.345141 C521.527984,716.945141 524.627984,712.845141 526.927984,711.845141 C528.827984,712.045141 530.827984,712.245141 532.727984,712.345141 C540.627984,711.645141 543.927984,706.145141 546.227984,700.045141 C545.927984,699.245141 545.627984,698.445141 545.227984,697.645141 C543.027984,696.945141 540.427984,696.645141 538.927984,695.245141 C542.827984,692.845141 546.627984,690.445141 550.527984,688.045141 C550.627984,693.745141 550.827984,699.445141 550.927984,705.045141 C535.327984,713.845141 522.627984,728.445141 519.027984,748.445141 C516.027984,764.645141 531.327984,789.245141 545.927984,782.045141 C549.227984,780.545141 551.727984,778.045141 552.227984,773.745141 C551.427984,772.945141 550.627984,772.245141 549.827984,771.445141 C545.727984,773.145141 543.527984,771.645141 540.627984,769.645141 C540.127984,767.545141 539.627984,765.445141 539.227984,763.445141 C547.327984,744.945141 573.027984,761.045141 556.027984,785.145141 C565.927984,785.245141 576.627984,784.945141 579.727984,777.045141 C579.727984,775.545141 579.727984,774.145141 579.727984,772.645141 C576.127984,772.245141 575.227984,770.845141 572.927984,769.245141 C572.827984,764.245141 575.427984,761.545141 575.827984,758.245141 C564.427984,753.645141 577.327984,736.845141 589.927984,740.545141 C604.027984,744.745141 603.727984,769.645141 595.127984,781.245141 C583.927984,796.345141 551.027984,802.845141 527.427984,798.445141 C503.327984,793.945141 485.927984,778.745141 480.927984,753.745141 C469.227984,759.345141 457.527984,764.945141 445.827984,770.445141 C445.327984,765.645141 445.127984,758.945141 445.127984,752.645141 Z" id="Shape" fill="#64FDD1"></path>
        </g>
    </g>
</svg>