<?xml version="1.0" encoding="UTF-8"?>
<svg width="862px" height="1001px" viewBox="0 0 862 1001" version="1.1" xmlns="http://www.w3.org/2000/svg" xmlns:xlink="http://www.w3.org/1999/xlink">
    <title>Combined Shape</title>
    <g id="Page-1" stroke="none" stroke-width="1" fill="none" fill-rule="evenodd">
        <g id="logo-4" transform="translate(0.072016, 0.154859)" fill="#FF4EB6" fill-rule="nonzero">
            <path d="M407.627984,0.245141294 C412.317458,1.11356235 414.694189,4.52935182 417.009176,7.91162329 L417.429904,8.52563786 C418.973752,10.7714571 420.550791,12.9328606 422.827984,14.2451413 C437.827984,23.0451413 446.427984,24.8451413 456.827984,37.6451413 C481.727984,68.5451413 557.427984,117.545141 559.927984,161.745141 C619.827984,156.845141 679.827984,151.945141 739.727984,147.145141 C772.927984,181.045141 806.127984,215.045141 839.327984,248.945141 L839.327984,560.245141 L839.327984,560.245141 C841.418893,565.154232 846.030463,568.720348 850.467353,572.483684 L851.131239,573.049856 C856.205825,577.4048 860.871166,582.122414 861.027984,589.545141 C855.777984,597.021141 848.517024,600.969141 841.30475,605.130585 L840.274979,605.726933 C830.671024,611.313941 821.327984,617.597141 817.127984,633.445141 C814.865127,642.033713 816.384474,649.405631 818.203828,656.51306 L818.509234,657.695345 C818.611564,658.088733 818.714223,658.481468 818.816614,658.873713 L819.122384,660.049141 C820.539984,665.529141 821.787984,670.945141 821.227984,676.745141 L819.427984,678.545141 L819.427984,678.545141 C812.927984,679.445141 808.027984,677.245141 803.627984,674.445141 C808.927984,680.145141 814.127984,685.745141 819.427984,691.445141 C832.827984,708.345141 841.927984,727.945141 845.227984,755.245141 C852.027984,812.045141 785.427984,834.945141 740.427984,843.645141 C730.227984,845.045141 720.127984,846.345141 709.927984,847.745141 C709.343984,847.169141 708.754544,846.588981 708.161456,846.006344 L707.269312,845.130742 L707.269312,845.130742 L706.37304,844.252687 C706.223392,844.10621 706.073628,843.959684 705.923776,843.813134 L705.023832,842.933767 L705.023832,842.933767 L704.12312,842.055102 C703.822904,841.762472 703.522784,841.470169 703.222984,841.178404 L702.324768,840.304933 C689.918924,828.250071 678.449984,817.484141 683.927984,823.045141 C698.227984,837.745141 710.727984,857.945141 698.227984,878.745141 C683.527984,903.145141 628.027984,910.645141 599.227984,893.345141 C588.127984,882.845141 576.927984,872.245141 565.827984,861.745141 C560.927984,864.045141 556.027984,866.445141 551.227984,868.745141 C564.927984,881.545141 518.927984,934.545141 490.927984,899.745141 C477.681984,908.847141 462.656284,915.991471 447.598412,923.052292 L445.156589,924.196854 C420.334134,935.831811 395.680984,947.515141 379.027984,967.645141 C371.827984,976.345141 357.727984,1002.84514 340.927984,999.845141 C336.920711,999.106959 334.748348,996.22805 332.783738,993.319318 L332.379698,992.717778 C330.771124,990.315455 329.227984,987.992414 326.827984,986.945141 C321.127984,984.445141 310.827984,989.745141 304.527984,986.345141 C297.927984,982.745141 292.702984,976.370141 287.565484,969.982641 L286.465461,968.614707 C281.700433,962.694886 276.931555,956.934427 271.127984,953.545141 C265.627984,951.745141 260.227984,950.045141 254.727984,948.245141 C237.227984,966.845141 224.527984,943.945141 213.127984,937.145141 C203.027984,931.145141 194.327984,931.945141 187.327984,923.145141 C166.327984,927.445141 151.627984,927.345141 140.427984,912.045141 C131.927984,914.645141 122.027984,922.345141 109.927984,917.945141 C98.1279839,913.245141 -0.972016125,816.145141 0.0279838749,799.445141 C10.5279839,796.445141 14.6279839,791.745141 17.6279839,778.345141 C18.2279839,760.745141 18.8279839,743.245141 19.4279839,725.645141 C19.8279839,678.845141 20.2279839,632.045141 20.6279839,585.145141 C20.4279839,576.145141 21.5279839,561.945141 20.0279839,552.945141 C18.7679839,549.885141 15.1769839,546.654141 11.3771839,543.379041 L10.6150687,542.723471 C1.96046387,535.287861 -7.04001613,527.669141 8.32798387,521.345141 C13.3279839,519.745141 18.9279839,521.845141 22.9279839,523.145141 L23.5279839,523.145141 L23.5279839,523.145141 C23.5249839,520.877141 23.5231539,518.460911 23.5224264,515.907386 L23.5224214,510.620516 C23.5449839,424.115891 24.6279839,207.245141 24.6279839,207.245141 C123.227984,198.645141 223.027984,190.045141 321.627984,181.545141 L321.627984,180.945141 L321.627984,180.945141 C300.227984,164.245141 271.627984,136.445141 287.027984,99.0451413 C290.927984,89.6451413 295.627984,81.4451413 305.727984,78.5451413 C315.227984,75.8451413 323.627984,80.8451413 330.927984,80.3451413 C335.827984,41.6451413 363.327984,27.0451413 390.627984,10.1451413 C392.046903,9.26541156 393.232275,7.94274904 394.42864,6.54053273 L394.770968,6.13804867 C397.686895,2.70387029 400.805011,-0.995399246 407.627984,0.245141294 Z M412.927984,771.145141 C412.527984,771.145141 412.027984,771.245141 411.527984,771.245141 C403.327984,775.345141 395.027984,779.545141 386.727984,783.745141 C352.327984,800.645141 316.027984,812.145141 274.127984,823.045141 C262.427984,826.045141 233.427984,831.445141 221.227984,828.845141 C218.927984,831.545141 218.127984,835.045141 215.127984,837.045141 C214.627984,837.645141 214.227984,838.345141 213.727984,839.045141 C234.427984,847.345141 288.327984,832.545141 306.327984,826.945141 C295.227984,842.145141 255.227984,862.245141 231.627984,866.645141 C238.627984,840.545141 196.127984,846.545141 202.727984,872.245141 C209.627984,897.845141 240.527984,879.645141 255.527984,873.245141 C251.427984,878.645141 241.427984,885.645141 244.127984,895.245141 L244.127984,895.245141 L244.127984,896.245141 C253.427984,901.945141 274.427984,871.745141 280.527984,865.145141 C297.015762,847.158475 320.660515,834.64845 344.097819,822.754547 L346.077778,821.750787 C346.407634,821.583702 346.737408,821.416712 347.067079,821.249803 L349.043704,820.24922 C353.652181,817.916302 358.232428,815.59403 362.727984,813.245141 L362.727984,813.245141 L411.927984,787.745141 C413.627984,783.945141 413.027984,776.345141 412.927984,771.145141 Z M93.3279839,804.845141 C87.4279839,827.145141 114.127984,837.745141 133.527984,835.945141 C127.627984,857.645141 149.127984,854.745141 158.327984,844.645141 L158.327984,844.645141 L158.327984,843.645141 C168.227984,850.745141 180.327984,855.245141 194.027984,844.845141 C197.027984,842.545141 198.327984,838.545141 202.027984,837.045141 L202.027984,837.045141 L202.027984,829.345141 C188.527984,828.045141 175.027984,826.845141 161.627984,825.545141 C136.627984,820.845141 114.427984,813.245141 93.3279839,804.845141 Z M246.627984,551.345141 C239.094984,540.005141 227.362944,543.689831 216.161689,547.837728 L214.919529,548.299772 C212.715984,549.121941 210.539984,549.941141 208.427984,550.645141 C204.927984,551.145141 201.527984,551.545141 198.027984,552.045141 C197.527984,552.245141 197.127984,552.445141 196.627984,552.645141 C196.427984,553.945141 196.327984,555.245141 196.127984,556.545141 C198.127984,558.445141 199.927984,559.245141 203.227984,559.845141 C208.827984,569.445141 205.527984,621.645141 205.527984,638.745141 C205.527984,705.245141 205.427984,771.745141 205.327984,838.245141 C216.827984,837.245141 221.927984,821.945141 221.827984,810.045141 L221.827984,810.045141 L222.727984,809.445141 C224.227984,812.245141 228.327984,814.845141 232.127984,812.145141 C235.827984,810.145141 236.927984,806.245141 237.327984,801.145141 C242.227984,801.945141 245.127984,800.745141 249.127984,798.845141 C249.727984,797.945141 250.427984,797.045141 251.027984,796.245141 C246.427984,793.045141 242.127984,791.245141 239.727984,785.545141 C237.127984,779.387247 236.775075,770.560931 236.811465,761.372419 L236.819885,759.956256 C236.84919,756.173858 236.927984,752.350404 236.927984,748.645141 C236.927984,727.645141 237.027984,706.545141 237.027984,685.445141 C237.038984,683.421141 237.002794,681.362051 236.950426,679.294491 L236.920444,678.166051 L236.920444,678.166051 L236.888371,677.036891 C236.871999,676.472291 236.855262,675.907781 236.838789,675.343901 L236.790795,673.654691 C236.387524,658.853251 236.603984,644.863141 248.927984,641.545141 C268.427984,636.245141 265.427984,660.245141 265.427984,676.945141 C265.427984,702.145141 265.327984,727.245141 265.327984,752.345141 C264.827984,763.445141 264.327984,774.645141 263.827984,785.745141 C263.29227,786.923713 261.78079,788.389274 260.231387,789.865085 L259.611826,790.4553 C258.480407,791.535958 257.395841,792.602284 256.727984,793.545141 C257.027984,794.245141 257.327984,795.045141 257.627984,795.845141 C260.027984,796.097773 262.23297,795.499435 264.481811,794.826451 L265.327649,794.572099 C268.15707,793.722704 271.101668,792.908299 274.627984,793.645141 C278.452984,794.395141 281.813921,795.974829 285.143218,797.630102 L286.093959,798.104443 L286.093959,798.104443 L287.521743,798.815117 C292.291377,801.170141 297.206555,803.312998 303.527984,803.045141 C303.827984,802.545141 304.227984,801.945141 304.527984,801.445141 C303.827984,794.045141 298.427984,790.945141 296.927984,783.645141 C297.027984,749.345141 297.027984,714.945141 297.127984,680.645141 C297.127984,677.317016 297.179253,673.893676 297.23449,670.438446 L297.256684,669.054803 L297.256684,669.054803 L297.278629,667.668659 C297.282228,667.437476 297.285789,667.206227 297.289298,666.97493 L297.319079,664.89247 C297.337484,663.503975 297.352488,662.115782 297.361063,660.731943 L297.367382,659.349705 C297.4102,644.394436 296.580067,630.108683 291.027984,621.645141 C281.427984,606.845141 252.927984,608.745141 237.627984,620.645141 C237.527984,604.245141 237.327984,587.845141 237.227984,571.445141 C237.227984,566.745141 236.227984,558.545141 238.627984,555.845141 C241.027984,555.245141 243.327984,554.745141 245.727984,554.245141 C246.027984,553.945141 246.327984,553.545141 246.627984,553.245141 L246.627984,553.245141 Z M438.527984,112.945141 C425.827984,100.045141 402.027984,112.945141 402.027984,112.945141 L402.027984,112.945141 L409.227984,118.045141 L395.327984,114.445141 C395.327984,114.445141 370.127984,112.845141 363.427984,133.945141 C358.227984,150.245141 365.427984,175.045141 389.127984,182.845141 L389.127984,182.845141 L29.1279839,213.045141 L29.1279839,533.345141 C22.1279839,529.645141 15.3279839,526.845141 9.62798387,527.345141 C8.42798387,528.745141 7.12798387,530.145141 5.92798387,531.545141 L5.92798387,531.545141 L5.92798387,533.945141 C7.96307159,535.594264 10.3428808,536.726305 12.7131863,537.833722 L13.4236387,538.165701 L13.4236387,538.165701 L14.1313955,538.499158 C18.0127484,540.342648 21.6753523,542.387247 23.5279839,546.845141 C26.9111164,555.115021 26.7616608,568.644532 26.1780798,581.80234 L26.1089932,583.318579 C25.7674671,590.635996 25.3279839,597.770442 25.3279839,603.745141 L25.3279839,603.745141 L25.3279839,732.145141 C25.3279839,756.945141 27.5279839,799.645141 5.82798387,802.045141 L5.82798387,802.045141 L5.82798387,802.545141 C13.2279839,822.145141 30.0279839,817.745141 45.3279839,806.745141 C45.7229839,807.200141 46.1164839,807.661891 46.5100464,808.127979 L46.9824514,808.689211 C47.3763139,809.158383 47.7708639,809.630927 48.1676639,810.104431 L48.6450039,810.672942 C48.7247739,810.767719 48.8046589,810.862496 48.8846714,810.957254 L49.3663764,811.52541 C56.0538939,819.377401 63.7919839,826.829141 79.7279839,822.845141 C84.4279839,821.745141 88.6279839,821.445141 91.4279839,818.645141 C89.4279839,813.645141 89.6279839,806.745141 90.0279839,800.045141 C105.427984,800.445141 135.427984,825.145141 153.627984,815.945141 C182.243984,801.539141 183.296504,766.484541 183.327158,724.428625 L183.327984,721.845141 C183.327984,676.145141 183.427984,630.345141 183.427984,584.545141 C183.627984,569.545141 183.727984,554.645141 183.927984,539.645141 C184.785127,536.687998 186.560637,535.255345 188.41224,533.930272 L189.340484,533.270141 C191.502984,531.720141 193.577984,529.995141 194.227984,525.845141 L194.227984,525.845141 L560.927984,493.145141 C523.027984,505.345141 484.727984,516.545141 444.327984,527.445141 C415.527984,535.245141 379.827984,535.045141 367.327984,518.845141 C366.927984,518.845141 366.627984,518.945141 366.327984,518.945141 C363.627984,521.145141 362.727984,523.345141 361.027984,526.645141 C361.427984,534.145141 367.527984,538.745141 373.427984,540.145141 L373.427984,540.145141 L337.727984,541.645141 C308.427984,548.545141 286.027984,551.145141 269.327984,568.645141 C268.781984,569.219141 268.028224,569.959741 267.152317,570.833739 L266.769699,571.21638 C261.315344,576.684981 251.903984,586.785141 257.027984,594.345141 C260.727984,599.745141 272.827984,595.145141 276.927984,592.245141 C285.027984,586.545141 299.327984,554.245141 313.027984,560.245141 C318.627984,562.845141 317.227984,571.745141 322.027984,575.045141 C332.927984,582.545141 345.227984,571.345141 344.927984,558.145141 C363.227984,553.045141 402.927984,546.945141 421.327984,550.845141 C426.627984,543.045141 442.327984,530.045141 450.627984,530.845141 C453.927984,535.545141 450.027984,542.145141 446.327984,544.345141 C446.127984,549.145141 446.027984,553.845141 445.827984,558.545141 C454.827984,559.145141 459.127984,555.945141 464.027984,551.645141 C465.027984,547.345141 464.727984,542.645141 464.027984,538.445141 C492.427984,528.645141 520.827984,518.745141 549.327984,508.845141 C572.527984,500.945141 596.027984,496.445141 621.127984,490.045141 C657.427984,480.845141 695.327984,487.345141 709.727984,506.145141 C708.327984,510.245141 706.827984,514.245141 705.327984,518.345141 C686.327984,513.645141 671.427984,511.445141 655.027984,524.545141 C657.827984,538.445141 655.427984,552.145141 643.727984,557.845141 C640.027984,566.745141 650.127984,579.645141 653.827984,584.945141 C657.277984,589.895141 661.202984,594.226391 665.243609,598.381079 L666.215395,599.37504 C667.351306,600.531235 668.494028,601.676361 669.635672,602.820124 L671.102285,604.290691 C681.355724,614.590101 691.247984,625.116141 695.027984,642.945141 C703.227984,682.045141 666.127984,703.045141 639.827984,686.045141 C631.744984,690.175141 625.959444,687.795671 620.766718,684.575192 L620.240622,684.245007 C619.629071,683.856924 619.025053,683.459708 618.425718,683.062824 L617.913084,682.722941 C615.354984,681.026141 612.867984,679.385141 610.227984,678.545141 C605.927984,677.145141 600.127984,679.245141 595.227984,678.745141 C593.527984,687.045141 584.427984,686.245141 582.127984,692.445141 C618.327984,689.045141 620.527984,712.545141 614.927984,744.645141 C679.227984,739.845141 757.227984,715.045141 741.527984,642.645141 C739.027984,635.445141 736.627984,628.245141 734.227984,621.045141 C726.527984,604.945141 711.827984,590.545141 698.227984,580.645141 C690.527984,575.045141 679.827984,568.245141 675.827984,558.945141 C668.427984,542.045141 693.727984,524.445141 701.227984,537.245141 C701.627984,537.545141 701.927984,537.845141 702.227984,538.145141 C699.227984,540.645141 697.127984,541.545141 695.327984,545.145141 C695.627984,551.845141 698.027984,554.145141 698.727984,561.045141 C701.027984,562.445141 701.427984,562.545141 705.027984,562.045141 C706.327984,571.145141 712.327984,574.345141 720.127984,576.545141 L720.127984,576.545141 L720.627984,576.545141 C718.827984,569.845141 717.127984,563.045141 715.327984,556.345141 C710.827984,529.845141 727.527984,511.045141 741.927984,501.045141 C747.927984,497.745141 754.027984,494.445141 760.027984,491.145141 C755.327984,483.145141 747.527984,477.445141 737.727984,473.445141 L737.727984,473.445141 L737.727984,153.545141 L433.027984,179.145141 C456.127984,165.545141 454.027984,128.645141 438.527984,112.945141 Z M448.927984,533.645141 C447.627984,531.945141 441.927984,536.145141 441.327984,535.945141 C434.627984,540.145141 408.427984,564.345141 409.627984,570.245141 C412.227984,570.545141 413.027984,570.145141 414.927984,568.845141 C417.622984,571.265141 418.049234,584.635641 417.887121,598.042441 L417.867183,599.50462 C417.708724,609.977081 417.227984,620.229141 417.227984,625.045141 C417.127984,666.745141 417.027984,708.345141 416.927984,749.945141 C416.927984,754.486141 416.978524,758.954941 416.984264,763.305586 L416.984476,764.675493 C416.964734,782.659471 415.996984,798.517141 407.227984,808.945141 C415.327984,809.945141 424.627984,808.945141 427.827984,802.545141 C430.427984,800.945141 430.427984,802.045141 433.527984,803.545141 C435.927984,802.645141 438.327984,801.845141 440.727984,801.045141 C442.727984,797.645141 442.827984,794.845141 441.227984,791.245141 C447.727984,788.645141 450.327984,786.245141 452.727984,779.745141 L452.727984,779.745141 L452.727984,776.845141 C435.527984,780.945141 441.327984,740.145141 441.327984,723.745141 C441.427984,679.545141 441.527984,635.245141 441.627984,590.945141 L441.627984,590.945141 L442.227984,544.145141 C444.427984,541.745141 445.527984,540.245141 447.727984,537.745141 C447.727984,537.445141 450.227984,535.345141 448.927984,533.645141 Z M550.527984,688.045141 C546.627984,690.445141 542.827984,692.845141 538.927984,695.245141 C540.427984,696.645141 543.027984,696.945141 545.227984,697.645141 C545.627984,698.445141 545.927984,699.245141 546.227984,700.045141 C543.927984,706.145141 540.627984,711.645141 532.727984,712.345141 C530.827984,712.245141 528.827984,712.045141 526.927984,711.845141 C524.627984,712.845141 521.527984,716.945141 518.727984,718.345141 C516.211317,719.578475 513.694651,720.825697 511.180299,722.07616 L507.410796,723.952954 C496.109234,729.582641 484.877984,735.170141 473.927984,739.745141 C471.127984,740.045141 468.227984,740.245141 465.327984,740.445141 C458.527984,744.545141 451.827984,748.545141 445.127984,752.645141 C445.127984,758.945141 445.327984,765.645141 445.827984,770.445141 C457.527984,764.945141 469.227984,759.345141 480.927984,753.745141 C485.927984,778.745141 503.327984,793.945141 527.427984,798.445141 C551.027984,802.845141 583.927984,796.345141 595.127984,781.245141 C603.727984,769.645141 604.027984,744.745141 589.927984,740.545141 C577.327984,736.845141 564.427984,753.645141 575.827984,758.245141 C575.427984,761.545141 572.827984,764.245141 572.927984,769.245141 C575.227984,770.845141 576.127984,772.245141 579.727984,772.645141 L579.727984,772.645141 L579.727984,777.045141 C576.981148,784.045141 568.267321,785.078149 559.430257,785.153098 L558.672629,785.157293 L558.672629,785.157293 L557.915215,785.157496 C557.66287,785.156977 557.410697,785.155909 557.158833,785.154409 L556.027984,785.145141 C573.027984,761.045141 547.327984,744.945141 539.227984,763.445141 C539.627984,765.445141 540.127984,767.545141 540.627984,769.645141 C543.527984,771.645141 545.727984,773.145141 549.827984,771.445141 C550.627984,772.245141 551.427984,772.945141 552.227984,773.745141 C551.727984,778.045141 549.227984,780.545141 545.927984,782.045141 C531.327984,789.245141 516.027984,764.645141 519.027984,748.445141 C522.627984,728.445141 535.327984,713.845141 550.927984,705.045141 C550.827984,699.445141 550.627984,693.745141 550.527984,688.045141 Z M393.927984,598.445141 C392.027984,595.645141 388.927984,594.945141 383.927984,595.345141 C377.847984,598.745141 368.023984,600.929141 357.873584,603.138741 L356.349003,603.470528 C341.595984,606.682661 326.515984,610.079141 321.527984,617.445141 C316.027984,625.445141 318.127984,643.845141 318.127984,656.445141 C318.027984,688.345141 318.027984,720.345141 317.927984,752.245141 C317.917984,753.785141 317.889984,755.357141 317.857184,756.944441 L317.837033,757.898524 C317.833614,758.057799 317.830173,758.217194 317.826724,758.376691 L317.806034,759.334779 C317.788884,760.133991 317.772184,760.934941 317.757584,761.735541 L317.733928,763.175792 C317.557044,775.486991 318.112984,787.418141 325.427984,791.345141 C333.827984,795.845141 347.027984,788.545141 354.927984,785.745141 C358.41113,784.509186 362.549181,783.415259 366.832362,782.248367 L367.862851,781.966802 C378.534637,779.040546 389.848209,775.559748 394.027984,768.245141 C398.227984,761.045141 396.527984,746.145141 396.527984,735.545141 C396.627984,720.545141 393.727984,694.845141 397.627984,682.045141 L397.627984,682.045141 L403.327984,673.345141 C403.127984,673.045141 403.027984,672.745141 402.827984,672.445141 C393.127984,671.245141 371.327984,683.845141 368.427984,690.145141 C368.227984,690.645141 368.127984,691.145141 367.927984,691.645141 C369.027984,691.845141 370.127984,692.045141 371.327984,692.345141 C371.427984,699.045141 371.627984,705.845141 371.727984,712.645141 C371.727984,735.845141 369.227984,741.945141 346.927984,743.645141 C342.589956,739.701479 342.29557,730.905447 342.512006,721.771203 L342.536989,720.791445 C342.568041,719.647365 342.605103,718.500519 342.641276,717.359724 L342.671902,716.383587 L342.671902,716.383587 L342.701126,715.411649 C342.710527,715.088506 342.719533,714.766268 342.727984,714.445141 C348.227984,718.145141 357.127984,726.445141 364.127984,715.745141 C370.727984,705.645141 362.927984,696.145141 353.227984,696.745141 C359.127984,678.545141 373.127984,664.545141 396.227984,662.845141 C399.027984,652.245141 397.827984,603.945141 393.927984,598.445141 Z M179.927984,527.245141 C170.427984,534.445141 161.627984,542.845141 151.027984,549.245141 C145.327984,552.745141 136.227984,554.245141 131.827984,559.045141 C132.427984,565.845141 137.627984,564.045141 142.127984,566.345141 C147.627984,569.845141 145.327984,601.945141 145.327984,612.745141 C145.327984,653.845141 145.227984,694.945141 145.227984,735.945141 C145.227984,748.445141 146.127984,776.145141 131.127984,771.145141 C119.827984,767.545141 123.227984,739.745141 123.227984,723.745141 C123.427984,679.045141 123.627984,634.245141 123.827984,589.545141 C125.527984,584.445141 131.227984,583.845141 133.627984,579.145141 C133.027984,574.845141 130.127984,572.345141 124.727984,573.645141 C114.787984,576.025141 97.5959839,569.242141 86.8033839,565.609841 L85.8942943,565.306504 C81.7279839,563.929621 78.6479839,563.113141 77.5279839,563.645141 C77.0279839,563.845141 76.6279839,564.045141 76.1279839,564.245141 C75.8279839,566.145141 75.5279839,568.145141 75.2279839,570.045141 C77.0279839,571.645141 80.9279839,571.545141 82.7279839,573.245141 C85.5009839,575.900141 85.9765239,588.127891 85.9003254,599.926434 L85.8907424,601.124417 C85.8169739,608.896621 85.5279839,616.333141 85.5279839,620.545141 C85.4279839,653.545141 85.4279839,686.445141 85.4279839,719.445141 C85.4279839,723.185141 85.5586639,727.365581 85.6390079,731.67554 L85.6595359,732.85396 C85.9003039,747.815381 85.3439839,763.985141 76.5279839,768.545141 L76.5279839,768.545141 L72.3279839,768.845141 C64.0599839,766.115141 63.3361439,751.460501 63.4178255,737.836491 L63.4255839,736.790741 C63.4559839,733.313141 63.5279839,729.925141 63.5279839,726.845141 C63.6279839,685.345141 63.6279839,643.745141 63.6279839,602.145141 C63.6279839,599.068141 63.4834839,595.817741 63.3138698,592.51431 L63.2531576,591.346387 C62.4247139,575.554991 61.3449839,558.881141 72.9279839,554.345141 C72.7279839,553.545141 72.6279839,552.745141 72.4279839,551.945141 C69.9279839,548.245141 59.7279839,548.545141 55.2279839,547.145141 C50.8279839,545.745141 45.6279839,542.845141 40.1279839,539.645141 L40.1279839,539.645141 Z M522.227984,549.645141 C507.627984,558.345141 480.827984,558.545141 468.327984,568.745141 C461.503539,574.336252 461.642404,586.687857 461.907464,598.907257 L461.929097,599.897593 C461.954343,601.05233 461.979065,602.204217 461.997475,603.34742 L462.011574,604.325045 C462.021811,605.137734 462.027984,605.945141 462.027984,606.745141 L462.027984,616.945141 C461.027984,619.745141 459.327984,620.245141 459.127984,624.945141 C459.327984,625.045141 459.427984,625.145141 459.627984,625.345141 C469.227984,622.045141 476.527984,614.845141 488.027984,612.345141 C488.727984,611.045141 488.927984,610.545141 489.027984,608.345141 C487.827984,607.445141 486.527984,606.645141 485.227984,605.745141 C482.227984,592.145141 495.227984,581.545141 507.927984,584.345141 C508.927984,584.945141 509.827984,585.445141 510.827984,586.045141 C512.127984,591.245141 511.827984,599.545141 511.727984,606.445141 C508.527984,605.245141 505.127984,603.045141 501.127984,605.345141 C497.927984,607.045141 496.927984,609.345141 495.827984,613.045141 C496.927984,615.745141 499.927984,617.645141 500.627984,619.445141 C505.227984,631.245141 469.527984,626.645141 465.027984,630.545141 C461.897428,632.717364 461.583308,639.379555 461.764672,645.915891 L461.790947,646.767364 C461.905762,650.167364 462.127984,653.478475 462.127984,656.045141 C462.127984,664.516141 461.314424,678.645081 461.030972,692.834668 L460.994996,694.814441 C460.699234,712.955641 461.372984,730.770141 465.827984,736.545141 C473.927984,737.645141 522.127984,713.945141 525.527984,707.645141 C533.427984,708.945141 538.927984,708.645141 542.427984,700.945141 C531.935984,696.301141 533.425504,683.447581 533.921001,669.063049 L533.953795,668.057077 C534.015504,666.040501 534.051984,663.997141 534.027984,661.945141 C534.127984,635.745141 534.127984,609.545141 534.227984,583.345141 C534.227984,581.213798 534.276101,578.986219 534.327523,576.727329 L534.353301,575.595574 C534.357574,575.406614 534.361818,575.217511 534.366008,575.028304 L534.390278,573.892103 C534.394144,573.702627 534.397904,573.513121 534.40153,573.323623 L534.421492,572.187033 C534.562134,563.289205 534.295148,554.574992 530.927984,549.945141 L530.927984,549.945141 Z M625.127984,531.945141 C620.927984,526.345141 604.127984,526.545141 594.127984,527.645141 C588.927984,529.045141 583.827984,530.445141 578.627984,531.845141 C574.927984,533.545141 571.127984,538.445141 567.927984,539.545141 C564.366694,540.783851 561.299888,540.419231 558.547755,540.1392 L558.091949,540.093601 C557.865472,540.071482 557.641111,540.050602 557.418761,540.031938 L556.976714,539.997852 C553.314826,539.743245 550.1925,540.284926 547.127984,546.145141 C549.027984,546.445141 551.027984,546.845141 552.927984,547.145141 C558.927984,556.045141 555.227984,582.345141 555.227984,596.345141 L555.227984,596.345141 L554.927984,721.445141 L554.927984,721.445141 L555.427984,721.445141 C563.827984,714.845141 563.827984,708.145141 567.527984,696.545141 C568.537359,696.070141 569.672081,695.822333 570.824389,695.650541 L571.188735,695.598642 C571.614194,695.540629 572.0405,695.490774 572.462265,695.441517 L572.82254,695.399267 C576.770562,694.932251 580.177984,694.326391 578.527984,687.245141 C584.227984,684.545141 586.527984,684.345141 590.627984,680.945141 C590.827984,680.445141 590.927984,679.945141 591.127984,679.445141 C579.027984,679.045141 580.527984,666.645141 580.527984,653.345141 C580.627984,637.045141 577.227984,585.045141 584.627984,577.245141 C588.527984,573.145141 596.027984,574.145141 600.627984,575.445141 C604.627984,582.045141 605.627984,645.745141 603.327984,659.445141 C602.227984,666.145141 596.227984,670.345141 597.027984,675.145141 C600.827984,675.845141 605.527984,673.445141 610.127984,674.645141 C616.227984,677.845141 622.427984,681.145141 628.527984,684.445141 C633.527984,685.645141 640.027984,684.045141 639.227984,679.245141 L639.227984,679.245141 L631.427984,672.045141 C627.927984,663.245141 629.127984,649.245141 629.127984,637.445141 C629.227984,605.745141 634.427984,554.745141 625.127984,531.945141 Z M363.327984,627.945141 C366.827984,627.845141 368.127984,628.445141 370.427984,629.345141 C371.727984,633.045141 371.927984,638.545141 371.827984,644.245141 C365.527984,653.145141 358.327984,661.745141 352.727984,671.445141 L352.727984,671.445141 L343.127984,693.045141 L343.127984,693.045141 L343.127984,694.045141 C340.627984,688.045141 342.327984,639.845141 344.727984,636.245141 C346.961946,632.864009 351.018621,631.743041 355.24725,630.659215 L356.04173,630.45589 C358.561412,629.809969 361.105342,629.12816 363.327984,627.945141 Z M510.827984,619.945141 C514.027984,623.345141 511.727984,639.745141 511.827984,645.645141 C511.727984,673.145141 516.727984,691.345141 488.127984,693.345141 C481.327984,686.945141 484.627984,659.845141 484.827984,646.845141 C487.661317,643.845141 491.127984,641.400697 494.613169,638.959956 L495.38771,638.417406 L495.38771,638.417406 L496.16136,637.873632 C502.60058,633.333344 508.790947,628.525388 510.827984,619.945141 Z M596.227984,666.445141 C595.386747,666.939987 594.0374,667.471563 592.585877,668.050472 L592.221102,668.196192 C591.854669,668.34291 591.483963,668.492642 591.115329,668.645553 L590.747619,668.799529 C586.898852,670.427541 583.511489,672.412152 587.927984,674.945141 C589.127984,675.845141 590.727984,675.745141 593.327984,675.445141 C591.927984,671.145141 595.527984,668.445141 596.227984,666.445141 Z M646.727984,654.645141 C642.327984,654.745141 638.027984,654.945141 633.627984,655.145141 C633.927984,659.445141 634.227984,663.845141 634.527984,668.245141 L634.527984,668.245141 L635.027984,668.245141 C636.627984,662.745141 641.027984,657.845141 646.227984,655.645141 C646.327984,655.345141 646.527984,654.945141 646.727984,654.645141 Z M638.327984,557.345141 C653.427984,551.545141 662.427984,517.745141 638.427984,520.545141 L638.427984,520.545141 L633.027984,522.945141 C628.727984,529.045141 626.627984,540.345141 636.427984,541.345141 C635.927984,543.545141 635.327984,544.545141 635.927984,546.745141 C637.027984,549.245141 638.127984,549.945141 641.727984,549.745141 C641.227984,553.245141 639.727984,554.645141 638.327984,557.345141 Z M112.327984,379.345141 C116.327984,379.045141 120.127984,378.945141 123.627984,379.245141 C127.227984,379.545141 131.527984,380.045141 136.727984,380.845141 L136.727984,380.845141 L132.127984,414.345141 L112.427984,414.745141 C110.727984,414.745141 109.227984,415.045141 107.927984,415.545141 C106.627984,416.045141 105.327984,416.945141 104.127984,418.345141 C102.927984,419.745141 101.827984,421.545141 101.027984,423.745141 C100.227984,425.945141 99.5279839,428.945141 99.0279839,432.545141 C98.5279839,436.145141 98.2279839,440.445141 98.3279839,445.445141 C98.3279839,450.345141 98.6279839,454.645141 99.0279839,458.145141 C99.4279839,461.645141 100.027984,464.545141 100.827984,466.645141 C101.627984,468.745141 102.627984,470.445141 103.827984,471.545141 C105.127984,472.645141 106.327984,473.345141 107.727984,473.645141 C109.027984,473.945141 110.627984,473.945141 112.527984,473.645141 L112.527984,473.645141 L132.227984,470.645141 L136.627984,503.645141 C128.127984,505.945141 119.927984,507.445141 112.027984,508.145141 C107.827984,508.545141 104.027984,508.745141 100.527984,508.745141 C97.1279839,508.745141 93.6279839,508.545141 90.2279839,508.145141 C86.8279839,507.745141 83.7279839,507.045141 80.9279839,506.145141 C78.1279839,505.245141 75.5279839,504.045141 72.9279839,502.445141 C70.3279839,500.845141 68.1279839,498.945141 66.1279839,496.745141 C64.1279839,494.445141 62.3279839,491.845141 60.7279839,488.845141 C59.1279839,485.845141 57.7279839,482.445141 56.7279839,478.545141 C55.6279839,474.645141 54.9279839,470.345141 54.3279839,465.445141 C53.8279839,460.645141 53.5279839,455.245141 53.5279839,449.445141 C53.5279839,439.645141 54.4279839,430.945141 56.2279839,423.345141 C58.0279839,415.745141 60.6279839,409.345141 63.8279839,404.145141 C67.1279839,398.945141 71.2279839,394.545141 76.1279839,391.045141 C81.0279839,387.545141 86.4279839,384.845141 92.3279839,383.045141 C98.1279839,381.245141 104.827984,379.945141 112.327984,379.345141 Z M190.927984,372.645141 C197.827984,372.045141 204.027984,371.945141 209.427984,372.445141 C214.827984,372.845141 219.827984,373.945141 224.327984,375.645141 C228.827984,377.345141 232.727984,379.645141 235.927984,382.745141 C239.127984,385.845141 241.827984,389.645141 244.027984,394.245141 C246.227984,398.845141 247.927984,404.245141 248.927984,410.545141 C250.027984,416.845141 250.527984,424.045141 250.527984,432.145141 C250.527984,442.345141 249.427984,451.545141 247.127984,459.745141 C244.827984,467.845141 241.627984,474.845141 237.327984,480.545141 C233.027984,486.245141 227.927984,490.845141 221.927984,494.245141 C215.827984,497.645141 209.127984,499.845141 201.527984,500.945141 C194.627984,501.545141 188.427984,501.645141 183.027984,501.145141 C177.627984,500.645141 172.627984,499.645141 168.127984,497.945141 C163.627984,496.245141 159.827984,493.845141 156.627984,490.845141 C153.427984,487.745141 150.727984,483.945141 148.527984,479.345141 C146.327984,474.745141 144.727984,469.345141 143.727984,463.045141 C142.727984,456.845141 142.227984,449.645141 142.227984,441.445141 C142.227984,431.245141 143.427984,422.045141 145.627984,413.945141 C147.927984,405.745141 151.127984,398.745141 155.327984,393.045141 C159.527984,387.345141 164.627984,382.745141 170.627984,379.345141 C176.627984,375.945141 183.427984,373.645141 190.927984,372.645141 Z M391.327984,356.545141 C391.927984,356.545141 392.427984,356.645141 392.827984,357.045141 C393.227984,357.445141 393.427984,357.845141 393.427984,358.445141 C393.913278,383.971612 394.210164,403.845833 394.227208,418.067806 L394.227262,421.378074 C394.213715,440.401978 394.007294,460.821003 393.427984,482.545141 C387.327984,483.345141 381.927984,484.045141 377.027984,484.445141 C372.627984,484.845141 366.127984,485.245141 357.427984,485.745141 C356.827984,485.745141 356.327984,485.645141 355.927984,485.245141 C355.527984,484.845141 355.327984,484.445141 355.327984,483.845141 C355.227984,479.945141 355.027984,474.045141 354.827984,466.245141 C354.627984,458.445141 354.427984,451.345141 354.327984,444.945141 C354.127984,438.545141 354.027984,432.445141 354.027984,426.545141 L354.027984,426.545141 L329.827984,477.645141 L327.527984,478.245141 L325.427984,478.045141 L302.427984,433.445141 L303.127984,490.545141 C296.427984,491.445141 290.627984,492.145141 285.627984,492.545141 C280.527984,493.045141 273.627984,493.445141 264.927984,493.945141 C264.327984,494.045141 263.827984,493.845141 263.427984,493.445141 C263.027984,493.045141 262.827984,492.645141 262.827984,492.045141 C262.227984,465.645141 261.927984,445.245141 261.927984,430.945141 C261.927984,411.245141 262.227984,390.145141 262.827984,367.645141 C269.527984,366.745141 275.327984,366.045141 280.327984,365.645141 C286.327984,365.145141 292.427984,364.745141 298.727984,364.545141 C299.727984,364.445141 300.527984,365.145141 301.027984,366.445141 L301.027984,366.445141 L327.727984,418.045141 L354.327984,361.845141 C355.327984,360.445141 356.227984,359.645141 356.927984,359.545141 C361.327984,358.845141 366.227984,358.245141 371.727984,357.745141 C377.627984,357.245141 384.227984,356.845141 391.327984,356.545141 Z M491.327984,347.945141 C491.927984,347.845141 492.427984,348.045141 492.827984,348.445141 C493.227984,348.845141 493.427984,349.245141 493.427984,349.845141 C493.522984,357.920141 493.617984,363.738891 493.627246,367.387129 L493.627984,367.945141 C493.627984,373.445141 493.527984,378.645141 493.427984,383.445141 C487.427984,384.245141 476.227984,385.445141 459.827984,386.845141 C456.927984,387.045141 454.227984,387.245141 451.827984,387.445141 C451.727984,392.245141 451.627984,395.945141 451.627984,398.445141 C464.227984,397.445141 472.627984,396.845141 476.927984,396.645141 C477.527984,396.545141 478.027984,396.745141 478.427984,397.145141 C478.827984,397.545141 479.027984,397.945141 479.027984,398.545141 C479.127984,404.245141 479.227984,409.545141 479.227984,414.345141 C479.227984,418.645141 479.127984,423.345141 479.027984,428.345141 L479.027984,428.345141 L451.627984,430.745141 C451.727984,433.145141 451.727984,436.845141 451.827984,441.645141 L451.827984,441.645141 L454.327984,441.445141 C471.627984,439.945141 484.027984,438.945141 491.727984,438.545141 C492.327984,438.445141 492.827984,438.645141 493.227984,439.045141 C493.627984,439.445141 493.827984,439.845141 493.827984,440.445141 C493.998716,447.786605 494.023701,453.233363 494.027357,456.909833 L494.027984,458.645141 C494.027984,464.145141 493.927984,469.345141 493.827984,474.145141 C487.127984,475.045141 475.127984,476.345141 457.627984,477.845141 C454.127984,478.145141 446.727984,478.645141 435.327984,479.445141 C423.927984,480.245141 416.327984,480.745141 412.627984,480.945141 C412.027984,481.045141 411.527984,480.845141 411.127984,480.445141 C410.727984,480.045141 410.527984,479.645141 410.527984,479.045141 C410.027984,452.745141 409.727984,432.445141 409.727984,418.145141 C409.727984,398.445141 409.927984,377.445141 410.527984,354.945141 C417.227984,354.045141 431.827984,352.645141 454.427984,350.645141 C470.427984,349.245141 482.727984,348.345141 491.327984,347.945141 Z M547.627984,341.645141 C555.027984,340.945141 561.627984,341.045141 567.427984,341.845141 C573.227984,342.545141 578.527984,344.345141 583.427984,346.945141 C588.327984,349.645141 592.327984,353.245141 595.527984,357.845141 C598.627984,362.445141 601.127984,368.345141 602.927984,375.545141 C604.727984,382.745141 605.627984,391.245141 605.627984,400.945141 C605.627984,406.645141 605.327984,412.045141 604.827984,416.945141 C604.327984,421.845141 603.527984,426.345141 602.527984,430.345141 C601.527984,434.345141 600.227984,437.945141 598.627984,441.245141 C597.027984,444.545141 595.227984,447.445141 593.327984,449.945141 C591.327984,452.445141 589.127984,454.745141 586.627984,456.745141 C584.127984,458.745141 581.427984,460.445141 578.727984,461.845141 C576.027984,463.245141 573.027984,464.445141 569.627984,465.445141 C566.227984,466.445141 562.827984,467.245141 559.427984,467.845141 C556.027984,468.545141 552.227984,468.945141 548.127984,469.345141 C546.727984,469.445141 545.127984,469.545141 543.527984,469.645141 C541.927984,469.645141 540.427984,469.745141 539.227984,469.845141 C538.027984,469.945141 536.327984,470.045141 534.227984,470.045141 C532.127984,470.045141 530.527984,470.145141 529.627984,470.145141 C528.727984,470.235141 527.260984,470.244141 525.081184,470.245041 L508.527984,470.245141 C507.927984,470.245141 507.427984,470.145141 507.027984,469.745141 C506.627984,469.345141 506.427984,468.945141 506.427984,468.345141 L506.427984,468.345141 L506.427448,467.498506 C506.419473,461.022326 506.323729,451.70046 506.227984,439.445141 C506.127984,426.645141 506.027984,416.645141 506.127984,409.745141 C506.127984,402.745141 506.227984,392.545141 506.327984,379.245141 C506.423729,366.511099 506.519473,356.61884 506.527448,349.656134 L506.527984,348.745141 C522.027984,345.045141 535.827984,342.645141 547.627984,341.645141 Z M198.727984,408.945141 C198.027984,408.745141 197.127984,408.745141 196.027984,408.845141 C194.927984,408.945141 194.027984,409.145141 193.327984,409.445141 C192.627984,409.745141 191.827984,410.245141 191.127984,410.945141 C190.427984,411.745141 189.827984,412.745141 189.327984,414.045141 C188.827984,415.445141 188.427984,417.045141 188.027984,419.145141 C187.627984,421.145141 187.327984,423.745141 186.927984,426.745141 C186.727984,429.845141 186.627984,433.445141 186.627984,437.545141 C186.627984,442.445141 186.827984,446.645141 187.127984,450.045141 C187.527984,453.445141 187.927984,456.145141 188.427984,458.045141 C188.927984,459.945141 189.627984,461.445141 190.527984,462.445141 C191.427984,463.445141 192.327984,464.145141 193.227984,464.345141 C194.127984,464.645141 195.227984,464.645141 196.527984,464.545141 C197.827984,464.345141 198.827984,464.145141 199.727984,463.745141 C200.627984,463.345141 201.427984,462.645141 202.327984,461.445141 C203.227984,460.245141 203.827984,458.645141 204.327984,456.645141 C204.827984,454.545141 205.227984,451.845141 205.527984,448.345141 C205.827984,444.845141 206.027984,440.645141 206.027984,435.745141 C206.027984,431.645141 205.927984,428.145141 205.727984,425.045141 C205.527984,422.045141 205.227984,419.545141 204.727984,417.545141 C204.227984,415.545141 203.727984,413.945141 203.227984,412.745141 C202.627984,411.545141 201.927984,410.645141 201.127984,410.045141 C200.327984,409.445141 199.527984,409.145141 198.727984,408.945141 Z M693.027984,330.045141 C701.227984,329.245141 708.627984,329.045141 715.027984,329.245141 C709.527984,353.245141 703.727984,371.545141 697.527984,384.145141 C693.227984,391.945141 687.527984,399.045141 680.627984,405.345141 C680.927984,428.345141 681.027984,445.645141 681.127984,457.045141 C674.427984,457.945141 668.227984,458.645141 662.327984,459.145141 C656.227984,459.745141 648.927984,460.245141 640.327984,460.645141 C639.727984,460.645141 639.227984,460.545141 638.827984,460.145141 C638.427984,459.745141 638.227984,459.345141 638.227984,458.745141 C638.227984,458.59657 638.228004,458.446733 638.228045,458.295631 L638.228963,456.901568 C638.239739,446.42808 638.339412,430.447998 638.527984,409.045141 C631.427984,403.845141 625.727984,397.745141 621.427984,390.745141 C615.327984,379.345141 609.527984,362.045141 604.027984,338.845141 C610.427984,337.445141 617.827984,336.445141 626.027984,335.745141 C632.027984,335.245141 637.627984,334.945141 642.927984,334.845141 C643.527984,334.845141 644.227984,335.045141 644.827984,335.345141 C645.527984,335.745141 645.927984,336.145141 646.127984,336.745141 C649.427984,346.645141 653.927984,361.445141 659.527984,381.245141 C664.927984,361.245141 669.427984,345.645141 673.027984,334.445141 C673.327984,333.845141 673.727984,333.245141 674.327984,332.845141 C674.927984,332.445141 675.527984,332.145141 676.227984,332.045141 C681.427984,331.245141 687.127984,330.545141 693.027984,330.045141 Z M554.927984,377.945141 C554.127984,377.745141 553.027984,377.645141 551.727984,377.745141 L551.727984,377.745141 L548.227984,378.145141 C547.927984,389.745141 547.827984,399.045141 547.827984,405.945141 C547.827984,414.345141 548.027984,423.545141 548.227984,433.645141 L548.227984,433.645141 L551.827984,433.345141 C552.827984,433.245141 553.727984,433.045141 554.527984,432.745141 C555.227984,432.445141 556.027984,431.945141 556.827984,431.245141 C557.627984,430.545141 558.327984,429.545141 558.827984,428.245141 C559.327984,426.845141 559.827984,425.145141 560.227984,423.145141 C560.627984,421.045141 560.927984,418.545141 561.127984,415.445141 C561.327984,412.345141 561.427984,408.745141 561.427984,404.645141 C561.427984,399.745141 561.227984,395.645141 560.927984,392.245141 C560.527984,388.845141 560.127984,386.145141 559.627984,384.245141 C559.127984,382.345141 558.427984,380.845141 557.527984,379.845141 C556.627984,378.845141 555.827984,378.145141 554.927984,377.945141 Z M114.027984,230.345141 C118.227984,229.945141 122.227984,229.945141 125.927984,230.245141 C129.627984,230.545141 134.227984,231.145141 139.827984,231.745141 L139.827984,231.745141 L134.927984,267.145141 L114.127984,267.545141 C112.427984,267.645141 110.827984,267.945141 109.427984,268.445141 C108.027984,269.045141 106.627984,269.945141 105.327984,271.445141 C104.027984,272.845141 102.927984,274.745141 102.027984,277.145141 C101.127984,279.545141 100.427984,282.645141 99.9279839,286.445141 C99.4279839,290.245141 99.1279839,294.745141 99.1279839,299.945141 C99.1279839,305.145141 99.3279839,309.645141 99.8279839,313.345141 C100.227984,317.045141 100.927984,320.045141 101.727984,322.345141 C102.527984,324.645141 103.627984,326.345141 104.927984,327.545141 C106.227984,328.645141 107.627984,329.445141 109.027984,329.745141 C110.427984,330.045141 112.127984,330.045141 114.127984,329.745141 L114.127984,329.745141 L134.927984,326.645141 L139.527984,361.545141 C130.527984,363.945141 121.827984,365.545141 113.527984,366.245141 C109.127984,366.645141 105.127984,366.845141 101.427984,366.845141 C97.7279839,366.845141 94.1279839,366.645141 90.5279839,366.145141 C86.9279839,365.745141 83.6279839,365.045141 80.7279839,364.045141 C77.7279839,363.045141 74.9279839,361.745141 72.2279839,360.045141 C69.5279839,358.345141 67.1279839,356.345141 65.0279839,354.045141 C62.9279839,351.745141 61.0279839,348.945141 59.3279839,345.745141 C57.6279839,342.545141 56.2279839,338.945141 55.1279839,334.845141 C54.0279839,330.845141 53.2279839,326.145141 52.6279839,321.045141 C52.0279839,315.945141 51.7279839,310.345141 51.7279839,304.145141 C51.7279839,293.845141 52.7279839,284.645141 54.6279839,276.645141 C56.5279839,268.645141 59.2279839,261.945141 62.6279839,256.445141 C66.1279839,250.945141 70.4279839,246.345141 75.6279839,242.645141 C80.9279839,238.945141 86.6279839,236.145141 92.8279839,234.245141 C99.0279839,232.345141 106.127984,231.045141 114.027984,230.345141 Z M254.627984,220.045141 C255.227984,219.945141 255.827984,220.145141 256.227984,220.545141 C256.727984,220.945141 256.927984,221.445141 256.927984,222.045141 C257.511317,249.170141 257.811086,270.245759 257.827289,285.271993 L257.827984,286.545141 C257.827984,307.345141 257.527984,329.645141 256.927984,353.445141 C249.827984,354.345141 243.227984,355.145141 237.227984,355.645141 C231.027984,356.145141 223.327984,356.645141 214.127984,357.145141 C213.527984,357.245141 213.027984,357.045141 212.527984,356.645141 C212.027984,356.245141 211.827984,355.745141 211.827984,355.145141 C211.527984,345.345141 211.427984,330.545141 211.327984,310.545141 L211.327984,310.545141 L196.427984,311.845141 L196.427984,311.845141 L196.427135,314.02514 C196.412747,332.417231 196.216663,347.294198 195.927984,358.745141 C188.827984,359.645141 182.227984,360.445141 176.227984,360.945141 C170.027984,361.445141 162.327984,361.945141 153.127984,362.445141 C152.527984,362.545141 152.027984,362.345141 151.527984,361.945141 C151.027984,361.545141 150.827984,361.045141 150.827984,360.445141 C150.227984,332.545141 149.927984,311.045141 149.927984,295.845141 C149.927984,275.045141 150.227984,252.745141 150.827984,228.845141 C157.927984,227.845141 164.527984,227.145141 170.527984,226.645141 C176.727984,226.145141 184.427984,225.645141 193.627984,225.245141 C194.227984,225.145141 194.727984,225.345141 195.227984,225.745141 C195.727984,226.145141 195.927984,226.645141 195.927984,227.245141 C196.227984,240.845141 196.427984,256.445141 196.427984,274.045141 L196.427984,274.045141 L211.327984,272.745141 C211.327984,252.445141 211.527984,236.145141 211.827984,223.645141 C218.927984,222.645141 225.527984,221.945141 231.527984,221.445141 C237.727984,220.945141 245.427984,220.445141 254.627984,220.045141 Z M360.627984,211.045141 C361.227984,210.945141 361.827984,211.145141 362.227984,211.545141 C362.727984,211.945141 362.927984,212.445141 362.927984,213.045141 C363.023222,221.61657 363.11846,227.829722 363.127314,231.684597 L363.127984,232.245141 C363.127984,238.145141 363.027984,243.545141 362.927984,248.645141 C356.627984,249.545141 344.827984,250.645141 327.327984,252.145141 C324.227984,252.445141 321.327984,252.645141 318.827984,252.845141 C318.727984,257.945141 318.627984,261.845141 318.627984,264.545141 C332.027984,263.445141 341.027984,262.845141 345.527984,262.645141 C346.127984,262.545141 346.727984,262.745141 347.127984,263.145141 C347.627984,263.545141 347.827984,264.045141 347.827984,264.645141 C347.927984,270.645141 348.027984,276.245141 348.027984,281.345141 C348.027984,285.945141 347.927984,290.945141 347.827984,296.245141 L347.827984,296.245141 L318.727984,298.745141 C318.827984,301.345141 318.827984,305.245141 318.927984,310.345141 L318.927984,310.345141 L321.627984,310.145141 C339.927984,308.545141 353.227984,307.545141 361.327984,307.145141 C361.927984,307.045141 362.527984,307.245141 362.927984,307.645141 C363.427984,308.045141 363.627984,308.545141 363.627984,309.145141 C363.727984,318.145141 363.827984,324.545141 363.727984,328.245141 C363.727984,334.145141 363.627984,339.545141 363.527984,344.645141 C356.427984,345.545141 343.527984,346.845141 325.027984,348.445141 C321.227984,348.745141 313.427984,349.345141 301.327984,350.145141 C289.227984,350.945141 281.227984,351.445141 277.227984,351.645141 C276.627984,351.745141 276.027984,351.545141 275.627984,351.145141 C275.127984,350.745141 274.927984,350.245141 274.927984,349.645141 C274.327984,321.845141 274.027984,300.245141 274.027984,285.145141 C274.027984,264.345141 274.327984,242.045141 274.927984,218.245141 C282.027984,217.345141 297.627984,215.845141 321.527984,213.845141 C338.427984,212.445141 351.427984,211.445141 360.627984,211.045141 Z M436.827984,203.445141 C440.527984,203.245141 444.427984,203.345141 448.727984,203.545141 C452.927984,203.745141 456.427984,204.345141 459.227984,205.145141 C462.027984,205.945141 464.727984,207.145141 467.527984,208.845141 C470.227984,210.445141 472.427984,212.545141 473.927984,215.145141 C475.527984,217.745141 476.727984,220.945141 477.727984,224.745141 C478.727984,228.645141 479.227984,233.045141 479.227984,238.145141 C479.227984,246.145141 477.127984,253.345141 472.927984,259.845141 C468.727984,266.245141 462.927984,271.545141 455.527984,275.745141 C460.527984,277.045141 464.627984,280.245141 467.827984,285.345141 C475.227984,299.145141 481.127984,315.345141 485.527984,333.745141 C478.627984,335.145141 470.827984,336.145141 462.127984,336.945141 C455.827984,337.545141 449.827984,337.845141 444.227984,337.945141 C443.527984,337.945141 442.827984,337.845141 442.127984,337.445141 C441.527984,337.145141 441.027984,336.645141 440.827984,336.045141 C433.627984,314.745141 427.927984,297.545141 423.927984,284.445141 L423.927984,284.445141 L420.927984,284.745141 C420.927984,288.945141 421.127984,297.445141 421.427984,310.245141 C421.727984,323.045141 421.927984,332.745141 421.927984,339.345141 C415.827984,340.145141 409.327984,340.845141 402.327984,341.445141 C396.027984,342.045141 388.427984,342.545141 379.427984,343.045141 C378.827984,343.145141 378.227984,342.945141 377.827984,342.545141 C377.427984,342.145141 377.227984,341.645141 377.227984,341.045141 L377.227984,341.045141 L377.227138,339.900882 C377.21727,332.954229 377.122627,322.325498 377.027984,307.845141 C376.933539,293.395141 376.839095,282.423845 376.828893,274.931252 L376.828086,274.06582 L376.828086,274.06582 L376.827984,273.645141 C376.827984,266.245141 376.927984,255.945141 377.027984,242.845141 C377.123438,230.340596 377.218893,220.38729 377.227373,213.072198 L377.227984,212.045141 C384.627984,210.245141 392.627984,208.645141 401.027984,207.245141 C409.427984,205.845141 416.827984,204.845141 423.127984,204.345141 C428.527984,203.845141 433.127984,203.545141 436.827984,203.445141 Z M554.127984,193.545141 C557.827984,193.345141 561.827984,193.445141 566.027984,193.645141 C570.327984,193.845141 573.827984,194.445141 576.527984,195.245141 C579.227984,196.045141 582.027984,197.245141 584.727984,198.945141 C587.427984,200.545141 589.627984,202.645141 591.127984,205.245141 C592.727984,207.845141 593.927984,211.045141 594.927984,214.845141 C595.827984,218.645141 596.327984,223.045141 596.527984,228.145141 C596.527984,236.145141 594.527984,243.445141 590.327984,249.845141 C586.127984,256.245141 580.327984,261.545141 572.927984,265.645141 C577.927984,266.945141 582.027984,270.145141 585.227984,275.245141 C592.627984,289.045141 598.527984,305.145141 602.927984,323.545141 C596.127984,324.945141 588.327984,325.945141 579.627984,326.745141 C573.327984,327.345141 567.327984,327.645141 561.727984,327.745141 C561.027984,327.745141 560.327984,327.545141 559.627984,327.245141 C559.027984,326.945141 558.527984,326.445141 558.327984,325.845141 C551.027984,304.645141 545.427984,287.445141 541.427984,274.345141 L541.427984,274.345141 L538.427984,274.645141 C538.427984,278.745141 538.627984,287.245141 538.927984,300.045141 C539.227984,312.845141 539.427984,322.545141 539.427984,329.145141 C533.327984,329.945141 526.727984,330.645141 519.827984,331.245141 C513.527984,331.845141 505.927984,332.345141 497.027984,332.845141 C496.427984,332.945141 495.827984,332.745141 495.427984,332.345141 C495.027984,331.945141 494.827984,331.445141 494.827984,330.845141 L494.827984,330.845141 L494.827138,329.715293 C494.81727,322.844089 494.722627,312.130856 494.627984,297.745141 C494.533539,283.389586 494.439095,272.423536 494.428893,264.931235 L494.428086,264.06582 L494.428086,264.06582 L494.427984,263.645141 C494.427984,256.245141 494.527984,245.945141 494.627984,232.845141 C494.723539,220.231808 494.819095,210.357734 494.8274,203.048418 L494.827984,202.045141 C502.227984,200.345141 510.127984,198.745141 518.527984,197.345141 C526.927984,195.945141 534.227984,194.945141 540.527984,194.445141 C545.927984,193.945141 550.427984,193.645141 554.127984,193.545141 Z M693.627984,182.545141 C702.227984,181.845141 710.027984,181.545141 716.827984,181.745141 C711.027984,207.045141 704.827984,226.445141 698.327984,239.745141 C693.727984,248.045141 687.727984,255.545141 680.427984,262.145141 C680.727984,286.545141 680.927984,304.745141 681.027984,316.845141 C673.927984,317.745141 667.327984,318.545141 661.127984,319.045141 C654.727984,319.545141 647.027984,320.045141 637.927984,320.545141 C637.327984,320.645141 636.727984,320.445141 636.327984,320.045141 C635.827984,319.645141 635.627984,319.145141 635.627984,318.545141 C635.627984,318.393086 635.628003,318.239831 635.62804,318.085374 L635.628885,316.66282 C635.639243,305.507817 635.738943,288.630073 635.927984,265.945141 C628.527984,260.445141 622.527984,254.045141 617.927984,246.645141 C611.527984,234.545141 605.327984,216.245141 599.427984,191.745141 C606.227984,190.345141 614.027984,189.245141 622.727984,188.545141 C629.027984,188.045141 634.927984,187.745141 640.527984,187.645141 C641.227984,187.645141 641.927984,187.845141 642.627984,188.145141 C643.227984,188.445141 643.727984,188.945141 643.927984,189.545141 C647.427984,200.045141 652.127984,215.745141 658.127984,236.645141 C663.927984,215.445141 668.627984,198.945141 672.427984,187.145141 C672.627984,186.445141 673.027984,185.945141 673.727984,185.445141 C674.427984,185.045141 675.127984,184.745141 675.827984,184.645141 C681.427984,183.745141 687.327984,183.045141 693.627984,182.545141 Z M434.227984,238.545141 C432.727984,236.845141 430.127984,236.245141 426.327984,236.545141 C424.327984,236.645141 422.527984,236.945141 420.927984,237.145141 C420.849196,243.999687 420.832483,249.612726 420.828938,254.033168 L420.828006,256.451455 C420.827984,256.756344 420.827984,257.054232 420.827984,257.345141 L420.827984,257.345141 L424.627984,257.045141 C428.227984,256.745141 431.027984,255.545141 433.227984,253.645141 C435.427984,251.645141 436.527984,249.245141 436.427984,246.445141 C436.427984,242.845141 435.727984,240.145141 434.227984,238.545141 Z M551.527984,228.645141 C550.027984,226.945141 547.427984,226.345141 543.627984,226.645141 C541.727984,226.745141 539.927984,227.045141 538.327984,227.245141 C538.249196,234.020899 538.232483,239.617226 538.228938,244.034122 L538.228006,246.451477 C538.227984,246.756344 538.227984,247.054232 538.227984,247.345141 L538.227984,247.345141 L542.027984,247.045141 C545.527984,246.745141 548.327984,245.545141 550.527984,243.645141 C552.727984,241.745141 553.827984,239.245141 553.727984,236.545141 C553.727984,232.945141 553.027984,230.245141 551.527984,228.645141 Z M493.827984,146.445141 L492.027984,158.745141 C494.727984,161.445141 497.527984,164.245141 500.227984,166.945141 L500.227984,166.945141 L513.727984,165.745141 C507.027984,159.245141 500.427984,152.845141 493.827984,146.445141 L493.827984,146.445141 Z M335.827984,91.1451413 C325.327984,84.9451413 307.727984,78.1451413 296.427984,93.3451413 C294.927984,95.3451413 285.827984,112.145141 288.027984,128.145141 C290.227984,144.345141 308.127984,157.645141 312.527984,159.745141 C334.227984,169.945141 358.927984,155.945141 358.927984,155.945141 C358.927984,155.945141 356.027984,141.845141 359.927984,131.345141 C365.027984,117.445141 375.827984,113.845141 375.827984,113.845141 C375.827984,113.845141 374.927984,101.345141 366.027984,95.8451413 C358.706334,91.3554506 349.714848,90.6348214 344.853442,90.6185242 L344.429287,90.6188661 C342.502859,90.628487 341.327984,90.7451413 341.327984,90.7451413 L341.327984,90.7451413 L344.627984,97.3451413 C344.627984,97.3451413 341.127984,94.2451413 335.827984,91.1451413 Z M409.727984,8.74514129 C402.827984,2.34514129 394.827984,15.4451413 394.827984,15.4451413 C394.827984,15.4451413 375.027984,20.9451413 356.227984,42.1451413 C338.783984,61.8431413 335.745984,84.8065013 335.631441,85.7171565 L335.627984,85.7451413 L343.327984,86.7451413 C343.327984,86.7451413 348.427984,65.7451413 360.327984,50.8451413 C371.889984,36.4631413 389.460464,27.3827413 391.527298,26.3448685 L391.637961,26.2895701 C391.697424,26.2600213 391.727984,26.2451413 391.727984,26.2451413 C391.727984,26.2451413 391.702234,26.2951413 391.653309,26.3925788 L391.540771,26.6186453 C390.145904,29.4419413 381.427984,47.8051413 381.427984,65.7451413 C381.427984,88.3451413 391.727984,110.945141 391.727984,110.945141 L391.727984,110.945141 L399.427984,108.845141 L399.427984,108.845141 L399.400757,108.782663 C398.820154,107.443481 389.157984,84.8211413 390.127984,64.6451413 C391.073984,46.0691413 400.303504,29.4161013 402.869228,25.1173397 L403.037232,24.8376021 C403.350864,24.3187413 403.527984,24.0451413 403.527984,24.0451413 C403.527984,24.0451413 417.227984,15.6451413 409.727984,8.74514129 Z M417.327984,19.4451413 L437.427984,54.3451413 L410.727984,24.5451413 C410.727984,24.5451413 408.127984,49.2451413 421.027984,63.5451413 C436.279984,80.4711413 455.510524,81.1370213 458.128065,81.1473071 L458.273684,81.1472163 C458.334764,81.1468713 458.378096,81.1461933 458.402989,81.1457061 L458.427984,81.1451413 C458.427984,81.1451413 460.627984,54.6451413 451.227984,40.5451413 C440.227984,24.0451413 417.327984,19.4451413 417.327984,19.4451413 L417.327984,19.4451413 Z" id="Combined-Shape"></path>
        </g>
    </g>
</svg>