<?xml version="1.0" encoding="UTF-8"?>
<svg width="862px" height="1001px" viewBox="0 0 862 1001" version="1.1" xmlns="http://www.w3.org/2000/svg" xmlns:xlink="http://www.w3.org/1999/xlink">
    <title>cc</title>
    <g id="Page-1" stroke="none" stroke-width="1" fill="none" fill-rule="evenodd">
        <g id="cc">
            <path d="M24.7,207.4 C123.3,198.8 223.1,190.2 321.7,181.7 C321.7,181.5 321.7,181.3 321.7,181.1 C300.3,164.4 271.7,136.6 287.1,99.2 C291,89.8 295.7,81.6 305.8,78.7 C315.3,76 323.7,81 331,80.5 C335.9,41.8 363.4,27.2 390.7,10.3 C395.7,7.2 397.8,-1.4 407.7,0.4 C415.8,1.9 417,11 422.9,14.4 C437.9,23.2 446.5,25 456.9,37.8 C481.8,68.7 557.5,117.7 560,161.9 C619.9,157 679.9,152.1 739.8,147.3 C773,181.2 806.2,215.2 839.4,249.1 C839.4,352.9 839.4,456.7 839.4,560.4 C844,571.2 860.8,575.5 861.1,589.7 C848.6,607.5 824.7,605.3 817.2,633.6 C812.8,650.3 822.7,662.4 821.3,676.9 C820.7,677.5 820.1,678.1 819.5,678.7 C813,679.6 808.1,677.4 803.7,674.6 C809,680.3 814.2,685.9 819.5,691.6 C832.9,708.5 842,728.1 845.3,755.4 C852.1,812.2 785.5,835.1 740.5,843.8 C730.3,845.2 720.2,846.5 710,847.9 C695.4,833.5 677.4,816.5 684,823.2 C698.3,837.9 710.8,858.1 698.3,878.9 C683.6,903.3 628.1,910.8 599.3,893.5 C588.2,883 577,872.4 565.9,861.9 C561,864.2 556.1,866.6 551.3,868.9 C565,881.7 519,934.7 491,899.9 C455.2,924.5 406.4,934.8 379.1,967.8 C371.9,976.5 357.8,1003 341,1000 C333.4,998.6 332.4,989.5 326.9,987.1 C321.2,984.6 310.9,989.9 304.6,986.5 C291.4,979.3 283.7,961 271.2,953.7 C265.7,951.9 260.3,950.2 254.8,948.4 C237.3,967 224.6,944.1 213.2,937.3 C203.1,931.3 194.4,932.1 187.4,923.3 C166.4,927.6 151.7,927.5 140.5,912.2 C132,914.8 122.1,922.5 110,918.1 C98.2,913.4 -0.9,816.3 0.1,799.6 C10.6,796.6 14.7,791.9 17.7,778.5 C18.3,760.9 18.9,743.4 19.5,725.8 C19.9,679 20.3,632.2 20.7,585.3 C20.5,576.3 21.6,562.1 20.1,553.1 C15.9,542.9 -14.2,530.8 8.4,521.5 C13.4,519.9 19,522 23,523.3 C23.2,523.3 23.4,523.3 23.6,523.3 C23.5,447.7 24.7,207.4 24.7,207.4 Z M513.8,165.9 C509.3,166.3 504.8,166.7 500.3,167.1 C497.6,164.4 494.8,161.6 492.1,158.9 C492.7,154.8 493.3,150.7 493.9,146.6 C500.5,153 507.1,159.4 513.8,165.9 Z" id="Shape" fill="#7154B1" fill-rule="nonzero"></path>
            <path d="M742,501.2 C727.6,511.2 710.9,530 715.4,556.5 C717.2,563.2 718.9,570 720.7,576.7 C720.5,576.7 720.4,576.7 720.2,576.7 C712.4,574.5 706.4,571.3 705.1,562.2 C701.5,562.7 701.1,562.6 698.8,561.2 C698.1,554.3 695.7,552 695.4,545.3 C697.2,541.7 699.3,540.8 702.3,538.3 C702,538 701.7,537.7 701.3,537.4 C693.8,524.6 668.5,542.2 675.9,559.1 C679.9,568.4 690.6,575.2 698.3,580.8 C711.9,590.7 726.6,605.1 734.3,621.2 C736.7,628.4 739.1,635.6 741.6,642.8 C757.3,715.2 679.3,740 615,744.8 C620.6,712.7 618.4,689.2 582.2,692.6 C584.5,686.4 593.6,687.2 595.3,678.9 C600.2,679.4 606,677.3 610.3,678.7 C619.1,681.5 626.2,693.2 639.9,686.2 C666.2,703.2 703.3,682.2 695.1,643.1 C689.1,614.8 667.7,604.9 653.9,585.1 C650.2,579.8 640.1,566.9 643.8,558 C655.5,552.3 657.9,538.6 655.1,524.7 C671.5,511.6 686.4,513.8 705.4,518.5 C706.9,514.4 708.4,510.4 709.8,506.3 C695.4,487.5 657.5,481 621.2,490.2 C596.1,496.6 572.6,501.1 549.4,509 C520.9,518.9 492.5,528.8 464.1,538.6 C464.8,542.8 465.1,547.5 464.1,551.8 C459.2,556.1 454.9,559.3 445.9,558.7 C446.1,554 446.2,549.3 446.4,544.5 C450.1,542.3 454,535.7 450.7,531 C442.4,530.2 426.7,543.2 421.4,551 C403,547.1 363.3,553.2 345,558.3 C345.3,571.5 333,582.7 322.1,575.2 C317.3,571.9 318.7,563 313.1,560.4 C299.4,554.4 285.1,586.7 277,592.4 C272.9,595.3 260.8,599.9 257.1,594.5 C251,585.5 265.5,572.9 269.4,568.8 C286.1,551.3 308.5,548.7 337.8,541.8 C349.7,541.3 361.6,540.8 373.5,540.3 C367.6,538.9 361.5,534.3 361.1,526.8 C362.8,523.5 363.7,521.3 366.4,519.1 C366.7,519.1 367,519 367.4,519 C379.9,535.2 415.6,535.4 444.4,527.6 C484.8,516.7 523.1,505.5 561,493.3 L194.3,526 C193,534.3 186,532.9 184,539.8 C183.8,554.8 183.7,569.7 183.5,584.7 C183.5,630.5 183.4,676.3 183.4,722 C183.4,765.2 182.9,801.4 153.7,816.1 C135.5,825.3 105.5,800.6 90.1,800.2 C89.7,806.9 89.5,813.8 91.5,818.8 C88.7,821.6 84.5,821.9 79.8,823 C60.6,827.8 53.3,816 45.4,806.9 C30.1,817.9 13.3,822.3 5.9,802.7 C5.9,802.5 5.9,802.4 5.9,802.2 C27.6,799.8 25.4,757.1 25.4,732.3 C25.4,689.5 25.4,646.7 25.4,603.9 C25.4,586.8 29,560.2 23.6,547 C20.4,539.3 11.8,538.8 6,534.1 C6,533.3 6,532.5 6,531.7 C7.2,530.3 8.5,528.9 9.7,527.5 C15.4,527 22.2,529.8 29.2,533.5 L29.2,213.2 L389.2,183 C365.5,175.2 358.3,150.4 363.5,134.1 C370.2,113 395.4,114.6 395.4,114.6 L409.3,118.2 L402.1,113.1 C402.1,113.1 425.9,100.2 438.6,113.1 C454.1,128.8 456.2,165.7 433.1,179.3 L737.8,153.7 L737.8,473.6 C747.6,477.6 755.4,483.3 760.1,491.3 C754.1,494.6 748,497.9 742,501.2 Z M621.5,390.9 C625.8,397.9 631.5,404 638.6,409.2 C638.4,431.9 638.3,448.5 638.3,458.9 C638.3,459.5 638.5,459.9 638.9,460.3 C639.3,460.7 639.8,460.8 640.4,460.8 C649,460.4 656.3,459.9 662.4,459.3 C668.3,458.8 674.5,458.1 681.2,457.2 C681.1,445.8 681,428.5 680.7,405.5 C687.6,399.2 693.3,392.1 697.6,384.3 C703.8,371.7 709.6,353.4 715.1,329.4 C708.7,329.2 701.3,329.4 693.1,330.2 C687.2,330.7 681.5,331.4 676.3,332.2 C675.6,332.3 675,332.6 674.4,333 C673.8,333.4 673.4,334 673.1,334.6 C669.5,345.8 665,361.4 659.6,381.4 C654,361.6 649.5,346.8 646.2,336.9 C646,336.3 645.6,335.9 644.9,335.5 C644.3,335.2 643.6,335 643,335 C637.7,335.1 632.1,335.4 626.1,335.9 C617.9,336.6 610.5,337.6 604.1,339 C609.6,362.2 615.4,379.5 621.5,390.9 Z M506.3,439.6 C506.4,452.4 506.5,462 506.5,468.5 C506.5,469.1 506.7,469.5 507.1,469.9 C507.5,470.3 508,470.4 508.6,470.4 C509.1,470.4 510.8,470.4 513.9,470.4 C517,470.4 518.8,470.4 519.5,470.4 C520.2,470.4 521.8,470.4 524.4,470.4 C527,470.4 528.7,470.4 529.7,470.3 C530.6,470.3 532.2,470.2 534.3,470.2 C536.4,470.2 538.1,470.1 539.3,470 C540.5,469.9 542,469.8 543.6,469.8 C545.2,469.7 546.8,469.6 548.2,469.5 C552.3,469.1 556.1,468.7 559.5,468 C562.9,467.4 566.3,466.6 569.7,465.6 C573.1,464.6 576.1,463.4 578.8,462 C581.5,460.6 584.2,458.9 586.7,456.9 C589.2,454.9 591.4,452.6 593.4,450.1 C595.3,447.6 597.1,444.7 598.7,441.4 C600.3,438.1 601.6,434.5 602.6,430.5 C603.6,426.5 604.4,422 604.9,417.1 C605.4,412.2 605.7,406.8 605.7,401.1 C605.7,391.4 604.8,382.9 603,375.7 C601.2,368.5 598.7,362.6 595.6,358 C592.4,353.4 588.4,349.8 583.5,347.1 C578.6,344.5 573.3,342.7 567.5,342 C561.7,341.2 555.1,341.1 547.7,341.8 C535.9,342.8 522.1,345.2 506.6,348.9 C506.6,355.9 506.5,366.1 506.4,379.4 C506.3,392.7 506.2,402.9 506.2,409.9 C506.1,416.8 506.2,426.8 506.3,439.6 Z M55.3,547.3 C59.8,548.7 70,548.4 72.5,552.1 C72.7,552.9 72.8,553.7 73,554.5 C58.7,560.1 63.7,584.2 63.7,602.3 C63.7,643.9 63.7,685.5 63.6,727 C63.6,742.4 61.8,765.5 72.4,769 C73.8,768.9 75.2,768.8 76.6,768.7 C88.2,762.7 85.5,736.6 85.5,719.6 C85.5,686.6 85.5,653.7 85.6,620.7 C85.6,609.9 87.5,577.9 82.8,573.4 C81,571.7 77.1,571.8 75.3,570.2 C75.6,568.3 75.9,566.3 76.2,564.4 C76.7,564.2 77.1,564 77.6,563.8 C81.6,561.9 110.6,577.2 124.8,573.8 C130.2,572.5 133.1,575 133.7,579.3 C131.3,584 125.6,584.6 123.9,589.7 C123.7,634.4 123.5,679.2 123.3,723.9 C123.3,739.9 119.9,767.7 131.2,771.3 C146.2,776.3 145.3,748.6 145.3,736.1 C145.3,695.1 145.4,654 145.4,612.9 C145.4,602.1 147.7,570 142.2,566.5 C137.7,564.2 132.5,566 131.9,559.2 C136.3,554.4 145.4,552.9 151.1,549.4 C161.7,543 170.5,534.6 180,527.4 L40.2,539.8 C45.7,543 50.9,545.9 55.3,547.3 Z M99.1,432.7 C99.6,429.1 100.3,426.1 101.1,423.9 C101.9,421.7 103,419.9 104.2,418.5 C105.4,417.1 106.7,416.2 108,415.7 C109.3,415.2 110.8,414.9 112.5,414.9 L132.2,414.5 L136.8,381 C131.6,380.2 127.3,379.7 123.7,379.4 C120.2,379.1 116.4,379.2 112.4,379.5 C104.9,380.1 98.2,381.4 92.4,383.2 C86.5,385 81.1,387.7 76.2,391.2 C71.3,394.7 67.2,399.1 63.9,404.3 C60.7,409.5 58.1,415.9 56.3,423.5 C54.5,431.1 53.6,439.8 53.6,449.6 C53.6,455.4 53.9,460.8 54.4,465.6 C55,470.5 55.7,474.8 56.8,478.7 C57.8,482.6 59.2,486 60.8,489 C62.4,492 64.2,494.6 66.2,496.9 C68.2,499.1 70.4,501 73,502.6 C75.6,504.2 78.2,505.4 81,506.3 C83.8,507.2 86.9,507.9 90.3,508.3 C93.7,508.7 97.2,508.9 100.6,508.9 C104.1,508.9 107.9,508.7 112.1,508.3 C120,507.6 128.2,506.1 136.7,503.8 L132.3,470.8 L112.6,473.8 C110.7,474.1 109.1,474.1 107.8,473.8 C106.4,473.5 105.2,472.8 103.9,471.7 C102.7,470.6 101.7,468.9 100.9,466.8 C100.1,464.7 99.5,461.8 99.1,458.3 C98.7,454.8 98.4,450.5 98.4,445.6 C98.3,440.6 98.6,436.3 99.1,432.7 Z M126,230.4 C122.3,230.1 118.3,230.1 114.1,230.5 C106.2,231.2 99.1,232.5 92.9,234.4 C86.7,236.3 81,239.1 75.7,242.8 C70.5,246.5 66.2,251.1 62.7,256.6 C59.3,262.1 56.6,268.8 54.7,276.8 C52.8,284.8 51.8,294 51.8,304.3 C51.8,310.5 52.1,316.1 52.7,321.2 C53.3,326.3 54.1,331 55.2,335 C56.3,339.1 57.7,342.7 59.4,345.9 C61.1,349.1 63,351.9 65.1,354.2 C67.2,356.5 69.6,358.5 72.3,360.2 C75,361.9 77.8,363.2 80.8,364.2 C83.7,365.2 87,365.9 90.6,366.3 C94.2,366.8 97.8,367 101.5,367 C105.2,367 109.2,366.8 113.6,366.4 C121.9,365.7 130.6,364.1 139.6,361.7 L135,326.8 L114.2,329.9 C112.2,330.2 110.5,330.2 109.1,329.9 C107.7,329.6 106.3,328.8 105,327.7 C103.7,326.5 102.6,324.8 101.8,322.5 C101,320.2 100.3,317.2 99.9,313.5 C99.4,309.8 99.2,305.3 99.2,300.1 C99.2,294.9 99.5,290.4 100,286.6 C100.5,282.8 101.2,279.7 102.1,277.3 C103,274.9 104.1,273 105.4,271.6 C106.7,270.1 108.1,269.2 109.5,268.6 C110.9,268.1 112.5,267.8 114.2,267.7 L135,267.3 L139.9,231.9 C134.3,231.3 129.7,230.7 126,230.4 Z M142.3,441.6 C142.3,449.8 142.8,457 143.8,463.2 C144.8,469.5 146.4,474.9 148.6,479.5 C150.8,484.1 153.5,487.9 156.7,491 C159.9,494 163.7,496.4 168.2,498.1 C172.7,499.8 177.7,500.8 183.1,501.3 C188.5,501.8 194.7,501.7 201.6,501.1 C209.2,500 215.9,497.8 222,494.4 C228,491 233.1,486.4 237.4,480.7 C241.7,475 244.9,468 247.2,459.9 C249.5,451.7 250.6,442.5 250.6,432.3 C250.6,424.2 250.1,417 249,410.7 C248,404.4 246.3,399 244.1,394.4 C241.9,389.8 239.2,386 236,382.9 C232.8,379.8 228.9,377.5 224.4,375.8 C219.9,374.1 214.9,373 209.5,372.6 C204.1,372.1 197.9,372.2 191,372.8 C183.5,373.8 176.7,376.1 170.7,379.5 C164.7,382.9 159.6,387.5 155.4,393.2 C151.2,398.9 148,405.9 145.7,414.1 C143.5,422.2 142.3,431.4 142.3,441.6 Z M257,222.2 C257,221.6 256.8,221.1 256.3,220.7 C255.9,220.3 255.3,220.1 254.7,220.2 C245.5,220.6 237.8,221.1 231.6,221.6 C225.6,222.1 219,222.8 211.9,223.8 C211.6,236.3 211.4,252.6 211.4,272.9 L196.5,274.2 C196.5,256.6 196.3,241 196,227.4 C196,226.8 195.8,226.3 195.3,225.9 C194.8,225.5 194.3,225.3 193.7,225.4 C184.5,225.8 176.8,226.3 170.6,226.8 C164.6,227.3 158,228 150.9,229 C150.3,252.9 150,275.2 150,296 C150,311.2 150.3,332.7 150.9,360.6 C150.9,361.2 151.1,361.7 151.6,362.1 C152.1,362.5 152.6,362.7 153.2,362.6 C162.4,362.1 170.1,361.6 176.3,361.1 C182.3,360.6 188.9,359.8 196,358.9 C196.3,347 196.5,331.4 196.5,312 L211.4,310.7 C211.5,330.7 211.6,345.5 211.9,355.3 C211.9,355.9 212.1,356.4 212.6,356.8 C213.1,357.2 213.6,357.4 214.2,357.3 C223.4,356.8 231.1,356.3 237.3,355.8 C243.3,355.3 249.9,354.5 257,353.6 C257.6,329.8 257.9,307.5 257.9,286.7 C257.9,271.6 257.6,250.1 257,222.2 Z M363.7,309.3 C363.7,308.7 363.5,308.2 363,307.8 C362.6,307.4 362,307.2 361.4,307.3 C353.3,307.7 340,308.7 321.7,310.3 L319,310.5 C318.9,305.4 318.9,301.5 318.8,298.9 L347.9,296.4 C348,291.1 348.1,286.1 348.1,281.5 C348.1,276.4 348,270.8 347.9,264.8 C347.9,264.2 347.7,263.7 347.2,263.3 C346.8,262.9 346.2,262.7 345.6,262.8 C341.1,263 332.1,263.6 318.7,264.7 C318.7,262 318.8,258.1 318.9,253 C321.4,252.8 324.3,252.6 327.4,252.3 C344.9,250.8 356.7,249.7 363,248.8 C363.1,243.7 363.2,238.3 363.2,232.4 C363.2,228.6 363.1,222.2 363,213.2 C363,212.6 362.8,212.1 362.3,211.7 C361.9,211.3 361.3,211.1 360.7,211.2 C351.5,211.6 338.5,212.6 321.6,214 C297.7,216 282.1,217.5 275,218.4 C274.4,242.2 274.1,264.5 274.1,285.3 C274.1,300.4 274.4,322 275,349.8 C275,350.4 275.2,350.9 275.7,351.3 C276.1,351.7 276.7,351.9 277.3,351.8 C281.3,351.6 289.3,351.1 301.4,350.3 C313.5,349.5 321.3,348.9 325.1,348.6 C343.6,347 356.5,345.7 363.6,344.8 C363.7,339.7 363.8,334.3 363.8,328.4 C363.9,324.7 363.8,318.3 363.7,309.3 Z M357,359.7 C356.3,359.8 355.4,360.6 354.4,362 L327.8,418.2 L301.1,366.6 C300.6,365.3 299.8,364.6 298.8,364.7 C292.5,364.9 286.4,365.3 280.4,365.8 C275.4,366.2 269.6,366.9 262.9,367.8 C262.3,390.3 262,411.4 262,431.1 C262,445.4 262.3,465.8 262.9,492.2 C262.9,492.8 263.1,493.2 263.5,493.6 C263.9,494 264.4,494.2 265,494.1 C273.7,493.6 280.6,493.2 285.7,492.7 C290.7,492.3 296.5,491.6 303.2,490.7 L302.5,433.6 L325.5,478.2 L327.6,478.4 L329.9,477.8 L354.1,426.7 C354.1,432.6 354.2,438.7 354.4,445.1 C354.5,451.5 354.7,458.6 354.9,466.4 C355.1,474.2 355.3,480.1 355.4,484 C355.4,484.6 355.6,485 356,485.4 C356.4,485.8 356.9,485.9 357.5,485.9 C366.2,485.4 372.7,485 377.1,484.6 C382,484.2 387.4,483.5 393.5,482.7 C394.1,460.2 394.3,439.1 394.3,419.5 C394.3,405.2 394,384.9 393.5,358.6 C393.5,358 393.3,357.6 392.9,357.2 C392.5,356.8 392,356.7 391.4,356.7 C384.3,357 377.7,357.4 371.8,357.9 C366.3,358.4 361.4,359 357,359.7 Z M473,260 C477.2,253.5 479.3,246.3 479.3,238.3 C479.3,233.2 478.8,228.8 477.8,224.9 C476.8,221.1 475.6,217.9 474,215.3 C472.5,212.7 470.3,210.6 467.6,209 C464.8,207.3 462.1,206.1 459.3,205.3 C456.5,204.5 453,203.9 448.8,203.7 C444.5,203.5 440.6,203.4 436.9,203.6 C433.2,203.7 428.6,204 423.2,204.5 C416.9,205 409.5,206 401.1,207.4 C392.7,208.8 384.7,210.4 377.3,212.2 C377.3,219.6 377.2,229.9 377.1,243 C377,256.1 376.9,266.4 376.9,273.8 C376.9,281.3 377,292.7 377.1,308 C377.2,323.3 377.3,334.3 377.3,341.2 C377.3,341.8 377.5,342.3 377.9,342.7 C378.3,343.1 378.9,343.3 379.5,343.2 C388.5,342.7 396.1,342.2 402.4,341.6 C409.4,341 415.9,340.3 422,339.5 C422,332.9 421.8,323.2 421.5,310.4 C421.2,297.6 421,289.1 421,284.9 L424,284.6 C428,297.7 433.7,314.9 440.9,336.2 C441.1,336.8 441.6,337.3 442.2,337.6 C442.9,338 443.6,338.1 444.3,338.1 C449.9,338 455.9,337.7 462.2,337.1 C470.9,336.3 478.7,335.3 485.6,333.9 C481.2,315.5 475.3,299.3 467.9,285.5 C464.7,280.4 460.6,277.2 455.6,275.9 C463,271.7 468.8,266.4 473,260 Z M493.9,440.6 C493.9,440 493.7,439.6 493.3,439.2 C492.9,438.8 492.4,438.6 491.8,438.7 C484.1,439.1 471.7,440.1 454.4,441.6 L451.9,441.8 C451.8,437 451.8,433.3 451.7,430.9 L479.1,428.5 C479.2,423.5 479.3,418.8 479.3,414.5 C479.3,409.7 479.2,404.4 479.1,398.7 C479.1,398.1 478.9,397.7 478.5,397.3 C478.1,396.9 477.6,396.7 477,396.8 C472.7,397 464.3,397.6 451.7,398.6 C451.7,396.1 451.8,392.4 451.9,387.6 C454.3,387.4 457,387.2 459.9,387 C476.3,385.6 487.5,384.4 493.5,383.6 C493.6,378.8 493.7,373.6 493.7,368.1 C493.7,364.5 493.6,358.5 493.5,350 C493.5,349.4 493.3,349 492.9,348.6 C492.5,348.2 492,348 491.4,348.1 C482.8,348.5 470.5,349.4 454.5,350.8 C431.9,352.8 417.3,354.2 410.6,355.1 C410,377.6 409.8,398.6 409.8,418.3 C409.8,432.6 410.1,452.9 410.6,479.2 C410.6,479.8 410.8,480.2 411.2,480.6 C411.6,481 412.1,481.2 412.7,481.1 C416.4,480.9 424,480.4 435.4,479.6 C446.8,478.8 454.2,478.3 457.7,478 C475.2,476.5 487.2,475.2 493.9,474.3 C494,469.5 494.1,464.3 494.1,458.8 C494.1,455.2 494.1,449.2 493.9,440.6 Z M595,215 C594,211.2 592.8,208 591.2,205.4 C589.7,202.8 587.5,200.7 584.8,199.1 C582.1,197.4 579.3,196.2 576.6,195.4 C573.9,194.6 570.4,194 566.1,193.8 C561.9,193.6 557.9,193.5 554.2,193.7 C550.5,193.8 546,194.1 540.6,194.6 C534.3,195.1 527,196.1 518.6,197.5 C510.2,198.9 502.3,200.5 494.9,202.2 C494.9,209.6 494.8,219.8 494.7,233 C494.6,246.1 494.5,256.4 494.5,263.8 C494.5,271.3 494.6,282.7 494.7,297.9 C494.8,313.1 494.9,324.2 494.9,331 C494.9,331.6 495.1,332.1 495.5,332.5 C495.9,332.9 496.5,333.1 497.1,333 C506,332.5 513.6,332 519.9,331.4 C526.8,330.8 533.4,330.1 539.5,329.3 C539.5,322.7 539.3,313 539,300.2 C538.7,287.4 538.5,278.9 538.5,274.8 L541.5,274.5 C545.5,287.6 551.1,304.8 558.4,326 C558.6,326.6 559.1,327.1 559.7,327.4 C560.4,327.7 561.1,327.9 561.8,327.9 C567.4,327.8 573.4,327.5 579.7,326.9 C588.4,326.1 596.2,325.1 603,323.7 C598.6,305.3 592.7,289.2 585.3,275.4 C582.1,270.3 578,267.1 573,265.8 C580.4,261.7 586.2,256.4 590.4,250 C594.6,243.6 596.6,236.3 596.6,228.3 C596.4,223.2 595.9,218.8 595,215 Z M693.7,182.7 C687.4,183.2 681.5,183.9 675.9,184.8 C675.2,184.9 674.5,185.2 673.8,185.6 C673.1,186.1 672.7,186.6 672.5,187.3 C668.7,199.1 664,215.6 658.2,236.8 C652.2,215.9 647.5,200.2 644,189.7 C643.8,189.1 643.3,188.6 642.7,188.3 C642,188 641.3,187.8 640.6,187.8 C635,187.9 629.1,188.2 622.8,188.7 C614.1,189.4 606.3,190.5 599.5,191.9 C605.4,216.4 611.6,234.7 618,246.8 C622.6,254.2 628.6,260.6 636,266.1 C635.8,290.1 635.7,307.6 635.7,318.7 C635.7,319.3 635.9,319.8 636.4,320.2 C636.8,320.6 637.4,320.8 638,320.7 C647.1,320.2 654.8,319.7 661.2,319.2 C667.4,318.7 674,317.9 681.1,317 C681,304.9 680.8,286.7 680.5,262.3 C687.8,255.7 693.8,248.2 698.4,239.9 C704.9,226.6 711.1,207.2 716.9,181.9 C710.1,181.7 702.3,182 693.7,182.7 Z M550.6,243.8 C548.4,245.7 545.6,246.9 542.1,247.2 L538.3,247.5 C538.3,242.7 538.3,236 538.4,227.4 C540,227.2 541.8,226.9 543.7,226.8 C547.5,226.5 550.1,227.1 551.6,228.8 C553.1,230.4 553.8,233.1 553.8,236.7 C553.9,239.4 552.8,241.9 550.6,243.8 Z M433.3,253.8 C431.1,255.7 428.3,256.9 424.7,257.2 L420.9,257.5 C420.9,252.7 420.9,246 421,237.3 C422.6,237.1 424.4,236.8 426.4,236.7 C430.2,236.4 432.8,237 434.3,238.7 C435.8,240.3 436.5,243 436.5,246.6 C436.6,249.4 435.5,251.8 433.3,253.8 Z M188.1,419.3 C188.5,417.2 188.9,415.6 189.4,414.2 C189.9,412.9 190.5,411.9 191.2,411.1 C191.9,410.4 192.7,409.9 193.4,409.6 C194.1,409.3 195,409.1 196.1,409 C197.2,408.9 198.1,408.9 198.8,409.1 C199.6,409.3 200.4,409.6 201.2,410.2 C202,410.8 202.7,411.7 203.3,412.9 C203.8,414.1 204.3,415.7 204.8,417.7 C205.3,419.7 205.6,422.2 205.8,425.2 C206,428.3 206.1,431.8 206.1,435.9 C206.1,440.8 205.9,445 205.6,448.5 C205.3,452 204.9,454.7 204.4,456.8 C203.9,458.8 203.3,460.4 202.4,461.6 C201.5,462.8 200.7,463.5 199.8,463.9 C198.9,464.3 197.9,464.5 196.6,464.7 C195.3,464.8 194.2,464.8 193.3,464.5 C192.4,464.3 191.5,463.6 190.6,462.6 C189.7,461.6 189,460.1 188.5,458.2 C188,456.3 187.6,453.6 187.2,450.2 C186.9,446.8 186.7,442.6 186.7,437.7 C186.7,433.6 186.8,430 187,426.9 C187.4,423.9 187.7,421.3 188.1,419.3 Z M551.8,377.9 C553.1,377.8 554.2,377.9 555,378.1 C555.9,378.3 556.7,379 557.6,380 C558.5,381 559.2,382.5 559.7,384.4 C560.2,386.3 560.6,389 561,392.4 C561.3,395.8 561.5,399.9 561.5,404.8 C561.5,408.9 561.4,412.5 561.2,415.6 C561,418.7 560.7,421.2 560.3,423.3 C559.9,425.3 559.4,427 558.9,428.4 C558.4,429.7 557.7,430.7 556.9,431.4 C556.1,432.1 555.3,432.6 554.6,432.9 C553.8,433.2 552.9,433.4 551.9,433.5 L548.3,433.8 C548.1,423.7 547.9,414.5 547.9,406.1 C547.9,399.2 548,389.9 548.3,378.3 L551.8,377.9 Z M421.1,63.7 C408.2,49.4 410.8,24.7 410.8,24.7 L437.5,54.5 L417.4,19.6 C417.4,19.6 440.3,24.2 451.3,40.7 C460.7,54.8 458.5,81.3 458.5,81.3 C458.5,81.3 437.5,81.9 421.1,63.7 Z M403.6,24.2 C403.6,24.2 391.3,43.2 390.2,64.8 C389.2,85.6 399.5,109 399.5,109 L391.8,111.1 C391.8,111.1 381.5,88.5 381.5,65.9 C381.5,46.4 391.8,26.4 391.8,26.4 C391.8,26.4 372.7,35.7 360.4,51 C348.5,65.9 343.4,86.9 343.4,86.9 L335.7,85.9 C335.7,85.9 338.5,62.4 356.3,42.3 C375.1,21.1 394.9,15.6 394.9,15.6 C394.9,15.6 402.9,2.5 409.8,8.9 C417.3,15.8 403.6,24.2 403.6,24.2 Z M341.4,90.9 C341.4,90.9 355.5,89.5 366.1,96 C375,101.5 375.9,114 375.9,114 C375.9,114 365.1,117.6 360,131.5 C356.1,142 359,156.1 359,156.1 C359,156.1 334.3,170.1 312.6,159.9 C308.2,157.8 290.3,144.5 288.1,128.3 C285.9,112.3 295,95.5 296.5,93.5 C307.8,78.3 325.4,85.1 335.9,91.3 C341.2,94.4 344.7,97.5 344.7,97.5 L341.4,90.9 Z M161.7,825.7 C175.1,827 188.6,828.2 202.1,829.5 C202.1,832.1 202.1,834.6 202.1,837.2 C198.4,838.7 197.1,842.7 194.1,845 C180.4,855.4 168.3,850.9 158.4,843.8 C158.4,844.1 158.4,844.4 158.4,844.8 C149.2,854.9 127.7,857.8 133.6,836.1 C114.2,837.9 87.5,827.3 93.4,805 C114.5,813.4 136.7,821 161.7,825.7 Z M303.6,803.2 C291.8,803.7 284.9,795.8 274.7,793.8 C268,792.4 263.4,796.6 257.7,796 C257.4,795.2 257.1,794.4 256.8,793.7 C258.5,791.3 262.9,788.1 263.9,785.9 C264.4,774.8 264.9,763.6 265.4,752.5 C265.4,727.4 265.5,702.3 265.5,677.1 C265.5,660.4 268.5,636.4 249,641.7 C233.4,645.9 237.2,667.2 237.1,685.6 C237.1,706.7 237,727.8 237,748.8 C237,762 236,776.7 239.8,785.7 C242.2,791.4 246.5,793.2 251.1,796.4 C250.5,797.2 249.8,798.1 249.2,799 C245.2,800.9 242.3,802.1 237.4,801.3 C237,806.4 235.9,810.3 232.2,812.3 C228.4,815 224.3,812.4 222.8,809.6 C222.5,809.8 222.2,810 221.9,810.2 C222,822.1 216.9,837.4 205.4,838.4 C205.5,771.9 205.6,705.4 205.6,638.9 C205.6,621.8 208.9,569.6 203.3,560 C200,559.4 198.2,558.6 196.2,556.7 C196.4,555.4 196.5,554.1 196.7,552.8 C197.2,552.6 197.6,552.4 198.1,552.2 C201.6,551.7 205,551.3 208.5,550.8 C221.7,546.4 237.4,537.5 246.7,551.5 C246.7,552.1 246.7,552.8 246.7,553.4 C246.4,553.7 246.1,554.1 245.8,554.4 C243.4,554.9 241.1,555.4 238.7,556 C236.3,558.7 237.3,566.9 237.3,571.6 C237.4,588 237.6,604.4 237.7,620.8 C253,608.9 281.5,607 291.1,621.8 C299.3,634.3 297.2,659.5 297.2,680.8 C297.1,715.1 297.1,749.5 297,783.8 C298.5,791.1 303.9,794.2 304.6,801.6 C304.3,802.1 303.9,802.7 303.6,803.2 Z M368,691.8 C368.2,691.3 368.3,690.8 368.5,690.3 C371.4,684 393.2,671.4 402.9,672.6 C403.1,672.9 403.2,673.2 403.4,673.5 C401.5,676.4 399.6,679.3 397.7,682.2 C393.8,695 396.7,720.7 396.6,735.7 C396.6,746.3 398.3,761.2 394.1,768.4 C388.1,778.9 367.4,781.5 355,785.9 C347.1,788.7 333.9,796 325.5,791.5 C316,786.4 317.9,767.8 318,752.4 C318.1,720.5 318.1,688.5 318.2,656.6 C318.2,644 316.1,625.6 321.6,617.6 C330.2,604.9 368.8,604 384,595.5 C389,595.1 392.1,595.8 394,598.6 C397.9,604.1 399.1,652.4 396.3,663 C373.2,664.7 359.2,678.7 353.3,696.9 C363,696.3 370.8,705.8 364.2,715.9 C357.2,726.6 348.3,718.3 342.8,714.6 C342.5,726 341.5,738.8 347,743.8 C369.3,742.1 371.8,736 371.8,712.8 C371.7,706 371.5,699.2 371.4,692.5 C370.2,692.2 369.1,692 368,691.8 Z M343.2,694.2 C343.2,693.9 343.2,693.6 343.2,693.2 C346.4,686 349.6,678.8 352.8,671.6 C358.4,661.9 365.6,653.3 371.9,644.4 C372,638.7 371.8,633.2 370.5,629.5 C368.2,628.6 366.9,628 363.4,628.1 C357.2,631.4 348.5,630.8 344.8,636.4 C342.4,640 340.7,688.2 343.2,694.2 Z M231.7,866.8 C255.3,862.4 295.3,842.3 306.4,827.1 C288.4,832.7 234.5,847.5 213.8,839.2 C214.3,838.5 214.7,837.8 215.2,837.2 C218.2,835.2 219,831.7 221.3,829 C233.5,831.6 262.5,826.2 274.2,823.2 C316.1,812.3 352.4,800.8 386.8,783.9 C395.1,779.7 403.4,775.5 411.6,771.4 C412.1,771.4 412.6,771.3 413,771.3 C413.1,776.5 413.7,784.1 412,787.9 C395.6,796.4 379.2,804.9 362.8,813.4 C333.9,828.5 301.5,842.5 280.6,865.3 C274.5,871.9 253.5,902.1 244.2,896.4 L244.2,895.4 C241.5,885.8 251.5,878.8 255.6,873.4 C240.6,879.8 209.7,898 202.8,872.4 C196.2,846.7 238.7,840.7 231.7,866.8 Z M417,750.1 C417.1,708.5 417.2,666.9 417.3,625.2 C417.3,614 419.9,573.4 415,569 C413.1,570.3 412.3,570.7 409.7,570.4 C408.5,564.5 434.7,540.3 441.4,536.1 C442,536.3 447.7,532.1 449,533.8 C450.3,535.5 447.8,537.6 447.8,537.9 C445.6,540.4 444.5,541.9 442.3,544.3 C442.1,559.9 441.9,575.5 441.7,591.1 C441.6,635.4 441.5,679.7 441.4,723.9 C441.4,740.3 435.6,781.1 452.8,777 C452.8,778 452.8,778.9 452.8,779.9 C450.4,786.4 447.8,788.8 441.3,791.4 C442.9,795 442.8,797.8 440.8,801.2 C438.4,802 436,802.8 433.6,803.7 C430.5,802.2 430.5,801.1 427.9,802.7 C424.7,809.1 415.4,810.1 407.3,809.1 C418.4,795.9 417,774 417,750.1 Z M542.5,701.1 C539,708.8 533.5,709.1 525.6,707.8 C522.2,714.1 474,737.8 465.9,736.7 C457.8,726.2 462.2,675.9 462.2,656.2 C462.2,648.5 460.2,634.1 465.1,630.7 C469.6,626.8 505.3,631.4 500.7,619.6 C500,617.8 497,615.9 495.9,613.2 C497,609.5 498,607.2 501.2,605.5 C505.2,603.2 508.6,605.4 511.8,606.6 C511.9,599.7 512.2,591.4 510.9,586.2 C509.9,585.6 509,585.1 508,584.5 C495.3,581.7 482.3,592.3 485.3,605.9 C486.6,606.8 487.9,607.6 489.1,608.5 C489,610.7 488.8,611.2 488.1,612.5 C476.6,615 469.3,622.2 459.7,625.5 C459.5,625.3 459.4,625.2 459.2,625.1 C459.4,620.4 461.1,619.9 462.1,617.1 C462.1,613.7 462.1,610.3 462.1,606.9 C462.1,592.5 460.1,575.7 468.4,568.9 C480.9,558.7 507.7,558.5 522.3,549.8 C525.2,549.9 528.1,550 531,550.1 C535.8,556.7 534.3,571.6 534.3,583.5 C534.2,609.7 534.2,635.9 534.1,662.1 C534.3,679.2 530.3,695.7 542.5,701.1 Z M510.9,620.1 C507.6,634 493.4,638 484.9,647 C484.7,660 481.4,687.1 488.2,693.5 C516.8,691.5 511.8,673.3 511.9,645.8 C511.8,639.9 514.1,623.5 510.9,620.1 Z M646.3,655.8 C641.1,658 636.7,662.9 635.1,668.4 C634.9,668.4 634.8,668.4 634.6,668.4 C634.3,664 634,659.6 633.7,655.3 C638.1,655.1 642.4,654.9 646.8,654.8 C646.6,655.1 646.4,655.5 646.3,655.8 Z M633.1,523.1 C634.9,522.3 636.7,521.5 638.5,520.7 C662.5,517.9 653.5,551.7 638.4,557.5 C639.8,554.8 641.3,553.4 641.8,549.9 C638.2,550.1 637.1,549.4 636,546.9 C635.4,544.7 636,543.7 636.5,541.5 C626.7,540.5 628.8,529.2 633.1,523.1 Z M588,675.1 C581.2,671.2 592.9,668.6 596.3,666.6 C595.6,668.6 592,671.3 593.4,675.6 C590.8,675.9 589.2,676 588,675.1 Z M567.6,696.7 C563.9,708.3 563.9,715 555.5,721.6 C555.3,721.6 555.2,721.6 555,721.6 C555.1,679.9 555.2,638.2 555.3,596.5 C555.3,582.5 559,556.2 553,547.3 C551.1,547 549.1,546.6 547.2,546.3 C552.9,535.4 558.8,542.9 568,539.7 C571.2,538.6 575,533.7 578.7,532 C583.9,530.6 589,529.2 594.2,527.8 C604.2,526.7 621,526.5 625.2,532.1 C634.5,554.9 629.3,605.9 629.2,637.6 C629.2,649.4 628,663.4 631.5,672.2 C634.1,674.6 636.7,677 639.3,679.4 C640.1,684.2 633.6,685.8 628.6,684.6 C622.5,681.3 616.3,678 610.2,674.8 C605.6,673.6 600.9,676 597.1,675.3 C596.3,670.5 602.3,666.3 603.4,659.6 C605.7,645.9 604.7,582.2 600.7,575.6 C596.1,574.3 588.6,573.3 584.7,577.4 C577.3,585.2 580.7,637.2 580.6,653.5 C580.6,666.8 579.1,679.2 591.2,679.6 C591,680.1 590.9,680.6 590.7,681.1 C586.6,684.5 584.3,684.7 578.6,687.4 C581,697.7 572.7,694.3 567.6,696.7 Z M445.2,752.8 C451.9,748.7 458.6,744.7 465.4,740.6 C468.3,740.4 471.2,740.2 474,739.9 C488.6,733.8 503.7,725.9 518.8,718.5 C521.6,717.1 524.7,713 527,712 C528.9,712.2 530.9,712.4 532.8,712.5 C540.7,711.8 544,706.3 546.3,700.2 C546,699.4 545.7,698.6 545.3,697.8 C543.1,697.1 540.5,696.8 539,695.4 C542.9,693 546.7,690.6 550.6,688.2 C550.7,693.9 550.9,699.6 551,705.2 C535.4,714 522.7,728.6 519.1,748.6 C516.1,764.8 531.4,789.4 546,782.2 C549.3,780.7 551.8,778.2 552.3,773.9 C551.5,773.1 550.7,772.4 549.9,771.6 C545.8,773.3 543.6,771.8 540.7,769.8 C540.2,767.7 539.7,765.6 539.3,763.6 C547.4,745.1 573.1,761.2 556.1,785.3 C566,785.4 576.7,785.1 579.8,777.2 C579.8,775.7 579.8,774.3 579.8,772.8 C576.2,772.4 575.3,771 573,769.4 C572.9,764.4 575.5,761.7 575.9,758.4 C564.5,753.8 577.4,737 590,740.7 C604.1,744.9 603.8,769.8 595.2,781.4 C584,796.5 551.1,803 527.5,798.6 C503.4,794.1 486,778.9 481,753.9 C469.3,759.5 457.6,765.1 445.9,770.6 C445.4,765.8 445.2,759.1 445.2,752.8 Z" id="Shape" fill="#EF8FF8"></path>
        </g>
    </g>
</svg>