<?xml version="1.0" encoding="UTF-8"?>
<svg width="40px" height="60px" viewBox="0 0 40 60" version="1.1" xmlns="http://www.w3.org/2000/svg" xmlns:xlink="http://www.w3.org/1999/xlink">
    <title>iconmonstr-location-5</title>
    <g id="Page-1" stroke="none" stroke-width="1" fill="none" fill-rule="evenodd">
        <g id="iconmonstr-location-5" fill-rule="nonzero">
            <path d="M20,0 C9.505,0 0,8.5075 0,19.005 C0,29.5 8.6725,42.03 20,60 C31.3275,42.03 40,29.5 40,19.005 C40,8.5075 30.4975,0 20,0 Z" id="Shape" fill="#04E0E0"></path>
            <g id="logo-4-(1)" transform="translate(5.000000, 4.000000)">
                <path d="M0.829487015,6.83853856 C4.15040115,6.55476143 7.51173208,6.2709843 10.8326462,5.9905069 C10.8326462,5.98390743 10.8326462,5.97730797 10.8326462,5.9707085 C10.1118799,5.41965291 9.14861268,4.50232683 9.66729501,3.26822628 C9.79864963,2.95805128 9.95694878,2.68747309 10.2971236,2.5917808 C10.6170899,2.50268798 10.9000076,2.66767468 11.1458765,2.65117601 C11.3109117,1.37417892 12.2371302,0.892417745 13.1566125,0.334762685 C13.3250158,0.232470928 13.3957453,-0.0513062026 13.7291839,0.00808901084 C14.0019973,0.0575850221 14.0424141,0.357860824 14.2411301,0.470051782 C14.7463402,0.760428382 15.0359939,0.819823595 15.3862729,1.24218956 C16.2249216,2.26180739 18.7745484,3.87867709 18.85875,5.33715955 C20.8762222,5.17547258 22.8970625,5.01378561 24.9145346,4.85539838 C26.0327329,5.97400823 27.1509312,7.09591782 28.2691294,8.21452767 C28.2691294,11.6396517 28.2691294,15.0647756 28.2691294,18.4865999 C28.4240605,18.8429712 28.9898958,18.9848597 29,19.453422 C28.5789916,20.0407746 27.7740236,19.9681805 27.5214186,20.9020052 C27.3732236,21.4530608 27.7066622,21.8523286 27.6595093,22.3307901 C27.6393009,22.3505885 27.6190925,22.3703869 27.5988841,22.3901853 C27.3799597,22.4198829 27.2149245,22.3472887 27.0667295,22.2548962 C27.2452371,22.442981 27.4203765,22.6277661 27.5988841,22.815851 C28.0502051,23.373506 28.3566992,24.0202539 28.4678454,24.9210813 C28.696874,26.7953303 26.4537413,27.5509694 24.9381111,27.8380463 C24.5945683,27.8842425 24.2543935,27.9271391 23.9108507,27.9733354 C23.4191129,27.4981737 22.8128608,26.9372189 23.0351532,27.158301 C23.5167868,27.6433619 23.9377952,28.3099082 23.5167868,28.9962529 C23.0216809,29.801388 21.1524037,30.0488681 20.1824004,29.4780141 C19.808545,29.131542 19.4313215,28.7817702 19.057466,28.4352981 C18.8924307,28.511192 18.7273954,28.5903856 18.5657282,28.6662795 C19.0271534,29.0886455 17.4778425,30.8375045 16.5347838,29.6891971 C15.3290158,30.5009317 13.685399,30.8408043 12.7659167,31.9297165 C12.5234159,32.2167934 12.0485184,33.0912229 11.4826832,32.9922309 C11.2267101,32.9460346 11.1930294,32.6457588 11.0077857,32.5665652 C10.8158059,32.4840718 10.468895,32.6589578 10.2567067,32.5467668 C9.81212189,32.3091859 9.55278073,31.7053346 9.13177235,31.464454 C8.94652866,31.4050588 8.76465304,31.3489633 8.57940935,31.2895681 C7.98999761,31.9033186 7.56225309,31.1476795 7.17829344,30.9232976 C6.83811867,30.7253136 6.54509684,30.7517115 6.30933214,30.4613349 C5.60203806,30.6032234 5.1069322,30.5999237 4.72970868,30.0950644 C4.44342298,30.1808575 4.10998434,30.434937 3.70244823,30.2897487 C3.30501631,30.1346612 -0.032738155,26.9306194 0.000942515676,26.3795638 C0.354589558,26.2805718 0.492680308,26.1254843 0.59372232,25.6833199 C0.613930723,25.1025667 0.634139125,24.5251132 0.654347528,23.94436 C0.667819796,22.4000845 0.681292064,20.8558089 0.694764332,19.3082337 C0.688028198,19.0112576 0.725076936,18.5426954 0.67455593,18.2457193 C0.533097113,17.9091464 -0.480691076,17.5098786 0.280492083,17.2030033 C0.448895436,17.1502076 0.637507192,17.219502 0.772229875,17.2623985 C0.778966009,17.2623985 0.785702143,17.2623985 0.792438277,17.2623985 C0.78907021,14.7677996 0.829487015,6.83853856 0.829487015,6.83853856 Z M17.3027031,5.46914892 C17.15114,5.48234785 16.999577,5.49554679 16.848014,5.50874573 C16.7570762,5.41965291 16.6627703,5.32726035 16.5718325,5.23816753 C16.5920409,5.10287843 16.6122493,4.96758934 16.6324577,4.83230024 C16.8547501,5.04348322 17.0770426,5.2546662 17.3027031,5.46914892 Z" id="Shape" fill="#FF4EB6"></path>
                <path d="M24.9886321,16.5331573 C24.5036305,16.8631307 23.9411633,17.4834807 24.0927263,18.3579102 C24.1533515,18.5789924 24.2106086,18.8033743 24.2712338,19.0244565 C24.2644977,19.0244565 24.2611296,19.0244565 24.2543935,19.0244565 C23.9916843,18.9518624 23.7896002,18.8462709 23.7458154,18.5459951 C23.624565,18.5624938 23.6110927,18.559194 23.5336271,18.5129977 C23.5100507,18.2853161 23.4292171,18.2094222 23.4191129,17.98834 C23.4797381,17.8695496 23.5504675,17.839852 23.6515095,17.7573586 C23.6414053,17.7474594 23.6313011,17.7375602 23.6178288,17.727661 C23.3652238,17.3052951 22.5131028,17.8860483 22.7623398,18.4437033 C22.8970625,18.7505786 23.2574456,18.9749605 23.5167868,19.1597456 C23.9748439,19.4864193 24.4699498,19.961581 24.729291,20.4928382 C24.8101246,20.730419 24.8909582,20.9679999 24.9751598,21.2055808 C25.5039464,23.5945882 22.8768541,24.4129223 20.7111869,24.5713095 C20.8997987,23.5120949 20.8257012,22.7366574 19.6064609,22.8488483 C19.6839265,22.6442648 19.9904206,22.6706627 20.0476777,22.3967848 C20.212713,22.4132834 20.4080609,22.343989 20.5528878,22.3901853 C20.8492777,22.4825778 21.0884104,22.8686467 21.5498356,22.6376653 C22.4356373,23.1986201 23.6851902,22.505676 23.4090087,21.21548 C23.2069246,20.2816552 22.4861583,19.9549815 22.021365,19.3016342 C21.8967465,19.1267483 21.5565718,18.7010826 21.6811903,18.4074063 C22.0752541,18.2193214 22.1560877,17.7672578 22.0617818,17.3085948 C22.6141448,16.8763296 23.1159868,16.9489238 23.7559196,17.1040113 C23.8064406,16.9687222 23.8569616,16.8367328 23.9041145,16.7014437 C23.4191129,16.0810937 22.1426154,15.866611 20.9200071,16.1701865 C20.0746223,16.3813695 19.2831265,16.5298576 18.5017349,16.7905366 C17.5418358,17.1172102 16.5853048,17.4438839 15.6287737,17.7672578 C15.6523502,17.9058467 15.6624544,18.0609342 15.6287737,18.2028227 C15.4637384,18.3447113 15.3189116,18.4503028 15.0157855,18.4305044 C15.0225217,18.2754169 15.0258897,18.1203294 15.0326259,17.9619422 C15.1572443,17.889348 15.288599,17.6715656 15.1774527,17.5164781 C14.8979032,17.4900802 14.3691166,17.9190456 14.1906091,18.1764249 C13.5708847,18.0477352 12.2337621,18.249019 11.6174058,18.4173055 C11.62751,18.8528704 11.2132378,19.2224406 10.8461185,18.9749605 C10.6844513,18.8660693 10.7316042,18.572393 10.5429924,18.4865999 C10.0815673,18.2886158 9.59993367,19.3544299 9.32712024,19.5425148 C9.18902949,19.6382071 8.78149337,19.7899948 8.65687489,19.6118092 C8.4514228,19.3148331 8.93979252,18.8990666 9.07114714,18.7637775 C9.63361434,18.1863241 10.3880614,18.100531 11.374905,17.8728493 C11.775705,17.8563507 12.176505,17.839852 12.577305,17.8233533 C12.378589,17.777157 12.1731369,17.6253693 12.1596646,17.3778892 C12.2169218,17.268998 12.2472344,17.1964038 12.3381722,17.1238097 C12.3482764,17.1238097 12.3583806,17.12051 12.3718529,17.12051 C12.7928613,17.6550669 13.9952612,17.6616664 14.9652645,17.4042871 C16.3259636,17.0446161 17.6159333,16.6750459 18.8924307,16.2724783 L6.54172877,17.3514913 C6.4979439,17.6253693 6.2621792,17.579173 6.19481786,17.8068547 C6.18808173,18.3018148 6.18471366,18.7934751 6.17797752,19.2884353 C6.17797752,20.7997135 6.17460946,22.3109917 6.17460946,23.8189701 C6.17460946,25.2444553 6.15776912,26.438959 5.17429354,26.9240199 C4.56130533,27.2275955 3.55088521,26.4125611 3.03220288,26.3993622 C3.01873061,26.6204444 3.01199448,26.848126 3.07935582,27.0131127 C2.98504994,27.1055053 2.84359112,27.1154045 2.68529197,27.1517016 C2.03862309,27.3100888 1.7927542,26.9207202 1.5266769,26.6204444 C1.01136264,26.9834151 0.445527369,27.1286034 0.196290406,26.4818556 C0.196290406,26.4752561 0.196290406,26.4719564 0.196290406,26.4653569 C0.92716096,26.3861633 0.853063485,24.9771768 0.853063485,24.1588428 C0.853063485,22.7465566 0.853063485,21.3342704 0.853063485,19.9219842 C0.853063485,19.3577297 0.974313899,18.4800004 0.792438277,18.0444355 C0.684660131,17.790356 0.395006363,17.7738573 0.199658473,17.6187698 C0.199658473,17.5923719 0.199658473,17.5659741 0.199658473,17.5395762 C0.240075278,17.4933799 0.28386015,17.4471836 0.324276955,17.4009874 C0.516256778,17.3844887 0.745285338,17.4768812 0.981050033,17.5989714 L0.981050033,7.02992314 L13.1060915,6.03340345 C12.3078596,5.77602419 12.0653588,4.95769013 12.2404983,4.41983348 C12.4661587,3.72358959 13.3149116,3.77638533 13.3149116,3.77638533 L13.783073,3.89517576 L13.5405721,3.72688932 C13.5405721,3.72688932 14.3421721,3.30122362 14.7699166,3.72688932 C15.291967,4.24494757 15.3626964,5.46254945 14.5846729,5.91131328 L24.8471733,5.06658136 L24.8471733,15.6224307 C25.1772439,15.7544201 25.4399531,15.9425049 25.5982523,16.2064836 C25.3961682,16.3153748 25.1907161,16.4242661 24.9886321,16.5331573 Z M20.9301113,12.8935506 C21.0749382,13.124532 21.266918,13.3258158 21.5060508,13.4974019 C21.4993146,14.2464416 21.4959466,14.7941974 21.4959466,15.1373698 C21.4959466,15.1571682 21.5026827,15.1703671 21.516155,15.1835661 C21.5296272,15.196765 21.5464676,15.2000647 21.566676,15.2000647 C21.8563297,15.1868658 22.1021986,15.1703671 22.3076507,15.1505687 C22.5063667,15.13407 22.7151868,15.1109719 22.9408473,15.0812743 C22.9374793,14.7051046 22.9341112,14.1342506 22.924007,13.3753118 C23.1564036,13.1674285 23.3483835,12.9331474 23.4932103,12.6757682 C23.7020305,12.2600017 23.8973784,11.6561503 24.0826221,10.8642141 C23.8670658,10.8576147 23.6178288,10.8642141 23.3416473,10.890612 C23.1429314,10.9071107 22.9509515,10.9302088 22.7758121,10.9566067 C22.7522356,10.9599064 22.7320272,10.9698056 22.7118188,10.9830046 C22.6916104,10.9962035 22.6781381,11.0160019 22.6680339,11.0358003 C22.5467835,11.4053705 22.3952205,11.920129 22.2133449,12.5800759 C22.0247331,11.9267285 21.8731701,11.4383679 21.7620239,11.1116942 C21.7552877,11.0918958 21.7418155,11.0786969 21.718239,11.0654979 C21.6980306,11.0555987 21.6744541,11.0489993 21.6542457,11.0489993 C21.4757382,11.052299 21.2871264,11.0621982 21.0850424,11.0786969 C20.8088609,11.101795 20.5596239,11.1347923 20.3440676,11.1809886 C20.5293113,11.9465269 20.7246592,12.5173809 20.9301113,12.8935506 Z M17.050098,14.5005211 C17.0534661,14.9228871 17.0568342,15.2396615 17.0568342,15.4541442 C17.0568342,15.4739427 17.0635703,15.4871416 17.0770426,15.5003405 C17.0905148,15.5135395 17.1073552,15.5168392 17.1275636,15.5168392 C17.1444039,15.5168392 17.201661,15.5168392 17.3060711,15.5168392 C17.4104812,15.5168392 17.4711064,15.5168392 17.4946829,15.5168392 C17.5182594,15.5168392 17.5721484,15.5168392 17.6597182,15.5168392 C17.7472879,15.5168392 17.8045451,15.5168392 17.8382257,15.5135395 C17.8685383,15.5135395 17.9224274,15.5102397 17.9931568,15.5102397 C18.0638862,15.5102397 18.1211434,15.50694 18.1615602,15.5036403 C18.201977,15.5003405 18.252498,15.4970408 18.306387,15.4970408 C18.3602761,15.4937411 18.4141652,15.4904413 18.4613181,15.4871416 C18.5994089,15.4739427 18.7273954,15.4607437 18.8419097,15.4376456 C18.956424,15.4178472 19.0709383,15.3914493 19.1854526,15.358452 C19.2999668,15.3254546 19.4010088,15.2858578 19.4919467,15.2396615 C19.5828845,15.1934653 19.6738223,15.1373698 19.758024,15.0713751 C19.8422256,15.0053804 19.9163231,14.9294865 19.9836844,14.8469932 C20.0476777,14.7644998 20.1083029,14.6688075 20.162192,14.5599163 C20.2160811,14.4510251 20.2598659,14.3322347 20.2935466,14.2002453 C20.3272273,14.0682559 20.3541718,13.9197679 20.3710122,13.7580809 C20.3878525,13.596394 20.3979567,13.4182083 20.3979567,13.2301235 C20.3979567,12.9100493 20.3676441,12.6295719 20.3070189,12.391991 C20.2463937,12.1544102 20.162192,11.9597259 20.0577819,11.8079381 C19.9500038,11.6561503 19.8152811,11.5373599 19.6502458,11.4482671 C19.4852105,11.362474 19.306703,11.3030788 19.1113551,11.2799806 C18.9160072,11.2535828 18.6937148,11.250283 18.4444778,11.2733812 C18.0470459,11.3063785 17.5822526,11.3855721 17.0602022,11.5076623 C17.0602022,11.7386437 17.0568342,12.0752165 17.0534661,12.5140812 C17.050098,12.9529458 17.04673,13.2895187 17.04673,13.5205001 C17.0433619,13.7481817 17.04673,14.0781551 17.050098,14.5005211 Z M1.86011554,18.0543347 C2.01167856,18.100531 2.3552214,18.0906318 2.43942308,18.2127219 C2.44615921,18.2391198 2.44952728,18.2655177 2.45626341,18.2919156 C1.97462982,18.4767007 2.14303317,19.2719366 2.14303317,19.8691885 C2.14303317,21.2418778 2.14303317,22.6145672 2.13966511,23.9839569 C2.13966511,24.4921159 2.0790399,25.2543545 2.43605501,25.3698452 C2.48320795,25.3665454 2.53036089,25.3632457 2.57751383,25.359946 C2.96820961,25.1619619 2.87727179,24.3007313 2.87727179,23.7397765 C2.87727179,22.6508643 2.87727179,21.5652518 2.88063986,20.4763395 C2.88063986,20.1199682 2.94463314,19.0640533 2.78633398,18.9155653 C2.72570878,18.8594698 2.59435416,18.8627696 2.53372895,18.8099738 C2.54383315,18.7472789 2.55393736,18.6812842 2.56404156,18.6185892 C2.58088189,18.6119898 2.59435416,18.6053903 2.6111945,18.5987908 C2.74591718,18.5360959 3.72265663,19.0409552 4.20092215,18.9287642 C4.38279778,18.8858677 4.48047172,18.968361 4.50068012,19.1102496 C4.41984651,19.2653371 4.22786669,19.2851355 4.17060955,19.453422 C4.16387342,20.9284031 4.15713728,22.406684 4.15040115,23.8816651 C4.15040115,24.4096225 4.03588687,25.3269486 4.41647845,25.4457391 C4.92168851,25.6107258 4.8913759,24.6966994 4.8913759,24.2842327 C4.8913759,22.9313417 4.89474397,21.575151 4.89474397,20.2189603 C4.89474397,19.862589 4.97220951,18.8033743 4.78696582,18.6878837 C4.63540281,18.6119898 4.46026332,18.671385 4.44005492,18.4470031 C4.58824987,18.2886158 4.89474397,18.2391198 5.08672379,18.1236291 C5.4437389,17.9124461 5.74012881,17.6352685 6.06009518,17.3976876 L1.35153741,17.8068547 C1.5367811,17.9124461 1.71192059,18.0081384 1.86011554,18.0543347 Z M3.33532892,14.2728394 C3.35216925,14.154049 3.37574572,14.055057 3.40269026,13.9824628 C3.42963479,13.9098687 3.46668353,13.8504735 3.50710034,13.8042772 C3.54751714,13.7580809 3.59130201,13.7283833 3.63508689,13.7118847 C3.67887176,13.695386 3.72939276,13.6854868 3.7866499,13.6854868 L4.45015912,13.6722878 L4.6050902,12.5668769 C4.42995071,12.5404791 4.28512383,12.5239804 4.16387342,12.5140812 C4.04599107,12.504182 3.91800452,12.5074817 3.78328184,12.5173809 C3.53067681,12.5371793 3.30501631,12.5800759 3.10966842,12.6394711 C2.91095247,12.6988663 2.72907684,12.7879591 2.56404156,12.9034498 C2.39900627,13.0189405 2.26091552,13.1641288 2.14976931,13.335715 C2.04199116,13.5073011 1.95442142,13.7184841 1.89379621,13.9692639 C1.833171,14.2200437 1.8028584,14.5071206 1.8028584,14.8304945 C1.8028584,15.0218791 1.8129626,15.2000647 1.82980294,15.358452 C1.85001134,15.5201389 1.87358781,15.6620275 1.91063655,15.7907171 C1.94431722,15.9194068 1.99147015,16.0315977 2.04535923,16.1305897 C2.0992483,16.2295818 2.15987351,16.3153748 2.22723485,16.3912687 C2.29459619,16.4638629 2.36869367,16.5265578 2.45626341,16.5793536 C2.54383315,16.6321493 2.6314029,16.6717461 2.72570878,16.7014437 C2.82001465,16.7311413 2.92442473,16.7542395 3.03893901,16.7674384 C3.15345329,16.7806374 3.27133564,16.7872368 3.38584992,16.7872368 C3.50373227,16.7872368 3.63171882,16.7806374 3.77317764,16.7674384 C4.03925493,16.7443403 4.31543643,16.6948443 4.60172214,16.6189504 L4.45352718,15.5300381 L3.79001797,15.6290302 C3.7260247,15.6389294 3.67213562,15.6389294 3.62835075,15.6290302 C3.58119781,15.619131 3.54078101,15.5960328 3.49699614,15.5597357 C3.45657933,15.5234387 3.42289866,15.4673432 3.39595412,15.3980488 C3.36900959,15.3287544 3.34880118,15.2330621 3.33532892,15.1175714 C3.32185665,15.0020807 3.31175245,14.8601921 3.31175245,14.6985051 C3.30838438,14.5335184 3.31848858,14.3916299 3.33532892,14.2728394 Z M4.24133896,7.5974774 C4.11672048,7.5875782 3.98199779,7.5875782 3.84053898,7.60077713 C3.57446168,7.62387527 3.33532892,7.66677182 3.12650876,7.72946676 C2.9176886,7.79216171 2.72570878,7.88455427 2.54720122,8.00664443 C2.37206173,8.12873459 2.22723485,8.28052236 2.1093525,8.46200773 C1.99483822,8.6434931 1.90390041,8.86457529 1.83990714,9.12855401 C1.77591386,9.39253274 1.74223319,9.69610828 1.74223319,10.0359809 C1.74223319,10.2405644 1.75233739,10.4253495 1.7725458,10.5936359 C1.7927542,10.7619224 1.81969873,10.9170099 1.85674747,11.0489993 C1.89379621,11.1842883 1.94094915,11.3030788 1.99820629,11.4086703 C2.05546343,11.5142618 2.1194567,11.6066543 2.19018611,11.6825482 C2.26091552,11.7584421 2.34174913,11.8244368 2.43268694,11.8805322 C2.52362475,11.9366277 2.61793063,11.9795243 2.71897264,12.0125216 C2.81664659,12.0455189 2.9277928,12.0686171 3.04904322,12.081816 C3.17029363,12.0983147 3.29154404,12.1049142 3.41616253,12.1049142 C3.54078101,12.1049142 3.67550369,12.0983147 3.82369864,12.0851158 C4.10324821,12.0620176 4.39627004,12.0092219 4.69939608,11.9300282 L4.54446499,10.7784211 L3.84390704,10.8807128 C3.7765457,10.890612 3.71928856,10.890612 3.67213562,10.8807128 C3.62498268,10.8708136 3.57782975,10.8444157 3.53404487,10.8081187 C3.49026,10.7685219 3.45321126,10.7124264 3.42626673,10.6365325 C3.39932219,10.5606386 3.37574572,10.4616466 3.36227345,10.3395564 C3.34543312,10.2174663 3.33869698,10.0689782 3.33869698,9.89739206 C3.33869698,9.72580588 3.34880118,9.57731785 3.36564152,9.45192795 C3.38248186,9.32653806 3.40605832,9.2242463 3.43637093,9.14505268 C3.46668353,9.06585907 3.50373227,9.00316412 3.54751714,8.95696784 C3.59130201,8.90747183 3.63845495,8.87777422 3.68560789,8.85797582 C3.73276083,8.84147715 3.7866499,8.83157795 3.84390704,8.82827821 L4.54446499,8.81507928 L4.70950028,7.64697341 C4.52088853,7.62717501 4.36595744,7.6073766 4.24133896,7.5974774 Z M4.79033389,14.5665158 C4.79033389,14.837094 4.80717423,15.0746748 4.8408549,15.2792583 C4.87453557,15.4871416 4.92842464,15.6653272 5.00252212,15.817115 C5.07661959,15.9689028 5.1675574,16.0942927 5.27533555,16.1965844 C5.3831137,16.2955764 5.51110024,16.3747701 5.66266326,16.4308655 C5.81422628,16.486961 5.98262963,16.5199584 6.16450526,16.536457 C6.34638088,16.5529557 6.55520104,16.549656 6.78759766,16.5298576 C7.04357076,16.4935605 7.26923126,16.4209663 7.47468335,16.3087754 C7.67676737,16.1965844 7.84853879,16.0447967 7.99336568,15.8567118 C8.13819256,15.668627 8.24597071,15.4376456 8.32343625,15.1703671 C8.40090179,14.8997889 8.43795053,14.5962134 8.43795053,14.2596405 C8.43795053,13.9923621 8.42111019,13.7547812 8.38406146,13.546898 C8.35038079,13.3390147 8.29312365,13.1608291 8.21902617,13.0090413 C8.14492869,12.8572535 8.05399088,12.7318636 7.94621274,12.6295719 C7.83843459,12.5272801 7.70707997,12.4513862 7.55551696,12.3952908 C7.40395394,12.3391953 7.23555058,12.3028982 7.05367496,12.2896993 C6.87179934,12.2732006 6.66297918,12.2765003 6.43058255,12.2962987 C6.17797752,12.3292961 5.94894896,12.40519 5.74686494,12.5173809 C5.54478092,12.6295719 5.37300949,12.7813596 5.23155068,12.9694445 C5.09009186,13.1575293 4.98231371,13.3885107 4.90484817,13.6590889 C4.8307507,13.9263674 4.79033389,14.2299429 4.79033389,14.5665158 Z M8.65350682,7.32689921 C8.65350682,7.3071008 8.64677069,7.29060213 8.62993035,7.27740319 C8.61645808,7.26420426 8.59624968,7.25760479 8.57604128,7.26090452 C8.26617911,7.27410346 8.00683794,7.29060213 7.79801779,7.3071008 C7.59593376,7.32359947 7.37364133,7.34669761 7.13450857,7.37969495 C7.12440437,7.79216171 7.11766824,8.33001837 7.11766824,8.99986438 L6.61582624,9.04276093 C6.61582624,8.46200773 6.60909011,7.94724921 6.59898591,7.49848538 C6.59898591,7.47868697 6.59224977,7.4621883 6.57540944,7.44898937 C6.5585691,7.43579043 6.54172877,7.42919096 6.52152037,7.4324907 C6.2116582,7.44568963 5.95231703,7.4621883 5.74349687,7.47868697 C5.54141285,7.49518564 5.31912042,7.51828378 5.07998766,7.55128112 C5.05977926,8.33991757 5.04967506,9.07575827 5.04967506,9.76210296 C5.04967506,10.2636625 5.05977926,10.9731054 5.07998766,11.8937312 C5.07998766,11.9135296 5.08672379,11.9300282 5.10356413,11.9432272 C5.12040446,11.9564261 5.1372448,11.9630256 5.1574532,11.9597259 C5.46731537,11.9432272 5.72665654,11.9267285 5.9354767,11.9102298 C6.13756072,11.8937312 6.35985315,11.8673333 6.59898591,11.8376357 C6.60909011,11.4449673 6.61582624,10.9302088 6.61582624,10.2900604 L7.11766824,10.2471639 C7.1210363,10.9071107 7.12440437,11.3954713 7.13450857,11.7188453 C7.13450857,11.7386437 7.14124471,11.7551423 7.15808504,11.7683413 C7.17492538,11.7815402 7.19176571,11.7881397 7.21197412,11.78484 C7.52183629,11.7683413 7.78117745,11.7518426 7.98999761,11.7353439 C8.19208163,11.7188453 8.41437406,11.6924474 8.65350682,11.6627498 C8.67371522,10.8774131 8.68381943,10.1415724 8.68381943,9.45522769 C8.68381943,8.95696784 8.67371522,8.24752501 8.65350682,7.32689921 Z M12.2472344,10.2009676 C12.2472344,10.1811692 12.2404983,10.1646705 12.2236579,10.1514716 C12.2101856,10.1382726 12.1899772,10.1316732 12.1697688,10.1349729 C11.8969554,10.1481718 11.4490025,10.1811692 10.8326462,10.2339649 L10.7417084,10.2405644 C10.7383403,10.072278 10.7383403,9.94358833 10.7349723,9.85779525 L11.7150798,9.77530189 C11.7184479,9.60041599 11.7218159,9.43542928 11.7218159,9.28364152 C11.7218159,9.11535508 11.7184479,8.93056997 11.7150798,8.73258592 C11.7150798,8.71278752 11.7083437,8.69628885 11.6915033,8.68308991 C11.6780311,8.66989098 11.6578226,8.66329151 11.6376142,8.66659124 C11.4860512,8.67319071 11.1829252,8.69298912 10.7316042,8.72928619 C10.7316042,8.64019337 10.7349723,8.51150374 10.7383403,8.3432173 C10.822542,8.33661783 10.920216,8.33001837 11.024626,8.32011916 C11.6140378,8.27062315 12.0114697,8.23432608 12.2236579,8.20462847 C12.227026,8.03634203 12.2303941,7.85815639 12.2303941,7.66347208 C12.2303941,7.53808219 12.227026,7.32689921 12.2236579,7.02992314 C12.2236579,7.01012473 12.2169218,6.99362606 12.2000814,6.98042713 C12.1866092,6.96722819 12.1664008,6.96062872 12.1461924,6.96392846 C11.8363302,6.97712739 11.3984815,7.01012473 10.8292782,7.05632101 C10.0243101,7.12231569 9.49889166,7.1718117 9.25975889,7.20150931 C9.23955049,7.98684602 9.22944629,8.72268672 9.22944629,9.40903141 C9.22944629,9.90729126 9.23955049,10.6200338 9.25975889,11.5373599 C9.25975889,11.5571583 9.26649503,11.573657 9.28333536,11.5868559 C9.29680763,11.6000548 9.31701604,11.6066543 9.33722444,11.6033546 C9.47194712,11.5967551 9.74139249,11.5802564 10.1489286,11.5538586 C10.5564647,11.5274607 10.8191739,11.5076623 10.9471605,11.4977631 C11.5702529,11.4449673 12.0047336,11.4020708 12.2438663,11.3723732 C12.2472344,11.2040868 12.2506025,11.0259011 12.2506025,10.8312168 C12.2539705,10.7091266 12.2506025,10.4979437 12.2472344,10.2009676 Z M12.0215739,11.8640336 C11.9979974,11.8673333 11.9676848,11.8937312 11.9340041,11.9399275 L11.0380983,13.794378 L10.1388244,12.0917152 C10.1219841,12.0488187 10.0950395,12.0257205 10.0613589,12.0290203 C9.84917063,12.0356197 9.64371854,12.0488187 9.44163452,12.0653173 C9.27323116,12.0785163 9.07788327,12.1016144 8.85222278,12.131312 C8.83201438,12.8737522 8.82191018,13.5699961 8.82191018,14.2200437 C8.82191018,14.6919057 8.83201438,15.3650514 8.85222278,16.2361812 C8.85222278,16.2559796 8.85895891,16.2691786 8.87243118,16.2823775 C8.88590345,16.2955764 8.90274379,16.3021759 8.92295219,16.2988762 C9.21597402,16.2823775 9.44837065,16.2691786 9.62014207,16.2526799 C9.78854543,16.239481 9.98389332,16.2163828 10.2095538,16.1866852 L10.1859773,14.3025371 L10.9606328,15.7742185 L11.0313622,15.7808179 L11.1088277,15.7610195 L11.9238999,14.0748554 C11.9238999,14.2695397 11.927268,14.4708235 11.9340041,14.6820065 C11.9373722,14.8931895 11.9441084,15.1274706 11.9508445,15.3848498 C11.9575806,15.6422291 11.9643168,15.8369134 11.9676848,15.965603 C11.9676848,15.9854014 11.974421,15.9986004 11.9878932,16.0117993 C12.0013655,16.0249982 12.0182058,16.028298 12.0384142,16.028298 C12.3314361,16.0117993 12.5503604,15.9986004 12.6985554,15.9854014 C12.8635907,15.9722025 13.0454663,15.9491044 13.2509184,15.9227065 C13.2711268,15.1802663 13.2778629,14.4840224 13.2778629,13.8372745 C13.2778629,13.3654126 13.2677587,12.6955666 13.2509184,11.8277365 C13.2509184,11.8079381 13.2441822,11.7947392 13.23071,11.7815402 C13.2172377,11.7683413 13.2003974,11.7650415 13.180189,11.7650415 C12.9410562,11.7749407 12.7187638,11.7881397 12.5200478,11.8046384 C12.3348041,11.821137 12.1697688,11.8409354 12.0215739,11.8640336 Z M15.9285317,8.57419869 C16.0699905,8.35971597 16.1407199,8.12213512 16.1407199,7.85815639 C16.1407199,7.68986995 16.1238796,7.54468165 16.0901989,7.41599203 C16.0565182,7.29060213 16.0161014,7.18501064 15.9622124,7.09921755 C15.9116914,7.01342447 15.8375939,6.94413005 15.7466561,6.89133431 C15.6523502,6.83523883 15.5614124,6.79564202 15.4671065,6.76924415 C15.3728006,6.74284627 15.2549183,6.72304787 15.1134595,6.7164484 C14.9686326,6.70984893 14.837278,6.7065492 14.7126595,6.71314867 C14.588041,6.7164484 14.4331099,6.7263476 14.2512343,6.74284627 C14.0390461,6.75934494 13.7898091,6.79234228 13.5068915,6.83853856 C13.2239738,6.88473484 12.9545285,6.93753058 12.7052915,6.9969258 C12.7052915,7.24110612 12.7019234,7.58097873 12.6985554,8.01324389 C12.6951873,8.44550906 12.6918192,8.78538167 12.6918192,9.02956199 C12.6918192,9.27704205 12.6951873,9.65321173 12.6985554,10.158071 C12.7019234,10.6629304 12.7052915,11.0259011 12.7052915,11.2535828 C12.7052915,11.2733812 12.7120276,11.2898798 12.7254999,11.3030788 C12.7389722,11.3162777 12.7591806,11.3228772 12.779389,11.3195774 C13.082515,11.3030788 13.3384881,11.2865801 13.5506763,11.2667817 C13.786441,11.2469833 14.0053654,11.2238852 14.2108175,11.1974873 C14.2108175,10.9797048 14.2040814,10.6596306 14.1939772,10.2372647 C14.183873,9.8148987 14.1771368,9.53442131 14.1771368,9.39583247 L14.2781788,9.38593327 C14.4129015,9.81819844 14.6048813,10.3857527 14.8473822,11.0885961 C14.8541183,11.1083945 14.8709586,11.1248931 14.891167,11.1347923 C14.9147435,11.1479913 14.93832,11.151291 14.9618964,11.151291 C15.1505082,11.1479913 15.3525922,11.1380921 15.5647805,11.1182937 C15.8578023,11.0918958 16.1205115,11.0588985 16.3529081,11.0127022 C16.2047132,10.4055511 16.0059972,9.87099418 15.7567603,9.41563088 C15.6489821,9.24734444 15.5108914,9.14175295 15.342488,9.09885641 C15.591725,8.96026758 15.7870729,8.78538167 15.9285317,8.57419869 Z M16.6324577,14.5335184 C16.6324577,14.51372 16.6257216,14.5005211 16.6122493,14.4873222 C16.598777,14.4741232 16.5819367,14.4675238 16.5617283,14.4708235 C16.3023871,14.4840224 15.8847468,14.5170198 15.3020712,14.5665158 L15.2178695,14.5731152 C15.2145015,14.414728 15.2145015,14.2926379 15.2111334,14.2134442 L16.1339838,14.1342506 C16.1373519,13.9692639 16.1407199,13.8141764 16.1407199,13.6722878 C16.1407199,13.5139006 16.1373519,13.3390147 16.1339838,13.1509299 C16.1339838,13.1311315 16.1272477,13.1179325 16.1137754,13.1047336 C16.1003031,13.0915346 16.0834628,13.0849352 16.0632544,13.0882349 C15.9184275,13.0948344 15.6355099,13.1146328 15.2111334,13.1476301 C15.2111334,13.0651368 15.2145015,12.9430466 15.2178695,12.7846594 C15.2987032,12.7780599 15.389641,12.7714604 15.4873149,12.764861 C16.0396779,12.7186647 16.4169014,12.6790679 16.6189854,12.65267 C16.6223535,12.4942828 16.6257216,12.3226966 16.6257216,12.1412112 C16.6257216,12.0224208 16.6223535,11.8244368 16.6189854,11.5439594 C16.6189854,11.524161 16.6122493,11.510962 16.598777,11.4977631 C16.5853048,11.4845641 16.5684644,11.4779647 16.548256,11.4812644 C16.2586023,11.4944634 15.84433,11.524161 15.3054393,11.5703572 C14.5442561,11.6363519 14.0525183,11.6825482 13.8268578,11.7122458 C13.8066494,12.454686 13.7999133,13.1476301 13.7999133,13.7976777 C13.7999133,14.2695397 13.8100175,14.9393857 13.8268578,15.8072158 C13.8268578,15.8270142 13.833594,15.8402131 13.8470662,15.8534121 C13.8605385,15.866611 13.8773788,15.8732105 13.8975873,15.8699107 C14.0222057,15.8633113 14.2781788,15.8468126 14.6621385,15.8204147 C15.0460981,15.7940169 15.2953351,15.7775182 15.4132174,15.767619 C16.0026292,15.718123 16.4067972,15.6752264 16.6324577,15.6455288 C16.6358258,15.4871416 16.6391938,15.3155554 16.6391938,15.13407 C16.6391938,15.0152796 16.6391938,14.8172956 16.6324577,14.5335184 Z M20.0375735,7.08931835 C20.0038929,6.96392846 19.963476,6.85833697 19.909587,6.77254388 C19.859066,6.68675079 19.7849685,6.61745638 19.6940307,6.56466063 C19.6030929,6.50856515 19.508787,6.46896834 19.4178492,6.44257047 C19.3269114,6.4161726 19.209029,6.39637419 19.0642021,6.38977473 C18.9227433,6.38317526 18.7880206,6.37987552 18.6634022,6.38647499 C18.5387837,6.38977473 18.3872207,6.39967393 18.205345,6.4161726 C17.9931568,6.43267127 17.7472879,6.46566861 17.4643703,6.51186489 C17.1814526,6.55806116 16.9153753,6.61085691 16.6661384,6.66695239 C16.6661384,6.91113271 16.6627703,7.24770559 16.6594023,7.68327049 C16.6560342,8.11553565 16.6526661,8.45540826 16.6526661,8.69958858 C16.6526661,8.94706864 16.6560342,9.32323833 16.6594023,9.82479791 C16.6627703,10.3263575 16.6661384,10.692628 16.6661384,10.9170099 C16.6661384,10.9368083 16.6728745,10.953307 16.6863468,10.9665059 C16.6998191,10.9797048 16.7200275,10.9863043 16.7402359,10.9830046 C17.0399938,10.9665059 17.2959669,10.9500072 17.5081552,10.9302088 C17.7405518,10.9104104 17.9628442,10.8873123 18.1682963,10.8609144 C18.1682963,10.643132 18.1615602,10.3230578 18.151456,9.90069179 C18.1413518,9.47832583 18.1346156,9.19784843 18.1346156,9.06255933 L18.2356576,9.05266013 C18.3703803,9.4849253 18.5589921,10.0524796 18.804861,10.7520232 C18.8115971,10.7718216 18.8284374,10.7883203 18.8486458,10.7982195 C18.8722223,10.8081187 18.8957988,10.8147181 18.9193753,10.8147181 C19.107987,10.8114184 19.310071,10.8015192 19.5222593,10.7817208 C19.8152811,10.7553229 20.0779903,10.7223256 20.3070189,10.6761293 C20.1588239,10.0689782 19.960108,9.53772104 19.710871,9.08235774 C19.6030929,8.9140713 19.4650021,8.80847981 19.2965988,8.76558327 C19.5458357,8.63029417 19.7411836,8.45540826 19.8826424,8.24422528 C20.0241013,8.0330423 20.0914626,7.79216171 20.0914626,7.52818298 C20.0847265,7.35989655 20.0678861,7.21470825 20.0375735,7.08931835 Z M23.3618557,6.02350424 C23.1496675,6.04000291 22.9509515,6.06310105 22.7623398,6.09279866 C22.7387633,6.09609839 22.7151868,6.10599759 22.6916104,6.11919653 C22.6680339,6.1356952 22.6545616,6.15219387 22.6478255,6.17529201 C22.519839,6.56466063 22.3615398,7.10911676 22.1661919,7.80866038 C21.9641079,7.11901596 21.8058087,6.60095771 21.6879264,6.25448563 C21.6811903,6.23468722 21.6643499,6.21818855 21.6441415,6.20828935 C21.620565,6.19839015 21.5969886,6.19179068 21.5734121,6.19179068 C21.3848004,6.19509042 21.1860844,6.20498962 20.9738962,6.22148829 C20.6808743,6.24458643 20.4181651,6.2808835 20.1891365,6.32707978 C20.3878525,7.13551463 20.5966727,7.73936597 20.8122289,8.13863379 C20.96716,8.38281411 21.1692441,8.59399709 21.418481,8.77548247 C21.4117449,9.56741865 21.4083768,10.1448721 21.4083768,10.5111426 C21.4083768,10.530941 21.415113,10.5474397 21.4319533,10.5606386 C21.4454256,10.5738375 21.465634,10.580437 21.4858424,10.5771373 C21.7923365,10.5606386 22.0516776,10.5441399 22.2672339,10.5276413 C22.4760541,10.5111426 22.6983465,10.4847447 22.9374793,10.4550471 C22.9341112,10.0557793 22.9273751,9.45522769 22.9172709,8.65009257 C23.1631398,8.43231012 23.3652238,8.18483007 23.5201549,7.91095214 C23.7390792,7.4720875 23.9478994,6.83193909 24.1432473,5.99710637 C23.9142187,5.9905069 23.6515095,6.0004061 23.3618557,6.02350424 Z M18.5421517,8.03964177 C18.4680543,8.10233671 18.3737484,8.14193352 18.255866,8.15183273 L18.1278795,8.16173193 C18.1278795,8.00334469 18.1278795,7.78226251 18.1312476,7.49848538 C18.1851366,7.49188591 18.2457618,7.48198671 18.3097551,7.47868697 C18.4377417,7.46878777 18.5253114,7.48858618 18.5758324,7.54468165 C18.6263534,7.5974774 18.6499299,7.68657022 18.6499299,7.80536065 C18.653298,7.89445347 18.6162492,7.97694682 18.5421517,8.03964177 Z M14.5914091,8.36961518 C14.5173116,8.43231012 14.4230057,8.47190693 14.3017553,8.48180613 L14.1737688,8.49170534 C14.1737688,8.3333181 14.1737688,8.11223592 14.1771368,7.82515905 C14.2310259,7.81855958 14.2916511,7.80866038 14.3590124,7.80536065 C14.486999,7.79546144 14.5745687,7.81525985 14.6250897,7.87135533 C14.6756107,7.92415107 14.6991872,8.01324389 14.6991872,8.13203432 C14.7025553,8.22442688 14.6655065,8.30362049 14.5914091,8.36961518 Z M6.33290861,13.8306751 C6.34638088,13.7613807 6.35985315,13.7085849 6.37669348,13.6623886 C6.39353382,13.6194921 6.41374222,13.5864948 6.43731869,13.5600969 C6.46089516,13.5369987 6.4878397,13.5205001 6.51141616,13.5106009 C6.53499263,13.5007017 6.56530524,13.4941022 6.60235398,13.4908025 C6.63940271,13.4875027 6.66971532,13.4875027 6.69329179,13.4941022 C6.72023632,13.5007017 6.74718086,13.5106009 6.7741254,13.5303993 C6.80106993,13.5501977 6.8246464,13.5798953 6.8448548,13.6194921 C6.86169514,13.6590889 6.87853548,13.7118847 6.89537581,13.7778793 C6.91221615,13.843874 6.92232035,13.9263674 6.92905648,14.0253594 C6.93579262,14.1276511 6.93916068,14.2431418 6.93916068,14.3784309 C6.93916068,14.5401179 6.93242455,14.6787067 6.92232035,14.7941974 C6.91221615,14.9096881 6.89874388,14.9987809 6.88190354,15.0680754 C6.86506321,15.13407 6.8448548,15.1868658 6.8145422,15.2264626 C6.7842296,15.2660594 6.75728506,15.2891575 6.72697246,15.3023565 C6.69665985,15.3155554 6.66297918,15.3221549 6.61919431,15.3287544 C6.57540944,15.3320541 6.5383607,15.3320541 6.5080481,15.3221549 C6.47773549,15.3155554 6.44742289,15.2924573 6.41711029,15.2594599 C6.38679768,15.2264626 6.36322121,15.1769666 6.34638088,15.1142716 C6.32954054,15.0515767 6.31606827,14.9624839 6.30259601,14.8502929 C6.2924918,14.738102 6.28575567,14.5995131 6.28575567,14.4378262 C6.28575567,14.3025371 6.28912374,14.1837466 6.29585987,14.0814549 C6.30933214,13.9824628 6.31943634,13.8966698 6.33290861,13.8306751 Z M18.5825685,12.4645852 C18.6263534,12.4612854 18.6634022,12.4645852 18.6903467,12.4711846 C18.7206593,12.4777841 18.7476038,12.5008822 18.7779164,12.5338796 C18.808229,12.5668769 18.8318055,12.6163729 18.8486458,12.6790679 C18.8654862,12.7417628 18.8789585,12.8308557 18.8924307,12.9430466 C18.9025349,13.0552376 18.9092711,13.1905267 18.9092711,13.3522136 C18.9092711,13.4875027 18.905903,13.6062932 18.8991669,13.7085849 C18.8924307,13.8108767 18.8823265,13.89337 18.8688542,13.9626644 C18.855382,14.0286591 18.8385416,14.0847546 18.8217013,14.1309509 C18.804861,14.1738474 18.7812845,14.2068448 18.75434,14.2299429 C18.7273954,14.253041 18.7004509,14.2695397 18.6768744,14.2794389 C18.6499299,14.2893381 18.6196173,14.2959376 18.5859366,14.2992373 L18.4646862,14.3091365 C18.4579501,13.9758634 18.4512139,13.6722878 18.4512139,13.3951102 C18.4512139,13.1674285 18.454582,12.8605533 18.4646862,12.4777841 L18.5825685,12.4645852 Z M14.1805049,2.09682068 C13.7460242,1.62495871 13.833594,0.809924393 13.833594,0.809924393 L14.7328679,1.79324515 L14.0558864,0.641637955 C14.0558864,0.641637955 14.8271738,0.793425722 15.1976611,1.33788185 C15.5142594,1.80314435 15.440162,2.67757388 15.440162,2.67757388 C15.440162,2.67757388 14.7328679,2.69737229 14.1805049,2.09682068 Z M13.5910931,0.793425722 C13.5910931,0.793425722 13.1768209,1.4203752 13.1397722,2.13311776 C13.1060915,2.81946245 13.4530024,3.59160022 13.4530024,3.59160022 L13.1936612,3.66089464 C13.1936612,3.66089464 12.8467503,2.91515474 12.8467503,2.16941483 C12.8467503,1.52596669 13.1936612,0.866019872 13.1936612,0.866019872 C13.1936612,0.866019872 12.5503604,1.17289514 12.1360882,1.67775446 C11.7352882,2.16941483 11.5635168,2.86235899 11.5635168,2.86235899 L11.3041756,2.82936165 C11.3041756,2.82936165 11.3984815,2.05392414 11.9979974,1.39067759 C12.631194,0.691133966 13.2980713,0.509648591 13.2980713,0.509648591 C13.2980713,0.509648591 13.5675167,0.0773834266 13.7999133,0.288566408 C14.0525183,0.51624806 13.5910931,0.793425722 13.5910931,0.793425722 Z M11.4961554,2.99434836 C11.4961554,2.99434836 11.9710529,2.94815208 12.328068,3.16263479 C12.627826,3.34412017 12.6581386,3.75658693 12.6581386,3.75658693 C12.6581386,3.75658693 12.2943873,3.87537736 12.1226159,4.33404039 C11.9912613,4.68051247 12.0889352,5.14577498 12.0889352,5.14577498 C12.0889352,5.14577498 11.2570227,5.60773775 10.5261521,5.27116487 C10.3779572,5.20187046 9.77507316,4.76300582 9.70097568,4.2284489 C9.62687821,3.70049145 9.93337231,3.14613612 9.98389332,3.08014144 C10.3644849,2.57858186 10.9572647,2.80296378 11.3109117,3.00754729 C11.4894193,3.10983905 11.6073016,3.2121308 11.6073016,3.2121308 L11.4961554,2.99434836 Z M5.4437389,27.2407944 C5.89505989,27.2836909 6.34974895,27.3232877 6.804438,27.3661843 C6.804438,27.4519774 6.804438,27.5344707 6.804438,27.6202638 C6.67981952,27.6697598 6.63603465,27.8017492 6.53499263,27.8776431 C6.07356745,28.2208154 5.66603133,28.0723274 5.33259269,27.8380463 C5.33259269,27.8479455 5.33259269,27.8578447 5.33259269,27.8710436 C5.02273052,28.2043167 4.2985961,28.300009 4.49731206,27.5839667 C3.84390704,27.6433619 2.94463314,27.2935901 3.14334909,26.5577494 C3.85401125,26.8349271 4.60172214,27.0857069 5.4437389,27.2407944 Z M10.2230261,26.4983542 C9.82559416,26.5148529 9.59319753,26.2541739 9.24965469,26.1881792 C9.0239942,26.1419829 8.86906311,26.2805718 8.67708329,26.2607734 C8.66697909,26.2343755 8.65687489,26.2079776 8.64677069,26.1848795 C8.70402783,26.1056859 8.85222278,26.0000944 8.88590345,25.9275002 C8.90274379,25.5612297 8.91958412,25.1916595 8.93642446,24.825389 C8.93642446,23.9971558 8.93979252,23.1689225 8.93979252,22.3373895 C8.93979252,21.786334 9.04083454,20.9943978 8.38406146,21.1692837 C7.85864299,21.3078725 7.98662954,22.0107159 7.98326147,22.6178669 C7.98326147,23.3141108 7.97989341,24.0103547 7.97989341,24.7032989 C7.97989341,25.1388638 7.94621274,25.6239247 8.07419929,25.9209008 C8.1550329,26.1089856 8.29985978,26.1683808 8.45479086,26.2739723 C8.43458246,26.3003702 8.41100599,26.3300678 8.39079759,26.3597654 C8.25607491,26.4224603 8.15840096,26.4620571 7.99336568,26.4356593 C7.97989341,26.6039457 7.94284467,26.7326353 7.81822619,26.79863 C7.69023964,26.8877228 7.55214889,26.8019298 7.50162788,26.7095372 C7.49152368,26.7161367 7.48141948,26.7227361 7.47131528,26.7293356 C7.47468335,27.122004 7.30291193,27.6268633 6.91558421,27.6598606 C6.91895228,25.4655375 6.92232035,23.2712143 6.92232035,21.0768911 C6.92232035,20.5126366 7.03346656,18.7901754 6.8448548,18.4734009 C6.73370859,18.4536025 6.67308338,18.4272047 6.60572204,18.3645097 C6.61245818,18.3216132 6.61582624,18.2787166 6.62256238,18.2358201 C6.63940271,18.2292206 6.65287498,18.2226211 6.66971532,18.2160217 C6.78759766,18.199523 6.90211194,18.1863241 7.01999429,18.1698254 C7.46457915,18.0246371 7.99336568,17.7309608 8.30659591,18.1929235 C8.30659591,18.2127219 8.30659591,18.2358201 8.30659591,18.2556185 C8.29649171,18.2655177 8.28638751,18.2787166 8.27628331,18.2886158 C8.1954497,18.3051145 8.11798416,18.3216132 8.03715055,18.3414116 C7.95631694,18.4305044 7.98999761,18.7010826 7.98999761,18.8561701 C7.99336568,19.3973265 8.00010181,19.9384829 8.00346988,20.4796393 C8.51878414,20.0869709 9.47868325,20.024276 9.80201769,20.5126366 C10.0781992,20.9251034 10.0074698,21.7566363 10.0074698,22.4594797 C10.0041017,23.5912885 10.0041017,24.726397 10.0007337,25.8582058 C10.0512547,26.0990864 10.2331303,26.2013782 10.2567067,26.4455585 C10.2466025,26.4620571 10.2331303,26.4818556 10.2230261,26.4983542 Z M12.3920613,22.8224505 C12.3987974,22.8059518 12.4021655,22.7894531 12.4089016,22.7729544 C12.5065756,22.5650712 13.2408142,22.1493047 13.5675167,22.1889015 C13.5742528,22.1988007 13.5776209,22.2086999 13.584357,22.2185991 C13.5203637,22.3142914 13.4563705,22.4099837 13.3923772,22.505676 C13.2610226,22.9280419 13.3586965,23.7760736 13.3553285,24.2710337 C13.3553285,24.6208055 13.4125856,25.1124659 13.2711268,25.3500468 C13.0690428,25.6965188 12.3718529,25.7823119 11.9542126,25.9275002 C11.6881353,26.0198928 11.2435504,26.2607734 10.9606328,26.1122853 C10.6406664,25.9439989 10.7046597,25.3302484 10.7080277,24.8220893 C10.7113958,23.7694741 10.7113958,22.7135592 10.7147639,21.6609441 C10.7147639,21.2451776 10.6440345,20.6380265 10.8292782,20.3740478 C11.1189319,19.9549815 12.4190058,19.9252839 12.930952,19.6448065 C13.0993554,19.6316076 13.2037654,19.6547057 13.2677587,19.7470983 C13.3991133,19.9285837 13.4395301,21.5223552 13.3452243,21.872127 C12.5672008,21.9282225 12.0956714,22.3901853 11.8969554,22.9907369 C12.2236579,22.9709385 12.4863671,23.2844132 12.2640747,23.6176864 C12.02831,23.9707579 11.7285521,23.69688 11.5433084,23.5747898 C11.5332042,23.9509595 11.4995235,24.3733255 11.6847672,24.5383122 C12.4358461,24.4822167 12.5200478,24.2809329 12.5200478,23.5153946 C12.5166798,23.2910127 12.5099436,23.0666308 12.5065756,22.8455486 C12.4661587,22.8356494 12.42911,22.8290499 12.3920613,22.8224505 Z M11.5567806,22.9016441 C11.5567806,22.8917449 11.5567806,22.8818457 11.5567806,22.8686467 C11.6645588,22.6310659 11.7723369,22.393485 11.8801151,22.1559042 C12.0687268,21.83583 12.3112277,21.5520528 12.5234159,21.2583765 C12.526784,21.0702917 12.5200478,20.8888063 12.4762629,20.7667161 C12.3987974,20.7370185 12.3550125,20.7172201 12.2371302,20.7205198 C12.02831,20.8294111 11.7352882,20.8096127 11.6106697,20.9943978 C11.5298361,21.1131882 11.472579,22.70366 11.5567806,22.9016441 Z M7.80138585,28.5969851 C8.59624968,28.4517968 9.94347651,27.7885502 10.317332,27.2869907 C9.71107988,27.4717758 7.89569173,27.9601364 7.19850185,27.6862585 C7.21534218,27.6631604 7.22881445,27.6400622 7.24565479,27.6202638 C7.3466968,27.5542691 7.37364133,27.4387784 7.45110688,27.3496856 C7.86201106,27.4354787 8.83875051,27.2572931 9.23281436,27.158301 C10.6440345,26.79863 11.8666428,26.4191606 13.0252579,25.8615055 C13.3048074,25.7229167 13.584357,25.5843279 13.8605385,25.4490388 C13.8773788,25.4490388 13.8942192,25.4457391 13.9076915,25.4457391 C13.9110595,25.6173252 13.9312679,25.868105 13.8740108,25.9934949 C13.3216478,26.2739723 12.7692848,26.5544497 12.2169218,26.8349271 C11.2435504,27.3331869 10.1522967,27.7951497 9.44837065,28.5474891 C9.24291856,28.7652715 8.53562447,29.7617912 8.22239424,29.5737064 L8.22239424,29.540709 C8.13145643,29.2239346 8.46826313,28.9929532 8.60635388,28.8147675 C8.10114382,29.0259505 7.0604111,29.6265021 6.82801447,28.7817702 C6.60572204,27.9337385 8.03715055,27.7357545 7.80138585,28.5969851 Z M14.0424141,24.7461954 C14.0457822,23.373506 14.0491503,22.0008167 14.0525183,20.6248276 C14.0525183,20.2552573 14.1400881,18.9155653 13.9750528,18.770377 C13.9110595,18.8132735 13.884115,18.8264725 13.7965452,18.8165733 C13.7561284,18.621889 14.638562,17.8233533 14.8642225,17.6847645 C14.8844309,17.691364 15.0764107,17.5527751 15.1201956,17.6088706 C15.1639805,17.6649661 15.0797788,17.7342605 15.0797788,17.7441597 C15.0056813,17.8266531 14.9686326,17.8761491 14.8945351,17.9553427 C14.887799,18.4701012 14.8810628,18.9848597 14.8743267,19.4996182 C14.8709586,20.9614004 14.8675906,22.4231826 14.8642225,23.8816651 C14.8642225,24.4228215 14.6688746,25.769113 15.2481821,25.6338239 C15.2481821,25.6668212 15.2481821,25.6965188 15.2481821,25.7295162 C15.1673485,25.9439989 15.0797788,26.0231925 14.8608544,26.1089856 C14.9147435,26.227776 14.9113754,26.3201686 14.8440141,26.4323595 C14.7631805,26.4587574 14.6823469,26.4851553 14.6015133,26.5148529 C14.4971032,26.4653569 14.4971032,26.4290598 14.4095334,26.4818556 C14.3017553,26.6930385 13.9885251,26.7260359 13.7157116,26.6930385 C14.0895671,26.2574736 14.0424141,25.5348319 14.0424141,24.7461954 Z M18.2693383,23.1293257 C18.151456,23.3834052 17.9662123,23.3933045 17.700135,23.3504079 C17.5856207,23.5582912 15.9622124,24.3403281 15.6893989,24.3040311 C15.4165855,23.957559 15.5647805,22.2977927 15.5647805,21.6477451 C15.5647805,21.3936656 15.4974191,20.9185039 15.6624544,20.8063129 C15.8140174,20.6776233 17.0164174,20.8294111 16.8614863,20.4400424 C16.8379098,20.3806472 16.7368678,20.3179523 16.6998191,20.2288595 C16.7368678,20.1067693 16.7705485,20.0308754 16.8783266,19.9747799 C17.0130493,19.8988861 17.1275636,19.9714802 17.2353417,20.011077 C17.2387098,19.7833954 17.248814,19.5095174 17.2050291,19.3379313 C17.1713484,19.3181329 17.1410358,19.3016342 17.1073552,19.2818358 C16.6796107,19.1894432 16.2417619,19.539215 16.3428039,19.9879789 C16.3865888,20.0176765 16.4303737,20.0440744 16.4707905,20.073772 C16.4674224,20.1463661 16.4606863,20.1628648 16.4371098,20.2057613 C16.0497821,20.2882547 15.8039132,20.5258355 15.4805788,20.6347268 C15.4738426,20.6281273 15.4704746,20.6248276 15.4637384,20.6215278 C15.4704746,20.4664403 15.5277317,20.4499417 15.5614124,20.3575491 C15.5614124,20.2453581 15.5614124,20.1331672 15.5614124,20.0209762 C15.5614124,19.5458145 15.494051,18.9914592 15.7736006,18.7670773 C16.194609,18.4305044 17.097251,18.4239049 17.5889888,18.1368281 C17.6866627,18.1401278 17.7843367,18.1434275 17.8820106,18.1467273 C18.0436778,18.3645097 17.9931568,18.8561701 17.9931568,19.2488384 C17.9897887,20.1133688 17.9897887,20.9778991 17.9864207,21.8424294 C17.9931568,22.406684 17.8584341,22.9511401 18.2693383,23.1293257 Z M17.2050291,20.4565411 C17.0938829,20.9152042 16.6156174,21.0471935 16.3293317,21.3441696 C16.3225955,21.773135 16.2114493,22.667363 16.4404779,22.8785459 C17.4037451,22.8125513 17.2353417,22.2119997 17.2387098,21.3045728 C17.2353417,21.1098885 17.3128073,20.5687321 17.2050291,20.4565411 Z M21.7653919,21.6345462 C21.5902524,21.7071403 21.4420575,21.8688273 21.3881684,22.0503127 C21.3814323,22.0503127 21.3780642,22.0503127 21.3713281,22.0503127 C21.3612239,21.9051244 21.3511197,21.7599361 21.3410155,21.6180475 C21.4892104,21.611448 21.6340373,21.6048486 21.7822323,21.6015488 C21.7754961,21.611448 21.76876,21.624647 21.7653919,21.6345462 Z M21.3208071,17.2557991 C21.3814323,17.2294012 21.4420575,17.2030033 21.5026827,17.1766054 C22.3110188,17.0842129 22.0078928,18.199523 21.4993146,18.3909076 C21.5464676,18.3018148 21.5969886,18.2556185 21.6138289,18.1401278 C21.4925785,18.1467273 21.4555298,18.1236291 21.418481,18.0411358 C21.3982726,17.9685416 21.418481,17.9355443 21.4353214,17.8629501 C21.1052508,17.8299528 21.1759802,17.4570828 21.3208071,17.2557991 Z M19.8018088,22.2713949 C19.5727803,22.1427052 19.9668441,22.0569121 20.0813584,21.9909175 C20.0577819,22.0569121 19.9365315,22.146005 19.9836844,22.2878935 C19.8961147,22.2977927 19.8422256,22.3010925 19.8018088,22.2713949 Z M19.1147231,22.9841374 C18.9901047,23.3669066 18.9901047,23.5879888 18.707187,23.8057712 C18.7004509,23.8057712 18.6970828,23.8057712 18.6903467,23.8057712 C18.6937148,22.4297821 18.6970828,21.053793 18.7004509,19.6778039 C18.7004509,19.2158411 18.8250694,18.348011 18.6229854,18.0543347 C18.5589921,18.0444355 18.4916307,18.0312366 18.4276375,18.0213374 C18.6196173,17.6616664 18.8183332,17.9091464 19.1281954,17.8035549 C19.2359736,17.7672578 19.3639601,17.6055709 19.4885786,17.5494754 C19.6637181,17.5032791 19.8354895,17.4570828 20.010629,17.4108866 C20.3474357,17.3745895 20.913271,17.36799 21.0547298,17.5527751 C21.36796,18.3051145 21.1928205,19.9879789 21.1894525,21.0339946 C21.1894525,21.4233632 21.1490357,21.885326 21.266918,22.1757026 C21.3544877,22.2548962 21.4420575,22.3340898 21.5296272,22.4132834 C21.5565718,22.5716707 21.3376474,22.6244664 21.1692441,22.5848696 C20.963792,22.4759784 20.7549718,22.3670872 20.5495197,22.2614957 C20.3945886,22.2218989 20.2362895,22.3010925 20.1083029,22.2779943 C20.0813584,22.1196071 20.2834424,21.9810183 20.3204912,21.7599361 C20.3979567,21.3078725 20.364276,19.2059419 20.2295533,18.9881595 C20.0746223,18.9452629 19.8220172,18.9122656 19.6906626,19.0475547 C19.4414257,19.3049339 19.5559399,21.0207956 19.5525719,21.5586523 C19.5525719,21.9975169 19.5020509,22.406684 19.909587,22.4198829 C19.9028508,22.4363816 19.8994828,22.4528802 19.8927466,22.4693789 C19.7546559,22.5815699 19.6771903,22.5881693 19.4852105,22.6772622 C19.5660441,23.0171348 19.2864946,22.9049438 19.1147231,22.9841374 Z M14.9922091,24.8352882 C15.2178695,24.6999991 15.44353,24.5680098 15.6725586,24.4327207 C15.7702325,24.4261212 15.8679065,24.4195218 15.9622124,24.4096225 C16.4539502,24.2083388 16.9625283,23.9476598 17.4711064,23.7034795 C17.5654123,23.6572832 17.6698224,23.5219941 17.7472879,23.4889967 C17.8112812,23.4955962 17.8786425,23.5021957 17.9426358,23.5054954 C18.2087131,23.4823973 18.3198593,23.3009119 18.3973249,23.0996281 C18.3872207,23.0732302 18.3771165,23.0468324 18.3636442,23.0204345 C18.2895467,22.9973364 18.201977,22.9874372 18.151456,22.9412409 C18.2828106,22.8620473 18.4107971,22.7828536 18.5421517,22.70366 C18.5455198,22.8917449 18.5522559,23.0798297 18.555624,23.2646148 C18.0302055,23.5549914 17.602461,24.0367526 17.4812106,24.6966994 C17.3801686,25.2312563 17.8954829,26.0429909 18.3872207,25.8054101 C18.4983669,25.7559141 18.5825685,25.6734207 18.5994089,25.5315321 C18.5724643,25.5051343 18.5455198,25.4820361 18.5185753,25.4556383 C18.3804845,25.5117337 18.306387,25.4622377 18.2087131,25.396243 C18.1918728,25.3269486 18.1750324,25.2576542 18.1615602,25.1916595 C18.4343736,24.5812087 19.2999668,25.1124659 18.7273954,25.9077018 C19.0608341,25.9110016 19.4212172,25.9011024 19.5256273,25.6404234 C19.5256273,25.5909274 19.5256273,25.5447311 19.5256273,25.4952351 C19.4043769,25.4820361 19.3740643,25.4358398 19.2965988,25.3830441 C19.2932307,25.2180574 19.3808004,25.1289646 19.3942727,25.0200734 C19.0103131,24.8682856 19.4447937,24.3139303 19.8691702,24.4360204 C20.3440676,24.5746093 20.3339634,25.396243 20.0443097,25.7790122 C19.6670861,26.277272 18.5589921,26.4917548 17.7641282,26.3465665 C16.9524241,26.1980784 16.3663804,25.6965188 16.1979771,24.8715853 C15.8039132,25.0563704 15.4098494,25.2411555 15.0157855,25.4226409 C14.9989452,25.2642537 14.9922091,25.0431715 14.9922091,24.8352882 Z" id="Shape" fill="#F9F284"></path>
            </g>
        </g>
    </g>
</svg>