<?xml version="1.0" encoding="UTF-8"?>
<svg width="734px" height="414px" viewBox="0 0 734 414" version="1.1" xmlns="http://www.w3.org/2000/svg" xmlns:xlink="http://www.w3.org/1999/xlink">
    <title>show-whelans</title>
    <g id="Page-1" stroke="none" stroke-width="1" fill="none" fill-rule="evenodd">
        <g id="ptc" transform="translate(17.000000, 109.000000)" fill="#000000" fill-rule="nonzero">
            <path d="M512.0385,102.123869 C506.30414,102.123869 505.894543,104.443483 505.894543,109.628502 L505.894543,160.523555 C505.894543,167.482396 506.986802,170.347802 514.359551,170.347802 C531.562632,170.347802 534.566344,152.746027 534.566344,139.101241 C534.566344,107.17244 522.551494,102.123869 512.0385,102.123869 Z M180.401332,40.4494348 C186.135692,40.4494348 188.456743,36.0831032 188.456743,30.7616365 C188.456743,25.3037219 185.726095,20.6644945 179.855202,20.6644945 C176.441893,20.6644945 176.578425,21.7560774 176.578425,23.3934518 L176.578425,36.4924468 C176.441893,38.5391647 175.759231,40.4494348 180.401332,40.4494348 Z M163.061719,106.626649 C155.415905,106.626649 151.592998,114.540625 151.592998,121.22657 C151.592998,132.824639 159.784941,165.435678 174.530439,165.435678 C182.858915,165.435678 186.408757,158.203942 186.408757,150.835757 C186.408757,138.419001 179.036008,106.626649 163.061719,106.626649 Z M42.6401532,40.4494348 C48.3745135,40.4494348 50.6955641,36.0831032 50.6955641,30.7616365 C50.6955641,25.3037219 47.9649163,20.6644945 42.0940237,20.6644945 C38.680714,20.6644945 38.8172464,21.7560774 38.8172464,23.3934518 L38.8172464,36.4924468 C38.680714,38.5391647 37.8615197,40.4494348 42.6401532,40.4494348 Z M105.718116,23.5298997 C100.80295,23.5298997 98.3453672,28.5784706 98.3453672,32.8083544 C98.3453672,40.1765391 103.533598,61.0530623 113.090865,61.0530623 C118.415628,61.0530623 120.736679,56.4138349 120.736679,51.7746076 C120.736679,43.8606314 115.958045,23.5298997 105.718116,23.5298997 Z M580.987356,38.8120605 C586.721716,38.8120605 588.496637,35.6737596 588.496637,30.215845 C588.496637,25.9859612 587.404378,21.6196296 582.35268,21.6196296 C579.075903,21.6196296 579.212435,23.6663475 579.075903,26.3953048 L578.666305,34.7186245 C578.529773,36.9017904 578.120176,38.8120605 580.987356,38.8120605 Z M507.805996,38.8120605 C513.540357,38.8120605 515.315278,35.6737596 515.315278,30.215845 C515.315278,25.9859612 514.223019,21.6196296 509.17132,21.6196296 C505.894543,21.6196296 506.031075,23.6663475 505.894543,26.3953048 L505.484946,34.7186245 C505.348413,36.9017904 504.938816,38.8120605 507.805996,38.8120605 Z M677.652286,77.0174624 C681.611725,70.4679649 681.065596,59.0063444 673.419782,56.6867307 C673.419782,52.7297426 673.419782,48.7727545 673.419782,44.9522143 C674.512041,40.8587784 679.56374,38.266269 681.88479,35.1279681 C682.840517,33.8999373 684.069308,31.5803237 685.434632,30.8980843 C686.799956,30.6251886 688.028748,30.4887407 689.394071,30.215845 C693.89964,28.5784706 697.31295,25.167274 698.541741,20.3915988 C700.589727,12.4776227 695.401496,5.79167732 690.349798,3.74495936 C687.073021,2.38048072 684.069308,2.65337645 680.246401,1.83468926 C677.788819,1.28889781 672.464055,0.879554214 669.460343,1.56179353 C665.364371,2.51692858 661.2684,3.74495936 657.718558,4.83654228 C657.582025,4.97299014 655.124442,4.15430295 654.168716,3.88140723 C650.755406,2.65337645 646.522902,1.97113713 642.42693,1.56179353 C633.688857,0.74310635 621.537475,1.56179353 615.53005,4.15430295 C613.482064,4.97299014 611.980208,7.0197081 609.932222,7.70194742 C608.157301,5.92812519 605.699718,5.38233373 603.105603,4.42719868 C594.640595,1.28889781 585.492925,2.38048072 574.979931,2.51692858 C566.514923,2.65337645 559.688304,1.42534567 552.725152,3.47206363 C548.083051,4.83654228 543.304417,7.29260383 542.621755,12.3411748 C541.529496,11.2495919 540.437237,10.158009 539.344978,9.06642607 C537.023927,7.29260383 534.020215,5.65522946 531.153035,4.42719868 C523.507221,1.28889781 512.721162,1.97113713 503.027363,2.51692858 C491.149045,3.19916791 483.776296,0.197314893 474.901691,5.5187816 C470.669187,0.0608670289 461.794582,1.01600208 454.285301,2.51692858 C449.643199,2.51692858 444.864566,2.51692858 440.222465,2.51692858 C432.713183,2.51692858 425.203902,2.51692858 417.558088,2.51692858 C415.646635,2.92627218 411.823728,4.97299014 409.63921,4.42719868 C409.366145,4.29075082 408.410419,3.6085115 408.000821,3.47206363 C404.724044,2.78982431 401.447267,2.10758499 398.17049,1.56179353 C392.709194,0.333762757 381.103941,2.24403286 377.144502,3.47206363 C376.46184,3.74495936 375.096516,4.70009441 374.550387,4.83654228 C374.004257,4.97299014 365.539249,2.24403286 364.037393,1.83468926 C355.29932,-0.348476564 337.00398,3.33561577 333.863735,7.70194742 C331.26962,7.0197081 328.40244,5.38233373 325.398727,4.70009441 C324.033403,4.97299014 322.804612,5.109438 321.439288,5.38233373 C319.937432,4.97299014 317.752913,3.6085115 316.251057,3.06272004 C313.247345,2.38048072 310.1071,1.6982414 307.103387,1.15244994 C302.734351,0.197314893 297.682653,1.97113713 294.67894,2.78982431 C283.073687,6.06457305 273.652952,10.8402483 268.191657,20.1187031 C266.553268,19.7093595 264.641815,18.8906723 263.003426,18.4813287 C260.136246,17.7990894 257.269066,19.7093595 255.494145,20.3915988 C252.080835,21.7560774 247.438734,22.4383168 244.025424,23.3934518 C243.069698,23.3934518 242.113971,23.3934518 241.021712,23.3934518 C238.427596,24.0756911 235.150819,25.3037219 232.829769,25.9859612 C230.781783,26.6682005 229.143394,26.1224091 227.231941,26.6682005 C224.091696,27.4868877 222.453307,28.7149185 219.039997,28.5784706 C218.357336,8.79353034 197.331348,-3.75967317 174.120842,1.01600208 C172.072856,1.01600208 170.02487,1.01600208 167.840352,1.01600208 C165.109705,1.56179353 159.511877,1.97113713 156.371632,1.28889781 C155.962035,1.15244994 154.733243,0.74310635 153.777516,1.01600208 C149.545012,1.97113713 146.131703,2.92627218 143.264523,4.97299014 C141.216537,6.33746878 139.305083,8.11129102 139.032019,11.2495919 C130.703543,5.79167732 124.286521,0.470210621 110.223685,0.470210621 C108.039167,0.470210621 105.854648,0.470210621 103.67013,0.470210621 C99.8472235,1.28889781 95.4781871,1.97113713 91.928345,3.47206363 C87.4227762,5.24588587 83.463337,7.97484315 79.7769625,10.7038004 C78.6847034,11.7953833 77.5924443,12.8869663 76.5001852,13.9785492 C76.3636529,14.114997 76.2271205,14.2514449 76.2271205,14.2514449 C69.8100983,2.24403286 48.2379811,-2.53164239 29.533044,1.28889781 C25.1640076,2.24403286 19.1565826,0.197314893 15.4702082,1.01600208 C10.9646394,1.97113713 7.00520015,2.92627218 4.00148763,5.24588587 C-3.0981965,10.7038004 -0.0944839838,25.7130655 7.96092686,27.8962313 C7.96092686,37.4475818 7.96092686,47.1353802 7.96092686,56.6867307 C7.68786209,57.0960743 6.4590706,57.36897 6.04947344,57.6418657 C4.95721434,58.4605529 3.3188257,60.6437187 2.77269615,61.8717495 C1.40737228,65.0100504 1.54390466,68.2847991 2.49963137,71.0137564 C5.91294105,82.3389291 17.518194,83.9763035 32.2636918,83.8398556 C32.2636918,83.9763035 32.2636918,84.1127514 32.2636918,84.1127514 C26.9389287,85.6136779 23.1160218,90.6622488 19.1565826,93.6641019 C4.68414957,104.579931 -5.96537663,132.415295 3.72842286,156.157224 C11.2377042,174.714133 25.7101372,187.130889 45.370801,193.543938 C55.3376652,196.818687 69.4005011,196.818687 79.5038978,193.543938 C84.1459989,192.043012 88.6515677,189.723398 92.8840717,187.949576 C94.7955251,187.67668 96.8435109,187.267337 98.7549644,186.994441 C105.035454,184.401932 113.500462,175.396373 114.456189,167.618844 C114.729254,167.618844 114.865786,167.618844 115.138851,167.618844 C125.924909,189.314055 163.198251,203.504633 193.098844,191.224325 C199.925463,188.495367 205.932888,184.538379 211.394184,180.444943 C214.261364,177.44309 217.128544,174.577685 219.859192,171.575832 C219.859192,171.302937 219.859192,171.166489 219.859192,170.893593 C219.995724,170.893593 220.132257,170.893593 220.132257,170.893593 C216.30935,188.222472 225.730084,191.906564 240.065985,195.181313 C242.113971,195.181313 244.161957,195.181313 246.346475,195.181313 C255.494145,195.181313 262.730361,194.362626 268.328189,190.951429 C270.376175,189.723398 272.697226,188.768263 273.51642,186.312202 C273.652952,186.312202 273.789485,186.312202 273.789485,186.312202 C275.837471,189.450503 282.800622,193.407491 288.808047,191.224325 C291.675227,190.132742 293.450149,187.949576 295.634667,186.312202 C295.634667,186.175754 295.634667,186.039306 295.634667,186.039306 C298.638379,188.904711 301.778624,191.633668 306.147661,193.271043 C314.203071,196.272896 339.325031,196.272896 347.790039,193.543938 C350.520686,192.725251 352.978269,191.087877 355.29932,189.996294 C359.122227,194.908417 370.317883,193.953282 378.919423,193.953282 C390.661208,193.953282 402.266461,193.953282 414.008246,193.953282 C422.746319,193.953282 431.893989,193.680386 438.857141,195.317761 C445.547228,196.818687 453.329574,192.17946 454.558365,188.495367 C456.196754,189.041159 457.152481,190.542085 458.517805,191.49722 C460.56579,192.861699 463.432971,193.816834 466.027086,194.499073 C469.167331,195.317761 474.765159,195.181313 477.768871,194.499073 C484.322426,194.362626 490.87598,194.226178 497.429535,194.226178 C506.30414,194.226178 517.226731,196.409344 525.555207,194.499073 C526.920531,194.499073 528.149322,194.499073 529.514646,194.499073 C533.883682,193.543938 538.252719,193.134595 542.34869,191.906564 C558.596044,186.585097 568.972506,175.942164 575.389528,160.796451 C579.622032,150.699309 582.079615,133.779774 578.666305,120.544331 C577.847111,117.269582 577.847111,113.721938 576.07219,111.402324 C576.07219,111.129428 576.07219,110.992981 576.07219,110.720085 C583.718004,112.630355 591.636882,123.81908 596.005919,129.686338 C597.917372,132.278847 601.194149,134.462013 602.286408,137.87321 C602.96907,140.329271 602.422941,152.336683 602.013344,154.519849 C601.740279,155.74788 602.286408,157.248807 601.740279,158.067494 C601.467214,161.205795 598.190437,161.205795 596.142451,162.706721 C593.411803,164.753439 588.769702,171.439384 590.271558,177.44309 C594.094465,193.407491 611.434078,195.454209 631.231274,195.454209 C642.699995,195.454209 653.486054,194.908417 660.72227,190.542085 C664.272112,188.35892 667.548889,184.674827 668.914213,180.444943 C671.917926,171.302937 664.954774,162.433825 659.083881,160.796451 C658.537752,155.74788 657.172428,142.375989 658.810817,137.190971 C661.131867,129.413442 669.050746,125.047111 673.556315,119.179852 C675.194703,116.996687 677.242689,113.721938 679.427207,112.357459 C681.475193,110.992981 684.615438,111.265876 687.346086,110.447189 C690.759395,109.355606 694.44577,106.763097 696.220691,103.897692 C696.903353,102.123869 697.586015,100.350047 698.132144,98.7126728 C701.681986,84.6585428 688.301812,77.1539103 677.652286,77.0174624 Z M636.965635,11.6589355 C655.124442,11.6589355 654.98791,15.0701321 654.98791,16.9804022 C654.98791,19.3000159 652.530327,20.1187031 652.530327,21.8925253 C652.530327,23.8027954 656.080169,29.26071 658.264687,29.26071 C660.585738,29.26071 664.272112,24.6214826 664.272112,22.5747646 C664.272112,20.1187031 661.677997,19.9822552 661.677997,16.5710586 C661.677997,11.3860398 671.781393,11.3860398 675.194703,11.3860398 C686.117294,11.3860398 688.984474,12.7505184 688.984474,16.5710586 C688.984474,22.165421 682.703984,18.8906723 678.334948,23.6663475 L667.548889,35.4008639 C663.725983,40.1765391 663.452918,42.7690485 663.452918,48.9092024 C663.452918,56.9596264 663.862515,60.370823 664.681709,62.1446452 C665.910501,64.7371547 670.552602,64.1913632 670.552602,68.2847991 C670.552602,74.5614009 656.762831,74.5614009 652.530327,74.5614009 C635.463778,74.5614009 633.142728,70.6044128 633.142728,68.2847991 C633.142728,63.5091239 638.057894,65.2829461 639.696282,61.7353016 C640.515477,59.6885837 641.061606,55.7315956 641.061606,47.271828 C641.061606,42.3597049 640.242412,40.5858827 637.2387,36.7653425 L627.408368,25.3037219 C623.175864,20.3915988 617.441503,21.7560774 617.441503,17.3897458 C617.168439,15.6159235 616.622309,11.6589355 636.965635,11.6589355 Z M488.964527,12.0682791 C490.739448,12.0682791 492.514369,12.2047269 494.425822,12.3411748 C496.200744,12.4776227 497.975665,12.7505184 499.750586,12.7505184 C502.481233,12.7505184 505.348413,12.6140705 508.215594,12.3411748 C510.946241,12.2047269 513.949954,12.0682791 516.680602,12.0682791 C526.510933,12.0682791 537.979654,16.4346107 537.979654,28.0326792 C537.979654,33.217698 535.385539,38.4027169 530.606905,40.7223306 C529.787711,41.1316741 529.241581,41.4045699 529.241581,42.4961528 C529.241581,43.8606314 530.33384,44.1335272 531.426099,44.5428708 C537.570057,46.8624844 540.300705,50.8194725 541.529496,60.2343751 C542.621755,68.421247 548.219583,63.5091239 548.219583,68.8305906 C548.219583,72.1053393 544.260144,75.6529838 534.29328,75.6529838 C520.366976,75.6529838 518.592055,67.6025598 515.861407,56.1409392 C514.905681,52.1839511 513.403824,48.2269631 508.625191,48.2269631 C506.713737,48.2269631 506.031075,48.4998588 506.031075,53.9577734 C506.031075,56.5502828 506.167608,59.9614794 506.577205,62.417541 C507.259867,66.374529 511.765436,65.1464982 511.765436,69.376382 C511.765436,72.5146829 509.580917,74.8342966 495.381549,74.8342966 C491.149045,74.8342966 478.724598,74.8342966 478.724598,68.421247 C478.724598,63.9184675 485.278153,67.0567683 485.278153,55.7315956 L485.278153,30.7616365 C485.278153,17.2532979 478.588066,22.8476603 478.588066,17.3897458 C478.724598,12.6140705 485.551217,12.0682791 488.964527,12.0682791 Z M304.918869,11.3860398 C313.520409,11.3860398 318.981705,15.6159235 321.302756,15.6159235 C323.214209,15.6159235 323.760338,15.0701321 325.262195,15.0701321 C328.948569,15.0701321 333.59067,20.5280467 333.59067,30.215845 C333.59067,35.1279681 330.586958,39.3578519 325.398727,39.3578519 C316.38759,39.3578519 318.70864,23.9392433 303.143948,23.9392433 C296.453861,23.9392433 293.586681,30.215845 293.586681,34.9915203 C293.586681,47.9540674 300.549833,58.8698965 312.701215,58.8698965 C323.760338,58.8698965 325.398727,52.8661905 328.129375,52.8661905 C330.72349,52.8661905 331.952282,55.8680435 331.952282,58.0512093 C331.952282,61.8717495 327.992842,69.9221735 323.623806,69.9221735 C320.620094,69.9221735 314.476136,74.9707445 304.236207,74.9707445 C285.940867,74.9707445 270.922305,60.5072709 270.922305,42.9054964 C270.785772,25.167274 287.715788,11.3860398 304.918869,11.3860398 Z M249.896317,31.9896672 L257.405598,30.215845 C260.95544,29.3971578 261.228505,28.7149185 261.638102,28.5784706 C263.139959,28.1691271 264.36875,30.6251886 264.641815,31.7167715 C264.91488,32.5354587 264.778347,33.6270416 263.686088,33.8999373 C261.638102,34.4457288 262.730361,31.4438758 257.678663,32.6719066 C254.811483,33.3541459 255.22108,33.7634895 255.903742,36.7653425 C256.313339,38.266269 256.313339,38.266269 257.951728,37.9933733 C259.999714,37.5840297 257.815195,34.9915203 259.590116,34.5821767 C261.091973,34.1728331 261.911167,37.1746861 262.184232,38.1298211 C262.457297,39.2214041 263.003426,42.3597049 261.50157,42.7690485 C259.863181,43.1783921 260.818908,40.0400912 258.224793,40.7223306 C257.132534,40.9952263 257.405598,41.9503613 257.542131,42.7690485 C258.497857,46.5895887 258.63439,46.316693 261.365038,45.6344537 C266.689801,44.4064229 264.36875,40.9952263 266.416736,40.5858827 C267.23593,40.4494348 267.918592,41.268122 268.055124,41.9503613 C268.464722,43.7241836 267.78206,47.271828 266.826333,47.5447238 C266.689801,47.5447238 266.143671,47.5447238 265.597542,47.6811716 C265.051412,47.8176195 264.232218,47.8176195 263.413023,48.0905152 L252.626965,50.6830246 C250.852044,51.0923682 250.715511,50.273681 250.578979,50.0007853 C250.169382,48.4998588 252.3539,49.318546 251.80777,46.4531409 C250.988576,41.6774656 251.125108,42.0868092 249.759785,37.4475818 C248.667526,33.4905938 247.165669,36.0831032 246.61954,34.1728331 C246.483007,32.5354587 248.804058,32.262563 249.896317,31.9896672 Z M154.869775,11.5224876 C157.054294,11.5224876 159.10228,11.6589355 161.286798,11.6589355 C173.98431,11.6589355 181.630123,10.4309047 185.316498,10.4309047 C197.194816,10.4309047 208.663536,17.3897458 208.663536,30.4887407 C208.663536,43.4512878 197.604413,50.5465768 185.45303,50.5465768 C182.858915,50.5465768 180.2648,50.1372332 177.807217,50.1372332 C176.714957,50.1372332 176.441893,50.5465768 176.441893,51.5017118 L176.441893,56.5502828 C176.714957,67.4661119 183.13198,62.9633324 183.13198,68.0119034 C183.13198,73.7427137 170.571,74.0156094 166.611561,74.0156094 C162.925186,74.0156094 149.95461,73.8791616 149.95461,68.2847991 C149.95461,63.5091239 156.371632,66.5109769 156.371632,59.2792401 L156.371632,25.167274 C156.371632,18.6177766 148.179689,21.4831817 148.179689,16.0252671 C148.316221,12.3411748 152.139128,11.5224876 154.869775,11.5224876 Z M28.7138497,73.8791616 C25.1640076,73.8791616 12.1934309,73.7427137 12.1934309,68.1483513 C12.1934309,63.372676 18.6104531,66.374529 18.6104531,59.1427922 L18.6104531,25.0308262 C18.6104531,18.4813287 10.4185098,21.3467338 10.4185098,15.8888193 C10.4185098,12.3411748 14.2414167,11.6589355 16.9720644,11.6589355 C19.1565826,11.6589355 21.2045684,11.7953833 23.3890866,11.7953833 C36.0865986,11.7953833 43.7324123,10.5673526 47.4187868,10.5673526 C59.2971045,10.5673526 70.765825,17.5261936 70.765825,30.6251886 C70.765825,43.5877357 59.7067016,50.6830246 47.5553192,50.6830246 C44.9612038,50.6830246 42.3670884,50.273681 39.9095055,50.273681 C38.8172464,50.273681 38.5441816,50.6830246 38.5441816,51.6381597 L38.5441816,56.6867307 C38.8172464,67.6025598 45.2342686,63.0997803 45.2342686,68.1483513 C45.2342686,73.6062658 32.6732889,73.8791616 28.7138497,73.8791616 Z M95.8877842,130.095682 C81.8249483,130.095682 85.3747904,105.94441 61.0720255,105.94441 C50.5590317,105.94441 46.1899953,115.768656 46.1899953,123.273288 C46.1899953,143.467572 56.9760539,160.660003 76.0905881,160.660003 C93.4302013,160.660003 96.0243166,151.245101 100.256821,151.245101 C104.21626,151.245101 106.127713,155.884328 106.127713,159.295525 C106.127713,165.299231 99.8472235,177.852434 93.0206041,177.852434 C88.3785029,177.852434 78.8212358,185.76641 62.7104141,185.76641 C34.0386128,185.76641 10.5550422,163.116065 10.5550422,135.690044 C10.5550422,107.718232 36.9057929,86.2959172 63.8026732,86.2959172 C77.1828472,86.2959172 85.7843876,92.9818625 89.3342296,92.9818625 C92.3379422,92.9818625 93.1571365,92.0267275 95.4781871,92.0267275 C101.212547,92.0267275 108.585296,100.622943 108.585296,115.768656 C108.585296,123.546184 103.943195,130.095682 95.8877842,130.095682 Z M108.721829,74.1520573 C90.2899563,74.1520573 75.9540557,60.6437187 75.9540557,42.0868092 C75.9540557,23.5298997 90.6995535,10.4309047 109.814088,10.4309047 C133.98032,10.4309047 143.12799,31.7167715 143.12799,42.9054964 C143.12799,61.7353016 126.607571,74.1520573 108.721829,74.1520573 Z M167.70382,185.76641 C138.895486,185.76641 116.504175,164.753439 116.504175,135.690044 C116.504175,106.763097 139.578148,86.2959172 169.342209,86.2959172 C207.025147,86.2959172 221.49758,119.452748 221.49758,137.054523 C221.49758,166.390813 195.556427,185.76641 167.70382,185.76641 Z M222.58984,45.4980058 C220.268789,46.0437973 219.586127,42.9054964 218.220803,43.31484 C217.265076,43.5877357 217.674674,44.9522143 217.674674,45.0886622 L219.722659,53.1390862 C220.405321,56.2773871 222.453307,54.2306691 222.999437,56.0044913 C223.135969,56.8231785 222.999437,58.0512093 218.084271,59.2792401 C216.718947,59.5521358 211.940313,60.7801666 211.394184,58.8698965 C211.121119,57.5054179 212.759508,57.6418657 213.032572,56.5502828 C213.169105,56.0044913 212.89604,54.367117 212.759508,53.6848777 L211.530716,47.8176195 C210.984587,45.0886622 210.438457,45.2251101 210.02886,45.3615579 C208.800068,45.6344537 209.073133,48.9092024 206.888615,49.318546 C205.932888,49.5914417 204.977162,48.7727545 204.840629,47.8176195 C204.2945,45.6344537 205.523291,42.2232571 207.025147,41.9503613 C207.16168,41.9503613 207.571277,41.9503613 207.980874,41.9503613 C208.527004,41.9503613 209.209666,41.8139135 210.301925,41.5410177 L216.718947,40.0400912 C217.811206,39.7671955 218.357336,39.4942998 218.766933,39.3578519 C219.039997,39.2214041 219.313062,39.0849562 219.859192,38.9485083 C220.814919,38.6756126 223.409034,40.1765391 224.091696,43.0419442 C224.501293,44.1335272 223.955163,45.2251101 222.58984,45.4980058 Z M228.051135,54.9129084 C227.914603,54.367117 228.187667,53.9577734 228.597265,53.5484298 C229.416459,52.8661905 229.826056,52.8661905 228.460732,47.4082759 C226.822344,40.4494348 226.822344,40.9952263 225.730084,40.7223306 C225.320487,40.5858827 224.774358,40.4494348 224.637825,39.9036434 C224.091696,37.8569254 228.460732,36.6288946 229.962588,36.3559989 C231.054848,36.0831032 234.05856,35.5373117 234.468157,37.0382382 C234.60469,37.8569254 234.331625,38.266269 233.785495,38.8120605 C233.239366,39.3578519 233.102833,39.6307476 233.648963,41.9503613 C234.05856,43.4512878 234.60469,43.0419442 235.833481,42.7690485 L237.198805,42.4961528 C238.973726,42.0868092 238.837194,41.8139135 238.564129,40.9952263 C237.881467,38.1298211 237.335337,38.1298211 237.062273,37.9933733 C236.516143,37.8569254 235.970013,37.7204775 235.833481,37.0382382 C235.696949,36.4924468 235.287352,35.1279681 240.475582,33.8999373 C241.704374,33.6270416 245.254216,32.8083544 245.663813,34.5821767 C245.800345,35.1279681 245.663813,35.6737596 245.117683,35.9466553 C244.435022,36.4924468 244.161957,36.4924468 245.117683,40.5858827 L246.756072,47.4082759 C246.892604,48.2269631 247.165669,48.4998588 247.984864,48.7727545 C248.530993,48.9092024 248.94059,49.0456503 249.077123,49.5914417 C249.213655,50.273681 249.48672,51.5017118 244.298489,52.7297426 C243.20623,53.0026383 239.79292,53.8213255 239.383323,52.0475033 C238.837194,50.0007853 241.294777,51.7746076 239.929453,46.4531409 C239.656388,45.0886622 239.246791,45.2251101 238.017999,45.4980058 C234.331625,46.316693 234.741222,46.4531409 235.287352,48.7727545 C236.106546,52.320399 237.47187,50.5465768 237.881467,52.1839511 C238.291064,53.9577734 234.468157,55.0493563 233.239366,55.322252 C232.010574,55.8680435 228.460732,56.6867307 228.051135,54.9129084 Z M327.85631,185.357067 C322.258482,185.357067 303.553545,185.902858 303.553545,177.170195 C303.553545,172.394519 309.697503,171.575832 310.653229,167.209501 C311.199359,164.889887 313.930007,141.420854 309.151373,141.420854 C304.918869,141.420854 300.549833,153.428266 297.273055,160.387107 C294.269343,166.663709 289.354177,182.218766 284.985141,181.672974 C282.800622,181.400079 281.708363,181.672974 273.51642,163.252513 L265.597542,145.51429 C264.778347,143.740468 263.276491,139.647032 260.818908,139.647032 C256.586404,139.647032 257.951728,157.65815 257.951728,162.16093 C257.951728,176.760851 266.689801,169.938458 266.689801,177.306643 C266.689801,185.084171 252.080835,185.357067 246.756072,185.357067 C241.977439,185.357067 229.552991,184.947723 229.552991,177.852434 C229.552991,170.074906 237.744935,176.487955 238.837194,165.299231 C239.929453,153.83761 241.158244,141.147959 241.158244,121.363018 C241.158244,113.176146 240.612115,108.946263 239.110258,105.807962 C237.744935,102.942557 229.962588,101.987422 229.962588,96.3930591 C229.962588,88.6155309 242.6601,86.7052608 253.582691,86.7052608 C269.556981,86.7052608 269.283916,89.4342181 273.379888,96.3930591 C278.158521,104.443483 286.623529,126.820933 292.630954,128.185411 C296.863458,129.140547 302.461286,112.630355 307.376452,103.624796 C314.339604,90.7986967 314.476136,86.7052608 332.498411,86.7052608 C338.505836,86.7052608 352.159075,87.1146044 352.159075,95.7108198 C352.159075,101.168734 346.015118,102.260317 344.649794,106.899545 C343.557535,110.720085 342.601808,126.820933 342.601808,132.961087 C342.601808,135.007805 343.421002,150.01707 343.967132,162.706721 C344.376729,172.667415 352.568672,170.484249 352.568672,176.624403 C352.568672,185.76641 333.863735,185.357067 327.85631,185.357067 Z M354.070528,74.8342966 C350.111089,74.8342966 337.959707,74.424953 337.959707,68.5576949 C337.959707,66.7838726 339.325031,65.5558418 340.690354,64.8736025 C343.830599,63.372676 344.922858,63.6455717 344.922858,45.3615579 C344.922858,22.165421 344.513261,24.0756911 341.373016,22.3018689 C340.007693,21.6196296 338.505836,20.8009424 338.505836,19.0271202 C338.505836,12.3411748 353.114802,11.6589355 358.029968,11.6589355 C361.716342,11.6589355 371.819739,12.0682791 371.819739,17.3897458 C371.819739,20.1187031 370.317883,21.0738381 368.269897,22.3018689 C366.085379,23.5298997 365.539249,24.6214826 365.539249,32.3990108 C365.539249,37.311134 367.8603,36.6288946 371.956271,36.6288946 L376.46184,36.6288946 C382.1962,36.6288946 382.059668,35.8102074 382.059668,33.0812502 C382.059668,23.5298997 380.557812,22.9841082 379.465552,22.3018689 C377.827164,21.3467338 376.188775,20.5280467 376.188775,18.3448808 C376.188775,16.7075065 375.779178,11.7953833 393.255324,11.7953833 C397.351295,11.7953833 408.956548,11.9318312 408.956548,17.9355372 C408.956548,19.8458073 408.000821,21.210286 406.2259,22.0289732 C403.631785,23.1205561 402.676058,22.8476603 402.676058,36.7653425 L402.676058,59.4156879 C402.676058,62.0081974 403.085655,63.372676 405.406706,64.6007068 C407.181627,65.5558418 408.410419,66.1016333 408.410419,68.2847991 C408.410419,70.3315171 408.273886,74.6978487 391.070805,74.6978487 C387.247899,74.6978487 376.052243,74.5614009 376.052243,68.6941427 C375.642646,62.0081974 382.1962,69.376382 382.1962,51.6381597 C382.1962,46.8624844 381.103941,47.1353802 376.734905,47.1353802 C364.44699,47.1353802 365.675781,47.5447238 365.675781,55.322252 C365.675781,67.3296641 371.137077,62.417541 371.137077,68.1483513 C371.000544,74.424953 358.303032,74.8342966 354.070528,74.8342966 Z M442.543515,185.357067 C441.587789,185.357067 439.40327,184.947723 436.53609,184.538379 C433.532378,184.265484 429.709471,183.85614 425.06737,183.85614 L368.952559,183.85614 C359.941421,183.85614 359.804889,179.762704 359.804889,177.988882 C359.804889,170.484249 369.089091,176.487955 370.044818,162.024482 C371.683206,137.190971 371.819739,139.647032 370.454415,114.949969 C369.498688,94.0734455 359.122227,104.852827 359.122227,95.1650284 C359.122227,86.8417087 370.590947,88.2061873 376.188775,88.2061873 L415.510103,88.2061873 C433.805443,88.2061873 436.399558,85.47723 438.584076,85.47723 C446.366422,85.47723 449.643199,98.8491207 449.643199,104.852827 C449.643199,109.355606 447.868278,114.677073 442.543515,114.677073 C431.757457,114.677073 440.49553,101.578078 414.554376,101.578078 C399.399281,101.578078 400.901137,104.307035 400.901137,119.99854 C400.901137,127.912516 401.310734,128.185411 409.63921,128.185411 C420.015671,128.185411 412.233325,113.039699 421.927125,113.039699 C429.846003,113.039699 430.392133,128.458307 430.392133,133.779774 C430.392133,139.374136 429.436406,155.74788 421.244463,155.74788 C412.779455,155.74788 421.244463,141.420854 407.454692,141.420854 C401.720332,141.420854 401.856864,146.605873 401.856864,150.972205 C401.856864,170.893593 403.222188,169.938458 417.558088,169.938458 C445.547228,169.938458 437.628349,150.699309 448.824005,150.699309 C453.193042,150.699309 455.37756,155.611432 455.37756,159.431972 C455.37756,168.710427 448.004811,185.357067 442.543515,185.357067 Z M455.514092,73.8791616 L419.606074,73.8791616 C413.871714,73.8791616 413.735182,71.2866521 413.735182,70.0586214 C413.735182,65.2829461 419.742607,69.1034863 420.288736,59.8250315 C421.380995,43.9970793 421.380995,45.4980058 420.561801,29.6700536 C420.015671,16.2981629 413.325584,23.2570039 413.325584,16.9804022 C413.325584,11.6589355 420.698333,12.4776227 424.248175,12.4776227 L449.370135,12.4776227 C461.11192,12.4776227 462.750309,10.7038004 464.115633,10.7038004 C469.030798,10.7038004 471.215317,19.3000159 471.215317,23.1205561 C471.215317,25.9859612 470.123058,29.3971578 466.709748,29.3971578 C459.746596,29.3971578 465.344424,21.0738381 448.824005,21.0738381 C439.130206,21.0738381 440.085932,22.8476603 440.085932,32.8083544 C440.085932,37.8569254 440.358997,37.9933733 445.68376,37.9933733 C452.373847,37.9933733 447.322149,28.3055749 453.602639,28.3055749 C458.654337,28.3055749 459.063934,38.1298211 459.063934,41.5410177 C459.063934,45.0886622 458.517805,55.5951478 453.193042,55.5951478 C447.731746,55.5951478 453.193042,46.4531409 444.318436,46.4531409 C440.632062,46.4531409 440.768594,49.7278896 440.768594,52.5932947 C440.768594,65.2829461 441.587789,64.7371547 450.871991,64.7371547 C468.757734,64.7371547 463.706035,52.4568469 470.942252,52.4568469 C473.6729,52.4568469 475.174756,55.5951478 475.174756,58.0512093 C475.174756,64.0549153 470.396122,74.6978487 466.982813,74.6978487 C466.436683,74.6978487 464.934827,74.424953 463.159906,74.1520573 C460.975388,74.1520573 458.517805,73.8791616 455.514092,73.8791616 Z M521.322703,184.538379 C515.45181,184.538379 510.536644,184.401932 506.30414,184.129036 C502.071636,183.992588 498.385262,183.85614 494.562355,183.85614 C490.739448,183.85614 486.780009,183.992588 482.957102,184.129036 C479.134195,184.401932 475.311288,184.538379 471.351849,184.538379 C466.709748,184.538379 460.838855,182.218766 460.838855,176.760851 C460.838855,166.936605 471.624914,177.852434 472.034511,157.931046 L473.12677,110.583637 C473.399835,96.529507 463.159906,103.3519 463.159906,94.482789 C463.159906,88.2061873 471.078784,87.2510522 475.857418,87.2510522 L520.366976,87.2510522 C558.32298,87.2510522 570.747427,110.720085 570.747427,135.2807 C570.747427,160.660003 555.865397,184.538379 521.322703,184.538379 Z M568.562909,74.8342966 C564.330405,74.8342966 551.905957,74.8342966 551.905957,68.421247 C551.905957,63.9184675 558.459512,67.0567683 558.459512,55.7315956 L558.459512,30.7616365 C558.459512,17.2532979 551.769425,22.8476603 551.769425,17.3897458 C551.769425,12.6140705 558.596044,11.9318312 562.145887,11.9318312 C563.920808,11.9318312 565.695729,12.0682791 567.607182,12.2047269 C569.382103,12.3411748 571.157024,12.6140705 572.931945,12.6140705 C575.662593,12.6140705 578.529773,12.4776227 581.396953,12.2047269 C584.127601,12.0682791 587.131313,11.9318312 589.861961,11.9318312 C599.692293,11.9318312 611.161014,16.2981629 611.161014,27.8962313 C611.161014,33.0812502 608.566898,38.266269 603.788265,40.5858827 C602.96907,40.9952263 602.422941,41.268122 602.422941,42.3597049 C602.422941,43.7241836 603.5152,43.9970793 604.607459,44.4064229 C610.751416,46.7260366 613.482064,50.6830246 614.710856,60.0979273 C615.803115,68.2847991 621.400943,63.372676 621.400943,68.6941427 C621.400943,71.9688915 617.441503,75.5165359 607.474639,75.5165359 C593.548336,75.5165359 591.773415,67.4661119 589.042767,56.0044913 C588.08704,52.0475033 586.585184,48.0905152 581.80655,48.0905152 C579.895097,48.0905152 579.212435,48.363411 579.212435,53.8213255 C579.212435,56.4138349 579.348967,59.8250315 579.758564,62.2810931 C580.441226,66.2380812 584.946795,65.0100504 584.946795,69.2399342 C584.946795,72.5146829 582.762277,74.8342966 568.562909,74.8342966 Z M671.781393,105.807962 L654.98791,124.228423 C648.980485,131.733056 648.570888,135.826492 648.570888,145.377842 C648.570888,157.931046 649.25355,163.38896 650.482341,165.98147 C652.393794,169.938458 659.630011,169.119771 659.630011,175.53282 C659.630011,185.357067 638.057894,185.357067 631.367807,185.357067 C604.607459,185.357067 601.057617,179.216913 601.057617,175.53282 C601.057617,168.164636 608.839963,170.893593 611.297546,165.299231 C612.66287,162.16093 613.482064,155.884328 613.482064,142.648885 C613.482064,134.871357 612.253273,132.278847 607.474639,126.138694 L592.046479,108.264023 C585.356392,100.486495 576.481787,102.669661 576.481787,95.9837156 C576.481787,92.8454147 575.52606,86.7052608 607.338107,86.7052608 C635.736843,86.7052608 635.463778,92.0267275 635.463778,95.0285805 C635.463778,98.576225 631.640872,99.9407036 631.640872,102.806109 C631.640872,105.807962 637.102167,114.404177 640.515477,114.404177 C644.065319,114.404177 649.799679,107.17244 649.799679,104.03414 C649.799679,100.213599 645.84024,99.9407036 645.84024,94.7556848 C645.84024,86.7052608 661.677997,86.7052608 666.866228,86.7052608 C683.932776,86.7052608 688.438345,88.7519787 688.438345,94.7556848 C688.438345,103.488348 678.608013,98.4397771 671.781393,105.807962 Z" id="Shape"></path>
        </g>
    </g>
</svg>