<?xml version="1.0" encoding="UTF-8"?>
<svg width="734px" height="414px" viewBox="0 0 734 414" version="1.1" xmlns="http://www.w3.org/2000/svg" xmlns:xlink="http://www.w3.org/1999/xlink">
    <title>show-whelans</title>
    <g id="Page-1" stroke="none" stroke-width="1" fill="none" fill-rule="evenodd">
        <g id="ALS" transform="translate(89.000000, 40.000000)" fill="#000000" fill-rule="nonzero">
            <path d="M26.6981474,1.50036845 C26.6981474,1.00024563 26.6981474,0.500122816 26.6981474,0 C26.1976277,0 25.7805279,0 25.2800082,0 C19.6908712,20.4216816 14.1017342,40.8433633 8.4291772,61.2650449 C5.2592189,71.6009165 -0.163078199,82.8536798 0.00376171207,95.6068116 C3.25713997,95.3567502 6.51051823,95.1066888 9.84731644,94.8566274 C12.1830752,90.8556449 11.0986158,85.3542939 13.3509546,80.6864809 C20.6084907,74.9350686 27.8660268,69.26701 35.1235629,63.5155976 C38.627201,74.1848843 42.1308391,84.9375249 45.6344773,95.6068116 C49.3883753,95.6068116 53.1422732,95.6068116 56.8127513,95.6068116 C48.9712755,71.2675012 41.7137394,47.1782523 33.7054237,23.9225414 C31.3696649,16.4206991 29.0339062,9.00221068 26.6981474,1.50036845 Z M20.4416508,61.2650449 C19.941131,61.2650449 19.5240313,61.2650449 19.0235115,61.2650449 C21.1090104,52.7629571 23.1945093,44.344223 25.3634281,35.8421351 C25.8639479,35.8421351 26.2810476,35.8421351 26.7815674,35.8421351 C28.4499665,41.0934247 30.0349456,46.2613605 31.7033447,51.51265 C27.8660268,54.7634483 24.1121288,58.0142466 20.4416508,61.2650449 Z M361.128748,248.394332 C361.796108,248.394332 362.463468,248.394332 363.130827,248.394332 C362.129788,245.893718 363.547927,247.310732 361.128748,246.310487 C361.128748,247.060671 361.128748,247.727501 361.128748,248.394332 Z M96.1035502,37.3425036 C110.118103,57.2640624 124.132655,77.1856212 138.147208,97.1071801 C138.647727,97.1071801 139.064827,97.1071801 139.565347,97.1071801 C139.565347,87.438139 139.565347,77.6857441 139.565347,68.0167029 C139.315087,48.3452055 139.064827,28.6737081 138.897987,9.00221068 C135.644609,9.25227209 132.391231,9.5023335 129.054433,9.75239491 C129.054433,10.0024563 129.054433,10.2525177 129.054433,10.5025791 C129.054433,28.4236467 129.054433,46.3447143 129.054433,64.2657818 C115.29014,44.8443458 101.442427,25.4229098 87.6781347,6.00147379 C87.6781347,5.75141238 87.6781347,5.50135097 87.6781347,5.25128957 C87.177615,5.25128957 86.7605152,5.25128957 86.2599955,5.25128957 C86.2599955,35.3420123 86.2599955,65.5160889 86.2599955,95.6068116 C89.5133738,95.6068116 92.766752,95.6068116 96.1035502,95.6068116 C96.1035502,76.1853756 96.1035502,56.7639396 96.1035502,37.3425036 Z M322.755569,121.696552 C322.755569,142.118233 322.755569,162.623269 322.755569,183.044951 C322.505309,183.044951 322.255049,183.044951 322.088209,183.044951 C309.408376,162.87333 296.645123,142.618356 283.96529,122.446736 C283.46477,122.196675 283.04767,121.946613 282.54715,121.696552 C278.626412,121.696552 274.705675,121.696552 270.784937,121.696552 C272.870436,132.365839 282.46373,140.451157 287.385508,148.536476 C301.90058,171.542126 316.499072,194.547775 331.014144,217.553425 C331.681504,217.553425 332.432284,217.553425 333.099643,217.553425 C332.849383,185.628918 332.599124,153.621058 332.432284,121.696552 C329.178905,121.696552 325.925527,121.696552 322.755569,121.696552 Z M396.832489,132.449192 C397.082749,129.11504 397.333009,125.780888 397.499849,122.446736 C397.249589,122.196675 396.999329,121.946613 396.832489,121.696552 C385.987895,121.946613 375.143301,122.196675 364.298707,122.446736 C364.298707,143.118479 364.298707,163.873576 364.298707,184.545319 C364.298707,193.214114 363.047407,206.0506 365.716846,212.135428 C375.89408,212.135428 386.071315,212.135428 396.248549,212.135428 C396.248549,208.301153 396.248549,204.466878 396.248549,200.632603 C389.324693,200.882664 382.400837,201.132726 375.476981,201.382787 C375.226721,201.382787 374.976461,201.382787 374.809621,201.382787 C373.975421,164.457053 382.150577,180.711044 396.999329,165.373944 C397.249589,164.873822 397.499849,164.373699 397.666689,163.873576 C396.248549,160.789485 394.91383,157.705395 393.495691,154.704658 C387.489454,158.03881 381.483217,161.372962 375.476981,164.707114 C375.226721,164.707114 374.976461,164.707114 374.809621,164.707114 C374.809621,153.954473 374.809621,143.201833 374.809621,132.532546 C382.067157,132.449192 389.491533,132.449192 396.832489,132.449192 Z M84.4247565,260.313926 C92.0993924,260.313926 99.7740283,260.313926 107.448664,260.313926 C107.448664,283.819698 107.448664,307.32547 107.448664,330.831243 C110.868882,330.831243 114.205681,330.831243 117.625899,330.831243 C117.625899,307.32547 117.625899,283.819698 117.625899,260.313926 C125.050275,260.313926 132.558071,260.313926 139.982447,260.313926 C139.982447,257.063127 139.982447,253.812329 139.982447,250.561531 C121.463217,250.561531 102.943987,250.561531 84.3413365,250.561531 C84.4247565,253.812329 84.4247565,257.063127 84.4247565,260.313926 Z M278.376153,250.561531 C278.376153,277.73487 278.376153,304.991564 278.376153,332.248257 C281.796371,332.248257 285.133169,332.248257 288.553387,332.248257 C288.553387,322.745924 288.553387,313.160236 288.553387,303.657903 C289.220747,302.49095 293.558584,301.323997 294.643044,300.157043 C299.397981,302.157535 307.239457,326.246783 310.242576,332.248257 C314.079893,332.248257 317.917211,332.248257 321.754529,332.248257 C320.58665,323.579462 310.909935,300.907227 306.154998,294.572338 C307.489717,292.321786 322.922409,277.651517 325.842107,275.067549 C327.927606,247.894209 304.653439,249.811346 278.376153,250.561531 Z M290.555466,290.321295 C290.138366,290.321295 289.637847,290.321295 289.220747,290.321295 C289.220747,280.5689 289.220747,270.816505 289.220747,260.980756 C300.649281,260.814048 310.075736,261.564233 315.664873,267.232291 C313.996474,279.735362 298.396942,283.65299 290.555466,290.321295 Z M407.927343,279.151885 C407.677083,279.401946 407.510243,279.652008 407.259984,279.818715 C398.417468,270.066321 389.658373,260.313926 380.815858,250.478177 C376.06092,250.478177 371.305983,250.478177 366.551045,250.478177 C368.302864,257.063127 393.829371,283.819698 399.752188,288.154096 C395.58119,298.32326 378.646939,310.326207 371.305983,318.828295 C368.136025,322.579216 365.132906,327.91386 360.461389,329.997705 C360.461389,330.664535 360.461389,331.414719 360.461389,332.082028 C379.814818,332.164903 385.403955,321.328909 393.662531,310.409561 C412.181761,291.071479 430.700991,271.81675 449.303641,252.478668 C449.303641,251.811838 449.303641,251.061654 449.303641,250.394823 C423.860555,250.228115 421.858476,268.149183 407.927343,279.151885 Z M553.995685,21.6719887 C543.401351,8.66879547 541.732952,9.00141731 518.959304,9.00141731 C514.788306,9.00141731 510.533888,9.00141731 506.36289,9.00141731 C505.862371,9.00141731 505.445271,9.00141731 504.944751,9.00141731 C504.694491,37.8426264 504.444232,66.7663959 504.277392,95.6901654 C507.78103,95.6901654 511.284668,95.6901654 514.788306,95.6901654 C515.038566,85.2709401 515.288826,74.768361 515.455666,64.3491356 C517.541164,63.0988286 519.626663,61.8485216 521.795582,60.5982145 C525.96658,62.4319982 535.810135,89.6053378 537.895634,95.6901654 C541.399272,95.6901654 544.90291,95.6901654 548.406548,95.6901654 C547.739188,80.4364195 538.312733,66.2662731 532.973856,53.8465565 C543.568191,47.2616061 554.245945,40.0931791 553.995685,21.6719887 Z M516.790385,50.0956354 C516.289865,50.0956354 515.872765,50.0956354 515.372246,50.0956354 C515.372246,39.9264715 515.372246,29.6739537 515.372246,19.5047898 C527.551559,19.3380822 536.060395,19.7548512 542.733991,24.7560794 C541.899791,39.259641 525.13238,42.9272084 516.790385,50.0956354 Z M24.0287088,284.73659 C22.1934698,282.402683 20.4416508,280.068777 18.6064117,277.73487 C18.3561519,266.148692 31.5365048,255.81282 40.9629598,264.481616 C45.5510573,263.398016 45.4676374,260.063864 49.1381154,258.230081 C47.3028764,250.728238 35.6240826,250.811592 26.1142077,251.228361 C20.4416508,255.062636 15.0193537,256.813066 11.1820357,262.397771 C-6.16931498,287.737327 27.9494467,297.406368 41.7137394,303.574549 C42.8816187,308.242362 43.5489784,312.826821 41.0463797,316.827804 C40.0453403,319.078356 39.2945607,319.495125 36.9588019,320.328664 C29.8681057,324.246292 21.6929501,317.244573 19.3571913,313.326944 C18.9400916,313.326944 18.4395718,313.326944 18.0224721,313.326944 C16.0203931,315.910912 13.9348942,318.411526 11.9328153,320.995494 C14.8525138,330.914596 29.0339062,332.581672 41.1297997,331.498073 C44.5500179,328.747398 47.8868161,325.913368 51.3070342,323.162693 C53.3925331,319.745187 54.0598928,314.410544 54.0598928,309.242608 C53.7262129,288.404157 35.8743425,293.07197 24.0287088,284.73659 Z M292.474125,94.8566274 C295.727503,94.8566274 298.980882,94.8566274 302.31768,94.8566274 C302.31768,70.1839018 302.31768,45.59453 302.31768,20.9218045 C309.992316,20.9218045 317.750372,20.9218045 325.425007,20.9218045 C325.425007,16.9208219 325.425007,12.9198394 325.425007,9.00221068 C306.738937,9.00221068 288.052867,9.00221068 269.366797,9.00221068 C269.366797,13.0031932 269.366797,17.0041757 269.366797,20.9218045 C277.041433,20.9218045 284.799489,20.9218045 292.474125,20.9218045 C292.474125,45.59453 292.474125,70.2672556 292.474125,94.8566274 Z M445.966843,95.6068116 C456.978277,95.6068116 467.906291,95.6068116 478.917725,95.6068116 C478.917725,92.3560133 478.917725,89.105215 478.917725,85.9377705 C471.409929,85.9377705 463.985553,85.9377705 456.477757,85.9377705 C456.477757,78.6859897 456.477757,71.5175627 456.477757,64.2657818 C463.985553,60.2647993 471.409929,56.2638168 478.917725,52.3461881 C477.499586,48.8453283 476.081447,45.3444686 474.746727,41.9269627 C468.907331,43.093916 461.983474,47.2616061 457.895896,50.9291734 C457.395377,50.9291734 456.978277,50.9291734 456.477757,50.9291734 C456.477757,40.5099481 456.477757,30.0073689 456.477757,19.5881436 C463.985553,19.3380822 471.409929,19.0880208 478.917725,18.8379594 C478.917725,15.8372225 478.917725,12.8364856 478.917725,9.83574871 C467.906291,9.83574871 456.978277,9.83574871 445.966843,9.83574871 C445.966843,38.3427492 445.966843,67.0164573 445.966843,95.6068116 Z M136.979328,199.965773 C122.881356,199.965773 108.783383,199.965773 94.685411,199.965773 C94.4351511,174.626217 94.1848913,149.370014 94.0180514,124.030458 C90.7646731,124.28052 87.5112948,124.530581 84.3413365,124.780643 C84.3413365,153.621058 84.3413365,182.544828 84.3413365,211.468597 C101.859527,211.468597 119.461138,211.468597 136.979328,211.468597 C136.979328,207.634322 136.979328,203.800047 136.979328,199.965773 Z M216.728806,209.134691 C235.248036,203.216571 252.766226,176.710062 241.671372,148.536476 C235.081196,131.782362 220.816383,123.363628 198.042736,124.030458 C183.861343,132.282485 173.183589,135.699991 167.511032,153.204289 C157.083538,185.628918 186.197102,218.803732 216.728806,209.134691 Z M178.605886,156.205026 C183.444243,142.951772 191.619399,141.784818 202.881093,135.533283 C242.005052,135.03316 241.671372,195.214606 206.384731,199.215588 C188.783121,201.132726 170.84783,177.376892 178.605886,156.205026 Z M211.807028,94.8566274 C230.493098,90.5222297 252.682806,66.5996883 241.921632,37.3425036 C235.414876,19.6714974 220.732963,10.5859329 196.374337,11.1694096 C180.190865,20.7550969 170.43073,21.5052811 164.841593,43.2606236 C157.584057,71.6009165 183.944763,101.27487 211.807028,94.8566274 Z M176.770647,43.3439774 C181.191905,30.0907227 189.70074,28.9237695 200.628754,22.4221729 C240.586913,21.5886349 242.255312,75.9353142 207.63603,83.6872178 C188.282601,87.9382618 170.180471,62.932121 176.770647,43.3439774 Z M361.128748,70.2672556 C372.557282,61.0149835 384.069236,51.8460652 395.49777,42.5937931 C395.74803,42.5937931 395.99829,42.5937931 396.16513,42.5937931 C396.16513,60.0147379 396.16513,77.4356826 396.16513,94.8566274 C399.418508,94.8566274 402.671886,94.8566274 406.008684,94.8566274 C406.008684,66.9331035 406.008684,39.0929334 406.008684,11.1694096 C402.755306,11.1694096 399.501928,11.1694096 396.16513,11.1694096 C396.665649,42.8438546 375.059881,38.1760416 362.546888,55.2635711 C362.046368,55.2635711 361.629268,55.2635711 361.128748,55.2635711 C360.878488,40.5933019 360.628229,25.8396788 360.461389,11.1694096 C357.45827,11.419471 354.371732,11.6695324 351.368614,11.9195938 C351.368614,39.5930562 351.368614,67.1831649 351.368614,94.8566274 C354.621992,94.8566274 357.87537,94.8566274 361.212168,94.8566274 C361.128748,86.6879547 361.128748,78.4359283 361.128748,70.2672556 Z M198.376415,253.979037 C184.612123,262.981247 173.850949,264.398262 169.179431,283.319575 C162.255575,311.576514 188.115761,338.083023 214.643307,332.164903 C236.332495,327.330383 256.019605,298.489967 240.420073,272.150166 C232.411757,258.64685 220.399284,253.478914 198.376415,253.979037 Z M209.888369,321.745678 C193.037538,325.246538 174.935408,303.824611 180.024025,286.153604 C184.028183,272.400227 191.869659,270.899859 203.047933,264.481616 C242.922672,263.564724 244.007131,314.577251 209.888369,321.745678 Z" id="Shape"></path>
        </g>
    </g>
</svg>