<?xml version="1.0" encoding="UTF-8"?>
<svg width="734px" height="414px" viewBox="0 0 734 414" version="1.1" xmlns="http://www.w3.org/2000/svg" xmlns:xlink="http://www.w3.org/1999/xlink">
    <title>show-whelans</title>
    <g id="Page-1" stroke="none" stroke-width="1" fill="none" fill-rule="evenodd">
        <g id="show-parlour" transform="translate(12.000000, 29.000000)" fill="#181818" fill-rule="nonzero">
            <path d="M633.489739,3.87307545 C637.165695,5.09854073 641.45431,6.93673866 644.517606,9.38766922 C660.446749,19.1913915 669.636639,36.960638 675.763232,57.1808152 C684.953122,89.6556451 673.312595,134.99786 662.897386,156.443503 C658.608771,165.02176 653.707496,175.438215 646.355584,180.952808 C646.355584,180.952808 646.968244,181.565541 646.968244,181.565541 C650.03154,187.080135 653.707496,191.981996 656.158134,198.109322 C664.122705,216.491302 667.798661,236.098746 678.826528,250.804329 C683.727803,257.544389 689.854396,264.284448 702.107583,264.284448 C703.332901,262.44625 705.170879,258.157121 708.234176,258.157121 C708.234176,258.769854 708.234176,258.769854 708.234176,259.382586 C709.459494,261.220784 708.846835,266.735378 708.846835,269.799041 C708.846835,278.377298 708.846835,287.568288 708.846835,296.146545 C707.621517,296.759277 707.621517,297.37201 705.170879,297.984743 C700.269605,290.019218 694.143011,292.470149 684.953122,288.793753 C676.98855,285.73009 667.798661,280.828229 663.510045,274.700902 C656.158134,264.89718 650.03154,253.867993 644.517606,242.226073 C638.391013,227.520489 634.102398,211.58944 626.137827,198.722055 C615.722618,204.849381 604.69475,210.976708 590.603586,212.814906 C590.603586,226.907756 590.603586,241.000607 590.603586,255.093458 C591.828905,258.157121 594.279542,258.769854 594.892201,263.058982 C594.892201,263.058982 594.279542,263.671715 594.279542,263.671715 C583.251674,264.284448 572.836466,266.122645 561.808598,266.122645 C561.808598,265.509913 561.195939,264.89718 561.195939,263.671715 C566.097213,260.608052 565.484554,254.480725 565.484554,246.515201 C565.484554,234.873281 565.484554,223.231361 565.484554,211.58944 C554.456686,210.976708 541.59084,198.722055 536.689566,191.369263 C534.851588,188.918333 534.238928,185.241937 531.175632,183.403739 C530.562973,188.918333 527.499676,193.207461 525.661698,196.883857 C518.309786,210.976708 497.479369,230.584152 473.585656,220.78043 C461.945129,215.878569 453.980557,204.236649 451.52992,190.756531 C451.52992,190.756531 450.917261,190.756531 450.917261,190.756531 C450.304601,196.271124 446.015986,201.172986 443.565349,205.462114 C436.213437,217.716767 418.446317,236.098746 394.552603,229.97142 C385.975373,227.520489 381.074098,222.618628 374.947505,218.3295 C374.947505,223.231361 374.947505,228.745954 374.947505,233.647816 C341.863901,236.711479 308.780298,239.162409 275.084035,242.226073 C275.084035,241.61334 275.084035,240.387875 275.084035,239.775142 C276.922013,238.549677 278.147332,237.324211 278.759991,234.873281 C279.98531,233.035083 275.696695,226.907756 275.084035,225.069559 C272.633398,218.942232 271.408079,212.814906 268.957442,206.687579 C267.119464,202.398451 264.668827,198.109322 263.443508,193.207461 C259.154893,193.207461 255.478937,194.432927 250.577663,194.432927 C250.577663,207.300312 250.577663,220.167697 250.577663,233.647816 C251.802981,237.936944 254.253618,239.775142 254.866278,244.06427 C253.640959,244.677003 253.0283,245.289736 250.577663,245.289736 C247.514366,247.127934 242.613091,245.289736 238.324476,246.515201 C230.359905,248.353399 220.557356,247.127934 211.980125,248.966132 C207.078851,250.191597 198.50162,251.417062 194.213005,249.578864 C193.600346,248.353399 193.600346,247.740666 193.600346,245.902468 C196.050983,243.451538 199.11428,242.226073 199.11428,237.324211 C197.276302,234.873281 196.663642,231.196885 196.663642,228.133222 C183.185137,229.358687 169.706632,230.584152 156.840786,231.809618 C156.228127,236.711479 153.77749,240.387875 155.002808,245.289736 C158.066105,246.515201 160.516742,247.740666 160.516742,252.029795 C153.77749,256.318923 133.559732,256.931656 123.144524,256.931656 C122.531864,255.706191 121.919205,255.093458 121.306546,253.25526 C131.109095,241.61334 134.785051,224.456826 138.461007,206.687579 C138.461007,206.687579 137.848347,206.687579 137.848347,206.687579 C137.848347,207.300312 137.848347,207.300312 137.848347,207.913045 C133.559732,212.202173 130.496436,218.942232 126.82048,224.456826 C120.081227,233.647816 109.666019,241.61334 99.8634694,247.740666 C93.7368762,251.417062 85.772305,255.093458 79.0330525,257.544389 C75.3570966,258.769854 71.6811406,259.382586 68.0051847,260.608052 C68.0051847,274.700902 68.0051847,288.793753 68.0051847,302.886604 C69.8431627,304.724802 72.2938,307.788465 72.2938,311.464861 C72.2938,311.464861 71.6811406,312.077593 71.6811406,312.077593 C59.4279542,311.464861 49.0127457,312.077593 37.9848779,312.690326 C37.3722186,312.077593 37.3722186,310.852128 37.3722186,309.626663 C41.6608339,306.563 41.6608339,300.435673 41.6608339,293.082882 C41.6608339,281.440961 41.6608339,270.411774 41.6608339,258.769854 C14.7038237,255.706191 -7.35191186,218.3295 3.67595593,185.241937 C9.18988983,168.085423 22.0557356,152.154374 41.6608339,149.703444 C41.6608339,141.125187 41.6608339,131.934197 41.6608339,123.35594 C40.4355152,119.679544 37.9848779,119.066812 37.3722186,114.777683 C45.3367898,114.164951 53.301361,113.552218 61.8785915,112.939485 C64.3292288,112.939485 68.617844,111.71402 70.455822,112.326753 C71.6811406,112.939485 71.6811406,112.939485 71.6811406,114.777683 C64.9418881,119.066812 67.3925254,138.061524 67.3925254,149.090711 C75.3570966,149.703444 83.9343271,152.767107 92.5115576,150.928909 C95.5748542,150.316176 97.4128321,151.541642 98.0254915,152.767107 C98.6381508,154.605305 96.8001728,158.894433 96.1875135,160.732631 C93.1242169,168.698156 89.448261,176.66368 86.3849644,184.629204 C85.1596457,184.629204 83.9343271,184.629204 82.7090084,184.629204 C79.6457118,180.340076 72.2938,177.889145 67.3925254,175.438215 C67.3925254,194.432927 67.3925254,214.040371 67.3925254,233.035083 C67.3925254,233.035083 68.0051847,233.035083 68.0051847,233.035083 C71.6811406,230.584152 77.1950745,230.584152 80.8710305,228.745954 C88.2229423,225.682291 94.3495355,220.167697 100.476129,215.265836 C104.152085,212.814906 106.602722,207.913045 109.666019,204.236649 C117.63059,193.207461 123.144524,180.952808 126.82048,165.634492 C128.658458,158.281701 127.433139,150.928909 129.271117,142.963385 C131.109095,134.99786 129.883776,120.292277 128.045798,113.552218 C124.982502,103.135763 121.306546,93.9447736 115.179952,85.9792492 C107.828041,76.175527 89.448261,70.0482006 72.2938,74.9500617 C56.9773169,79.8519228 42.8861525,86.5919819 33.0836034,96.3957041 C30.6329661,98.8466347 26.9570102,100.0721 25.7316915,103.135763 C25.1190322,104.973961 25.1190322,106.812159 24.5063729,108.650357 C23.2810542,109.26309 22.6683949,109.26309 20.8304169,109.875822 C15.9291424,104.361228 11.0278678,99.4593673 6.12659322,93.9447736 C3.67595593,91.493843 0.612659322,90.2683777 0,85.9792492 C1.22531864,84.753784 0.612659322,84.1410513 2.45063729,83.5283187 C4.28861525,82.3028534 7.96457118,83.5283187 9.18988983,82.3028534 C12.2531864,80.4646555 15.316483,76.7882596 18.3797797,74.3373291 C27.5696695,67.59727 36.1469,60.857211 46.5621084,55.3426172 C46.5621084,55.3426172 61.2659322,49.2152908 76.5824152,47.3770929 C91.2862389,46.1516276 106.602722,49.8280235 106.602722,49.8280235 C120.693886,55.3426172 132.334413,65.7590721 139.686325,76.7882596 C146.425578,87.2047145 150.101534,99.4593673 153.16483,112.326753 C154.390149,116.615881 153.77749,133.159663 155.002808,135.610593 C155.615468,128.870534 158.678764,117.841347 160.516742,111.71402 C158.066105,110.488555 156.228127,108.037624 155.615468,104.361228 C156.228127,103.748496 155.615468,104.361228 156.228127,103.135763 C161.742061,100.684833 186.861093,98.8466347 194.213005,100.0721 C194.213005,100.684833 194.213005,100.684833 194.213005,101.297565 C194.825664,101.910298 194.825664,102.523031 194.825664,103.748496 C192.987686,104.973961 191.149708,106.812159 190.537049,109.26309 C192.375027,111.71402 191.762368,116.003149 192.987686,119.066812 C195.438324,127.032336 197.276302,136.223326 199.726939,144.801583 C208.916829,172.374552 215.656081,202.398451 223.007993,229.97142 C223.620652,229.97142 223.620652,229.97142 224.233312,229.97142 C224.233312,184.629204 224.233312,139.899722 224.233312,94.5575062 C242.000432,94.5575062 265.894146,87.2047145 282.435947,92.7193083 C289.787859,95.1702388 293.463815,100.0721 299.590408,103.748496 C299.590408,101.297565 299.590408,99.4593673 299.590408,97.0084368 C297.75243,95.1702388 295.301793,93.3320409 295.301793,89.6556451 C295.301793,89.6556451 295.914452,89.0429124 295.914452,89.0429124 C306.94232,88.4301798 317.970188,87.2047145 328.385396,86.5919819 C328.385396,87.2047145 328.998056,87.8174472 328.998056,89.0429124 C322.258803,93.3320409 324.70944,109.26309 324.70944,120.292277 C324.70944,149.703444 324.70944,179.114611 324.70944,208.525777 C334.51199,208.525777 345.539857,207.913045 354.729747,206.074847 C359.018362,204.849381 363.306978,206.687579 366.370274,204.236649 C360.243681,198.109322 359.018362,184.016472 356.567725,174.212749 C347.377835,136.223326 365.757615,92.7193083 388.42601,81.0773881 C412.319723,68.8227353 441.114712,82.3028534 446.628645,102.523031 C446.628645,102.523031 447.241305,102.523031 447.241305,102.523031 C447.241305,97.6211694 447.241305,92.7193083 447.241305,87.8174472 C446.015986,85.9792492 442.95269,79.2391902 442.95269,76.7882596 C442.95269,76.7882596 443.565349,76.175527 443.565349,76.175527 C454.593217,75.5627944 465.008425,73.7245964 476.036293,73.7245964 C476.648952,74.9500617 476.648952,75.5627944 476.648952,77.4009923 C470.522359,82.3028534 472.360337,98.233902 472.360337,109.26309 C472.360337,124.581406 472.360337,139.899722 472.360337,155.83077 C472.360337,165.634492 471.747678,176.050947 474.198315,183.403739 C476.036293,188.918333 480.324908,196.883857 489.514798,195.045659 C496.86671,193.207461 502.993303,188.3056 505.44394,181.565541 C507.894578,176.050947 507.281918,166.859958 507.281918,159.507166 C507.281918,145.414315 507.281918,131.321465 507.281918,116.615881 C507.281918,106.199426 507.281918,95.7829715 507.281918,84.753784 C506.0566,79.8519228 502.993303,76.7882596 502.380644,71.2736659 C502.380644,71.2736659 502.993303,70.6609332 502.993303,70.6609332 C514.021171,70.0482006 524.436379,68.2100027 535.464247,68.2100027 C536.076906,68.8227353 536.076906,70.0482006 536.076906,71.2736659 C529.337654,78.6264576 531.788291,108.037624 531.788291,122.743208 C531.788291,122.743208 532.400951,122.743208 532.400951,122.743208 C532.400951,122.130475 532.400951,122.130475 532.400951,121.517742 C534.851588,119.066812 536.076906,116.003149 537.914884,112.939485 C543.428818,106.199426 553.844027,100.684833 563.646576,98.8466347 C563.646576,90.2683777 563.646576,81.0773881 563.646576,72.4991312 C562.421257,71.2736659 559.357961,66.9845374 559.357961,64.5336068 C559.357961,64.5336068 559.97062,63.9208742 559.97062,63.9208742 C570.998488,63.3081416 582.026356,62.0826763 593.054223,61.4699436 C593.054223,65.7590721 589.990927,66.9845374 588.765608,70.6609332 C588.765608,79.8519228 588.765608,89.0429124 588.765608,98.8466347 C594.279542,98.8466347 600.406135,100.0721 605.30741,100.684833 C609.596025,101.910298 615.722618,100.684833 619.398574,101.297565 C621.236552,105.586694 613.271981,121.517742 610.821344,126.419603 C608.983366,130.095999 610.208684,134.385128 604.69475,134.385128 C601.018795,130.095999 595.504861,126.419603 588.765608,125.194138 C588.765608,144.18885 588.765608,163.796295 588.765608,182.791006 C597.342839,181.565541 604.082091,177.889145 609.596025,174.212749 C632.877079,160.119899 642.679628,138.674256 649.418881,108.037624 C650.6442,102.523031 649.418881,97.6211694 650.6442,92.1065756 C656.158134,66.9845374 642.679628,38.1861033 629.813783,29.6078463 C606.532728,13.0640651 575.287103,30.220579 559.357961,42.4752318 C556.294664,44.9261623 551.39339,49.8280235 549.555412,53.5044193 C548.330093,55.3426172 547.717434,59.6317457 545.879456,60.2444784 C545.266796,60.2444784 544.041478,60.2444784 543.428818,60.2444784 C540.365522,57.1808152 536.689566,53.5044193 533.626269,50.4407561 C531.788291,48.6025582 531.175632,46.7643603 529.337654,44.9261623 C526.887017,42.4752318 523.211061,41.2497665 523.211061,35.7351727 C528.724995,36.3479054 534.238928,33.8969748 539.140203,30.8333116 C550.168071,24.0932526 559.97062,15.5149956 572.223806,9.38766922 C572.223806,9.38766922 586.92763,1.42214489 602.244113,0.196679613 C617.560596,-1.02878567 633.489739,3.87307545 633.489739,3.87307545 Z M41.6608339,176.050947 C41.0481746,176.050947 41.0481746,176.050947 40.4355152,176.050947 C36.7595593,179.114611 32.470944,180.952808 30.6329661,185.85467 C22.0557356,204.236649 28.1823288,222.618628 41.6608339,230.584152 C41.6608339,212.202173 41.6608339,194.432927 41.6608339,176.050947 Z M564.871895,183.403739 C564.871895,165.02176 564.871895,146.639781 564.871895,128.870534 C564.871895,128.870534 564.259235,128.870534 564.259235,128.870534 C561.195939,131.321465 557.519983,132.54693 555.069345,135.610593 C545.879456,149.703444 549.555412,178.501878 564.871895,183.403739 Z M380.461439,156.443503 C380.461439,174.212749 384.750054,187.080135 392.101966,196.883857 C394.552603,200.560253 400.066537,206.074847 407.418449,204.236649 C430.699503,198.109322 437.438756,150.316176 427.023547,124.581406 C422.734932,114.164951 419.671635,104.973961 404.355152,104.973961 C401.291856,106.812159 398.228559,107.424892 395.165262,109.26309 C385.362713,116.615881 383.524735,131.934197 380.461439,146.027048 C380.461439,149.703444 380.461439,153.37984 380.461439,156.443503 Z M290.400518,196.271124 C292.851156,201.785718 295.301793,208.525777 297.75243,214.040371 C298.36509,216.491302 298.36509,218.3295 299.590408,219.554965 C299.590408,207.913045 299.590408,196.271124 299.590408,184.629204 C299.590408,180.952808 300.815727,173.600017 298.977749,171.149086 C297.139771,173.600017 295.301793,176.050947 293.463815,178.501878 C291.013178,180.340076 287.337222,181.565541 286.111903,184.016472 C288.562541,188.3056 288.562541,192.594729 290.400518,196.271124 Z M249.965003,167.47269 C270.182761,167.47269 288.562541,158.281701 283.048607,134.99786 C282.435947,131.321465 282.435947,128.257801 281.210629,125.806871 C276.309354,118.454079 262.21819,120.292277 250.577663,120.292277 C250.577663,120.292277 249.965003,120.90501 249.965003,120.90501 C249.965003,136.223326 249.965003,152.154374 249.965003,167.47269 Z M167.255995,203.623916 C169.706632,201.785718 185.023115,201.785718 188.699071,201.785718 C188.699071,201.172986 188.699071,201.172986 188.699071,200.560253 C186.861093,198.109322 187.473752,193.820194 186.248434,190.756531 C183.797797,182.791006 181.347159,173.600017 178.896522,165.634492 C177.671203,161.958097 177.671203,155.218038 175.220566,152.767107 C174.607907,160.732631 171.54461,168.698156 169.706632,176.050947 C166.643335,185.241937 166.030676,195.045659 162.96738,204.236649 C164.192698,203.623916 166.030676,203.623916 167.255995,203.623916 Z M414.770361,57.7935478 C414.770361,59.6317457 412.932383,47.9898256 412.932383,47.9898256 C463.783107,44.3134297 502.993303,41.2497665 502.993303,41.2497665 L502.993303,51.6662214 C503.605962,51.0534888 465.008425,54.117152 414.770361,57.7935478 Z M406.80579,63.9208742 C407.418449,66.3718048 407.418449,70.0482006 407.418449,73.1118638 C396.390581,73.7245964 385.362713,74.9500617 374.334846,75.5627944 C375.560164,70.0482006 375.560164,62.0826763 369.433571,60.2444784 C368.820912,59.6317457 367.595593,59.6317457 366.370274,59.0190131 C366.370274,65.1463395 366.370274,71.2736659 367.595593,76.175527 C366.370274,76.7882596 363.306978,76.7882596 361.469,76.7882596 C360.85634,77.4009923 359.018362,77.4009923 357.180385,77.4009923 C357.180385,76.7882596 356.567725,76.175527 356.567725,75.5627944 C359.631022,73.7245964 358.405703,55.9553499 358.405703,50.4407561 C358.405703,47.9898256 359.018362,44.3134297 357.793044,42.4752318 C357.793044,43.0879644 357.793044,43.7006971 357.793044,44.3134297 C354.117088,43.7006971 352.891769,43.7006971 349.215813,43.7006971 C349.215813,55.3426172 349.215813,68.2100027 351.053791,77.4009923 C347.377835,78.0137249 343.701879,78.0137249 340.025924,78.6264576 C341.251242,68.8227353 341.251242,55.9553499 341.251242,44.3134297 C337.575286,44.9261623 335.737308,46.1516276 332.674012,46.1516276 C332.674012,43.0879644 332.674012,39.4115686 332.674012,36.3479054 C344.314539,35.7351727 355.955066,34.5097075 368.208252,33.8969748 C367.595593,38.1861033 366.982934,44.9261623 366.982934,51.0534888 C370.65889,51.0534888 373.109527,51.6662214 376.172824,52.8916867 C376.172824,47.3770929 376.172824,41.2497665 376.172824,35.7351727 C374.947505,35.1224401 375.560164,35.1224401 374.947505,33.8969748 C376.785483,33.2842422 379.23612,33.2842422 381.686757,33.2842422 C382.912076,32.0587769 402.517174,30.8333116 406.80579,30.8333116 C407.418449,33.2842422 407.418449,36.960638 407.418449,40.0243012 C406.80579,40.0243012 406.19313,40.6370339 404.967812,40.6370339 C403.129834,38.7988359 397.00324,40.6370339 393.327285,40.6370339 C393.327285,43.0879644 393.327285,46.1516276 393.327285,48.6025582 C398.228559,48.6025582 396.390581,49.8280235 401.904515,49.2152908 C402.517174,50.4407561 402.517174,51.6662214 402.517174,53.5044193 C400.066537,56.5680825 400.066537,57.7935478 394.552603,57.7935478 C393.939944,57.1808152 393.327285,57.1808152 392.714625,56.5680825 C392.714625,59.6317457 392.714625,62.6954089 392.714625,65.7590721 C398.228559,65.7590721 402.517174,63.9208742 406.80579,63.9208742 Z M384.750054,35.7351727 C384.137395,35.7351727 384.137395,35.7351727 383.524735,35.7351727 C383.524735,47.9898256 383.524735,60.2444784 383.524735,71.8863985 C384.137395,71.8863985 384.137395,71.8863985 384.750054,71.8863985 C384.750054,60.2444784 384.750054,47.9898256 384.750054,35.7351727 Z M313.681573,47.3770929 C313.681573,57.7935478 313.681573,68.2100027 313.681573,78.6264576 C314.906891,79.2391902 315.519551,79.2391902 314.906891,80.4646555 C312.456254,82.3028534 295.914452,82.915586 292.238496,82.3028534 C292.238496,81.6901208 292.238496,80.4646555 292.238496,79.8519228 C294.076474,79.2391902 293.463815,79.2391902 293.463815,76.7882596 C289.787859,76.7882596 286.724563,77.4009923 283.048607,77.4009923 C283.048607,80.4646555 283.661266,80.4646555 284.273925,82.915586 C283.661266,82.915586 283.048607,83.5283187 282.435947,83.5283187 C280.597969,84.753784 275.084035,84.753784 272.020739,84.753784 C272.020739,84.1410513 271.408079,84.1410513 271.408079,82.915586 C274.471376,79.8519228 274.471376,75.5627944 276.309354,70.0482006 C279.372651,60.857211 282.435947,51.0534888 281.823288,41.8624991 C285.499244,41.2497665 289.787859,41.2497665 293.463815,40.6370339 C294.076474,41.2497665 294.076474,42.4752318 294.076474,43.7006971 C292.851156,44.3134297 294.076474,49.8280235 295.301793,52.278954 C297.75243,59.0190131 299.590408,66.9845374 301.428386,73.1118638 C302.041046,74.9500617 303.879024,81.6901208 305.104342,79.2391902 C306.329661,77.4009923 305.717002,73.1118638 305.717002,70.0482006 C305.717002,62.6954089 305.717002,54.7298846 305.717002,47.3770929 C302.653705,47.3770929 298.977749,49.2152908 297.75243,49.2152908 C296.527112,47.3770929 297.139771,42.4752318 297.139771,40.0243012 C305.104342,39.4115686 313.681573,38.7988359 321.646144,38.1861033 C322.258803,40.6370339 322.258803,44.9261623 322.258803,47.9898256 C318.582847,47.3770929 316.744869,46.7643603 313.681573,47.3770929 Z M287.337222,58.4062804 C287.337222,58.4062804 287.337222,58.4062804 287.337222,58.4062804 C286.111903,62.0826763 285.499244,65.1463395 284.886585,68.8227353 C286.724563,68.8227353 288.562541,68.2100027 290.400518,68.2100027 C289.1752,65.1463395 288.562541,61.4699436 287.337222,58.4062804 Z M197.888961,74.3373291 C197.888961,74.3373291 194.213005,71.8863985 194.213005,69.435468 C194.213005,66.9845374 192.987686,64.5336068 192.987686,64.5336068 C192.987686,64.5336068 224.233312,62.0826763 267.119464,59.0190131 C266.506805,60.2444784 264.668827,68.2100027 264.668827,69.435468 C226.07129,72.4991312 197.888961,74.3373291 197.888961,74.3373291 Z M328.998056,277.151833 L84.5469864,297.37201 C84.5469864,297.37201 80.8710305,294.92108 80.8710305,292.470149 C80.8710305,290.019218 79.6457118,287.568288 79.6457118,287.568288 L329.610715,266.735378 L328.998056,277.151833 Z M343.08922,307.788465 C343.08922,296.146545 343.08922,283.891892 343.08922,272.249972 C343.08922,267.348111 344.314539,259.995319 342.476561,256.318923 C341.863901,253.867993 339.413264,253.867993 337.575286,252.642527 C337.575286,252.642527 337.575286,252.029795 337.575286,252.029795 C338.187946,251.417062 338.187946,251.417062 338.800605,250.804329 C342.476561,250.191597 347.990495,255.093458 351.666451,256.318923 C352.891769,256.931656 355.955066,256.931656 356.567725,257.544389 C356.567725,257.544389 356.567725,258.157121 356.567725,258.157121 C352.27911,259.995319 354.117088,266.735378 354.117088,271.637239 C354.117088,283.279159 354.117088,294.92108 354.117088,306.563 C354.117088,310.852128 353.504429,317.592187 356.567725,318.20492 C357.180385,318.20492 357.180385,318.20492 357.793044,318.20492 C360.85634,316.366722 360.243681,309.01393 360.243681,304.724802 C360.243681,295.533812 360.243681,286.342823 360.243681,277.151833 C360.243681,274.08817 360.85634,264.89718 359.631022,263.671715 C359.018362,263.058982 357.793044,263.058982 357.793044,263.058982 C357.793044,262.44625 357.793044,261.833517 357.793044,261.220784 C357.793044,261.220784 357.793044,261.220784 358.405703,261.220784 C359.631022,260.608052 367.595593,264.89718 371.271549,264.284448 C372.496868,263.671715 373.722186,264.89718 373.722186,266.122645 C373.109527,267.348111 371.271549,267.348111 371.271549,269.186309 C371.271549,281.440961 371.271549,294.308347 371.271549,306.563 C371.271549,310.852128 370.04623,318.817653 373.722186,320.043118 C378.010801,321.268583 377.398142,313.915791 377.398142,310.239396 C377.398142,298.597475 377.398142,287.568288 377.398142,275.926368 C377.398142,272.862705 378.010801,263.671715 376.785483,263.058982 C375.560164,262.44625 374.334846,263.058982 373.722186,261.220784 C374.947505,259.995319 377.398142,259.382586 379.23612,258.769854 C382.299417,256.931656 384.750054,254.480725 387.200691,252.642527 C388.42601,252.029795 389.651329,250.804329 390.876647,251.417062 C390.876647,251.417062 390.876647,252.029795 390.876647,252.029795 C390.876647,254.480725 388.42601,253.867993 387.813351,256.318923 C387.813351,260.608052 387.813351,264.89718 387.813351,268.573576 C387.813351,281.440961 387.813351,294.308347 387.813351,307.175732 C387.813351,319.430385 387.813351,329.234107 379.848779,333.523236 C374.947505,335.974166 366.370274,329.234107 362.081659,329.234107 C362.081659,331.072305 362.081659,332.910503 362.694318,334.135969 C362.081659,334.748701 360.85634,334.748701 359.631022,335.361434 C354.117088,336.586899 352.27911,333.523236 349.828473,331.072305 C345.539857,334.135969 340.638583,335.361434 338.800605,329.84684 C338.800605,329.84684 338.800605,329.84684 338.800605,329.84684 C343.701879,326.783177 343.08922,314.528524 343.08922,307.788465 Z M381.074098,334.135969 C384.750054,334.748701 388.42601,334.748701 392.101966,335.361434 C392.101966,335.974166 392.101966,336.586899 392.101966,337.812364 C390.876647,338.425097 390.876647,339.650562 389.651329,340.263295 C385.975373,343.326958 382.299417,342.101493 379.848779,339.650562 C379.848779,339.650562 379.848779,339.650562 379.848779,339.650562 C377.398142,342.714225 371.271549,343.326958 373.109527,337.199632 C367.595593,337.812364 360.243681,334.748701 362.081659,328.621375 C368.208252,330.459573 374.334846,332.297771 381.074098,334.135969 Z M400.679196,345.165156 C407.418449,343.939691 418.446317,338.425097 421.509613,334.135969 C416.608339,335.974166 401.291856,339.650562 395.777922,337.812364 C395.777922,337.812364 395.777922,337.199632 396.390581,337.199632 C397.00324,336.586899 397.6159,335.361434 398.228559,334.748701 C401.904515,335.361434 409.869086,334.135969 412.932383,332.910503 C424.57291,329.84684 434.988118,326.783177 444.178008,321.881316 C446.628645,320.65585 449.079283,319.430385 450.917261,318.20492 C450.917261,318.20492 450.917261,318.20492 451.52992,318.20492 C451.52992,319.430385 451.52992,321.881316 451.52992,323.106781 C447.241305,325.557712 442.34003,328.008642 438.051415,330.459573 C430.086844,334.748701 420.896954,338.425097 415.38302,345.165156 C413.545042,347.003354 408.031108,355.581611 404.967812,353.743413 L404.967812,353.743413 C404.355152,351.292482 406.80579,348.841552 408.031108,347.616087 C403.742493,349.454285 395.165262,354.356146 393.327285,347.616087 C390.876647,339.650562 402.517174,337.812364 400.679196,345.165156 Z M452.142579,312.690326 C452.142579,301.048406 452.142579,289.406486 452.142579,277.764566 C452.142579,274.700902 452.755239,263.058982 451.52992,261.833517 C450.917261,262.44625 450.917261,262.44625 450.304601,262.44625 C449.691942,260.608052 458.269173,253.25526 460.107151,252.029795 C460.71981,252.029795 460.71981,252.029795 461.332469,252.642527 C461.332469,252.642527 461.332469,253.25526 461.332469,253.25526 C460.71981,253.867993 460.107151,254.480725 459.494491,255.093458 C459.494491,259.382586 459.494491,263.671715 459.494491,267.960843 C459.494491,280.215496 459.494491,292.470149 459.494491,304.724802 C459.494491,309.01393 457.656513,320.65585 462.557788,319.430385 C462.557788,319.430385 462.557788,320.043118 462.557788,320.043118 C461.945129,321.881316 461.332469,322.494048 459.494491,323.106781 C460.107151,324.332246 460.107151,324.944979 459.494491,325.557712 C458.881832,325.557712 458.269173,326.170444 457.656513,326.170444 C457.043854,325.557712 457.043854,325.557712 455.818535,326.170444 C455.205876,328.008642 452.142579,328.008642 450.304601,328.008642 C452.755239,325.557712 452.142579,319.430385 452.142579,312.690326 Z M460.107151,313.303059 C461.945129,312.077593 463.783107,310.852128 465.621084,309.626663 C466.233744,309.626663 467.459062,309.626663 468.071722,309.626663 C472.360337,307.788465 476.648952,305.950267 480.324908,303.499337 C480.937568,302.886604 482.162886,301.661139 482.775545,301.661139 C483.388205,301.661139 484.000864,301.661139 484.613523,301.661139 C487.064161,301.661139 487.67682,299.822941 488.289479,297.984743 C488.289479,297.984743 488.289479,297.37201 488.289479,297.37201 C487.67682,297.37201 487.064161,297.37201 486.451501,296.759277 C487.67682,296.146545 488.902139,295.533812 489.514798,294.92108 C489.514798,296.759277 489.514798,297.984743 489.514798,299.822941 C485.226183,302.273871 481.550227,306.563 480.324908,312.077593 C479.712249,316.366722 484.000864,323.719514 487.67682,321.268583 C488.902139,320.65585 489.514798,320.043118 489.514798,318.817653 C489.514798,318.817653 488.902139,318.20492 488.902139,318.20492 C487.67682,318.817653 487.064161,318.20492 486.451501,317.592187 C486.451501,316.979455 486.451501,316.366722 485.838842,315.753989 C488.289479,310.852128 495.028732,315.141257 490.740117,321.881316 C493.803413,321.881316 496.254051,321.881316 497.479369,319.430385 C497.479369,318.817653 497.479369,318.817653 497.479369,318.20492 C496.254051,318.20492 496.254051,317.592187 495.641391,316.979455 C495.641391,315.753989 496.254051,314.528524 496.254051,313.915791 C493.190754,312.690326 496.86671,307.788465 499.930006,309.01393 C503.605962,310.239396 503.605962,316.979455 501.155325,320.65585 C498.092029,324.944979 488.902139,326.783177 482.162886,325.557712 C475.423634,324.332246 470.522359,320.043118 469.29704,313.303059 C466.233744,315.141257 462.557788,316.366722 459.494491,318.20492 C460.107151,316.979455 460.107151,315.141257 460.107151,313.303059 Z M515.859149,286.342823 C514.63383,286.955555 513.408512,288.181021 512.795852,290.019218 C512.795852,290.019218 512.795852,290.019218 512.795852,290.019218 C512.795852,288.793753 512.795852,287.568288 512.795852,286.342823 C514.021171,286.342823 515.24649,286.342823 515.859149,286.342823 C516.471808,286.342823 516.471808,286.342823 515.859149,286.342823 Z M512.183193,249.578864 C512.795852,249.578864 513.408512,248.966132 513.408512,248.966132 C520.147764,248.353399 517.697127,257.544389 513.408512,259.382586 C514.021171,258.769854 514.021171,258.157121 514.63383,257.544389 C513.408512,257.544389 513.408512,257.544389 512.795852,256.931656 C512.795852,256.318923 512.795852,256.318923 512.795852,255.706191 C510.957874,254.480725 511.570534,251.417062 512.183193,249.578864 Z M499.930006,291.857416 C498.092029,290.631951 501.155325,290.019218 502.380644,289.406486 C502.380644,290.019218 501.155325,290.631951 501.767984,291.857416 C500.542666,291.857416 500.542666,291.857416 499.930006,291.857416 Z M488.289479,255.706191 C490.127457,252.642527 491.352776,254.480725 493.803413,253.867993 C494.416073,253.25526 495.641391,252.029795 496.86671,251.417062 C498.092029,250.804329 499.930006,250.804329 501.155325,250.191597 C504.218622,249.578864 508.507237,249.578864 509.732556,251.417062 C512.183193,257.544389 510.957874,272.249972 510.957874,280.828229 C510.957874,283.891892 510.345215,288.181021 511.570534,290.631951 C512.183193,291.244684 512.795852,291.857416 514.021171,292.470149 C514.021171,293.695614 512.183193,294.308347 510.957874,293.695614 C509.119896,293.082882 507.281918,291.857416 506.0566,291.244684 C504.831281,290.631951 503.605962,291.857416 502.380644,291.244684 C502.380644,290.019218 503.605962,288.793753 504.218622,286.955555 C504.831281,283.279159 504.831281,265.509913 503.605962,263.671715 C502.380644,263.671715 499.930006,263.671715 499.317347,264.89718 C497.479369,267.348111 498.092029,281.440961 498.092029,286.342823 C498.092029,290.019218 497.479369,293.695614 501.155325,293.695614 C501.155325,293.695614 501.155325,293.695614 501.155325,294.308347 C499.930006,295.533812 499.317347,295.533812 497.479369,296.146545 C498.092029,299.210208 495.641391,297.984743 494.416073,298.597475 C493.190754,301.661139 493.190754,303.499337 490.740117,305.337534 C490.740117,305.337534 490.740117,305.337534 490.740117,305.337534 C490.740117,293.695614 490.740117,282.053694 490.740117,270.411774 C490.740117,266.735378 491.965435,259.382586 490.127457,256.931656 C489.514798,256.318923 488.902139,256.318923 488.289479,255.706191 Z M472.360337,273.475437 C472.360337,274.08817 472.360337,274.08817 472.360337,274.700902 C469.29704,275.313635 466.846403,277.151833 464.395766,278.377298 C464.395766,278.377298 464.395766,278.377298 464.395766,278.377298 C464.395766,277.151833 465.008425,277.151833 465.008425,275.926368 C465.008425,274.700902 465.008425,274.08817 465.008425,272.862705 C465.008425,268.573576 464.395766,264.284448 466.846403,262.44625 C470.522359,259.382586 477.874271,259.382586 482.162886,256.931656 C482.775545,256.931656 484.000864,256.931656 484.613523,256.931656 C485.838842,258.769854 485.838842,263.058982 485.226183,266.122645 C485.226183,273.475437 485.226183,280.828229 485.226183,288.181021 C485.226183,293.082882 484.000864,297.37201 487.67682,299.210208 C486.451501,301.048406 485.226183,301.661139 482.775545,301.048406 C481.550227,302.886604 468.684381,309.626663 466.233744,309.01393 C463.783107,305.950267 465.008425,291.857416 465.008425,286.342823 C465.008425,283.891892 464.395766,280.215496 465.621084,278.990031 C466.846403,277.764566 476.648952,278.990031 475.423634,275.926368 C475.423634,275.313635 474.198315,274.700902 474.198315,274.08817 C474.198315,272.862705 474.810974,272.249972 475.423634,271.637239 C476.648952,271.024507 477.261612,271.637239 478.48693,271.637239 C478.48693,269.799041 478.48693,267.348111 478.48693,266.122645 C478.48693,266.122645 477.874271,265.509913 477.874271,265.509913 C474.198315,264.89718 470.522359,267.960843 471.747678,271.637239 C471.747678,272.862705 471.747678,272.862705 472.360337,273.475437 Z M478.48693,276.5391 C477.874271,280.215496 473.585656,281.440961 471.135018,283.891892 C471.135018,287.568288 469.9097,294.92108 471.747678,296.759277 C479.712249,296.146545 478.48693,291.244684 478.48693,283.279159 C478.48693,282.053694 479.09959,277.151833 478.48693,276.5391 Z M425.798229,275.926368 C428.248866,272.249972 438.664074,272.249972 442.95269,269.799041 C444.178008,269.799041 445.403327,269.799041 446.015986,270.411774 C447.241305,272.249972 447.241305,285.117357 446.628645,288.181021 C439.889393,288.793753 436.213437,292.470149 434.375459,297.37201 C436.826096,297.37201 439.276734,299.822941 437.438756,302.886604 C435.600778,305.950267 433.15014,303.499337 431.312162,302.273871 C431.312162,305.337534 430.699503,309.01393 432.537481,310.239396 C438.664074,309.626663 439.276734,307.788465 439.276734,301.661139 C439.276734,299.822941 439.276734,297.984743 439.276734,296.146545 C438.664074,296.146545 438.664074,296.146545 438.051415,296.146545 C438.051415,296.146545 438.051415,296.146545 438.051415,295.533812 C438.664074,293.695614 444.790668,290.019218 447.853964,290.631951 C447.853964,290.631951 447.853964,290.631951 447.853964,290.631951 C447.241305,291.244684 446.628645,292.470149 446.015986,293.082882 C444.790668,296.759277 446.015986,304.112069 446.015986,307.788465 C446.015986,310.852128 446.628645,315.141257 445.403327,316.979455 C443.565349,320.043118 438.051415,320.65585 434.375459,321.881316 C431.924822,322.494048 428.248866,324.944979 426.410888,323.719514 C423.960251,322.494048 424.57291,316.979455 424.57291,312.690326 C424.57291,303.499337 424.57291,294.92108 424.57291,285.73009 C424.57291,283.279159 423.960251,277.764566 425.798229,275.926368 Z M431.924822,297.37201 C431.924822,297.37201 431.924822,296.759277 431.924822,297.37201 C432.537481,294.92108 433.7628,293.082882 434.375459,291.244684 C436.213437,288.793753 438.051415,286.342823 439.889393,283.891892 C439.889393,282.053694 439.889393,280.828229 439.276734,279.602764 C438.664074,279.602764 438.051415,278.990031 437.438756,278.990031 C435.600778,279.602764 433.15014,279.602764 432.537481,281.440961 C431.312162,282.053694 431.312162,295.533812 431.924822,297.37201 Z M402.517174,276.5391 C406.80579,273.475437 414.770361,272.862705 417.220998,276.5391 C419.671635,280.215496 419.058976,286.955555 419.058976,293.082882 C419.058976,302.886604 419.058976,312.077593 419.058976,321.881316 C419.671635,323.719514 420.896954,324.944979 420.896954,326.783177 C420.896954,326.783177 420.896954,326.783177 420.896954,327.395909 C417.833657,327.395909 415.995679,325.557712 412.932383,324.944979 C411.094405,324.332246 409.869086,325.557712 408.031108,325.557712 C408.031108,325.557712 408.031108,324.944979 408.031108,324.944979 C408.643768,324.332246 409.869086,323.106781 409.869086,322.494048 C409.869086,319.430385 409.869086,316.366722 410.481746,313.303059 C410.481746,306.563 410.481746,299.210208 410.481746,292.470149 C410.481746,287.568288 411.094405,280.828229 405.580471,282.666427 C401.291856,283.891892 402.517174,290.019218 402.517174,294.92108 C402.517174,301.048406 402.517174,306.563 402.517174,312.690326 C402.517174,316.366722 402.517174,320.65585 403.129834,323.106781 C403.742493,324.944979 404.967812,324.944979 406.19313,326.170444 C406.19313,326.170444 405.580471,326.783177 405.580471,326.783177 C404.355152,327.395909 403.742493,327.395909 402.517174,327.395909 C402.517174,328.621375 401.904515,329.84684 401.291856,330.459573 C400.066537,331.072305 398.841218,330.459573 398.841218,329.84684 C398.841218,329.84684 398.841218,329.84684 398.841218,329.84684 C398.841218,332.910503 397.6159,337.199632 393.939944,337.812364 C393.939944,319.430385 393.939944,300.435673 393.939944,282.053694 C393.939944,277.151833 394.552603,262.44625 393.327285,259.995319 C392.714625,259.995319 392.101966,259.382586 391.489307,259.382586 C391.489307,258.769854 391.489307,258.769854 391.489307,258.157121 C391.489307,258.157121 391.489307,258.157121 392.101966,258.157121 C393.327285,258.157121 393.939944,258.157121 395.165262,257.544389 C398.841218,256.318923 403.129834,253.867993 405.580471,257.544389 C405.580471,257.544389 405.580471,258.157121 405.580471,258.157121 C405.580471,258.157121 405.580471,258.157121 405.580471,258.157121 C404.967812,258.157121 404.355152,258.157121 403.742493,258.769854 C403.129834,259.382586 403.129834,261.833517 403.129834,263.058982 C402.517174,267.348111 402.517174,272.249972 402.517174,276.5391 Z M498.092029,296.759277 C498.704688,294.92108 501.155325,295.533812 501.767984,293.082882 C502.993303,293.082882 504.831281,292.470149 506.0566,293.082882 C508.507237,293.695614 510.345215,297.37201 514.021171,294.92108 C521.373083,299.822941 531.788291,293.695614 529.337654,282.666427 C527.499676,274.700902 521.985742,272.249972 517.697127,266.735378 C516.471808,265.509913 514.021171,261.833517 514.63383,259.382586 C517.697127,257.544389 518.309786,253.867993 517.697127,250.191597 C521.985742,246.515201 526.274357,247.127934 531.788291,248.353399 C532.400951,247.127934 532.400951,245.902468 533.01361,244.677003 C528.724995,239.162409 518.309786,237.324211 508.507237,240.387875 C501.767984,242.226073 495.028732,243.451538 488.289479,245.902468 C480.324908,248.966132 472.360337,251.417062 464.395766,253.867993 C464.395766,255.093458 464.395766,256.318923 464.395766,257.544389 C463.170447,258.769854 461.945129,259.382586 459.494491,259.382586 C459.494491,258.157121 459.494491,256.931656 459.494491,255.706191 C460.71981,255.093458 461.332469,254.480725 461.332469,252.642527 C461.332469,252.642527 460.71981,252.029795 460.71981,252.029795 C457.043854,251.417062 453.980557,255.706191 452.755239,257.544389 C447.853964,256.318923 436.826096,258.157121 431.312162,259.382586 C431.312162,263.058982 428.248866,266.122645 425.185569,264.284448 C423.960251,263.671715 423.960251,260.608052 422.734932,259.995319 C419.058976,258.157121 414.770361,267.348111 412.932383,269.186309 C411.707064,269.799041 408.643768,271.024507 407.418449,269.799041 C405.580471,267.348111 409.869086,263.671715 411.094405,262.44625 C415.995679,257.544389 422.122273,256.931656 430.086844,255.093458 C433.15014,255.093458 436.826096,255.093458 439.889393,254.480725 C438.051415,253.867993 436.826096,252.642527 436.213437,250.804329 C436.826096,250.191597 436.826096,249.578864 437.438756,248.353399 C437.438756,248.353399 437.438756,248.353399 437.438756,248.353399 C441.114712,252.642527 450.917261,252.642527 458.881832,250.804329 C473.585656,247.127934 487.064161,242.838805 500.542666,237.936944 C504.218622,236.711479 507.894578,236.098746 511.570534,234.873281 C513.408512,234.260548 515.24649,234.260548 517.084467,233.647816 C529.337654,232.42235 542.2035,233.035083 546.492115,240.387875 C544.654137,241.61334 542.816159,242.226073 541.59084,243.451538 C537.302225,246.515201 533.01361,251.417062 534.238928,258.769854 C534.851588,260.608052 535.464247,262.44625 535.464247,264.284448 C535.464247,264.284448 535.464247,264.284448 535.464247,264.284448 C533.01361,263.671715 531.788291,263.058982 531.175632,259.995319 C529.950313,259.995319 529.950313,259.995319 529.337654,259.995319 C529.337654,258.157121 528.724995,257.544389 528.112335,255.706191 C528.724995,254.480725 529.337654,254.480725 529.950313,253.867993 C529.950313,253.867993 529.950313,253.867993 529.950313,253.867993 C528.112335,250.191597 520.760423,255.093458 522.598401,259.995319 C523.82372,262.44625 526.887017,264.284448 528.724995,266.122645 C532.400951,269.186309 536.689566,272.862705 538.527544,277.151833 C539.140203,278.990031 539.752862,281.440961 540.365522,283.279159 C544.654137,303.499337 523.211061,310.239396 504.831281,311.464861 C509.119896,302.273871 508.507237,295.533812 498.092029,296.759277 Z" id="Shape"></path>
        </g>
    </g>
</svg>