<?xml version="1.0" encoding="UTF-8"?>
<svg width="734px" height="414px" viewBox="0 0 734 414" version="1.1" xmlns="http://www.w3.org/2000/svg" xmlns:xlink="http://www.w3.org/1999/xlink">
    <title>show-whelans</title>
    <g id="Page-1" stroke="none" stroke-width="1" fill="none" fill-rule="evenodd">
        <g id="cork" transform="translate(40.000000, 36.000000)" fill="#000000" fill-rule="nonzero">
            <path d="M422.302511,270.206422 C439.377042,270.206422 455.905811,272.857798 455.048186,256.949541 C454.736323,251.490826 455.36005,247.045872 452.31938,245.252294 C449.980403,243.146789 433.607566,245.174312 428.929612,245.252294 C427.916055,246.188073 427.682158,246.266055 427.370294,247.981651 C423.939795,245.174312 415.909308,246.266055 412.556774,246.422018 C411.543218,243.926606 408.65848,222.637615 408.65848,222.637615 C409.905934,219.440367 417.078796,221.93578 420.743193,221.077982 C429.007578,219.050459 439.610939,218.582569 448.031256,218.738532 C448.966847,217.724771 449.824471,216.633028 450.760062,215.619266 C450.760062,210.550459 450.838028,198.151376 447.251597,196.123853 C446.62787,195.110092 439.455008,194.56422 437.50586,195.344037 C429.787237,198.307339 412.712706,197.527523 407.488991,197.293578 C406.085605,191.834862 405.851707,185.050459 405.929673,177.798165 C405.773742,178.188073 405.695776,178.577982 405.539844,178.96789 C405.383912,178.96789 405.305946,178.96789 405.150014,178.96789 C404.994083,174.912844 404.604253,173.509174 406.709332,171.949541 C408.034752,170.623853 412.63474,171.013761 415.285581,171.169725 C415.519478,169.454128 415.519478,167.114679 413.726263,166.100917 C413.726263,165.165138 413.726263,164.307339 413.726263,163.37156 C415.441512,163.37156 417.078796,163.37156 418.794046,163.37156 C419.963534,165.477064 424.017761,167.894495 424.641488,170.389908 C429.865203,170.155963 441.87195,167.894495 446.471938,167.270642 C448.031256,159.238532 446.160074,151.518349 444.522791,144.266055 C439.377042,144.110092 429.16351,144.266055 420.743193,144.266055 C421.288954,144.422018 421.75675,144.5 422.302511,144.655963 C412.322877,149.100917 389.244972,144.266055 381.760246,147.775229 C381.760246,146.605505 381.760246,145.43578 381.760246,144.266055 C395.404278,143.486239 409.048309,142.706422 422.69234,141.926606 C422.146579,141.770642 421.678784,141.692661 421.133023,141.536697 C425.810976,141.146789 430.48893,140.756881 435.166883,140.366972 C434.932986,132.958716 434.621122,125.550459 434.387224,118.142202 C434.231293,118.53211 434.153327,118.922018 433.997395,119.311927 C433.841463,119.311927 433.763497,119.311927 433.607566,119.311927 C432.438077,100.830275 431.268589,82.4266055 430.0991,63.9449541 C429.943169,64.5688073 429.865203,65.2706422 429.709271,65.8944954 C426.590635,58.0963303 429.709271,26.9816514 425.031317,24.1743119 C425.265215,22.0688073 426.590635,23.1605505 426.590635,19.1055046 C426.434703,19.4954128 426.356737,19.8853211 426.200806,20.2752294 C426.044874,20.2752294 425.966908,20.2752294 425.810976,20.2752294 C425.655044,10.6055046 424.641488,8.57798165 424.641488,0 C409.827968,0.623853211 395.014448,1.32568807 380.200928,1.94954128 C380.74669,2.10550459 381.214485,2.18348624 381.760246,2.33944954 C376.926361,2.49541284 372.170441,2.5733945 367.336556,2.7293578 C367.882317,2.8853211 368.350113,2.96330275 368.895874,3.11926606 C352.912866,4.44495413 336.929858,5.69266055 320.946849,7.01834862 C321.102781,10.7614679 321.180747,14.5825688 321.336679,18.3256881 C327.340053,17.7798165 335.214608,17.4678899 342.38747,17.5458716 C341.763743,17.3899083 341.06205,17.3119266 340.438323,17.1559633 C341.451879,17 342.543402,16.9220183 343.556958,16.766055 C343.556958,18.9495413 343.556958,21.2110092 343.556958,23.3944954 C343.71289,23.0045872 343.790856,22.6146789 343.946788,22.2247706 C345.817969,25.266055 349.014571,66.1284404 349.014571,68.6238532 C356.733195,68.5458716 363.204364,53.1055046 365.387409,47.5688073 C366.089102,48.6605505 366.245034,46.7889908 366.556897,46.3990826 C369.831465,40.5504587 373.028066,34.7018349 376.302634,28.853211 C384.878882,13.8807339 389.244972,11.3073394 413.726263,11.3073394 C409.048309,17 407.021196,23.0825688 403.200867,28.853211 C397.899186,36.9633028 391.895812,44.9174312 387.607688,52.2477064 C385.034814,56.6146789 382.07211,64.5688073 379.03144,65.8944954 C379.265338,66.9082569 379.577201,68 379.811099,69.0137615 C379.03144,68.8577982 378.251781,68.7798165 377.472122,68.6238532 C377.160259,70.8853211 375.99077,72.6009174 374.743316,73.6926606 C374.821282,82.0366972 384.956848,87.1834862 389.556836,91.6284404 C398.055118,99.8165138 407.488991,107.614679 415.285581,117.362385 C419.105909,122.119266 422.302511,127.266055 426.590635,130.619266 C426.590635,131.555046 426.590635,132.412844 426.590635,133.348624 C419.729636,133.972477 408.580514,137.091743 401.641549,134.12844 C391.895812,129.995413 379.499235,114.788991 373.183998,106.444954 C367.726385,99.2706422 358.760308,94.4357798 353.692525,86.559633 C352.678968,86.559633 351.587446,86.559633 350.573889,86.559633 C350.028128,98.9587156 351.353548,109.330275 351.353548,122.041284 C351.50948,121.651376 351.587446,121.261468 351.743377,120.87156 C351.899309,120.87156 351.977275,120.87156 352.133207,120.87156 C352.289139,125.550459 354.784047,135.142202 352.523036,137.637615 C349.79423,139.821101 334.356983,140.522936 332.251904,137.637615 C329.912927,138.33945 331.316313,142.862385 331.472245,146.995413 C303.794353,148.944954 276.116461,150.894495 248.438568,152.844037 C247.658909,154.325688 246.723319,164.853211 246.099592,164.931193 C246.099592,165.477064 246.099592,165.944954 246.099592,166.490826 C246.333489,166.646789 246.645353,166.724771 246.879251,166.880734 C249.841954,166.334862 249.763989,163.605505 250.387716,161.03211 C252.492795,160.56422 267.852076,158.146789 270.269019,159.082569 C273.543586,160.330275 272.530029,163.059633 277.285949,163.37156 C277.285949,163.527523 277.285949,163.605505 277.285949,163.761468 C276.740188,164.151376 276.272392,164.541284 275.726631,164.931193 C275.960529,166.100917 276.272392,167.270642 276.50629,168.440367 C278.767301,168.12844 279.54696,167.348624 280.794414,168.440367 C281.340175,168.440367 281.807971,168.440367 282.353732,168.440367 C282.353732,168.830275 282.353732,169.220183 282.353732,169.610092 C281.807971,169.844037 281.340175,170.155963 280.794414,170.389908 C279.858823,171.091743 280.638482,170.93578 279.624926,170.389908 C277.363915,171.481651 280.87238,180.137615 283.133391,184.036697 C289.526594,195.266055 294.516411,206.183486 298.72657,219.12844 C299.818092,222.559633 304.02825,226.614679 304.963841,230.045872 C311.668908,229.889908 312.448567,211.018349 315.099407,205.091743 C319.855327,194.330275 321.570577,177.720183 325.624803,168.830275 C327.885814,163.761468 326.24853,157.211009 329.912927,154.793578 C334.902744,151.518349 345.42814,151.830275 352.133207,152.844037 C355.329808,157.522936 359.228103,173.977064 359.150137,181.307339 C360.553523,181.073394 362.034875,180.761468 363.438261,180.527523 C363.828091,181.541284 363.28233,180.83945 364.21792,181.307339 C364.21792,181.853211 364.21792,182.321101 364.21792,182.866972 C362.8925,182.866972 361.645046,182.866972 360.319626,182.866972 C363.204364,197.137615 367.180624,219.050459 373.183998,231.605505 C374.353486,234.100917 374.431452,243.848624 376.302634,243.692661 C378.641611,248.605505 380.74669,268.256881 383.319564,270.59633 C382.228042,272.623853 361.56708,273.40367 361.099285,272.93578 C358.838274,273.87156 358.52641,262.018349 357.590819,259.288991 C357.356922,259.288991 357.045058,259.288991 356.81116,259.288991 C355.87557,254.454128 355.329808,245.408257 353.302695,240.963303 C351.431514,243.770642 350.573889,228.56422 349.79423,227.316514 C347.845083,224.197248 341.763743,205.40367 342.38747,202.362385 C335.838335,202.908257 335.682403,216.165138 333.421392,222.247706 C326.794291,239.793578 324.221417,257.105505 317.048555,276.444954 C314.163817,278.004587 309.641795,278.62844 304.963841,277.614679 C298.648604,271.220183 296.543525,260.848624 292.879128,252.270642 C292.177435,253.206422 288.980833,244.16055 288.591004,243.302752 C287.889311,244.550459 285.6283,237.53211 285.082538,236.284404 C284.770675,236.752294 283.445255,234.880734 283.133391,234.334862 C280.092721,228.954128 279.702892,225.756881 276.50629,219.908257 C276.428324,219.986239 270.81478,212.889908 270.658848,212.5 C269.48936,212.5 268.319871,212.5 267.150383,212.5 C267.306315,213.513761 267.384281,214.605505 267.540212,215.619266 C267.384281,214.83945 267.306315,214.059633 267.150383,213.279817 C266.994451,218.348624 266.916485,223.417431 266.760553,228.486239 C266.604622,227.940367 266.526656,227.472477 266.370724,226.926606 C265.435133,244.238532 264.577508,261.472477 263.641918,278.784404 C263.01819,279.408257 262.316497,280.110092 261.69277,280.733945 C260.523282,282.605505 242.669092,282.995413 241.811467,282.683486 C241.57757,282.917431 241.265706,283.229358 241.031808,283.463303 C242.435195,284.866972 241.967399,290.091743 241.811467,292.821101 C248.048739,292.587156 254.28601,292.275229 260.523282,292.041284 C259.977521,291.885321 259.509725,291.807339 258.963964,291.651376 C262.316497,291.495413 265.746997,291.417431 269.09953,291.261468 C275.414768,288.610092 285.160504,291.651376 292.099469,289.311927 C298.492672,287.12844 306.289261,290.013761 312.760431,287.752294 C312.214669,287.362385 324.845144,286.816514 327.184121,286.192661 C334.045119,285.802752 340.984084,285.412844 347.845083,285.022936 C351.587446,282.761468 363.750125,283.463303 370.065362,283.463303 C369.519601,283.307339 369.051806,283.229358 368.506044,283.073394 C376.302634,282.293578 384.099223,281.513761 391.895812,280.733945 C391.661915,277.848624 391.350051,275.041284 391.116154,272.155963 C398.522913,271.922018 405.929673,271.610092 413.336433,271.376147 C412.556774,271.220183 411.777115,271.142202 410.997456,270.986239 C414.739819,270.752294 418.482182,270.518349 422.302511,270.206422 Z M453.099039,260.068807 C453.099039,260.458716 453.099039,260.848624 453.099039,261.238532 C452.475312,260.458716 452.553278,260.692661 452.31938,259.288991 C452.553278,259.600917 452.787175,259.834862 453.099039,260.068807 Z M426.590635,253.050459 C427.136396,253.050459 427.604192,253.050459 428.149953,253.050459 C428.149953,253.986239 428.149953,254.844037 428.149953,255.779817 C427.604192,255.93578 427.136396,256.013761 426.590635,256.169725 C426.824533,255.233945 427.136396,254.376147 427.370294,253.440367 C427.05843,253.362385 426.824533,253.206422 426.590635,253.050459 Z M415.285581,261.62844 C415.519478,261.62844 415.831342,261.62844 416.065239,261.62844 C415.67541,263.03211 416.065239,262.408257 415.285581,263.188073 C415.051683,263.422018 414.739819,263.733945 414.505922,263.96789 C414.739819,263.188073 414.973717,262.408257 415.285581,261.62844 Z M398.133084,138.417431 C398.678845,138.651376 399.146641,138.963303 399.692402,139.197248 C399.53647,139.587156 399.458504,139.977064 399.302572,140.366972 C398.912743,140.211009 398.522913,140.133028 398.133084,139.977064 C398.133084,139.509174 398.133084,138.963303 398.133084,138.417431 Z M317.048555,173.899083 C316.424828,174.133028 315.723135,174.444954 315.099407,174.678899 C315.099407,174.912844 315.099407,175.224771 315.099407,175.458716 C314.86551,175.302752 314.553646,175.224771 314.319748,175.068807 C314.553646,174.288991 314.86551,173.509174 315.099407,172.729358 C315.723135,172.963303 316.424828,173.275229 317.048555,173.509174 C317.048555,173.665138 317.048555,173.821101 317.048555,173.899083 Z M374.743316,194.56422 C374.197555,194.798165 373.729759,195.110092 373.183998,195.344037 C373.183998,194.798165 373.183998,194.330275 373.183998,193.784404 C373.729759,193.940367 374.197555,194.018349 374.743316,194.174312 C374.743316,194.330275 374.743316,194.486239 374.743316,194.56422 Z M375.912804,139.197248 C375.756873,139.197248 375.678907,139.197248 375.522975,139.197248 C375.522975,138.417431 375.522975,137.637615 375.522975,136.857798 C377.004327,137.169725 375.912804,137.247706 377.472122,137.247706 C376.926361,137.949541 376.3806,138.573394 375.912804,139.197248 Z M284.302879,248.761468 C284.302879,248.527523 284.302879,248.215596 284.302879,247.981651 C284.614743,248.683486 284.692709,248.059633 284.302879,248.761468 Z M347.065424,282.683486 C346.519662,282.683486 346.051867,282.683486 345.506106,282.683486 C345.506106,282.059633 345.506106,281.357798 345.506106,280.733945 C346.051867,280.733945 346.519662,280.733945 347.065424,280.733945 C347.065424,281.43578 347.065424,282.059633 347.065424,282.683486 Z M394.624619,268.646789 C394.624619,268.412844 394.624619,268.100917 394.624619,267.866972 C394.936482,268.568807 395.014448,267.944954 394.624619,268.646789 Z M75.198353,169.53211 C79.0186817,168.986239 82.6830787,168.440367 86.2695098,167.66055 C93.9881333,166.100917 101.160995,168.908257 104.591495,163.37156 C108.333858,157.288991 103.032177,130.619266 103.032177,122.041284 C103.266075,122.041284 103.577938,122.041284 103.811836,122.041284 C106.462676,127.188073 126.343979,146.527523 132.269387,148.944954 C132.815148,149.178899 133.282944,149.490826 133.828705,149.724771 C133.594807,148.555046 133.282944,147.385321 133.049046,146.215596 C134.140568,144.733945 135.232091,143.954128 135.777852,141.926606 C136.323613,141.926606 136.791409,141.926606 137.33717,141.926606 C137.649034,144.5 138.896488,145.123853 140.845635,145.825688 C140.143942,146.761468 140.455806,146.527523 139.286317,146.995413 C139.286317,148.944954 139.286317,150.894495 139.286317,152.844037 C142.482919,155.729358 168.367596,159.082569 176.320117,156.353211 C199.086158,148.555046 210.859008,143.408257 222.709824,124.770642 C225.594562,120.247706 227.621675,117.362385 226.218289,112.293578 C226.218289,112.137615 226.218289,112.059633 226.218289,111.90367 C227.153879,111.747706 228.011504,111.669725 228.947095,111.513761 C228.947095,98.7247706 231.519969,82.8165138 228.167436,70.5733945 C227.231845,71.9770642 227.309811,68.3119266 226.997948,67.8440367 C221.930165,60.9036697 219.669154,53.4174312 215.303064,46.7889908 C214.835268,47.4908257 207.896304,39.7706422 207.896304,39.7706422 C205.167497,37.587156 202.438691,35.3256881 199.709885,33.1422018 C190.509909,27.7614679 178.34723,24.2522936 164.235403,24.1743119 C164.625233,24.0183486 165.015062,23.940367 165.404892,23.7844037 C165.404892,23.6284404 165.404892,23.5504587 165.404892,23.3944954 C154.957462,23.6284404 143.340544,25.0321101 135.777852,30.412844 C132.347353,32.9082569 127.357536,37.353211 122.91348,38.2110092 C122.91348,38.8348624 122.91348,39.5366972 122.91348,40.1605505 C114.882993,40.7844037 100.537268,71.0412844 100.303371,79.1513761 C100.069473,79.3073394 99.7576094,79.3853211 99.5237117,79.5412844 C99.4457458,66.2844037 98.0423598,58.9541284 97.9643939,49.1284404 C97.8084621,49.6743119 97.7304962,50.1422018 97.5745644,50.6880734 C96.7949055,40.3165138 96.0152465,29.8669725 95.2355876,19.4954128 C93.0525426,19.3394495 90.7915317,19.2614679 88.6084866,19.1055046 C89.1542479,19.2614679 89.6220433,19.3394495 90.1678045,19.4954128 C81.8254539,20.2752294 73.5610692,21.0550459 65.2187186,21.8348624 C62.6458441,21.8348624 59.9950037,21.8348624 57.4221292,21.8348624 C54.6153571,23.5504587 49.3916422,21.3669725 45.7272452,22.6146789 C46.9746995,23.3944954 35.9815085,22.8486239 34.4221906,23.3944954 C36.0594744,24.4862385 25.8459423,24.0963303 24.2866245,24.5642202 C17.5035917,26.5137615 8.84937756,26.1238532 0.507026948,26.1238532 C-2.37771111,69.6376147 7.99175273,106.211009 7.91378683,149.724771 C8.06971862,149.100917 8.14768451,148.399083 8.3036163,147.775229 C9.08327524,156.509174 9.86293417,165.165138 10.6425931,173.899083 C17.1137623,173.509174 23.6628973,173.119266 30.1340665,172.729358 C30.2899983,171.793578 30.3679642,170.93578 30.523896,170 C30.6798277,170 30.7577936,170 30.9137254,170 C31.927282,170.857798 31.6933844,170.233945 32.0832138,171.949541 C41.7509846,171.949541 51.9645167,171.715596 62.0221169,170.857798 C62.4119464,170.701835 62.8797418,170.545872 63.2695712,170.389908 C65.4526163,169.298165 70.052604,169.220183 75.198353,169.53211 Z M214.133575,53.8073394 C214.133575,55.8348624 214.289507,57.0045872 214.913234,58.0963303 C214.523405,58.0963303 214.133575,58.0963303 213.743746,58.0963303 C213.743746,58.3302752 213.743746,58.6422018 213.743746,58.8761468 C212.964087,57.7844037 212.496291,56.0688073 212.574257,53.4174312 C213.042053,53.5733945 213.587814,53.7293578 214.133575,53.8073394 Z M166.96421,31.1926606 C167.198107,31.4266055 167.509971,31.7385321 167.743869,31.9724771 C167.743869,32.3623853 167.743869,32.7522936 167.743869,33.1422018 C167.198107,33.2981651 166.730312,33.3761468 166.184551,33.5321101 C166.028619,33.5321101 165.950653,33.5321101 165.794721,33.5321101 C166.184551,32.7522936 166.57438,31.9724771 166.96421,31.1926606 Z M129.93041,35.4816514 C130.32024,36.1834862 130.32024,35.559633 129.93041,36.2614679 C129.93041,36.0275229 129.93041,35.793578 129.93041,35.4816514 Z M129.540581,85.7798165 C132.035489,76.6559633 137.181238,63.2431193 145.523589,58.8761468 C150.045611,57.1605505 154.645598,55.5229358 159.16762,53.8073394 C206.181054,53.3394495 214.679336,112.683486 175.540458,127.110092 C173.435379,127.110092 171.408266,127.110092 169.303186,127.110092 C166.886244,128.357798 161.506597,127.577982 160.337109,127.110092 C156.204916,125.472477 152.384588,127.266055 149.032054,125.550459 C139.520215,120.793578 124.628729,103.793578 129.540581,85.7798165 Z M100.6932,86.559633 C100.849132,87.1834862 100.927098,87.8853211 101.08303,88.5091743 C100.849132,88.2752294 100.537268,87.9633028 100.303371,87.7293578 C100.069473,87.5733945 99.7576094,87.4954128 99.5237117,87.3394495 C99.9135412,87.1055046 100.303371,86.8715596 100.6932,86.559633 Z M88.9983161,34.7018349 C89.2322138,34.4678899 89.5440774,34.1559633 89.777975,33.9220183 C89.777975,34.1559633 89.777975,34.4678899 89.777975,34.7018349 C90.7135658,35.1697248 90.7135658,34.3899083 90.9474634,36.6513761 C90.3237363,36.6513761 89.6220433,36.6513761 88.9983161,36.6513761 C88.7644184,36.2614679 88.4525549,35.8715596 88.2186572,35.4816514 C88.4525549,35.2477064 88.6864525,35.0137615 88.9983161,34.7018349 Z M4.40532162,32.3623853 C3.39176501,31.7385321 2.3002425,31.0366972 1.28668588,30.412844 C1.44261767,29.8669725 1.52058356,29.3990826 1.67651535,28.853211 C2.92396965,29.7889908 3.23583322,30.412844 4.79515109,31.1926606 C4.63921931,31.5825688 4.48328752,31.9724771 4.40532162,32.3623853 Z M48.4560515,156.353211 C27.8730556,147.463303 9.00530934,134.518349 9.08327524,106.834862 C8.92734345,107.380734 8.84937756,107.848624 8.69344577,108.394495 C6.82226432,103.949541 8.14768451,95.9954128 8.3036163,90.8486239 C8.45954809,91.3944954 8.53751398,91.8623853 8.69344577,92.4082569 C8.84937756,89.6788991 8.92734345,86.9495413 9.08327524,84.2201835 C12.2798769,77.7477064 11.8900474,71.587156 14.9307173,66.6743119 C21.71375,55.5229358 31.3035549,45.2293578 44.1679273,38.9908257 C48.8458809,37.587156 53.5238346,36.1055046 58.2017882,34.7018349 C70.3644676,34.7798165 77.9271592,38.0550459 88.2186572,38.2110092 C91.8830542,46.2431193 92.5847472,53.1055046 92.5067813,65.1146789 C92.6627131,64.5688073 92.740679,64.1009174 92.8966108,63.5550459 C93.1305085,64.8807339 93.442372,66.1284404 93.6762697,67.4541284 C88.2966231,65.0366972 82.7610446,61.1376147 76.9136026,58.8761468 C51.4187554,49.206422 32.706941,72.2889908 28.9645781,90.0688073 C23.896795,114.321101 38.1645535,125.238532 48.4560515,133.348624 C50.4051988,134.830275 64.2831279,141.614679 69.1170133,139.197248 C71.9237854,137.793578 75.198353,138.963303 77.6932615,137.637615 C84.3203625,134.12844 92.038986,130.463303 97.5745644,125.550459 C98.5101551,133.738532 99.3677799,141.926606 100.303371,150.114679 C91.9610201,154.247706 83.22884,156.431193 73.0153079,159.862385 C65.0627868,162.591743 52.9780733,158.302752 48.4560515,156.353211 Z M49.6255399,98.646789 C48.4560515,98.1788991 49.1577445,98.646789 48.4560515,97.8669725 C49.6255399,98.412844 48.9238468,97.8669725 49.6255399,98.646789 Z M264.421577,146.215596 C266.05886,138.027523 264.421577,128.981651 264.421577,118.142202 C264.265645,118.53211 264.187679,118.922018 264.031747,119.311927 C263.875815,119.311927 263.797849,119.311927 263.641918,119.311927 C263.252088,113.853211 262.862259,108.394495 262.472429,102.93578 C271.360541,106.366972 286.252027,133.738532 290.92998,134.518349 C293.190991,137.481651 295.29607,141.848624 298.72657,143.486239 C303.794353,145.90367 322.194304,142.238532 327.184121,141.926606 C327.729882,140.600917 327.418019,141.146789 328.353609,140.366972 C328.353609,139.587156 328.353609,138.807339 328.353609,138.027523 C321.180747,127.96789 310.967215,119 302.235035,109.56422 C298.492672,105.509174 295.763866,99.0366972 290.150321,95.9174312 C290.150321,95.7614679 290.150321,95.6834862 290.150321,95.5275229 C292.723196,92.7201835 297.635047,92.4082569 300.675717,90.0688073 C308.550272,83.9862385 310.889249,76.3440367 314.319748,66.2844037 C316.034998,61.1376147 313.540089,51.3899083 312.760431,49.5183486 C304.807909,29.8669725 302.468933,20.2752294 274.557143,20.2752294 C268.163939,20.2752294 254.208045,17.8577982 248.828398,21.0550459 C248.126705,21.6788991 248.048739,22.3807339 247.658909,23.3944954 C247.26908,23.5504587 246.879251,23.6284404 246.489421,23.7844037 C246.333489,22.8486239 246.255523,21.9908257 246.099592,21.0550459 C241.57757,21.2889908 236.977582,21.6009174 232.45556,21.8348624 C231.753867,23.2385321 230.584379,24.4082569 229.726754,24.5642202 C229.492856,29.5550459 229.960652,31.3486239 233.235219,32.7522936 C232.923356,35.0917431 231.597935,35.7155963 230.506413,35.8715596 C231.519969,47.2568807 234.014878,61.6055046 234.014878,75.6422018 C234.17081,75.0183486 234.248776,74.3165138 234.404708,73.6926606 C234.560639,77.2018349 234.638605,80.7110092 234.794537,84.2201835 C236.899616,97.6330275 237.679275,112.527523 237.523343,127.5 C237.679275,127.110092 237.757241,126.720183 237.913173,126.330275 C238.069105,126.330275 238.14707,126.330275 238.303002,126.330275 C238.303002,130.853211 238.303002,135.454128 238.303002,139.977064 C238.458934,139.587156 238.5369,139.197248 238.692832,138.807339 C239.940286,142.004587 239.082661,144.577982 241.811467,146.215596 C244.22841,148.477064 259.899555,146.293578 264.421577,146.215596 Z M299.116399,32.3623853 C299.506229,32.7522936 299.896058,33.1422018 300.285888,33.5321101 C300.05199,33.766055 299.740126,34.0779817 299.506229,34.3119266 C299.350297,34.3119266 299.272331,34.3119266 299.116399,34.3119266 C299.116399,33.6880734 299.116399,33.0642202 299.116399,32.3623853 Z M260.133452,44.8394495 C260.36735,44.293578 260.679214,43.8256881 260.913111,43.2798165 C260.913111,43.9036697 260.913111,44.6055046 260.913111,45.2293578 C273.85545,44.9174312 282.041868,43.3577982 285.862197,54.9770642 C288.668969,63.7110092 284.380845,72.4449541 278.065608,75.2522936 C274.946972,75.8761468 271.828336,76.5779817 268.709701,77.2018349 C267.072417,78.059633 263.953781,79.3853211 261.69277,78.3715596 C258.574135,75.3302752 260.211418,57.7844037 258.184305,50.6880734 C257.950407,47.1009174 258.028373,45.1513761 260.133452,44.8394495 Z M624.234175,197.293578 C632.420594,177.486239 657.915441,146.605505 650.742579,121.651376 C602.247793,123.055046 556.325882,132.256881 506.505676,132.178899 C507.129403,132.334862 507.831096,132.412844 508.454823,132.568807 C504.400597,132.802752 500.424336,133.114679 496.37011,133.348624 C485.298953,136.545872 463.468503,136.545872 451.149892,136.46789 C451.773619,136.623853 452.475312,136.701835 453.099039,136.857798 C452.31938,137.091743 451.539721,137.40367 450.760062,137.637615 C449.590574,138.963303 450.60413,143.174312 450.760062,146.215596 C455.048186,145.045872 459.33631,143.876147 463.624435,142.706422 C472.746444,142.472477 481.790488,142.16055 490.912497,141.926606 C490.132838,141.770642 489.353179,141.692661 488.57352,141.536697 C493.563338,139.509174 501.671791,140.990826 507.285335,141.146789 C506.661608,141.302752 505.959915,141.380734 505.336188,141.536697 C509.46838,141.926606 513.678538,142.316514 517.810731,142.706422 C529.037819,146.761468 538.003897,153.311927 543.929305,162.591743 C568.644493,201.270642 553.597076,261.082569 505.726017,262.408257 C505.959915,264.513761 506.271778,264.357798 507.285335,265.527523 C507.051437,265.683486 506.739574,265.761468 506.505676,265.917431 C505.959915,266.151376 505.492119,266.463303 504.946358,266.697248 C504.71246,265.37156 504.400597,264.123853 504.166699,262.798165 C489.587077,263.811927 475.085421,264.90367 460.505799,265.917431 C459.492242,269.426606 460.817662,270.830275 460.895628,273.715596 C475.47525,273.559633 520.695469,270.830275 527.556467,265.917431 C527.790365,266.853211 528.102228,267.711009 528.336126,268.646789 C542.369987,267.477064 556.403848,266.307339 570.437709,265.137615 C570.203811,252.426606 568.020766,240.885321 568.098732,227.316514 C567.9428,227.706422 567.864834,228.09633 567.708902,228.486239 C567.552971,228.486239 567.475005,228.486239 567.319073,228.486239 C567.007209,211.486239 563.810608,194.642202 563.810608,177.018349 C571.451265,184.270642 577.532605,193.550459 581.742763,204.311927 C584.159706,210.550459 582.288524,217.022936 583.691911,224.587156 C583.691911,227.472477 583.691911,230.279817 583.691911,233.165138 C584.705467,244.706422 585.79699,256.325688 586.810546,267.866972 C593.671545,267.633028 600.610509,267.321101 607.471508,267.087156 C607.081679,266.931193 606.691849,266.853211 606.30202,266.697248 C614.332507,266.073394 622.44096,265.37156 630.471447,264.747706 C630.627378,264.513761 630.705344,264.201835 630.861276,263.96789 C627.352811,257.261468 629.45789,248.917431 627.74264,240.963303 C625.715527,231.605505 622.05113,202.518349 624.234175,197.293578 Z M607.081679,254.220183 C603.495248,255.857798 597.56984,255.545872 594.996965,254.610092 C593.281715,250.944954 595.308829,245.018349 593.827477,240.183486 C590.16308,227.940367 594.763067,211.018349 589.539353,201.582569 C579.559718,187.155963 569.502118,172.729358 559.522484,158.302752 C554.532666,152.298165 548.451327,144.422018 546.268282,138.027523 C548.451327,136.389908 553.285212,136.779817 557.963166,136.46789 C561.705529,136.233945 568.098732,134.518349 571.607197,136.46789 C576.285151,139.041284 593.671545,164.853211 597.335942,171.169725 C605.678293,171.247706 612.617257,142.784404 617.996904,135.688073 C620.803676,132.022936 625.325698,129.761468 630.081617,128.669725 C632.576526,128.123853 634.681605,128.90367 636.318889,127.889908 C638.891763,128.123853 641.542604,128.43578 644.115478,128.669725 C644.895137,135.53211 638.657866,143.56422 635.1494,149.724771 C627.508743,163.137615 621.037574,179.981651 614.488439,193.004587 C608.95286,204 616.281654,239.637615 616.437586,253.050459 C613.630814,253.752294 609.420655,253.908257 605.522361,253.830275 C605.990156,253.986239 606.535917,254.142202 607.081679,254.220183 Z M229.726754,191.834862 C225.906425,185.440367 221.774233,179.43578 215.303064,174.678899 C203.374282,165.866972 190.587875,161.655963 166.57438,161.811927 C160.571006,165.087156 150.591372,164.385321 144.354101,168.440367 C126.032116,180.293578 120.574503,192.926606 112.388084,213.669725 C109.81521,220.220183 112.232152,230.981651 112.388084,237.454128 C112.544016,238.857798 112.621982,240.33945 112.777914,241.743119 C112.933845,242.756881 113.011811,243.848624 113.167743,244.862385 C113.79147,250.711009 118.001629,258.821101 120.964332,264.357798 C121.432128,263.577982 121.821957,264.357798 122.133821,264.747706 C125.408388,269.582569 129.150751,273.793578 133.049046,278.004587 C133.672773,277.302752 142.794783,284.944954 144.354101,285.802752 C152.306622,290.169725 172.343856,296.018349 186.845512,292.041284 C186.845512,291.807339 186.845512,291.495413 186.845512,291.261468 C192.069227,290.40367 199.164124,289.389908 203.998009,286.582569 C215.536961,279.954128 223.879312,274.885321 230.506413,264.357798 C242.591126,245.174312 242.51316,217.178899 231.675901,193.394495 C231.052174,194.486239 229.960652,192.302752 229.726754,191.834862 Z M122.133821,253.440367 C123.537207,254.06422 123.069412,253.518349 123.693139,255 C123.147377,254.53211 122.601616,253.986239 122.133821,253.440367 Z M148.642225,182.866972 C148.876122,182.866972 149.187986,182.866972 149.421884,182.866972 C148.720191,184.270642 149.655781,183.334862 148.252395,184.036697 C148.096463,184.270642 148.018498,184.582569 147.862566,184.816514 C147.238839,184.036697 147.238839,184.036697 147.082907,182.477064 C147.550702,182.633028 148.096463,182.788991 148.642225,182.866972 Z M207.506474,251.100917 C191.4455,276.211009 138.740556,268.022936 139.286317,234.334862 C139.130386,234.724771 139.05242,235.114679 138.896488,235.504587 C138.740556,235.504587 138.66259,235.504587 138.506659,235.504587 C138.506659,231.059633 138.506659,226.692661 138.506659,222.247706 C138.66259,222.637615 138.740556,223.027523 138.896488,223.417431 C139.05242,223.417431 139.130386,223.417431 139.286317,223.417431 C138.896488,203.922018 154.567633,190.041284 170.862504,190.275229 C170.472675,190.041284 170.082845,189.729358 169.693016,189.495413 C170.238777,189.33945 170.706573,189.261468 171.252334,189.105505 C180.530275,189.027523 187.703137,188.949541 193.472613,192.614679 C209.221724,202.674312 220.838642,230.279817 207.506474,251.100917 Z M514.302265,166.880734 C511.417527,165.321101 508.844653,165.711009 505.336188,164.151376 C502.06162,162.669725 480.465068,160.954128 478.048125,164.151376 C475.47525,165.711009 475.787114,180.37156 476.488807,185.986239 C476.800671,188.715596 479.685409,226.848624 481.55659,228.876147 C482.024385,231.917431 481.634556,237.610092 480.776931,238.233945 C480.776931,240.729358 481.478624,241.899083 483.505737,242.912844 C484.519294,244.16055 500.892132,243.692661 502.997211,242.912844 C501.905688,242.288991 512.898879,240.573394 514.692095,239.40367 C519.993776,236.050459 535.353057,220.376147 529.895444,212.5 C530.519171,212.5 531.220864,212.5 531.844591,212.5 C531.844591,193.316514 527.166638,173.899083 514.302265,166.880734 Z M417.234728,170.779817 C417.780489,170.93578 418.248284,171.013761 418.794046,171.169725 C419.495739,170.311927 419.495739,170.155963 419.573705,168.440367 C418.794046,168.440367 418.014387,168.440367 417.234728,168.440367 C417.234728,169.220183 417.234728,170 417.234728,170.779817 Z M110.049107,260.848624 C101.316927,261.62844 93.2084744,270.206422 85.8796804,272.93578 C81.1237609,274.651376 74.8864894,273.40367 71.0661606,272.155963 C51.4967213,265.683486 48.5340174,262.408257 41.8289505,242.522936 C41.8289505,239.169725 41.8289505,235.738532 41.8289505,232.385321 C41.8289505,211.174312 54.3034935,200.724771 69.5068427,196.123853 C80.266136,192.848624 102.252518,203.142202 104.201665,206.651376 C106.150813,206.183486 106.072847,206.261468 106.540642,204.311927 C104.279631,205.637615 105.293188,181.307339 103.811836,178.577982 C102.40845,176.004587 100.303371,174.834862 97.9643939,172.729358 C97.9643939,172.729358 85.4898509,170.233945 75.198353,169.53211 C70.9102288,170.077982 66.4661729,170.545872 62.0221169,170.93578 C57.6560269,172.729358 53.211971,174.522936 48.8458809,176.316514 C35.3577814,184.972477 25.3001811,198.697248 19.2188414,213.747706 C18.6730801,218.426606 18.2052848,223.105505 17.6595235,227.784404 C9.70700238,262.876147 37.3848946,286.348624 57.0322998,295.62844 C69.7407404,301.633028 108.09996,297.811927 111.608425,287.440367 C114.103334,285.880734 110.049107,263.266055 110.049107,262.876147 C110.049107,262.174312 110.049107,261.550459 110.049107,260.848624 Z M96.0152465,196.513761 C96.0152465,196.669725 96.0152465,196.747706 96.0152465,196.90367 C94.2999969,196.357798 95.2355876,197.215596 94.4559287,195.733945 C94.923724,196.045872 95.4694853,196.279817 96.0152465,196.513761 Z M27.7950897,226.926606 C26.1578059,226.302752 26.859499,227.004587 26.2357718,225.366972 C26.4696695,225.211009 26.7815331,225.133028 27.0154307,224.977064 C27.2493284,224.977064 27.561192,224.977064 27.7950897,224.977064 C27.7950897,225.678899 27.7950897,226.302752 27.7950897,226.926606 Z M599.285089,309.977064 C597.413908,308.963303 597.18001,294.692661 597.335942,290.091743 C597.18001,290.637615 597.102044,291.105505 596.946112,291.651376 C596.400351,286.348624 595.932556,280.96789 595.386795,275.665138 C591.332568,275.899083 587.356308,276.211009 583.302081,276.444954 C584.237672,291.105505 585.095297,305.844037 586.030887,320.504587 C586.264785,320.66055 586.576649,320.738532 586.810546,320.894495 C589.383421,323.077982 609.576587,319.802752 614.488439,319.724771 C614.488439,316.215596 614.488439,312.706422 614.488439,309.197248 C614.254541,309.197248 613.942677,309.197248 613.70878,309.197248 C612.773189,308.417431 600.844407,308.417431 599.285089,309.977064 Z M584.08174,322.06422 C583.535979,316.449541 580.027514,313.09633 578.234298,309.197248 C574.102106,300.307339 570.749572,289.077982 565.369926,278.784404 C565.369926,278.784404 555.000462,278.394495 552.505553,278.394495 C549.464883,282.293578 538.70559,320.270642 538.471692,325.573394 C542.915748,325.183486 547.281838,324.793578 551.725894,324.40367 C552.505553,321.12844 553.285212,317.931193 554.064871,314.655963 C558.352995,314.110092 562.641119,313.642202 566.929243,313.09633 C567.163141,315.045872 570.047879,321.050459 571.217368,321.674312 C572.074992,323.701835 574.180072,323.46789 577.06481,323.233945 C576.67498,323.077982 576.285151,323 575.895321,322.844037 C575.895321,322.688073 575.895321,322.610092 575.895321,322.454128 C578.624127,322.376147 581.352934,322.220183 584.08174,322.06422 Z M562.25129,302.568807 C560.458074,302.802752 558.586893,303.114679 556.793677,303.348624 C557.963166,300.307339 558.352995,296.174312 558.742825,292.431193 C560.068245,295.316514 561.315699,298.123853 562.641119,301.009174 C562.485188,301.555046 562.329256,302.100917 562.25129,302.568807 Z M529.895444,326.353211 C533.403909,310.990826 536.912374,295.706422 540.42084,280.344037 C535.976784,279.09633 531.922557,280.655963 527.166638,280.733945 C526.698842,288.454128 523.268343,299.215596 522.878514,304.12844 C522.722582,304.12844 522.644616,304.12844 522.488684,304.12844 C519.993776,296.56422 517.576833,289.077982 515.081924,281.513761 C512.976845,281.669725 510.949732,281.747706 508.844653,281.90367 C510.170073,283.151376 505.258222,282.995413 502.217552,282.683486 C502.373484,285.802752 505.414153,291.027523 506.505676,293.211009 C512.353118,304.908257 515.081924,315.981651 519.759878,327.522936 C520.929366,327.522936 522.098855,327.522936 523.268343,327.522936 C522.878514,327.366972 522.488684,327.288991 522.098855,327.133028 C522.098855,326.977064 522.098855,326.899083 522.098855,326.743119 C524.671729,326.665138 527.244604,326.509174 529.895444,326.353211 Z M522.878514,304.518349 C523.034445,304.518349 523.112411,304.518349 523.268343,304.518349 C523.112411,304.908257 523.034445,305.298165 522.878514,305.688073 C522.878514,305.298165 522.878514,304.908257 522.878514,304.518349 Z M500.268404,305.298165 C500.112473,305.298165 500.034507,305.298165 499.878575,305.298165 C499.878575,300.853211 499.878575,296.486239 499.878575,292.041284 C499.722643,292.431193 499.644677,292.821101 499.488746,293.211009 C499.332814,293.211009 499.254848,293.211009 499.098916,293.211009 C498.942984,289.93578 498.865018,286.738532 498.709087,283.463303 C494.576894,283.619266 490.366736,283.697248 486.234544,283.853211 C486.390475,288.922018 486.468441,293.990826 486.624373,299.059633 C486.780305,298.43578 486.858271,297.733945 487.014203,297.110092 C487.793862,307.793578 488.57352,318.399083 489.353179,329.082569 C494.031133,329.082569 498.553155,328.692661 502.217552,328.302752 C501.827722,320.426606 500.580268,312.862385 500.658234,304.12844 C500.502302,304.518349 500.34637,304.908257 500.268404,305.298165 Z M481.55659,284.243119 C472.434581,284.866972 463.390537,285.568807 454.268527,286.192661 C451.695653,286.426606 449.044812,286.738532 446.471938,286.972477 C446.316006,288.766055 446.23804,290.637615 446.082108,292.431193 C446.23804,291.885321 446.316006,291.417431 446.471938,290.87156 C446.705836,293.211009 447.017699,295.550459 447.251597,297.889908 C450.915994,297.655963 454.502425,297.344037 458.166822,297.110092 C458.166822,298.513761 458.166822,299.995413 458.166822,301.399083 C458.322754,301.009174 458.40072,300.619266 458.556651,300.229358 C461.207492,306 461.05156,323.623853 460.895628,331.422018 C463.390537,331.577982 465.80748,331.655963 468.302388,331.811927 C467.912559,331.655963 467.522729,331.577982 467.1329,331.422018 C469.237979,331.188073 471.265092,330.876147 473.370171,330.642202 C473.837967,327.444954 471.187126,297.110092 470.641365,296.720183 C474.383728,296.330275 478.204057,295.940367 481.94642,295.550459 C481.790488,291.807339 481.634556,288.06422 481.55659,284.243119 Z M426.200806,302.568807 C426.590635,301.087156 426.356737,301.399083 427.370294,300.619266 C427.994021,299.917431 429.007578,299.761468 429.709271,299.059633 C430.878759,299.293578 432.048248,299.605505 433.217736,299.83945 C433.685531,301.009174 433.841463,301.165138 433.997395,302.958716 C437.50586,303.972477 440.624496,302.178899 446.082108,302.178899 C446.471938,286.348624 423.08217,282.995413 416.065239,294.770642 C406.787298,310.444954 425.109283,316.137615 435.946542,318.555046 C436.18044,318.944954 436.492304,319.334862 436.726201,319.724771 C436.414338,321.59633 436.414338,321.59633 435.166883,322.454128 C434.231293,323.311927 431.81435,323.389908 428.929612,323.233945 C428.383851,322.298165 427.916055,321.440367 427.370294,320.504587 C424.953351,318.243119 418.482182,320.270642 415.285581,320.504587 C414.973717,336.958716 440.624496,338.362385 447.251597,327.912844 C458.556651,310.211009 436.024508,307.87156 426.200806,302.568807 Z M393.84496,325.963303 C393.689028,325.963303 393.611062,325.963303 393.45513,325.963303 C393.45513,323.857798 393.45513,321.830275 393.45513,319.724771 C397.353425,319.724771 401.25172,319.724771 405.150014,319.724771 C404.604253,319.568807 404.136458,319.490826 403.590697,319.334862 C404.916117,319.100917 406.163571,318.788991 407.488991,318.555046 C408.970343,316.995413 408.424582,311.302752 408.26865,308.417431 C405.22798,307.87156 397.743254,307.87156 395.014448,309.197248 C394.234789,309.197248 393.45513,309.197248 392.675471,309.197248 C392.441574,306.857798 392.12971,304.518349 391.895812,302.178899 C397.743254,301.944954 403.590697,301.633028 409.438139,301.399083 C409.282207,297.655963 409.204241,293.834862 409.048309,290.091743 C399.068675,290.715596 389.011074,291.417431 379.03144,292.041284 C379.811099,306.857798 380.590758,321.674312 381.370417,336.490826 C381.526349,335.944954 381.604315,335.477064 381.760246,334.931193 C381.916178,335.866972 381.994144,336.724771 382.150076,337.66055 C392.12971,337.114679 402.18731,336.646789 412.166945,336.100917 C413.180501,332.591743 412.166945,327.834862 411.777115,324.793578 C405.773742,325.183486 399.770368,325.573394 393.84496,325.963303 Z M356.031501,293.990826 C352.289139,294.380734 348.46881,294.770642 344.726447,295.16055 C344.882379,302.412844 344.960345,309.743119 345.116276,316.995413 C345.272208,316.449541 345.350174,315.981651 345.506106,315.43578 C346.285765,323.623853 347.065424,331.811927 347.845083,340 C351.899309,340 355.87557,340 359.929796,340 C359.695898,334.151376 359.384035,328.302752 359.150137,322.454128 C363.28233,322.298165 367.492488,322.220183 371.62468,322.06422 C372.01451,321.830275 372.404339,321.518349 372.794169,321.284404 C372.560271,317.931193 372.248407,314.5 372.01451,311.146789 C367.492488,311.380734 362.8925,311.692661 358.370478,311.926606 C358.370478,310.600917 358.370478,309.353211 358.370478,308.027523 C358.214546,308.417431 358.136581,308.807339 357.980649,309.197248 C357.824717,309.197248 357.746751,309.197248 357.590819,309.197248 C357.434888,307.793578 357.356922,306.311927 357.20099,304.908257 C362.8925,304.674312 368.661976,304.362385 374.353486,304.12844 C375.678907,299.917431 374.041623,295.16055 373.963657,293.211009 C372.092476,292.665138 357.980649,292.899083 356.031501,293.990826 Z" id="Shape"></path>
        </g>
    </g>
</svg>