<?xml version="1.0" encoding="UTF-8"?>
<svg width="734px" height="414px" viewBox="0 0 734 414" version="1.1" xmlns="http://www.w3.org/2000/svg" xmlns:xlink="http://www.w3.org/1999/xlink">
    <title>show-whelans</title>
    <g id="Page-1" stroke="none" stroke-width="1" fill="none" fill-rule="evenodd">
        <g id="road-to-nowhere" transform="translate(25.000000, 14.000000)" fill="#000000" fill-rule="nonzero">
            <path d="M549.517101,103.591938 L550.484773,103.591938 C550.242855,104.136522 550.121896,104.741615 550.121896,105.346708 L550.121896,108.67472 C550.121896,111.095093 552.057242,113.03139 554.476423,113.03139 L559.556704,113.03139 C561.975886,113.03139 563.911231,111.095093 563.911231,108.67472 L563.911231,105.346708 C563.911231,104.741615 563.790272,104.136522 563.548354,103.591938 L583.143725,103.591938 C582.901807,104.136522 582.780848,104.741615 582.780848,105.346708 L582.780848,108.67472 C582.780848,111.095093 584.716193,113.03139 587.135375,113.03139 L592.215656,113.03139 C594.634838,113.03139 596.570183,111.095093 596.570183,108.67472 L596.570183,105.346708 C596.570183,104.741615 596.449224,104.136522 596.207306,103.591938 L597.719294,103.591938 C600.138476,103.591938 602.073821,101.65564 602.073821,99.2352679 L601.771423,56.6972232 C601.892383,47.2577709 591.973738,43.3246657 589.554556,43.3246657 L557.016564,43.2036471 C554.597382,43.2036471 545.767369,48.8915222 545.70689,57.1207883 L545.102094,99.2352679 C545.162574,101.65564 547.097919,103.591938 549.517101,103.591938 Z M592.578533,99.4773051 C589.917434,99.7798517 587.498252,97.8435538 587.256334,95.1811441 C586.953936,92.5187345 588.889281,90.0983621 591.550381,89.8563249 C594.211481,89.5537783 596.630663,91.4900762 596.872581,94.1524859 C597.174978,96.8148955 595.239633,99.2352679 592.578533,99.4773051 Z M564.15315,47.4392988 L583.627561,47.4392988 L583.627561,53.1271739 L564.15315,53.1271739 L564.15315,47.4392988 Z M549.940458,56.6972232 L597.114499,56.6972232 L597.114499,85.7416918 L549.940458,85.7416918 L549.940458,56.6972232 Z M554.174025,89.4327597 C556.835125,89.1302132 559.254307,91.0665111 559.496225,93.7289207 C559.738143,96.3913303 557.863277,98.8117027 555.202178,99.05374 C552.541078,99.3562865 550.121896,97.4199886 549.879978,94.757579 C549.517101,92.0951693 551.452446,89.7353063 554.174025,89.4327597 Z M538.751743,75.2735813 C538.751743,75.2735813 539.779895,75.2735813 540.808047,75.2735813 L540.44517,61.2354214 C539.537977,61.2354214 538.751743,61.2354214 538.751743,61.2354214 C537.118795,61.2354214 535.848725,62.5061169 535.848725,64.1398683 L535.848725,72.4296437 C535.848725,74.0028857 537.179275,75.2735813 538.751743,75.2735813 Z M355.861614,231.024544 C346.003449,235.683761 342.918992,248.451226 339.471658,260.190032 C338.080629,264.849249 337.778231,275.014813 340.62077,277.01162 C341.83036,276.890601 342.193238,277.556204 343.402828,277.132638 C349.934619,274.893794 352.958596,266.483 356.164011,259.584939 C353.68435,257.70915 349.81366,254.078591 351.204689,248.08817 C351.930444,245.062704 353.140034,242.158257 354.833461,240.100941 C354.893941,239.979922 355.801134,239.858904 355.256818,239.495848 C355.801134,239.072283 360.941895,236.228345 361.062854,235.986308 C359.671825,233.384407 359.792784,230.964035 355.861614,231.024544 Z M664.730625,156.295547 C661.101852,149.579014 658.198834,144.193685 651.788003,140.321089 C650.88081,139.776505 649.973617,139.292431 649.005944,138.868866 C650.578412,135.298816 651.485605,131.305202 651.485605,127.06955 L651.485605,29.0444687 C651.485605,13.0095016 638.482504,0 622.455426,0 L524.478571,0 C508.451493,0 495.448392,13.0095016 495.448392,29.0444687 L495.448392,72.1270971 C492.787292,70.5538551 489.702836,69.8277434 486.134543,68.3150106 C484.622554,65.7131103 483.110566,63.11121 481.659057,60.4488004 C476.457816,53.3692111 468.293079,48.1049012 456.25765,48.4074478 C454.9271,41.8724423 451.600726,35.5189648 445.673731,33.5826669 C444.222222,23.5986308 437.327554,19.4234884 427.227471,17.7292277 C425.110687,17.971265 422.993903,18.2133022 420.81664,18.4553395 C411.986627,20.6336746 400.435035,22.3279353 395.536192,28.6209035 C393.903244,30.7387293 392.512215,33.3406296 391.78646,36.3055858 C391.302624,38.302393 390.818788,40.2992003 390.334951,42.2354982 C389.125361,43.4456844 385.617547,43.4456844 383.803161,43.9902681 C377.694728,45.8055474 371.283896,47.7418453 364.328749,48.649485 C362.695802,43.1431378 354.833461,35.8820206 346.910642,36.9106789 C342.798033,37.4552627 339.471658,38.5444303 336.024324,39.3915606 C330.157809,40.843784 324.351773,41.2673492 319.936767,44.0507775 C312.316345,48.8310129 311.469631,58.028428 308.929491,68.0124641 C307.780379,72.9742275 306.631268,77.8754816 305.421677,82.837245 C297.377898,83.3818288 286.552061,88.7671573 282.620891,93.6079021 C280.383148,93.1843369 278.205884,92.4582252 275.484305,92.03466 C269.315392,91.0665111 263.630315,94.2735045 259.215309,95.3626721 C257.642841,95.5442 256.009893,95.7257279 254.437425,95.9677652 C252.925436,96.512349 251.413448,97.0569327 249.961939,97.5410072 C248.208032,97.5410072 246.454126,97.5410072 244.760699,97.5410072 C242.462476,97.9040631 240.224733,98.2066096 237.926511,98.5696655 C231.031843,100.082398 218.573058,106.738422 215.851478,112.244769 C215.488601,112.607825 215.065244,113.03139 214.702367,113.394446 C214.27901,113.454956 207.686741,110.671527 205.993313,110.368981 C199.88488,109.098285 192.566855,110.550509 188.151849,112.244769 C187.668013,104.439069 185.188352,97.7830445 182.043416,92.6397531 C180.712866,90.0983621 179.321836,87.6174804 177.991286,85.0760894 C168.677437,71.9455692 153.738991,63.897831 134.748415,60.3882911 C131.240602,59.7226887 122.712987,59.1781049 118.781817,59.783198 C116.604553,59.9647259 114.42729,60.1462538 112.250026,60.3882911 C109.649406,60.0252352 107.048786,61.1749121 104.992482,61.7194959 C102.996657,61.9615331 101.000832,62.2035704 99.0654866,62.4456076 C74.3898343,68.6175572 55.5806973,83.3818288 42.7590348,101.474112 C37.3158762,109.158795 33.6871038,118.235191 31.7517585,129.489923 C28.7882611,146.674567 45.7830118,163.677683 60.6609787,163.738192 C59.5723469,169.668104 57.9393994,176.384638 56.7298086,182.617097 C56.4878904,185.763581 56.2459722,188.910065 56.0040541,192.056549 C54.7944633,199.317666 53.8872702,207.909988 52.3752817,214.687031 C48.5045911,213.355826 45.0572573,211.177491 40.4608123,210.209342 C23.2846229,206.397255 8.28569699,221.161527 2.60062022,230.843016 C0.42335678,234.534084 0,238.588208 0,244.639139 C0,247.967151 0,251.295163 0,254.683684 C1.45150896,262.428876 7.07610619,272.231384 12.2168671,276.285508 C16.9342712,280.037085 22.9217457,283.365097 29.0301792,285.603942 C37.3158762,288.629407 50.0165796,287.721768 58.4837152,285.603942 C77.716209,280.763197 90.1145147,269.447956 99.1259661,254.381138 C102.452341,248.814281 104.206247,242.279276 107.532622,236.530892 C107.593102,236.409873 107.653581,236.349364 107.653581,236.228345 C108.560774,240.585015 111.403313,244.51812 113.459617,247.846132 C120.354285,258.919336 128.579502,265.756888 141.885001,270.476614 C145.271855,271.686801 149.384464,273.018005 153.79947,272.957496 C153.738991,275.559396 153.678511,278.161297 153.678511,280.823706 C154.283307,284.514774 154.404266,288.145333 155.432418,291.412835 C156.702488,295.708996 158.214477,300.186685 160.39174,303.877753 C161.480372,305.572014 162.629483,307.266275 163.718115,308.960535 C159.12167,309.505119 155.069541,312.288547 151.985084,314.466882 C142.792194,321.001888 131.784918,335.221576 136.139445,352.224692 C138.679585,362.269237 144.485621,371.224615 151.682686,376.730962 C166.742092,388.28824 196.195628,387.017545 212.525104,377.336055 C215.488601,375.15772 218.452099,372.979385 221.355117,370.80105 C223.109023,368.743733 224.86293,366.746926 226.556357,364.689609 C228.915059,361.724653 231.757597,359.183262 233.813902,355.85525 C235.32589,353.374369 236.233083,349.138717 238.470826,347.262928 C238.531306,347.14191 238.591785,347.0814 238.591785,346.960382 C240.64809,356.520853 250.566734,368.743733 263.872233,366.686417 C269.920187,365.718268 274.516632,364.266044 279.415475,362.208728 C295.744951,355.189648 308.808531,337.520929 316.005597,321.243925 C318.303819,315.979615 322.11403,309.989194 323.142182,303.817244 C326.287119,304.664374 329.432055,305.632523 333.181786,306.298126 C345.217215,308.355442 362.635322,298.431915 366.989849,292.80455 C369.832387,293.470152 372.433008,294.922375 375.698903,295.587978 C384.770834,297.342748 398.923046,292.683531 402.551819,288.024314 C413.921972,289.173991 421.602874,287.903295 429.283775,283.365097 C431.037682,282.154911 432.791589,280.944725 434.485016,279.734539 C434.908372,279.492501 442.831192,281.307781 445.976128,280.763197 C456.620527,278.947918 474.341033,275.861943 477.485969,266.846056 C478.695559,267.33013 479.90515,267.814205 481.114741,268.298279 C483.171045,268.721844 485.16687,269.145409 487.223175,269.629484 C498.532849,271.626291 513.592254,261.884292 518.733015,257.164566 C521.575553,257.588131 524.357612,258.798318 527.442069,259.342901 C536.876877,261.037162 546.009288,257.527622 551.694364,254.139101 C555.202178,252.021275 558.528552,249.540393 561.733968,246.999002 C563.124997,245.667797 564.516027,244.276083 565.967536,242.944878 C567.358565,243.67099 568.749595,244.397102 570.201104,245.123214 C573.406519,246.635946 576.974812,246.938493 581.087421,247.604095 C582.901807,247.483077 584.655714,247.301549 586.4701,247.18053 C596.812101,245.244232 601.892383,240.766543 608.666091,235.683761 C616.64939,239.374829 630.438725,237.620059 637.393873,234.352556 C647.735874,229.511812 656.263489,221.887639 662.916238,213.295317 C664.367747,211.903603 665.819256,210.511888 667.270765,209.059665 C668.117479,207.486423 669.024672,205.97369 669.871386,204.400448 C670.899538,203.311281 671.92769,202.282622 672.895363,201.193455 C675.737901,196.171182 678.580439,191.148909 681.483457,186.066127 C686.866136,172.451533 677.12893,156.477075 664.730625,156.295547 Z M514.801845,27.2291894 C514.801845,22.0253887 519.035413,17.789737 524.236653,17.789737 L624.995567,17.789737 C630.196807,17.789737 634.430375,22.0253887 634.430375,27.2291894 L634.430375,127.97719 C634.430375,133.180991 630.196807,137.416642 624.995567,137.416642 L524.236653,137.416642 C519.035413,137.416642 514.801845,133.180991 514.801845,127.97719 L514.801845,27.2291894 Z M365.719779,67.2863524 C366.445533,66.5602407 375.940821,65.2895452 378.057605,64.6844521 C387.008577,62.0220424 395.536192,59.9042166 405.636275,57.8469001 C406.36203,51.5539319 408.478813,46.7131871 409.688404,40.4202189 C410.051281,40.2992003 416.280674,38.7259582 415.615399,38.5444303 C417.127388,38.3629023 418.639376,38.1813744 420.090885,37.9393372 C421.784312,37.0316975 425.110687,36.0635486 427.34843,36.0635486 C427.590348,36.5476231 427.650828,36.4266044 427.771787,37.0922068 C426.562196,42.5380447 425.352605,47.9233733 424.143014,53.3692111 C424.324453,53.3692111 424.505892,53.3692111 424.74781,53.3692111 C428.920898,51.977497 433.9407,51.7354598 437.81139,50.0411991 C438.053309,50.7068015 438.234747,50.8883294 438.234747,51.9169877 C437.206595,53.8532856 436.420361,62.2640797 435.634127,63.11121 C435.392209,63.3532472 422.751985,66.2576941 421.119037,66.62075 C420.272324,72.7321902 419.002253,78.7226119 417.066908,84.1684498 C416.522592,85.7416918 416.82499,87.8595177 416.220195,89.8563249 C414.405808,95.4836907 413.680054,102.079205 411.986627,108.432683 C410.777036,113.03139 409.023129,118.35621 408.660252,123.378482 C411.50279,123.317973 418.699856,116.117365 418.941774,114.241577 C417.732183,112.486807 419.304651,107.948608 419.365131,105.649255 C419.607049,99.7798517 424.68733,89.9773435 427.34843,85.9232198 C433.517343,76.4837674 440.170092,72.8532089 449.967778,67.6494082 C450.99593,67.5283896 452.024082,67.4678803 452.991755,67.3468617 C462.063686,64.6239427 467.506845,69.8882527 469.805067,77.6334443 C470.349383,79.4487236 471.498494,83.5633567 470.651781,86.2257663 C470.107465,87.920027 470.288903,90.2193807 469.805067,92.1556787 C469.321231,93.78943 468.837394,95.4231814 468.353558,97.117442 C468.474517,97.117442 468.655956,97.117442 468.776915,97.117442 C470.71226,96.512349 471.679933,96.3913303 473.010483,95.5442 C477.183571,92.7002624 477.727887,86.951878 483.594402,86.5283129 C483.83632,87.0123873 485.16687,87.2544246 485.771666,88.1015549 C487.344134,90.4009087 483.473443,95.3626721 482.989607,96.0887838 C479.844671,100.80851 475.913501,102.381752 471.498494,105.649255 C469.321231,106.133329 467.143967,106.617404 464.966704,107.101478 C464.785265,110.42949 459.886422,117.630098 458.434914,119.142831 C457.164843,120.474036 456.983405,121.80524 455.652855,122.894408 C455.531896,123.015427 455.169018,123.136445 455.531896,123.317973 C454.443264,124.104594 450.935451,127.432606 450.874971,127.674643 C450.874971,127.674643 449.483942,128.219227 450.149217,128.400755 C447.669555,129.792469 445.79469,130.700109 442.286876,131.728767 C442.105438,131.789277 441.440163,132.091823 441.86352,132.33386 C434.605975,135.480344 423.538219,130.57909 422.14719,125.677836 C421.965751,125.738346 421.784312,125.798855 421.542394,125.798855 C420.695681,128.521774 417.490265,130.155525 415.857317,131.910295 C410.535118,137.537661 394.628999,150.244616 388.581045,137.295624 C387.190015,134.270158 389.548717,120.231998 390.455911,117.993154 C394.689478,107.283006 395.536192,94.1524859 399.467362,82.837245 C400.858391,78.9041398 400.858391,74.7895068 402.249421,71.0984389 C399.890719,71.2799668 396.443385,72.5506623 394.870917,73.1557554 C393.540367,73.276774 392.270297,73.458302 390.939747,73.5793206 C389.972074,73.9423764 387.673852,74.5474695 385.859465,74.9105254 C385.919945,75.2735813 385.738506,74.9710347 385.980425,75.3340906 C377.815687,75.5156185 370.981499,79.9327981 362.756281,80.4168726 C362.756281,78.7226119 364.933545,68.0729734 365.719779,67.2863524 Z M312.618742,272.110366 C311.409152,275.680415 311.167234,279.976576 309.836684,283.304588 C308.929491,285.603942 309.292368,287.661258 308.385175,289.960612 C306.38935,294.861866 305.603116,300.731269 302.700098,305.329977 C302.3977,306.419144 302.095303,307.568821 301.853384,308.657989 C299.615641,312.89364 297.680296,318.15795 294.716799,322.030546 C291.87426,325.721614 290.241313,329.896756 287.338295,333.043241 C286.854458,333.587824 284.132879,336.068706 284.435277,336.250234 C282.68137,337.46042 280.685545,340.12283 279.354995,340.727923 C279.234036,340.788432 278.024446,341.151488 278.7502,341.333016 C277.601089,341.998618 271.916012,345.32663 271.916012,345.38714 C271.916012,345.38714 269.375871,346.173761 269.012994,346.415798 C267.138128,347.625984 262.178806,349.017698 260.182981,348.170568 C258.731472,347.565475 257.461402,345.568668 256.554209,343.934916 C256.917086,335.766159 257.219484,327.597403 257.582361,319.428646 C258.247636,317.431839 257.279963,313.498733 258.005718,311.441417 C258.731472,309.44461 257.7638,305.995579 258.429075,303.454188 C259.578186,299.097518 258.489554,293.954226 259.275788,289.113482 C259.699145,286.6326 259.215309,280.823706 260.30394,278.524352 C261.150654,276.709073 260.182981,272.049856 260.727297,270.416105 C260.727297,268.358788 260.727297,266.361981 260.727297,264.304665 C261.150654,261.702764 261.69497,256.256927 261.755449,253.836554 C261.755449,251.295163 261.755449,248.814281 261.755449,246.27289 C262.662642,244.276083 261.513531,240.585015 262.178806,238.40668 C262.904561,236.107326 263.02552,231.327091 263.02552,228.846209 C263.509356,219.890831 263.993192,210.935454 264.477029,201.980076 C264.477029,200.225306 265.444701,193.085207 264.597988,192.540623 C264.35607,194.234884 262.844081,195.44507 262.118327,196.776275 C260.485379,199.86225 259.578186,203.250771 257.884759,206.215727 C257.279963,207.365404 257.582361,208.57559 257.038045,209.725267 C253.590711,216.441801 253.530232,224.792085 250.385296,231.932184 C249.357144,234.171028 249.659541,236.65191 249.054746,239.072283 C247.603237,244.941686 246.272687,251.718728 244.700219,257.648641 C244.397821,259.705957 244.095424,261.702764 243.853505,263.760081 C242.462476,268.177261 241.91816,274.107173 240.527131,278.100787 C239.680417,280.581669 240.043294,283.183569 239.075622,285.240886 C238.954663,286.6326 238.773224,288.024314 238.652265,289.476538 C237.079797,293.470152 237.382195,297.342748 235.870206,301.638909 C233.934861,307.387293 231.939036,314.466882 230.185129,319.91272 C228.85458,324.208881 227.221632,328.202496 225.407246,331.954073 C224.983889,332.740694 223.955737,335.887178 223.955737,335.887178 C222.383269,337.520929 220.689842,340.909451 219.722169,343.027277 C218.814976,344.963575 217.302987,347.807512 215.790999,349.259736 C215.67004,349.380754 215.065244,349.622791 215.488601,349.864829 C212.464624,352.40622 210.468799,356.278815 207.202904,358.578169 C206.295711,359.243772 202.364541,361.301088 203.150775,361.482616 C191.780621,367.170491 174.422993,369.711882 163.960033,363.237386 C160.331261,360.998542 150.291657,349.380754 154.222827,339.699265 C156.702488,333.708843 160.936056,329.049626 166.863051,326.9318 C176.055941,323.664298 188.454247,331.469998 185.853627,342.603711 C185.188352,345.568668 183.797322,348.049549 182.527252,350.59094 C182.043416,351.559089 181.136222,351.740617 180.652386,352.769275 C180.954784,352.769275 181.257182,352.769275 181.4991,352.769275 C183.132047,352.527238 184.764995,352.285201 186.458422,352.043164 C194.925558,347.444456 196.921382,338.731116 201.396868,329.110135 C202.364541,327.052819 202.606459,323.603788 203.695091,321.425453 C203.81605,320.336285 203.997489,319.186609 204.118448,318.097441 C205.207079,315.314013 205.509477,311.380908 206.900506,308.657989 C193.776446,310.110212 185.067393,305.814051 177.265532,296.737655 C175.874502,295.103903 175.572105,293.046587 174.483473,291.04978 C172.790046,287.842786 170.794221,279.795048 172.003812,274.046664 C173.092444,268.782354 173.636759,262.307857 175.753543,257.527622 C177.084093,254.502157 178.354164,251.416182 179.684713,248.390716 C179.624234,248.390716 179.563754,248.390716 179.563754,248.390716 C176.055941,250.992617 172.366689,252.868405 168.072642,253.897063 C153.618032,257.467113 141.098767,252.263312 133.538824,245.062704 C130.756766,242.400295 129.123818,238.709227 126.886075,235.623252 C126.28128,234.836631 126.523198,233.868482 126.039361,233.021352 C124.164496,229.935377 123.136344,225.941762 121.684835,222.734769 C120.838121,220.85898 120.777641,218.620136 119.930928,217.34944 C119.809969,216.744347 119.749489,216.078745 119.62853,215.473652 C118.35846,212.750733 117.935103,210.451379 117.02791,207.365404 C114.185372,197.683915 108.439815,186.429183 99.7307615,184.855941 C99.670282,185.097978 99.6098025,185.340016 99.6098025,185.582053 C99.9122002,187.336823 99.4888434,191.0884 98.7630889,192.540623 C98.6421298,194.355903 98.4606912,196.110673 98.3397321,197.925952 C96.8882232,203.129753 96.646305,209.967305 94.5900006,214.929068 C93.8037666,216.744347 94.408562,218.378099 93.5618484,220.132869 C91.8684213,223.702918 91.2636259,227.696532 89.812117,231.327091 C82.9174494,247.967151 75.3575069,259.887485 59.6328265,266.301472 C53.5243929,268.782354 40.5212918,270.960689 34.1104606,268.056242 C30.7840859,266.543509 28.3649043,265.57536 24.97805,263.276006 C23.1031843,262.005311 21.4097572,258.858827 19.7768096,256.438454 C18.8696165,255.10725 18.9905756,253.473498 18.0229029,252.384331 C18.0229029,250.629561 18.0229029,248.874791 18.0229029,247.18053 C18.0229029,245.062704 18.0229029,242.944878 18.0229029,240.766543 C19.5348914,237.801587 21.954073,234.534084 24.5546933,232.658296 C24.97805,232.355749 28.0625066,230.419451 27.881068,230.358942 C28.5463429,229.995886 32.1751153,229.269774 31.5098404,228.906719 C35.7434082,226.909911 40.76321,229.451302 43.000953,230.661489 C51.407609,235.320705 51.3471295,246.514928 44.1500642,254.925722 C60.5400196,254.320629 63.382558,240.645525 68.2209212,227.03093 C69.1885938,224.308011 69.4909915,220.193378 70.5191437,217.288931 C72.3940094,212.327168 71.4868163,205.792162 73.3012025,200.890908 C73.3012025,199.983269 73.3012025,199.075629 73.3012025,198.10748 C74.3898343,193.387754 73.9664775,187.941916 75.1760683,182.859134 C76.2647,178.199917 76.6275772,172.148986 78.502443,168.034353 C78.6234021,166.945185 78.8048407,165.916527 78.9257998,164.82736 C79.8329929,162.649024 81.2845018,159.018466 81.52642,156.961149 C81.6473791,156.779621 81.7078586,156.598093 81.8288177,156.356056 C82.312654,154.177721 83.2198471,151.999386 84.1270402,149.942069 C86.78814,144.193685 90.1145147,138.50581 93.2594507,134.391177 C94.408562,132.938953 95.9205505,131.123674 96.7672641,129.913488 C96.8277436,129.671451 96.8882232,129.429413 96.8882232,129.187376 C98.9445275,127.614134 100.335557,125.677836 102.270902,123.681029 C104.629604,121.260657 107.048786,119.808433 109.649406,117.44857 C110.738038,116.480421 115.515921,114.241577 114.608728,113.93903 C115.69736,113.333937 120.475244,111.216111 119.809969,110.913565 C122.35011,109.703378 127.430391,107.767081 128.82142,111.518658 C130.756766,118.114173 120.051887,123.075936 117.209349,126.888022 C115.092565,129.73196 113.157219,132.999463 110.979956,136.206456 C109.649406,138.142754 109.407488,140.623636 108.197897,142.741462 C106.746388,145.343362 106.50447,149.518504 105.294879,152.180914 C103.964329,155.14587 104.569125,159.018466 103.420013,162.225459 C102.51282,164.645832 100.758914,172.572551 101.24275,175.113942 C101.363709,175.174452 101.424189,175.234961 101.545148,175.234961 C105.657756,174.085284 109.951804,174.387831 113.459617,172.633061 C122.28963,168.094862 128.156145,164.161757 133.659783,155.932491 C134.808895,154.23823 135.171772,152.180914 136.441842,150.002579 C137.530474,148.12679 141.824521,138.384791 141.522124,136.387984 C142.00596,134.08863 142.489796,131.728767 142.973633,129.429413 C142.973633,126.464457 142.973633,123.499501 142.973633,120.595054 C142.973633,114.120558 138.921503,104.499578 135.292731,101.71615 C132.934029,99.9008703 128.942379,95.7862372 125.132168,95.6047093 C124.708812,95.6047093 125.071689,95.6652186 124.829771,95.3021628 C121.684835,94.0314673 117.209349,93.9709579 114.245851,94.4550324 C113.822494,94.3340138 113.399138,94.1524859 112.915301,94.0314673 C109.226049,94.576051 105.536797,95.1206348 101.908025,95.6047093 C99.9726797,96.512349 97.6139776,96.9964234 95.0738369,97.9040631 C91.2636259,99.2957772 84.1270402,103.652447 80.4377883,106.617404 C77.2323726,109.158795 75.5389455,112.305279 72.454489,114.302086 C72.5149685,114.423105 72.5754481,114.604633 72.5754481,114.725651 C79.7725133,115.088707 85.1551924,128.158718 79.9539519,135.90391 C72.3335299,147.340169 56.3669313,150.607672 50.1980182,136.024928 C48.5650707,132.152332 51.5890477,123.015427 52.9800771,120.776582 C54.0082293,119.142831 54.2501474,117.085514 55.4597382,115.270235 C61.144815,106.677913 66.7694122,100.566473 74.9341501,94.2129952 C79.3491565,90.7639645 83.2198471,88.2830828 88.1186898,85.6206732 C88.9049239,85.197108 95.6181528,83.3213194 94.6504802,82.837245 C95.7391119,82.3531705 104.569125,80.6589098 103.057136,80.2353446 C105.355359,79.9327981 107.714061,79.6302516 110.012283,79.3882143 C111.282354,79.0856678 110.677558,78.7831212 111.887149,78.541084 C112.673383,78.6621026 113.459617,78.7226119 114.185372,78.8436305 C120.656682,77.6334443 126.099841,77.7544629 130.575327,78.8436305 C131.119643,78.7226119 131.663959,78.6621026 132.147795,78.541084 C135.111292,79.6907609 139.586778,79.6302516 143.034112,81.3245122 C146.360487,82.8977543 151.743166,85.0760894 155.371938,87.9805363 C157.79112,89.9168342 159.363588,91.9741507 161.298933,93.78943 C163.778594,96.0887838 164.988185,100.082398 166.98401,102.926336 C169.766069,106.98046 171.459496,123.378482 169.887028,130.821128 C166.076817,148.550355 159.06119,160.289161 148.961107,170.878291 C145.99761,173.964265 142.489796,175.598017 139.40534,178.260426 C139.223901,178.441954 133.962181,180.620289 134.929854,180.862327 C133.962181,181.346401 130.15197,182.133022 130.454368,182.919643 C128.8819,182.919643 125.978882,183.645755 125.071689,184.492885 C128.216625,184.91645 131.48252,189.212611 133.780743,190.906872 C138.861024,194.658449 142.126919,201.011927 146.239528,206.578783 C147.751516,208.6361 148.719189,212.266658 149.989259,213.960919 C150.170698,214.74754 150.352137,215.534161 150.594055,216.260273 C152.46892,219.406757 153.134195,222.976806 155.250979,226.002272 C155.795295,226.788893 156.883927,230.964035 157.307284,230.782507 C158.516874,232.658296 159.726465,234.534084 160.936056,236.470382 C163.234279,239.072283 169.403192,239.556357 172.24573,237.075475 C172.124771,236.954457 172.064291,236.893947 171.943332,236.772929 C167.407367,237.378022 162.024688,227.393986 164.080992,219.951341 C165.411542,215.050087 168.193601,211.964112 171.640935,209.059665 C181.317661,200.890908 199.340564,208.454572 194.744119,224.126483 C194.865078,224.126483 195.046517,224.126483 195.167476,224.126483 C195.832751,221.343055 203.634611,213.779391 205.630436,211.782584 C210.468799,206.88133 215.246683,201.61702 220.568883,196.957803 C222.443748,195.324052 224.681491,193.932338 226.253959,192.480114 C226.374918,192.359095 227.342591,192.238077 226.858755,191.875021 C229.036018,190.604326 230.729445,188.728537 232.664791,187.820897 C232.846229,187.760388 233.511504,187.518351 233.088147,187.215804 C235.265411,186.066127 237.321715,184.190339 239.015142,183.585246 C239.196581,183.524736 239.861856,183.22219 239.438499,182.980152 C240.103774,182.617097 243.369669,181.40691 242.462476,181.104364 C244.639739,179.954687 248.812828,178.744501 250.143378,177.352787 C246.635564,177.352787 244.57926,173.238154 244.639739,168.639446 C244.51878,168.699955 244.458301,168.760465 244.337342,168.760465 C243.672067,170.757272 241.797201,172.209495 240.58761,173.419682 C238.894183,174.992924 237.200756,177.110749 235.628288,178.80501 C235.507329,178.926029 234.479177,179.047047 235.023493,179.410103 C234.418697,179.833668 231.757597,181.588438 231.999516,181.709457 C231.4552,182.012004 228.249784,183.464227 228.491702,183.585246 C227.282111,183.706264 226.072521,183.887792 224.86293,184.008811 C216.335315,185.703071 210.589758,177.655333 210.650238,168.3369 C209.561606,168.518427 209.864004,168.457918 208.352015,168.457918 C208.352015,171.725421 205.025641,176.445147 203.271734,178.623482 C202.364541,179.71265 202.183102,181.104364 201.21543,182.254041 C198.433371,185.521544 196.014189,187.881407 192.929733,190.543816 C192.324937,191.0884 186.216504,193.387754 186.821299,193.75081 C185.853627,193.871828 184.885954,193.932338 183.918281,194.053356 C173.999637,198.046971 165.351062,190.664835 162.569004,182.012004 C161.057015,177.231768 161.480372,169.607595 163.173799,165.492962 C163.294758,164.403794 163.476197,163.375136 163.597156,162.285969 C164.564828,159.926106 165.230103,157.082168 166.500174,154.722305 C171.701414,144.980306 177.084093,139.776505 184.220679,134.270158 C187.849451,131.426221 198.856728,126.161911 204.965161,129.066358 C209.803524,131.305202 211.73887,135.117289 213.553256,140.986692 C213.613735,143.528083 213.674215,146.008964 213.674215,148.550355 C213.734695,148.550355 213.795174,148.550355 213.795174,148.550355 C214.399969,143.830629 217.786824,139.110903 220.024567,135.782891 C223.59286,130.518581 227.403071,125.919873 232.664791,120.95811 C233.874381,119.808433 241.071447,116.60144 241.071447,116.60144 C242.220558,116.419912 243.369669,116.238384 244.57926,115.996347 C246.393646,115.633291 249.599062,115.572782 251.413448,116.419912 C252.381121,116.843477 254.014068,118.2957 255.465577,119.021812 C255.465577,117.569589 256.251811,114.967688 257.038045,114.241577 C259.517706,113.152409 262.239286,113.818012 264.900385,112.668335 C267.198608,111.639676 271.250737,110.42949 274.75855,110.368981 C274.81903,116.298893 272.460328,123.317973 271.008819,128.642792 C269.678269,133.604556 269.49683,138.989884 267.682444,143.467573 C267.017169,145.040815 267.501006,147.400678 266.835731,149.397486 C265.989017,151.938877 264.960865,155.024851 264.960865,158.231845 C265.142304,158.231845 265.323742,158.231845 265.56566,158.231845 C266.049497,157.566242 266.89621,157.505733 267.863883,156.90064 C270.101626,155.508926 273.609439,151.63633 274.698071,149.760541 C274.698071,148.187299 274.698071,146.674567 274.698071,145.101325 C275.726223,141.16822 276.14958,136.811549 277.601089,133.059972 C283.528084,117.388061 299.7366,92.5792438 319.392451,103.47092 C319.452931,100.990038 320.541562,97.3594793 321.448755,95.0601255 C320.964919,93.4263742 323.142182,86.7098408 323.746978,85.0155801 C324.472732,83.1397915 324.109855,81.5665495 324.593691,79.6302516 C326.347598,73.1557554 327.617668,66.1971848 329.553014,59.60167 C331.427879,59.5411607 334.875213,58.1494466 336.084804,57.7258814 C337.415354,57.6048628 338.685424,57.4233349 340.015974,57.3023163 C341.83036,56.5762046 344.975296,55.7290742 347.273519,55.2449997 C347.333998,55.6685649 347.333998,56.9997697 347.394478,57.7258814 C344.975296,65.8946383 344.249542,74.4869602 341.709401,82.4136798 C340.802208,85.197108 340.802208,88.1620642 339.834536,90.7034552 C338.503986,94.0919766 338.564465,98.2671189 337.354874,101.474112 C337.354874,102.079205 337.354874,102.623789 337.354874,103.228882 C336.266243,106.435876 336.205763,110.187453 335.056652,113.515465 C333.605143,117.630098 333.302745,123.075936 331.730277,127.13006 C330.944043,129.247885 331.609318,131.063165 330.883564,133.2415 C330.03685,135.8434 328.645821,139.473959 329.008698,142.680952 C335.600968,140.563126 341.709401,130.760618 346.003449,125.133252 C348.785507,121.442185 349.874139,118.053663 356.043052,117.751117 C356.466409,118.235191 356.889766,118.719266 357.373602,119.20334 C357.494561,124.346631 354.833461,125.738346 353.442432,129.066358 C351.204689,134.572705 343.039951,145.101325 338.624945,149.397486 C336.326722,151.63633 333.847061,154.056702 331.3674,156.05351 C330.944043,156.416566 328.101505,158.231845 328.161984,158.231845 C327.012873,159.018466 317.336147,163.314627 315.703199,162.467497 C315.703199,162.467497 311.469631,161.25731 310.743877,160.289161 C310.078602,159.381522 308.748052,153.935684 308.264216,153.633137 C307.780379,155.871982 305.11928,157.80828 303.486332,159.442031 C297.861735,165.008888 291.148506,172.148986 281.834657,167.308241 C279.596914,166.158564 278.024446,164.82736 277.056773,162.225459 C276.996293,162.225459 276.935814,162.225459 276.935814,162.225459 C274.577112,164.101248 272.581287,167.671297 270.524983,168.881483 C269.436351,169.547086 268.347719,170.09167 267.621965,171.180837 C271.795053,169.910142 280.866984,168.518427 282.016095,172.027967 C282.318493,173.056626 281.653218,174.690377 281.4113,175.234961 C281.35082,175.29547 280.987943,183.645755 280.987943,183.827283 C280.927464,188.304972 281.048423,193.266735 280.141229,197.19984 C279.536434,199.680722 280.443627,202.46415 279.536434,204.339939 C279.536434,205.731653 279.536434,207.123367 279.536434,208.57559 C279.354995,211.419528 279.173557,214.263466 278.931639,217.167912 C278.387323,221.706111 279.113077,229.027737 277.601089,233.444917 C276.996293,235.199687 277.722048,239.011773 277.177732,240.706034 C276.391498,243.005388 277.117252,246.514928 276.754375,248.08817 C275.665744,252.686877 277.661568,258.55628 275.726223,262.307857 C275.786703,263.518044 275.847182,264.72823 275.847182,265.938416 C275.302866,269.326937 275.605264,274.107173 274.81903,276.95111 C274.81903,278.70588 274.81903,280.46065 274.81903,282.154911 C273.972316,287.298202 274.698071,293.954226 273.367521,298.855481 C273.367521,300.973306 273.367521,303.091132 273.367521,305.269467 C272.097451,312.04651 273.428001,321.546472 271.492655,327.899949 C271.613614,327.718421 271.674094,327.536893 271.795053,327.294856 C277.359171,323.42226 280.08075,304.845902 282.258013,295.769506 C283.830481,289.2345 284.253838,280.642178 286.007745,273.562589 C286.61254,271.263235 285.886786,268.540316 287.035897,266.906565 C287.035897,265.817397 287.035897,264.788739 287.035897,263.699572 C288.426926,260.31105 287.640692,255.10725 289.33412,251.960766 C289.455079,250.387523 289.636517,248.753772 289.757476,247.18053 C291.571863,242.400295 291.208985,236.591401 293.083851,231.629637 C297.13598,221.101018 298.345571,210.33036 302.942016,200.70938 C305.361198,195.687108 308.687572,188.304972 311.953468,183.706264 C313.042099,182.133022 316.368474,178.986538 316.731351,177.05024 C318.061901,175.598017 319.331971,174.145793 320.662521,172.69357 C320.78348,172.572551 321.206837,172.270005 320.78348,172.088477 C321.690673,171.362365 327.738627,165.734999 327.920066,165.129906 C327.920066,165.129906 329.008698,164.645832 328.524862,164.403794 C330.944043,163.01208 332.758429,161.378329 334.633295,159.744578 C335.842886,158.65541 337.052477,158.836938 338.383027,157.868789 C343.16091,154.359249 355.0149,148.489846 361.183813,151.333784 C364.812586,153.028044 367.413206,155.871982 369.46951,160.773236 C371.404855,165.492962 367.594644,173.843247 365.961697,175.719035 C364.812586,177.05024 363.300597,178.139408 362.211965,179.047047 C362.211965,179.168066 362.211965,179.349594 362.211965,179.470613 C361.244293,179.954687 356.829286,181.830476 357.252643,182.072513 C354.772982,182.435569 352.293321,182.738115 349.874139,183.101171 C348.241192,181.830476 344.128583,181.709457 341.769881,179.470613 C340.257892,178.078898 339.653097,175.840054 338.262067,173.782737 C337.717752,172.996116 338.262067,172.209495 337.657272,171.604402 C337.596793,171.604402 337.536313,171.604402 337.536313,171.604402 C337.233915,173.359172 335.963845,174.327321 335.056652,175.658526 C333.484184,177.95788 333.302745,180.801817 331.730277,183.22219 C330.944043,184.371867 331.488359,185.82409 330.883564,187.155295 C327.43623,194.59794 327.254791,203.311281 324.230814,211.238 C323.323621,213.597863 323.807457,216.804857 322.900264,219.648794 C320.602042,226.970421 320.481083,235.199687 318.666696,243.186916 C316.731351,252.505349 315.642719,263.215497 312.618742,272.110366 Z M664.307268,179.168066 C663.823432,179.591631 659.831782,187.155295 659.831782,187.155295 C660.01322,187.397332 657.533559,189.575667 658.259314,189.938723 C656.747325,191.148909 653.299992,195.868635 652.453278,197.623405 C652.513758,197.683915 652.574237,197.744424 652.574237,197.744424 C651.062249,198.894101 647.312517,203.008734 646.465804,204.581976 C646.465804,204.581976 645.740049,205.12656 646.163406,205.308088 C637.333393,211.903603 631.043521,221.464073 615.984115,218.922682 C614.04877,217.34944 611.750548,216.804857 609.754723,214.989577 C608.545132,213.960919 607.819377,211.480037 606.428348,210.753926 C605.763073,213.053279 601.650464,216.441801 599.775599,218.438608 C594.937235,223.460881 584.595234,233.868482 574.676589,226.546855 C572.559806,224.973613 570.443022,218.438608 571.652612,213.355826 C573.34604,206.094709 574.676589,199.257157 577.761046,193.629791 C579.575432,190.24127 579.635912,186.126637 581.389818,182.859134 C581.329339,182.798625 581.268859,182.738115 581.268859,182.738115 C580.240707,183.22219 575.462824,184.553395 574.858028,185.218997 C574.011315,186.187146 574.132274,187.760388 573.527478,188.970574 C572.438847,191.390947 571.350215,194.234884 569.898706,196.655256 C571.350215,196.35271 572.559806,196.35271 573.950835,196.534238 C575.281385,202.766697 571.047817,206.699802 568.447197,210.451379 C560.645336,221.585092 552.903955,232.476768 540.868527,238.890755 C533.066666,243.065897 524.418092,240.948071 519.821647,236.107326 C518.733015,234.95765 517.221026,234.171028 516.79767,232.355749 C516.676711,232.355749 516.616231,232.355749 516.495272,232.355749 C516.011436,234.05001 508.632932,241.674183 506.637107,243.247425 C505.911352,243.792009 502.040662,246.3334 502.403539,246.575437 C500.044837,247.846132 498.29093,248.269698 496.174147,249.479884 C496.053187,249.540393 495.629831,249.78243 496.053187,249.903449 C495.206474,250.024468 494.299281,250.084977 493.452567,250.205996 C489.15852,252.565859 485.287829,250.508542 483.171045,247.906642 C481.29618,245.546779 481.477618,239.31432 482.142893,235.744271 C483.110566,231.145563 484.078239,226.546855 485.045911,221.948148 C486.255502,218.922682 487.465093,214.929068 487.948929,211.480037 C487.88845,211.480037 487.82797,211.480037 487.82797,211.480037 C484.501595,214.687031 483.292004,218.438608 480.872823,221.948148 C476.397337,228.362135 473.131442,236.107326 468.958354,243.428953 C467.204447,246.514928 461.700809,255.04674 461.57985,258.072206 C460.309779,258.253734 457.830118,258.919336 455.894773,259.403411 C455.955252,259.766466 455.773814,259.46392 456.015732,259.826976 C450.693532,259.887485 447.548596,262.489385 442.105438,262.610404 C441.500642,260.190032 443.375508,255.833361 444.161742,253.897063 C444.161742,253.29197 444.161742,252.626368 444.161742,252.021275 C445.431812,248.572244 445.855169,244.941686 446.943801,241.250618 C446.883321,241.250618 446.822842,241.250618 446.822842,241.250618 C443.496467,242.521313 441.379683,242.76335 438.113788,243.005388 C437.992829,245.667797 434.726934,251.900256 433.335904,254.018082 C432.912548,254.683684 431.642477,255.95438 431.581998,256.498964 C431.884395,256.922529 429.162816,258.919336 429.707132,259.282392 C428.134664,260.432069 427.28795,262.247348 425.957401,263.033969 C425.775962,263.154988 425.292126,263.457534 425.655003,263.639062 C422.872944,265.272814 420.877119,267.632677 417.792663,268.419298 C417.611224,268.479807 416.341154,268.903372 416.945949,269.145409 C409.930322,272.110366 400.314076,269.629484 398.681128,264.667721 C398.620648,264.788739 398.560169,264.970267 398.560169,265.091286 C397.290099,265.696379 396.685303,268.177261 395.77811,269.326937 C393.903244,271.74731 392.028379,273.320552 389.367279,275.438378 C388.399606,276.224999 387.008577,275.801434 385.738506,276.285508 C376.848014,280.037085 370.921019,274.833285 368.925194,266.422491 C368.562317,264.970267 367.957522,262.791932 368.19944,261.460727 C367.836563,261.460727 367.534165,261.460727 367.171288,261.460727 C366.506013,261.642255 366.264095,261.521236 366.022176,262.186839 C364.691626,263.397025 362.332924,269.99254 360.941895,272.231384 C355.498736,280.944725 339.350699,294.135754 327.133832,284.998849 C323.807457,282.517967 323.081703,279.553011 320.481083,275.559396 C320.420603,274.954303 320.360124,274.409719 320.360124,273.804626 C318.18286,267.148602 320.299644,258.253734 322.416428,253.049933 C326.589516,242.82386 330.520686,236.530892 337.778231,229.814358 C340.015974,227.757042 343.342349,225.760234 345.76153,224.42903 C346.124408,224.247502 348.966946,223.279353 348.543589,223.097825 C350.418455,222.190185 352.172362,222.67426 354.228666,221.948148 C362.756281,218.862173 371.949171,225.699725 371.344376,236.893947 C371.465335,236.893947 371.646774,236.893947 371.767733,236.893947 C371.888692,234.715612 372.553967,233.20288 373.219242,231.3876 C373.340201,230.298433 373.521639,229.269774 373.642598,228.180607 C374.610271,224.731576 375.940821,220.253887 377.150412,216.260273 C382.472611,214.444994 388.943922,212.750733 394.689478,211.903603 C394.810437,212.024621 394.870917,212.206149 394.991876,212.327168 C395.052356,215.957726 393.782285,220.193378 392.693654,223.52139 C392.330776,225.699725 392.028379,227.87806 391.665501,230.056395 C389.851115,236.046817 389.064881,242.944878 387.431934,249.237847 C386.706179,252.142293 386.161863,261.158181 387.734331,262.428876 C388.036729,262.731423 388.097208,262.670913 388.762483,262.731423 C396.443385,254.623175 396.987701,238.164643 400.495514,225.155141 C401.765585,220.314397 404.547643,214.929068 404.729082,209.604249 C410.595597,208.817628 416.82499,205.550125 422.449587,205.247578 C422.570546,205.368597 422.631026,205.429106 422.751985,205.550125 C422.812464,209.422721 421.723833,213.779391 420.453762,216.744347 C420.332803,218.015043 420.151365,219.285738 420.030406,220.495925 C418.760335,224.36852 418.15554,229.269774 417.127388,233.868482 C416.704031,236.046817 416.280674,238.225152 415.796838,240.403487 C416.099236,245.607288 412.954299,252.44484 416.945949,255.470306 C424.143014,253.412989 423.598698,252.202803 426.985553,246.877984 C427.771787,245.607288 428.739459,241.129599 429.767612,240.463997 C428.981378,239.435338 427.590348,238.951264 426.743635,237.983115 C425.896921,237.075475 425.352605,235.562743 424.68733,234.473575 C423.659178,232.779314 424.082535,228.180607 424.082535,225.155141 C424.082535,218.438608 427.106512,211.843093 430.190968,207.72846 C431.461039,205.97369 436.178443,199.378175 440.049133,200.76989 C452.145041,205.066051 443.798865,220.677452 442.528795,230.54047 C442.589274,230.54047 442.649754,230.54047 442.649754,230.54047 C442.770713,230.419451 442.831192,230.358942 442.952151,230.237923 C443.194069,228.664681 444.887497,226.304818 445.855169,224.852595 C447.185719,222.795278 447.367158,220.435415 448.637228,218.317589 C450.512094,215.171105 452.024082,211.359019 453.838468,208.152025 C454.140866,207.062858 454.443264,205.913181 454.685182,204.824013 C456.983405,200.406834 457.104364,196.413219 458.91875,190.604326 C460.007382,187.034276 460.793616,181.890985 462.245125,178.260426 C462.366084,177.05024 462.547522,175.840054 462.668481,174.629868 C464.664306,169.063011 465.934376,162.891062 467.023008,156.90064 C471.982331,156.416566 475.429664,155.206379 480.207548,154.117212 C481.054262,153.935684 483.050086,152.48346 484.441116,153.088554 C484.501595,157.445224 483.352484,161.015273 482.142893,164.585322 C480.630905,168.881483 480.570425,173.722228 479.239875,177.776352 C477.667407,182.677606 478.030285,187.336823 476.457816,192.117058 C474.945828,196.776275 474.582951,201.919566 473.131442,206.941839 C471.438015,212.629714 470.046985,218.801664 468.897874,224.792085 C468.958354,224.792085 469.018833,224.792085 469.018833,224.792085 C469.079313,224.792085 469.139792,224.792085 469.139792,224.792085 C469.684108,221.040508 473.675758,216.562819 475.369185,213.295317 C479.663232,204.945032 486.013584,196.110673 491.940579,189.515158 C493.392088,187.881407 496.295106,185.158488 498.472369,184.432376 C498.714287,184.371867 499.319083,184.06932 498.895726,183.827283 C498.895726,183.827283 503.310732,182.677606 502.403539,182.375059 C503.794569,181.709457 506.032312,182.677606 507.483821,182.677606 C507.725739,183.343208 509.237727,184.674413 509.782043,185.703071 C510.628757,187.276313 509.782043,192.661642 509.782043,194.416412 C509.782043,199.680722 508.451493,204.581976 506.999984,208.757118 C506.334709,210.693416 506.758066,212.327168 505.971832,214.263466 C505.306557,216.078745 501.496346,229.330284 502.34306,231.3876 C505.729914,230.419451 512.8665,223.763427 513.350336,221.222036 C512.503622,220.374906 512.926979,217.167912 512.926979,215.534161 C512.926979,209.604249 514.378488,205.671144 515.40664,201.314473 C517.039588,194.537431 523.692337,185.703071 528.893578,182.31455 C532.219952,180.136215 534.941532,179.349594 538.449345,177.655333 C538.570304,177.534315 538.630784,177.473805 538.751743,177.352787 C539.961334,177.110749 541.170924,176.868712 542.380515,176.626675 C543.832024,175.476998 549.759019,175.779545 551.815323,176.747694 C557.742318,179.591631 561.552529,191.148909 556.290809,200.527852 C551.875803,208.454572 545.585931,213.053279 534.215777,215.050087 C533.006186,215.292124 531.857075,214.505503 530.889403,214.444994 C530.768443,220.193378 536.030163,225.699725 542.380515,223.279353 C548.609908,220.91949 554.234505,215.715689 557.5004,210.814435 C555.020739,210.209342 555.625534,204.945032 556.774646,203.250771 C560.342939,197.925952 562.883079,190.664835 566.511852,184.06932 C564.878904,183.827283 564.334588,182.556587 563.004038,181.285892 C558.347114,176.868712 563.911231,166.461111 566.330413,163.314627 C567.721442,161.499348 569.172951,160.470689 571.410694,159.381522 C571.592133,159.321012 571.773572,158.897447 571.531653,158.776429 C578.789198,155.327398 581.873655,162.951571 579.81735,170.817781 C581.510778,170.515235 585.865304,169.426067 587.498252,168.3369 C587.619211,168.27639 589.07072,166.763658 589.07072,166.763658 C589.07072,166.703148 589.07072,166.642639 589.07072,166.642639 C592.639013,164.76685 600.743271,167.489769 598.203131,172.451533 C594.27196,180.196724 593.425247,188.849556 591.066545,197.986461 C590.038393,201.919566 589.07072,208.6361 590.461749,212.508696 C590.582709,212.569205 590.643188,212.629714 590.764147,212.629714 C595.481551,209.967305 598.082171,206.578783 601.045669,202.585169 C601.650464,201.738039 602.860055,201.011927 603.222932,199.983269 C603.58581,198.95461 602.557657,193.085207 602.799576,190.543816 C603.101973,186.913258 603.767248,182.31455 605.097798,179.047047 C608.545132,170.817781 612.839179,165.129906 619.31049,160.470689 C621.669192,158.776429 624.148853,156.598093 627.596187,155.993 C627.838105,155.932491 628.987216,155.629945 628.321942,155.387907 C628.805778,155.14587 632.313591,155.14587 631.224959,154.540777 C632.978866,154.29874 634.732773,154.056702 636.4262,153.814665 C637.212434,154.117212 639.934013,154.29874 639.934013,154.419758 C639.692095,154.843323 640.478329,154.661796 640.659768,154.722305 C642.050797,155.024851 643.623265,156.174528 644.590938,157.021659 C646.223885,158.534391 647.493956,161.31782 648.522108,163.980229 C648.884985,164.948378 648.703547,166.279583 648.945465,166.884676 C649.55026,168.27639 648.401149,171.84644 648.098751,172.814588 C646.526283,177.89737 645.135254,181.648948 641.68792,185.158488 C640.236411,186.67122 638.784902,187.699879 637.212434,188.4865 C637.030995,188.547009 636.849557,188.970574 637.091475,189.091593 C634.188457,190.422798 631.406398,191.027891 628.382421,192.722151 C626.084199,194.053356 621.850631,192.056549 620.701519,193.024698 C621.366794,194.053356 621.064397,195.808126 621.729672,196.957803 C622.394947,198.10748 623.423099,199.559703 624.209333,200.285815 C626.507555,202.46415 635.277089,202.040585 636.849557,199.136138 C637.091475,198.712573 638.301066,198.349517 639.02682,197.804933 C641.385522,196.171182 643.925663,193.75081 645.67957,191.572474 C649.368821,186.973767 655.114378,175.234961 662.492882,173.722228 C662.855759,174.44834 662.916238,173.661719 663.641993,174.024775 C664.367747,175.053433 664.367747,177.231768 664.307268,179.168066 Z M608.303214,75.1525626 C609.936161,75.1525626 611.206232,73.8818671 611.206232,72.2481158 L611.206232,63.9583403 C611.206232,62.324589 609.936161,61.0538935 608.303214,61.0538935 C608.303214,61.0538935 607.154103,61.0538935 606.065471,61.0538935 L606.12595,75.1525626 C607.154103,75.1525626 608.303214,75.1525626 608.303214,75.1525626 Z M247.724196,126.645985 C245.546933,127.614134 244.155903,127.251078 242.522956,128.400755 C239.861856,130.216034 239.075622,133.059972 237.321715,135.782891 C233.451025,141.712803 226.798275,160.591708 229.459375,169.728614 C239.619938,169.18403 246.151728,149.821051 249.901459,141.410257 C252.139202,136.569512 252.562559,127.916681 247.724196,126.645985 Z M313.465456,127.372097 C315.763679,121.926259 317.275667,111.33713 310.26004,111.276621 C301.309068,115.451763 298.103653,124.770197 295.140155,135.238307 C294.59584,137.114096 293.26529,140.623636 293.386249,142.378406 C293.628167,145.948455 291.208985,151.938877 293.507208,154.29874 C303.607291,152.241423 309.231888,137.295624 313.465456,127.372097 Z M195.167476,139.837015 C187.909931,147.945262 185.611708,156.114019 181.801497,169.910142 C180.410468,174.871905 180.954784,182.133022 183.857802,184.250848 C185.127872,184.06932 186.397942,183.887792 187.607533,183.645755 C193.776446,180.378252 195.288435,172.69357 199.098646,166.642639 C190.571031,162.770043 193.897405,143.951648 203.876529,143.709611 C203.876529,138.989884 198.61481,136.024928 195.167476,139.837015 Z M624.693169,184.250848 C630.257287,181.164873 636.607639,175.416489 636.4262,166.098055 C635.337568,165.432453 634.853732,164.645832 632.918387,164.645832 C632.071673,164.76685 631.285439,164.948378 630.438725,165.069397 C626.628514,167.126713 625.721321,172.148986 622.878783,176.384638 C622.153028,177.473805 622.818303,178.441954 622.273988,179.410103 C621.91111,180.136215 620.701519,183.585246 620.943438,184.795432 C622.273988,184.674413 623.483578,184.492885 624.693169,184.250848 Z M246.696044,189.515158 C243.067271,192.056549 239.740897,194.053356 236.233083,197.078822 C221.476076,209.664758 208.170577,226.970421 202.001664,247.604095 C196.800423,264.788739 199.098646,286.814128 210.589758,293.470152 C210.710718,290.323668 212.101747,284.514774 213.371817,281.731346 C213.795174,280.763197 213.371817,279.250464 213.795174,277.979769 C215.125724,274.046664 215.428122,268.963882 217.121549,265.212304 C217.968262,263.336516 217.544906,260.37156 218.452099,258.072206 C220.508403,252.626368 222.020392,246.212381 223.653339,241.371636 C224.500053,239.011773 224.379094,236.65191 225.528205,234.413066 C230.06417,225.760234 232.059995,215.897217 236.837879,207.849479 C239.378019,203.553318 241.797201,199.86225 244.397821,195.929145 C245.305014,194.537431 246.272687,192.782661 247.17988,191.875021 C247.300839,191.754002 247.724196,191.451456 247.300839,191.269928 C248.631389,190.24127 249.901459,188.789046 250.929612,187.518351 C250.808653,187.518351 250.627214,187.518351 250.506255,187.518351 C249.357144,188.607518 247.905635,188.668028 246.696044,189.515158 Z M443.254549,122.289315 C448.576749,119.505887 454.140866,111.216111 455.713334,104.862634 C455.531896,104.741615 455.350457,104.681106 455.108539,104.560087 C454.201346,103.047354 452.38696,101.776659 451.479766,100.324435 C449.786339,97.6015165 451.116889,90.0983621 452.507919,87.9805363 C452.810316,87.4964618 455.471416,84.2894684 455.289977,84.2289591 C456.922925,83.1397915 459.100188,82.5952077 460.491218,81.4455308 C459.704984,78.359556 459.039709,76.4837674 456.015732,76.0602023 C445.855169,80.5984005 443.435988,91.0060018 439.746736,103.47092 C437.87187,109.884906 437.025156,117.327551 440.049133,122.047278 C441.198245,122.168296 442.226397,122.833899 443.254549,122.289315 Z M546.009288,187.457841 C544.981135,186.913258 542.864351,185.461034 540.808047,186.73173 C536.755918,189.152102 531.010362,199.075629 531.070841,206.336746 C537.723591,206.215727 548.670387,195.384561 546.009288,187.457841 Z M529.195975,133.2415 L620.943438,133.2415 C626.144678,133.2415 630.378246,129.005848 630.378246,123.802048 L630.378246,31.8884062 C630.378246,26.6846056 626.144678,22.4489539 620.943438,22.4489539 L529.195975,22.4489539 C523.994735,22.4489539 519.761167,26.6846056 519.761167,31.8884062 L519.761167,123.802048 C519.761167,129.005848 523.994735,133.2415 529.195975,133.2415 Z M525.385764,38.2418837 C525.385764,33.0380831 529.619332,28.8024314 534.820573,28.8024314 L614.351168,28.8024314 C619.552408,28.8024314 623.785976,33.0380831 623.785976,38.2418837 L623.785976,117.811626 C623.785976,123.015427 619.552408,127.251078 614.351168,127.251078 L534.820573,127.251078 C529.619332,127.251078 525.385764,123.015427 525.385764,117.811626 L525.385764,38.2418837 Z M441.80304,231.569128 C441.86352,231.569128 441.923999,231.569128 441.923999,231.569128 C441.984479,231.3876 442.044958,231.206072 442.044958,230.964035 C441.984479,230.964035 441.923999,230.964035 441.923999,230.964035 C441.923999,231.206072 441.86352,231.3876 441.80304,231.569128 Z" id="Shape"></path>
        </g>
    </g>
</svg>