<?xml version="1.0" encoding="UTF-8"?>
<svg width="3058px" height="1725px" viewBox="0 0 3058 1725" version="1.1" xmlns="http://www.w3.org/2000/svg" xmlns:xlink="http://www.w3.org/1999/xlink">
    <title>83286984_3150949291586424_912520850631032832_n [Converted]</title>
    <g id="Page-1" stroke="none" stroke-width="1" fill="none" fill-rule="evenodd">
        <g id="83286984_3150949291586424_912520850631032832_n-[Converted]" transform="translate(119.000000, 447.000000)" fill="#000000" fill-rule="nonzero">
            <path d="M2327.89359,0 C2447.01391,0 2531.8746,11.6085491 2607.41781,51.5935515 C2734.27881,118.665168 2860.13638,299.672545 2809.53533,510.202898 C2770.97532,670.859485 2660.0257,765.017716 2511.37615,816.897898 C2470.89531,831.000136 2417.29547,829.876543 2364.37451,828.863016 L2360.40692,828.787448 C2348.50929,828.562799 2336.66348,828.363132 2325.02667,828.363132 L518.870143,828.363132 L518.870143,828.363132 C501.806265,828.363132 484.098362,828.82541 466.265618,829.258631 L461.805131,829.366047 L461.805131,829.366047 L457.341246,829.470545 C403.761437,830.700205 349.836828,830.931344 309.585339,816.897898 C306.86177,815.948434 304.126442,814.992811 301.383029,814.029316 L298.637058,813.063133 C258.327286,798.852098 216.541998,782.824657 184.874532,759.57173 C75.0716823,679.028464 -38.8881939,522.098078 12.8596241,315.293926 C22.893827,275.022292 39.951972,236.470444 58.7302661,203.507898 C103.16745,125.687624 176.847169,65.4951473 262.28124,28.6630842 C278.166073,21.8051759 295.869372,17.8448341 313.459018,13.7414026 L316.5615,13.0151634 C325.863046,10.8282762 335.100884,8.55115344 343.988321,5.73261683 C358.179551,1.28983879 2292.48718,0 2327.89359,0 Z M971.842733,295.229767 C925.828745,286.774157 856.592745,288.350627 845.698468,322.459697 C845.26843,341.090701 844.695047,359.721706 844.26501,378.352711 C844.26501,472.797573 876.231114,648.072333 761.124471,627.721543 C677.123858,612.960055 702.352711,478.100244 702.352711,382.652173 C702.352711,362.588015 705.649664,334.928138 699.485796,319.593388 C688.387968,292.081127 648.841196,291.849028 608.97415,293.035497 L605.946113,293.127916 C596.358272,293.426558 586.793097,293.769383 577.641904,293.796613 C575.778409,295.229767 573.771568,296.662921 571.908073,298.096075 C567.894392,317.873603 566.60428,363.591223 574.774988,378.352711 C585.239229,378.782657 595.846815,379.355919 606.311055,379.785865 C603.44414,539.582559 585.669266,661.400667 708.086542,707.978179 C731.4519,716.863735 769.29518,724.316137 802.694741,718.010258 C826.346791,713.56748 849.282111,707.404917 867.200331,696.512945 C907.050451,672.435954 930.989193,633.884106 940.306667,578.9943 L940.306667,578.9943 L940.306667,431.379417 C940.306667,416.044667 936.292986,386.378374 944.607039,378.352711 C953.207785,379.212603 967.399015,379.355919 974.709648,375.486402 C979.440058,354.848982 981.160207,311.567725 971.842733,295.229767 Z M556.14004,409.882103 C565.314168,263.127113 521.163676,293.796613 388.425505,293.796613 C365.63353,293.796613 280.629497,288.923888 272.315443,299.529229 C263.571352,314.720664 267.871724,367.030793 275.182358,378.352711 C285.646598,378.782657 296.254184,379.355919 306.718424,379.785865 L306.718424,379.785865 L306.718424,629.154697 C306.718424,649.792118 299.981174,701.242354 312.452255,710.844487 C329.797091,718.153574 388.425505,715.14395 401.326623,707.978179 C401.756661,656.384627 402.330044,604.791076 402.760081,553.197524 C440.316669,553.484155 494.071328,560.21998 526.037431,550.331216 C532.344645,533.563312 532.201299,486.842484 526.037431,470.07458 C505.75114,464.654391 478.690801,464.726952 451.916892,465.640489 L449.284566,465.732894 C433.06065,466.317423 417.027284,467.155245 402.760081,467.208272 C403.190118,437.54198 403.763501,408.019003 404.193538,378.352711 C425.265365,378.782657 446.193845,379.355919 467.265671,379.785865 C467.231943,380.399592 467.197897,381.016493 467.1644,381.635478 L467.114675,382.565381 L467.114675,382.565381 L467.066423,383.497591 L467.066423,383.497591 L467.020294,384.431292 L467.020294,384.431292 L466.976938,385.365664 C466.969979,385.521403 466.963163,385.677137 466.956503,385.832847 L466.918525,386.766694 C466.906563,387.077793 466.895333,387.388664 466.884945,387.699169 L466.856412,388.629455 C466.572691,398.84755 467.32301,408.519764 472.999501,412.748412 C487.620769,422.20723 545.102417,417.047874 556.14004,409.882103 Z M1102.28737,295.229767 C1091.1064,291.933512 1027.17419,288.207311 1020.58029,299.529229 C1020.15025,408.878895 1019.57687,518.371877 1019.14683,627.721543 C1008.68259,628.151489 998.075006,628.724751 987.610766,629.154697 C980.300133,644.489447 979.153367,695.796368 987.610766,710.844487 C1017.57003,716.720419 1087.23607,717.723627 1103.72083,702.245562 C1126.94284,680.318302 1117.19533,528.690587 1116.62195,478.673505 C1117.62537,479.103452 1118.48544,479.676713 1119.48886,480.10666 C1172.95683,557.496987 1226.56814,634.887314 1280.03611,712.277641 C1305.40831,712.850903 1345.83181,716.863735 1361.74319,706.545024 L1361.74319,706.545024 L1361.74319,475.807197 C1361.74319,447.86069 1354.71925,400.423286 1364.61011,378.352711 C1374.64431,377.922765 1384.67851,377.349503 1394.71271,376.919557 C1401.73666,361.15486 1401.59331,321.169858 1397.57963,300.962384 C1395.14275,298.526021 1392.84922,296.232975 1390.41234,293.796613 C1355.72267,293.366666 1297.52429,286.774157 1278.60265,303.828692 C1249.21677,330.342045 1273.4422,474.947304 1264.26808,527.400748 C1263.26466,526.970802 1262.40458,526.397541 1261.40116,525.967594 C1223.12784,470.07458 1184.99787,414.181566 1146.72456,358.288552 C1134.54017,340.087494 1121.20901,305.978423 1102.28737,295.229767 Z M2385.23189,590.459534 C2362.86995,575.841361 2303.8115,582.863816 2269.12183,583.293763 C2268.29759,583.652051 2267.46439,584.01034 2266.62671,584.368628 L2261.58274,586.51836 L2261.58274,586.51836 L2259.08762,587.593225 C2253.35379,602.927975 2249.77015,703.678716 2261.95454,710.844487 C2272.13209,716.863735 2378.78133,713.137534 2383.79843,705.11187 C2392.82921,694.363214 2389.38892,606.510861 2385.23189,590.459534 Z M1533.7581,295.229767 C1517.56003,292.93672 1456.35139,287.204103 1449.1841,299.529229 C1448.75406,408.878895 1448.18068,518.371877 1447.75064,627.721543 C1436.13964,627.291597 1422.09175,627.004966 1414.78112,630.587851 C1409.47733,649.075541 1408.33056,694.79316 1416.21458,710.844487 C1429.40239,712.850903 1445.31377,712.277641 1463.51868,712.277641 C1468.47941,712.277641 1473.81677,712.452782 1479.25146,712.608245 L1480.73586,712.650009 C1496.83838,713.094002 1513.56889,713.211607 1523.72389,707.978179 C1558.55691,690.063751 1545.22576,594.472365 1545.22576,543.165445 C1545.22576,526.11091 1540.352,491.428578 1548.09267,480.10666 L1548.09267,480.10666 L1548.09267,482.972968 C1601.56064,559.360087 1655.17195,635.890522 1708.63992,712.277641 C1732.14862,712.707588 1773.00216,717.293681 1788.91354,707.978179 C1789.02105,687.555731 1789.13752,667.133284 1789.25847,646.710836 L1790.00208,524.176151 L1790.00208,524.176151 L1790.347,462.908809 C1790.347,444.134489 1783.32306,388.814737 1794.64737,379.785865 C1804.25154,379.355919 1813.71236,378.782657 1823.31652,378.352711 C1829.62374,357.71529 1829.91043,315.867187 1823.31652,295.229767 C1807.11845,294.799821 1790.77704,294.226559 1774.57897,293.796613 C1771.78803,293.796613 1768.95372,293.768867 1766.102,293.735884 L1763.76542,293.708186 C1762.98561,293.698868 1762.20504,293.689617 1761.42422,293.68089 L1759.08157,293.656737 C1758.3008,293.649514 1757.5203,293.643271 1756.74062,293.638465 L1755.1825,293.630904 C1735.72331,293.563725 1716.98981,294.584847 1707.20646,303.828692 C1685.13122,324.609428 1694.30534,430.94947 1694.30534,475.807197 C1693.87531,493.005047 1693.30192,510.202898 1692.87189,527.400748 C1691.86847,526.970802 1691.00839,526.397541 1690.00497,525.967594 C1637.97046,449.007213 1585.79261,372.190148 1533.7581,295.229767 Z M2190.28166,295.229767 C2055.68,277.458655 2075.17502,380.072496 2016.8333,438.545188 L2016.8333,438.545188 L2015.39984,438.545188 C2006.22571,409.738788 1943.29692,305.691793 1917.92472,296.662921 C1893.98598,295.659713 1870.19059,294.799821 1846.25185,293.796613 C1844.38835,296.232975 1842.38151,298.526021 1840.51802,300.962384 C1833.20738,318.016919 1837.79445,367.604054 1844.81839,378.352711 C1853.84917,378.782657 1863.0233,379.355919 1872.05408,379.785865 C1904.02019,429.946262 1936.12964,480.10666 1968.09574,530.267057 C1972.88922,545.211989 1970.71702,579.329314 1968.60032,614.013765 L1968.31268,618.74523 C1965.73891,661.328608 1963.72943,703.492406 1975.26303,710.844487 L1975.26303,710.844487 L2061.27048,710.844487 C2075.60506,677.308679 2065.57085,608.230646 2065.57085,566.095912 L2065.57085,566.095912 L2065.57085,530.267057 C2070.01457,515.648884 2156.8821,383.225435 2165.91288,379.785865 C2172.2201,378.352711 2186.12463,379.355919 2190.28166,375.486402 C2201.03259,363.017961 2195.44211,308.844732 2190.28166,295.229767 Z M2402.43338,113.219182 C2371.75739,124.541101 2343.37493,117.232014 2323.59321,137.582804 C2323.44987,171.691874 2341.22474,224.861895 2357.9962,246.502524 C2415.90788,245.642631 2467.51235,232.027666 2488.44083,282.331379 C2492.88455,293.080035 2494.17466,309.417993 2488.44083,321.026543 C2464.35875,369.180524 2340.50801,376.632926 2300.65789,435.678879 C2293.7773,445.997589 2265.96822,498.164403 2267.68837,511.636052 C2269.12183,523.101286 2368.17374,567.959013 2382.36497,563.229604 C2394.03332,557.94843 2399.76106,543.259675 2405.67742,528.748666 L2406.32388,527.166813 C2410.96647,515.841858 2415.86058,504.838602 2423.93524,498.737664 C2438.54685,487.781281 2456.53577,482.048085 2475.14846,476.44827 L2477.21896,475.826359 C2478.25535,475.515419 2479.29336,475.204309 2480.3325,474.892156 L2482.41217,474.266201 C2492.12305,471.336176 2501.90567,468.264619 2511.37615,464.341963 C2560.11371,443.991174 2600.82391,413.608304 2621.75239,365.454323 C2685.11121,219.129278 2537.60843,112.35929 2402.43338,113.219182 Z M1735.86661,110.294052 L1733.0087,110.352874 C1709.06996,121.244846 1689.57493,128.410617 1681.40423,154.780654 C1667.35634,200.498274 1704.62624,251.805194 1755.94402,240.769907 C1833.20738,224.002003 1829.1937,107.199935 1733.0087,110.352874 Z M418.489137,110.298436 L415.661199,110.352874 C392.009149,120.8149 372.800818,127.120778 364.056727,151.914346 C346.998582,200.068327 386.848702,251.805194 438.59652,240.769907 C514.283079,224.575264 510.842781,107.34325 415.661199,110.352874 Z M709.472548,110.298436 L706.653084,110.352874 C681.710923,121.388161 661.929208,127.69404 653.615154,154.780654 C638.56385,203.221267 679.274045,251.088617 728.154948,240.769907 C805.131619,224.575264 801.547975,107.34325 706.653084,110.352874 Z M1938.06273,111.620479 C1924.90982,110.872762 1912.71072,110.78597 1907.89052,118.951799 C1898.14301,144.318629 1907.74718,190.036248 1900.72323,212.106823 C1891.69245,216.119655 1877.93126,223.428741 1867.75371,214.973131 C1844.5317,204.36779 1858.14954,146.038414 1853.41913,117.518645 C1851.55564,116.085491 1849.5488,114.652337 1847.6853,113.219182 L1847.6853,113.219182 L1819.01615,113.219182 L1819.01615,113.219182 L1819.01615,131.850187 L1819.01615,131.850187 L1827.6169,131.850187 C1827.81758,132.050829 1828.01253,132.245738 1828.20404,132.437207 L1830.48381,134.716496 C1829.1937,188.746409 1825.7534,228.874727 1869.18717,239.336753 C1883.52174,242.776323 1901.29662,239.766699 1910.75744,233.604136 C1946.88057,210.100407 1915.48785,167.249096 1933.69276,131.850187 C1942.00681,131.276925 1943.72696,128.410617 1942.2935,114.652337 C1941.86347,113.649129 1941.29008,112.789236 1940.86004,111.786028 C1940.7041,111.776579 1940.54822,111.767147 1940.39242,111.757744 L1939.45867,111.701785 C1939.30323,111.692551 1939.14789,111.683371 1938.99267,111.674258 Z M913.070973,111.786028 C903.466807,112.215974 894.005987,112.789236 884.401822,113.219182 C884.043457,113.684958 883.685093,114.15969 883.326729,114.638901 L881.176542,117.532081 L881.176542,117.532081 L880.101449,118.951799 C872.074087,156.643755 894.292679,209.240514 855.732671,217.83944 C846.845234,219.845855 837.384414,216.119655 832.79735,209.240514 C817.889391,188.889725 834.947536,136.14965 822.763147,113.219182 L822.763147,113.219182 L791.22708,113.219182 L791.22708,113.219182 L791.22708,131.850187 C795.097416,132.280133 798.824405,132.853395 802.694741,133.283341 C801.404629,184.876893 797.820985,225.721788 837.097722,237.903598 C850.285532,241.91643 870.353938,241.343169 881.534907,235.03729 C915.651197,215.833024 889.705615,169.685458 905.903685,131.850187 L905.903685,131.850187 L914.504431,131.850187 C914.074393,125.114362 913.50101,118.521853 913.070973,111.786028 Z M1113.75503,114.652337 C1107.87786,110.639505 1091.53644,110.78282 1083.65242,113.219182 L1083.65242,113.219182 L1083.65242,131.850187 L1083.65242,131.850187 L1092.25317,131.850187 L1092.25317,131.850187 L1094.53294,134.129476 L1094.53294,134.129476 L1095.12008,134.716496 L1095.12008,134.716496 L1095.12008,237.903598 C1096.55354,238.333545 1097.987,238.906806 1099.42046,239.336753 C1105.58432,238.906806 1111.89154,238.333545 1118.0554,237.903598 C1118.48544,220.705748 1119.05882,203.507898 1119.48886,186.310047 L1119.48886,186.310047 L1173.96025,186.310047 C1173.24352,202.218059 1169.94657,232.887559 1179.69408,239.336753 C1184.71118,238.190229 1193.74196,238.190229 1196.89557,235.03729 C1197.32561,201.071535 1197.89899,167.249096 1198.32903,133.283341 C1202.91609,132.280133 1205.78301,131.850187 1208.36323,128.983879 L1208.36323,128.983879 L1208.36323,111.786028 C1199.33245,112.215974 1190.15832,112.789236 1181.12754,113.219182 C1179.26404,114.22239 1177.2572,115.082283 1175.39371,116.085491 C1174.96367,132.853395 1174.39029,149.477984 1173.96025,166.245888 C1167.87568,166.405974 1160.12177,166.923701 1152.20803,167.185034 L1150.85011,167.227207 C1137.9403,167.601821 1124.83535,167.203357 1118.0554,163.37958 C1117.62537,148.04483 1117.05198,132.853395 1116.62195,117.518645 L1116.62195,117.518645 Z M1268.56845,111.786028 C1264.62644,111.893515 1260.68443,112.009959 1256.74242,112.130881 L1233.09037,112.87433 L1233.09037,112.87433 L1221.26435,113.219182 L1221.26435,113.219182 L1221.26435,131.850187 C1225.56472,132.280133 1229.86509,132.853395 1234.16547,133.283341 C1234.5955,148.904722 1237.60577,210.816984 1231.29855,217.83944 C1228.0016,218.269386 1224.5613,218.842648 1221.26435,219.272594 L1221.26435,219.272594 L1221.26435,237.903598 C1237.03238,238.333545 1252.80042,238.906806 1268.56845,239.336753 L1268.56845,239.336753 L1268.56845,219.272594 C1264.69811,218.842648 1260.97112,218.269386 1257.10079,217.83944 L1257.10079,217.83944 L1257.10079,131.850187 L1257.10079,131.850187 L1268.56845,131.850187 L1268.56845,131.850187 Z M1671.37002,111.786028 C1658.7556,111.356082 1652.59173,113.219182 1645.56779,117.518645 C1636.96704,131.850187 1628.3663,146.181729 1619.76555,160.513271 C1618.76213,160.083325 1617.90206,159.510063 1616.89864,159.080117 C1608.29789,144.318629 1599.69715,129.413825 1591.0964,114.652337 C1583.49907,113.649129 1575.7584,112.789236 1568.16108,111.786028 C1567.73104,118.521853 1567.15766,125.114362 1566.72762,131.850187 C1597.83365,137.296173 1609.15797,194.479026 1608.29789,237.903598 C1615.89522,238.333545 1623.63589,238.906806 1631.23321,239.336753 L1631.23321,239.336753 L1631.23321,183.443739 C1634.42409,173.150825 1642.21705,164.551728 1650.20472,155.862631 L1651.34666,154.620526 L1651.34666,154.620526 L1652.4884,153.376042 C1662.75454,142.161502 1672.64867,130.517354 1672.80348,114.652337 C1672.37344,113.649129 1671.80006,112.789236 1671.37002,111.786028 Z M2194.58203,116.085491 C2190.28166,110.066243 2118.60878,109.779612 2107.14112,113.219182 L2107.14112,113.219182 L2107.14112,131.850187 L2107.14112,131.850187 L2118.60878,131.850187 C2118.51859,142.536043 2118.11626,154.115552 2117.81244,165.874685 L2117.749,168.396989 C2117.1429,193.221556 2117.10446,218.617208 2121.4757,237.903598 C2130.26566,238.385138 2142.69683,238.91724 2155.37075,238.969005 L2157.1826,238.973075 C2174.10171,238.979496 2191.16467,238.087042 2200.31586,235.03729 L2200.31586,235.03729 L2200.31586,206.374206 C2193.14858,206.804152 2185.98129,207.377414 2178.814,207.80736 C2178.54034,213.963409 2177.87485,215.418475 2176.19416,218.778864 L2175.94709,219.272594 C2164.90946,218.842648 2154.01518,218.269386 2142.97756,217.83944 C2143.4076,206.804152 2143.98098,195.91218 2144.41102,184.876893 L2144.41102,184.876893 L2183.11437,184.876893 L2183.11437,184.876893 L2183.11437,164.812734 L2183.11437,164.812734 L2142.97756,164.812734 C2143.4076,153.777446 2143.98098,142.885475 2144.41102,131.850187 C2155.3053,131.420241 2167.77638,131.420241 2174.51363,134.716496 C2174.94366,138.01275 2175.51705,141.45232 2175.94709,144.748575 C2182.68434,144.318629 2189.27824,143.745367 2196.01549,143.315421 C2195.58545,134.286549 2195.01207,125.114362 2194.58203,116.085491 Z M342.554863,121.818108 C319.476197,108.059827 254.253878,104.476942 266.581613,153.3475 C270.537955,168.911555 284.815193,176.994545 299.257564,184.46873 L300.701976,185.214374 C301.183379,185.462415 301.66459,185.710035 302.145231,185.957486 L303.585074,186.699594 C311.730251,190.904911 319.602341,195.135411 325.353373,200.641589 C325.210027,211.390246 322.773149,214.543185 315.31917,217.83944 C298.40437,222.855479 287.223401,212.106823 278.049273,204.941052 C277.583399,205.29934 277.108567,205.657629 276.629254,206.015917 L273.735462,208.165649 L273.735462,208.165649 L272.315443,209.240514 C269.878565,213.969923 267.585033,218.842648 265.148155,223.572056 C288.943551,239.480068 361.90654,255.531395 349.722151,196.342126 C343.701629,167.249096 286.506673,162.519687 292.383849,140.449112 C293.100577,139.840022 293.817306,139.239888 294.534035,138.644234 L298.834408,135.08822 L298.834408,135.08822 L300.984594,133.283341 C313.742366,128.983879 325.210027,133.569972 325.353373,147.614883 C332.52066,147.184937 339.687948,146.611675 346.855236,146.181729 C346.998582,134.859811 344.991741,129.413825 342.554863,121.818108 Z M2087.07272,128.983879 C2076.32178,111.642713 2025.57739,104.046995 1995.33143,113.219182 L1995.33143,113.219182 L1995.33143,131.850187 C1999.20177,132.280133 2002.92876,132.853395 2006.79909,133.283341 L2006.79909,133.283341 L2006.79909,237.903598 C2014.9698,237.473652 2022.99716,236.900391 2031.16787,236.470444 L2031.16787,236.470444 L2031.16787,192.042664 C2040.05531,191.756033 2047.50929,192.329295 2052.66973,194.908972 C2056.11003,205.800944 2066.28758,229.591304 2075.60506,235.03729 C2079.76208,239.050122 2091.51643,238.333545 2099.97383,237.903598 L2099.97383,237.903598 L2099.97383,219.272594 C2086.21264,215.833024 2072.45145,190.466194 2075.60506,180.57743 C2089.65294,174.271552 2097.82365,146.181729 2087.07272,128.983879 Z M645.014409,111.786028 C636.843701,112.789236 628.816338,113.649129 620.64563,114.652337 C611.041465,129.987087 601.580645,145.178521 591.976479,160.513271 L591.976479,160.513271 L590.543022,160.513271 C581.512239,145.178521 572.338111,129.987087 563.307328,114.652337 C555.13662,113.649129 547.109257,112.789236 538.938549,111.786028 L538.938549,111.786028 L538.938549,131.850187 C570.474616,137.439489 581.368893,194.04908 580.508819,237.903598 L580.508819,237.903598 L603.44414,237.903598 L603.44414,237.903598 L603.44414,183.443739 C607.601167,170.402035 630.10645,134.716496 645.014409,131.850187 L645.014409,131.850187 Z M1447.75064,114.652337 C1441.87347,110.639505 1425.53205,110.78282 1417.64803,113.219182 L1417.64803,113.219182 L1417.64803,131.850187 C1421.51837,132.280133 1425.24536,132.853395 1429.1157,133.283341 L1429.1157,133.283341 L1429.1157,237.903598 L1429.1157,237.903598 L1453.48447,237.903598 L1453.48447,237.903598 L1453.48447,183.443739 C1458.78827,183.873685 1463.94871,184.446947 1469.25251,184.876893 C1478.85667,202.50469 1488.31749,220.275802 1497.92166,237.903598 C1506.5224,237.473652 1515.12315,236.900391 1523.72389,236.470444 C1523.29386,230.307881 1522.72047,224.002003 1522.29044,217.83944 L1522.29044,217.83944 L1513.68969,217.83944 C1505.51898,206.374206 1485.88061,175.418075 1493.62129,167.679042 C1503.22545,149.477984 1512.68627,131.420241 1522.29044,113.219182 L1522.29044,113.219182 L1522.29044,111.786028 C1512.11289,111.356082 1501.21861,111.642713 1495.05474,114.652337 C1486.02396,130.846979 1476.84983,147.184937 1467.81905,163.37958 L1467.81905,163.37958 L1453.48447,163.37958 C1454.2012,147.758199 1456.78143,121.388161 1447.75064,114.652337 Z M1399.5522,111.516678 C1388.4136,111.019043 1377.80316,111.314136 1373.21085,117.518645 C1364.32341,133.713288 1372.06408,174.844813 1370.34394,192.042664 L1370.34394,192.042664 L1368.91048,192.042664 C1368.48044,191.039456 1367.90706,190.179563 1367.47702,189.176355 C1349.27211,163.37958 1331.21054,137.582804 1313.00563,111.786028 L1313.00563,111.786028 L1292.93723,111.786028 C1292.50719,147.184937 1291.93381,182.440531 1291.50377,217.83944 C1288.20682,218.269386 1284.76652,218.842648 1281.46957,219.272594 L1281.46957,219.272594 L1281.46957,237.903598 C1292.50719,237.473652 1303.40147,236.900391 1314.43909,236.470444 C1315.44251,210.243722 1316.30259,183.873685 1317.30601,157.646963 C1318.30943,158.076909 1319.1695,158.650171 1320.17292,159.080117 C1337.37441,185.306839 1354.5759,211.676876 1371.77739,237.903598 L1371.77739,237.903598 L1394.71271,237.903598 C1394.28268,208.093991 1386.8287,155.353916 1397.57963,131.850187 L1397.57963,131.850187 L1406.18037,131.850187 C1405.75034,125.114362 1405.17695,118.521853 1404.74692,111.786028 C1403.33094,111.707379 1401.90978,111.628731 1400.49463,111.560504 Z M1073.61822,114.652337 C1052.11636,106.626673 981.303553,106.769988 964.675445,117.518645 C965.105483,126.547517 965.678866,135.719703 966.108903,144.748575 C974.709648,145.035206 981.303553,144.318629 986.177309,141.882267 C985.603926,136.006334 985.747271,136.436281 989.044224,131.850187 L989.044224,131.850187 L1007.67917,131.850187 L1007.67917,131.850187 L1007.67917,237.903598 L1007.67917,237.903598 L1032.04795,237.903598 C1032.47799,202.50469 1033.05137,167.249096 1033.48141,131.850187 C1040.21866,132.280133 1046.81256,132.853395 1053.54981,133.283341 C1053.97985,137.152858 1054.55323,140.879059 1054.98327,144.748575 C1061.72052,144.318629 1068.31443,143.745367 1075.05168,143.315421 C1074.62164,133.713288 1074.04826,124.25447 1073.61822,114.652337 Z M713.820372,131.850187 C765.281498,132.99671 771.158674,205.227683 728.154948,217.83944 C676.980513,232.887559 652.75508,157.217017 713.820372,131.850187 Z M421.395029,131.850187 C478.589986,131.993503 480.310135,211.24693 429.995775,219.272594 C396.739559,224.575264 373.804238,179.287591 391.29242,151.914346 C398.173017,141.022374 409.067294,137.582804 421.395029,131.850187 Z M1740.17599,131.850187 C1797.51429,131.850187 1797.80098,212.106823 1747.34327,219.272594 C1714.37375,224.002003 1691.72512,178.71433 1710.07338,150.481192 C1716.95397,139.875851 1727.84825,137.439489 1740.17599,131.850187 Z M2031.16787,131.850187 C2040.77204,132.853395 2050.23286,133.713288 2059.83702,134.716496 C2066.28758,143.888682 2067.72104,151.914346 2064.1374,164.812734 C2055.53665,170.688666 2047.07925,172.408451 2031.16787,171.978505 L2031.16787,131.850187 L2031.16787,131.850187 Z M1982.43031,110.352874 L1960.92845,110.352874 C1958.49157,123.251262 1956.19804,136.14965 1953.76116,149.048038 L1953.76116,149.048038 L1969.5292,149.048038 C1973.82957,136.14965 1978.12994,123.251262 1982.43031,110.352874 L1982.43031,110.352874 Z" id="Shape"></path>
        </g>
    </g>
</svg>