<?xml version="1.0" encoding="UTF-8"?>
<svg width="734px" height="414px" viewBox="0 0 734 414" version="1.1" xmlns="http://www.w3.org/2000/svg" xmlns:xlink="http://www.w3.org/1999/xlink">
    <title>show-whelans</title>
    <g id="Page-1" stroke="none" stroke-width="1" fill="none" fill-rule="evenodd">
        <g id="college" transform="translate(16.000000, 20.000000)" fill="#000000" fill-rule="nonzero">
            <path d="M698.481093,207.679261 C696.540909,204.961962 694.406706,202.438756 692.466522,199.721457 C689.944283,194.28686 692.078485,187.29952 689.168209,182.447201 C681.795509,170.025264 661.423575,171.578006 646.290138,176.818511 C645.902101,167.696151 642.021732,160.126533 636.007161,156.244677 C636.007161,151.974636 636.007161,147.510503 636.007161,143.240462 C642.603788,122.666629 683.929712,117.620217 670.930477,85.9830957 C667.826182,78.4134778 658.707317,76.8607357 655.603022,71.620231 C653.856856,66.1856335 650.364524,61.7214999 649.588451,56.6750879 C655.214985,48.1350062 666.662072,44.2531508 670.930477,35.3248836 C677.333085,21.7383899 669.572348,6.21096854 659.289372,2.3291132 C653.856856,0.194092767 647.648267,1.1645566 642.021732,-2.84217094e-14 C628.246424,5.82278301 615.441208,2.71729874 602.441974,5.62869024 C595.457311,7.37552514 588.472648,9.12236004 581.487984,10.6751022 C580.129855,11.8396588 578.771726,12.8101226 577.219579,13.9746792 C572.369119,13.1983081 567.518658,12.4219371 562.862216,11.645566 C545.982613,13.5864937 524.834605,16.1096997 512.611444,24.6497814 C498.836136,19.6033695 479.240276,22.1265754 463.718802,25.6202452 C459.450397,26.7848018 454.987973,28.1434512 450.719567,29.3080078 C434.228002,27.9493584 409.587662,33.5780487 392.126004,37.6539968 C385.723396,39.2067389 381.066954,36.1012546 374.470327,37.6539968 C362.829222,40.3712955 353.516338,42.5063159 341.487196,42.3122232 C333.920477,42.1181304 325.383666,48.329099 319.563114,50.2700266 C312.966487,52.4050471 305.399769,49.10547 298.997161,48.329099 C292.98259,49.4936556 286.968019,50.8523049 280.759429,52.0168615 C268.924305,55.8987169 264.267863,65.0210769 255.537034,70.6497671 C253.59685,71.8143237 221.195773,82.2953332 221.001755,82.2953332 C213.435037,63.0801492 189.764789,62.6919637 169.392855,66.9620046 C155.035491,69.8733961 145.33457,70.0674888 135.827667,76.6666429 C116.425825,71.8143237 92.9495961,73.9493442 80.9204539,87.3417451 C61.5186116,77.6371067 -5.80578108,82.1012404 0.402808446,114.32064 C1.76093741,121.113887 5.83532428,124.607556 7.77550851,129.265783 C7.77550851,131.788989 7.77550851,134.312195 7.77550851,136.641308 C7.77550851,153.527379 -4.2536337,159.93244 7.38747166,175.265768 C9.52167431,178.17716 11.655877,180.894459 15.7302638,181.864923 C11.2678401,188.464077 6.22336113,195.257323 3.70112163,203.797405 C-8.522039,243.198237 14.5661533,273.476709 44.250972,282.01679 C51.623672,284.151811 58.02628,286.869109 67.1451458,285.316367 C91.0094118,281.240419 107.500978,272.506245 121.664323,258.725658 C130.783188,263.77207 138.931962,267.848018 151.54316,270.75941 C144.558497,302.590624 147.468773,309.772056 172.109113,324.329013 C169.004818,333.257281 165.512486,346.455589 169.392855,356.548413 C174.82537,370.717185 197.913563,375.375411 214.017092,369.552628 C219.449608,367.6117 222.747921,362.759381 226.046234,358.877526 C235.553137,363.535752 248.358353,364.118031 258.641329,358.877526 C261.357587,356.936598 263.879826,355.189763 266.596084,353.248836 C271.640563,354.025207 276.879061,354.801578 281.92354,355.577949 C294.922774,354.607485 306.951916,348.396517 315.488727,342.573734 C324.99563,347.037867 336.636735,346.843774 347.11373,342.573734 C350.218025,341.409177 354.098393,336.750951 358.366798,337.527322 C375.828456,340.24462 398.916649,334.810023 413.274012,326.269941 C425.109136,328.210869 432.869873,328.599054 442.182757,322.582179 C455.958065,325.687663 467.793189,317.729859 479.434294,315.206653 C483.702699,314.23619 491.075399,316.177117 497.672026,315.206653 C512.417426,335.198208 545.788595,327.62859 562.474179,314.818468 C567.518658,310.936613 569.070805,303.949273 573.727247,299.873325 C578.189671,295.797377 585.174334,295.021006 589.636758,290.945058 C607.680471,298.902861 618.157466,290.362779 632.902866,285.898646 C636.589216,284.734089 645.514064,288.033666 652.498727,286.286831 C675.974956,280.852234 691.690448,264.742534 698.093056,242.421866 C700.615296,232.134949 702.943517,218.16027 698.481093,207.679261 Z M671.900569,192.734118 C671.900569,195.645509 671.900569,198.556901 671.900569,201.662385 C624.366056,210.202467 576.831542,218.742548 529.491047,227.28263 C529.297029,227.088537 529.10301,226.894444 529.10301,226.894444 C529.297029,224.177146 529.491047,221.265754 529.491047,218.548455 C576.831542,209.814281 624.366056,201.274199 671.900569,192.734118 Z M480.016349,204.961962 C468.181226,206.902889 448.197328,213.696136 440.436591,205.932426 C440.63061,204.379684 440.824628,202.826941 440.824628,201.274199 C442.958831,197.392344 448.00331,197.392344 449.749475,192.92821 C452.659752,185.1645 453.047789,138.776328 449.749475,132.759453 C447.033217,131.983081 443.928923,131.012618 442.764812,128.489412 C442.182757,126.354391 442.764812,124.995742 443.152849,122.860721 C458.092268,112.379712 482.732607,118.396588 500.000247,111.215155 C536.669729,110.632877 553.549332,138.582236 538.609913,173.130748 C528.132918,197.974622 510.477242,199.91555 480.016349,204.961962 Z M486.03092,226.700352 C484.86681,239.122289 466.629078,239.704567 454.793954,240.675031 C454.793954,240.286845 454.793954,239.704567 454.793954,239.316382 C455.570028,236.599083 456.346102,234.075877 457.122175,231.358578 C465.658986,229.805836 474.195797,228.253094 482.732607,226.700352 C483.896718,226.700352 485.060828,226.700352 486.03092,226.700352 Z M650.558543,92.1940643 C651.140598,93.1645281 651.722653,94.1349919 652.498727,94.911363 C652.692746,96.0759196 652.886764,97.434569 652.886764,98.5991256 C649.976488,104.033723 644.543972,103.451445 639.88753,106.945115 C628.634461,115.291104 605.35225,146.734132 618.545503,169.831171 C622.231853,170.607542 628.246424,173.130748 625.530166,178.759438 C620.291669,190.016819 584.010224,194.675045 571.981082,187.105427 C571.593045,185.746778 571.399026,184.388129 571.01099,182.835386 C573.727247,177.400789 580.129855,176.818511 581.682003,170.801635 C587.890592,147.704596 578.189671,138.388143 568.100713,128.489412 C565.578474,125.772113 563.056234,123.248907 560.728013,120.531608 C556.653626,118.008402 551.609147,117.620217 548.116816,114.514732 C548.116816,113.350176 548.116816,112.379712 548.116816,111.215155 C553.937368,100.151868 585.950408,96.0759196 601.6659,99.9577749 C602.247956,100.734146 602.830011,101.510517 603.606085,102.286888 C603.412066,107.3333 599.725716,109.274228 600.307771,112.573805 C601.083845,116.843846 603.994121,120.919794 608.650564,121.502072 C612.530932,119.367052 616.023264,115.291104 616.605319,109.856506 C614.471116,107.527393 612.918969,105.974651 612.918969,101.510517 C617.963448,91.8058787 628.634461,95.4936413 639.499493,91.2236004 C642.991824,91.611786 646.678174,91.8058787 650.558543,92.1940643 Z M588.084611,30.2784716 C597.009458,27.3670801 610.202711,23.291132 621.067743,26.5907091 C621.261761,26.9788946 621.455779,27.1729874 621.455779,27.5611729 C620.873724,29.8902861 620.291669,32.2193993 619.515595,34.5485125 C619.903632,37.459904 622.037835,40.3712955 625.142129,39.2067389 C627.664369,38.0421823 629.216516,35.7130691 629.410535,32.2193993 C628.246424,30.6666572 627.082314,29.5021006 627.470351,27.5611729 C629.216516,20.9620188 636.783235,22.9029465 642.797806,20.5738333 C648.036303,19.991555 654.63293,20.3797405 652.498727,25.6202452 C650.558543,28.9198223 647.066211,28.5316367 644.155935,30.6666572 C636.783235,36.2953474 622.813908,56.2869024 631.156701,71.2320454 C633.872959,71.8143237 634.260995,72.396602 635.813143,73.9493442 C635.619124,74.7257152 635.425106,75.5020863 635.425106,76.2784574 C631.932774,83.6539825 609.426637,86.9535596 600.889827,81.9071476 C600.695808,80.742591 600.50179,79.7721272 600.50179,78.6075706 C619.709614,58.8101084 600.889827,44.6413364 586.144427,35.7130691 C586.144427,32.4134921 586.726482,32.0253065 588.084611,30.2784716 Z M525.222642,43.6708725 C525.41666,40.9535738 525.998715,40.1772027 527.162826,38.6244606 C537.057766,35.5189763 552.967276,36.4894402 563.056234,32.0253065 C586.532463,31.2489355 582.264058,48.5231917 572.757155,59.0042011 C572.757155,59.3923867 572.757155,59.974665 572.757155,60.3628505 C582.07004,62.3037782 583.040132,68.3206539 584.786298,77.6371067 C586.726482,78.4134778 588.860684,78.8016633 589.830777,80.3544055 C589.636758,81.7130549 589.44274,83.0717042 589.44274,84.6244464 C581.876021,90.0590438 566.548566,93.9408992 561.892124,82.6835187 C559.563903,77.2489212 559.369884,72.0084165 556.265589,67.7383756 C554.713442,67.7383756 553.161295,67.7383756 551.609147,67.7383756 C550.251018,71.620231 550.639055,77.443014 551.609147,81.7130549 C553.161295,83.0717042 554.713442,84.4303536 556.265589,85.9830957 C556.265589,86.565374 556.265589,87.1476523 556.265589,87.9240234 C551.609147,94.1349919 537.251784,96.6581979 526.968808,93.9408992 C525.804697,92.388157 525.41666,91.9999715 525.028623,89.2826728 C526.968808,87.3417451 528.714973,85.2067247 530.655158,83.265797 C530.655158,71.620231 530.655158,59.974665 530.655158,48.329099 C528.908992,46.7763568 527.162826,45.2236147 525.222642,43.6708725 Z M458.092268,48.9113773 C467.211133,44.4472436 482.732607,46.3881713 492.627547,41.9240376 C518.237979,40.759481 514.745647,57.0632735 504.268652,68.9029322 C506.402855,71.4261382 510.67126,71.4261382 512.611444,73.9493442 C515.133684,77.2489212 514.163592,84.2362608 516.87985,87.5358379 C518.626015,88.3122089 520.372181,89.08858 521.924329,89.8649511 C521.73031,91.0295077 521.536292,91.9999715 521.536292,93.1645281 C519.596108,97.2404762 515.715739,98.0168473 510.865279,99.1814039 C491.851473,103.83963 495.731842,85.789003 487.583068,77.2489212 C486.418957,77.443014 485.448865,77.6371067 484.284755,77.6371067 C483.896718,78.0252923 483.314663,78.219385 482.926626,78.6075706 C482.538589,87.7299306 483.120644,91.2236004 487.971105,94.911363 C487.777086,96.0759196 487.583068,97.0463834 487.583068,98.21094 C484.284755,105.19828 463.718802,106.556929 457.316194,101.898703 C457.316194,100.734146 457.316194,99.3754966 457.316194,98.21094 C464.300857,93.5527136 468.763281,57.8396445 457.316194,54.3459747 C456.928157,51.628676 457.316194,51.2404905 458.092268,48.9113773 Z M397.170483,58.2278301 C402.020943,51.628676 434.616038,53.3755109 443.346867,47.9409134 C444.122941,48.1350062 444.899015,48.329099 445.675089,48.329099 C449.943494,50.2700266 451.107604,56.8691807 449.943494,62.6919637 C448.973402,63.4683348 448.00331,64.2447058 447.227236,65.0210769 C446.257144,65.2151697 445.287052,65.4092624 444.510978,65.4092624 C436.750241,59.974665 435.780149,57.8396445 423.556988,61.1392216 C422.974933,61.9155926 422.392878,62.6919637 421.616804,63.4683348 C421.422786,67.7383756 421.228767,73.3670659 422.586896,76.0843646 C426.079228,76.0843646 427.631375,75.5020863 429.571559,74.1434369 C430.153615,70.8438599 430.929688,67.9324684 432.287817,65.797448 C435.198094,65.797448 435.780149,66.1856335 437.332296,67.1560973 C439.854536,75.1139008 439.466499,84.8185391 435.392112,90.8354149 C434.228002,91.0295077 433.257909,91.2236004 432.093799,91.2236004 C431.705762,90.8354149 431.123707,90.6413221 430.73567,90.2531366 C430.153615,88.3122089 429.571559,86.1771885 428.795486,84.2362608 C427.631375,84.0421681 426.273246,83.8480753 425.109136,83.8480753 C424.139044,84.8185391 423.168951,85.789003 422.392878,86.565374 C421.422786,89.8649511 421.616804,97.0463834 423.36297,99.1814039 C425.303154,101.316424 428.019412,100.151868 430.73567,99.5695894 C442.376775,97.2404762 442.376775,92.388157 448.973402,85.5949102 C451.495641,85.789003 451.68966,85.9830957 453.241807,86.9535596 C454.987973,93.3586209 452.077696,103.83963 447.227236,106.556929 C445.48107,107.721486 400.856833,112.767898 397.364501,112.185619 C397.170483,110.82697 396.976464,109.468321 396.976464,107.915578 C405.707293,101.898703 405.125238,78.0252923 402.020943,65.0210769 C400.080759,64.0506131 398.334593,63.0801492 396.394409,62.3037782 C396.200391,60.5569433 396.200391,59.1982939 397.170483,58.2278301 Z M366.515572,221.265754 C359.33689,222.624404 346.725693,225.729888 345.949619,216.995713 C348.859896,213.890229 351.770172,210.784745 354.874467,207.679261 C358.366798,199.333272 358.366798,153.915564 353.904375,147.510503 C351.188117,146.345946 348.665877,144.987297 345.949619,143.82274 C345.755601,142.269998 345.561582,140.717256 345.561582,139.164514 C352.546246,126.160298 404.543183,130.236247 419.094565,120.919794 C420.452694,121.113887 421.810823,121.307979 423.36297,121.307979 C428.407449,125.772113 435.392112,142.852276 425.303154,147.31641 C422.974933,148.480967 421.228767,147.898688 418.706528,147.31641 C414.438122,138.970421 392.126004,134.118102 386.49947,143.628647 C383.97723,146.540039 383.589193,159.544254 385.529377,163.620202 C385.917414,164.008388 386.111433,164.590666 386.49947,164.978852 C391.737967,165.172945 394.454225,164.202481 397.170483,162.261553 C398.528612,156.826956 399.304685,151.974636 402.797017,148.675059 C403.961128,148.869152 405.319257,149.063245 406.483367,149.063245 C416.378307,153.527379 413.662049,196.033695 399.886741,187.687706 C399.304685,184.388129 398.72263,180.118088 396.200391,178.371253 C394.454225,177.206696 391.155912,177.400789 388.827691,177.983067 C384.559285,181.088551 383.589193,199.527364 388.827691,202.632849 C399.110667,206.902889 416.184288,198.168715 420.064657,191.957746 C422.780915,187.687706 423.945025,178.17716 431.705762,180.700366 C440.048554,184.776314 432.869873,202.826941 429.765578,207.679261 C424.333062,216.995713 380.096862,218.548455 366.515572,221.265754 Z M415.408215,239.316382 C414.632141,242.421866 413.856067,245.52735 413.079993,248.632834 C369.23183,256.590638 325.189648,264.548441 281.341484,272.312152 C281.341484,270.953503 281.341484,269.594853 281.341484,268.042111 C281.729521,266.101183 281.729521,264.548441 283.281669,263.383885 C326.935814,255.231988 370.589959,247.274185 414.050086,239.122289 C414.438122,239.316382 414.826159,239.316382 415.408215,239.316382 Z M325.965722,116.843846 C332.562348,111.991526 336.05468,90.4472294 331.980293,77.6371067 C331.010201,74.7257152 324.99563,75.5020863 326.353759,70.6497671 C328.487961,63.0801492 350.218025,59.7805722 357.590725,64.6328914 C357.396706,65.797448 357.202688,67.1560973 357.202688,68.3206539 C355.262504,72.0084165 349.247932,75.6961791 352.546246,83.265797 C352.934282,83.6539825 353.128301,84.2362608 353.516338,84.6244464 C357.978761,84.2362608 363.799314,83.6539825 367.097627,81.9071476 C366.70959,78.219385 366.515572,74.5316225 366.127535,70.6497671 C363.799314,69.6793033 362.635204,69.097025 361.471093,66.9620046 C362.053148,65.4092624 362.635204,63.8565203 363.411277,62.3037782 C368.455756,60.3628505 376.410512,59.7805722 382.425083,57.2573662 C386.49947,57.0632735 390.18582,57.6455518 391.737967,59.974665 C392.126004,60.9451288 392.320022,61.9155926 392.708059,62.6919637 C391.34993,65.0210769 388.633672,65.797448 387.66358,67.7383756 C385.335359,71.8143237 386.111433,98.4050328 387.275543,104.033723 C389.215728,106.168743 390.961893,106.362836 392.320022,109.080135 C389.215728,116.45566 371.172014,121.307979 362.053148,116.067475 C361.85913,115.679289 361.665111,115.485196 361.665111,115.097011 C362.053148,107.721486 370.783977,103.063259 366.321554,93.1645281 C366.127535,93.1645281 365.933517,93.1645281 365.933517,93.1645281 C360.889038,93.5527136 355.65054,94.5231775 352.352227,96.4641051 C352.158209,106.556929 354.292411,107.915578 357.396706,113.156083 C357.202688,113.932454 357.008669,114.708825 357.008669,115.485196 C352.158209,121.890258 334.308514,125.57802 326.353759,120.143423 C325.965722,119.367052 325.965722,118.008402 325.965722,116.843846 Z M338.964956,140.134978 C340.517103,147.31641 333.53244,148.675059 331.980293,154.109657 C331.592256,159.156069 331.010201,164.008388 330.622164,169.0548 C329.458053,177.206696 329.84609,204.379684 332.562348,210.008374 C334.502532,214.278415 339.158974,212.725672 339.935048,218.936641 C333.338422,228.641279 311.41434,233.105413 296.086885,229.223558 C295.116793,227.670816 292.98259,226.506259 293.758664,223.206682 C295.698848,221.265754 297.445014,219.130734 299.385198,217.189806 C302.683511,211.949301 302.489493,196.227787 299.773235,191.181375 C288.714185,194.092767 284.833816,237.763639 272.804674,229.805836 C270.282434,223.206682 259.80544,199.721457 255.148997,195.839602 C253.014795,196.227787 253.790868,195.839602 252.820776,197.198251 C250.298537,201.468292 249.9105,221.265754 253.208813,224.759424 C255.148997,225.729888 257.2832,226.700352 259.223384,227.476723 C259.417403,228.641279 259.611421,229.611743 259.611421,230.7763 C255.731053,239.704567 234.777063,244.168701 225.076142,238.151825 C224.882123,237.763639 224.688105,237.569547 224.688105,237.181361 C224.882123,235.822712 225.076142,234.464062 225.076142,232.91132 C226.822308,229.611743 231.090713,229.41765 232.448842,225.923981 C236.32921,216.413435 237.105284,173.518934 232.448842,165.367037 C229.150529,164.590666 226.822308,163.037924 225.076142,160.708811 C225.27016,159.350162 225.464179,157.991512 225.464179,156.43877 C229.150529,147.704596 249.134426,144.016833 260.775532,146.734132 C268.148232,157.021048 272.998692,172.160284 282.699613,180.31218 C283.863724,179.923995 284.833816,179.341717 285.997927,178.953531 C289.490258,170.219357 299.773235,144.987297 306.563879,140.32907 C311.41434,137.029493 318.204985,137.999957 324.219556,135.670844 C331.204219,135.088566 336.830753,135.670844 338.964956,140.134978 Z M275.132895,78.6075706 C280.759429,74.1434369 286.774,72.7847876 293.758664,69.2911178 C298.997161,69.097025 315.682745,70.0674888 317.040874,71.2320454 C326.935814,76.0843646 320.921243,90.2531366 314.324616,93.5527136 C308.116027,92.388157 292.594553,68.7088395 285.415871,88.5063017 C280.371392,102.286888 291.624461,116.261567 305.011732,112.767898 C310.832285,111.215155 312.578451,106.362836 318.593022,105.392372 C318.981058,105.780558 319.563114,106.362836 319.951151,106.751022 C324.99563,126.93667 287.550074,135.088566 273.386729,124.995742 C258.447311,114.126547 262.715716,88.5063017 275.132895,78.6075706 Z M254.178905,91.2236004 C256.895163,91.611786 256.895163,91.9999715 257.865255,93.9408992 C257.477219,94.7172702 257.2832,95.4936413 256.895163,96.2700124 C253.402832,95.2995485 251.850684,95.4936413 248.940408,97.2404762 C249.328445,98.4050328 249.522463,99.3754966 249.9105,100.540053 C250.104518,100.734146 250.298537,100.928239 250.298537,100.928239 C250.686574,100.734146 251.268629,100.540053 251.656666,100.540053 C252.044703,99.3754966 252.626758,98.0168473 253.014795,96.8522907 C253.59685,97.2404762 254.178905,97.8227545 254.954979,98.21094 C255.148997,100.151868 255.343016,102.286888 255.343016,104.227816 C254.760961,104.421909 254.178905,104.616001 253.402832,104.616001 C253.014795,104.033723 252.43274,103.451445 252.044703,102.675074 C251.656666,102.869166 251.462647,103.063259 251.074611,103.063259 C250.880592,103.451445 250.686574,103.645538 250.686574,104.033723 C251.074611,105.19828 251.268629,106.168743 251.656666,107.3333 C252.044703,107.527393 252.238721,107.721486 252.626758,107.721486 C256.11909,105.974651 258.641329,101.510517 260.96955,102.092795 C260.96955,102.286888 260.96955,102.480981 260.96955,102.480981 C260.775532,104.227816 260.581513,105.974651 260.581513,107.527393 C256.313108,109.274228 247.776297,113.738361 244.283966,112.185619 C247.194242,107.527393 244.283966,100.34596 240.597616,97.8227545 C243.895929,94.5231775 250.686574,94.5231775 254.178905,91.2236004 Z M220.225681,105.586465 C222.747921,103.83963 225.658197,101.316424 229.538566,102.286888 C229.150529,105.004187 228.762492,105.586465 229.150529,108.303764 C229.344547,108.303764 229.538566,108.303764 229.538566,108.303764 C230.702676,107.915578 232.060805,107.3333 233.224916,106.945115 C232.836879,103.83963 232.060805,104.033723 230.508658,102.286888 C232.060805,99.7636822 234.000989,99.5695894 236.523229,98.0168473 C237.687339,98.0168473 238.657432,98.0168473 239.821542,98.0168473 C240.01556,98.4050328 240.209579,98.9873111 240.209579,99.3754966 C237.687339,103.451445 240.597616,109.856506 243.507892,112.96199 C241.761726,115.485196 236.717247,118.784773 233.806971,115.679289 C234.777063,113.932454 235.1651,111.797434 233.806971,110.050599 C232.64286,110.632877 231.284731,111.215155 230.120621,111.991526 C231.090713,113.932454 232.060805,115.679289 232.836879,117.620217 C230.120621,119.561144 228.568474,120.919794 223.523995,120.919794 C223.523995,120.531608 223.523995,119.94933 223.523995,119.561144 C226.046234,114.32064 222.165866,109.468321 220.225681,105.974651 C220.225681,105.974651 220.225681,105.780558 220.225681,105.586465 Z M215.569239,106.168743 C219.255589,106.556929 220.4197,108.497857 219.837645,111.797434 C219.449608,111.991526 218.867552,112.185619 218.479516,112.185619 C216.73335,112.573805 216.151294,111.603341 214.21111,110.82697 C214.21111,111.603341 214.21111,112.379712 214.21111,113.156083 C215.569239,117.620217 215.957276,119.367052 218.867552,122.08435 C218.479516,122.860721 218.285497,123.637092 217.89746,124.413464 C214.405129,125.57802 212.658963,126.93667 208.196539,127.130762 C208.002521,126.742577 207.808502,126.160298 207.808502,125.772113 C210.136723,122.472536 208.972613,118.784773 207.808502,114.126547 C207.614484,113.932454 207.420465,113.738361 207.420465,113.738361 C207.032429,113.932454 206.83841,114.126547 206.450373,114.126547 C205.868318,116.45566 205.286263,117.037938 203.734115,118.396588 C203.15206,118.008402 202.570005,117.426124 201.793931,117.037938 C201.98795,114.126547 202.570005,112.767898 203.734115,111.021063 C207.614484,110.050599 212.658963,108.497857 215.569239,106.168743 Z M184.914328,83.8480753 C201.599913,83.265797 211.882889,97.0463834 202.570005,111.409248 C197.137489,119.94933 187.824605,121.113887 175.601444,123.054814 C175.989481,126.548484 176.183499,130.236247 176.571536,133.729916 C178.51172,135.088566 180.645923,136.05903 182.198071,137.999957 C181.616015,139.358607 181.03396,140.717256 180.257886,142.269998 C174.243315,144.793204 155.035491,152.362822 150.379049,143.240462 C151.931197,140.32907 155.617547,139.164514 156.39362,136.253122 C156.199602,124.025278 156.005583,111.797434 156.005583,99.3754966 C153.871381,98.4050328 151.737178,97.434569 149.408957,96.6581979 C149.214939,95.4936413 149.02092,94.5231775 149.02092,93.3586209 C156.005583,85.4008174 174.631352,88.3122089 184.914328,83.8480753 Z M87.9051171,108.497857 C95.0837987,98.5991256 103.620609,98.4050328 116.231807,93.5527136 C165.512486,92.9704353 141.842239,169.248893 97.6060382,153.139193 C81.5025091,147.31641 77.0400854,123.443 87.9051171,108.497857 Z M22.7149271,108.886042 C28.7294982,104.033723 47.937322,105.392372 55.6980589,101.898703 C72.7716801,101.316424 83.4426934,114.902918 73.9357906,129.459876 C68.115238,138.582236 59.1903905,137.999957 46.9672299,141.105442 C47.3552667,144.599111 47.5492852,147.898688 47.937322,151.392358 C49.4894694,153.139193 51.8176905,153.527379 52.981801,155.662399 C53.1758194,156.244677 53.3698378,156.826956 53.3698378,157.603327 C50.0715247,161.873368 28.3414613,170.995728 22.7149271,162.649739 C22.5209086,161.485182 22.3268902,160.514718 22.3268902,159.350162 C24.2670744,157.603327 26.0132402,155.856492 27.9534245,154.30375 C29.6995903,148.869152 28.3414613,119.561144 26.5952955,116.649753 C23.8790376,116.261567 22.1328718,115.873382 20.9687613,113.932454 C20.7747428,113.156083 20.5807244,112.379712 20.5807244,111.603341 C21.1627797,110.438784 21.9388534,109.662413 22.7149271,108.886042 Z M80.1443802,239.316382 C91.3974487,237.569547 97.4120198,232.91132 103.814628,226.700352 C104.590701,226.894444 105.366775,227.088537 106.142849,227.088537 C108.083033,228.059001 108.665088,228.641279 109.441162,230.7763 C114.291623,242.810051 101.292388,250.767855 94.5017434,254.067432 C73.9357906,264.160256 54.33993,271.147595 33.5799587,254.455617 C5.64130586,232.329042 27.3713692,191.957746 47.937322,178.953531 C54.7279668,174.68349 62.1006669,174.101212 70.2494406,170.607542 C79.9503617,170.413449 86.1589513,173.130748 93.1436145,173.907119 C95.0837987,173.324841 96.8299645,172.742563 98.7701487,171.966191 C108.083033,170.025264 110.411254,180.700366 111.769383,187.29952 C112.933494,192.92821 111.963401,199.333272 109.441162,202.632849 C95.4718356,221.65394 87.3230618,185.940871 67.9212195,190.016819 C62.4887037,191.181375 59.1903905,193.122303 56.668151,197.004158 C46.7732115,213.890229 60.5485195,242.421866 80.1443802,239.316382 Z M148.050828,249.991484 C117.395917,240.869124 110.993309,203.215127 130.783188,177.788974 C137.379815,169.248893 148.632883,162.261553 160.07997,158.767883 C164.736412,157.991512 169.392855,157.215141 174.049297,156.43877 C202.764023,156.244677 225.658197,180.894459 215.569239,212.337487 C208.972613,232.91132 178.705739,259.307937 148.050828,249.991484 Z M371.948088,318.50623 C364.381369,319.282602 356.814651,318.50623 353.322319,313.848004 C344.203453,321.9999 312.966487,339.080064 320.339187,306.472479 C320.145169,306.472479 319.951151,306.472479 319.951151,306.472479 C314.906672,323.164457 276.102987,351.502001 263.685808,324.134921 C263.685808,324.523106 263.685808,324.717199 263.685808,325.105385 C259.611421,331.898631 249.9105,348.396517 236.717247,341.797362 C227.210345,337.527322 231.47875,318.700323 226.434271,310.160241 C223.523995,309.189778 222.165866,308.995685 218.479516,309.189778 C216.539331,315.788932 214.405129,322.193993 212.464944,328.793147 C210.52476,335.974579 210.718779,345.096939 207.420465,350.72563 C201.405894,351.696094 190.540863,353.248836 187.824605,348.396517 C185.302365,342.185548 190.9289,330.345889 192.481047,325.105385 C199.077673,303.366995 203.540097,279.687677 215.763258,263.577977 C204.898226,268.042111 184.914328,276.776286 187.824605,293.856449 C189.182734,297.738304 190.540863,301.62016 192.09301,305.502015 C191.704973,305.696108 191.122918,305.890201 190.734881,305.890201 C188.212642,307.442943 183.750218,306.666572 181.03396,305.890201 C166.676597,301.62016 164.154357,286.675017 173.079205,274.641265 C182.198071,262.607514 200.823839,256.202452 217.315405,251.738319 C222.747921,250.767855 228.180437,249.797391 233.612953,249.02102 C246.612187,250.185576 260.193476,248.826927 266.596084,257.367009 C279.789337,275.029451 255.537034,298.12649 242.343782,302.008345 C242.731818,302.202438 242.925837,302.396531 243.313874,302.396531 C247.000224,308.607499 249.328445,320.447158 254.954979,324.717199 C258.835347,324.134921 260.193476,321.9999 263.879826,322.776271 C263.685808,307.637035 280.759429,285.704553 291.818479,281.240419 C308.698082,274.447172 324.99563,278.911306 322.47339,299.485139 C322.667409,299.485139 322.861427,299.485139 322.861427,299.485139 C322.861427,299.096954 322.861427,298.902861 322.861427,298.514675 C325.771703,293.856449 328.68198,289.198223 331.786274,284.539996 C339.547011,274.835358 369.425848,257.561102 382.037046,274.835358 C376.60453,289.780501 371.948088,296.961933 373.694254,316.759396 C372.91818,317.535767 372.530143,318.118045 371.948088,318.50623 Z M429.377541,307.831128 C421.616804,308.801592 415.020178,307.442943 411.139809,303.172902 C405.707293,306.472479 387.275543,323.552642 378.544714,312.101169 C373.694254,305.696108 377.186585,293.468264 379.902843,287.839573 C387.275543,272.700337 399.304685,256.784731 421.422786,259.502029 C422.392878,252.708782 431.123707,223.594867 435.392112,220.877569 C441.79472,220.683476 447.421254,223.012589 449.361439,227.476723 C452.465733,233.299506 445.675089,245.52735 443.734904,250.767855 C437.138278,268.818482 428.989504,284.734089 430.73567,306.666572 C430.153615,306.860664 429.765578,307.442943 429.377541,307.831128 Z M547.146724,300.455603 C538.803931,306.472479 519.984144,313.071633 511.835371,301.814252 C500.194265,286.092738 518.820034,266.877554 519.790126,252.51469 C519.402089,252.320597 518.820034,252.126504 518.431997,252.126504 C503.492578,258.337473 500.776321,276.582193 497.478007,294.438727 C492.433528,296.767841 486.03092,296.573748 480.210368,294.826913 C479.240276,293.274171 478.852239,291.333243 477.882147,289.198223 C477.882147,289.586408 477.882147,289.780501 477.882147,290.168686 C468.569262,299.096954 443.734904,312.87754 432.287817,295.215098 C432.481836,294.63282 432.675854,294.050542 432.675854,293.274171 C435.198094,288.033666 440.048554,282.01679 447.615273,281.628605 C450.137512,284.151811 451.495641,287.645481 454.211899,289.974594 C454.987973,289.780501 455.764046,289.586408 456.54012,289.586408 C457.316194,289.00413 458.092268,288.421852 458.868341,287.645481 C454.987973,278.134935 440.824628,279.687677 440.242573,268.624389 C439.272481,253.291061 475.553926,239.89866 485.448865,255.620174 C484.284755,262.801606 478.852239,265.324812 473.80776,268.624389 C473.419723,268.430297 472.837668,268.236204 472.449631,268.236204 C469.927391,266.101183 469.927391,262.607514 466.823097,260.860679 C465.658986,261.248864 464.300857,261.831143 463.136747,262.219328 C463.136747,262.995699 463.136747,263.77207 463.136747,264.548441 C466.241041,273.088523 479.046257,269.594853 479.822331,281.240419 C480.210368,281.046326 480.404386,280.852234 480.792423,280.852234 C486.03092,265.324812 491.269418,249.797391 496.701934,234.26997 C499.030155,225.729888 501.358376,217.189806 503.686597,208.649724 C505.238744,208.261539 506.790892,207.679261 508.343039,207.291075 C515.327702,208.067446 517.849942,210.202467 521.342273,214.278415 C521.536292,227.088537 514.939665,236.016805 512.029389,246.497814 C519.790126,242.03368 530.461139,232.329042 540.938134,239.122289 C545.012521,252.708782 523.670494,283.957718 537.639821,290.750965 C546.37065,295.021006 553.549332,286.480924 555.295497,289.392315 C557.623718,293.274171 548.698871,299.291047 547.146724,300.455603 Z M542.878318,282.210883 C526.580771,272.506245 549.862981,238.734103 557.817737,233.687691 C563.056234,230.388114 569.652861,230.194022 576.055469,227.670816 C626.888295,231.552671 570.428934,298.708768 542.878318,282.210883 Z M673.840754,247.662371 C668.796275,256.00836 656.573114,269.40076 641.633695,267.26574 C637.753327,266.101183 633.872959,265.13072 629.99259,263.966163 C622.61989,267.26574 610.978785,278.717213 599.337679,273.670801 C585.75639,268.042111 599.531698,245.333257 602.635992,236.40499 C604.18814,232.134949 603.994121,225.729888 606.322342,222.430311 C611.754858,221.265754 616.4113,221.848033 619.903632,224.759424 C631.738756,235.046341 612.918969,246.885999 615.635227,259.307937 C615.829245,259.307937 616.023264,259.307937 616.023264,259.307937 C631.156701,257.367009 630.768664,231.552671 633.67894,217.772084 C639.88753,214.6666 649.782469,216.02525 652.304709,222.042125 C655.79704,229.029465 644.543972,245.139165 644.932009,253.679246 C645.708082,253.679246 646.484156,253.679246 647.26023,253.679246 C656.185077,249.603298 659.871427,237.763639 661.617593,226.700352 C661.423575,222.042125 661.229556,217.383899 661.229556,212.725672 C662.975722,212.143394 664.721888,211.561116 666.274035,210.784745 C688.586154,210.202467 680.243362,237.181361 673.840754,247.662371 Z M557.4297,43.282687 C557.041663,43.0885942 556.847645,42.8945015 556.459608,42.8945015 C555.295497,42.8945015 554.325405,42.8945015 553.161295,42.8945015 C552.579239,43.282687 551.997184,43.8649653 551.22111,44.2531508 C551.027092,49.10547 550.833074,53.9577892 550.833074,58.6160156 C559.757921,58.8101084 561.310068,49.4936556 557.4297,43.282687 Z M483.314663,68.3206539 C484.86681,67.9324684 486.418957,67.7383756 487.971105,67.3501901 C490.493344,64.2447058 493.791657,55.8987169 488.359141,52.9873254 C487.195031,52.7932326 485.836902,52.5991398 484.672791,52.5991398 C484.284755,53.1814181 483.702699,53.7636964 483.314663,54.5400675 C481.956534,57.6455518 481.956534,65.2151697 482.926626,68.5147467 C482.926626,68.3206539 483.120644,68.3206539 483.314663,68.3206539 Z M184.914328,109.856506 C186.466476,105.392372 186.660494,102.092795 185.302365,97.2404762 C182.974144,95.6877341 181.810034,94.911363 177.34761,94.911363 C176.959573,95.2995485 176.377518,95.8818268 175.989481,96.2700124 C174.631352,99.1814039 174.82537,111.021063 176.959573,112.573805 C180.063868,113.932454 182.974144,111.409248 184.914328,109.856506 Z M113.515549,140.523163 C115.84377,141.105442 117.589936,140.717256 119.53012,140.134978 C126.320765,131.400803 122.052359,111.215155 112.545457,107.527393 C111.381346,107.3333 110.023217,107.139207 108.859107,107.139207 C98.5761303,113.738361 104.008646,136.447215 113.515549,140.523163 Z M48.3253588,130.818525 C50.2655431,131.400803 52.3997457,130.430339 54.33993,129.848061 C58.6083353,124.413464 58.9963721,118.008402 53.9518931,113.156083 C52.0117089,113.156083 50.2655431,113.156083 48.3253588,113.156083 C47.937322,113.544269 47.3552667,114.126547 46.9672299,114.514732 C46.7732115,118.784773 45.8031194,128.877597 48.3253588,130.818525 Z M488.941197,127.130762 C487.001013,127.907133 485.254847,128.683504 483.314663,129.459876 C481.374478,139.940885 480.986441,184.388129 485.254847,190.405004 C517.655923,191.181375 517.461905,126.548484 488.941197,127.130762 Z M162.020155,177.400789 C141.454202,189.43454 159.885952,236.210897 176.377518,229.999929 C193.451139,223.594867 181.421997,177.012603 162.020155,177.400789 Z M571.399026,238.928196 C565.772492,242.421866 563.056234,247.274185 566.354547,254.843803 C565.966511,255.620174 565.384455,256.396545 564.996418,257.172916 C562.086142,257.755194 560.145958,257.367009 558.011755,256.202452 C557.041663,261.442957 556.459608,266.101183 558.011755,271.147595 C558.399792,271.341688 558.593811,271.535781 558.981847,271.535781 C560.145958,271.341688 561.504087,271.147595 562.668197,271.147595 C568.876787,266.683462 579.5478,249.409205 574.309303,238.928196 C573.145192,238.928196 572.1751,238.928196 571.399026,238.928196 Z M244.866021,261.248864 C242.149763,260.666586 239.627524,260.084308 236.911266,259.307937 C233.806971,262.607514 220.225681,294.826913 222.941939,298.902861 C236.911266,294.826913 256.895163,278.134935 244.866021,261.248864 Z M397.170483,298.902861 C397.55852,299.096954 397.752538,299.291047 398.140575,299.291047 C406.677386,297.738304 415.796251,279.88177 416.378307,270.371224 C415.796251,269.983039 415.214196,269.788946 414.438122,269.40076 C405.707293,275.417636 396.200391,285.51046 397.170483,298.902861 Z M357.978761,279.493584 C350.994098,284.734089 337.800845,296.185562 341.293177,309.38387 C341.487196,309.38387 341.681214,309.38387 341.681214,309.38387 C350.994098,307.831128 358.754835,289.586408 360.306983,280.075863 C360.112964,279.88177 359.918946,279.687677 359.918946,279.687677 C359.33689,279.493584 358.754835,279.493584 357.978761,279.493584 Z M298.027069,290.168686 C289.102221,296.961933 293.952682,297.156026 292.400535,306.472479 C292.012498,307.054757 291.818479,307.637035 291.430442,308.413407 C288.714185,308.995685 286.968019,308.413407 284.445779,308.025221 C283.669706,311.712984 281.147466,326.075848 288.714185,322.388086 C293.370627,320.253065 310.250229,291.13915 298.027069,290.168686 Z" id="Shape"></path>
        </g>
    </g>
</svg>