<?xml version="1.0" encoding="UTF-8"?>
<svg width="734px" height="414px" viewBox="0 0 734 414" version="1.1" xmlns="http://www.w3.org/2000/svg" xmlns:xlink="http://www.w3.org/1999/xlink">
    <title>show-whelans</title>
    <g id="Page-1" stroke="none" stroke-width="1" fill="none" fill-rule="evenodd">
        <g id="breakout-19" transform="translate(154.000000, 14.000000)" fill="#000000" fill-rule="nonzero">
            <path d="M52.0460149,239.060095 L50.2309078,235.689399 L50.0580405,235.516543 L49.9716068,235.343687 L49.1072701,234.30655 C48.4158007,233.442269 47.8971987,233.442269 47.7243313,233.787981 C47.4650303,234.133693 47.1192956,234.73869 46.5142599,236.467252 C45.2177549,239.924375 45.2177549,240.270088 45.2177549,240.356516 C45.3041885,240.356516 45.3906222,240.442944 45.8227906,240.356516 L46.0820916,240.356516 L48.2429334,240.270088 C49.0208364,240.270088 49.7987395,240.18366 50.5766425,240.097232 C51.8731476,239.924375 52.0460149,239.751519 52.0460149,239.578663 C52.2188823,239.492235 52.1324486,239.319379 52.0460149,239.060095 Z M206.243685,300.251182 C205.292915,298.52262 204.169277,297.226199 202.786338,296.27549 C201.4034,295.324781 199.934027,294.806212 198.291787,294.806212 C196.649548,294.806212 195.093741,295.324781 193.797236,296.27549 C192.500731,297.226199 191.29066,298.609048 190.33989,300.251182 C189.389119,301.979743 188.611216,304.054018 188.092614,306.474004 C187.574012,308.893991 187.314711,311.486833 187.314711,314.33896 C187.314711,317.277515 187.574012,319.870358 188.092614,322.290344 C188.611216,324.710331 189.389119,326.698177 190.33989,328.513167 C191.29066,330.241729 192.414298,331.624578 193.797236,332.575287 C195.093741,333.525996 196.649548,334.044564 198.291787,334.044564 C199.934027,334.044564 201.4034,333.525996 202.786338,332.575287 C204.169277,331.624578 205.292915,330.241729 206.243685,328.513167 C207.194456,326.784605 207.885925,324.710331 208.404527,322.290344 C208.923129,319.870358 209.18243,317.277515 209.18243,314.33896 C209.18243,311.486833 208.923129,308.893991 208.404527,306.474004 C207.885925,303.967589 207.194456,301.979743 206.243685,300.251182 Z M35.8829183,194.203916 C35.6236173,194.117488 35.2778826,194.03106 35.0185816,194.03106 L34.9321479,194.03106 L33.1170408,193.944632 C30.696898,193.858204 30.6104644,194.117488 30.8697654,199.648886 C30.956199,201.031735 30.956199,202.328157 31.1290664,203.711006 C31.3883674,206.217421 32.7713061,206.995273 35.2778826,205.698852 C38.0437601,204.143147 39.0809642,202.414585 38.7352295,198.525321 C38.4759285,195.932478 37.6115918,194.722485 35.8829183,194.203916 Z M31.2155001,187.030385 L31.3019337,187.116813 C31.7341021,187.376097 32.5984388,187.289669 35.1050153,186.166104 C35.8829183,185.733964 36.6608214,184.351114 36.747255,181.153275 C36.8336887,177.350439 35.7964847,175.794733 33.6356429,175.449021 C30.6104644,174.930452 30.3511633,175.535449 30.7833317,181.412559 L31.0426327,186.771101 L31.2155001,187.030385 Z M183.684497,179.770425 L181.437221,175.535449 L181.264354,175.276165 L181.17792,175.103309 L180.140716,173.893315 C179.27638,172.856178 178.671344,172.856178 178.412043,173.201891 C178.152742,173.634031 177.63414,174.411884 176.94267,176.486158 C175.386864,180.807562 175.300431,181.239703 175.386864,181.326131 C175.473298,181.412559 175.646165,181.412559 176.164767,181.412559 L176.510502,181.412559 L179.27638,181.239703 C180.22715,181.239703 181.17792,181.153275 182.215124,180.980419 C183.770931,180.807562 184.116665,180.548278 184.030232,180.375422 C183.857364,180.202566 183.770931,179.943282 183.684497,179.770425 Z M282.39175,173.374747 C282.996786,174.671168 283.515388,175.708305 284.03399,176.572586 C286.281265,180.116138 288.182806,180.893991 290.689382,180.202566 C293.628127,179.338285 295.356801,176.572586 295.011066,171.819041 C294.924632,170.95476 294.751765,169.744767 294.40603,168.361918 C293.368826,164.126941 292.072321,161.01553 290.948683,159.286968 C289.047143,156.348413 288.26924,155.656989 287.232035,155.13842 C284.379724,153.841999 281.440979,155.051992 280.317342,158.076975 C279.971607,158.941256 279.79874,159.891965 279.712306,161.01553 C279.625872,162.744092 279.885173,165.336935 281.008811,169.312627 C281.354546,170.781904 281.786714,172.164754 282.39175,173.374747 Z M292.504489,296.448346 C291.553719,295.497637 290.343648,294.719784 289.047143,294.114787 C287.750637,293.509791 286.367699,293.250506 284.811893,293.250506 C283.34252,293.250506 281.873148,293.509791 280.576643,294.114787 C279.280138,294.719784 278.1565,295.497637 277.119296,296.448346 C276.168525,297.399055 275.390622,298.609048 274.785587,299.905469 C274.180551,301.201891 273.92125,302.58474 273.92125,304.140446 C273.92125,305.609723 274.180551,307.079001 274.785587,308.375422 C275.390622,309.671843 276.168525,310.795409 277.119296,311.832546 C278.070066,312.783255 279.280138,313.561107 280.576643,314.166104 C281.873148,314.771101 283.256087,315.030385 284.811893,315.030385 C286.281265,315.030385 287.750637,314.771101 289.047143,314.166104 C290.343648,313.561107 291.467285,312.783255 292.504489,311.832546 C293.45526,310.881837 294.233163,309.671843 294.838199,308.375422 C295.443234,307.079001 295.702535,305.696151 295.702535,304.140446 C295.702535,302.671168 295.443234,301.201891 294.838199,299.905469 C294.319597,298.609048 293.541693,297.399055 292.504489,296.448346 Z M156.717191,230.67657 C156.371457,229.29372 155.939288,228.343011 155.593554,227.738015 C154.988518,226.787306 154.729217,226.528022 154.383482,226.441594 C153.432712,226.009453 152.481941,226.441594 152.136207,227.392302 C152.049773,227.651587 151.963339,227.997299 151.963339,228.343011 C151.963339,228.86158 152.049773,229.725861 152.395508,231.022282 C152.481941,231.454423 152.654809,231.886563 152.827676,232.318704 C153.000543,232.750844 153.173411,233.096556 153.346278,233.355841 C154.037747,234.479406 154.729217,234.73869 155.50712,234.565834 C156.45789,234.30655 156.976492,233.355841 156.890059,231.886563 C156.890059,231.454423 156.803625,231.10871 156.717191,230.67657 Z M84.0264734,171.559757 C81.9520653,170.263336 80.0505245,171.041188 79.7047898,172.510466 L79.6183562,174.239028 L79.5319225,178.301148 C79.5319225,178.906144 79.5319225,179.338285 79.6183562,179.770425 C79.7912235,183.573261 79.5319225,183.400405 83.1621367,182.27684 C84.7179428,181.758271 86.1873152,179.424713 85.9280142,175.535449 C85.6687132,173.374747 85.0636775,172.164754 84.0264734,171.559757 Z M422.760033,132.753545 C415.153869,120.653612 406.856237,123.765024 392.248947,126.357866 C382.222641,128.086428 376.08585,124.629305 368.998289,129.469278 C367.961085,129.123565 366.837447,128.864281 365.627376,128.604997 L365.627376,105.355841 C365.627376,93.8609048 356.378973,84.6130993 344.883294,84.6130993 L267.870893,84.6130993 C265.364317,78.0445645 261.2155,72.686023 255.943046,70.3524646 C249.20122,67.4139095 241.508623,69.4017556 234.766797,70.5253207 C232.778822,63.3517893 228.630006,54.8818366 230.185812,44.7697502 C230.790848,40.8804862 231.828052,37.3369345 232.433088,33.966239 C232.519521,33.966239 232.605955,33.966239 232.605955,33.966239 C233.383858,36.4726536 234.161761,38.9790682 234.85323,41.3990547 C239.08848,51.2518569 248.336883,58.166104 259.31396,61.2775152 C263.635643,62.4875084 272.019709,64.9074949 275.044888,60.8453747 C277.983633,57.0425388 276.687128,46.4118839 275.649923,41.3126266 C271.587541,21.2613099 262.598439,15.0384875 244.533802,9.16137745 C243.237297,3.02498312 239.866383,1.64213369 233.988894,0 C231.050149,1.29642134 228.543572,1.38284943 226.296297,3.11141121 C225.086226,4.40783255 223.962588,5.70425388 222.752516,7.08710331 C219.554471,8.98852127 216.01069,9.76637407 212.985512,11.667792 C200.279762,19.6191762 183.598063,36.2133693 181.696522,54.3632681 C175.386864,53.5854153 169.077206,51.9432816 163.026849,54.5361242 C154.383482,58.3389602 147.98739,71.6488859 147.814523,84.353815 L79.0997541,84.353815 C67.6040758,84.353815 58.355673,93.6016205 58.355673,105.096556 L58.355673,156.866982 C58.2692393,156.95341 58.0963719,156.95341 58.0099383,157.039838 C56.4541322,158.076975 54.8118924,159.114112 53.2560863,160.151249 C43.4890814,155.311276 11.4221893,157.471978 4.07532716,163.435517 C-0.937825795,167.497637 -1.5428615,180.721134 4.93966388,183.746117 C4.93966388,189.623228 4.93966388,195.500338 4.93966388,201.377448 C4.07532716,202.328157 3.29742412,203.278866 2.4330874,204.316003 C1.30944967,205.871708 0.531546623,208.810263 0.185811936,210.970966 C-1.62929517,221.342336 10.2121178,226.009453 20.0655564,224.453747 C24.3008063,224.021607 28.5360562,223.589467 32.6848725,223.243754 C32.5120051,228.343011 28.8817909,239.665091 26.6345155,242.776502 C24.38724,245.801485 18.6826177,247.962188 19.5469544,254.357866 C20.9298931,263.951384 29.659694,269.223498 41.1553723,266.371371 C43.8348161,265.766374 47.3785967,263.864956 49.4530048,263.432816 C51.8731476,263.000675 54.8983261,264.642809 58.355673,264.815665 L58.355673,363.257259 C58.355673,374.752194 67.6040758,384 79.0997541,384 L344.623993,384 C356.119672,384 365.368075,374.752194 365.368075,363.257259 L365.368075,236.899392 C366.405279,236.812964 367.528916,236.726536 368.56612,236.640108 C370.986263,236.12154 374.270743,234.479406 376.258717,234.133693 C377.814523,234.565834 379.456763,234.997974 381.012569,235.343687 C387.754396,236.726536 397.867135,232.318704 400.287278,229.120864 C409.362813,217.280216 397.953569,213.04524 396.311329,204.229575 C396.829931,202.241729 397.262099,200.253883 397.780701,198.179608 C397.348533,195.586766 396.916365,193.080351 396.57063,190.487508 C404.695395,188.845375 411.264354,186.857529 414.808135,180.721134 C418.265482,174.844024 415.413171,166.4605 410.659319,163.954085 C410.659319,162.83052 410.659319,161.706955 410.659319,160.669818 C424.488706,159.978393 430.106895,144.421337 422.760033,132.753545 Z M272.365444,150.817016 C276.600694,147.359892 280.835944,145.458474 286.540566,144.767049 C289.133576,144.507765 291.553719,144.507765 293.887428,144.853477 C300.024219,145.977043 304.086601,148.310601 307.11178,152.372721 C309.70479,155.743417 310.828428,159.20054 311.087729,163.349088 C311.606331,172.510466 308.581152,179.338285 301.580025,184.783255 C298.727714,187.030385 295.961836,188.413234 291.899454,189.536799 C289.997913,190.055368 288.096372,190.314652 285.849097,190.40108 C283.601821,190.487508 281.613847,190.228224 279.712306,189.882512 C274.87202,188.758947 271.673975,186.857529 268.908097,183.746117 C265.969352,180.46185 264.327112,177.091155 263.722077,173.893315 C263.376342,171.646185 263.289908,169.485483 263.289908,168.102633 C263.376342,166.374072 263.722077,164.818366 264.240679,163.089804 C266.228653,157.126266 268.216628,154.101283 272.365444,150.817016 Z M277.20573,217.971641 C277.119296,210.365969 277.032862,208.205267 276.859995,206.735989 L276.773561,206.476705 L276.427827,205.007427 C276.082092,203.711006 276.082092,203.797434 274.526286,203.451722 C274.266985,203.365294 273.92125,203.106009 273.661949,202.587441 C273.489082,202.241729 273.402648,201.896016 273.489082,201.377448 C273.575515,199.90817 274.266985,199.130317 276.600694,198.611749 C277.20573,198.438893 277.378597,198.438893 281.008811,198.266036 C285.157627,198.09318 289.738612,197.574612 295.356801,196.796759 C298.295545,196.364619 299.246316,196.191762 300.110653,196.018906 C303.8273,195.327481 305.123805,195.932478 306.16101,200.426739 C306.679612,203.278866 306.074576,205.266712 304.778071,206.130993 C303.222265,207.16813 302.444362,206.908845 299.937785,204.316003 C299.678484,204.143147 299.592051,203.883862 299.419183,203.624578 C298.987015,203.106009 296.739739,202.241729 293.714561,202.501013 C290.516515,202.760297 289.565745,203.278866 289.22001,204.056718 L288.960709,205.871708 C288.787842,207.16813 288.701408,208.464551 288.787842,209.8474 C288.787842,211.403106 290.084347,212.353815 291.899454,211.489534 C293.368826,210.884537 293.541693,210.538825 293.714561,207.686698 C293.800995,206.995273 294.319597,206.217421 295.529668,205.78528 C297.085474,205.266712 298.554846,206.303849 299.332749,209.760972 C299.505617,210.452397 299.592051,211.489534 299.678484,212.613099 C299.764918,215.638082 299.332749,218.144497 298.814147,219.440918 C297.69051,221.947333 296.134704,222.638758 294.751765,221.774477 C293.973862,221.255908 293.887428,220.996624 293.800995,219.095206 C293.800995,218.92235 293.714561,218.749494 293.628127,218.576637 C292.850224,217.020932 292.158755,216.761648 290.775816,217.280216 C289.392877,217.885213 289.306444,218.144497 289.479311,220.564483 L289.565745,220.996624 L289.652178,222.98447 L289.652178,223.330182 L289.738612,224.713032 C289.911479,226.873734 291.121551,227.392302 296.04827,226.182309 L298.468413,225.577313 L298.64128,225.490885 C300.542821,224.713032 302.185061,222.98447 303.135831,220.132343 C303.308698,219.613774 303.740867,219.181634 304.432336,218.835922 C305.123805,218.490209 306.247443,218.403781 307.198214,218.749494 C308.148984,219.095206 308.581152,220.132343 308.581152,222.206617 C308.581152,222.465901 308.494719,222.811614 308.494719,223.243754 C308.235418,225.2316 308.148984,225.577313 306.333877,229.466577 C305.988142,230.244429 305.815275,230.849426 305.642408,231.367995 C305.555974,231.540851 305.383107,231.713707 304.432336,231.886563 L302.357928,231.713707 C301.147857,231.627279 299.851352,231.713707 293.195959,232.405132 L285.330495,233.182984 L280.230908,233.701553 L279.193704,233.874409 C275.217755,234.392978 273.834816,233.874409 273.748383,232.318704 C273.661949,231.367995 273.92125,230.590142 274.180551,230.244429 L274.266985,230.158001 L275.736357,229.380149 C277.292163,228.42944 277.119296,228.602296 277.378597,222.120189 C277.20573,221.16948 277.292163,219.873059 277.20573,217.971641 Z M231.655185,184.610398 C231.914486,187.635381 231.828052,187.548953 233.124557,188.15395 C233.643159,188.413234 234.075327,188.672519 234.421062,188.931803 C236.063302,190.228224 235.717567,192.734639 233.383858,194.290344 C232.087353,195.068197 229.580776,195.759622 223.616853,196.191762 C218.171532,196.710331 215.578522,196.451047 214.454884,196.191762 C212.466909,195.759622 211.689006,194.895341 211.429705,193.944632 C211.170404,192.561783 211.689006,191.697502 214.714185,188.672519 C214.887052,188.413234 215.146353,188.240378 215.319221,188.067522 C216.097124,187.376097 216.183557,186.166104 216.269991,169.658339 C216.269991,168.102633 216.183557,166.719784 216.097124,165.336935 L216.01069,164.731938 L215.751389,162.916948 C215.405654,160.410533 215.664955,160.756246 212.639777,159.373396 C212.380476,159.20054 212.034741,158.941256 211.861874,158.681972 C211.083971,157.644835 211.170404,156.434841 212.121175,154.965564 C212.812644,154.014855 213.849848,153.409858 216.615726,152.545577 C217.393629,152.286293 218.690134,152.027009 220.332374,151.767725 C221.974613,151.50844 223.616853,151.335584 225.259093,151.249156 C228.975741,151.162728 230.445113,151.249156 231.914486,151.767725 C234.680363,152.459149 235.198965,155.051992 233.210991,157.38555 C230.617981,160.58339 231.136583,159.546253 230.790848,163.781229 C230.704414,164.559082 230.704414,165.336935 230.877282,166.028359 C230.963715,166.4605 231.395884,166.633356 231.828052,166.374072 C232.519521,166.114787 233.470292,165.250506 235.631133,162.311951 C238.13771,158.854828 238.483445,157.817691 238.397011,157.212694 L238.397011,157.126266 L237.878409,156.521269 C237.100506,155.743417 237.014072,154.274139 237.791975,152.804862 C238.656312,150.989872 240.73072,149.952735 247.991149,149.174882 C252.139965,148.742741 254.214373,148.742741 255.510878,149.002026 C259.141092,149.69345 260.178296,151.681296 258.795357,154.014855 C258.190322,155.13842 256.720949,155.829845 252.831434,156.175557 C251.534929,156.261985 249.460521,157.38555 247.213245,159.978393 C241.508623,166.374072 241.595057,164.818366 249.633388,173.374747 L257.239551,181.412559 C260.696898,184.956111 260.178296,184.610398 263.030607,185.647535 C263.289908,185.820392 263.635643,185.90682 263.894944,186.166104 C265.882919,187.548953 265.882919,189.796084 263.894944,191.438217 C262.252704,192.821067 262.85774,192.561783 256.115914,192.734639 C254.560108,192.734639 252.572133,192.993923 247.904715,194.03106 C246.953944,194.203916 246.003174,194.117488 245.398138,193.59892 L245.311705,193.59892 L244.360934,192.21607 C243.669465,191.438217 242.891562,190.573937 240.125684,187.289669 L239.866383,187.030385 L234.85323,181.8447 C234.421062,181.326131 233.90246,180.980419 233.383858,180.634706 C232.778822,180.202566 231.914486,180.634706 231.655185,181.498987 C231.482317,182.017556 231.395884,182.70898 231.655185,184.610398 Z M218.344399,225.145172 C218.344399,222.120189 218.257965,221.255908 218.171532,220.650912 L218.171532,220.564483 L217.998664,219.959487 C217.825797,219.440918 217.825797,219.440918 217.220761,219.35449 C217.134328,219.35449 216.96146,219.268062 216.875027,219.008778 C216.788593,218.92235 216.788593,218.749494 216.788593,218.490209 C216.788593,217.885213 217.047894,217.625928 217.998664,217.366644 C218.257965,217.280216 218.344399,217.280216 219.727338,217.193788 C221.369578,217.10736 223.271118,216.934504 225.518394,216.588791 C226.642032,216.415935 227.0742,216.329507 227.419935,216.243079 C228.889307,215.983795 229.407909,216.243079 229.840077,218.058069 C230.099379,219.181634 229.840077,219.959487 229.321475,220.391627 C228.71644,220.823768 228.370705,220.73734 227.419935,219.700203 C227.333501,219.613774 227.247067,219.527346 227.160634,219.440918 C226.987766,219.268062 226.036996,218.92235 224.913358,219.008778 C223.616853,219.095206 223.271118,219.35449 223.098251,219.613774 L223.011817,220.305199 C222.925384,220.823768 222.925384,221.342336 222.925384,221.947333 C222.925384,222.55233 223.443986,222.98447 224.221889,222.638758 C224.826925,222.379473 224.913358,222.206617 224.913358,221.083052 C224.913358,220.823768 225.172659,220.478055 225.604828,220.305199 C226.209863,220.132343 226.814899,220.478055 227.160634,221.860905 C227.247067,222.120189 227.247067,222.55233 227.333501,222.98447 C227.333501,224.194463 227.160634,225.2316 226.987766,225.750169 C226.555598,226.787306 225.950562,227.04659 225.345527,226.700878 C225.086226,226.528022 224.999792,226.355165 224.999792,225.577313 C224.999792,225.490885 224.999792,225.404456 224.913358,225.318028 C224.654057,224.713032 224.308323,224.626604 223.78972,224.79946 C223.184685,225.058744 223.184685,225.145172 223.271118,226.095881 L223.271118,226.268737 L223.271118,227.04659 L223.271118,227.219446 L223.271118,227.738015 C223.357552,228.602296 223.876154,228.775152 225.777695,228.343011 L226.728465,228.083727 L226.814899,228.083727 C227.592802,227.738015 228.197838,227.04659 228.630006,225.923025 C228.71644,225.750169 228.889307,225.577313 229.148608,225.404456 C229.407909,225.2316 229.840077,225.2316 230.272246,225.404456 C230.617981,225.577313 230.877282,226.009453 230.790848,226.787306 C230.790848,226.873734 230.790848,227.04659 230.790848,227.219446 C230.704414,227.997299 230.617981,228.170155 229.926511,229.725861 C229.753644,230.071573 229.66721,230.330858 229.66721,230.503714 C229.66721,230.590142 229.580776,230.67657 229.148608,230.67657 L228.284271,230.590142 C227.852103,230.590142 227.247067,230.590142 224.567624,230.849426 L221.456011,231.195138 L219.381603,231.454423 L218.949435,231.540851 C217.393629,231.800135 216.788593,231.540851 216.788593,230.935854 C216.788593,230.590142 216.875027,230.244429 216.96146,230.071573 L216.96146,230.071573 L217.566496,229.725861 C218.171532,229.380149 218.085098,229.380149 218.257965,226.787306 C218.344399,226.441594 218.430833,225.923025 218.344399,225.145172 Z M214.195583,227.392302 C214.195583,229.553005 214.195583,229.553005 215.232787,230.158001 C215.405654,230.244429 215.492088,230.417286 215.578522,230.67657 C215.578522,230.935854 215.492088,231.281567 215.319221,231.540851 C215.05992,231.886563 214.627751,232.059419 212.899078,232.318704 C212.812644,232.318704 212.639777,232.318704 212.466909,232.405132 C212.121175,232.49156 211.77544,232.49156 211.429705,232.577988 C210.82467,232.664416 210.392501,232.664416 210.046767,232.577988 C209.18243,232.577988 208.836695,232.49156 208.663828,232.405132 C207.885925,232.145847 207.799491,231.454423 208.23166,230.849426 C208.318093,230.762998 208.404527,230.67657 208.836695,230.244429 C209.268864,229.812289 209.355297,229.466577 209.355297,227.910871 L209.355297,227.133018 L209.355297,227.133018 C209.268864,226.528022 208.923129,226.441594 207.885925,226.61445 C207.021588,226.700878 206.848721,226.787306 206.762287,226.787306 C205.638649,226.873734 205.379348,227.392302 205.725083,229.466577 L205.811517,229.985145 L205.811517,229.985145 C205.811517,230.071573 205.89795,230.158001 205.89795,230.244429 C206.070818,230.503714 206.157251,230.590142 206.675853,230.762998 C206.848721,230.849426 206.935155,231.022282 206.935155,231.281567 C207.021588,231.540851 206.935155,231.800135 206.675853,232.145847 C206.416552,232.49156 205.984384,232.750844 204.774313,233.010128 C204.428578,233.096556 203.909976,233.182984 203.391374,233.269413 C202.008435,233.442269 200.971231,233.355841 200.539063,233.269413 C199.588292,233.010128 199.328991,232.837272 199.328991,232.405132 C199.242558,231.886563 199.501859,231.540851 200.625496,230.849426 C200.798364,230.762998 200.884797,230.330858 200.884797,226.095881 C200.884797,222.033761 200.884797,221.688049 200.020461,221.428764 C199.847593,221.342336 199.674726,221.255908 199.501859,221.16948 C199.06969,220.910196 199.06969,220.305199 199.76116,219.786631 C200.020461,219.527346 200.279762,219.440918 201.057665,219.181634 C201.489833,219.095206 202.008435,218.92235 203.045639,218.835922 C203.823542,218.749494 204.428578,218.749494 204.860746,218.749494 L205.638649,218.835922 C206.675853,218.92235 207.021588,219.181634 207.108022,219.613774 C207.194456,219.959487 207.108022,220.305199 207.021588,220.391627 L207.021588,220.391627 L206.502986,220.823768 C206.243685,220.996624 206.070818,221.16948 206.070818,221.255908 L205.89795,222.120189 C205.552216,224.021607 205.725083,224.194463 207.885925,224.021607 C208.058792,224.021607 208.23166,223.935179 208.404527,223.935179 C209.614598,223.762323 209.701032,223.589467 209.614598,222.638758 L209.614598,222.465901 L209.528165,221.860905 C209.441731,220.910196 209.441731,220.823768 208.923129,220.564483 C208.750262,220.478055 208.663828,220.391627 208.490961,220.305199 C208.058792,219.959487 208.145226,219.181634 208.836695,218.749494 C209.18243,218.490209 209.873899,218.317353 211.602573,218.058069 C211.77544,218.058069 211.861874,218.058069 212.034741,218.058069 C212.207608,218.058069 212.294042,217.971641 212.466909,218.058069 L212.553343,218.058069 L213.071945,218.058069 L214.541318,218.058069 L214.541318,218.058069 C214.627751,218.058069 214.714185,218.058069 214.714185,218.058069 C215.924256,218.403781 216.097124,218.749494 215.751389,219.613774 C215.664955,219.786631 215.578522,219.873059 215.146353,220.218771 C214.454884,220.73734 214.454884,220.650912 214.454884,224.108035 C214.454884,224.367319 214.454884,224.713032 214.454884,224.972316 L214.195583,227.392302 Z M193.624369,229.380149 L193.624369,229.380149 L193.624369,230.244429 C193.710803,231.022282 193.88367,231.281567 194.488706,231.454423 C195.439476,231.800135 195.698777,232.318704 195.180175,233.010128 C195.007308,233.269413 194.575139,233.528697 193.710803,233.874409 C193.192201,234.047265 192.154997,234.220122 190.858492,234.392978 C188.870517,234.565834 188.092614,234.479406 187.574012,234.30655 C187.141844,234.133693 186.882543,234.047265 186.709675,233.874409 C186.277507,233.442269 186.363941,232.750844 186.796109,232.49156 C186.968976,232.405132 187.228277,232.318704 187.401145,232.232275 C188.092614,231.886563 188.179048,231.713707 188.265481,230.762998 L188.438349,228.775152 L188.438349,228.515868 C188.524782,227.305874 188.524782,226.095881 188.438349,224.79946 L188.438349,224.79946 L188.351915,223.848751 C188.351915,223.675895 188.265481,223.503038 188.179048,223.330182 C188.00618,223.070898 187.660446,223.070898 187.401145,223.243754 C187.314711,223.330182 187.228277,223.503038 187.05541,223.762323 L186.536808,224.540176 L186.450374,224.626604 C186.363941,224.713032 186.277507,224.885888 186.191073,224.972316 C185.326737,225.836597 184.4624,225.923025 183.857364,225.2316 C183.598063,224.972316 183.511629,224.540176 183.598063,223.848751 C183.684497,223.330182 183.857364,222.811614 184.203099,222.206617 C185.326737,220.132343 185.758905,219.959487 187.401145,220.305199 C187.660446,220.305199 188.00618,220.305199 190.599191,220.218771 C190.685624,220.218771 190.772058,220.218771 190.858492,220.218771 L192.673599,219.959487 C194.920874,219.613774 194.748007,219.700203 195.353043,219.440918 C195.439476,219.35449 195.612344,219.35449 195.698777,219.35449 C196.217379,219.095206 197.16815,219.527346 197.859619,220.823768 C198.032486,221.16948 198.205354,221.515192 198.291787,222.033761 C198.378221,222.379473 198.378221,222.638758 198.378221,222.98447 C198.378221,224.021607 197.600318,224.79946 196.649548,224.713032 C196.044512,224.713032 195.698777,224.453747 195.266609,223.848751 C195.180175,223.675895 195.093741,223.589467 195.007308,223.330182 C194.748007,222.725186 194.488706,222.55233 194.229405,222.55233 C193.88367,222.55233 193.624369,222.811614 193.624369,222.98447 C193.537935,226.355165 193.537935,228.170155 193.624369,229.380149 Z M195.52591,198.611749 C188.179048,198.957461 186.968976,198.871033 185.326737,198.179608 C183.684497,197.401756 183.338762,195.241053 184.548834,193.858204 L184.635267,193.771776 L186.10464,192.734639 C186.450374,192.475354 186.882543,192.21607 187.141844,191.870358 C187.833313,191.092505 187.574012,189.709656 186.363941,189.363943 C185.586038,189.104659 184.289533,188.931803 180.918619,189.191087 C173.831058,189.796084 173.053155,190.055368 171.929517,191.611074 C171.410915,192.302498 171.497349,193.426063 171.843084,193.59892 C172.534553,193.858204 173.226023,194.03106 174.003926,194.203916 C175.646165,194.808913 176.251201,196.537475 175.127563,198.266036 C174.608961,199.130317 173.744625,199.648886 171.151614,200.513167 C170.546579,200.686023 169.595808,200.858879 168.472171,201.031735 C163.28615,201.72316 160.779574,201.636732 159.483069,201.204591 C158.013696,200.772451 157.235793,200.081026 156.976492,199.303174 C156.371457,197.574612 156.976492,196.796759 159.828803,195.068197 C163.28615,193.080351 163.28615,192.648211 170.546579,173.201891 C172.620987,167.670493 172.793854,166.979068 172.793854,163.867657 C172.793854,160.324105 173.053155,159.286968 174.263227,157.731263 C175.905466,155.656989 178.412043,154.70628 182.474425,155.311276 C186.536808,155.916273 189.129818,158.681972 197.254583,174.498312 C198.032486,175.794733 198.723956,177.177583 199.328991,178.64686 L203.477808,187.030385 L203.477808,187.116813 L204.255711,188.499662 L205.120047,189.96894 C205.379348,190.141796 205.725083,190.40108 207.799491,190.833221 C208.404527,190.919649 209.095996,191.697502 209.18243,192.907495 C209.355297,194.808913 208.058792,196.105334 203.823542,197.488184 C202.699905,197.920324 199.76116,198.438893 195.52591,198.611749 Z M159.0509,235.948683 C158.10013,236.640108 157.235793,237.158677 155.939288,237.504389 C155.334253,237.677245 154.729217,237.763673 153.951314,237.763673 C153.259844,237.763673 152.568375,237.677245 151.963339,237.590817 C150.407533,237.245105 149.370329,236.640108 148.505992,235.602971 C147.555222,234.565834 147.03662,233.442269 146.863753,232.405132 C146.777319,231.713707 146.690885,231.022282 146.690885,230.503714 C146.690885,229.985145 146.863753,229.466577 146.950186,228.86158 C147.555222,226.960162 148.246691,226.009453 149.543197,224.885888 C150.926135,223.762323 152.309074,223.157326 154.124181,222.898042 C154.988518,222.811614 155.766421,222.811614 156.45789,222.898042 C158.445865,223.243754 159.74237,224.021607 160.69314,225.318028 C161.557477,226.441594 161.903212,227.478731 161.989645,228.86158 C162.248946,231.972991 161.298176,234.133693 159.0509,235.948683 Z M256.720949,78.563133 C268.562362,90.6630655 268.821663,121.085753 245.91674,126.271438 C212.034741,133.963538 201.057665,107.948683 205.811517,92.8237677 C210.392501,78.4767049 227.419935,79.6002701 227.419935,79.6002701 L236.841205,82.0202566 L232.000919,78.563133 C232.000919,78.563133 248.077582,69.833896 256.720949,78.563133 Z M242.459394,15.1249156 C242.459394,15.1249156 258.017454,18.2363268 265.45075,29.3855503 C271.846842,38.9790682 270.291036,56.9561107 270.291036,56.9561107 C270.291036,56.9561107 255.943046,57.3882512 244.879536,45.1154625 C236.149736,35.4355165 237.878409,18.6684673 237.878409,18.6684673 L256.02948,38.8926401 L242.459394,15.1249156 Z M200.971231,30.5091155 C213.676981,16.0756246 227.0742,12.3592167 227.0742,12.3592167 C227.0742,12.3592167 232.433088,3.45712357 237.18694,7.86495611 C242.286526,12.618501 233.038123,18.3227549 233.038123,18.3227549 C233.038123,18.3227549 224.654057,31.2005402 223.962588,45.8933153 C223.271118,59.9810939 230.272246,75.8838623 230.272246,75.8838623 L225.086226,77.2667117 C225.086226,77.2667117 218.085098,61.9689399 218.085098,46.58474 C218.085098,33.3612424 225.086226,19.7920324 225.086226,19.7920324 C225.086226,19.7920324 212.121175,26.1012829 203.823542,36.5590817 C195.785211,46.6711681 192.327864,60.9318028 192.327864,60.9318028 L187.141844,60.2403781 C187.05541,60.0675219 188.956951,44.1647535 200.971231,30.5091155 Z M160.260972,65.4260635 C167.953569,55.1411209 179.794982,59.7218096 186.968976,63.956786 C190.599191,66.1174882 192.9329,68.1053342 192.9329,68.1053342 L190.858492,63.6110736 C190.858492,63.6110736 200.366195,62.6603646 207.626624,67.0681972 C213.676981,70.784605 214.282017,79.2545577 214.282017,79.2545577 C214.282017,79.2545577 206.935155,81.7609723 203.477808,91.0952059 C200.884797,98.1823093 202.786338,107.862255 202.786338,107.862255 C202.786338,107.862255 186.018206,117.369345 171.324482,110.455098 C168.299303,109.072248 156.198589,99.9972991 154.729217,89.0209318 C153.173411,78.1309926 159.310201,66.8089129 160.260972,65.4260635 Z M111.858116,164.559082 C111.944549,162.657664 112.808886,161.793383 115.661197,161.101958 C116.4391,160.929102 116.611968,160.929102 121.106519,160.669818 C126.292539,160.410533 131.997161,159.891965 138.911855,158.854828 C142.542069,158.336259 143.752141,158.076975 144.875778,157.904119 C149.456763,157.039838 151.185436,157.817691 152.395508,163.435517 C153.086977,166.979068 152.309074,169.399055 150.753268,170.52262 C148.765293,171.905469 147.814523,171.473329 144.789345,168.27549 C144.530044,168.016205 144.357176,167.756921 144.097875,167.497637 C143.49284,166.89264 140.726962,165.769075 137.010314,166.114787 C133.034365,166.4605 131.824294,167.065496 131.392125,168.102633 L131.046391,170.349764 C130.873523,171.991897 130.78709,173.547603 130.78709,175.276165 C130.78709,177.264011 132.42933,178.387576 134.676605,177.350439 C136.578146,176.572586 136.751013,176.140446 136.92388,172.596894 C137.010314,171.732613 137.701784,170.695476 139.171156,170.263336 C141.072697,169.658339 142.974237,170.868332 143.838574,175.189737 C144.011442,176.054018 144.184309,177.350439 144.270743,178.733288 C144.357176,182.536124 143.838574,185.561107 143.147105,187.203241 C141.764166,190.314652 139.862625,191.178933 138.133952,190.141796 C137.183181,189.536799 137.096748,189.191087 137.010314,186.771101 C137.010314,186.511816 136.92388,186.33896 136.837447,186.079676 C135.886676,184.09183 135.02234,183.832546 133.293666,184.52397 C131.564993,185.301823 131.392125,185.561107 131.73786,188.58609 L131.824294,189.191087 L131.910728,191.697502 L131.910728,192.129642 L131.997161,193.858204 C132.170029,196.537475 133.725835,197.142471 139.862625,195.673194 L142.887804,194.895341 L143.147105,194.808913 C145.480814,193.858204 147.468788,191.697502 148.765293,188.15395 C149.024595,187.548953 149.543197,186.943957 150.3211,186.598244 C151.099003,186.166104 152.568375,186.079676 153.778446,186.511816 C154.902084,186.943957 155.50712,188.240378 155.420686,190.746793 C155.420686,191.092505 155.334253,191.524646 155.334253,192.043214 C155.074952,194.549629 154.902084,194.895341 152.568375,199.735314 C152.136207,200.686023 151.876906,201.463876 151.704038,202.068872 C151.617605,202.328157 151.358304,202.501013 150.234666,202.760297 L147.641656,202.501013 C146.172283,202.414585 144.530044,202.501013 136.232411,203.278866 L126.465406,204.229575 L120.155748,204.920999 L118.859243,205.093856 C113.932524,205.78528 112.20385,205.093856 112.117417,203.192438 C112.030983,202.068872 112.290284,201.118163 112.722452,200.599595 L112.808886,200.513167 L114.623993,199.562458 C116.611968,198.352465 116.266233,198.611749 116.698401,190.487508 C116.784835,189.104659 116.784835,187.548953 116.784835,185.215395 C116.698401,175.794733 116.525534,173.029034 116.352667,171.300473 L116.266233,170.95476 L115.834065,169.13977 C115.401896,167.497637 115.401896,167.584065 113.413922,167.238352 C113.068187,167.151924 112.636019,166.806212 112.290284,166.201215 C111.858116,165.682647 111.771682,165.164078 111.858116,164.559082 Z M27.4988522,213.390952 L25.3380104,213.563808 L15.1388371,214.514517 C12.9779953,214.687373 11.7679239,214.255233 11.3357556,213.390952 C10.3849852,211.489534 11.0764546,209.933828 13.583031,208.637407 C14.7931024,208.032411 15.9167402,204.920999 15.8303065,192.821067 L15.7438728,181.585415 C15.7438728,181.239703 15.7438728,180.807562 15.6574392,180.46185 C15.3981381,177.264011 15.0524035,176.918298 12.3729596,176.313302 C11.8543576,176.226874 11.4221893,175.794733 10.9900209,174.844024 C10.1256842,172.856178 11.2493219,170.781904 13.8423321,170.263336 C14.1880667,170.176907 14.5338014,170.176907 14.8795361,170.090479 L18.7690513,169.744767 C20.8434595,169.571911 23.609337,169.226199 31.2155001,168.361918 C31.4748011,168.361918 31.8205358,168.27549 32.1662704,168.27549 C41.8468417,167.584065 43.3162141,167.584065 45.0448875,168.016205 C49.1072701,169.053342 51.4409792,171.559757 52.0460149,174.671168 C52.6510506,178.21472 52.1324486,180.548278 50.4037752,183.054693 C50.0580405,183.659689 49.5394384,184.178258 48.5022344,185.128967 C48.2429334,185.388251 47.9836324,185.647535 47.551464,185.90682 C47.4650303,185.993248 47.292163,186.252532 47.2057293,186.425388 C47.1192956,186.684673 47.2057293,187.030385 47.3785967,187.203241 C47.810765,187.376097 48.1564997,187.548953 48.5886681,187.635381 L49.8851731,188.067522 L50.9223772,188.413234 C54.8983261,189.363943 57.0591679,193.512492 55.6762291,199.90817 C54.5525914,205.439568 50.7495098,209.41526 44.6991528,211.403106 C44.0941171,211.575962 43.5755151,211.748818 42.8840457,211.835246 C40.3774693,212.440243 40.982505,212.267387 27.4988522,213.390952 Z M68.3819789,253.407157 C67.4312085,253.75287 65.0110657,254.098582 61.6401525,254.271438 C55.7626628,254.617151 54.8118924,254.444294 53.4289537,253.925726 C52.0460149,253.320729 51.8731476,251.592167 52.823918,250.468602 L52.9103516,250.382174 L54.120423,249.604321 C54.3797241,249.431465 54.7254587,249.172181 54.9847598,248.912897 C55.5033618,248.3079 55.3304944,247.184335 54.3797241,246.838623 C53.6882547,246.579338 52.7374843,246.49291 50.0580405,246.752194 C44.3534181,247.270763 43.6619488,247.443619 42.7976121,248.653612 C42.3654437,249.172181 42.4518774,250.12289 42.7111784,250.209318 C43.2297804,250.382174 43.8348161,250.55503 44.4398518,250.727887 C45.8227906,251.246455 46.2549589,252.629305 45.3041885,253.925726 C44.8720202,254.617151 44.1805508,255.049291 42.1061427,255.740716 C41.6739743,255.913572 40.8096376,256 39.9453009,256.172856 C35.7964847,256.777853 33.7220765,256.604997 32.6848725,256.345712 C31.4748011,256 30.8697654,255.395003 30.696898,254.790007 C30.2647297,253.407157 30.696898,252.802161 32.9441735,251.419311 C35.710051,249.777178 35.710051,249.517893 41.5875407,233.787981 C43.2297804,229.380149 43.4026478,228.775152 43.4026478,226.268737 C43.4026478,223.41661 43.6619488,222.55233 44.6127192,221.342336 C45.9092242,219.700203 47.8971987,218.92235 51.1816782,219.35449 C54.4661577,219.786631 56.5405658,222.033761 63.0230912,234.73869 C63.6281269,235.775827 64.2331626,236.899392 64.665331,238.022957 L68.0362442,244.764348 L68.0362442,244.850777 L68.7277136,245.974342 L69.4191829,247.184335 C69.6784839,247.357191 69.937785,247.530047 71.5800247,247.87576 C72.0986267,247.962188 72.6172288,248.567184 72.7036624,249.517893 C72.7900961,251.246455 71.7528921,252.37002 68.3819789,253.407157 Z M85.7551469,232.837272 C85.9280142,233.701553 86.2737489,234.479406 86.6194836,235.343687 C89.3853611,241.220797 94.398514,242.86293 99.5845343,240.702228 C100.448871,240.270088 101.226774,239.837947 102.004677,239.232951 C102.350412,238.973666 102.609713,238.714382 102.869014,238.455098 C103.301182,237.936529 103.819784,237.504389 104.338386,237.072248 C105.029856,236.55368 106.326361,236.812964 107.104264,238.195814 C107.536432,239.060095 107.709299,240.270088 107.363565,241.99865 C106.844963,244.67792 105.807759,245.715057 100.794606,248.567184 C97.0779578,250.641458 93.7070447,251.592167 89.9903968,251.592167 C87.0516519,251.678596 84.5450755,251.160027 82.3842337,250.209318 C79.1861878,248.740041 77.4575144,247.270763 75.2966726,244.159352 C73.5679992,241.566509 72.8765298,239.751519 72.6172288,236.726536 C72.5307951,236.207968 72.5307951,235.602971 72.5307951,235.084402 C72.5307951,234.479406 72.6172288,233.787981 72.6172288,233.182984 C72.8765298,230.849426 73.3951318,228.775152 74.3459022,226.873734 C76.1610093,223.330182 77.8896827,221.16948 80.8284276,218.92235 C82.2978,217.798785 83.8536061,216.934504 85.9280142,216.156651 C87.1380856,215.72451 87.9159887,215.465226 88.866759,215.29237 C92.5834069,214.600945 94.139213,214.600945 97.6829936,215.551654 C98.1151619,215.638082 98.5473303,215.72451 99.0659323,215.897367 C100.18957,216.243079 100.535305,216.156651 102.263978,214.946658 C102.523279,214.86023 102.78258,214.773801 103.214749,214.773801 C103.560483,214.86023 103.992652,215.119514 104.856988,215.897367 C105.634891,216.588791 106.499228,218.058069 107.190697,219.873059 C108.227901,222.898042 108.141468,225.058744 107.190697,226.700878 C105.37559,229.725861 102.091111,230.330858 100.362437,228.515868 C99.8438353,227.997299 99.411667,227.392302 98.6337639,226.268737 C98.4608966,225.836597 98.2015956,225.577313 97.9422946,225.2316 C97.6829936,224.79946 97.2508252,224.367319 96.0407538,223.675895 C95.6950191,223.41661 95.2628507,223.243754 94.8306824,223.070898 C90.3361315,221.083052 86.0144479,223.589467 85.4958458,228.170155 C85.3229785,229.466577 85.3229785,230.935854 85.7551469,232.837272 Z M100.535305,207.513842 C93.36131,208.637407 90.3361315,206.649561 88.2617233,201.118163 C88.1752897,200.772451 88.0024223,200.426739 87.9159887,199.994598 C86.0144479,193.944632 85.8415805,193.166779 85.6687132,192.475354 C85.5822795,191.956786 85.3229785,191.524646 84.3722081,190.833221 C83.9400398,190.487508 83.2485704,190.228224 82.3842337,190.228224 C80.6555602,190.055368 79.9640909,190.660365 79.9640909,191.092505 C80.1369582,197.056043 80.3962592,199.303174 80.4826929,199.735314 C80.9148613,201.636732 81.0012949,201.72316 83.2485704,202.501013 C83.6807387,202.673869 84.1993408,203.278866 84.3722081,204.056718 C84.8043765,205.78528 83.5943051,207.686698 80.3962592,208.810263 C78.8404531,209.242404 75.0373716,209.8474 69.4191829,210.193113 C63.8009943,210.452397 62.3316218,210.106685 61.2944178,209.155976 C59.9979127,207.859554 60.1707801,205.698852 61.1215504,205.007427 C61.8130198,204.575287 62.4180555,204.229575 63.0230912,203.883862 C64.146729,203.106009 64.8381983,201.463876 64.924632,196.105334 L65.0110657,192.561783 L65.0974993,188.326806 C65.183933,184.09183 65.0110657,180.288994 64.665331,176.745442 L64.5788973,176.140446 L64.40603,174.844024 C64.146729,173.201891 63.9738616,173.201891 61.8130198,172.251182 C61.0351168,171.905469 60.5165147,171.214045 60.3436474,170.436192 C59.911479,167.584065 62.5909229,166.028359 74.7780706,164.904794 C76.9389124,164.731938 78.9268868,164.559082 81.0877286,164.299797 L81.4334633,164.299797 L84.4586418,163.694801 C85.3229785,163.521945 86.2737489,163.435517 87.2245193,163.349088 C89.2989274,163.26266 91.1140345,163.435517 92.4105396,163.608373 C99.7574017,164.64551 103.128315,168.966914 102.263978,175.189737 C101.745376,178.474004 99.930269,181.412559 97.8558609,182.881837 C96.8186568,183.486833 96.4729221,183.746117 96.2136211,183.832546 C96.0407538,184.005402 95.8678864,184.178258 95.7814528,184.437542 C95.6950191,184.783255 95.7814528,185.042539 95.8678864,185.128967 C96.2136211,185.215395 96.6457895,185.215395 96.9915242,185.301823 C100.794606,185.820392 103.646917,188.845375 104.684121,194.03106 L105.029856,195.84605 L105.116289,196.710331 C105.462024,199.130317 105.548458,199.130317 108.227901,199.821742 C108.66007,199.90817 108.919371,200.081026 109.178672,200.340311 C109.956575,201.29102 110.043009,202.328157 109.092238,203.883862 C108.141468,205.439568 105.548458,206.822417 100.535305,207.513842 Z M110.043009,225.663741 C109.437973,224.972316 109.178672,223.848751 109.351539,222.120189 C109.524407,220.823768 109.870141,219.527346 110.820912,217.971641 C113.586789,212.872384 114.623993,212.440243 118.686376,213.218096 C119.291411,213.304524 120.155748,213.304524 126.638274,213.04524 C126.897575,213.04524 127.070442,213.04524 127.243309,212.958812 L131.73786,212.267387 C137.356049,211.489534 136.837447,211.575962 138.479687,210.970966 C138.738988,210.884537 138.998289,210.798109 139.25759,210.625253 C140.467661,210.020257 142.887804,210.970966 144.702911,214.255233 C145.135079,215.119514 145.480814,215.983795 145.740115,217.366644 C145.912982,218.144497 145.999416,219.008778 145.999416,219.700203 C145.999416,222.293045 144.097875,224.108035 141.677732,223.935179 C140.20836,223.848751 139.25759,223.243754 138.133952,221.860905 C137.874651,221.515192 137.701784,221.083052 137.442483,220.650912 C136.751013,219.181634 136.059544,218.749494 135.540942,218.663065 C134.763039,218.576637 133.985136,219.268062 133.985136,219.873059 C133.812268,228.343011 133.812268,232.750844 133.898702,235.948683 L133.898702,236.12154 L133.985136,238.022957 C134.158003,239.924375 134.503738,240.529372 136.145977,241.134369 C138.56612,241.912221 139.084722,243.208643 137.788217,244.937205 C137.269615,245.628629 136.318845,246.320054 134.071569,247.097907 C132.688631,247.616475 130.182054,248.048616 126.984008,248.394328 C122.057289,248.826469 120.155748,248.653612 118.859243,248.221472 C117.822039,247.87576 117.217003,247.443619 116.784835,247.097907 C115.574764,245.974342 115.920498,244.24578 116.957702,243.640783 C117.476304,243.381499 117.908473,243.122215 118.427075,242.86293 C120.242182,242.085078 120.415049,241.652937 120.587917,239.232951 L120.933651,234.30655 L120.933651,233.787981 C121.106519,230.67657 121.106519,227.651587 121.020085,224.626604 L121.020085,224.540176 L120.847218,222.206617 C120.760784,221.774477 120.587917,221.255908 120.415049,220.910196 C120.069315,220.218771 119.204978,220.218771 118.513508,220.823768 C118.254207,221.16948 117.994906,221.428764 117.562738,222.120189 L116.266233,224.108035 L116.093366,224.367319 C115.920498,224.626604 115.747631,224.972316 115.401896,225.145172 C113.500355,227.219446 111.598815,227.392302 110.043009,225.663741 Z M166.484196,347.181634 L113.586789,347.181634 L129.836319,330.328157 C134.158003,325.833896 137.528916,322.03106 139.949059,319.006077 C142.369202,315.894666 144.184309,313.301823 145.39438,311.141121 C146.604452,308.980419 147.295921,307.251857 147.641656,305.955436 C147.900957,304.659014 148.073824,303.449021 148.073824,302.58474 C148.073824,301.634031 147.900957,300.683322 147.555222,299.732613 C147.209487,298.781904 146.777319,298.004051 146.08585,297.226199 C145.480814,296.534774 144.702911,295.929777 143.752141,295.497637 C142.887804,295.065496 141.764166,294.806212 140.554095,294.806212 C138.220386,294.806212 136.405278,295.584065 135.108773,297.053342 C133.812268,298.52262 133.120799,300.424038 133.120799,302.671168 C133.120799,303.276165 133.207233,304.226874 133.3801,305.436867 L114.710427,305.436867 C114.710427,301.634031 115.315463,298.090479 116.611968,294.979068 C117.822039,291.867657 119.637146,289.101958 121.884422,286.854828 C124.131697,284.607698 126.811141,282.879136 129.922753,281.669142 C133.034365,280.459149 136.405278,279.854153 140.121926,279.854153 C143.752141,279.854153 147.123054,280.459149 150.234666,281.582714 C153.346278,282.70628 156.025722,284.348413 158.272997,286.422687 C160.520273,288.496962 162.33538,291.003376 163.545451,293.855503 C164.841956,296.70763 165.446992,299.819041 165.446992,303.189737 C165.446992,306.819716 164.669089,310.103984 163.113283,313.128967 C161.557477,316.15395 159.137334,319.265361 155.766421,322.463201 L144.875778,332.661715 L166.484196,332.661715 L166.484196,347.181634 Z M163.372584,235.430115 C163.372584,235.170831 163.459018,234.997974 163.545451,234.911546 L164.150487,234.479406 C165.101257,233.701553 165.187691,233.269413 164.92839,227.910871 L164.841956,225.750169 C164.755523,225.058744 164.755523,224.885888 164.582655,224.713032 C164.409788,224.540176 164.236921,224.453747 163.891186,224.367319 C163.718319,224.367319 163.631885,224.280891 163.545451,224.021607 C163.28615,223.41661 163.718319,222.55233 164.755523,222.379473 C165.101257,222.293045 165.706293,222.206617 168.299303,222.120189 C170.200844,222.033761 170.546579,221.947333 174.176793,221.342336 C175.559732,221.083052 175.732599,221.255908 176.337635,222.55233 C176.424068,222.811614 176.510502,222.98447 176.510502,223.243754 C176.769803,224.453747 176.683369,224.885888 176.337635,225.2316 C175.732599,225.750169 175.300431,225.750169 174.608961,225.2316 C174.436094,225.145172 174.34966,224.972316 173.917492,224.540176 C173.658191,224.280891 173.312456,224.108035 172.793854,224.021607 C172.707421,224.021607 172.707421,224.021607 172.620987,224.021607 C170.373711,223.848751 170.11441,223.935179 169.855109,224.540176 L169.768676,224.713032 L169.768676,224.79946 C169.682242,224.972316 169.682242,225.318028 169.682242,225.836597 C169.682242,226.009453 169.682242,226.095881 169.682242,226.268737 C169.682242,227.478731 169.941543,227.651587 170.80588,227.392302 C171.497349,227.133018 171.497349,227.04659 171.670216,226.095881 C171.670216,225.923025 171.843084,225.663741 172.188819,225.490885 C172.793854,225.058744 173.312456,225.404456 173.744625,226.441594 C173.917492,226.787306 174.003926,227.392302 174.003926,228.343011 C174.003926,229.120864 174.003926,229.380149 173.917492,229.639433 C173.485324,231.627279 173.226023,232.059419 172.361686,231.972991 C171.843084,231.886563 171.583783,231.540851 171.583783,230.935854 C171.583783,230.071573 171.410915,229.985145 170.719446,229.898717 C169.682242,229.812289 169.595808,230.071573 169.855109,232.318704 L169.941543,233.096556 L169.941543,233.096556 C170.11441,233.787981 170.11441,233.787981 171.065181,233.874409 C171.670216,233.960837 171.929517,234.479406 171.670216,235.170831 C171.410915,235.862255 170.373711,236.380824 167.089232,236.55368 C164.064053,236.640108 163.372584,236.380824 163.372584,235.430115 Z M224.049021,328.513167 C222.666083,332.748143 220.764542,336.464551 218.344399,339.489534 C215.924256,342.514517 212.985512,344.848076 209.528165,346.576637 C206.070818,348.218771 202.35417,349.083052 198.291787,349.083052 C194.142971,349.083052 190.426323,348.218771 187.05541,346.576637 C183.684497,344.934504 180.745752,342.600945 178.239176,339.489534 C175.732599,336.464551 173.831058,332.748143 172.534553,328.513167 C171.151614,324.27819 170.460145,319.524646 170.460145,314.252532 C170.460145,309.066847 171.151614,304.313302 172.534553,299.991897 C173.917492,295.756921 175.819033,292.040513 178.239176,289.101958 C180.745752,286.076975 183.598063,283.743417 187.05541,282.101283 C190.426323,280.459149 194.229405,279.594868 198.291787,279.594868 C202.35417,279.594868 206.070818,280.459149 209.528165,282.101283 C212.985512,283.743417 215.924256,286.076975 218.344399,289.101958 C220.764542,292.126941 222.666083,295.756921 224.049021,299.991897 C225.43196,304.226874 226.12343,308.980419 226.12343,314.252532 C226.12343,319.524646 225.43196,324.27819 224.049021,328.513167 Z M253.177169,347.181634 L236.149736,347.181634 L236.149736,296.016205 L226.555598,296.016205 L226.555598,281.582714 L253.177169,281.582714 L253.177169,347.181634 L253.177169,347.181634 Z M250.929893,237.072248 C247.818281,237.245105 244.793103,237.072248 243.410164,236.812964 C240.644286,236.207968 239.866383,235.257259 240.471419,233.615125 C240.817154,232.49156 240.990021,232.318704 242.891562,231.367995 C244.533802,230.503714 244.793103,229.639433 244.533802,224.453747 L244.447368,219.959487 C244.274501,219.008778 244.0152,218.490209 243.755899,217.971641 L242.286526,216.243079 C235.976868,208.896691 236.149736,208.810263 232.692389,208.205267 C232.000919,208.118839 231.395884,207.513842 231.223016,206.217421 C231.050149,204.748143 231.828052,203.711006 233.729593,203.019581 L235.371832,202.501013 L235.717567,202.414585 C236.754771,202.1553 238.051276,201.982444 240.471419,201.72316 C246.60821,201.031735 248.682618,201.031735 250.929893,201.636732 C253.090735,202.068872 253.695771,203.97029 252.485699,205.698852 C252.312832,205.958136 252.139965,206.130993 251.967097,206.390277 C251.707796,206.649561 251.79423,207.16813 252.831434,208.810263 L253.263603,209.41526 L254.041506,210.625253 C254.473674,211.316678 254.819409,211.316678 255.338011,210.625253 C258.536056,206.563133 258.449623,206.995273 256.634516,205.266712 C256.288781,205.007427 256.202347,204.316003 256.288781,203.624578 C256.461648,202.241729 257.585286,201.204591 260.610465,200.340311 C261.388368,200.167454 262.339138,199.90817 263.80851,199.648886 C264.154245,199.648886 264.586413,199.562458 265.018582,199.562458 C265.364317,199.562458 265.796485,199.47603 266.14222,199.47603 C270.723204,199.216745 271.933276,199.821742 272.106143,201.550304 C272.27901,203.192438 271.501107,204.056718 270.204602,204.575287 L270.031735,204.661715 L268.994531,204.920999 C267.352291,205.35314 266.574388,206.044564 264.240679,209.069548 L262.339138,211.489534 L261.820536,212.180959 C260.869766,213.390952 260.091863,214.428089 259.141092,215.29237 C258.968225,215.465226 258.795357,215.810939 258.449623,216.934504 C258.103888,218.058069 258.017454,219.35449 258.103888,221.255908 C258.363189,228.688724 258.449623,229.29372 261.474801,230.330858 C262.684873,230.762998 262.771306,232.664416 261.2155,234.479406 C260.437597,235.257259 259.227526,235.775827 255.165143,236.55368 C253.782205,236.812964 252.485699,236.98582 250.929893,237.072248 Z M310.136958,315.981094 C308.494719,320.302498 305.901709,324.537475 302.530795,328.772451 L287.318469,347.268062 L267.525158,347.268062 L286.194831,325.833896 L285.849097,325.833896 C284.206857,326.784605 282.910352,327.389602 281.873148,327.648886 C280.835944,327.821742 279.885173,327.994598 279.10727,327.994598 C275.909224,327.994598 272.97048,327.389602 270.291036,326.179608 C267.611592,324.969615 265.277883,323.327481 263.289908,321.166779 C261.301934,319.006077 259.832562,316.58609 258.708924,313.733964 C257.585286,310.881837 257.066684,307.856853 257.066684,304.572586 C257.066684,301.115463 257.67172,297.831195 258.968225,294.89264 C260.26473,291.867657 262.079837,289.274814 264.49998,287.027684 C266.920123,284.780554 269.858867,283.051992 273.229781,281.755571 C276.687128,280.459149 280.490209,279.854153 284.811893,279.854153 C289.133576,279.854153 293.023091,280.459149 296.480438,281.755571 C299.937785,283.051992 302.790096,284.780554 305.210239,286.941256 C307.630382,289.188386 309.445489,291.694801 310.741994,294.633356 C312.038499,297.571911 312.643535,300.683322 312.643535,303.967589 C312.643535,307.683997 311.779198,311.659689 310.136958,315.981094 Z M347.562738,227.910871 C346.611968,228.256583 344.191825,228.602296 340.820912,228.775152 C334.943422,229.120864 333.992652,228.948008 332.609713,228.42944 C331.226774,227.824443 331.053907,226.095881 332.004677,224.972316 L332.091111,224.885888 L333.301182,224.108035 C333.560483,223.935179 333.906218,223.675895 334.165519,223.41661 C334.684121,222.811614 334.511254,221.688049 333.560483,221.342336 C332.869014,221.083052 331.918244,220.996624 329.2388,221.255908 C323.534178,221.774477 322.842708,221.947333 321.978371,223.157326 C321.546203,223.675895 321.632637,224.626604 321.891938,224.713032 C322.41054,224.885888 323.015576,225.058744 323.620611,225.2316 C325.00355,225.750169 325.435718,227.133018 324.484948,228.42944 C324.05278,229.120864 323.36131,229.553005 321.286902,230.244429 C320.854734,230.417286 319.990397,230.503714 319.12606,230.67657 C314.977244,231.281567 312.902836,231.10871 311.865632,230.849426 C310.65556,230.503714 310.050525,229.898717 309.877657,229.29372 C309.445489,227.910871 309.877657,227.305874 312.124933,225.923025 C314.89081,224.280891 314.89081,224.021607 320.7683,208.291695 C322.41054,203.883862 322.583407,203.278866 322.583407,200.772451 C322.583407,197.920324 322.842708,197.056043 323.793479,195.84605 C325.089984,194.203916 327.077958,193.426063 330.362438,193.858204 C333.646917,194.376772 335.721325,196.537475 342.203851,209.242404 C342.808886,210.279541 343.413922,211.403106 343.84609,212.526671 L347.217004,219.268062 L347.217004,219.35449 L347.908473,220.478055 L348.599942,221.688049 C348.859243,221.860905 349.118544,222.033761 350.760784,222.379473 C351.279386,222.465901 351.797988,223.070898 351.884422,224.021607 C352.057289,225.750169 351.020085,226.873734 347.562738,227.910871 Z M344.969728,184.869683 C336.758529,186.425388 329.584535,185.215395 326.127188,182.968265 C322.929142,180.893991 321.632637,178.906144 320.595433,174.58474 C320.336132,173.201891 320.163264,171.214045 320.163264,166.4605 L320.076831,155.743417 L320.076831,155.656989 L319.81753,153.409858 C319.558229,151.50844 319.212494,150.989872 316.53305,150.557731 C316.100882,150.471303 315.58228,149.952735 315.322979,148.915598 C314.717943,146.754895 316.187315,144.853477 321.805504,142.952059 C323.534178,142.347063 325.95432,141.828494 329.152366,141.482782 C331.745376,141.223498 333.646917,141.13707 334.943422,141.309926 C340.648045,141.828494 341.94455,143.470628 340.561611,146.236327 C340.30231,146.841323 339.870141,147.187036 338.314335,148.137745 C335.894193,149.607022 336.239927,149.434166 336.239927,162.052667 C336.239927,167.065496 336.412795,168.966914 336.844963,170.090479 C337.968601,173.893315 339.61084,174.930452 344.796861,174.671168 C347.822039,174.498312 349.810014,173.720459 351.192952,172.424038 C352.835192,170.781904 353.440228,169.312627 353.613095,166.633356 L353.872396,157.039838 C354.131697,147.44632 353.613095,146.236327 349.550713,145.372046 C348.859243,145.19919 348.340641,144.248481 348.77281,142.779203 C349.032111,141.914922 349.810014,141.13707 351.711555,140.445645 C352.31659,140.186361 352.835192,140.013504 354.131697,139.667792 C355.60107,139.32208 357.416177,138.976367 359.317718,138.803511 C359.922753,138.717083 360.527789,138.717083 361.219258,138.717083 C367.010314,138.630655 368.56612,140.445645 367.701784,142.779203 C367.269615,144.075625 366.837447,144.421337 364.935906,145.458474 C364.503738,145.717758 364.07157,146.236327 363.725835,147.01418 C363.466534,147.532748 363.3801,148.224173 363.293667,150.557731 L362.947932,162.657664 L362.861498,165.423363 C362.775064,170.176907 362.42933,172.078325 361.392126,174.1526 C359.317718,178.387576 357.416177,180.202566 352.662325,182.449696 C350.415049,183.486833 347.822039,184.351114 344.969728,184.869683 Z M392.940416,221.860905 C392.248947,223.157326 390.174538,224.280891 386.112156,224.885888 C380.407533,225.750169 377.900957,224.194463 376.172284,219.786631 C376.08585,219.527346 375.912983,219.268062 375.912983,218.835922 C374.357176,213.995949 374.270743,213.304524 374.097875,212.785955 C374.011442,212.353815 373.838574,212.008103 373.060671,211.403106 C372.714937,211.143822 372.196335,210.884537 371.504865,210.884537 C370.121927,210.711681 369.516891,211.23025 369.516891,211.575962 C369.689758,216.415935 369.862626,218.144497 369.949059,218.576637 C370.294794,220.045915 370.381228,220.132343 372.109901,220.823768 C372.455636,220.996624 372.887804,221.428764 373.060671,222.120189 C373.406406,223.503038 372.455636,225.058744 369.862626,225.923025 C368.56612,226.268737 365.540942,226.787306 361.046391,227.04659 C356.55184,227.305874 355.341769,227.04659 354.477432,226.182309 C353.440228,225.145172 353.526662,223.41661 354.304565,222.811614 C354.823167,222.465901 355.341769,222.120189 355.773937,221.860905 C356.724707,221.255908 357.243309,219.873059 357.329743,215.638082 L357.416177,212.785955 L357.502611,209.41526 C357.589044,205.958136 357.416177,202.933153 357.156876,200.081026 L357.070442,199.562458 L356.897575,198.525321 C356.638274,197.228899 356.55184,197.228899 354.823167,196.451047 C354.131697,196.191762 353.785963,195.586766 353.613095,194.981769 C353.267361,192.648211 355.428202,191.438217 365.281641,190.487508 C367.010314,190.314652 368.652554,190.141796 370.381228,190.055368 L370.640529,190.055368 L373.060671,189.623228 C373.752141,189.536799 374.530044,189.450371 375.221513,189.363943 C376.863753,189.277515 378.333125,189.363943 379.370329,189.536799 C385.247819,190.40108 387.927263,193.858204 387.322227,198.871033 C386.890059,201.550304 385.420686,203.883862 383.778447,205.007427 C382.91411,205.525996 382.654809,205.698852 382.395508,205.78528 C382.222641,205.871708 382.136207,206.044564 382.049773,206.217421 C381.96334,206.476705 382.049773,206.735989 382.136207,206.735989 C382.395508,206.822417 382.741243,206.822417 383.086977,206.908845 C386.112156,207.340986 388.445865,209.760972 389.310202,213.995949 L389.569503,215.465226 L389.655936,216.156651 C389.915237,218.058069 390.001671,218.058069 392.162513,218.663065 C392.508248,218.749494 392.681115,218.92235 392.940416,219.095206 C393.631885,219.700203 393.718319,220.564483 392.940416,221.860905 Z M410.054283,150.384875 C408.152742,150.298447 407.029104,149.520594 405.732599,147.792032 C405.473298,147.359892 405.127564,146.841323 404.954696,146.322755 C404.09036,144.507765 403.312456,143.902768 402.534553,143.902768 C401.583783,143.81634 400.546579,144.680621 400.546579,145.372046 C400.287278,155.916273 400.287278,161.44767 400.460145,165.336935 L400.460145,165.596219 L400.546579,167.929777 C400.719446,170.263336 401.238048,171.041188 403.312456,171.732613 C406.337635,172.683322 406.942671,174.325456 405.386865,176.486158 C404.781829,177.350439 403.485324,178.21472 400.80588,179.165429 C399.16364,179.770425 395.965594,180.375422 391.989645,180.721134 C385.852855,181.239703 383.519146,181.066847 381.96334,180.548278 C380.666835,180.116138 379.888931,179.597569 379.370329,179.079001 C377.900957,177.609723 378.246692,175.535449 379.62963,174.757596 C380.234666,174.411884 380.839702,174.1526 381.444738,173.806887 C383.692013,172.856178 383.951314,172.33761 384.210615,169.312627 L384.642783,163.26266 L384.642783,162.571236 C384.815651,158.681972 384.815651,154.965564 384.729217,151.162728 L384.729217,151.0763 L384.469916,148.137745 C384.383482,147.532748 384.210615,147.01418 383.86488,146.495611 C383.432712,145.63133 382.395508,145.544902 381.531171,146.322755 C381.185437,146.668467 380.926136,147.100608 380.407533,147.87846 L378.765294,150.384875 L378.505993,150.730587 C378.246692,151.0763 378.073824,151.50844 377.72809,151.767725 C374.962212,154.533423 372.542069,154.70628 370.554095,152.632005 C369.776192,151.767725 369.430457,150.384875 369.776192,148.224173 C369.949059,146.582039 370.467661,145.026334 371.677733,143.038488 C375.13508,136.729237 376.345151,136.12424 381.531171,137.074949 C382.309074,137.161377 383.432712,137.161377 391.38461,136.902093 C391.643911,136.902093 391.903212,136.815665 392.162513,136.815665 L397.780701,135.951384 C404.781829,135.000675 404.176793,135.087103 406.164768,134.309251 C406.510502,134.136394 406.856237,134.049966 407.115538,133.963538 C408.58491,133.272113 411.610089,134.395679 413.943798,138.544227 C414.548834,139.581364 414.894568,140.704929 415.240303,142.347063 C415.413171,143.297772 415.499604,144.334909 415.499604,145.19919 C415.499604,148.397029 413.079461,150.644159 410.054283,150.384875 Z M372.887804,195.932478 C371.245564,194.895341 369.689758,195.500338 369.344024,196.710331 L369.25759,198.09318 L369.171156,201.377448 C369.171156,201.809588 369.171156,202.241729 369.25759,202.587441 C369.430457,205.698852 369.171156,205.525996 372.109901,204.575287 C373.406406,204.143147 374.530044,202.328157 374.270743,199.130317 C374.270743,197.315327 373.752141,196.364619 372.887804,195.932478 Z M331.313208,213.563808 L329.498101,210.193113 L329.325234,210.020257 L329.2388,209.8474 L328.374463,208.810263 C327.682994,207.945982 327.164392,207.945982 326.991524,208.291695 C326.732223,208.637407 326.386489,209.242404 325.781453,210.970966 C324.484948,214.428089 324.484948,214.773801 324.484948,214.86023 C324.571382,214.86023 324.657815,214.946658 325.089984,214.86023 L325.349285,214.86023 L327.510126,214.773801 C328.288029,214.773801 329.065933,214.687373 329.843836,214.600945 C331.140341,214.428089 331.313208,214.255233 331.313208,214.082377 C331.399642,213.995949 331.313208,213.736664 331.313208,213.563808 Z" id="Shape"></path>
        </g>
    </g>
</svg>