<?xml version="1.0" encoding="UTF-8"?>
<svg width="734px" height="414px" viewBox="0 0 734 414" version="1.1" xmlns="http://www.w3.org/2000/svg" xmlns:xlink="http://www.w3.org/1999/xlink">
    <title>show-whelans</title>
    <g id="Page-1" stroke="none" stroke-width="1" fill="none" fill-rule="evenodd">
        <g id="show-whelans" transform="translate(14.000000, 4.000000)" fill="#181818" fill-rule="nonzero">
            <path d="M606.913043,1.56852511 C647.101449,-2.52025632 690.695652,0.205597966 705,24.056823 C699.550725,27.4641409 693.42029,30.1899951 687.971014,33.597313 C674.347826,43.137803 658.681159,60.8558559 662.768116,85.3885445 C664.130435,91.5217166 666.173913,98.3363524 667.536232,104.469525 C667.536232,104.469525 667.536232,104.469525 666.855072,104.469525 C659.362319,102.425134 653.913043,99.6992795 652.550725,90.8402531 C649.144928,91.5217166 649.144928,91.5217166 646.42029,90.1587895 C645.73913,84.0256174 643.695652,81.2997631 643.014493,75.1665909 C644.376812,71.7592731 646.42029,71.0778095 649.144928,68.3519552 C649.144928,68.3519552 648.463768,67.6704916 648.463768,67.6704916 C641.652174,55.4041473 617.811594,72.4407366 624.623188,88.1143988 C628.710145,96.9734252 638.246377,103.106597 645.73913,108.558306 C658.681159,118.098796 672.304348,131.046604 679.115942,146.038802 C681.15942,152.853438 683.884058,159.668074 685.927536,166.48271 C700.913043,233.947603 628.028986,257.117365 567.405797,261.88761 C572.855072,231.903213 570.811594,210.096378 536.753623,212.822233 C538.797101,206.68906 547.652174,208.051988 549.014493,199.874425 C553.782609,200.555888 559.231884,198.511497 563.318841,199.874425 C571.492754,202.600279 578.304348,213.503696 591.246377,206.68906 C615.768116,222.362723 650.507246,202.600279 643.014493,166.48271 C637.565217,139.90563 617.130435,131.046604 604.188406,111.965624 C600.782609,107.195379 591.246377,94.9290345 594.652174,86.7514716 C605.550725,81.2997631 607.594203,68.3519552 605.550725,55.4041473 C620.536232,43.137803 634.84058,45.1821937 652.550725,49.9524387 C653.913043,45.8636573 655.275362,42.4563394 656.637681,38.367558 C643.014493,20.6495051 607.594203,14.516333 573.536232,23.3753594 C550.376812,29.5085316 527.898551,33.597313 506.782609,41.0934123 C480.217391,50.6339023 453.652174,59.4929288 427.086957,69.0334188 C427.768116,73.1222002 427.768116,77.2109816 427.086957,81.2997631 C422.318841,85.3885445 418.231884,88.1143988 410.057971,87.4329352 C410.057971,83.3441538 410.057971,78.5739088 410.73913,74.4851273 C414.144928,72.4407366 416.869565,70.3963459 416.869565,64.9446373 C416.188406,64.2631738 415.507246,62.9002466 414.826087,62.218783 C403.246377,59.4929288 392.347826,73.8036638 387.57971,80.6182995 C370.550725,77.2109816 333.086957,82.6626902 316.057971,87.4329352 C316.057971,99.6992795 305.15942,110.602697 294.942029,103.106597 C290.173913,99.6992795 291.536232,91.5217166 286.768116,89.4773259 C273.826087,84.0256174 260.884058,114.010015 252.710145,119.461723 C248.623188,122.187577 237.724638,126.276359 234.318841,121.506114 C228.869565,113.328551 242.492754,101.062207 245.898551,97.6548888 C261.565217,81.2997631 282.681159,78.5739088 309.927536,72.4407366 C320.826087,71.7592731 332.405797,71.7592731 343.304348,71.0778095 C337.855072,69.7148823 332.405797,65.6261009 331.724638,58.1300016 C333.086957,55.4041473 334.449275,52.678293 336.492754,50.6339023 C336.492754,50.6339023 337.173913,50.6339023 337.173913,50.6339023 C348.753623,65.6261009 382.130435,65.6261009 409.376812,58.8114652 C458.42029,44.5007302 504.057971,30.8714587 549.695652,15.1977966 C561.956522,11.7904787 574.898551,8.38316083 587.15942,4.97584297 C593.971014,4.2943794 600.101449,2.93145226 606.913043,1.56852511 Z M3.4057971,58.1300016 C15.6666667,56.7670745 34.057971,72.4407366 46.3188406,76.5295181 C50.4057971,77.8924452 59.942029,77.8924452 62.6666667,81.2997631 C62.6666667,81.9812266 62.6666667,82.6626902 63.3478261,83.3441538 C49.7246377,88.7958624 54.4927536,111.28416 54.4927536,128.32075 C54.4927536,167.164173 54.4927536,206.007597 54.4927536,244.85102 C54.4927536,259.161755 52.4492754,280.96859 62.6666667,284.375908 C64.0289855,284.375908 65.3913043,284.375908 66.7536232,284.375908 C77.6521739,278.924199 74.9275362,254.39151 74.9275362,238.717848 C74.9275362,208.051988 74.9275362,176.704663 74.9275362,146.038802 C74.9275362,135.816849 76.9710145,105.832452 72.2028986,101.74367 C70.8405797,100.380743 66.7536232,100.380743 65.3913043,99.0178159 C65.3913043,96.9734252 66.0724638,95.6104981 66.0724638,93.5661074 C66.7536232,93.5661074 66.7536232,92.8846438 67.4347826,92.8846438 C70.8405797,90.8402531 98.0869565,105.150988 111.710145,102.425134 C116.478261,101.062207 119.202899,103.788061 119.884058,107.876842 C117.84058,112.647087 112.391304,112.647087 110.347826,117.417332 C110.347826,158.98661 109.666667,201.237352 109.666667,242.80663 C109.666667,257.798828 106.26087,283.694444 117.15942,287.101762 C131.463768,291.872007 130.101449,265.976391 130.101449,254.39151 C130.101449,216.22955 130.101449,177.386127 130.101449,139.224167 C130.101449,129.002213 132.144928,99.0178159 127.376812,95.6104981 C123.289855,93.5661074 118.521739,94.9290345 117.84058,88.7958624 C121.927536,84.0256174 130.782609,82.6626902 135.550725,79.9368359 C145.768116,73.8036638 153.942029,66.3075645 162.797101,58.8114652 C166.202899,56.0856109 170.971014,53.3597566 175.73913,55.4041473 C175.73913,56.0856109 175.73913,56.7670745 176.42029,57.448538 C175.73913,65.6261009 168.927536,64.2631738 166.884058,71.0778095 C166.884058,85.3885445 166.884058,99.0178159 166.202899,113.328551 C166.202899,156.260756 166.202899,199.192961 166.202899,242.125166 C166.202899,282.331517 165.521739,316.404695 138.275362,330.033967 C121.246377,338.892993 93.3188406,315.723232 79.0144928,315.041768 C78.3333333,321.17494 78.3333333,327.989576 80.3768116,332.759821 C77.6521739,335.485676 73.5652174,335.485676 69.4782609,336.848603 C51.7681159,341.618848 44.9565217,330.033967 37.4637681,321.856404 C22.4782609,330.033967 6.8115942,334.122748 0,315.723232 C0,315.723232 0,315.723232 0,315.041768 C20.4347826,312.997378 18.3913043,272.791027 18.3913043,249.621265 C18.3913043,209.414915 18.3913043,169.208564 18.3913043,129.683677 C18.3913043,113.328551 21.7971014,88.7958624 16.3478261,76.5295181 C13.6231884,69.0334188 5.44927536,68.3519552 0,64.2631738 C0,63.5817102 0,62.9002466 0,62.218783 C1.36231884,60.8558559 2.04347826,59.4929288 3.4057971,58.1300016 Z M186.637681,349.114947 C186.637681,287.101762 186.637681,224.407113 186.637681,162.393928 C186.637681,146.720266 189.362319,97.6548888 184.594203,88.7958624 C181.188406,88.1143988 179.826087,87.4329352 177.782609,86.0700081 C177.782609,84.7070809 177.782609,83.3441538 178.463768,82.6626902 C179.144928,82.6626902 179.144928,81.9812266 179.826087,81.9812266 C183.231884,81.2997631 185.956522,81.2997631 189.362319,80.6182995 C201.623188,76.5295181 216.608696,68.3519552 224.782609,81.2997631 C224.782609,81.9812266 224.782609,82.6626902 224.782609,83.3441538 C224.782609,83.3441538 224.101449,84.0256174 224.101449,84.0256174 C222.057971,84.7070809 220.014493,84.7070809 217.289855,85.3885445 C215.246377,88.1143988 215.927536,95.6104981 215.927536,99.6992795 C215.927536,115.372942 215.927536,130.36514 216.608696,146.038802 C230.913043,135.135385 257.478261,133.090995 266.333333,146.720266 C273.826087,158.305147 271.782609,182.156372 271.782609,201.918815 C271.782609,233.947603 271.782609,265.976391 271.782609,298.005179 C273.144928,304.819815 277.913043,307.545669 278.594203,314.360305 C278.594203,315.041768 277.913043,315.041768 277.913043,315.723232 C267.014493,316.404695 260.202899,308.908596 250.666667,306.864205 C244.536232,305.501278 240.449275,309.59006 235,308.908596 C235,308.227133 234.318841,307.545669 234.318841,306.864205 C235.681159,304.819815 239.768116,301.412497 241.130435,299.368106 C241.811594,289.146153 241.811594,278.242735 242.492754,268.020782 C242.492754,244.85102 242.492754,220.999795 242.492754,197.14857 C242.492754,181.474908 245.217391,158.98661 226.826087,163.756855 C212.521739,167.845637 215.927536,187.60808 215.927536,204.64467 C215.927536,224.407113 215.927536,244.169557 215.927536,263.932 C215.927536,276.198345 215.246377,289.827616 218.652174,298.686643 C220.695652,304.138351 224.782609,305.501278 229.550725,308.908596 C228.869565,309.59006 228.188406,310.271523 227.507246,311.63445 C224.101449,313.678841 220.695652,314.360305 216.608696,313.678841 C215.927536,318.449086 215.246377,321.856404 211.84058,323.900795 C208.434783,326.626649 204.347826,323.900795 202.985507,321.17494 C202.985507,321.17494 202.304348,321.856404 202.304348,321.856404 C201.623188,333.441285 196.855072,347.75202 186.637681,349.114947 Z M410.73913,63.5817102 C412.101449,64.2631738 412.782609,64.2631738 414.144928,64.9446373 C414.144928,65.6261009 414.144928,66.3075645 414.144928,66.989028 C412.101449,69.0334188 410.057971,71.7592731 408.014493,73.8036638 C408.014493,88.1143988 407.333333,103.106597 407.333333,117.417332 C407.333333,158.98661 407.333333,200.555888 407.333333,241.443703 C407.333333,257.117365 401.884058,295.279325 418.231884,291.190543 C418.231884,291.872007 418.231884,293.234934 418.231884,293.916398 C416.188406,300.04957 413.463768,302.09396 407.333333,304.819815 C408.695652,308.227133 408.695652,310.952987 406.652174,313.678841 C404.608696,314.360305 401.884058,315.041768 399.84058,315.723232 C397.115942,314.360305 397.115942,312.997378 394.391304,315.041768 C391.666667,321.17494 382.811594,321.856404 375.318841,321.17494 C385.536232,308.908596 384.173913,288.464689 384.173913,265.976391 C384.173913,227.132968 384.173913,188.289544 384.173913,148.764657 C384.173913,138.542703 386.898551,100.380743 382.130435,96.2919617 C380.086957,97.6548888 379.405797,97.6548888 377.362319,97.6548888 C376,92.2031802 404.608696,67.6704916 410.73913,63.5817102 Z M591.246377,51.3153659 C613.724638,48.5895116 605.550725,80.6182995 591.246377,86.0700081 C592.608696,83.3441538 593.971014,81.9812266 594.652174,79.2553723 C591.246377,79.2553723 590.565217,78.5739088 589.202899,76.5295181 C588.521739,74.4851273 589.202899,73.8036638 589.884058,71.7592731 C581.028986,71.0778095 583.072464,60.1743923 586.478261,54.7226837 C587.84058,52.678293 589.202899,51.9968295 591.246377,51.3153659 Z M491.115942,78.5739088 C494.637012,83.1030205 494.815,92.0915654 494.667252,100.87429 L494.647306,101.970721 C494.594289,104.707432 494.521739,107.40506 494.521739,109.921233 L494.521739,183.519299 L494.521739,183.519299 C494.521739,185.481914 494.462887,187.434716 494.379317,189.360041 L494.33563,190.320333 C493.684458,204.049343 492.055942,216.215921 502.014493,220.318332 C498.608696,227.814431 493.84058,227.814431 486.347826,226.451504 C482.942029,232.584676 437.985507,254.39151 430.492754,253.710047 C423,244.169557 427.086957,197.14857 427.086957,178.06759 C427.086957,170.571491 425.043478,157.623683 429.811594,154.216365 C431.568986,152.751219 438.742071,152.672101 446.02347,152.191034 L447.039649,152.12112 C456.351268,151.453031 465.436232,149.991291 463.188406,143.994412 C462.507246,142.631485 459.782609,140.587094 458.42029,137.86124 C459.782609,134.453922 460.463768,132.409531 463.188406,130.36514 C466.253623,128.525189 469.318841,129.99715 472.384058,131.303516 L472.894928,131.519114 C473.065217,131.590071 473.235507,131.659921 473.405797,131.728067 C473.405797,125.594895 474.086957,117.417332 472.724638,112.647087 C472.043478,111.965624 470.681159,111.28416 470,111.28416 C458.42029,108.558306 446.15942,118.78026 448.884058,131.046604 C450.246377,131.728067 451.608696,132.409531 452.289855,133.772458 L452.289407,134.275757 C452.284705,135.935364 452.230624,136.55757 451.608696,137.179776 C440.710145,139.224167 433.898551,146.038802 425.043478,149.44612 C425.043478,149.44612 425.043478,149.44612 425.042369,149.445011 L425.034605,149.437243 C425.030168,149.432804 425.023513,149.426147 425.013531,149.41616 L424.738877,149.141383 C424.715446,149.117941 424.690213,149.092697 424.663038,149.06551 L424.362319,148.764657 L424.362319,148.764657 C424.362319,146.464717 425.008888,145.242874 425.695868,144.128841 L425.925526,143.760159 C426.384511,143.025456 426.831522,142.290753 427.086957,141.268557 L427.086957,131.728067 C427.086957,130.80924 427.077669,129.881121 427.062851,128.947261 L427.046329,128.011617 C427.043314,127.855402 427.040181,127.699059 427.036946,127.542607 L427.016458,126.6027 C426.737906,114.370147 426.053737,101.667101 433.217391,96.2919617 C439.029952,91.2037003 448.911304,88.8291784 458.934742,86.4805015 L460.438832,86.1280579 C468.711791,84.1869879 476.947826,82.1720364 482.942029,78.5739088 L491.115942,78.5739088 L491.115942,78.5739088 Z M578.985507,62.218783 C587.84058,83.3441538 583.072464,131.046604 583.072464,161.031001 C583.072464,171.934418 581.710145,184.882226 585.115942,193.741252 C587.84058,195.785643 589.884058,198.511497 592.608696,200.555888 C593.289855,205.326133 587.15942,206.68906 582.391304,205.326133 C576.942029,202.600279 570.811594,199.192961 565.362319,196.467107 C561.275362,195.10418 556.507246,197.830034 553.101449,197.14857 C552.42029,192.378325 557.869565,188.971007 559.231884,182.156372 C561.275362,169.208564 560.594203,109.921233 556.507246,103.788061 C552.42029,102.425134 544.927536,101.74367 541.521739,105.150988 C534.710145,112.647087 537.434783,161.031001 537.434783,176.704663 C537.434783,177.808634 537.423748,178.907085 537.412106,179.992565 L537.40437,180.714214 C537.395506,181.553706 537.387676,182.384349 537.385788,183.202636 L537.385739,183.900919 C537.407536,193.168823 538.388406,200.692181 547.652174,201.237352 C547.652174,201.918815 547.652174,201.918815 546.971014,202.600279 C542.884058,206.007597 540.84058,206.007597 535.391304,208.733451 C536.753623,215.093778 533.877617,215.699523 530.396135,216.204311 L530.046103,216.254663 C529.987473,216.263068 529.928709,216.271498 529.869826,216.279979 L529.515253,216.331676 C529.396681,216.349251 529.277772,216.367236 529.158662,216.385842 L528.80086,216.443732 C527.547375,216.654329 526.286473,216.956445 525.173913,217.592478 C521.768116,228.495895 521.768116,234.629067 513.594203,240.762239 L512.913043,240.762239 L512.913043,240.762239 L512.913043,123.550505 L512.913043,123.550505 C512.913043,118.253674 513.483022,111.018052 513.783556,103.709854 L513.831006,102.491469 C514.203235,92.3379946 513.965744,82.2445194 510.869565,77.2109816 C508.826087,77.2109816 507.463768,76.5295181 505.42029,76.5295181 C510.869565,66.3075645 516.318841,73.1222002 525.173913,70.3963459 C527.898551,69.0334188 531.985507,64.9446373 535.391304,62.9002466 C540.15942,60.8558559 544.927536,59.4929288 549.695652,58.1300016 C559.231884,56.7670745 574.898551,56.7670745 578.985507,62.218783 Z M472.043478,143.994412 C469.788288,152.56796 463.351854,157.257191 456.887168,161.821252 L456.095715,162.379746 C453.063436,164.520204 450.06228,166.666889 447.521739,169.208564 C447.280925,173.54515 446.784703,179.500047 446.51465,185.657986 L446.470661,186.715358 C446.040855,197.656626 446.407115,208.981256 450.246377,212.822233 C477.492754,211.459305 472.724638,194.422716 472.724638,168.5271 C472.724638,163.075392 474.768116,147.40173 472.043478,143.994412 Z M362.376812,124.231968 C365.782609,129.683677 367.144928,174.660272 364.42029,184.200762 C342.623188,185.56369 329.681159,199.192961 324.231884,216.22955 C333.086957,215.548087 340.57971,224.407113 334.449275,233.947603 C327.637681,244.169557 319.463768,235.991994 314.695652,232.584676 C314.695652,234.18812 314.66619,235.806301 314.633262,237.41538 L314.613297,238.379544 C314.42696,247.364654 314.29497,255.914782 318.782609,259.843219 C339.898551,258.480292 341.942029,252.34712 341.942029,230.540285 C341.942029,224.407113 341.942029,217.592478 341.26087,211.459305 C339.898551,211.459305 339.217391,210.777842 337.855072,210.777842 C337.855072,210.096378 337.855072,210.096378 338.536232,209.414915 C341.26087,203.281742 361.695652,191.696862 370.550725,193.059789 C370.550725,193.059789 370.550725,193.741252 371.231884,193.741252 C369.188406,196.467107 367.826087,199.192961 365.782609,201.918815 C362.376812,214.18516 365.101449,238.036385 365.101449,251.665656 C365.101449,254.176311 365.183633,256.892517 365.257166,259.662816 L365.287885,260.852957 C365.490563,269.002182 365.507755,277.429761 363.057971,282.331517 C359.509606,288.543929 349.896011,291.866847 340.423469,294.558108 L339.409376,294.844144 C339.240544,294.891448 339.071829,294.938576 338.903264,294.985541 L337.893971,295.265482 C333.69849,296.424618 329.641557,297.498043 326.275362,298.686643 C318.782609,301.412497 306.521739,308.227133 299.028986,304.138351 C292.387681,300.560667 291.876812,289.699842 292.036458,278.455693 L292.050557,277.555474 C292.076094,276.054182 292.110962,274.549347 292.142221,273.057324 L292.160439,272.163778 C292.169228,271.717904 292.177459,271.273478 292.184783,270.830941 L292.198117,269.948517 C292.210035,269.068873 292.217391,268.197962 292.217391,267.339318 L292.217391,177.386127 L292.217391,177.386127 C292.217391,165.801246 290.173913,148.083193 295.623188,140.587094 C299.444493,135.373898 310.706919,132.464934 322.633731,129.871473 L324.039542,129.567696 C335.069335,127.197629 346.437681,125.02928 352.84058,121.506114 C357.608696,120.82465 360.333333,121.506114 362.376812,124.231968 Z M340.57971,153.534902 C338.536232,152.171975 337.173913,151.490511 333.768116,152.853438 C332.123052,153.676338 330.229676,154.188709 328.294134,154.653036 L327.566732,154.82542 C327.323874,154.882472 327.08076,154.939286 326.837792,154.996375 L326.109731,155.168978 C322.354513,156.070315 318.7312,157.160802 316.73913,160.349537 C314.695652,163.756855 313.333333,208.733451 315.376812,214.18516 L315.376812,214.18516 L315.376812,213.503696 C318.101449,206.68906 321.507246,199.874425 324.231884,193.059789 C327.349498,187.267349 331.34073,181.766244 335.443963,176.365986 L336.895574,174.46389 C338.591652,172.24894 340.291527,170.047288 341.942029,167.845637 C341.942029,162.393928 341.942029,156.94222 340.57971,153.534902 Z M586.478261,177.386127 C590.565217,177.386127 594.652174,177.386127 598.73913,176.704663 C598.73913,176.704663 598.73913,177.386127 598.057971,177.386127 C593.289855,179.430517 589.202899,184.200762 587.84058,188.971007 C587.84058,188.971007 587.84058,188.971007 587.15942,188.971007 C587.15942,185.56369 586.478261,181.474908 586.478261,177.386127 Z M551.73913,188.289544 C551.057971,190.333935 547.652174,192.378325 549.014493,196.467107 C546.971014,196.467107 544.927536,196.467107 544.246377,195.785643 C537.434783,192.378325 548.333333,189.652471 551.73913,188.289544 Z M508.826087,208.051988 C508.826087,213.503696 508.826087,218.955405 509.507246,223.72565 C495.202899,231.903213 482.942029,245.532484 479.536232,264.613464 C476.811594,279.605663 491.115942,302.775424 504.73913,295.960788 C508.144928,294.597861 510.188406,292.55347 510.869565,288.464689 C510.188406,287.783225 509.507246,287.101762 508.826087,286.420298 C504.73913,287.783225 502.695652,286.420298 499.971014,285.057371 C499.289855,283.01298 499.289855,280.96859 498.608696,278.924199 C506.101449,261.88761 529.942029,276.879808 514.275362,299.368106 C523.811594,299.368106 533.347826,299.368106 536.753623,291.872007 C536.753623,290.50908 536.753623,289.146153 536.753623,287.783225 C533.347826,287.783225 532.666667,286.420298 530.623188,284.375908 C530.623188,279.605663 532.666667,276.879808 533.347826,274.153954 C522.449275,270.065173 534.710145,254.39151 546.289855,257.798828 C559.231884,261.88761 559.231884,285.057371 551.057971,295.960788 C540.84058,310.271523 510.188406,316.404695 487.710145,312.315914 C465.231884,308.227133 448.884058,293.916398 444.115942,270.746636 C433.217391,276.198345 422.318841,280.96859 411.42029,286.420298 C410.73913,281.650053 410.73913,275.516881 410.73913,269.383709 C416.869565,265.294928 423,261.88761 429.811594,257.798828 C432.536232,257.798828 435.26087,257.117365 437.985507,257.117365 C451.608696,251.665656 465.913043,244.169557 479.536232,237.354921 C482.26087,235.991994 484.985507,231.903213 487.028986,231.221749 C489.072464,231.221749 490.434783,231.221749 492.478261,231.903213 C499.971014,231.221749 502.695652,226.451504 505.42029,220.318332 C505.42029,219.636868 504.73913,218.955405 504.73913,218.273941 C502.695652,217.592478 499.971014,217.592478 498.608696,216.22955 C502.014493,212.822233 505.42029,210.777842 508.826087,208.051988 Z M222.73913,402.269106 C220.014493,393.410079 229.550725,386.595443 233.637681,381.825198 C219.333333,387.958371 190.724638,404.99496 184.594203,381.143735 C178.463768,357.29251 217.971014,351.840801 211.15942,376.37349 C232.956522,372.284708 270.42029,353.203728 281.318841,338.892993 C264.289855,344.344702 213.884058,357.973973 194.811594,350.477874 C195.492754,349.796411 195.492754,349.114947 196.173913,348.433483 C198.898551,346.389093 199.57971,342.981775 201.623188,340.937384 C213.202899,343.663238 240.449275,338.21153 251.347826,335.485676 C290.173913,325.263722 324.231884,314.360305 356.246377,298.686643 C363.73913,294.597861 371.913043,291.190543 379.405797,287.101762 C380.086957,287.101762 380.086957,287.101762 380.768116,287.101762 C380.768116,291.872007 381.449275,299.368106 380.086957,302.775424 C364.42029,310.952987 349.434783,318.449086 334.449275,326.626649 C307.202899,340.937384 277.231884,353.885192 257.478261,375.010563 C252.028986,381.143735 232.275362,409.765205 223.42029,404.313496 M81.7391304,317.086159 C101.492754,325.263722 121.927536,332.078358 145.768116,336.848603 C158.028986,338.21153 170.971014,338.892993 183.231884,340.255921 C183.231884,342.981775 183.231884,345.026166 183.231884,347.75202 C179.826087,349.114947 178.463768,353.203728 175.73913,355.248119 C162.797101,364.788609 151.898551,360.699828 142.362319,353.885192 C142.362319,353.885192 142.362319,354.566656 142.362319,354.566656 C133.507246,364.107146 113.753623,366.833 119.202899,346.389093 C100.811594,348.433483 76.2898551,338.21153 81.7391304,317.086159 Z" id="Shape"></path>
        </g>
    </g>
</svg>