<?xml version="1.0" encoding="UTF-8"?>
<svg width="734px" height="414px" viewBox="0 0 734 414" version="1.1" xmlns="http://www.w3.org/2000/svg" xmlns:xlink="http://www.w3.org/1999/xlink">
    <title>show-whelans</title>
    <g id="Page-1" stroke="none" stroke-width="1" fill="none" fill-rule="evenodd">
        <g id="pycc" transform="translate(202.000000, 14.000000)" fill="#000000" fill-rule="nonzero">
            <path d="M286.163981,107.991986 C267.19284,99.2840606 236.441783,100.175423 216.648787,108.334817 C207.471411,112.105966 199.218622,118.002671 189.253636,120.676759 C184.219777,122.013802 178.706503,119.853963 174.871182,119.648264 C168.775761,78.8512912 151.790768,42.4082814 126.24479,20.569902 C117.615317,13.1990205 111.759604,0 96.1101239,0 C93.8157801,0.685663402 91.5556801,1.3713268 89.2613363,2.0569902 C86.9669924,3.6682992 84.7068925,5.24532502 82.4125486,6.85663402 C83.337135,10.9363313 89.8777272,9.32502226 93.3706089,10.9706144 C103.369839,15.6674087 113.300581,22.6954586 120.765759,30.1691897 C136.346751,45.7680321 151.311352,71.548976 160.488728,93.2502226 C161.858485,99.3183437 163.228243,105.352182 164.598,111.420303 C164.598,113.134461 164.598,114.84862 164.598,116.562778 C158.33136,115.020036 151.961987,110.426091 146.448713,107.649154 C133.538748,101.135352 95.3225134,90.7475512 74.1940034,95.9928762 C62.4825765,98.9069457 52.1409072,102.575245 43.374459,108.334817 C4.74729661,133.601514 -11.5185741,215.332591 8.78808133,270.15138 C24.7457566,313.176759 71.659952,354.727961 108.095502,378.143366 C114.533363,382.29163 125.457179,384.931434 132.408699,385 C141.449098,369.949688 173.535668,365.904274 194.732666,373.00089 C203.293651,375.880677 215.998152,382.428762 228.634165,379.857524 C251.20092,375.26358 276.644167,362.167409 288.561057,346.945681 C295.272869,338.374889 301.573754,329.426981 307.052784,319.519145 C336.160131,267.065895 342.837699,134.012912 286.163981,107.991986 Z M293.355208,136.447017 C299.587605,136.275601 310.682641,147.314782 308.422541,152.902939 C307.97737,153.485752 307.497955,154.034283 307.052784,154.617097 C304.450244,153.485752 302.909267,151.84016 301.231314,149.817453 C300.991607,150.160285 300.786143,150.503117 300.546435,150.845948 C300.443704,152.560107 300.306728,154.274265 300.203996,155.988424 C302.361364,159.588157 314.312499,165.484862 309.792299,172.787177 C306.915808,176.078362 302.601072,170.455922 300.888875,169.016028 C300.786143,169.016028 300.649167,169.016028 300.546435,169.016028 C299.10819,179.09528 308.080102,178.4439 308.422541,188.900267 C307.943126,189.79163 307.874638,190.031612 307.052784,190.614426 C303.491414,192.60285 285.033931,184.71772 281.712269,182.729297 C278.048168,168.673197 285.170907,142.412289 293.355208,136.447017 Z M265.960058,114.162956 C275.959288,114.882903 269.829623,127.293411 271.439088,134.047195 C272.363674,134.150045 273.254017,134.287177 274.178603,134.390027 C274.418311,134.047195 274.623774,133.704363 274.863482,133.361532 C275.171677,129.110419 275.411385,123.93366 276.575679,120.676759 C277.157826,120.333927 277.705729,119.991095 278.287876,119.648264 C292.601842,122.459484 286.917348,137.784061 283.766906,148.103295 C281.986221,153.862867 281.54105,160.033838 278.630315,164.559216 C274.452554,165.759127 267.911962,164.5935 266.302497,161.130899 C263.220543,155.097061 272.569138,151.463045 267.329815,147.0748 C266.644937,147.417631 265.960058,147.760463 265.275179,148.103295 C260.41254,151.737311 263.220543,158.731077 255.344437,160.102404 C255.001998,143.749332 256.097804,120.745325 265.960058,114.162956 Z M237.537589,110.048976 C245.037011,109.774711 254.008923,112.277382 256.714194,116.90561 C258.220928,119.476848 258.186684,125.853517 255.686876,127.190561 C252.365214,127.773375 249.077796,128.321906 245.756134,128.90472 C247.091648,141.383793 250.892725,157.359751 241.304422,163.530721 C230.07241,162.296527 228.394457,153.931434 230.346362,141.246661 C230.58607,137.029831 230.791533,132.778718 231.031241,128.561888 C230.928509,128.459038 230.791533,128.321906 230.688801,128.219056 C223.63455,128.527605 220.41562,127.601959 217.676105,122.733749 C219.388302,113.237311 229.524507,113.44301 237.537589,110.048976 Z M231.37368,264.666073 C228.908117,272.276937 219.833473,284.001781 210.484878,274.951024 C206.409849,271.008459 207.711119,233.15984 209.11512,224.211932 C209.560291,221.503562 210.484878,216.669635 209.45756,213.926981 C209.080876,223.32057 204.903116,232.199911 199.869257,237.239537 C195.212081,241.902048 190.691881,241.902048 189.938515,250.952805 C190.383686,250.952805 190.863101,250.952805 191.308272,250.952805 C193.123201,248.450134 201.307502,242.107747 204.663408,244.781834 C205.245555,245.227516 205.793458,245.70748 206.375605,246.153161 C206.272873,254.004007 202.608772,262.506233 197.472181,265.351736 C194.76691,266.860196 190.383686,265.008905 188.568757,267.408727 C187.712659,268.917186 187.541439,270.734194 187.883879,272.551202 C191.342516,273.408281 203.567602,274.985307 199.526818,282.493321 C195.006618,290.241318 170.350982,290.995548 165.625319,283.178985 C161.755754,276.733749 167.303272,243.821906 169.049712,237.239537 C172.097423,236.416741 178.124356,236.451024 181.71997,235.182547 C193.910812,230.89715 202.026625,220.063669 208.430241,209.813001 C208.669949,210.052983 208.875413,210.258682 209.11512,210.498664 C209.354828,210.944346 209.560291,211.42431 209.799999,211.869991 C209.902731,211.869991 210.039707,211.869991 210.142438,211.869991 C211.204,197.539626 215.039322,192.191451 221.100499,183.757792 C223.394843,178.718166 225.654942,173.712823 227.949286,168.673197 C229.216312,167.747551 230.449094,166.856189 231.71612,165.930514 C247.262867,165.89626 256.919658,195.619768 253.289801,212.555654 C250.653017,213.618433 248.564137,215.572573 245.413695,216.669635 C247.160136,222.634907 260.035856,242.587711 259.11127,246.838825 C258.426391,249.92431 255.995072,251.32992 254.659558,253.695459 C240.105884,255.478183 235.551441,249.238646 228.976604,241.353517 C230.209386,246.873108 233.770756,257.363758 231.37368,264.666073 Z M138.915047,255.752449 C138.127436,254.963936 136.86041,254.998219 135.148214,255.066785 C135.148214,255.306768 135.148214,255.512467 135.148214,255.752449 C130.730746,258.666518 135.011238,265.077471 133.778456,270.837044 C132.237479,278.070793 128.470646,281.876224 119.396002,281.807658 C118.026244,279.750668 116.656487,277.693678 115.286729,275.636687 C112.375995,266.380232 107.136672,225.823241 113.574532,218.726625 C115.183998,218.040962 116.759219,217.355298 118.368684,216.669635 C133.059333,216.223954 134.326359,222.463491 133.778456,235.86821 C134.360603,236.553874 134.908506,237.239537 135.490653,237.9252 C137.237094,238.02805 138.778071,238.062333 139.599926,237.239537 C139.702657,233.81122 139.839633,230.382903 139.942365,226.954586 C140.935439,223.731968 155.626089,215.675423 160.488728,220.097952 C171.001617,224.211932 162.885804,270.597061 159.11897,276.322351 C153.98238,284.138914 140.832707,278.036509 139.257486,270.837044 C138.093192,265.454586 141.483342,259.249332 138.915047,255.752449 Z M173.158985,135.761354 C178.124356,129.144702 196.410619,126.470614 205.348287,122.733749 C225.141283,122.459484 232.948901,145.154942 226.921968,165.24488 C224.353673,173.815672 220.210156,181.563669 215.279029,187.871772 C211.854635,192.225735 202.84848,198.053874 200.554136,201.58504 C200.314428,203.299199 200.108964,205.013357 199.869257,206.727516 C198.636475,212.72707 197.711889,218.658059 194.732666,222.840606 C191.753444,227.023152 177.473721,237.410953 172.816546,227.640249 C168.844249,220.577916 177.405233,204.49911 178.980455,197.47106 C182.404848,182.077916 178.603771,166.033393 174.528743,154.274265 C173.022009,149.851736 169.768835,140.286732 173.158985,135.761354 Z M105.698427,103.535174 C106.143598,103.295191 106.623013,103.089492 107.068184,102.84951 C117.067414,102.712378 124.292885,107.272039 131.038941,110.734639 C154.119355,122.52805 168.810005,135.109973 175.8985,163.18789 C179.425626,177.106857 177.576453,206.624666 168.364834,212.898486 C162.611852,216.806768 149.975839,213.275601 142.68188,212.212823 C134.018164,210.944346 120.834247,217.492431 113.916972,212.555654 C110.150139,209.881567 110.115895,200.316563 111.177457,194.042743 C113.300581,181.35797 117.923513,158.593945 115.629169,143.989314 C114.396387,136.275601 113.608776,129.384684 111.519896,122.733749 C109.704967,116.939893 104.499889,110.597507 105.698427,103.535174 Z M27.6222474,269.465717 C14.1643796,263.397596 5.26095569,214.818344 9.4729601,191.300089 C16.3559917,153.040071 37.3475259,124.379341 68.7149733,111.420303 C73.7488322,110.048976 78.7484472,108.677649 83.7823062,107.305153 C109.876187,107.06634 122.135517,143.817898 111.177457,169.35886 C103.335595,187.63179 66.2151658,197.196794 44.7442165,202.613535 C41.9362136,210.738646 44.3675332,221.366429 42.6895802,231.75423 C40.4637242,245.60463 39.0254788,261.923419 30.7042018,269.808549 C29.6768837,269.671416 28.6495655,269.568566 27.6222474,269.465717 Z M52.9627617,319.519145 C46.9358286,314.102404 30.5672261,293.738201 33.7861563,280.436331 C36.8338668,267.888691 41.6622621,256.986643 44.7442165,243.410508 C47.1070483,233.091273 44.3332893,213.995548 50.565686,207.070347 C56.8665707,200.076581 72.3105868,197.916741 81.3852305,194.042743 C84.7753804,192.60285 90.1174347,193.185663 92.3432907,190.614426 C101.691886,191.300089 106.759989,191.84862 109.12282,200.213713 C112.51297,212.315672 111.280189,234.154052 97.8223208,233.81122 C94.4664149,229.937222 89.946215,229.765806 86.1793818,225.583259 C84.0562577,223.21772 83.885038,219.823687 82.0701092,217.012467 C81.7276699,217.355298 81.3852305,217.69813 81.0427911,218.040962 C79.5360578,221.057881 80.9743032,226.337489 80.3579123,230.382903 C79.2278624,241.353517 78.0635685,252.324132 76.9335185,263.294746 C75.9062004,269.637133 75.3925413,277.796527 80.0154729,279.750668 C81.7276699,277.350846 86.4533333,275.808103 87.8915787,274.265361 C88.0970424,271.454141 98.0277845,260.620659 102.616472,260.552093 C113.403313,266.860196 117.20439,293.121104 112.204775,309.234194 C105.390231,331.209706 70.0504869,334.912289 52.9627617,319.519145 Z M145.078956,354.83081 C144.976224,372.178094 124.292885,381.811665 110.150139,371.286732 C90.9050453,356.956367 109.020089,325.655833 114.94429,308.548531 C117.992,299.772039 119.532978,290.309884 125.559911,284.550312 C126.24479,284.653161 126.929668,284.790294 127.614547,284.893143 C134.257871,288.012912 154.804234,329.358415 134.120895,330.48976 C128.984305,328.432769 127.956987,325.41585 127.272108,318.833482 C127.0324,318.936331 126.826937,319.073464 126.587229,319.176313 C125.457179,329.529831 121.245175,341.63179 123.162835,352.430988 C123.505275,352.670971 123.847714,352.87667 124.190153,353.116652 C129.46372,350.373998 131.792308,345.025824 137.20285,342.488869 C140.010853,342.694568 142.236709,343.68878 143.366759,345.574354 C145.078956,347.734194 145.1132,350.785396 145.078956,354.83081 Z M152.955061,337.346394 C146.585689,335.700801 143.332515,326.307213 145.078956,316.776492 C147.544519,303.200356 151.619548,295.898041 161.858485,290.035353 C184.733436,289.898486 174.289035,342.865984 152.955061,337.346394 Z M233.085877,364.087266 C226.305577,360.693232 227.230164,345.334372 225.89465,336.317898 C225.654942,334.809439 225.449479,333.266696 225.278259,331.689671 C225.552211,347.014248 225.107039,363.401603 223.155135,366.82992 C221.134743,370.39537 216.683031,372.589492 211.169757,372.658059 C196.616083,365.355744 213.258637,342.38602 209.11512,330.48976 C208.395998,339.849065 204.834628,350.71683 199.526818,355.859305 C197.02701,355.859305 196.753059,355.413624 195.417545,354.487979 C194.561446,346.054319 196.924278,339.300534 197.814621,331.861086 C197.711889,331.861086 197.574913,331.861086 197.472181,331.861086 C196.06818,345.471505 187.02778,365.938557 169.734591,361.687444 C161.447558,351.025378 175.487573,328.192787 177.610697,316.776492 C179.151674,308.582814 175.864256,296.789403 182.404848,293.121104 C189.28788,287.087266 203.293651,298.709261 204.320969,304.091719 C204.423701,304.091719 204.560676,304.091719 204.663408,304.091719 C204.492189,298.297863 200.759599,285.167409 204.663408,282.15049 C206.820776,281.361977 209.012388,280.539181 211.169757,279.750668 C216.511811,279.682102 219.422546,280.710597 221.442938,283.864648 C224.833088,289.17854 222.709964,297.200801 223.840014,305.120214 C223.942746,305.771594 224.045477,306.59439 224.113965,307.485752 C224.559136,286.333037 228.873873,265.660285 238.564907,256.09528 C239.147054,256.19813 239.694957,256.335263 240.277104,256.438112 C246.098574,259.043633 248.118966,271.865539 246.441013,279.750668 C244.900036,281.807658 242.468716,282.459038 238.907347,282.493321 C238.736127,286.470169 237.811541,295.212378 239.934665,298.26358 C240.722275,297.337934 241.54413,296.446572 242.33174,295.520926 C243.016619,295.520926 243.701498,295.520926 244.386377,295.520926 C252.091263,300.32057 260.41254,322.124666 242.33174,321.576135 C242.434472,325.107302 242.571448,328.672752 242.67418,332.203918 C244.078181,334.329475 255.207461,328.604185 255.344437,342.488869 C253.597996,346.088602 236.647247,365.32146 233.085877,364.087266 Z M262.878103,339.060552 C262.295956,338.957703 261.748053,338.82057 261.165906,338.71772 C253.734972,332.923865 251.988531,290.686999 249.522967,277.693678 C248.564137,272.619768 246.85194,265.28317 248.15321,260.209261 C252.810385,261.374889 255.104729,267.751558 258.083952,270.837044 C274.829238,288.287177 283.047783,296.00089 271.439088,324.318789 C269.178988,329.838379 268.048938,336.386465 262.878103,339.060552 Z M306.367905,286.950134 C303.62839,299.429207 297.01931,319.519145 290.958133,329.118433 C288.663789,332.786732 284.554516,340.98041 278.630315,339.403384 C276.541435,338.991986 276.027776,338.237756 274.863408,337.003562 C274.829238,325.964381 286.67764,320.376224 284.451784,308.548531 C283.150515,301.589047 273.973139,285.098842 275.8908,279.065004 C277.157826,275.088157 281.575294,273.408281 286.163981,274.608192 C289.28018,278.756456 291.608768,282.870436 292.67033,289.349955 C292.773061,289.349955 292.910037,289.349955 293.012769,289.349955 C293.594916,277.28228 297.293261,273.853963 303.62839,267.751558 C304.552976,267.854408 305.443319,267.991541 306.367905,268.09439 C306.470637,268.437222 306.607613,268.780053 306.710344,269.122885 C308.764981,273.305432 307.326735,282.596171 306.367905,286.950134 Z M284.451784,270.837044 C279.178218,272.551202 270.035086,274.642476 264.247861,273.579697 C264.247861,272.996883 264.247861,272.448353 264.247861,271.865539 C268.802305,267.065895 273.390992,262.266251 277.945436,257.466607 C282.705344,250.815672 286.746128,243.924755 291.643011,237.239537 C293.526428,234.668299 299.005458,229.491541 298.14936,224.897596 C295.786528,212.17854 281.54105,209.470169 280.342512,196.785396 C279.10973,197.779608 279.178218,198.396705 277.260557,198.842386 C279.28095,205.630454 297.087798,221.949243 294.382527,228.325913 C287.739203,227.777382 273.6307,218.623776 269.726891,214.612645 C268.596841,213.001336 267.432547,211.42431 266.302497,209.813001 C265.89157,219.892253 257.878488,219.720837 254.659558,226.268923 C254.214387,226.268923 253.734972,226.268923 253.289801,226.268923 C253.187069,225.823241 253.050093,225.343277 252.947361,224.897596 C254.59107,223.080588 254.145899,219.652271 254.659558,216.669635 C256.166291,208.201692 256.166291,196.991095 254.317119,187.871772 C252.810385,180.329475 249.762675,170.730187 253.289801,163.873553 C269.589915,160.753785 280.000072,173.472841 279.657633,189.928762 C295.752284,188.797418 303.936585,199.665183 310.134738,209.813001 C310.23747,209.813001 310.374446,209.813001 310.477178,209.813001 C309.141664,194.248442 312.874253,181.975067 315.613768,168.673197 C315.956208,168.673197 316.298647,168.673197 316.641086,168.673197 C316.641086,168.913179 316.641086,169.118878 316.641086,169.35886 C319.723041,176.146928 318.284795,184.134907 320.750359,191.985752 C322.599532,197.916741 322.051629,204.636242 323.147435,211.869991 C328.386757,246.701692 308.901956,262.849065 284.451784,270.837044 Z M78.9881548,140.218166 C76.7965427,137.304096 74.1940034,137.23553 70.0847308,136.104185 C63.338675,144.26358 58.4760358,153.657168 53.9900799,164.216385 C61.1813069,161.508014 80.6318638,149.680321 78.9881548,140.218166 Z M141.312122,189.243099 C142.236709,189.243099 143.127051,189.243099 144.051638,189.243099 C150.010083,186.466162 156.687651,154.10285 148.16091,149.474622 C146.277494,154.617097 140.010853,186.500445 141.312122,188.557435 C141.312122,188.763134 141.312122,189.003117 141.312122,189.243099 Z M200.896575,174.844167 C203.362139,171.484417 209.28634,155.988424 203.63609,151.874443 C202.437552,150.948798 201.170527,150.777382 198.841939,150.845948 C197.780377,154.65138 199.424086,172.067231 200.896575,175.529831 C200.896575,175.289849 200.896575,175.049866 200.896575,174.844167 Z M263.220543,178.272484 C263.665714,181.940784 264.145129,185.5748 264.5903,189.243099 C264.93274,189.243099 265.275179,189.243099 265.617618,189.243099 C266.199765,188.317453 266.747668,187.426091 267.329815,186.500445 C267.466791,182.557881 265.994302,179.232413 263.220543,178.272484 Z M235.482953,198.156723 C235.106269,195.928317 234.147439,194.934105 231.71612,194.728406 C230.791533,195.654052 229.901191,196.545414 228.976604,197.47106 C228.394457,202.030721 227.846554,206.624666 227.264408,211.184328 C227.606847,211.184328 227.949286,211.184328 228.291726,211.184328 C230.003923,207.618878 236.818466,202.956367 235.482953,198.156723 Z M225.278259,331.689671 C225.107039,322.021817 224.661868,312.799644 224.113965,307.485752 C223.976989,315.67943 224.387917,323.941674 225.278259,331.689671 Z M263.905421,292.435441 C263.665714,292.53829 263.46025,292.675423 263.220543,292.778272 C263.768446,296.75512 264.521812,311.56545 265.960058,315.062333 C266.06279,315.062333 266.199765,315.062333 266.302497,315.062333 C267.843474,307.760018 269.624159,296.960819 263.905421,292.435441 Z M161.173607,311.634016 C158.845019,315.02805 156.653407,320.753339 157.749213,326.375779 C158.33136,326.478629 158.879263,326.615761 159.46141,326.718611 C159.701117,326.375779 159.906581,326.032947 160.146289,325.690116 C161.618778,323.701692 163.707658,314.513802 161.516046,311.634016 C161.413314,311.634016 161.310582,311.634016 161.173607,311.634016 Z" id="Shape"></path>
        </g>
    </g>
</svg>