<?xml version="1.0" encoding="UTF-8"?>
<svg width="734px" height="414px" viewBox="0 0 734 414" version="1.1" xmlns="http://www.w3.org/2000/svg" xmlns:xlink="http://www.w3.org/1999/xlink">
    <title>show-whelans</title>
    <g id="Page-1" stroke="none" stroke-width="1" fill="none" fill-rule="evenodd">
        <g id="longitude" transform="translate(17.000000, 112.000000)" fill="#000000" fill-rule="nonzero">
            <path d="M697.15506,127.263021 C692.593428,127.348962 688.634276,130.270958 686.396494,132.84919 C679.769217,132.677308 676.412545,130.185017 670.473817,129.841253 C671.936982,125.286377 679.769217,122.278439 683.384096,119.528325 C693.281976,112.051452 687.945727,96.9258244 683.384096,88.5895409 C687.085042,85.3237804 690.872057,81.9720788 694.573004,78.7063182 C694.745141,68.3933902 694.831209,58.0804622 695.003346,47.7675341 C694.400867,47.0800056 693.884456,46.306536 693.281976,45.6190074 C676.326476,41.5797773 659.457045,37.7124293 642.071203,33.1575527 C635.443927,31.4387314 627.783828,28.6026762 620.123729,28.430794 C618.574496,30.1496154 616.939194,31.8684367 615.38996,33.5872581 C611.258671,32.2981421 608.934821,27.2276191 604.631394,25.4228567 C595.594199,23.27433 586.557004,21.1258033 577.519809,18.9772767 C574.163136,18.0319249 569.171162,20.0945105 567.191586,19.406982 C566.675174,19.2350999 565.814489,17.5162785 565.039872,17.2584553 C559.35935,15.1958697 533.796998,12.1019913 529.751777,12.5316966 C525.018008,11.5004038 520.284239,10.5550521 515.55047,9.5237593 C499.025313,5.91423449 489.213501,13.2192252 483.274773,21.985214 L483.274773,22.4149194 L482.414088,22.4149194 C482.500156,17.4303375 483.102636,10.469111 481.553402,6.94552729 C467.179958,1.53124007 446.265307,6.08611662 429.481944,3.07817928 C416.571665,2.47659181 403.661386,1.96094541 390.751108,1.35935794 C378.701514,-0.789168737 366.565852,2.82035608 353.741641,0.499947268 C347.544708,-0.617286603 339.540335,0.414006201 333.515538,0.929652603 C331.708099,1.10153474 331.880236,0.242124067 330.503139,0.0702419328 C324.736548,0.499947268 319.056025,0.929652603 313.289434,1.35935794 L297.7971,1.35935794 C282.993313,1.445299 263.025415,1.70312221 256.484207,10.38317 L255.623522,10.38317 C255.021042,8.4924665 254.504631,6.68770409 253.902151,4.79700062 C246.155984,2.73441501 232.557157,5.05482382 224.20851,6.51582196 C221.454317,7.03146836 217.839439,6.00017556 216.462343,7.80493796 C215.085246,9.69564144 216.720548,13.8208127 217.323028,15.539634 C218.614056,18.5475713 219.905084,21.5555087 221.196112,24.563446 C221.368249,32.8997295 221.454317,41.150072 221.626454,49.4863555 L221.626454,51.6348821 C218.011576,49.9160608 216.032,43.728304 213.880287,40.4625434 C207.166942,30.4074386 200.367528,20.4382748 193.654183,10.38317 C187.371181,9.2659361 166.112255,12.0160502 161.378486,14.6802233 C161.12028,15.539634 160.776006,16.3990447 160.517801,17.2584553 C163.444131,20.6101569 163.960542,24.9072103 166.112255,29.2902047 L166.112255,33.5872581 C165.940118,33.4153759 165.854049,33.3294349 165.681912,33.1575527 C160.862075,28.0010887 163.185925,19.2350999 155.784032,16.3990447 C150.447783,14.3364591 140.377766,15.4536929 134.697243,16.82875 C119.635251,20.4382748 85.4660462,22.1570962 79.1830438,34.0169634 C74.8796175,42.0954237 76.3427825,55.6741123 74.4492749,65.8151582 C74.1910693,69.0809187 73.8467952,72.4326203 73.5885896,75.6983809 L73.5885896,76.1280862 C69.6294374,74.3233238 66.2727649,68.8230955 63.2603665,65.8151582 C54.4813769,56.533523 45.7884558,47.1659466 37.0094661,37.8843114 C28.4886821,38.2280757 6.62727649,44.2439504 0.430342629,47.7675341 C0.258205578,48.0253573 0.172137052,48.3691216 0,48.6269448 C0.688548207,52.752116 4.04522072,54.8147016 5.16411155,58.9398728 C5.3362486,80.5970217 5.42231713,102.16823 5.59445418,123.825378 C5.59445418,136.630597 6.36907092,150.467109 0.430342629,157.342395 C0.860685259,163.530151 16.1808829,169.803849 21.0867888,172.811787 C26.2509004,175.991606 44.0670853,189.312471 49.0590598,190 C69.715506,184.843536 90.3719522,179.687072 111.028398,174.530608 C112.921906,173.585256 113.26618,172.210199 113.180112,169.374144 C115.59003,170.405437 118.086018,171.350788 120.495936,172.382081 C129.447063,174.272785 155.095484,167.913146 163.099857,165.936501 C170.587818,164.131739 178.67826,163.702033 183.756303,159.490921 C186.166221,159.920627 186.25229,161.209743 188.059729,161.639448 C190.986059,162.412917 218.011576,157.686159 219.474741,156.482984 C221.454317,152.9594 216.548411,149.092052 215.601657,145.310645 C215.42952,132.84919 215.343452,120.387736 215.171315,107.926281 L215.171315,106.637165 C217.323028,107.410635 221.28218,112.824922 221.626454,115.231272 C221.368249,116.950093 221.023974,118.668914 220.765769,120.387736 C226.618429,131.817898 232.557157,143.334001 238.409817,154.764163 C244.348545,155.881396 261.906524,154.334457 266.81243,152.185931 C267.41491,150.381168 266.81243,148.748288 267.242773,147.459172 C267.673115,146.427879 268.103458,148.060759 268.533801,148.318583 C272.406884,151.154638 283.940067,153.73287 291.34196,152.185931 C305.887541,149.092052 325.855439,150.037404 342.983076,150.037404 C350.90138,149.865522 358.733616,149.779581 366.65192,149.607699 L368.373291,148.748288 C369.406113,136.888421 370.352867,124.942612 371.385689,113.082745 C369.836456,110.24669 368.201154,107.324694 366.65192,104.488638 C366.221578,102.340112 365.791235,100.191585 365.360892,98.0430583 C365.533029,97.613353 365.619098,97.1836476 365.791235,96.7539423 C365.791235,96.7539423 370.955347,100.191585 372.676717,100.62129 C376.721938,101.566642 380.68109,99.5040565 382.574598,98.0430583 C387.996915,93.831946 384.640242,83.6049591 387.738709,76.9874969 L387.738709,74.4092649 L388.599394,74.4092649 L388.599394,119.528325 C387.222298,126.231728 382.144255,143.935588 384.726311,150.037404 C387.910846,151.240579 413.989609,153.045341 416.571665,151.756225 C420.444749,150.037404 425.867066,127.091139 427.760574,121.676852 C428.190916,119.09862 428.621259,116.520388 429.051602,113.942156 C427.932711,110.24669 424.920312,108.184104 424.317833,102.769817 C432.580411,103.285463 438.260934,101.824465 438.519139,93.3162996 L439.379825,93.3162996 C442.650429,111.363924 435.592809,136.716538 444.543936,148.748288 C448.589157,154.162575 454.786091,154.162575 463.048669,155.623573 L473.376892,155.623573 C477.680319,154.764163 481.983745,153.904752 486.287171,153.045341 C486.717514,154.506339 487.147856,155.881396 487.578199,157.342395 C495.926846,158.459628 504.189425,159.662803 512.538072,160.780037 C528.116475,164.045798 544.641632,165.936501 559.445418,169.374144 C568.224408,171.43673 580.704344,170.405437 584.405291,164.647385 L585.265976,164.647385 C584.921702,167.139676 583.802811,168.600674 582.253578,169.803849 C582.597852,176.679135 606.783107,178.569838 613.66859,180.546483 C625.89032,183.726302 638.025982,186.820181 650.247713,190 C666.17039,180.288659 682.093068,170.491378 698.015745,160.780037 C698.187882,160.522214 698.27395,160.17845 698.446088,159.920627 C698.532156,151.928107 700.253527,132.333544 697.15506,127.263021 Z M73.158247,104.918344 C72.9861099,117.121975 72.9000414,129.239666 72.7279044,141.443297 C55.3420621,145.74035 38.0422884,150.037404 20.6564462,154.334457 C15.6644717,155.623573 10.5864287,156.912689 5.59445418,158.201805 L4.30342629,158.201805 C5.3362486,153.818811 7.6600988,150.037404 8.60685259,144.88094 L8.60685259,79.5657289 C8.60685259,68.5652723 10.0700175,55.2444069 3.87308366,50.3457661 L3.87308366,49.4863555 C13.7709641,46.7362413 23.6688446,44.0720682 33.5667251,41.3219541 C33.9970677,41.4938362 34.4274104,41.5797773 34.857753,41.7516594 C33.6527936,45.4471253 31.5010805,48.6269448 30.5543267,52.9239981 C30.3821896,61.775928 30.2961211,70.713799 30.1239841,79.5657289 C30.1239841,96.5820602 29.6075729,114.457802 30.9846693,130.270958 C31.1568064,130.442841 31.2428749,130.528782 31.4150119,130.700664 C41.571098,129.927194 60.2479681,126.833316 64.1210518,119.528325 C65.8424223,116.262565 64.981737,112.824922 65.8424223,108.355986 C66.3588335,105.43399 66.7031076,100.105644 65.4120797,97.613353 C65.1538741,97.4414708 64.8096,97.3555298 64.5513944,97.1836476 C62.8300239,100.707231 55.8584733,107.238752 49.919745,103.199522 C36.3209179,97.8711762 51.2107729,70.1122115 64.1210518,76.9874969 C71.9532876,78.1047308 72.9000414,88.5895409 73.158247,97.1836476 L73.158247,104.918344 Z M157.505402,124.255084 C147.865727,130.872546 132.803735,130.700664 119.635251,133.708601 C110.598056,135.25554 101.560861,136.888421 92.5236653,138.43536 C89.855541,138.951006 85.2939091,138.607242 83.9168127,137.575949 C74.965686,136.286833 76.1706454,121.762793 76.1706454,111.363924 C76.1706454,93.4022407 75.8263713,74.6670881 78.7527012,58.5101675 C80.2158661,50.2598251 78.6666327,40.2906613 82.6257848,34.4466687 C88.220239,26.1963263 103.454368,28.430794 112.319426,24.563446 C112.921906,24.7353282 113.438317,24.8212692 114.040797,24.9931514 C112.319426,31.1809082 110.598056,37.2827239 108.876685,43.4704808 C107.929931,45.103361 103.540437,46.4784181 101.991203,47.3378288 C98.204188,60.3149299 100.786244,77.9328486 98.1181195,92.8865943 C96.8270916,99.8478207 98.204188,109.387279 100.269833,113.51245 C111.114467,116.348506 132.975872,110.676395 139.861355,106.20746 C143.304096,94.6054156 142.529479,73.0342078 140.291697,60.2289888 C139.000669,52.8380571 140.291697,45.9627717 137.279299,40.8922488 C131.856982,39.860956 122.217307,40.7203666 117.91388,43.0407754 C115.417893,44.3298914 107.585657,70.7997401 110.598056,75.2686756 L110.598056,76.1280862 C113.094043,75.3546166 116.450716,72.1747971 118.774566,70.5419169 C124.455088,70.2840937 127.897829,71.5732097 129.102789,75.6983809 C134.525106,85.6675447 117.225332,98.8165279 107.585657,92.456889 C102.507614,89.1051873 101.819066,79.2219646 103.712574,71.4013275 C106.724972,61.3462227 109.73737,51.3770589 112.749769,41.3219541 C114.901482,35.3060794 117.053195,29.2902047 119.204908,23.27433 C127.381418,21.8133319 135.557928,20.4382748 143.734438,18.9772767 C148.29607,18.8913356 153.976593,18.4616303 156.214374,20.696098 C163.185925,24.2196818 161.12028,55.1584659 163.099857,65.8151582 C165.767981,80.4251396 166.112255,118.32515 157.505402,124.255084 Z M250.45941,115.231272 L250.45941,116.520388 C242.541106,117.207916 234.70887,117.981386 226.790566,118.668914 C226.102017,118.497032 225.327401,118.411091 224.638853,118.239209 C224.466716,112.65304 224.380647,107.06687 224.20851,101.480701 C215.601657,85.1518983 200.883939,71.9169739 192.793498,55.0725248 C192.363155,54.9006427 191.932813,54.8147016 191.50247,54.6428195 C191.330333,60.0571067 191.244265,65.557335 191.072127,70.9716222 C191.072127,86.0113089 187.543318,113.942156 196.236239,120.817441 L196.236239,121.676852 C187.026907,122.965968 177.903643,124.255084 168.694311,125.5442 L164.821227,125.5442 C166.112255,122.708145 167.403283,119.786148 168.694311,116.950093 C168.866448,110.676395 168.952516,104.316756 169.124653,98.0430583 L169.124653,56.7913462 C169.124653,39.6890738 170.50175,28.0010887 164.390884,16.82875 C173.42808,15.539634 182.465275,14.250518 191.50247,12.961402 C199.0765,24.3056228 206.736599,35.5639026 214.310629,46.9081234 C217.581233,52.0645875 220.163289,57.5648158 224.20851,61.9478102 L224.638853,61.9478102 C224.638853,43.814245 226.876634,21.1258033 219.474741,10.38317 C228.339799,9.35187717 237.290926,8.40652543 246.155984,7.37523263 L250.029068,7.37523263 C250.201205,7.54711476 250.287273,7.63305583 250.45941,7.80493796 C249.254451,11.4144628 247.016669,14.6802233 246.155984,18.9772767 C245.983847,40.7203666 245.897778,62.5493976 245.725641,84.2924876 C245.725641,96.324237 244.778888,109.043515 250.45941,115.231272 Z M331.794167,58.0804622 C331.62203,59.7992835 331.535962,61.5181048 331.363825,63.2369262 C331.191688,79.8235521 331.105619,96.4961191 330.933482,113.082745 C316.301833,111.621747 298.571716,114.801566 282.304765,114.801566 C272.923296,114.801566 263.369689,115.231272 257.775235,111.363924 C251.750438,107.238752 251.320096,96.1523548 251.320096,86.0113089 C251.320096,67.2761563 250.45941,47.7675341 253.471809,31.4387314 C254.848905,24.0477996 254.074288,17.6881607 257.775235,12.961402 C265.177128,3.50788461 290.911617,4.36729528 307.264637,4.36729528 C313.805845,4.36729528 323.789794,5.65641129 328.351426,3.07817928 C328.609632,3.25006141 328.953906,3.33600248 329.212111,3.50788461 L329.642454,3.50788461 L329.642454,29.71991 C326.37185,28.2589119 324.564411,24.9931514 321.035602,23.7040354 C313.891914,21.1258033 284.542547,21.899273 279.292366,25.4228567 C274.386461,28.6886172 275.849625,35.9076669 274.558598,43.0407754 C271.976542,57.1351104 270.857651,84.5503108 277.140653,94.6054156 C284.026135,96.5820602 302.703006,98.3868226 309.846693,94.6054156 C310.277036,94.4335335 310.707378,94.3475924 311.137721,94.1757103 C311.395927,83.3471359 313.203366,65.7292171 308.555665,58.9398728 C303.305485,51.2911179 289.62059,55.9319355 285.747506,61.0883995 C285.919643,62.1196923 286.005712,63.065044 286.177849,64.0963368 C286.349986,64.268219 286.436054,64.35416 286.608191,64.5260422 C293.149399,62.4634566 293.235468,58.5101675 300.809498,64.0963368 C301.756252,67.3620974 302.100526,71.0575633 301.670183,75.2686756 C299.346333,78.0187897 297.883168,81.026727 293.924016,82.1439609 C280.669463,86.0113089 273.439707,72.3466793 278.862024,61.5181048 C284.026135,51.1192357 296.850346,51.1192357 310.277036,48.6269448 C316.129696,48.4550627 322.068424,48.3691216 327.921084,48.1972395 C330.244934,48.3691216 332.482715,48.4550627 334.806566,48.6269448 C333.859812,51.8067643 332.82699,54.9865837 331.794167,58.0804622 Z M363.209179,12.1019913 C361.315672,18.6335124 362.348494,28.2589119 362.348494,36.1654901 L362.348494,82.5736663 C362.348494,93.746005 361.143535,106.980929 367.512606,111.793629 L367.512606,112.65304 L335.667251,112.65304 C336.958279,109.902926 338.249307,107.238752 339.540335,104.488638 C339.79854,97.613353 340.142814,90.7380676 340.40102,83.8627823 L340.40102,43.4704808 C340.228883,33.5872581 340.142814,23.7040354 339.970677,13.8208127 C339.109992,10.0394057 335.925457,6.00017556 335.667251,3.50788461 L367.082263,3.50788461 C367.2544,3.67976675 367.340468,3.76570781 367.512606,3.93758995 C366.393715,6.68770409 364.155933,9.0081129 363.209179,12.1019913 Z M445.404621,57.6507568 C439.982304,59.0258139 436.109221,57.9945211 432.494343,55.5022301 C431.719726,53.2677624 429.568013,49.0566501 431.203315,46.0487128 C431.633657,42.9548344 433.096822,42.6970112 434.646056,40.8922488 C438.605208,40.4625434 441.703675,40.4625434 443.683251,43.0407754 L444.974279,43.0407754 C447.81454,29.8917922 441.187264,24.9072103 430.772972,22.8446247 C428.707327,22.4149194 423.88749,21.6414497 422.166119,22.4149194 L420.444749,22.4149194 L420.444749,85.5816036 C420.444749,96.9258244 419.756201,108.098163 425.178518,113.942156 L425.178518,114.801566 C416.829871,114.371861 408.567292,113.942156 400.218645,113.51245 L393.333163,113.51245 C394.624191,110.934218 395.915219,108.355986 397.206247,105.777754 C397.63659,102.597935 398.066932,99.5040565 398.497275,96.324237 L398.497275,43.4704808 C398.497275,36.9389597 400.046508,26.0244442 397.63659,21.1258033 C384.554174,20.696098 376.808006,20.0945105 373.967745,31.0090261 C373.537402,32.8137885 372.590649,36.079549 373.537402,37.8843114 L373.537402,40.0328381 C376.721938,39.1734274 380.336816,36.2514311 383.865625,39.1734274 C385.673064,39.946897 386.017339,41.0641309 387.308366,42.1813648 C388.169052,47.8534752 387.136229,50.9473536 384.726311,54.2131141 C381.369638,55.1584659 379.390062,55.6741123 375.258773,55.5022301 C373.10706,53.6115267 371.041415,52.4942928 370.094661,49.4863555 L370.094661,3.50788461 C394.365986,4.62511848 418.551241,5.82829342 442.822566,6.94552729 C444.802142,7.11740943 446.867786,7.20335049 448.847362,7.37523263 C448.933431,21.899273 451.429418,49.0566501 445.404621,57.6507568 Z M535.346231,124.684789 C527.427927,123.825378 519.595691,122.965968 511.677386,122.106557 C511.505249,121.934675 511.419181,121.848734 511.247044,121.676852 L511.247044,114.801566 C504.275493,115.403154 496.443257,118.067327 488.869227,119.528325 C474.065441,122.278439 462.015847,116.004741 458.745243,106.637165 C457.368147,102.597935 458.228832,98.6446458 457.454215,93.746005 L457.454215,63.6666315 C457.454215,43.4704808 459.003449,20.5242159 452.290104,7.37523263 L452.720446,7.37523263 C453.925406,6.77364516 476.475359,8.4924665 478.541004,9.5237593 L479.401689,9.5237593 L479.401689,77.8469076 C480.692717,85.1518983 478.024593,92.8865943 481.553402,97.613353 C486.115034,103.715169 502.468054,102.511994 509.095331,99.3321743 C509.267468,81.8861377 509.353536,64.35416 509.525673,46.9081234 C509.525673,38.5718399 509.956016,28.7745583 506.513275,23.7040354 C504.44763,20.6101569 501.090958,19.8366873 495.754709,19.8366873 C493.861202,21.4695676 491.967694,23.0165068 490.160255,24.563446 C490.332392,26.0244442 490.41846,27.3995012 490.590598,28.8604994 C491.451283,29.8058511 493.000516,27.055737 494.033339,26.7119727 C496.012915,26.8838548 498.078559,26.9697959 500.058135,27.141678 C504.189425,30.6652618 508.923194,40.5484845 500.058135,43.0407754 C487.492131,49.4863555 481.553402,29.3761458 487.147856,20.696098 C496.27112,6.51582196 514.94799,15.0239876 530.612462,15.539634 L530.612462,90.3083623 C530.612462,102.769817 529.665708,116.950093 535.346231,123.825378 L535.346231,124.684789 Z M598.606598,135.857128 C584.835633,133.278896 571.064669,130.700664 557.293705,128.122432 C550.408223,127.091139 543.522741,126.145787 536.637259,125.114494 C537.75615,123.223791 538.961109,121.419029 540.08,119.528325 C542.145645,114.371861 541.371028,106.465283 541.371028,99.7618797 L541.371028,30.1496154 C540.166068,24.9931514 537.584013,20.8679801 536.637259,16.3990447 C545.674454,17.6881607 554.711649,18.9772767 563.748845,20.2663927 C563.920982,20.4382748 564.00705,20.5242159 564.179187,20.696098 C563.748845,37.0249007 563.318502,53.3537035 562.888159,69.6825062 C563.060296,75.870263 563.146365,81.9720788 563.318502,88.1598356 C564.60953,95.6367084 562.629954,103.543287 564.60953,109.645102 C570.46219,111.363924 590.602225,117.551681 597.31557,113.082745 C601.188653,110.504513 603.426435,98.8165279 602.049339,91.5974783 C599.553351,78.448495 602.049339,59.197696 595.594199,48.6269448 C593.356417,45.01742 581.909303,39.2593685 576.228781,42.6110701 C566.761243,45.01742 570.548258,70.9716222 574.077068,76.9874969 C576.917329,75.6983809 576.745192,71.5732097 580.101864,70.5419169 C590.25795,67.2761563 594.044966,78.7063182 593.442486,86.0113089 C592.581801,87.3004249 591.721115,88.5895409 590.86043,89.8786569 C567.277654,97.0977066 563.748845,63.5806904 567.621928,41.7516594 C568.740819,35.4779615 567.449791,27.7432655 570.203984,22.8446247 C570.376121,22.4149194 570.46219,21.985214 570.634327,21.5555087 C581.048618,22.4149194 600.672242,25.766621 607.643793,30.5793207 C612.807904,34.1029045 614.529275,41.150072 616.680988,47.7675341 C621.931168,63.9244547 629.074856,115.231272 617.972016,130.700664 C615.217823,134.653953 606.524902,137.404067 598.606598,135.857128 Z M695.003346,158.201805 C670.732022,152.357813 646.546766,146.427879 622.275442,140.583886 C623.394333,138.43536 624.599292,136.286833 625.718183,134.138306 C627.525622,128.552137 627.009211,121.075264 627.009211,114.371861 C626.837074,96.324237 626.751005,78.2766129 626.578868,60.2289888 C626.578868,48.884768 626.923143,38.3999578 621.845099,32.2981421 L621.845099,31.8684367 C639.489147,35.9076669 657.133195,39.860956 674.777243,43.9001861 C680.19956,45.3611842 685.707946,46.7362413 691.130263,48.1972395 C691.3024,48.3691216 691.388468,48.4550627 691.560605,48.6269448 C691.732743,57.2210515 691.818811,65.8151582 691.990948,74.4092649 C691.818811,74.6670881 691.732743,75.0108524 691.560605,75.2686756 L691.560605,75.6983809 C686.654699,72.5185614 686.482562,67.4480385 679.080669,64.9557475 C669.354926,62.5493976 659.543114,60.0571067 649.81737,57.6507568 C649.214891,57.822639 648.69848,57.90858 648.096,58.0804622 L648.096,81.2845502 C652.313358,80.6829628 657.305332,78.362554 663.157992,79.5657289 C675.723997,82.0580198 683.72837,90.3083623 685.966151,103.199522 C687.687522,113.082745 679.59708,122.36438 669.182789,118.668914 C664.018677,116.864152 662.727649,113.254627 660.145594,108.785692 C660.059525,104.66052 661.006279,102.511994 664.018677,101.480701 C669.871337,98.2149404 678.650327,107.410635 675.207586,113.51245 C675.379723,114.114038 675.465791,114.629684 675.637928,115.231272 C682.437342,114.543743 681.060245,105.43399 678.219984,101.480701 C673.141941,94.4335335 659.973456,92.6287711 652.399426,98.4727636 C650.075576,100.277526 649.559165,103.457346 648.096,106.20746 C648.268137,113.340568 648.354205,120.559618 648.526343,127.692726 C657.563538,129.841253 666.600733,131.98978 675.637928,134.138306 C678.822464,135.083658 684.244781,137.575949 688.548207,136.716538 C691.732743,136.114951 692.937702,133.708601 695.003346,131.98978 C695.175484,140.412004 695.261552,148.92017 695.433689,157.342395 C695.347621,157.686159 695.175484,157.943982 695.003346,158.201805 Z" id="Shape"></path>
        </g>
    </g>
</svg>