<?xml version="1.0" encoding="UTF-8"?>
<svg width="734px" height="414px" viewBox="0 0 734 414" version="1.1" xmlns="http://www.w3.org/2000/svg" xmlns:xlink="http://www.w3.org/1999/xlink">
    <title>show-whelans</title>
    <g id="Page-1" stroke="none" stroke-width="1" fill="none" fill-rule="evenodd">
        <g id="breakout-20" transform="translate(126.000000, 14.000000)" fill="#000000" fill-rule="nonzero">
            <path d="M65.2975252,234.070685 L65.3417049,215.276381 L60.9237397,234.955122 L65.2975252,234.070685 Z M75.1054079,150.712419 L72.7638863,151.154638 L71.8802933,158.981913 L74.2218148,158.495472 C75.3263061,158.274363 76.1215399,157.832144 76.6516957,157.168815 C77.1818515,156.505487 77.5352887,155.444162 77.6678277,154.029061 C77.8445463,152.525517 77.7120073,151.552635 77.3143905,151.066194 C76.9609533,150.623976 76.2098992,150.49131 75.1054079,150.712419 Z M313.27791,128.999471 C313.32209,130.370349 313.542988,131.299009 313.984785,131.78545 C314.426581,132.316112 315.089276,132.448778 315.972869,132.271891 C316.900642,132.095003 317.563336,131.652784 317.960953,130.989456 C318.35857,130.326127 318.491109,129.309024 318.446929,127.938145 L317.607516,105.871421 C317.563336,104.588987 317.298258,103.660327 316.856462,103.129664 C316.414665,102.599001 315.751971,102.422114 314.868378,102.599001 C313.984785,102.775889 313.366269,103.218108 312.968653,103.881436 C312.571036,104.544765 312.438497,105.561868 312.482676,106.888525 L313.27791,128.999471 Z M210.736939,178.749098 C210.339322,178.837542 210.030064,179.058652 209.809166,179.368205 C209.588268,179.677758 209.455729,180.164199 209.367369,180.783305 L208.130339,191.087006 C208.04198,191.706113 208.086159,192.148332 208.262878,192.369441 C208.395417,192.59055 208.704675,192.678994 209.102291,192.59055 C209.544088,192.502107 209.853346,192.280997 210.074244,191.971444 C210.295142,191.661891 210.427681,191.17545 210.51604,190.556343 L211.753071,180.252643 C211.84143,179.633536 211.79725,179.235539 211.620532,178.970208 C211.399633,178.749098 211.134555,178.660655 210.736939,178.749098 Z M215.994317,122.454631 L213.299358,141.204713 L217.628964,140.320275 L215.994317,122.454631 Z M126.83978,140.408719 L124.542438,140.850938 L123.923923,148.589769 L126.221265,148.14755 C127.325756,147.92644 128.12099,147.484221 128.606966,146.820893 C129.092942,146.157565 129.4022,145.140461 129.534739,143.72536 C129.667278,142.266038 129.490559,141.293156 129.092942,140.806716 C128.695325,140.320275 127.944271,140.187609 126.83978,140.408719 Z M364.614665,171.938927 L368.723373,171.098711 L365.542438,153.586842 L364.614665,171.938927 Z M72.8522456,170.744936 L70.5107241,171.231377 L69.3178735,181.667743 L71.7035747,181.181302 C72.8522456,180.960193 73.691659,180.473752 74.2218148,179.810424 C74.7519707,179.147095 75.0612282,178.041548 75.2379468,176.493782 L75.5030247,174.194244 C75.6797434,172.690699 75.5472044,171.717818 75.1495875,171.187155 C74.7519707,170.656492 74.0009166,170.523827 72.8522456,170.744936 Z M414.75857,144.565576 C414.316774,144.123357 413.56572,143.990692 412.549588,144.211801 L410.428964,144.65402 L411.135839,151.994854 L413.256462,151.552635 C414.272594,151.331526 414.935289,150.933529 415.288726,150.314422 C415.642163,149.695316 415.774702,148.722434 415.642163,147.395777 C415.509624,145.936455 415.244546,145.007795 414.75857,144.565576 Z M405.127406,278.911683 C393.331439,277.629248 389.620348,287.313842 386.704491,300.13819 C383.744455,313.095205 382.949221,323.089352 394.745188,324.371787 C406.364436,325.61 410.075527,315.925406 413.035564,302.968391 C415.951421,290.188265 416.746654,280.194117 405.127406,278.911683 Z M439.366636,34.1877355 L172.47736,88.2268868 C172.609899,85.8831265 172.433181,83.4509225 171.947204,80.8860528 C168.987168,65.5410565 161.830064,60.1459857 153.215032,51.080498 C152.949954,50.9478323 152.729056,50.8151666 152.463978,50.7267228 C164.171586,46.0392024 157.986434,30.0750996 153.215032,22.4247123 C146.941522,12.3421211 138.989184,6.50483144 125.293492,3.67463039 C121.626581,3.67463039 117.95967,3.67463039 114.292759,3.67463039 C110.670027,2.5690831 108.195967,-0.0842303825 102.187534,0.00205528351 C98.8740605,1.64042338 95.6047663,1.86153284 92.9981668,4.02840552 C90.1706691,6.41638765 89.6846929,10.4848017 87.4757104,13.5803341 C78.3305225,26.4931264 69.4062328,39.0521435 70.2014665,61.3841987 C52.8388634,65.717944 47.183868,91.6319724 57.3451879,108.436291 C57.8753437,109.364951 58.4938588,110.249389 59.2007333,111.089605 L36.0064161,115.821347 L0,330.562852 L482,385 L439.366636,34.1877355 Z M434.506874,140.187609 C434.904491,143.636917 434.551054,146.422896 433.534922,148.501325 C432.51879,150.579754 430.663245,152.260186 427.924106,153.631064 C430.839963,153.76373 433.004766,154.825055 434.462695,156.81504 C435.920623,158.805025 436.936755,162.077445 437.422731,166.588078 L438.92484,180.341087 L419.220715,184.497944 L417.453529,166.234303 C417.32099,164.819203 417.011732,163.890543 416.525756,163.404102 C416.03978,162.917661 415.288726,162.784996 414.272594,163.006105 L412.151971,163.448324 L414.228414,185.515048 L394.701008,189.627684 L390.371402,136.870967 L420.987901,130.635681 C425.361687,129.751243 428.586801,130.060796 430.663245,131.520118 C432.783868,132.935219 434.065078,135.853864 434.506874,140.187609 Z M392.492026,190.069903 L372.169386,194.359426 L370.269661,182.817512 L364.658845,183.967282 L364.305408,195.995636 L343.938588,200.28516 L349.858662,145.096239 L379.679927,138.993618 L392.492026,190.069903 Z M427.173052,69.0788078 L428.410082,80.5322777 L418.425481,82.5222628 L422.534189,122.719962 L402.697525,126.744154 L399.074794,86.3695673 L389.046013,88.3595524 L388.07406,76.7734169 L427.173052,69.0788078 Z M360.859395,82.1684876 L363.289276,118.916879 C363.377635,120.243536 363.642713,121.172196 364.08451,121.702859 C364.526306,122.189299 365.189001,122.366187 366.072594,122.189299 C367.000367,122.012412 367.618882,121.570193 368.016499,120.906865 C368.369936,120.243536 368.502475,119.226433 368.414115,117.855554 L365.895875,81.1513841 L385.334922,77.3040796 L388.560037,116.971116 C388.957654,121.702859 388.294959,125.196388 386.616132,127.495926 C384.893126,129.795465 381.668011,131.431675 376.896609,132.404556 L356.44143,136.561414 C351.935105,137.490074 348.709991,137.136299 346.766086,135.544311 C344.822181,133.952322 343.76187,130.812568 343.496792,126.080826 L341.376169,85.9715703 L360.859395,82.1684876 Z M339.697342,159.158801 L327.813016,161.591005 L328.078093,167.384072 L340.006599,164.907646 L340.625115,177.024445 L328.608249,179.500871 L329.094225,190.689009 L341.19945,188.168361 L341.773786,200.727379 L309.699358,207.449106 L308.020532,153.631064 L339.078827,147.307334 L339.697342,159.158801 Z M294.854995,97.513484 C296.75472,95.3908332 299.758937,93.8872889 303.956004,93.0912948 L324.543721,89.0228808 C329.050046,88.138443 332.27516,88.3595524 334.263245,89.6862092 C336.251329,91.0128659 337.35582,93.6219575 337.532539,97.513484 L339.034647,127.009486 C339.255545,131.78545 338.504491,135.367423 336.737305,137.666961 C334.970119,139.9665 331.656645,141.646932 326.841063,142.619813 L305.546471,146.953559 C300.951787,147.882218 297.726673,147.528443 295.826948,145.936455 C293.927223,144.344467 292.911091,141.116269 292.822731,136.384527 L292.160037,106.53475 C292.027498,102.643223 292.95527,99.6803566 294.854995,97.513484 Z M293.131989,210.942635 L273.074427,215.143715 L272.897709,194.182539 L258.141705,163.802099 L277.094775,159.910573 L282.440513,171.54093 L287.476994,157.787922 L306.341705,153.940617 L292.690192,190.114125 L293.131989,210.942635 Z M243.606599,105.296537 L263.222365,101.40501 L263.310724,122.67574 L269.672594,100.166797 L289.906874,96.1868272 L282.617232,122.012412 L291.453162,149.385763 L270.732906,153.586842 L263.310724,130.105018 L263.399083,155.046165 L243.120623,159.158801 L243.606599,105.296537 Z M243.871677,202.761586 L243.297342,208.510431 L237.642346,209.748644 L237.112191,215.011049 L242.811366,213.772836 L242.23703,219.610126 L227.215949,222.926768 L229.955087,197.49918 L244.75527,194.270982 L244.180935,199.975606 L238.52594,201.213819 L238.260862,203.955577 L243.871677,202.761586 Z M223.725756,170.744936 L238.305041,167.605182 L237.730706,173.132918 L232.16407,174.326909 L231.854812,176.980223 L237.421448,175.786232 L236.847113,181.35819 L231.280477,182.552181 L230.131806,193.342323 L220.986618,195.332308 L223.725756,170.744936 Z M219.572869,190.025681 C219.307791,192.236775 218.733456,193.872985 217.761503,194.934311 C216.789551,195.995636 215.243263,196.79163 213.07846,197.233849 L203.491476,199.312278 C201.415032,199.754497 200.045463,199.621831 199.294409,198.870059 C198.587534,198.162509 198.366636,196.703186 198.631714,194.492092 L200.3989,180.606418 C200.619798,178.79332 201.238313,177.37822 202.210266,176.361116 C203.182218,175.344013 204.640147,174.636463 206.584051,174.194244 L216.038497,172.160037 C218.11494,171.717818 219.528689,171.806262 220.323923,172.425368 C221.119157,173.044474 221.384235,174.282687 221.163336,176.140007 L219.572869,190.025681 Z M232.07571,107.551853 L240.602383,159.689463 L219.086893,164.067431 L218.2033,152.260186 L212.283226,153.454177 L210.781118,165.747862 L189.177269,170.12583 L200.575619,113.742918 L232.07571,107.551853 Z M189.177269,116.042456 L188.647113,128.159255 L176.055912,130.679903 L175.746654,136.605636 L188.382035,134.084988 L187.851879,146.467118 L175.128139,149.031987 L174.553804,160.485457 L187.365903,157.876366 L186.835747,170.656492 L152.817415,177.555107 L156.263428,122.498853 L189.177269,116.042456 Z M151.403666,100.91857 C127.855912,118.120885 110.758387,101.758786 109.432997,88.53644 C108.195967,76.0216447 121.670761,71.1572367 121.670761,71.1572367 L129.711457,69.9190237 L124.807516,68.8576983 C124.807516,68.8576983 134.306141,56.7409001 143.848946,60.6324265 C157.014482,65.9390535 167.352521,89.2882122 151.403666,100.91857 Z M147.648396,153.675286 C148.841247,155.797937 149.283043,159.203022 148.973786,163.978987 L148.001833,178.527989 L126.486343,182.905956 L127.988451,163.625212 C128.12099,162.165889 127.944271,161.148786 127.546654,160.662345 C127.149038,160.175904 126.397984,160.043238 125.249313,160.264348 L122.907791,160.750789 L121.008066,184.055725 L99.6692942,188.389471 L104.926673,132.669888 L138.28231,126.080826 C143.053712,125.152166 146.367186,125.461719 148.266911,127.009486 C150.166636,128.601474 151.006049,131.652784 150.696792,136.207639 C150.475894,139.878056 149.592301,142.796701 148.178552,144.963573 C146.720623,147.130446 144.423281,148.943544 141.286526,150.358644 C144.334922,150.49131 146.455545,151.596857 147.648396,153.675286 Z M111.818698,16.5432008 C111.818698,16.5432008 124.807516,13.7572216 134.261962,19.8598426 C142.391017,25.1222477 147.16242,39.4059186 147.16242,39.4059186 C147.16242,39.4059186 136.250046,44.535658 123.658845,38.7425903 C113.718423,34.1877355 109.477177,20.7000586 109.477177,20.7000586 L130.153254,30.2077652 L111.818698,16.5432008 Z M85.0016499,42.1476759 C89.9939505,26.8469015 99.0949588,19.5060675 99.0949588,19.5060675 C99.0949588,19.5060675 100.287809,10.8385768 105.368469,12.6516743 C110.890926,14.5974376 105.633547,22.0709372 105.633547,22.0709372 C105.633547,22.0709372 103.468744,34.76262 107.79835,46.2603118 C111.951237,57.3600066 122.598533,67.2214883 122.598533,67.2214883 L119.019982,70.0516894 C119.019982,70.0516894 108.549404,60.5882046 103.468744,48.7809596 C99.0507791,38.6099246 99.9343721,25.829798 99.9343721,25.829798 C99.9343721,25.829798 92.0703941,34.9837295 89.1103575,45.773871 C86.2386801,56.2544593 88.3593034,68.3712575 88.3593034,68.3712575 L84.1180568,69.5652486 C84.0738772,69.6094705 80.2744271,56.6524563 85.0016499,42.1476759 Z M65.2533456,82.5664847 C67.727406,72.0858964 78.4188818,71.6436775 85.3109074,72.5281153 C88.8010999,72.9703342 91.2751604,73.7663283 91.2751604,73.7663283 L88.1825848,70.9803491 C88.1825848,70.9803491 95.2071494,67.0888227 102.231714,68.1059262 C108.107608,68.9461421 111.376902,75.2698726 111.376902,75.2698726 C111.376902,75.2698726 106.51714,79.6036179 107.003116,87.9615554 C107.356554,94.3295078 112.039597,101.051235 112.039597,101.051235 C112.039597,101.051235 102.275894,113.964028 88.668561,113.521809 C85.8852429,113.433365 73.5149404,110.51472 68.743538,102.55478 C64.0163153,94.7717267 64.944088,83.9815852 65.2533456,82.5664847 Z M53.3248396,142.840923 L87.0780935,136.163417 C91.8936755,135.190535 95.2513291,135.544311 97.1510541,137.136299 C99.0507791,138.728287 99.7576535,141.823819 99.315857,146.422896 C98.9624198,150.093313 98.0346471,153.05618 96.4883593,155.267274 C94.9420715,157.478369 92.5563703,159.335688 89.3754354,160.750789 C92.4238313,160.883454 94.500275,162.033224 95.6047663,164.155874 C96.7534372,166.278525 97.0626948,169.772055 96.6208983,174.592241 C96.0907424,179.987311 94.6769936,183.967282 92.4238313,186.620595 C90.1264895,189.273909 86.4153987,191.087006 81.2905591,192.148332 L46.3444546,199.268056 L53.3248396,142.840923 Z M64.4581118,259.011831 L64.6790101,246.629702 L58.6705775,247.867915 L56.0197984,260.780707 L34.1950504,265.379784 L50.7182401,206.166671 L82.6159487,199.666053 L86.1945005,254.456977 L64.4581118,259.011831 Z M138.989184,200.683157 L138.459028,207.979769 L117.827131,212.22507 L118.180568,208.156656 C118.313107,206.697334 118.180568,205.724452 117.827131,205.19379 C117.473694,204.663127 116.810999,204.486239 115.883226,204.707349 C114.999633,204.884236 114.292759,205.326455 113.850962,206.078227 C113.409166,206.785778 113.099908,207.847103 112.967369,209.262204 L110.979285,232.744028 C110.846746,234.20335 110.979285,235.176232 111.332722,235.751116 C111.686159,236.326001 112.348854,236.502889 113.232447,236.326001 C114.16022,236.149114 114.867094,235.662673 115.353071,234.910901 C115.839047,234.159128 116.148304,233.053581 116.280843,231.638481 L116.810999,225.049419 L137.619615,220.715673 L136.824381,232.036478 C136.515124,236.414445 135.278093,239.775309 133.113291,242.163291 C130.948488,244.507051 127.502475,246.187483 122.819432,247.204586 L101.038863,251.759441 C96.6208983,252.688101 93.5283226,252.334326 91.6727773,250.742338 C89.8172319,249.15035 89.1103575,246.187483 89.552154,241.897959 L92.6447296,210.190863 C93.1307058,205.326455 94.367736,201.744482 96.4,199.400722 C98.432264,197.056962 101.701558,195.420752 106.207883,194.492092 L127.237397,190.202568 C132.008799,189.229687 135.278093,189.495018 136.95692,191.042784 C138.635747,192.634772 139.342621,195.818749 138.989184,200.683157 Z M182.241063,191.529225 L171.947204,193.651876 L169.738222,236.900886 L149.238863,241.190409 L151.978002,197.72029 L141.595784,199.842941 L142.435197,187.416589 L182.771219,179.191317 L182.241063,191.529225 Z M197.748121,229.471608 L188.426214,231.550037 L191.032814,211.650186 L186.261412,212.711511 L187.012466,206.918443 L205.700458,202.850029 L204.993584,208.598875 L200.222181,209.660201 L197.748121,229.471608 Z M214.580568,214.878384 L213.299358,226.0223 L203.933272,228.100729 L207.025848,202.496254 L216.215215,200.506269 L215.243263,209.085316 L217.628964,208.554653 L218.600917,200.019828 L227.790284,198.029843 L225.006966,223.501653 L215.68506,225.580081 L216.966269,214.436165 L214.580568,214.878384 Z M247.847846,237.210439 L271.43978,239.775309 L254.828231,280.547892 L219.307791,276.700588 L247.847846,237.210439 Z M337.620898,347.632502 L254.121357,338.611236 L259.511274,315.08519 C285.709808,302.614616 313.719707,287.932948 317.07736,273.118615 C318.093492,268.607982 316.282126,265.822003 312.571036,265.424006 C308.683226,265.026009 304.707058,268.033097 303.425848,276.391035 L268.700642,272.632174 C276.078643,245.435711 298.831164,237.077773 320.96517,239.465755 C350.344638,242.649732 357.545921,258.260059 353.790651,274.622159 C349.107608,295.052673 327.459578,310.132338 306.385885,318.401832 L343.364253,322.426024 L337.620898,347.632502 Z M387.985701,353.956232 C353.746471,350.241593 344.424565,327.334654 351.493309,296.335108 C358.517874,265.512449 377.647663,245.65682 411.886893,249.371459 C445.949404,253.041876 455.448029,275.993038 448.423465,306.859918 C441.310541,337.815242 422.048213,357.626649 387.985701,353.956232 Z" id="Shape"></path>
        </g>
    </g>
</svg>