<?xml version="1.0" encoding="UTF-8"?>
<svg width="734px" height="414px" viewBox="0 0 734 414" version="1.1" xmlns="http://www.w3.org/2000/svg" xmlns:xlink="http://www.w3.org/1999/xlink">
    <title>show-whelans</title>
    <g id="Page-1" stroke="none" stroke-width="1" fill="none" fill-rule="evenodd">
        <g id="oftr" transform="translate(19.000000, 104.000000)" fill="#000000" fill-rule="nonzero">
            <path d="M81.7145911,58.784029 C78.6146446,53.8233515 76.6306788,49.2347247 75.3907002,45.1421658 C72.5387493,33.8566243 62.8669161,28.1518451 46.1272047,28.1518451 L43.151256,28.1518451 C42.6552646,28.1518451 40.5473009,29.0199637 36.827365,30.6321839 L32.4874399,30.6321839 C23.8075895,30.6321839 18.2276857,33.9806413 15.9957242,40.8015729 C8.55585249,56.923775 4.83591662,67.0931639 4.83591662,71.4337568 C1.48797435,88.1760436 0,98.9655172 0,103.554144 C0.371993586,105.786449 0.619989311,110.623109 0.991982897,118.188143 C9.1758418,162.338173 23.5595938,184.413188 43.8952432,184.413188 L45.879209,184.413188 C49.1031534,184.413188 54.0630679,183.793103 61.0069482,182.428917 C67.8268306,180.320629 71.6707643,177.964307 72.6627472,175.111918 C77.1266702,171.887477 80.1026189,167.918935 81.4665954,162.958258 C86.6745056,148.324259 89.2784607,132.698125 89.2784607,115.707804 C89.2784607,101.941924 87.4184928,87.9280097 83.9465526,73.7900786 C83.2025655,66.3490623 82.4585783,61.3883848 81.7145911,58.784029 Z M58.2789952,119.552329 C58.2789952,138.15487 56.2950294,150.680581 52.4510957,157.005445 C51.0871192,156.38536 49.8471406,154.401089 48.6071619,151.176649 C46.3752004,142.61948 43.5232496,135.426497 39.8033137,129.721718 C40.1753073,129.721718 40.2993052,129.597701 40.2993052,129.22565 L40.2993052,128.357532 C37.9433458,113.103448 36.9513629,103.430127 36.9513629,99.0895342 C36.9513629,93.384755 37.4473544,87.5559589 38.4393373,81.6031458 C38.4393373,68.2093164 39.8033137,58.4119782 42.283271,51.8390805 C43.2752539,52.2111313 44.3912346,53.3272837 45.6312133,55.1875378 C47.9871726,66.2250454 50.0951363,74.6581972 52.4510957,80.4869933 C55.0550508,90.5323654 56.9150187,103.058076 58.2789952,117.940109 C57.9070016,117.940109 57.7830037,118.064126 57.7830037,118.436177 L58.2789952,119.552329 Z M200.132549,126.249244 C200.132549,125.381125 200.008552,122.900786 199.636558,118.932244 C200.256547,113.227465 200.628541,107.274652 200.628541,100.949788 L200.628541,100.453721 C200.628541,91.400484 199.760556,82.8433152 198.148584,74.6581972 C198.148584,69.8215366 198.272582,65.7289776 198.644575,62.5045372 C198.272582,58.784029 198.148584,53.8233515 198.148584,47.8705384 L198.148584,46.8784029 C196.164618,36.7090139 195.172635,30.38415 195.172635,27.9038113 L195.172635,20.0907441 C193.684661,12.8977616 190.83271,9.42528736 186.368787,9.42528736 L181.036879,9.42528736 C176.572956,12.0296431 174.216996,13.8898972 174.216996,15.2540835 C174.216996,18.354507 174.58899,26.7876588 175.208979,40.553539 C175.084981,47.3744707 174.712988,50.722928 174.216996,50.722928 C173.597007,73.7900786 172.605024,88.3000605 171.241048,94.5009074 L171.241048,107.646703 C171.241048,110.747126 171.365045,114.839685 171.737039,120.296431 L169.753073,131.954023 L169.257082,131.954023 L168.76109,129.473684 L168.76109,126.125227 C168.76109,122.652753 167.397114,118.436177 164.917157,113.971567 C163.181187,101.321839 161.445216,94.9969752 159.585249,94.9969752 C159.585249,94.0048397 159.709246,92.8886872 160.08124,91.6485178 C158.469268,86.1917725 157.477285,83.3393829 157.105291,83.3393829 C154.005345,76.0223835 152.145377,69.6975197 151.277392,64.3647913 C143.465526,52.831216 139.621593,45.5142166 139.621593,42.4137931 C132.181721,29.3920145 123.129877,22.9431337 112.342063,22.9431337 C110.978087,22.9431337 108.870123,23.4392015 106.018172,24.431337 C100.190273,27.7797943 97.2143239,30.6321839 97.2143239,33.2365396 L97.2143239,34.7247429 C100.190273,39.8094374 101.554249,42.7858439 101.554249,43.5299456 L101.554249,46.8784029 C99.1982897,52.831216 98.2063068,64.2407743 98.2063068,81.4791289 C98.2063068,85.9437387 97.7103153,89.1681791 96.7183324,91.276467 C95.1063602,108.886872 93.6183859,121.784634 92.3784073,129.721718 C92.9983966,137.534785 93.3703902,142.371446 93.3703902,144.355717 C92.9983966,152.788869 92.8743987,157.377495 92.8743987,158.493648 L94.3623731,170.647308 C93.9903795,174.61585 93.8663816,176.848155 93.8663816,176.972172 L94.3623731,180.320629 C97.7103153,189.497883 103.166221,193.962492 110.854089,193.962492 L117.673971,193.962492 C121.641903,191.606171 125.113843,190.614035 127.841796,190.614035 C131.189738,188.257713 132.677712,184.165154 132.677712,178.460375 L132.677712,177.964307 C132.677712,175.359952 132.553715,172.011494 132.181721,167.794918 L133.173704,164.818512 C132.80171,159.361766 132.677712,155.145191 132.677712,152.168784 L132.677712,139.022989 L133.173704,139.022989 C136.645644,151.548699 141.109567,162.586207 146.317477,172.135511 C146.317477,176.104053 149.169428,182.800968 154.625334,192.102238 C155.989311,195.078645 160.701229,196.442831 168.76109,196.442831 L169.257082,196.442831 L170.249065,196.938899 C175.084981,196.318814 178.432924,195.326679 180.044896,193.962492 C182.400855,194.582577 184.260823,194.954628 185.872795,194.954628 L186.368787,194.954628 C188.724746,194.954628 189.716729,194.582577 189.716729,193.962492 C194.428648,193.962492 197.900588,190.490018 199.884554,183.297036 C199.884554,181.188748 199.760556,179.576528 199.388562,178.460375 C199.760556,175.607985 199.884554,173.251664 199.884554,171.143376 L199.884554,157.99758 C199.884554,155.021174 200.256547,152.292801 200.876537,149.688445 L199.388562,141.875378 C199.636558,138.402904 199.760556,133.194192 200.132549,126.249244 Z M257.667557,179.576528 C254.567611,179.576528 252.831641,175.607985 252.335649,167.422868 C252.335649,164.07441 252.955639,155.269208 254.319615,141.131276 C254.319615,139.76709 253.327632,136.54265 251.343666,131.333938 C251.71566,128.481549 251.839658,126.745312 251.839658,126.00121 C251.839658,123.892922 251.71566,120.668482 251.343666,116.203872 C251.963656,112.855414 252.335649,110.003025 252.335649,107.398669 L252.335649,96.2371446 C252.335649,91.6485178 251.467664,84.4555354 249.855692,74.7822142 L249.855692,73.7900786 L250.847675,73.7900786 C265.107429,70.9376891 272.299305,66.8451301 272.299305,61.1403509 L272.299305,59.6521476 C272.299305,56.6757411 270.315339,55.3115547 266.471406,55.3115547 C257.915553,55.6836056 252.087654,55.8076225 248.987707,55.8076225 C247.747728,55.8076225 246.879743,54.3194192 246.50775,51.4670296 L246.50775,49.9788264 L247.003741,46.630369 C243.531801,37.8251664 241.051844,31.3762855 239.687867,27.1597096 L239.687867,26.6636419 L248.491716,26.6636419 L251.839658,27.1597096 C251.839658,26.7876588 251.963656,26.6636419 252.335649,26.6636419 L253.327632,27.1597096 C259.27953,25.7955233 264.363442,24.1833031 268.951363,22.323049 C273.16729,21.2068966 275.275254,18.1064731 275.275254,12.5257108 C275.275254,9.5493043 270.439337,8.18511797 260.643506,8.18511797 L257.295564,8.68118572 C257.295564,8.30913491 257.171566,8.18511797 256.799572,8.18511797 C256.799572,8.55716878 256.675575,8.68118572 256.303581,8.68118572 L252.955639,8.68118572 C249.607696,8.80520266 248.119722,9.05323654 248.119722,9.67332123 L214.02031,13.5178463 C207.572421,15.1300665 204.224479,16.8663037 204.224479,18.8505747 C204.224479,21.4549304 205.34046,26.1675741 207.572421,32.9885057 C207.200428,32.9885057 207.07643,33.1125227 207.07643,33.4845735 L207.07643,35.9649123 C207.07643,37.8251664 206.952432,40.4295221 206.580438,43.7779794 C207.324425,44.8941319 207.820417,48.3666062 208.068413,54.4434362 C208.068413,59.2800968 207.944415,68.2093164 207.572421,81.231095 C207.944415,86.6878403 208.564404,91.5245009 209.556387,95.8650938 C209.556387,98.7174834 209.432389,101.073805 209.060396,103.182093 C209.432389,119.180278 209.928381,130.341803 210.54837,136.790684 C210.176376,140.263158 210.052378,143.487598 210.052378,146.091954 C210.052378,148.69631 210.424372,149.936479 211.044361,149.936479 C212.036344,169.035088 212.904329,178.708409 213.524319,178.708409 C213.524319,187.141561 214.516301,192.722323 216.500267,195.202662 C226.420096,201.651543 236.091929,205 245.763763,205 C250.227686,205 254.195617,204.503932 257.419562,203.511797 C274.90326,198.303085 283.707108,193.218391 283.707108,187.885662 C283.707108,186.76951 283.211117,185.281307 282.219134,183.54507 C281.971138,182.180883 273.911277,180.940714 257.667557,179.576528 Z M423.452699,170.15124 C420.972742,168.290986 418.368787,161.346038 415.516836,149.316394 C410.184928,139.519056 407.580973,134.186328 407.580973,133.442226 C405.101015,125.257108 399.02512,117.692075 389.229289,110.623109 C391.337253,108.018754 392.825227,106.654567 393.693212,106.654567 C401.257082,96.6091954 405.101015,87.6799758 405.101015,79.8669087 L404.605024,76.3944344 C406.216996,72.7979431 407.084981,70.0695705 407.084981,68.4573503 L407.084981,65.4809437 C407.084981,58.908046 406.712988,55.5595886 406.092998,55.5595886 C406.092998,47.9945554 404.481026,39.6854204 401.133084,30.7562008 C398.033137,23.4392015 392.825227,16.6182698 385.757349,10.4174229 C382.657402,6.82093164 371.373597,4.96067756 352.029931,4.96067756 C343.474078,6.57289776 339.134153,9.30127042 339.134153,13.3938294 C339.134153,27.4077435 338.762159,53.9473684 338.14217,92.7646703 C338.14217,94.3768905 338.266168,95.2450091 338.638161,95.2450091 C338.638161,110.99516 339.754142,126.125227 342.110102,140.387175 C343.474078,171.515426 345.210048,189.249849 347.566007,193.466425 C348.929984,197.434967 352.64992,199.419238 358.477819,199.419238 C375.713522,197.558984 384.269375,195.078645 384.269375,191.978221 L384.269375,184.041137 C384.269375,177.716273 383.40139,169.655172 381.789417,159.733817 C381.789417,159.485783 381.913415,158.493648 382.285409,156.757411 L382.7814,156.757411 L384.269375,161.718088 C394.561197,181.684815 399.64511,193.838475 399.64511,198.427102 C399.64511,201.031458 404.23303,203.015729 413.53287,204.379915 C413.904864,204.379915 415.144842,204.255898 417.500802,203.883848 C425.436665,199.295221 429.404596,195.326679 429.404596,191.978221 L429.404596,191.482154 C429.404596,190.366001 429.280599,188.877798 428.908605,187.017544 C425.312667,176.972172 423.452699,171.39141 423.452699,170.15124 Z M383.773383,68.953418 C383.773383,76.5184513 381.169428,83.8354507 375.83752,90.7803993 L375.341529,90.7803993 L372.36558,69.9455535 L372.36558,58.0399274 C372.36558,55.6836056 371.497595,51.9630974 369.885623,46.630369 C369.885623,46.3823351 370.009621,45.3901996 370.381614,43.6539625 C370.009621,32.1203872 369.513629,25.4234725 368.89364,23.3151845 L369.389631,23.3151845 C378.937467,29.1439806 383.773383,42.0417423 383.773383,62.0084694 L383.773383,68.953418 Z M509.755211,53.6993345 C506.655265,48.61464 504.547301,44.0260133 503.307322,39.8094374 C500.455371,28.2758621 490.535542,22.4470659 473.547835,22.4470659 L470.571887,22.4470659 C470.075895,22.4470659 467.967932,23.3151845 464.123998,24.9274047 L459.660075,24.9274047 C450.856227,24.9274047 445.152325,28.399879 442.796366,35.3448276 C435.232496,51.7150635 431.388562,62.1324864 431.388562,66.5970962 C428.04062,83.7114338 426.428648,94.6249244 426.428648,99.3375681 C426.800641,101.569873 427.048637,106.530551 427.420631,114.219601 C435.728487,159.23775 450.360235,181.684815 471.067878,181.684815 L473.051844,181.684815 C476.275788,181.684815 481.359701,181.064731 488.427579,179.700544 C495.371459,177.592257 499.339391,175.111918 500.331374,172.259528 C504.919294,169.035088 507.895243,164.942529 509.25922,159.857834 C514.591128,144.975802 517.195083,128.977616 517.195083,111.739262 C517.195083,97.7253479 515.335115,83.4633999 511.739177,69.077435 C511.367183,61.5124017 510.623196,56.4277072 509.755211,53.6993345 Z M485.947622,115.707804 C485.947622,134.682396 483.963656,147.45614 479.995724,153.905021 C478.631748,153.284936 477.391769,151.300665 476.027793,147.952208 C473.795831,139.271022 470.819882,131.954023 467.099947,126.125227 C467.47194,126.125227 467.595938,126.00121 467.595938,125.629159 L467.595938,124.637024 C465.239979,109.134906 464.123998,99.2135511 464.123998,94.8729583 C464.123998,89.0441621 464.619989,83.0913491 465.611972,77.0145191 C465.611972,63.3726558 466.975949,53.3272837 469.579904,46.754386 C470.571887,47.1264368 471.687867,48.2425892 473.051844,50.2268603 C475.407803,61.5124017 477.639765,70.0695705 479.995724,76.0223835 C482.599679,86.3157895 484.583645,98.9655172 485.947622,114.219601 C485.575628,114.219601 485.45163,114.343618 485.45163,114.715668 L485.947622,115.707804 Z M600.27365,108.390805 C600.27365,106.034483 597.669695,95.1209921 592.337787,75.8983666 C592.337787,57.1718088 589.733832,44.0260133 584.401924,36.7090139 C582.789952,28.2758621 581.17798,23.3151845 579.690005,21.7029643 C574.854089,7.19298246 568.530198,0 560.594335,0 C554.394441,0.868118572 550.178514,1.98427102 547.946553,3.34845735 C544.59861,8.55716878 541.622662,18.6025408 539.018707,33.4845735 C537.902726,44.7701149 537.034741,51.4670296 536.290754,53.6993345 C533.066809,79.7428917 530.71085,95.6170599 529.222875,101.321839 C528.602886,118.31216 527.982897,126.745312 527.362908,126.745312 C527.362908,141.255293 526.370925,155.393224 524.510957,169.159105 C524.88295,169.779189 525.006948,170.275257 525.006948,170.647308 C525.006948,172.879613 524.386959,180.69268 523.14698,194.210526 C523.14698,201.403509 527.23891,205 535.298771,205 C535.298771,204.627949 535.422769,204.503932 535.794762,204.503932 L535.794762,205 C536.290754,204.627949 539.3907,204.255898 545.094602,203.635814 C548.938536,203.635814 550.798503,197.31095 550.798503,184.785239 C550.798503,177.84029 551.914484,165.31458 554.022448,147.08409 C561.090326,148.944344 566.794228,149.936479 570.886157,150.30853 C573.490112,176.104053 577.334046,189.001815 582.541956,189.001815 C583.409941,189.001815 584.897916,188.629764 587.253875,188.009679 L591.469802,188.505747 C593.081774,188.505747 595.06574,187.513612 597.545697,185.653358 C601.637627,185.281307 604.613576,184.041137 606.349546,181.932849 C608.209514,179.328494 609.201497,173.127647 609.201497,163.082275 L609.201497,162.586207 L604.117584,140.015124 C601.513629,123.14882 600.27365,112.607381 600.27365,108.390805 Z M568.034206,128.605566 L564.31427,128.605566 C561.834313,128.605566 558.982362,128.977616 555.882416,129.597701 L555.386424,129.597701 C555.386424,126.125227 556.502405,120.048397 558.734367,111.243194 C558.734367,94.8729583 559.602352,82.4712644 561.46232,74.0381125 L561.958311,74.0381125 C563.19829,83.8354507 563.818279,90.4083485 563.818279,93.7568058 C566.67023,114.219601 568.034206,125.753176 568.034206,128.233515 L568.034206,128.605566 L568.034206,128.605566 Z M694.016034,83.9594676 C693.644041,71.4337568 692.652058,65.1088929 691.040086,65.1088929 L691.536077,62.6285541 L691.536077,59.1560799 C691.536077,50.5989111 686.080171,39.4373866 675.168359,25.9195402 C668.968466,19.3466425 663.016569,14.8820327 657.312667,12.5257108 C642.308926,10.0453721 634.001069,8.18511797 632.513095,7.06896552 C629.661144,5.70477919 625.693212,4.71264368 620.6093,4.09255898 C618.625334,4.71264368 617.633351,5.20871143 617.633351,5.58076225 C613.66542,5.58076225 611.061464,8.68118572 609.697488,15.0060496 C609.697488,17.3623714 611.061464,20.214761 613.66542,23.4392015 L613.66542,27.4077435 C613.66542,28.2758621 613.169428,33.2365396 612.177445,42.2897762 L612.177445,43.2819117 C613.541422,52.0871143 614.161411,59.1560799 614.161411,64.6128252 L614.161411,89.4162129 C614.161411,91.8965517 614.7814,98.9655172 616.145377,110.747126 L616.145377,129.101633 C616.145377,133.442226 616.765366,139.891107 618.129343,148.448276 C617.13736,162.338173 616.641368,170.647308 616.641368,173.251664 L616.641368,173.747731 C616.641368,182.056866 618.997328,188.257713 623.585249,192.598306 C633.753073,198.551119 639.208979,201.527526 639.952966,201.527526 C648.260823,201.527526 657.064671,195.202662 666.240513,182.676951 C670.828434,174.119782 675.416355,168.166969 680.128274,164.818512 C681.49225,158.493648 683.22822,154.029038 685.58418,151.424682 C688.560128,148.69631 690.544094,143.735632 691.536077,136.54265 C694.512026,124.513007 696,113.351482 696,102.810042 C695.628006,91.8965517 695.008017,85.5716878 694.016034,83.9594676 Z M661.77659,124.637024 C659.420631,131.705989 658.30465,135.426497 658.30465,136.046582 L657.808658,136.046582 C655.452699,117.940109 654.336718,104.546279 654.336718,95.8650938 L654.336718,90.4083485 C650.74078,65.7289776 648.880812,52.707199 648.880812,51.2189958 L648.880812,45.2661827 L649.376804,45.2661827 C654.708712,60.2722323 657.312667,68.8294011 657.312667,71.061706 C658.924639,71.061706 660.536611,81.6031458 662.272582,102.810042 C661.900588,115.831821 661.77659,123.14882 661.77659,124.637024 Z M266.471406,75.4022989 C266.471406,76.0223835 266.719401,77.2625529 267.339391,78.9987901 C267.215393,78.9987901 267.215393,78.9987901 267.215393,79.122807 L267.215393,79.7428917 C267.215393,80.2389595 267.215393,80.8590442 267.091395,81.7271627 C267.215393,81.9751966 267.339391,82.8433152 267.463389,84.4555354 C267.463389,85.6957048 267.463389,87.9280097 267.339391,91.1524501 C267.463389,92.5166364 267.587386,93.7568058 267.835382,94.8729583 C267.835382,95.6170599 267.835382,96.2371446 267.711384,96.7332123 C267.835382,100.701754 267.95938,103.554144 268.083378,105.166364 C267.95938,106.034483 267.95938,106.902601 267.95938,107.522686 C267.95938,108.142771 268.083378,108.514822 268.207376,108.514822 C268.455371,113.351482 268.703367,115.707804 268.827365,115.707804 C268.827365,117.816092 269.075361,119.180278 269.571352,119.800363 C271.927312,121.412583 274.531267,122.280702 277.135222,122.280702 L277.507215,122.280702 C278.251203,122.280702 278.623196,122.156685 278.623196,121.908651 C279.491181,121.908651 279.863175,120.792498 279.863175,118.560194 L279.863175,118.188143 C279.367183,117.816092 278.99519,115.955838 278.623196,112.855414 C278.623196,111.987296 278.747194,109.754991 279.119188,106.282517 C279.119188,105.910466 278.871192,105.166364 278.3752,103.802178 C278.499198,103.058076 278.499198,102.686025 278.499198,102.437992 C278.499198,101.941924 278.499198,101.073805 278.3752,99.9576528 C278.499198,99.0895342 278.623196,98.3454325 278.623196,97.7253479 L278.623196,94.8729583 C278.623196,93.7568058 278.3752,91.8965517 278.003207,89.5402299 L278.003207,89.292196 L278.251203,89.292196 C281.847141,88.5480944 283.583111,87.5559589 283.583111,86.0677556 L283.583111,85.6957048 C283.583111,84.9516031 283.087119,84.5795523 282.095136,84.5795523 C279.987173,84.7035693 278.499198,84.7035693 277.755211,84.7035693 C277.507215,84.7035693 277.25922,84.3315185 277.135222,83.5874168 L277.135222,83.215366 L277.25922,82.3472474 C276.391235,80.1149425 275.771245,78.5027223 275.399252,77.5105868 L275.399252,77.3865699 L277.631213,77.3865699 L278.499198,77.5105868 C278.499198,77.3865699 278.499198,77.3865699 278.623196,77.3865699 L278.871192,77.5105868 C280.359166,77.138536 281.599145,76.7664852 282.715126,76.2704174 C283.831106,76.0223835 284.327098,75.154265 284.327098,73.7900786 C284.327098,73.045977 283.087119,72.6739262 280.607162,72.6739262 L279.739177,72.7979431 C279.739177,72.6739262 279.739177,72.6739262 279.615179,72.6739262 C279.615179,72.7979431 279.615179,72.7979431 279.491181,72.7979431 L278.623196,72.7979431 C277.755211,72.7979431 277.383218,72.9219601 277.383218,73.045977 L268.827365,74.0381125 C267.339391,74.5341803 266.471406,74.9062311 266.471406,75.4022989 Z M284.451096,100.329704 C286.435061,111.367211 290.030999,116.947973 295.23891,116.947973 L295.734901,116.947973 C296.478888,116.947973 297.718867,116.823956 299.454837,116.451906 C301.190807,115.955838 302.18279,115.335753 302.430786,114.591652 C303.546766,113.84755 304.290754,112.731397 304.662747,111.491228 C306.026724,107.77072 306.646713,103.926195 306.646713,99.7096189 C306.646713,96.2371446 306.150722,92.7646703 305.282737,89.1681791 C305.158739,87.307925 305.034741,86.0677556 304.786745,85.4476709 C304.042758,84.2075015 303.546766,83.0913491 303.174773,81.9751966 C302.430786,79.122807 300.074826,77.7586207 295.858899,77.7586207 L295.114912,77.7586207 C294.990914,77.7586207 294.494923,78.0066546 293.50294,78.3787054 L292.386959,78.3787054 C290.278995,78.3787054 288.791021,79.246824 288.295029,80.9830611 C286.435061,84.9516031 285.443079,87.5559589 285.443079,88.6721113 C284.575094,92.8886872 284.2031,95.6170599 284.2031,96.7332123 C284.327098,97.2292801 284.327098,98.4694495 284.451096,100.329704 Z M293.874933,91.1524501 C293.874933,87.8039927 294.246927,85.323654 294.866916,83.7114338 C295.114912,83.8354507 295.362908,84.0834846 295.734901,84.5795523 C296.35489,87.307925 296.850882,89.4162129 297.470871,90.9044162 C298.090861,93.384755 298.586852,96.4851785 298.958846,100.329704 C298.834848,100.329704 298.834848,100.329704 298.834848,100.453721 L298.958846,100.701754 C298.958846,105.414398 298.462854,108.514822 297.470871,110.127042 C297.098878,110.003025 296.850882,109.506957 296.478888,108.638838 C295.982897,106.530551 295.23891,104.670296 294.246927,103.30611 C294.370925,103.30611 294.370925,103.30611 294.370925,103.182093 L294.370925,102.934059 C293.750935,99.0895342 293.50294,96.7332123 293.50294,95.6170599 C293.50294,94.1288566 293.626937,92.6406534 293.874933,91.1524501 Z M318.798503,119.428312 L318.798503,117.444041 C318.798503,115.831821 318.550508,113.84755 318.178514,111.491228 C318.178514,111.491228 318.178514,111.243194 318.302512,110.747126 L318.42651,110.747126 L318.798503,111.987296 C321.278461,116.947973 322.518439,119.92438 322.518439,121.040532 C322.518439,121.660617 323.63442,122.156685 325.990379,122.528736 C326.114377,122.528736 326.362373,122.528736 326.982362,122.404719 C328.966328,121.288566 329.958311,120.296431 329.958311,119.428312 L329.958311,119.304295 C329.958311,119.056261 329.958311,118.684211 329.834313,118.188143 C328.966328,115.707804 328.470337,114.343618 328.470337,114.095584 C327.850347,113.599516 327.230358,111.987296 326.486371,109.010889 C325.122394,106.654567 324.502405,105.290381 324.502405,105.166364 C323.882416,103.182093 322.394441,101.321839 320.038482,99.5856019 C320.534474,98.9655172 320.906467,98.5934664 321.154463,98.5934664 C323.014431,96.1131276 324.006414,93.8808227 324.006414,92.0205687 L323.882416,91.1524501 C324.254409,90.2843315 324.502405,89.5402299 324.502405,89.1681791 L324.502405,88.4240774 C324.502405,86.8118572 324.378407,85.9437387 324.254409,85.9437387 C324.254409,84.0834846 323.882416,82.0992136 323.014431,79.8669087 C322.270444,78.0066546 321.030465,76.3944344 319.294495,74.9062311 C318.550508,74.0381125 315.698557,73.5420448 310.986638,73.5420448 C308.878675,73.9140956 307.762694,74.6581972 307.762694,75.6503327 C307.762694,79.122807 307.638696,85.5716878 307.514698,95.1209921 C307.514698,95.493043 307.514698,95.7410768 307.638696,95.7410768 C307.638696,99.5856019 307.886692,103.30611 308.506681,106.902601 C308.878675,114.591652 309.250668,118.932244 309.870657,119.92438 C310.242651,120.916515 311.110636,121.412583 312.59861,121.412583 C316.69054,120.792498 318.798503,120.172414 318.798503,119.428312 Z M315.202565,78.0066546 C317.558525,79.4948578 318.798503,82.5952813 318.798503,87.5559589 L318.798503,89.292196 C318.798503,91.1524501 318.178514,93.0127042 316.814538,94.6249244 L316.69054,94.6249244 L315.946553,89.5402299 L315.946553,86.5638234 C315.946553,85.9437387 315.698557,85.0756201 315.326563,83.7114338 C315.326563,83.7114338 315.326563,83.4633999 315.450561,82.9673321 C315.326563,80.1149425 315.202565,78.5027223 315.202565,78.0066546 L315.202565,78.0066546 Z M309.870657,165.438596 C309.870657,164.198427 309.622662,162.710224 309.002672,160.84997 C309.12667,160.353902 309.12667,159.857834 309.12667,159.485783 L309.12667,159.361766 C308.754677,155.517241 308.506681,152.664852 308.134687,151.052632 L308.506681,148.69631 C308.506681,148.572293 308.506681,148.448276 308.382683,148.448276 C308.134687,144.2317 307.886692,141.00726 307.638696,138.526921 C307.638696,136.046582 306.894709,132.946158 305.530732,129.597701 C305.530732,127.61343 305.034741,126.497278 304.042758,126.497278 L301.934794,126.497278 C300.44682,126.497278 299.454837,127.241379 298.71085,128.605566 C298.71085,129.721718 298.71085,130.589837 298.834848,131.209921 C298.71085,133.938294 298.71085,136.418633 298.71085,138.526921 L298.71085,140.883243 C298.71085,142.371446 298.834848,143.983666 299.206841,145.84392 C299.206841,146.215971 299.082843,147.208106 298.958846,148.820327 C299.578835,152.416818 299.826831,154.897157 299.826831,156.509377 L299.826831,157.377495 L299.702833,157.377495 C298.958846,158.121597 298.214858,158.493648 297.470871,158.493648 C297.222875,158.493648 297.098878,157.99758 296.97488,157.129462 C297.098878,154.77314 297.098878,153.16092 297.098878,152.540835 C297.098878,151.92075 296.97488,151.052632 296.726884,150.184513 C296.726884,149.192377 296.850882,148.572293 296.97488,148.448276 C296.850882,147.828191 296.850882,147.580157 296.726884,147.580157 C296.35489,142.123412 295.982897,138.402904 295.610903,136.418633 C295.23891,131.085904 294.246927,128.481549 292.88295,128.481549 C291.14698,128.357532 289.907002,128.233515 289.163014,127.985481 C288.171032,128.233515 287.427044,128.481549 286.807055,128.8536 C286.807055,128.357532 286.683057,128.109498 286.559059,128.109498 C286.559059,127.117362 284.575094,126.373261 280.607162,125.753176 C280.483164,125.753176 279.987173,125.753176 279.243185,125.877193 C278.871192,125.877193 277.507215,125.753176 275.027258,125.381125 C270.811331,125.505142 268.703367,125.629159 268.703367,125.753176 C265.727418,126.249244 264.239444,126.869328 264.239444,127.61343 L264.239444,127.861464 C264.239444,129.101633 265.975414,129.969752 269.199359,130.46582 L268.455371,139.891107 L268.579369,141.00726 C268.455371,143.115547 268.331374,145.84392 268.207376,148.820327 L268.455371,153.036903 C268.331374,153.036903 268.331374,153.036903 268.331374,153.16092 C268.455371,153.16092 268.455371,153.16092 268.455371,153.284936 L268.455371,154.897157 L268.579369,155.765275 C268.455371,155.765275 268.455371,155.765275 268.455371,155.889292 C268.579369,155.889292 268.579369,156.38536 268.703367,157.253479 C268.579369,158.741682 268.331374,161.346038 268.083378,164.942529 C268.083378,165.31458 268.207376,167.298851 268.579369,170.771325 L268.455371,172.507562 C268.579369,173.251664 268.703367,173.747731 268.827365,174.119782 C268.827365,174.61585 270.191342,174.987901 272.671299,175.235935 L273.663282,175.235935 C273.911277,175.235935 274.159273,175.235935 274.283271,175.111918 C275.399252,175.111918 276.019241,173.995765 276.019241,171.887477 C276.019241,171.515426 275.895243,170.895342 275.771245,169.903206 C275.895243,166.9268 276.143239,164.942529 276.267237,164.198427 C276.143239,162.214156 276.143239,160.973987 276.143239,160.477919 L276.763228,154.649123 C277.383218,153.656987 277.755211,152.912886 277.755211,152.292801 L277.631213,151.424682 C277.755211,151.424682 277.755211,151.424682 277.755211,151.300665 C277.631213,151.300665 277.631213,151.300665 277.631213,151.176649 L277.631213,150.556564 C277.631213,150.184513 277.879209,149.316394 278.499198,148.076225 C278.623196,145.471869 278.747194,144.2317 278.871192,144.2317 C278.747194,138.526921 278.623196,135.178463 278.3752,134.062311 C278.499198,133.938294 278.499198,133.814277 278.499198,133.69026 C278.499198,133.566243 278.499198,133.318209 278.3752,133.194192 C278.3752,133.070175 278.499198,132.574108 278.623196,131.705989 L279.243185,131.830006 L280.979156,131.830006 C283.459113,131.333938 285.195083,130.837871 286.063068,130.217786 C286.063068,130.713854 286.187066,131.209921 286.435061,131.954023 C286.435061,132.202057 286.311064,133.194192 286.187066,134.93043 C286.187066,135.30248 286.187066,136.294616 286.311064,137.782819 C286.311064,138.278887 286.311064,139.271022 286.187066,140.883243 C286.187066,141.255293 286.187066,141.751361 286.311064,142.495463 L286.063068,152.168784 C286.683057,160.105868 287.179049,164.694495 287.67504,165.68663 C288.543025,169.531155 289.163014,171.515426 289.659006,171.515426 C289.659006,172.135511 290.774987,172.507562 293.006948,172.507562 L293.130946,172.507562 C294.61892,172.507562 295.858899,172.259528 296.850882,171.639443 C297.470871,171.267393 297.842865,170.523291 297.842865,169.159105 L298.462854,166.802783 L298.462854,166.306715 C298.462854,166.058681 298.338856,165.68663 298.090861,165.31458 C298.090861,165.31458 298.090861,165.066546 298.214858,164.570478 C298.214858,164.322444 298.090861,163.702359 297.966863,162.710224 C297.966863,162.46219 298.462854,162.338173 299.454837,162.338173 L300.322822,162.338173 C300.942811,169.035088 301.438803,172.507562 301.810796,172.507562 C301.810796,173.251664 303.174773,173.871748 305.778728,174.367816 C307.266702,174.243799 308.010689,173.995765 308.010689,173.623714 C308.878675,173.623714 309.622662,172.631579 310.118653,170.523291 C309.622662,168.415003 309.374666,167.174834 309.374666,166.802783 C309.74666,166.430732 309.870657,165.934664 309.870657,165.438596 Z M323.882416,168.663037 C323.138429,168.663037 322.642437,167.670901 322.518439,165.562613 C322.518439,164.694495 322.642437,162.46219 323.014431,158.989716 C323.014431,158.617665 322.766435,157.873563 322.270444,156.509377 C322.394441,155.765275 322.394441,155.393224 322.394441,155.145191 C322.394441,154.649123 322.394441,153.781004 322.270444,152.664852 C322.394441,151.796733 322.518439,151.052632 322.518439,150.432547 L322.518439,147.580157 C322.518439,146.464005 322.270444,144.603751 321.89845,142.247429 L321.89845,141.999395 L322.146446,141.999395 C325.742384,141.255293 327.478354,140.263158 327.478354,138.774955 L327.478354,138.402904 C327.478354,137.658802 326.982362,137.286751 325.990379,137.286751 C323.882416,137.410768 322.394441,137.410768 321.650454,137.410768 C321.402459,137.410768 321.154463,137.038717 321.030465,136.294616 L321.030465,135.922565 L321.154463,135.054446 C320.286478,132.822142 319.666489,131.209921 319.294495,130.217786 L319.294495,130.093769 L321.526456,130.093769 L322.394441,130.217786 C322.394441,130.093769 322.394441,130.093769 322.518439,130.093769 L322.766435,130.217786 C324.254409,129.845735 325.494388,129.473684 326.610369,128.977616 C327.72635,128.729583 328.222341,127.861464 328.222341,126.497278 C328.222341,125.753176 326.982362,125.381125 324.502405,125.381125 L323.63442,125.505142 C323.63442,125.381125 323.63442,125.381125 323.510422,125.381125 C323.510422,125.505142 323.510422,125.505142 323.386424,125.505142 L322.518439,125.505142 C321.650454,125.505142 321.278461,125.629159 321.278461,125.753176 L312.722608,126.745312 C311.110636,127.117362 310.242651,127.61343 310.242651,128.109498 C310.242651,128.729583 310.490647,129.969752 311.110636,131.705989 C310.986638,131.705989 310.986638,131.705989 310.986638,131.830006 L310.986638,132.450091 C310.986638,132.946158 310.986638,133.566243 310.86264,134.434362 C310.986638,134.682396 311.110636,135.550514 311.234634,137.162734 C311.234634,138.402904 311.234634,140.635209 311.110636,143.859649 C311.234634,145.223835 311.358632,146.464005 311.606627,147.580157 C311.606627,148.324259 311.606627,148.944344 311.48263,149.440411 C311.606627,153.408953 311.730625,156.261343 311.854623,157.873563 C311.730625,158.741682 311.730625,159.6098 311.730625,160.229885 C311.730625,160.84997 311.854623,161.222021 311.978621,161.222021 C312.226617,166.058681 312.474613,168.415003 312.59861,168.415003 C312.59861,170.523291 312.846606,171.887477 313.342598,172.507562 C315.822555,174.119782 318.302512,174.987901 320.658471,174.987901 C321.774452,174.987901 322.766435,174.863884 323.63442,174.61585 C327.974345,173.251664 330.206307,172.011494 330.206307,170.771325 C330.206307,170.523291 330.082309,170.15124 329.834313,169.655172 C329.958311,169.283122 327.974345,169.035088 323.882416,168.663037 Z" id="Shape"></path>
        </g>
    </g>
</svg>