<?xml version="1.0" encoding="UTF-8"?>
<svg width="734px" height="414px" viewBox="0 0 734 414" version="1.1" xmlns="http://www.w3.org/2000/svg" xmlns:xlink="http://www.w3.org/1999/xlink">
    <title>show-whelans</title>
    <g id="Page-1" stroke="none" stroke-width="1" fill="none" fill-rule="evenodd">
        <g id="open-mic" transform="translate(161.000000, 17.000000)" fill="#000000" fill-rule="nonzero">
            <path d="M212.6318,250.213352 C214.194385,244.401271 213.553324,218.066534 211.389745,215.060285 C210.307955,213.537119 208.665237,213.136286 205.940729,213.376786 C197.647007,217.986367 176.612205,218.467367 171.924449,225.40178 C168.959544,229.810945 170.0814,239.79169 170.0814,246.68602 C170.041334,264.122262 170.041334,281.558504 170.001267,298.994746 C170.001267,307.372158 168.959544,317.55332 174.088029,320.319069 C178.655586,322.804234 185.867518,318.795903 190.154611,317.272737 C196.925814,314.907821 208.184441,313.504905 211.469877,307.732908 C213.713589,303.804743 212.792065,295.66783 212.792065,289.895833 C212.792065,281.718837 211.229479,267.689677 213.352993,260.71518 C214.394716,259.111848 215.43644,257.548598 216.478163,255.945266 C216.398031,255.784932 216.317898,255.624599 216.237766,255.424183 C210.949015,254.822933 199.049327,261.637096 197.486742,265.124345 C197.406609,265.404928 197.326477,265.685511 197.206278,265.926011 C197.807272,266.046261 198.408267,266.166511 199.009261,266.326844 C199.089394,270.014509 199.169526,273.742257 199.249659,277.429922 C199.209593,290.09625 197.887405,293.423165 185.747319,294.345081 C182.702281,291.579332 183.263209,284.604836 183.463541,278.391922 C186.468512,280.396088 191.316533,284.925502 195.122831,279.073338 C198.688731,273.541841 194.48177,268.371093 189.19302,268.69176 C192.43839,258.791181 200.050985,251.135268 212.6318,250.213352 Z M188.992689,254.983266 C187.269838,258.911431 185.506921,262.839596 183.784071,266.767761 C183.784071,266.928094 183.784071,267.12851 183.784071,267.288844 C182.421817,264.042095 183.303275,237.707358 184.625463,235.743275 C186.628778,232.737027 191.396666,233.01761 194.762234,231.213861 C196.685416,231.133694 197.406609,231.454361 198.648664,231.975444 C199.369858,234.019693 199.490057,236.985858 199.409924,240.112357 C195.964223,245.042604 192.037727,249.692269 188.992689,254.983266 Z M221.887112,309.376324 C221.646715,309.376324 221.366251,309.416407 221.125853,309.416407 C216.598362,311.701156 212.110938,313.985905 207.583447,316.270654 C188.832423,325.5299 169.039676,331.782897 146.201891,337.715227 C139.871417,339.358643 124.045233,342.324808 117.394229,340.881809 C116.112108,342.324808 115.711445,344.248808 114.068727,345.331057 C113.828329,345.691807 113.547865,346.052557 113.307467,346.45339 C124.566095,351.022888 153.934685,342.885975 163.750926,339.879726 C157.700916,348.176972 135.864788,359.159801 123.043576,361.524716 C126.849873,347.295139 103.691558,350.541888 107.377656,364.490881 C111.103821,378.479958 127.931663,368.539296 136.145252,365.052048 C133.981673,368.018213 128.492591,371.826128 129.975044,377.077042 L129.975044,377.598125 C135.063463,380.764707 146.482355,364.290465 149.807857,360.642883 C161.186684,348.217056 178.815851,340.561143 194.601969,332.30398 C203.536752,327.694399 212.471534,323.044734 221.406317,318.39507 C222.247709,316.390904 221.927179,312.222239 221.887112,309.376324 Z M167.036362,83.5068469 C178.855917,89.0784276 192.358257,81.4225145 192.358257,81.4225145 C192.358257,81.4225145 190.795672,73.6864348 192.919185,67.9545208 C195.683759,60.4188577 201.61357,58.414692 201.61357,58.414692 C201.61357,58.414692 201.132774,51.6005285 196.284753,48.59428 C190.515208,45.026865 182.82248,45.7884479 182.82248,45.7884479 L184.505264,49.4360296 C184.505264,49.4360296 182.582082,47.7926137 179.697309,46.0690311 C173.96783,42.6619494 164.391987,38.9742845 158.221778,47.2715306 C157.420452,48.3537801 152.492299,57.5328591 153.654221,66.2309383 C154.85621,75.0893508 164.592318,82.3444307 167.036362,83.5068469 Z M220.645058,9.67338159 C220.645058,9.67338159 219.242737,23.1814586 226.254338,30.9576216 C235.149054,40.8582003 246.728212,40.4974504 246.728212,40.4974504 C246.728212,40.4974504 247.930201,26.0674572 242.801716,18.3714608 C236.791772,9.39279839 224.29109,6.86754958 224.29109,6.86754958 L235.229187,25.907124 L220.645058,9.67338159 Z M130.696237,191.05038 C130.856502,190.849963 131.056834,190.68963 131.217099,190.489213 C131.217099,190.128463 131.217099,189.767714 131.217099,189.447047 C126.168746,181.791134 117.59456,186.681298 110.382628,189.086297 C108.499513,189.326797 106.616397,189.567297 104.733281,189.807797 C104.492884,189.928047 104.21242,190.008213 103.972022,190.128463 C103.891889,190.849963 103.811757,191.531379 103.731624,192.252879 C104.813414,193.295045 105.775005,193.735962 107.577988,194.056628 C110.58296,199.307542 108.820043,227.806779 108.820043,237.146191 C108.779977,273.461674 108.73991,309.777157 108.699844,346.012473 C114.990252,345.451307 117.754826,337.154061 117.714759,330.620481 C117.875024,330.500231 118.075356,330.420064 118.235621,330.299814 C119.077013,331.782897 121.320725,333.225896 123.364106,331.742813 C125.407487,330.660564 125.968415,328.536148 126.208813,325.730316 C128.853188,326.171233 130.495906,325.5299 132.619419,324.44765 C132.980016,323.96665 133.300546,323.525734 133.661143,323.044734 C131.136966,321.281068 128.813121,320.278985 127.490934,317.19257 C125.407487,312.262323 125.968415,304.205576 125.968415,297.030663 C125.968415,285.526752 126.008481,274.022841 126.008481,262.518929 C126.008481,252.458017 124.005167,240.87394 132.459154,238.549107 C143.076721,235.663109 141.474069,248.730269 141.434003,257.869265 C141.434003,271.577758 141.393936,285.286252 141.393936,298.994746 C141.113472,305.087409 140.873075,311.13999 140.592611,317.232654 C140.071749,318.435153 137.627705,320.158736 136.706181,321.481485 C136.866446,321.922401 137.066777,322.323235 137.227042,322.764151 C140.352213,323.084818 142.836323,320.800069 146.482355,321.561652 C152.011503,322.683984 155.777734,327.012982 162.228407,326.732399 C162.388672,326.451816 162.589004,326.171233 162.749269,325.89065 C162.388672,321.842235 159.423767,320.158736 158.622441,316.190487 C158.662507,297.47158 158.662507,278.712588 158.702574,259.993681 C158.702574,248.329436 159.864496,234.620942 155.377072,227.766696 C150.128388,219.709949 134.582667,220.752116 126.248879,227.245613 C126.168746,218.307033 126.088614,209.328371 126.008481,200.389792 C126.008481,197.82446 125.487619,193.375212 126.809807,191.892129 C128.091928,191.611546 129.414116,191.330963 130.696237,191.05038 Z M193.159583,23.9831249 C199.850653,15.6057121 210.267888,10.5151312 210.267888,10.5151312 C210.267888,10.5151312 204.658608,21.457876 204.658608,32.0799544 C204.658608,44.4256152 210.267888,56.7311928 210.267888,56.7311928 L214.474849,55.60886 C214.474849,55.60886 208.865568,42.862366 209.426496,31.518788 C209.987424,19.7743768 216.718561,9.39279839 216.718561,9.39279839 C216.718561,9.39279839 224.170891,4.78321722 220.084129,0.975302349 C216.277832,-2.55202933 211.950673,4.62288397 211.950673,4.62288397 C211.950673,4.62288397 201.132774,7.58904924 190.915871,19.2132104 C181.219828,30.1960386 179.697309,43.0226992 179.697309,43.0226992 L183.90427,43.5838656 C183.944336,43.5838656 186.668844,32.1200377 193.159583,23.9831249 Z M237.312634,283.562669 C237.3527,259.432514 237.432833,235.262275 237.472899,211.092037 C237.593098,202.594374 237.673231,194.056628 237.79343,185.558966 C238.995418,184.236216 240.237473,182.873383 241.479528,181.550634 C241.479528,181.189884 241.479528,180.829134 241.479528,180.468385 C240.878534,180.267968 240.277539,180.027468 239.636479,179.827052 C235.990446,182.071717 219.362936,196.541794 220.044063,199.788542 C221.48645,199.948875 221.887112,199.748459 222.928836,199.026959 C225.573211,201.431958 224.170891,223.598031 224.170891,229.690695 C224.130825,252.417934 224.090758,275.145173 224.010626,297.832329 C223.97056,310.89949 224.771885,322.844318 218.721876,330.019231 C223.089101,330.580397 228.17752,330.019231 229.940437,326.531983 C231.382823,325.65015 231.422889,326.291483 233.065607,327.093149 C234.387795,326.652232 235.669916,326.211316 236.992104,325.730316 C238.073894,323.886484 238.11396,322.363318 237.272568,320.399235 C240.838468,318.956236 242.240788,317.67357 243.562975,314.106155 C243.562975,313.585072 243.562975,313.063989 243.562975,312.502822 C234.147397,314.787571 237.312634,292.501249 237.312634,283.562669 Z M47.6388185,327.694399 C44.393449,339.879726 58.9375122,345.691807 69.5150127,344.649641 C66.3097095,356.514302 78.0090661,354.910969 83.0574186,349.419555 C83.0574186,349.259222 83.0574186,349.058805 83.0574186,348.898472 C88.4263014,352.786554 95.0372392,355.231636 102.489569,349.579888 C104.132287,348.337306 104.813414,346.132723 106.856795,345.331057 C106.856795,343.928141 106.856795,342.525225 106.856795,341.122309 C99.5246637,340.440893 92.1925327,339.759476 84.8604016,339.07806 C71.2378631,336.512728 59.1378436,332.344063 47.6388185,327.694399 Z M320.570384,176.500136 C317.765744,177.261719 314.921037,178.023302 312.116397,178.824969 C310.113082,179.786968 308.029635,182.432467 306.306785,183.033717 C301.298499,184.797383 298.053129,180.668801 294.968025,186.641215 C296.009748,186.801548 297.091538,187.001965 298.133262,187.162298 C301.378631,191.972296 299.415383,206.402289 299.375317,214.018119 C299.295184,236.785441 299.255118,259.512681 299.174985,282.280003 C299.255118,282.280003 299.335251,282.280003 299.455449,282.23992 C304.103139,278.632422 304.063073,274.98484 306.066387,268.69176 C308.830961,267.409094 313.358452,269.252926 312.156463,263.681345 C315.281634,262.198263 316.563755,262.078013 318.767401,260.23418 C318.847534,259.953597 318.927666,259.673014 319.047865,259.432514 C312.476994,259.232098 313.278319,252.458017 313.278319,245.202937 C313.318386,236.304442 311.475336,207.885372 315.522032,203.63654 C317.645545,201.391875 321.772373,201.912958 324.256483,202.674541 C326.420062,206.241956 326.940924,240.994189 325.698869,248.489769 C325.097875,252.097268 321.772373,254.382016 322.253168,257.027515 C324.336615,257.388265 326.860792,256.105599 329.384968,256.746932 C332.71047,258.550681 336.076038,260.314347 339.40154,262.118096 C342.166114,262.759429 345.691948,261.877596 345.251219,259.272181 C343.848898,257.949431 342.446578,256.626682 341.044258,255.344016 C339.121076,250.574102 339.762137,242.918189 339.762137,236.464775 C339.802203,219.188866 342.606843,191.330963 337.558491,178.865052 C335.19458,175.778637 325.979333,175.898887 320.570384,176.500136 Z M49.6821993,152.931148 C55.0510821,152.450148 58.6570482,147.39965 58.8974459,142.108653 L58.8974459,141.988403 C59.1378436,136.657322 55.9325405,132.127907 50.4835251,132.608907 C45.1146422,133.089907 41.5086762,138.140404 41.2682784,143.431402 L41.2682784,143.551652 C41.0278807,148.882733 44.2331839,153.412147 49.6821993,152.931148 Z M101.648177,127.838993 L97.7617469,128.159659 L97.3210177,138.180488 L101.127315,137.859821 C104.773348,137.539155 107.257458,135.575072 107.417723,132.368407 L107.417723,132.248157 C107.537922,128.961325 105.374342,127.518326 101.648177,127.838993 Z M318.366738,292.781832 C311.475336,290.737583 304.463736,299.916662 310.674011,302.441911 C310.433613,304.205576 309.031293,305.728742 309.071359,308.414324 C310.313414,309.296157 310.794209,310.05774 312.757458,310.258157 C312.757458,311.059823 312.757458,311.861489 312.757458,312.663156 C311.074673,316.95207 305.224995,317.112404 299.856112,317.07232 C309.111425,303.924993 295.088224,295.146747 290.680932,305.247743 C290.92133,306.370075 291.201794,307.532491 291.442191,308.654824 C293.004777,309.737074 294.206765,310.578823 296.450478,309.616824 C296.891207,310.017657 297.331936,310.458573 297.772665,310.859407 C297.532267,313.184239 296.170014,314.547072 294.326964,315.388821 C286.393839,319.316986 278.060051,305.929159 279.662702,297.070746 C281.666017,286.168085 288.557419,278.191505 297.051472,273.381508 C296.971339,270.295092 296.891207,267.168594 296.811074,264.082179 C294.687561,265.404928 292.604114,266.727677 290.480601,268.050427 C291.281926,268.81201 292.724313,269.012426 293.886235,269.373176 C294.0465,269.814093 294.246832,270.214926 294.407097,270.655842 C293.165042,273.982757 291.362059,276.989006 287.0349,277.349756 C285.993176,277.269589 284.951453,277.149339 283.869663,277.069172 C282.627608,277.590256 280.904757,279.834921 279.382238,280.596504 C271.168649,284.685002 262.914993,288.973917 254.981868,292.300832 C253.419283,292.421082 251.856697,292.541332 250.254046,292.661582 C246.608013,294.906247 242.921915,297.11083 239.275882,299.315412 C239.235816,302.762577 239.356015,306.410159 239.756678,309.095741 C246.127218,306.049409 252.497758,303.003077 258.868298,299.956745 C261.632872,313.625155 271.128583,321.922401 284.230259,324.367484 C297.091538,326.772482 315.00117,323.245151 321.091246,314.987988 C325.899201,308.654824 326.059466,295.066581 318.366738,292.781832 Z M317.164749,256.867182 C317.845876,257.348182 318.727335,257.348182 320.049522,257.187849 C319.328329,254.822933 321.291577,253.379934 321.652174,252.257601 C319.849191,253.33985 313.478651,254.742766 317.164749,256.867182 Z M396.8566,227.566279 C392.649639,218.788033 384.636381,210.931704 377.224118,205.560539 C373.017157,202.474124 367.207545,198.786459 365.043966,193.695878 C361.037337,184.436633 374.82014,174.816637 378.906902,181.831217 C379.067167,181.991551 379.267499,182.151884 379.427764,182.312217 C377.825112,183.67505 376.66319,184.115966 375.701599,186.120132 C375.861864,189.807797 377.143985,191.05038 377.544648,194.818211 C378.866836,195.579794 379.027101,195.619877 380.990349,195.339294 C381.711542,200.309625 384.996978,202.033208 389.203938,203.235707 C389.284071,203.235707 389.364204,203.235707 389.484402,203.195624 C388.522811,199.507959 387.561221,195.820294 386.59963,192.172712 C384.195652,177.662553 393.250634,167.401224 401.103626,161.949893 C404.389062,160.146144 407.714564,158.342395 411,156.538646 C408.435757,152.169565 404.188731,149.043066 398.859914,146.878567 L398.859914,76.0513504 L237.79343,89.5594273 C244.80503,80.4204316 242.881848,65.0685222 235.790115,57.8535256 C228.858647,50.7988622 215.877169,57.8535256 215.877169,57.8535256 L219.803665,60.6593576 L212.231137,58.6952752 C212.231137,58.6952752 198.488399,57.8134423 194.842367,69.3574369 C192.558588,76.4922668 194.682102,86.6333454 202.294697,92.5656759 L12.7010138,108.478752 L12.7010138,179.706802 C8.89471632,177.702636 5.12848508,176.139387 2.08344707,176.41997 C1.40232014,177.181553 0.721193215,177.943136 0.0400662897,178.704719 C0.0400662897,179.145635 0.0400662897,179.586552 0.0400662897,180.027468 C3.20530318,182.552717 7.93312537,182.873383 9.65597582,187.042048 C12.6208813,194.216961 10.6576331,208.727121 10.6576331,218.106617 C10.6576331,241.475189 10.6576331,264.843762 10.6175668,288.172251 C10.6175668,301.720411 11.7794892,325.008817 0,326.331566 C0,326.411733 0,326.491899 0,326.612149 C4.00662897,337.314394 13.141743,334.909395 21.5155976,328.896898 C25.8828232,333.867229 29.8493858,340.320643 40.2666212,337.675144 C42.7907974,337.033811 45.0745759,336.873478 46.6371612,335.390395 C45.5954377,332.66473 45.635504,328.896898 45.8759017,325.249316 C54.2497563,325.489816 70.5968025,338.95781 80.5332423,333.947396 C96.4395594,325.89065 96.6799571,306.129575 96.6799571,282.560587 C96.7200234,257.588682 96.7200234,232.616777 96.7600897,207.604788 C96.8402223,199.427792 96.9604211,191.290879 97.0405537,183.113883 C98.1223435,179.265885 102.088906,180.147718 102.689901,175.257554 C102.649834,175.057137 102.569702,174.856721 102.529635,174.616221 L306.46705,156.378313 C284.470657,163.593309 262.273933,170.086806 238.835153,176.41997 C223.129167,180.668801 203.697017,180.548551 196.885748,171.730222 C196.725483,171.730222 196.525151,171.770305 196.364886,171.770305 C194.882433,173.012888 194.401638,174.215388 193.480113,175.979053 C193.680445,180.067551 197.005947,182.5928 200.21125,183.354383 C193.720511,183.634966 187.229772,183.91555 180.739033,184.196133 C164.832716,187.963964 152.612498,189.406964 143.477384,198.946793 C141.35387,201.191458 133.420745,208.045705 136.746247,212.975953 C138.749561,215.902035 145.360499,213.416869 147.564145,211.813537 C151.971437,208.687038 159.784363,191.05038 167.236693,194.337211 C170.281731,195.740127 169.560538,200.590208 172.124781,202.393958 C178.054592,206.482456 184.745662,200.349709 184.585397,193.174795 C194.561903,190.368963 216.197699,187.082131 226.214272,189.166464 C229.058978,184.957716 235.429518,176.860886 242.160655,178.263802 C242.521252,178.865052 242.841782,179.426218 243.202379,180.027468 C243.202379,183.153967 241.840125,184.436633 239.796744,185.639132 C239.716611,188.204464 239.596413,190.80988 239.51628,193.375212 C244.4845,193.695878 246.808345,191.972296 249.45272,189.60738 C250.013648,187.322631 249.853383,184.717216 249.45272,182.432467 C264.918308,177.061303 280.423962,171.650055 295.969682,166.278891 C308.590563,161.989977 321.411776,159.504811 335.074381,156.017563 C354.907194,150.967065 375.541334,154.574563 383.394326,164.795809 C382.593001,167.000391 381.791675,169.245057 380.990349,171.449639 C370.653246,168.884307 362.519789,167.641724 353.585007,174.816637 C355.107526,182.432467 353.825405,189.887963 347.414798,193.014462 C345.411484,197.904626 350.900565,204.919206 352.943946,207.805205 C360.476409,218.6277 372.175765,223.998864 375.421135,239.471024 C379.908559,260.755263 359.715149,272.219091 345.371417,262.959846 C337.919088,266.807844 334.032657,260.394514 329.264769,258.871348 C326.900858,258.109765 323.735621,259.232098 321.091246,258.991598 C320.169721,263.561096 315.201501,263.080096 313.959446,266.487177 C333.672061,264.643345 334.87405,277.470006 331.829012,294.986414 C366.846949,292.380999 409.357282,278.872922 400.783096,239.350774 C399.500975,235.422609 398.178787,231.494444 396.8566,227.566279 Z M26.964613,144.914485 L26.964613,144.794235 C27.5656073,131.727074 38.1431078,120.423579 51.2047183,119.301247 C64.2663287,118.178914 73.8021057,127.598493 73.2011113,140.665653 L73.2011113,140.785903 C72.600117,153.853064 62.0226165,165.156558 48.961006,166.278891 C35.8993956,167.401224 26.3636186,157.981645 26.964613,144.914485 Z M94.9971729,176.139387 C89.7885553,180.107635 84.9405342,184.717216 79.1309222,188.284631 C76.0057516,190.168547 71.0375317,191.010296 68.6335543,193.615712 C68.9540846,197.34346 71.7987912,196.341377 74.2428349,197.624043 C77.2478066,199.548042 76.0057516,217.104534 76.0057516,222.956698 C76.0057516,245.363271 75.9656853,267.769844 75.9656853,290.176416 C75.9656853,296.99058 76.4865471,312.101989 68.313024,309.376324 C62.1428154,307.372158 63.9858647,292.220665 63.9858647,283.482503 C64.1060636,259.071764 64.1861961,234.661026 64.306395,210.250287 C65.267986,207.444455 68.3530903,207.123789 69.6752778,204.558457 C69.3547475,202.193541 67.7520959,200.870792 64.8272568,201.552208 C57.0944629,203.39604 41.2682784,195.058711 39.1046988,196.100877 C38.864301,196.221127 38.583837,196.301294 38.3434393,196.421544 C38.1831741,197.503793 38.0229089,198.545959 37.8225775,199.628209 C38.8242347,200.510042 40.9076818,200.469959 41.9093391,201.391875 C44.4735816,203.836957 43.4318581,221.353365 43.4318581,227.205529 C43.4318581,245.202937 43.3917918,263.200346 43.3917918,281.157671 C43.3917918,290.457 44.8742445,304.686576 38.5437707,307.973408 C37.7825112,308.013491 37.0212517,308.093658 36.2599922,308.133741 C30.4503802,306.249825 31.4520374,293.583498 31.4520374,285.206085 C31.4520374,262.518929 31.4921037,239.831773 31.4921037,217.144617 C31.4921037,207.244039 28.767596,194.056628 36.5805225,191.05038 C36.5003899,190.609463 36.4202574,190.20863 36.3401248,189.767714 C34.9378046,187.763548 29.4086567,187.923881 26.9245467,187.162298 C24.1199064,186.240382 20.7142718,184.236216 17.1884383,182.23205 L96.4395594,175.137304 C95.9186976,175.45797 95.4379021,175.81872 94.9971729,176.139387 Z M121.400858,130.083658 L121.400858,130.203908 C120.920062,141.066486 112.826672,147.559983 101.407779,148.562066 L96.800156,148.962899 L96.2392279,161.18831 L82.0958276,162.430893 L84.1392084,117.377248 L103.210762,115.733832 C114.46939,114.731749 121.92172,119.381413 121.400858,130.083658 Z M166.795964,122.467829 L144.59924,124.391828 L144.398908,128.961325 L165.073114,127.157576 L164.592318,138.020155 L143.918113,139.823904 L143.677715,144.714068 L166.19497,142.749986 L165.634042,155.095647 L129.213784,158.262228 L131.257165,113.208583 L167.356892,110.042001 L166.795964,122.467829 Z M217.800351,150.566232 L205.219536,151.648481 L190.435075,132.248157 L189.473484,153.051397 L175.450283,154.29398 L177.493663,109.240335 L190.755605,108.077919 L204.899006,126.636493 L205.82053,106.755169 L219.843732,105.512587 L217.800351,150.566232 Z M297.772665,143.591735 L283.669331,144.834318 L284.711055,122.507912 L274.253753,139.382987 L274.013355,139.423071 L264.99844,124.231494 L263.956717,146.557901 L250.09378,147.7604 L252.137161,102.706754 L266.881556,101.424088 L275.215344,116.455331 L285.031585,99.8207559 L299.77598,98.5380898 L297.772665,143.591735 Z M322.934295,141.387153 L308.790895,142.629736 L310.834276,97.5760902 L324.977676,96.3335075 L322.934295,141.387153 Z M355.868785,126.035244 C359.875414,125.674494 362.199259,123.189328 364.122441,119.661997 L375.461201,125.674494 C371.574771,132.689074 365.404562,138.661488 354.867128,139.583404 C343.127705,140.62557 333.351531,132.087824 333.992591,118.138831 L333.992591,118.018581 C334.593585,104.550587 344.930688,93.6479254 357.591636,92.5656759 C366.927081,91.7640096 372.977091,96.012841 376.222461,102.586505 L364.202574,110.883751 C362.760187,107.797335 360.636674,105.753086 356.750244,106.073753 C351.982355,106.474586 348.616787,111.204417 348.376389,116.615665 L348.376389,116.735915 C348.135991,122.588078 351.221096,126.436077 355.868785,126.035244 Z M247.088809,229.410112 C247.168941,229.490278 247.249074,229.570445 247.369273,229.650611 C252.57789,227.846862 256.584519,223.918697 262.834861,222.555865 C263.155391,221.834365 263.315656,221.593865 263.355722,220.391366 C262.674595,219.910366 261.953402,219.429366 261.272275,218.948366 C259.629557,211.573037 266.721291,205.760956 273.612693,207.284122 C274.133554,207.604788 274.654416,207.925455 275.175278,208.206038 C275.896471,211.092037 275.736206,215.621451 275.656073,219.3492 C273.933223,218.707867 272.050107,217.465284 269.886528,218.74795 C268.123611,219.669866 267.602749,220.952532 267.001755,222.956698 C267.602749,224.479864 269.245467,225.481947 269.606064,226.48403 C272.13024,232.937443 252.658023,230.412194 250.213979,232.576693 C247.529538,234.460609 248.611328,242.316939 248.611328,246.525687 C248.571261,257.268015 246.20735,284.725086 250.614642,290.457 C255.021934,291.058249 281.265354,278.111339 283.148469,274.664174 C287.475629,275.385673 290.440534,275.22534 292.363716,271.016592 C285.752778,268.09051 287.916358,259.071764 287.956424,249.531935 C287.996491,235.222192 288.036557,220.912449 288.076623,206.642789 C288.076623,200.109209 288.877949,192.012379 286.27364,188.404881 C284.711055,188.364798 283.108403,188.324714 281.545818,188.284631 C273.612693,193.054545 258.94843,193.134712 252.137161,198.706293 C247.609671,202.434041 248.69146,211.573037 248.69146,219.46945 C248.69146,221.313282 248.69146,223.197198 248.69146,225.04103 C248.130532,226.564196 247.209008,226.844779 247.088809,229.410112 Z M262.714662,266.968177 C259.028563,263.480929 260.831546,248.690186 260.951745,241.595439 C265.599435,236.665191 273.372295,234.460609 275.135212,226.884863 C276.898128,228.728695 275.616007,237.667274 275.616007,240.954106 C275.575941,255.945266 278.300448,265.885928 262.714662,266.968177 Z M344.650224,172.612055 C343.688633,173.052971 342.686976,173.493888 341.725385,173.934804 C339.40154,177.261719 338.239618,183.43455 343.568434,183.955633 C343.28797,185.158132 342.96744,185.679215 343.28797,186.921798 C343.888965,188.244548 344.489959,188.685464 346.453207,188.525131 C346.132677,190.489213 345.371417,191.250796 344.570092,192.693796 C352.823747,189.48713 357.751901,171.088889 344.650224,172.612055 Z M342.526711,253.299767 C342.606843,253.299767 342.686976,253.299767 342.807175,253.259684 C343.7287,250.253435 346.092611,247.52777 348.937317,246.365354 C349.01745,246.164937 349.097582,246.004604 349.217781,245.804187 C346.813804,245.884354 344.449893,246.004604 342.045915,246.08477 C342.206181,248.489769 342.366446,250.894768 342.526711,253.299767 Z" id="Shape"></path>
        </g>
    </g>
</svg>