<?xml version="1.0" encoding="UTF-8"?>
<svg width="734px" height="414px" viewBox="0 0 734 414" version="1.1" xmlns="http://www.w3.org/2000/svg" xmlns:xlink="http://www.w3.org/1999/xlink">
    <title>show-whelans</title>
    <g id="Page-1" stroke="none" stroke-width="1" fill="none" fill-rule="evenodd">
        <g id="vcf" transform="translate(18.000000, 58.000000)" fill="#000000" fill-rule="nonzero">
            <path d="M696.025823,142.87351 C695.671577,134.991348 695.317331,127.19775 694.963085,119.315588 C693.368978,110.016408 689.472271,102.931319 683.361526,98.2374476 C677.073658,93.3664488 666.977644,90.1781586 655.021839,92.0379945 C652.18787,92.1265581 649.353901,92.2151218 646.519933,92.392249 C641.383364,92.5693762 636.246796,92.6579398 631.198789,92.8350671 C629.516121,93.1893215 627.74489,93.543576 626.062221,93.8978304 C624.379552,93.6321396 622.785445,93.3664488 621.102776,93.1007579 C616.054769,92.3036854 609.855463,93.0121943 605.250264,93.7207032 C593.38302,95.5805391 581.870022,92.5693762 574.430854,98.8573929 C566.63744,95.84623 556.364304,95.5805391 545.914044,95.5805391 C542.991514,95.6691027 540.157545,95.7576664 537.235015,95.9347936 C537.146453,95.9347936 537.146453,95.9347936 537.057892,95.9347936 C537.146453,68.922891 524.659279,52.9814403 505.618552,45.0992786 C500.127737,42.8851882 489.854601,39.7854617 481.264133,41.2024795 C476.570373,41.999552 471.788051,42.6194973 467.802782,44.1250788 C465.677306,45.0992786 463.551829,46.0734783 461.426352,47.0476781 C459.389437,46.4277328 457.352523,45.8077875 455.404169,45.1878422 C450.79897,44.3907696 446.105209,43.5936971 441.411449,42.8851882 C433.618035,41.6452976 420.156683,44.4793332 414.1345,46.1620419 C412.451831,46.6934236 410.857724,47.3133689 409.175055,47.8447506 C407.935193,47.4019325 406.695332,47.0476781 405.455471,46.60486 C402.178695,45.6306602 398.370549,44.8335877 394.473842,44.7450241 C390.400012,37.9256257 384.46639,32.7003724 376.141607,30.1320276 C372.599146,29.0692642 368.879562,29.4235187 364.628609,28.7150098 C346.03069,25.6152832 327.078524,36.3314807 321.233464,46.6934236 C319.107987,46.7819872 316.982511,46.8705509 314.857034,47.0476781 C313.351488,45.0992786 311.845942,43.150879 310.340397,41.1139159 C306.266567,36.1543534 297.941784,31.6376091 288.908508,31.8147363 C288.022893,30.2205912 287.137278,28.6264462 286.251663,27.0323011 C284.657555,24.9953379 283.152009,22.8698112 281.557902,20.832848 C274.827226,12.4193046 265.439705,9.58526892 252.066915,7.45974216 C248.435893,6.92836047 244.804871,8.25681469 241.705217,8.52250554 C235.151665,2.05736164 227.092566,-0.245292354 213.631215,0.0203984911 C211.062931,0.108962106 208.583208,0.197525721 206.014924,0.374652951 C197.335895,1.70310718 187.15132,-0.156728739 178.915099,1.79167079 C162.796902,5.51134262 149.955481,20.832848 154.56068,43.5051335 C155.357734,47.3133689 156.686157,50.5902227 158.103141,53.6013856 C150.221166,54.664149 142.604875,53.8670764 136.848376,56.4354213 C127.815101,46.7819872 119.224633,38.3684438 105.67472,33.0546269 C100.98096,31.194791 95.7558297,30.043464 90.3535769,28.892137 C75.0324337,25.7038469 57.94006,29.4235187 47.1355544,34.2059539 C21.7183977,45.2764058 6.22013138,65.3803464 0.640755515,96.5547389 C-1.13047492,106.650991 1.08356312,118.075697 3.47472421,125.515041 C10.6482075,148.453017 25.9693507,165.368668 46.8698698,174.49072 C54.7518452,177.944701 61.3939593,179.273155 71.4899728,181.044428 C73.5268878,181.132991 75.5638028,181.221555 77.5121563,181.398682 C79.9033174,181.221555 82.2944784,180.955864 84.6856395,180.778737 C92.3904919,179.184592 99.6525367,177.67901 106.206089,175.022102 C111.254096,172.985139 115.593611,169.531158 120.287371,167.759885 C120.375933,167.671322 120.464494,167.582758 120.553056,167.405631 C120.464494,169.35403 120.375933,171.213866 120.287371,173.162266 C120.375933,176.704811 120.464494,180.158792 120.553056,183.701336 C122.147163,193.089079 123.829832,201.059805 127.106608,208.499148 C134.900022,226.300435 148.184251,238.167959 167.844908,244.190285 C172.272984,245.518739 176.612499,245.607303 181.660506,246.492939 C189.896727,247.909957 200.435548,246.847194 207.52047,245.075921 C216.199499,242.950395 223.195859,239.850668 230.19222,236.21956 C240.553918,241.35625 263.934159,247.998521 279.343864,243.393213 C279.520987,249.415538 279.343864,256.234937 280.937971,261.105936 C281.735025,263.585717 283.506256,265.888371 284.214748,268.102461 C285.100363,270.936497 284.92324,273.504842 285.897417,275.984623 C290.236931,286.966511 298.738837,293.78591 311.934504,296 C316.096896,295.911436 320.170726,295.822873 324.333117,295.645746 C328.938316,295.468618 333.632077,295.202927 338.325837,295.0258 C340.451314,294.582982 345.056513,292.280328 346.562059,292.368892 C348.067605,292.81171 349.573151,293.343092 351.078697,293.78591 C354.001227,294.228728 357.012319,294.582982 359.934849,295.0258 C369.499493,296.531382 377.647153,292.900273 384.909198,292.103201 C386.326182,292.368892 387.831728,292.723146 389.248712,293.077401 C393.588227,293.963037 399.787533,294.937237 404.924102,294.140164 C409.794985,293.343092 414.488746,293.520219 418.916822,292.457455 C421.750791,291.748946 425.027567,290.066238 427.595851,289.62342 C429.101397,290.066238 430.606943,290.597619 432.112489,291.040438 C435.212142,291.926074 439.020288,292.457455 442.65131,292.634583 C448.673493,292.81171 453.810062,292.014637 458.503822,291.040438 C465.854429,290.86331 473.205035,290.597619 480.555641,290.420492 C482.503995,289.977674 484.363787,289.62342 486.31214,289.180602 C488.083371,289.357729 489.854601,289.62342 491.625831,289.800547 C503.847321,289.800547 512.703474,289.446292 520.762572,285.638057 C526.076263,287.852147 534.0468,290.420492 542.19446,289.180602 C544.674183,288.826347 550.784928,287.143638 552.467597,287.320766 C554.504512,287.586457 556.541427,287.940711 558.48978,288.294965 C564.246279,289.180602 569.648532,287.409329 573.988046,286.612257 C576.379208,286.877948 578.770369,287.143638 581.16153,287.409329 C586.740906,288.294965 598.165342,286.966511 602.681979,285.815184 C615.966208,282.538331 624.379552,273.150587 626.682152,258.803282 C627.922013,251.098247 625.176606,239.584977 624.379552,232.411324 C627.390644,232.145634 630.401736,231.879943 633.412827,231.614252 C642.180418,230.020107 650.948009,228.780216 658.5643,225.857617 C683.981456,215.938492 697,196.100242 697,160.586233 C696.645754,154.298216 696.911438,148.27589 696.025823,142.87351 Z M119.933125,120.378351 C113.291011,137.205438 100.715275,146.238927 80.4346865,149.692908 C72.8183956,150.932799 65.2021048,148.27589 60.2426596,146.238927 C42.3532322,138.799583 24.1981203,115.418789 34.4712568,88.8497044 C39.6963865,75.4765985 48.9953463,66.4431098 62.3681361,61.2178565 C65.5563509,60.5093476 68.6560041,59.8008387 71.8442189,59.0037661 C73.1726417,58.9152025 74.5010645,58.8266389 75.9180489,58.7380753 C98.7669215,58.3838208 112.848203,71.3141086 119.490318,87.4326865 C123.12134,96.5547389 123.652709,110.813481 119.933125,120.378351 Z M581.072968,139.596656 C583.818375,143.936273 585.323921,149.25009 586.475221,155.095288 C587.272275,158.903524 587.803644,164.394468 587.095152,168.556958 C586.918029,170.948176 586.652344,173.339393 586.475221,175.730611 C584.881114,182.992827 581.958583,189.635098 576.999138,193.531897 C571.951131,197.51726 566.01751,199.642787 558.224096,201.148368 C555.301565,201.325496 552.290474,201.591186 549.367943,201.768314 C544.939867,201.856877 540.511791,201.945441 535.995154,202.034004 C528.998793,202.299695 522.002433,202.565386 515.094635,202.831077 C514.209019,177.856138 513.323404,152.881198 512.437789,127.994822 C539.803299,127.994822 569.205724,120.732606 581.072968,139.596656 Z M470.548189,78.4877614 C472.585104,75.9194166 476.304688,73.8824534 479.847149,72.9082537 C481.352695,72.6425628 482.858241,72.376872 484.363787,72.1111811 C499.330684,71.9340539 507.301221,82.030306 505.795675,97.7060659 C496.319592,98.0603204 486.754948,98.4145748 477.278865,98.7688293 C480.998449,111.964808 493.662746,107.005245 504.732937,104.791155 C504.821498,107.3595 504.821498,109.927845 504.91006,112.584753 C502.430337,113.558953 499.950614,114.533153 497.470892,115.507353 C488.791863,117.987134 477.987357,116.038734 472.673666,111.964808 C463.374706,104.879719 463.197583,87.6098138 470.548189,78.4877614 Z M463.906075,129.854658 C466.474359,129.323276 468.954082,128.703331 471.522366,128.171949 C472.93935,127.994822 474.444896,127.906259 475.861881,127.729131 C493.131377,127.463441 503.670198,131.891621 507.301221,145.264727 C508.098274,148.187326 508.718205,152.704071 507.921151,156.246615 C507.389782,158.637833 506.592729,161.029051 505.441429,162.888887 C498.710753,174.047902 485.603648,175.730611 470.282505,178.564646 C470.282505,178.65321 470.282505,178.65321 470.282505,178.741774 C472.230858,181.310119 478.16448,182.018627 482.858241,181.221555 C492.068639,179.62741 498.445069,176.43912 505.175744,172.719448 C506.504167,181.221555 507.744028,189.635098 509.072451,198.137205 C505.884236,199.377096 502.784583,200.616987 499.596368,201.856877 C493.662746,203.716713 487.374878,204.602349 480.555641,205.753676 C477.278865,205.753676 473.913527,205.753676 470.636751,205.753676 C464.703129,204.779476 460.186491,204.513786 455.581292,202.476823 C442.739871,196.897315 432.20105,179.715973 436.983373,159.346342 C438.311795,153.678271 440.437272,148.630145 443.359802,144.467655 C447.965001,137.73682 455.227046,132.511567 463.906075,129.854658 Z M417.854084,77.8678161 C421.13086,75.9194166 425.736059,75.5651621 429.987012,74.7680896 C432.732419,74.2367079 436.894811,73.528199 439.905903,73.9710171 C447.522194,75.1223441 452.481639,75.7422894 456.201223,80.5247246 C461.160668,86.9898685 460.540737,105.322537 460.540737,116.65868 C456.64403,116.835807 452.747323,116.92437 448.939178,117.101498 C448.762055,109.219336 449.470547,89.7353405 445.219594,86.3699232 C441.322887,83.3587603 434.326527,84.8643417 429.367082,85.7499779 C429.721328,96.3776117 430.075574,107.005245 430.42982,117.721443 C426.533113,117.89857 422.636406,117.987134 418.828261,118.164261 C418.474015,108.156572 418.119768,98.2374476 417.765522,88.2297591 C417.588399,86.3699232 417.05703,78.4877614 417.854084,77.8678161 Z M369.588055,88.938268 C371.890654,83.0930694 376.584415,78.576325 382.783721,76.7164891 C384.909198,76.3622347 387.123236,76.0079802 389.337274,75.6537257 C406.695332,75.3880349 418.385453,91.5951765 410.414916,108.687954 C407.049578,115.950171 400.76171,118.87277 391.374189,120.289788 C374.990307,122.681005 363.654433,104.082646 369.588055,88.938268 Z M347.004867,64.1404558 C350.901574,59.0923297 359.226357,59.269457 367.285455,60.0665295 C367.374017,63.4319469 367.462578,66.7973642 367.639701,70.1627816 C360.909025,69.9856544 353.115612,68.8343274 355.683896,77.9563797 C359.226357,77.7792525 362.857379,77.6021253 366.39984,77.5135617 C366.488401,80.878979 366.576963,84.33296 366.754086,87.786941 C363.211625,87.9640682 359.580603,88.0526319 356.038142,88.2297591 C356.392388,98.9459565 356.746634,109.750718 357.10088,120.466915 C353.204173,120.555479 349.307466,120.644042 345.499321,120.732606 C345.056513,108.068009 344.525144,95.4034119 344.082336,82.738815 C342.931037,75.4765985 344.082336,67.8601276 347.004867,64.1404558 Z M295.373499,95.7576664 C299.358768,79.727652 318.310934,73.7053262 336.466045,80.878979 C336.908853,94.2520849 337.440222,107.625191 337.88303,120.998297 C334.42913,121.08686 330.975231,121.175424 327.521332,121.352551 C327.255647,120.201224 326.989963,118.961334 326.724278,117.810007 C324.864486,119.227024 323.536063,120.909733 321.144902,121.883933 C305.29239,127.994822 291.299669,111.964808 295.373499,95.7576664 Z M271.196204,79.9047793 C273.144558,80.2590337 275.092911,80.6132882 277.129826,80.9675427 C276.952703,75.1223441 276.687018,69.1885818 276.509895,63.2548196 C280.318041,63.0776924 284.126186,62.9891288 288.022893,62.8120016 C288.731385,82.4731241 289.351316,102.22281 290.059808,121.883933 C276.244211,123.478078 264.376967,127.286313 253.926707,118.961334 C241.705217,109.219336 247.284593,86.9013049 259.506083,81.587488 C262.25149,80.436161 266.856689,79.1962703 271.196204,79.9047793 Z M240.819602,45.3649694 C242.767956,40.848225 250.295685,36.3314807 256.494991,40.0511525 C260.214575,42.2652429 262.162929,46.9591145 262.074367,52.8928767 C256.760676,53.0700039 251.446985,53.1585675 246.133293,53.3356948 C247.10747,61.4835473 254.723761,59.0923297 259.594645,56.7896757 C260.126014,58.4723844 260.745945,60.2436567 261.277314,61.9263654 C251.712669,66.0002917 242.236586,65.7346009 240.022548,54.4870217 C239.491179,51.4758588 239.845425,47.6676234 240.819602,45.3649694 Z M220.361891,31.1062274 C220.450452,34.7373356 220.539014,38.4570074 220.716137,42.0881156 C222.04456,41.3796067 223.372982,40.6710978 224.789967,39.9625889 C238.33988,36.242917 237.100018,53.6013856 237.011457,64.5832739 C234.88598,64.5832739 232.760504,64.5832739 230.635027,64.5832739 C230.81215,58.3838208 231.786327,44.9221513 225.852705,45.0107149 C223.727228,45.0107149 221.867437,46.3391692 220.89326,47.6676234 C221.070383,53.4242584 221.336067,59.269457 221.51319,65.0260919 C219.476275,65.1146556 217.350799,65.1146556 215.313884,65.2032192 C214.871076,53.8670764 214.51683,42.5309337 214.074023,31.2833546 C216.110938,31.194791 218.236414,31.1062274 220.361891,31.1062274 Z M217.43936,81.587488 C228.420989,81.4103607 234.974542,84.8643417 238.95981,91.6837401 C248.170208,107.270936 237.80851,123.300951 223.284421,125.957859 C205.660678,129.146149 192.465011,111.699117 198.930002,95.1377211 C201.14404,89.4696497 205.394993,85.2185962 211.062931,83.0045058 C213.188407,82.5616877 215.313884,82.1188696 217.43936,81.587488 Z M211.062931,31.3719182 C211.151492,32.8774997 211.771423,36.4200443 210.885808,37.394244 C207.786155,37.5713713 204.686501,37.7484985 201.586848,37.8370621 C201.941094,47.0476781 202.206779,56.3468577 202.561025,65.5574736 C200.435548,65.6460372 198.310072,65.7346009 196.184595,65.9117281 C195.830349,56.6125485 195.476103,47.3133689 195.121857,38.0141893 C191.933642,38.102753 188.745427,38.1913166 185.468651,38.2798802 C185.38009,36.242917 185.38009,34.2059539 185.291528,32.2575544 C193.881996,31.9918635 202.472463,31.7261727 211.062931,31.3719182 Z M162.885463,84.5986509 C166.693609,93.7207032 170.413192,102.754192 174.221338,111.876244 C174.309899,111.876244 174.309899,111.876244 174.398461,111.876244 C174.398461,111.787681 174.398461,111.699117 174.398461,111.52199 C177.498114,102.311374 180.597767,93.0121943 183.697421,83.8015783 C186.708512,83.7130147 189.719604,83.6244511 192.730696,83.4473239 C194.059119,83.4473239 195.29898,83.4473239 196.627403,83.4473239 C196.627403,83.5358875 196.627403,83.5358875 196.627403,83.6244511 C191.490835,97.7946295 186.265705,112.053372 181.129137,126.22355 C176.966745,126.400677 172.715792,126.666368 168.553401,126.843495 C162.088409,112.939008 155.623418,98.9459565 149.158427,84.9529053 C153.675065,84.8643417 158.280264,84.6872145 162.885463,84.5986509 Z M161.468479,204.86804 C148.007127,188.306644 147.56432,159.612033 164.745255,146.416054 C169.261893,142.962073 174.841269,140.393728 181.217698,138.799583 C184.405913,138.356765 187.505566,138.002511 190.693781,137.559693 C206.014924,138.888147 213.542653,139.419529 220.89326,149.515781 C222.487367,151.729871 224.524282,154.298216 225.055651,157.397942 C217.085114,160.851923 209.026016,164.305904 201.055479,167.759885 C199.904179,162.446068 193.173504,159.434906 187.682689,162.800323 C184.140228,164.92585 182.723244,168.999776 181.92619,173.959338 C180.77489,181.310119 184.583036,188.306644 188.568304,190.697862 C192.287888,192.911952 197.867264,191.672061 199.904179,188.660899 C200.701233,187.509572 200.701233,186.092554 201.321164,184.586972 C209.557385,187.243881 217.882168,189.900789 226.11839,192.469134 C223.372982,217.621201 176.169691,223.023581 161.468479,204.86804 Z M306.089444,181.398682 C302.812667,199.642787 294.487884,207.967767 277.129826,211.953129 C273.144558,212.838765 266.856689,213.901529 261.63156,213.015893 C240.376795,209.561912 231.343519,202.831077 227.535374,182.018627 C226.472636,176.084865 226.649759,167.848449 227.978182,162.357505 C229.218043,157.309379 231.077835,152.881198 233.73468,149.161526 C238.517003,142.430691 246.221855,138.445329 255.432253,136.142675 C259.063276,135.699857 262.78286,135.345602 266.413882,134.902784 C285.188924,134.637093 297.321853,141.89931 302.812667,154.918161 C304.318213,158.372142 305.115267,162.268941 305.912321,166.431431 C306.797936,170.948176 306.886497,176.970501 306.089444,181.398682 Z M342.311106,236.308123 C339.03433,235.776742 333.986323,234.094033 330.975231,235.865305 C330.620985,236.928069 330.620985,237.725141 330.620985,239.142159 C333.986323,239.053596 337.440222,238.965032 340.894122,238.876468 C340.982683,242.773267 341.071245,246.75863 341.248368,250.655429 C338.325837,250.743993 335.491869,250.832556 332.569339,250.92112 C332.746462,255.349301 332.923585,259.688918 333.012146,264.117099 C332.923585,264.117099 332.835023,264.117099 332.6579,264.117099 C326.81284,264.294226 320.967779,264.559917 315.122719,264.737044 C314.857034,262.168699 315.476965,252.958083 314.325665,251.363938 C313.174365,251.452502 311.934504,251.541065 310.783204,251.718192 C310.694643,247.821393 310.606081,243.836031 310.428958,239.939232 C311.668819,239.939232 312.908681,239.939232 314.148542,239.939232 C314.059981,235.333924 313.528611,230.020107 315.388403,226.92038 C319.905041,219.392473 333.366392,220.632364 343.019598,222.403636 C342.842475,227.008944 342.57679,231.614252 342.311106,236.308123 Z M341.602614,171.833812 C342.045421,184.144154 342.57679,196.54306 343.019598,208.853403 C333.012146,209.207657 323.093256,209.473348 313.085804,209.827603 C312.465873,190.963553 311.845942,172.010939 311.226012,153.058325 C310.163274,147.035999 309.011974,141.102237 307.949236,135.079911 C316.36258,134.902784 324.687363,134.637093 333.100708,134.459966 C333.8092,138.445329 334.42913,142.430691 335.137623,146.416054 C335.226184,146.416054 335.226184,146.416054 335.314746,146.416054 C339.211453,141.190801 341.779737,136.585493 348.156166,133.840021 C362.414571,127.729131 374.016131,133.840021 378.267084,144.821909 C378.62133,144.821909 378.887014,144.821909 379.24126,144.821909 C382.606598,134.194275 397.83918,126.666368 412.717516,131.36024 C420.333806,133.751457 425.293252,139.330965 427.595851,147.035999 C429.632766,153.943961 428.038659,163.508832 429.27852,171.390994 C429.898451,175.287793 428.570028,179.273155 430.872628,181.487246 C432.378173,181.487246 433.175227,181.221555 434.326527,181.044428 C435.035019,188.749462 435.65495,196.54306 436.363442,204.336658 C433.086666,205.84224 429.012836,206.727876 425.027567,207.436385 C422.902091,207.613512 420.776614,207.790639 418.651138,207.879203 C405.366909,207.879203 401.91301,202.565386 400.053218,191.14068 C399.876095,187.155317 399.698972,183.169954 399.61041,179.184592 C398.370549,171.390994 401.647325,160.231978 394.828088,158.106451 C391.197066,156.955124 387.654605,158.726397 386.326182,160.940487 C384.554952,163.863086 385.706252,169.796849 385.706252,173.959338 C386.149059,185.118354 386.503305,196.277369 386.946113,207.436385 C376.938661,207.790639 367.01977,208.144894 357.012319,208.499148 C356.569511,195.923115 356.038142,183.258518 355.595334,170.682485 C355.506773,168.645522 355.506773,166.608558 355.418211,164.660159 C354.709719,161.560432 351.964312,158.549269 347.536236,159.346342 C342.045421,160.231978 340.539875,165.102977 341.602614,171.833812 Z M345.942128,253.046647 C344.348021,249.415538 342.931037,243.304649 344.082336,237.813705 C344.790829,234.625415 346.03069,231.437125 347.624797,229.134471 C350.813012,224.617726 355.861019,221.429436 362.060325,220.012418 C363.831556,219.835291 365.691348,219.5696 367.462578,219.392473 C377.824276,219.303909 383.049406,223.112145 384.554952,231.968506 C385.086321,235.068233 384.023583,238.345087 382.69516,240.204923 C379.77263,244.367412 374.458938,246.315812 368.702439,247.644266 C366.842647,247.909957 364.982855,248.175648 363.123063,248.441339 C363.300187,248.70703 363.565871,248.97272 363.742994,249.238411 C370.827916,251.452502 378.178522,247.998521 382.69516,245.164485 C382.783721,245.253049 382.872283,245.253049 383.049406,245.341612 C383.757898,250.124047 384.377829,254.817919 385.086321,259.600354 C370.827916,263.939971 352.672804,268.368152 345.942128,253.046647 Z M424.496198,254.286537 C419.182507,263.40859 398.193426,264.914171 386.857551,259.688918 C387.123236,255.08361 387.38892,250.389738 387.654605,245.695867 C391.285627,247.644266 403.06431,252.603829 407.226701,247.998521 C407.226701,247.73283 407.226701,247.378575 407.226701,247.024321 C396.333634,246.847194 388.008851,244.101722 386.326182,234.448288 C385.706252,230.994307 386.591867,227.451762 387.92029,225.326235 C394.119596,215.229983 412.451831,217.798328 423.699144,220.986618 C423.787706,225.769053 423.876267,230.640052 424.05339,235.422487 C419.97956,233.119833 410.946285,228.160271 405.012663,231.879943 C404.924102,232.411324 404.83554,232.942706 404.658417,233.474088 C415.551484,233.296961 424.230513,236.839505 425.913182,246.227248 C426.267428,249.149848 425.558936,252.426701 424.496198,254.286537 Z M450.179039,260.751681 C441.057203,262.345826 433.086666,259.511791 431.138312,252.869519 C429.809889,248.529902 430.252697,240.204923 430.164135,235.156796 C429.012836,235.24536 427.772974,235.24536 426.621674,235.333924 C426.444551,230.905743 426.267428,226.477562 426.178867,221.960818 C427.595851,221.872254 429.012836,221.783691 430.341258,221.606563 C430.784066,220.100982 431.138312,218.5954 431.58112,217.089819 C436.27488,216.912692 440.968641,216.735565 445.662402,216.647001 C445.750963,218.064019 445.750963,219.5696 445.839525,220.986618 C449.116301,220.898054 452.393077,220.809491 455.581292,220.632364 C455.758415,225.237672 455.935538,229.84298 456.0241,234.448288 C453.013008,234.448288 450.001916,234.448288 446.990824,234.448288 C447.787878,237.725141 446.459455,242.861831 448.053563,245.341612 C451.064654,246.227248 453.278693,245.164485 455.492731,244.278849 C456.0241,249.149848 456.64403,254.10941 457.175399,258.980409 C454.961361,259.688918 452.5702,260.2203 450.179039,260.751681 Z M458.592384,220.012418 C460.275053,217.089819 462.843337,217.266946 466.208675,215.938492 C469.485451,215.849928 472.31942,216.115619 474.267773,217.35551 C478.607288,220.100982 477.898796,227.186071 473.824966,229.577289 C467.271413,233.385524 453.367254,229.134471 458.592384,220.012418 Z M460.452176,259.688918 C460.186491,251.452502 459.920807,243.216085 459.655122,235.068233 C467.005728,234.536851 471.522366,232.411324 476.39325,229.665852 C476.747496,239.496414 477.01318,249.326975 477.367426,259.157536 C471.699489,259.334663 466.120113,259.511791 460.452176,259.688918 Z M511.729297,251.629629 C510.223751,253.578028 507.566905,257.2977 505.175744,258.183336 C500.924791,258.2719 496.673838,258.360464 492.422885,258.537591 C487.729124,244.54454 483.035364,230.551488 478.341603,216.558437 C484.098102,216.38131 489.943162,216.115619 495.699661,215.938492 C497.736576,224.529163 499.773491,233.119833 501.721845,241.710504 C501.810406,241.62194 501.810406,241.533377 501.898968,241.35625 C506.858413,235.511051 505.352867,224.617726 504.821498,215.584238 C510.046628,215.40711 515.360319,215.229983 520.67401,215.141419 C523.153733,231.437125 518.814219,242.773267 511.729297,251.629629 Z M551.581982,250.743993 C551.49342,250.832556 551.404858,250.832556 551.227735,250.92112 C550.607805,252.603829 549.102259,253.843719 547.773836,254.817919 C540.246107,260.48599 529.707286,257.829082 525.633456,250.92112 C517.840042,237.990832 525.27921,220.898054 535.375223,216.38131 C538.209192,215.141419 541.308845,214.255783 544.674183,213.547274 C546.26829,213.370147 547.862398,213.19302 549.456505,213.104456 C554.593073,213.104456 559.729641,213.104456 564.334841,213.547274 C564.689087,222.846454 565.043333,232.145634 565.397579,241.444813 C565.663263,241.710504 565.928948,241.976195 566.194633,242.241886 C566.814563,242.153322 567.434494,242.064758 568.054425,241.887631 C568.408671,246.315812 568.762917,250.743993 569.117163,255.260737 C561.855118,257.740518 554.593073,258.094773 551.581982,250.743993 Z M574.253731,252.603829 C569.205724,246.670066 572.393939,234.094033 570.799832,224.529163 C570.09134,220.809491 569.471409,217.089819 568.762917,213.370147 C574.430854,213.19302 580.01023,212.927329 585.678167,212.750202 C586.298098,215.761365 586.918029,218.861091 587.537959,221.872254 C587.626521,223.73209 587.715082,225.591926 587.892205,227.451762 C588.512136,231.437125 587.00659,237.105196 588.689259,240.204923 C590.283366,240.824868 592.054597,240.736304 594.091512,240.559177 C594.534319,245.430176 595.065689,250.301175 595.508496,255.172173 C588.15789,255.614992 578.593246,257.651955 574.253731,252.603829 Z M659.892722,187.332444 C654.136224,195.391733 644.748702,197.782951 632.792897,199.908478 C628.541944,200.616987 620.659968,201.591186 615.700523,200.882677 C612.335185,200.70555 608.881286,200.439859 605.427387,200.262732 C600.822188,199.46566 596.128427,198.668587 591.434666,197.960078 C591.877474,189.989353 592.408843,181.930064 592.851651,173.959338 C596.039865,174.844975 599.139519,175.819174 602.327733,176.793374 C612.689431,179.361719 628.276259,179.096028 635.361181,173.959338 C635.272619,173.25083 635.184058,172.542321 635.006935,171.745248 C631.907282,172.808011 628.453382,173.162266 624.733798,173.782211 C619.508669,174.579284 613.220801,173.782211 609.235532,172.719448 C589.397751,167.228504 590.283366,149.781472 590.283366,125.426477 C597.899657,125.160787 605.60451,124.806532 613.220801,124.452278 C614.814908,124.186587 619.242984,123.920896 620.040038,124.629405 C620.128599,126.134986 620.128599,127.640568 620.217161,129.146149 C621.722707,138.976711 617.117508,158.81496 631.198789,154.298216 C632.438651,153.589707 633.678512,152.881198 634.918373,152.084126 C634.652689,142.696382 634.298443,133.308639 633.944197,123.832332 C643.863087,123.478078 653.781977,123.123823 663.700868,122.769569 C664.143675,143.493455 669.545928,173.870775 659.892722,187.332444 Z M255.520815,48.4646959 C254.723761,45.8077875 253.661023,43.9479516 250.384246,43.7708243 C247.904524,44.9221513 246.48754,45.6306602 246.044732,48.907514 C249.232947,48.8189504 252.3326,48.7303868 255.520815,48.5532595 C255.520815,48.5532595 255.520815,48.4646959 255.520815,48.4646959 Z M477.190303,90.2667222 C483.123925,90.089595 489.057547,89.8239042 494.991169,89.6467769 C493.751308,79.284834 477.190303,79.1077067 477.190303,90.2667222 Z M392.082681,110.459226 C403.772802,108.245136 403.68424,85.0414689 388.54022,85.3071598 C384.46639,87.2555593 382.163791,88.5840135 380.923929,93.3664488 C378.798453,101.957119 382.960844,112.230499 392.082681,110.459226 Z M315.034157,112.939008 C319.373672,114.001771 324.775925,111.256299 325.750101,108.422263 C325.572978,105.056846 325.395855,101.691429 325.307294,98.3260112 C324.775925,95.0491574 325.750101,91.3294856 324.864486,88.5840135 C322.384764,88.4068863 319.905041,88.2297591 317.425318,88.1411955 C313.262927,89.9124678 310.251835,90.5324131 308.392043,94.5177758 C304.849582,102.045683 308.480605,111.344863 315.034157,112.939008 Z M278.192564,113.824644 C277.92688,106.296737 277.661195,98.7688293 277.395511,91.1523584 C274.738665,89.9124678 271.904696,89.4696497 267.742305,89.4696497 C266.148197,90.1781586 264.642651,90.3552858 263.40279,91.3294856 C258.531906,95.0491574 258.266222,105.588228 262.162929,110.54779 C265.262582,114.621716 271.727573,114.887407 278.192564,113.824644 Z M220.804698,116.481552 C233.380434,114.356026 232.760504,90.9752312 218.502099,91.240922 C213.985461,93.1007579 211.505738,94.3406485 210.265877,99.300211 C208.228962,107.448064 212.568477,117.89857 220.804698,116.481552 Z M553.441773,177.059065 C558.844026,173.162266 559.463957,158.372142 555.301565,152.43838 C552.733281,148.807272 548.305205,148.453017 542.283022,148.718708 C542.637268,158.81496 542.991514,168.999776 543.34576,179.096028 C547.242467,179.096028 551.139174,178.741774 553.441773,177.059065 Z M478.16448,150.578544 C477.01318,148.895835 473.382158,148.541581 471.16812,149.604344 C467.537097,151.375617 465.765867,155.449543 465.854429,161.117614 C471.610927,161.206178 482.769679,157.309379 478.16448,150.578544 Z M265.971074,158.81496 C261.454437,160.674796 259.860329,162.800323 258.797591,168.11414 C257.203484,176.527683 259.240399,191.14068 268.450797,189.19228 C278.015441,187.155317 277.661195,158.992088 265.971074,158.81496 Z M545.736921,228.248834 C543.965691,229.134471 542.19446,229.488725 541.04316,231.08287 C539.27193,233.562651 538.209192,240.647741 541.840214,241.976195 C548.039521,244.278849 550.164997,233.916906 548.482328,228.337398 C547.596713,228.248834 546.622536,228.248834 545.736921,228.248834 Z M367.728263,232.854142 C367.285455,232.499888 366.931209,232.145634 366.488401,231.791379 C362.32601,230.551488 360.466218,234.713978 360.554779,238.43365 C364.628609,238.610777 368.791001,236.928069 367.728263,232.854142 Z M82.560163,81.9417424 C82.6487245,71.9340539 88.848031,67.5058732 95.9329528,64.2290194 C95.9329528,64.1404558 95.9329528,64.0518922 95.9329528,63.9633286 C95.7558297,63.8747649 95.5787067,63.7862013 95.4901452,63.6090741 C94.4274069,63.0776924 92.2133689,63.2548196 90.707823,63.3433833 C87.7852928,63.8747649 84.9513241,64.4947103 82.0287939,65.0260919 C76.272295,66.7973642 71.6670959,69.6313999 67.1504583,72.6425628 C58.9142367,78.0449434 49.1724694,94.9605938 53.3348609,110.193536 C55.5488989,118.252825 60.3312211,123.920896 66.7962122,127.729131 C86.2797469,139.065274 109.837112,118.784206 102.132259,97.1746842 C99.1211676,88.7611408 91.8591228,84.0672692 82.560163,81.9417424 Z" id="Shape"></path>
        </g>
    </g>
</svg>