<?xml version="1.0" encoding="UTF-8"?>
<svg width="960px" height="243px" viewBox="0 0 960 243" version="1.1" xmlns="http://www.w3.org/2000/svg" xmlns:xlink="http://www.w3.org/1999/xlink">
    <title>Rectangle</title>
    <g id="Page-1" stroke="none" stroke-width="1" fill="none" fill-rule="evenodd">
        <g id="Wexford-Street-[Converted]">
            <path d="M12,0 L948,0 C954.6,0 960,5.4 960,12 L960,231.4 C960,238 954.6,243.4 948,243.4 L12,243.4 C5.4,243.4 0,238 0,231.4 L0,12 C0,5.4 5.4,0 12,0 Z" id="Path" fill="#FFFFFF"></path>
            <polygon id="Path" fill="#01A0E2" points="14.2 15.8 791 15.8 791 228.4 14.2 228.4"></polygon>
            <path d="M297,125.3 C304.8,125.3 311.2,128.3 316.2,134.4 C321.1,140.4 323.6,149.1 323.6,160.3 C323.6,171.7 320.9,180.5 315.7,186.9 C311.1,192.6 304.8,195.4 296.9,195.4 C288.9,195.4 282.6,192.6 278,187 C272.8,180.6 270.1,171.9 270.3,160.8 C270.3,152.7 271.4,146 273.8,140.8 C276.2,135.6 279.3,131.7 283.1,129.1 C286.9,126.6 291.6,125.3 297,125.3 Z M483.9,125.2 C490.4,125.2 495.5,127 499.1,130.5 C502.8,134 504.7,139.1 504.9,145.7 L504.9,145.7 L493.8,146.3 C493.3,142.7 492.2,140.1 490.6,138.7 C489,137.2 486.7,136.5 483.7,136.5 C480.7,136.5 478.4,137.1 476.8,138.4 C475.2,139.7 474.4,141.2 474.4,143.1 C474.4,145 475.1,146.5 476.6,147.8 C478,149.1 481.4,150.5 486.7,152 C492.3,153.7 496.3,155.4 498.8,157.2 C501.3,159 503.2,161.3 504.5,164.2 C505.8,167.1 506.5,170.5 506.5,174.6 C506.5,180.4 504.7,185.4 501.1,189.4 C497.5,193.4 491.9,195.4 484.3,195.4 C470.8,195.4 463.3,187.6 461.7,172.2 L461.7,172.2 L472.5,170.9 C473.7,179.6 477.7,183.9 484.5,183.9 C487.8,183.9 490.5,183 492.4,181.2 C494.3,179.4 495.3,177.2 495.3,174.6 C495.3,173.1 495,171.8 494.3,170.7 C493.6,169.6 492.6,168.7 491.2,168 C489.8,167.3 486.5,166.1 481.2,164.5 C476.5,163.1 473,161.5 470.8,159.8 C468.6,158.1 466.9,155.9 465.6,153.1 C464.3,150.3 463.7,147.4 463.7,144.2 C463.7,140.5 464.5,137.2 466.2,134.2 C467.9,131.2 470.2,129 473.1,127.5 C476,126 479.6,125.2 483.9,125.2 Z M586.2,126.6 C592.2,126.6 596.4,127.2 599,128.4 C601.5,129.6 603.7,131.7 605.3,134.7 C607,137.7 607.8,141.3 607.8,145.5 C607.8,150.8 606.5,155.1 604,158.3 C601.5,161.5 597.9,163.6 593.3,164.4 C595.7,166.2 597.6,168.1 599.2,170.1 C600.8,172.1 602.9,175.8 605.6,181.1 L605.6,181.1 L612.3,194.3 L599,194.3 L591,179.5 C588.1,174.2 586.1,170.8 585.1,169.5 C584.1,168.1 583,167.2 581.8,166.7 C580.6,166.2 578.8,165.9 576.2,165.9 L576.2,165.9 L573.9,165.9 L573.9,194.4 L562.8,194.4 L562.8,126.6 Z M355.6,126.5 C361.6,126.5 365.8,127.1 368.4,128.3 C370.9,129.5 373.1,131.6 374.7,134.6 C376.4,137.6 377.2,141.2 377.2,145.4 C377.2,150.7 375.9,155 373.4,158.2 C370.9,161.4 367.3,163.5 362.7,164.3 C365.1,166.1 367,168 368.6,170 C370.2,172 372.3,175.7 375,181 L375,181 L381.7,194.3 L368.4,194.3 L360.4,179.5 C357.5,174.2 355.5,170.8 354.5,169.5 C353.5,168.1 352.4,167.2 351.2,166.7 C350,166.2 348.2,165.9 345.6,165.9 L345.6,165.9 L343.3,165.9 L343.3,194.3 L332.2,194.3 L332.2,126.5 Z M263.2,126.5 L263.2,138 L236.6,138 L236.6,154 L259.7,154 L259.7,165.4 L236.6,165.4 L236.6,194.3 L225.5,194.3 L225.5,126.5 L263.2,126.5 Z M659.2,126.4 L659.2,137.9 L629.4,137.9 L629.4,152.9 L657.1,152.9 L657.1,164.3 L629.4,164.3 L629.4,182.7 L660.2,182.7 L660.2,194.2 L618.4,194.2 L618.4,126.4 L659.2,126.4 Z M407.9,126.5 C413,126.5 416.9,127 419.5,128.2 C422.1,129.3 424.5,131.3 426.7,134 C428.9,136.8 430.6,140.3 431.9,144.7 C433.2,149.1 433.8,154.5 433.8,161 C433.8,166.9 433.1,172 431.8,176.3 C430.5,180.6 428.8,184.1 426.8,186.6 C424.8,189.1 422.4,191 419.5,192.3 C416.6,193.6 413,194.2 408.5,194.2 L408.5,194.2 L387.6,194.2 L387.6,126.5 Z M183.2,126.4 L194.1,146.7 L205.1,126.4 L218,126.4 L200.7,158.8 L219.7,194.2 L206.3,194.2 L194.1,171.2 L181.9,194.2 L168.5,194.2 L187.5,158.9 L170.2,126.4 L183.2,126.4 Z M163.8,126.4 L163.8,137.9 L134,137.9 L134,152.9 L161.7,152.9 L161.7,164.3 L134,164.3 L134,182.7 L164.8,182.7 L164.8,194.2 L123,194.2 L123,126.4 L163.8,126.4 Z M760.6,126.4 L760.6,137.9 L744.3,137.9 L744.3,194.2 L733.2,194.2 L733.2,137.9 L716.9,137.9 L716.9,126.4 L760.6,126.4 Z M710.4,126.4 L710.4,137.9 L680.6,137.9 L680.6,152.9 L708.3,152.9 L708.3,164.3 L680.6,164.3 L680.6,182.7 L711.4,182.7 L711.4,194.2 L669.6,194.2 L669.6,126.4 L710.4,126.4 Z M555.6,126.4 L555.6,137.9 L539.3,137.9 L539.3,194.2 L528.2,194.2 L528.2,137.9 L511.9,137.9 L511.9,126.4 L555.6,126.4 Z M56.3,126.4 L64.6,173 L74.7,126.4 L87.8,126.4 L97.5,173.8 L106,126.4 L117.2,126.4 L103.8,194.2 L92,194.2 L81,143.5 L70.2,194.2 L58.1,194.2 L44.9,126.4 L56.3,126.4 Z M296.8,137 C292.3,137 288.6,138.9 285.8,142.7 C283,146.5 281.6,152.3 281.5,160.3 C281.5,168.1 283,173.9 285.9,177.8 C288.8,181.7 292.5,183.6 296.8,183.6 C301.2,183.6 304.8,181.7 307.7,177.8 C310.6,174 312,168 312,160 C312,152.2 310.6,146.4 307.8,142.6 C305,138.9 301.3,137 296.8,137 Z M404.260166,137.900713 L398.8,137.9 L398.8,182.8 L407.1,182.8 C410.7,182.8 413.3,182.5 414.9,181.8 C416.5,181.1 417.8,180.1 418.8,178.7 C419.8,177.3 420.6,175.2 421.3,172.2 C422,169.2 422.3,165.3 422.3,160.5 C422.3,155.5 422,151.5 421.3,148.6 C420.6,145.7 419.5,143.5 418.1,141.8 C416.6,140.1 414.9,139 412.8,138.5 C411.3,138.1 408.3,137.9 403.8,137.9 Z M352.435986,137.900516 L343.4,137.9 L343.4,155.1 L352.063477,155.099127 C356.798242,155.081152 359.84375,154.7875 361.2,154.4 C362.5,154 363.6,153.1 364.5,151.7 C365.4,150.4 365.8,148.6 365.8,146.3 C365.8,144.1 365.4,142.4 364.5,141.1 C363.6,139.8 362.5,138.9 361,138.4 C360,138.1 357,137.9 352,137.9 Z M582.6,137.9 L574,137.9 L574,155.1 L582.663477,155.099127 C587.398242,155.081152 590.44375,154.7875 591.8,154.4 C593.1,154 594.2,153.1 595.1,151.7 C596,150.4 596.4,148.6 596.4,146.3 C596.4,144.1 596,142.4 595.1,141.1 C594.2,139.8 593.1,138.9 591.6,138.4 C590.6,138.1 587.6,137.9 582.6,137.9 L582.6,137.9 Z M382,50.7 C386.5,50.7 390,52.2 392.4,55.3 C394.2,57.5 395.1,60.8 395.3,65.1 L395.3,65.1 L386.9,67.5 C386.9,64.9 386.2,62.8 385,61.4 C383.7,60 382.1,59.3 380,59.3 C377,59.3 374.4,60.6 372,63.2 C369.6,65.8 367.8,70.1 366.7,76.1 C365.5,82.3 365.6,86.7 366.9,89.3 C368.2,91.9 370.3,93.2 373.2,93.2 C375.3,93.2 377.3,92.4 379.2,90.7 C381,89 382.7,86.4 384.1,82.7 L384.1,82.7 L391.3,85.8 C389,91.3 386.2,95.4 382.9,97.9 C379.6,100.4 375.8,101.7 371.7,101.7 C366.5,101.7 362.7,99.7 360.2,95.6 C357.4,90.9 356.8,84.6 358.3,76.6 C359.9,68.2 363,61.7 367.7,56.9 C371.7,52.8 376.5,50.7 382,50.7 Z M111.5,50.7 C116.2,50.7 119.7,52 121.8,54.6 C124,57.2 124.7,60.9 123.9,65.7 L123.9,65.7 L115.7,66.1 C115.9,63.5 115.5,61.7 114.5,60.6 C113.5,59.5 112,59 109.8,59 C107.6,59 105.9,59.5 104.5,60.4 C103.2,61.3 102.4,62.4 102.1,63.8 C101.9,65.2 102.2,66.3 103.1,67.2 C104,68.1 106.3,69.1 109.9,70.2 C113.8,71.3 116.4,72.6 118,73.9 C119.6,75.2 120.6,76.9 121.2,79 C121.8,81 121.8,83.5 121.2,86.5 C120.4,90.8 118.4,94.4 115.2,97.3 C112,100.2 107.6,101.7 102.1,101.7 C92.3,101.7 87.9,96.1 89,84.8 L89,84.8 L97.1,83.9 C96.8,90.2 99.1,93.3 104,93.3 C106.4,93.3 108.5,92.7 110.1,91.4 C111.7,90.1 112.7,88.5 113.1,86.6 C113.3,85.4 113.2,84.5 112.9,83.7 C112.5,82.9 111.9,82.3 111,81.8 C110.1,81.3 107.8,80.5 104.2,79.3 C101,78.3 98.7,77.1 97.3,75.9 C95.9,74.6 95,73 94.4,71 C93.8,69 93.8,66.8 94.2,64.5 C94.7,61.8 95.8,59.4 97.4,57.2 C99,55 101,53.4 103.3,52.3 C105.6,51.2 108.4,50.7 111.5,50.7 Z M338.7,50.7 C344.4,50.7 348.6,52.9 351.4,57.3 C354.2,61.8 354.8,68 353.2,76.2 C351.7,84.4 348.5,90.9 343.8,95.5 C339.7,99.6 334.7,101.7 329,101.7 C323.3,101.7 319.1,99.7 316.5,95.6 C313.6,91 312.9,84.6 314.3,76.5 C315.5,70.6 317.3,65.8 319.7,62 C322.2,58.2 325,55.4 328.1,53.5 C331.2,51.6 334.7,50.7 338.7,50.7 Z M479.1,50.7 C483.9,50.7 487.5,51.9 489.9,54.4 C492.3,56.8 493.5,60.4 493.4,65.2 L493.4,65.2 L485.1,67 C485,64.5 484.2,62.5 482.9,61.2 C481.6,59.9 479.8,59.2 477.6,59.2 C474.2,59.2 471.1,60.6 468.5,63.3 C465.8,66 464,70.2 462.9,75.7 C461.8,81.6 462.1,86.1 463.8,89.2 C465.3,91.9 467.7,93.2 471.1,93.2 C472.7,93.2 474.4,92.8 476.2,92.1 C478,91.3 479.7,90.3 481.3,89 L481.3,89 L482.5,82.8 L482.5,82.6 L473.1,82.6 L474.7,74.3 L492.1,74.3 L488.3,93.9 C486.1,96 483.3,97.8 479.8,99.3 C476.3,100.8 472.9,101.6 469.7,101.6 C465.7,101.6 462.4,100.7 459.8,98.7 C457.1,96.7 455.3,93.8 454.3,89.9 C453.3,86 453.3,81.4 454.3,76.1 C455.4,70.7 457.2,66.1 459.7,62.2 C462.2,58.4 465.1,55.5 468.3,53.6 C471.5,51.7 475.1,50.7 479.1,50.7 Z M151.8,51.7 C156.2,51.7 159.2,52.1 160.9,53 C162.6,53.9 163.8,55.4 164.6,57.6 C165.4,59.8 165.5,62.5 164.9,65.5 C164.2,69.3 162.7,72.4 160.4,74.8 C158.1,77.1 155.2,78.6 151.7,79.2 C153.2,80.4 154.4,81.8 155.2,83.3 C156.1,84.8 157.1,87.4 158.3,91.3 L158.3,91.3 L161.3,100.9 L151.7,100.9 L147.9,90.2 C146.5,86.3 145.6,83.9 145,82.9 C144.4,81.9 143.8,81.3 143,80.9 C142.2,80.5 140.9,80.3 139,80.3 L139,80.3 L137.3,80.3 L133.3,100.9 L133.3,101 L125.3,101 L134.8,51.7 Z M561.6,51.7 C566,51.7 569,52.1 570.7,53 C572.4,53.9 573.6,55.4 574.4,57.6 C575.2,59.8 575.3,62.5 574.7,65.5 C574,69.3 572.5,72.4 570.2,74.8 C567.9,77.1 565,78.6 561.5,79.2 C563,80.4 564.2,81.8 565,83.3 C565.9,84.8 566.9,87.4 568.1,91.3 L568.1,91.3 L571.1,100.9 L561.5,100.9 L557.7,90.2 C556.3,86.3 555.4,83.9 554.8,82.9 C554.2,81.9 553.6,81.3 552.8,80.9 C552,80.5 550.7,80.3 548.8,80.3 L548.8,80.3 L547.1,80.3 L543.1,100.9 L543.1,101 L535.1,101 L544.6,51.7 Z M679.7,51.6 L689.8,84.5 L696.1,51.6 L703.6,51.6 L694.1,100.9 L686,100.9 L676.1,68.8 L669.9,100.9 L662.3,100.9 L671.8,51.6 L679.7,51.6 Z M596.8,51.5 L597.6,85.2 L611.3,51.5 L623.4,51.5 L613.9,100.8 L606.4,100.8 L613.9,62 L598.6,100.9 L590.8,100.9 L590.3,62.1 L582.8,100.9 L582.8,100.8 L575.2,100.8 L584.7,51.5 L596.8,51.5 Z M295,52 L287.2,92.6 L307.3,92.6 L305.7,100.9 L277.5,100.9 L286.9,52 L295,52 Z M245.7,51.4 C249.4,51.4 252.2,51.9 253.9,52.7 C255.6,53.6 257.1,55 258.3,57 C259.5,59 260.3,61.6 260.6,64.8 C260.9,68 260.6,72 259.7,76.7 C258.8,80.9 257.7,84.7 256.1,87.8 C254.5,91 252.8,93.5 251,95.3 C249.2,97.2 247.2,98.6 244.9,99.5 C242.6,100.4 239.9,100.9 236.6,100.9 L236.6,100.9 L221.4,100.9 L231,51.4 Z M223.2,51.6 L213.7,100.9 L205.6,100.9 L215.1,51.6 L223.2,51.6 Z M524.2,51.6 L530.8,100.9 L522,100.9 L520.6,89.7 L504.6,89.7 L499.1,100.9 L490.5,100.9 L515.6,51.6 L524.2,51.6 Z M195.1,51.6 L201.7,100.9 L192.9,100.9 L191.5,89.7 L175.5,89.7 L170,100.9 L161.4,100.9 L186.5,51.6 L195.1,51.6 Z M412.8,51.6 L409.1,71 L425,71 L428.8,51.6 L436.9,51.6 L427.4,100.9 L419.3,100.9 L423.4,79.3 L407.5,79.3 L403.4,100.9 L395.2,100.9 L404.7,51.6 L412.8,51.6 Z M651.5,51.6 L658.1,100.9 L649.3,100.9 L647.9,89.7 L631.9,89.7 L626.4,100.9 L617.8,100.9 L642.9,51.6 L651.5,51.6 Z M337.2,59.3 C333.9,59.3 331,60.6 328.4,63.4 C325.8,66.1 324,70.4 322.9,76.2 C321.8,81.9 322,86.2 323.6,89 C325.2,91.9 327.5,93.3 330.7,93.3 C333.9,93.3 336.8,91.9 339.4,89.1 C342,86.2 343.9,81.9 345,76.1 C346.1,70.4 345.9,66.1 344.4,63.4 C342.9,60.7 340.5,59.3 337.2,59.3 Z M241,59.8 L237.3,59.8 L231,92.4 L237.1,92.4 C239.7,92.4 241.6,92.2 242.9,91.7 C244.2,91.2 245.3,90.5 246.2,89.5 C247.2,88.5 248.1,86.9 249,84.8 C249.9,82.6 250.7,79.8 251.4,76.3 C252.1,72.7 252.4,69.8 252.3,67.7 C252.2,65.6 251.7,63.9 250.9,62.7 C250.1,61.5 248.9,60.7 247.5,60.3 C246.4,60 244.2,59.9 241,59.9 L241,59.9 L241,59.8 Z M644.9,63.1 L636,81.4 L646.9,81.4 L644.9,63.1 Z M188.5,63.1 L179.6,81.4 L190.5,81.4 L188.5,63.1 Z M517.6,63.1 L508.7,81.4 L519.6,81.4 L517.6,63.1 Z M147.767416,59.9003608 L141.1,59.9 L138.7,72.5 L144.7,72.5 C148.4,72.5 150.7,72.3 151.8,72 C152.9,71.6 153.8,71 154.6,70 C155.4,69 156,67.7 156.3,66.1 C156.6,64.5 156.5,63.3 156.1,62.3 C155.6,61.3 154.9,60.7 153.9,60.3 C153.2,60 151,59.9 147.4,59.9 Z M557.667416,59.9003608 L551,59.9 L548.6,72.5 L554.6,72.5 C558.3,72.5 560.6,72.3 561.7,72 C562.8,71.6 563.7,71 564.5,70 C565.3,69 565.9,67.7 566.2,66.1 C566.5,64.5 566.4,63.3 566,62.3 C565.5,61.3 564.8,60.7 563.8,60.3 C563.1,60 560.9,59.9 557.3,59.9 Z M201.7,38.2 L192.2,48.3 L187.4,48.3 L193.1,38.2 L201.7,38.2 Z" id="Combined-Shape" fill="#FFFFFF"></path>
            <path d="M868,164.7 C869.3,162.5 871,160.3 873.1,158 C875.2,155.7 880.2,151 888.1,143.8 C896.6,136.2 902.6,129.9 906.2,125 C909.8,120.1 912.5,115.2 914.3,110.4 C916,105.6 916.9,100.6 916.9,95.4 C916.9,86.3 913.5,78.2 906.7,71.2 C899.9,64.2 889.7,60.6 876.3,60.6 C864.1,60.6 854.3,63.6 846.9,69.6 C839.5,75.6 835,85.1 833.5,98 L857.9,100.4 C858.8,87.3 864.6,80.7 875.5,80.7 C880.5,80.7 884.5,82.1 887.6,84.9 C890.7,87.7 892.2,91.9 892.2,97.4 C892.2,102.6 890.3,107.7 886.7,112.8 C884.2,116.3 877.6,123 866.7,132.9 C853,145.3 843.8,155.4 839.1,163 C834.4,170.7 831.5,178.7 830.6,187.2 L916.8,187.2 L916.8,164.7 L868,164.7 Z" id="Path" fill="#01A0E2"></path>
        </g>
    </g>
</svg>